<?xml version="1.0" encoding="UTF-8" standalone="no"?>
<!DOCTYPE svg PUBLIC "-//W3C//DTD SVG 1.1//EN"
 "http://www.w3.org/Graphics/SVG/1.1/DTD/svg11.dtd">
<!-- Generated by graphviz version 2.28.0 (20111028.1807)
 -->
<!-- Title: G Pages: 1 -->
<!--zoomable 153 -->
<svg id="main" version="1.1" xmlns="http://www.w3.org/2000/svg" xmlns:xlink="http://www.w3.org/1999/xlink" xml:space="preserve" onload="init(evt)">
        <defs>
                <circle id="rim" cx="0" cy="0" r="7"/>
                <circle id="rim2" cx="0" cy="0" r="3.5"/>
                <g id="zoomPlus">
                        <use xlink:href="#rim" fill="#404040">
                                <set attributeName="fill" to="#808080" begin="zoomplus.mouseover" end="zoomplus.mouseout"/>
                        </use>
                        <path d="M-4,0h8M0,-4v8" fill="none" stroke="white" stroke-width="1.5" pointer-events="none"/>
                </g>
                <g id="zoomMin">
                        <use xlink:href="#rim" fill="#404040">
                                <set attributeName="fill" to="#808080" begin="zoomminus.mouseover" end="zoomminus.mouseout"/>
                        </use>
                        <path d="M-4,0h8" fill="none" stroke="white" stroke-width="1.5" pointer-events="none"/>
                </g>
                <g id="dirArrow">
                        <path fill="none" stroke="white" stroke-width="1.5" d="M0,-3.0v7 M-2.5,-0.5L0,-3.0L2.5,-0.5"/>
                </g>
               <g id="resetDef">
                       <use xlink:href="#rim2" fill="#404040">
                               <set attributeName="fill" to="#808080" begin="reset.mouseover" end="reset.mouseout"/>
                       </use>
               </g>
        </defs>

<script type="text/javascript">
var viewWidth = 878;
var viewHeight = 153;
var sectionId = 'dynsection-5';
</script>
<script xlink:href="svgpan.js"/>
<svg id="graph" class="graph">
<g id="viewport">
<title>G</title>
<!-- Node1 -->
<g id="node1" class="node"><title>Node1</title>
<polygon fill="#bfbfbf" stroke="black" points="0.553711,-60.9336 0.553711,-83.0664 241.446,-83.0664 241.446,-60.9336 0.553711,-60.9336"/>
<text text-anchor="middle" x="121" y="-69.0664" font-family="sans-serif" font-size="10.00">com.google.appengine.codelab.Util.listEntities</text>
</g>
<!-- Node2 -->
<g id="node3" class="node"><title>Node2</title>
<a xlink:href="classcom_1_1google_1_1appengine_1_1codelab_1_1_item.xhtml#ac34c1a67f0b499b88f2ba10c9c57d9d5" target="_top" xlink:title="com.google.appengine.codelab.Item.getAllItems">
<polygon fill="none" stroke="black" points="293.676,-122.934 293.676,-145.066 544.324,-145.066 544.324,-122.934 293.676,-122.934"/>
<text text-anchor="middle" x="419" y="-131.066" font-family="sans-serif" font-size="10.00">com.google.appengine.codelab.Item.getAllItems</text>
</a>
</g>
<!-- Node1&#45;&gt;Node2 -->
<g id="edge2" class="edge"><title>Node1&#45;&gt;Node2</title>
<path fill="none" stroke="midnightblue" d="M169.569,-85.9322C200.308,-94.5793 241.282,-105.444 278,-113 296.055,-116.715 315.547,-120.056 334.084,-122.923"/>
<polygon fill="midnightblue" stroke="midnightblue" points="170.134,-82.4543 159.558,-83.0927 168.224,-89.1887 170.134,-82.4543"/>
</g>
<!-- Node4 -->
<g id="node7" class="node"><title>Node4</title>
<a xlink:href="classcom_1_1google_1_1appengine_1_1codelab_1_1_item.xhtml#a03e5b5b5ebc360327091c946c6b7874d" target="_top" xlink:title="com.google.appengine.codelab.Item.getItem">
<polygon fill="none" stroke="black" points="302.565,-81.9336 302.565,-104.066 535.435,-104.066 535.435,-81.9336 302.565,-81.9336"/>
<text text-anchor="middle" x="419" y="-90.0664" font-family="sans-serif" font-size="10.00">com.google.appengine.codelab.Item.getItem</text>
</a>
</g>
<!-- Node1&#45;&gt;Node4 -->
<g id="edge6" class="edge"><title>Node1&#45;&gt;Node4</title>
<path fill="none" stroke="midnightblue" d="M251.939,-81.2187C268.717,-82.409 285.809,-83.6216 302.335,-84.794"/>
<polygon fill="midnightblue" stroke="midnightblue" points="251.764,-77.6975 241.541,-80.481 251.269,-84.68 251.764,-77.6975"/>
</g>
<!-- Node5 -->
<g id="node10" class="node"><title>Node5</title>
<a xlink:href="classcom_1_1google_1_1appengine_1_1codelab_1_1_product.xhtml#a4fb28dec3d7ae43c47581ecadb62012b" target="_top" xlink:title="com.google.appengine.codelab.Product.getAllProducts">
<polygon fill="none" stroke="black" points="278.08,-40.9336 278.08,-63.0664 559.92,-63.0664 559.92,-40.9336 278.08,-40.9336"/>
<text text-anchor="middle" x="419" y="-49.0664" font-family="sans-serif" font-size="10.00">com.google.appengine.codelab.Product.getAllProducts</text>
</a>
</g>
<!-- Node1&#45;&gt;Node5 -->
<g id="edge10" class="edge"><title>Node1&#45;&gt;Node5</title>
<path fill="none" stroke="midnightblue" d="M251.613,-63.2424C260.231,-62.6601 268.934,-62.072 277.602,-61.4864"/>
<polygon fill="midnightblue" stroke="midnightblue" points="251.283,-59.7566 241.541,-63.9229 251.755,-66.7407 251.283,-59.7566"/>
</g>
<!-- Node7 -->
<g id="node14" class="node"><title>Node7</title>
<a xlink:href="classcom_1_1google_1_1appengine_1_1codelab_1_1_util.xhtml#a1166a7fd8ba0cbbd491a3aa68556bf1d" target="_top" xlink:title="com.google.appengine.codelab.Util.writeJSON">
<polygon fill="none" stroke="black" points="299.816,0.0664062 299.816,-22.0664 538.184,-22.0664 538.184,0.0664062 299.816,0.0664062"/>
<text text-anchor="middle" x="419" y="-8.06641" font-family="sans-serif" font-size="10.00">com.google.appengine.codelab.Util.writeJSON</text>
</a>
</g>
<!-- Node1&#45;&gt;Node7 -->
<g id="edge14" class="edge"><title>Node1&#45;&gt;Node7</title>
<path fill="none" stroke="midnightblue" d="M169.242,-58.0674C200.008,-49.3711 241.133,-38.4523 278,-31 294.485,-27.6677 312.172,-24.6868 329.237,-22.1077"/>
<polygon fill="midnightblue" stroke="midnightblue" points="167.884,-54.8152 159.227,-60.9232 169.803,-61.5469 167.884,-54.8152"/>
</g>
<!-- Node3 -->
<g id="node5" class="node"><title>Node3</title>
<a xlink:href="classcom_1_1google_1_1appengine_1_1codelab_1_1_item_servlet.xhtml#ac3bcf595bb8d62c1ef0a44d24ce129c8" target="_top" xlink:title="com.google.appengine.codelab.ItemServlet.doGet">
<polygon fill="none" stroke="black" points="604.402,-101.934 604.402,-124.066 861.598,-124.066 861.598,-101.934 604.402,-101.934"/>
<text text-anchor="middle" x="733" y="-110.066" font-family="sans-serif" font-size="10.00">com.google.appengine.codelab.ItemServlet.doGet</text>
</a>
</g>
<!-- Node2&#45;&gt;Node3 -->
<g id="edge4" class="edge"><title>Node2&#45;&gt;Node3</title>
<path fill="none" stroke="midnightblue" d="M554.819,-124.926C571.218,-123.822 587.935,-122.697 604.227,-121.6"/>
<polygon fill="midnightblue" stroke="midnightblue" points="554.398,-121.446 544.656,-125.61 554.868,-128.43 554.398,-121.446"/>
</g>
<!-- Node4&#45;&gt;Node3 -->
<g id="edge8" class="edge"><title>Node4&#45;&gt;Node3</title>
<path fill="none" stroke="midnightblue" d="M545.768,-101.062C565.081,-102.3 585.036,-103.579 604.388,-104.82"/>
<polygon fill="midnightblue" stroke="midnightblue" points="545.937,-97.5658 535.734,-100.419 545.489,-104.551 545.937,-97.5658"/>
</g>
<!-- Node6 -->
<g id="node12" class="node"><title>Node6</title>
<a xlink:href="classcom_1_1google_1_1appengine_1_1codelab_1_1_product_servlet.xhtml#a7c57929d447f8ee5c296d57be19d1727" target="_top" xlink:title="com.google.appengine.codelab.ProductServlet.doGet">
<polygon fill="none" stroke="black" points="596.604,-40.9336 596.604,-63.0664 869.396,-63.0664 869.396,-40.9336 596.604,-40.9336"/>
<text text-anchor="middle" x="733" y="-49.0664" font-family="sans-serif" font-size="10.00">com.google.appengine.codelab.ProductServlet.doGet</text>
</a>
</g>
<!-- Node5&#45;&gt;Node6 -->
<g id="edge12" class="edge"><title>Node5&#45;&gt;Node6</title>
<path fill="none" stroke="midnightblue" d="M570.305,-52C579.073,-52 587.866,-52 596.571,-52"/>
<polygon fill="midnightblue" stroke="midnightblue" points="570.029,-48.5001 560.029,-52 570.029,-55.5001 570.029,-48.5001"/>
</g>
</g>
</svg>
        <g id="navigator" transform="translate(0 0)" fill="#404254">
                <rect fill="#f2f5e9" fill-opacity="0.5" stroke="#606060" stroke-width=".5" x="0" y="0" width="60" height="60"/>
                <use id="zoomplus" xlink:href="#zoomPlus" x="17" y="9" onmousedown="handleZoom(evt,'in')"/>
                <use id="zoomminus" xlink:href="#zoomMin" x="42" y="9" onmousedown="handleZoom(evt,'out')"/>
                <use id="reset" xlink:href="#resetDef" x="30" y="36" onmousedown="handleReset()"/>
                <g id="arrowUp" xlink:href="#dirArrow" transform="translate(30 24)" onmousedown="handlePan(0,-1)">
                  <use xlink:href="#rim" fill="#404040">
                        <set attributeName="fill" to="#808080" begin="arrowUp.mouseover" end="arrowUp.mouseout"/>
                  </use>
                  <path fill="none" stroke="white" stroke-width="1.5" d="M0,-3.0v7 M-2.5,-0.5L0,-3.0L2.5,-0.5"/>
                </g>
                <g id="arrowRight" xlink:href="#dirArrow" transform="rotate(90) translate(36 -43)" onmousedown="handlePan(1,0)">
                  <use xlink:href="#rim" fill="#404040">
                        <set attributeName="fill" to="#808080" begin="arrowRight.mouseover" end="arrowRight.mouseout"/>
                  </use>
                  <path fill="none" stroke="white" stroke-width="1.5" d="M0,-3.0v7 M-2.5,-0.5L0,-3.0L2.5,-0.5"/>
                </g>
                <g id="arrowDown" xlink:href="#dirArrow" transform="rotate(180) translate(-30 -48)" onmousedown="handlePan(0,1)">
                  <use xlink:href="#rim" fill="#404040">
                        <set attributeName="fill" to="#808080" begin="arrowDown.mouseover" end="arrowDown.mouseout"/>
                  </use>
                  <path fill="none" stroke="white" stroke-width="1.5" d="M0,-3.0v7 M-2.5,-0.5L0,-3.0L2.5,-0.5"/>
                </g>
                <g id="arrowLeft" xlink:href="#dirArrow" transform="rotate(270) translate(-36 17)" onmousedown="handlePan(-1,0)">
                  <use xlink:href="#rim" fill="#404040">
                        <set attributeName="fill" to="#808080" begin="arrowLeft.mouseover" end="arrowLeft.mouseout"/>
                  </use>
                  <path fill="none" stroke="white" stroke-width="1.5" d="M0,-3.0v7 M-2.5,-0.5L0,-3.0L2.5,-0.5"/>
                </g>
        </g>
        <svg viewBox="0 0 25 25" width="100%" height="30px" preserveAspectRatio="xMaxYMin meet"> 
          <g id="printButton" transform="scale(0.4 0.4)" onmousedown="handlePrint(evt)">
            <rect height="23.33753581" id="paper" rx="2" style="fill:#f2f5e9;fill-rule:evenodd;stroke:#111111;stroke-width:3.224;stroke-linejoin:round;" transform="matrix(1.000000,0.000000,-0.339266,0.940691,0.000000,0.000000)" width="25.55231285" x="26.69387353" y="7.36162977"/>
            <rect height="26.272097" id="body" rx="2" style="fill:#404040;fill-rule:evenodd;stroke:#111111;stroke-width:3.125;stroke-linejoin:round;" width="50" x="4.5295201" y="27.078951"/>
            <rect height="8.27750969" id="tray" style="fill:#d2d5c9;fill-rule:evenodd;stroke:#111111;stroke-width:3.125;stroke-linecap:round;stroke-linejoin:round;" width="40" x="10.28778839" y="44.96812282"/>
          </g>
        </svg>
</svg>
