<?xml version="1.0" encoding="UTF-8" standalone="no"?>
<!DOCTYPE svg PUBLIC "-//W3C//DTD SVG 1.1//EN"
 "http://www.w3.org/Graphics/SVG/1.1/DTD/svg11.dtd">
<!-- Generated by graphviz version 2.28.0 (20111028.1807)
 -->
<!-- Title: G Pages: 1 -->
<svg width="185pt" height="236pt"
 viewBox="0.00 0.00 185.00 236.00" xmlns="http://www.w3.org/2000/svg" xmlns:xlink="http://www.w3.org/1999/xlink">
<g id="graph1" class="graph" transform="scale(1 1) rotate(0) translate(4 232)">
<title>G</title>
<!-- Node1 -->
<g id="node1" class="node"><title>Node1</title>
<polygon fill="#bfbfbf" stroke="black" points="-0.413086,-0.535156 -0.413086,-123.465 172.413,-123.465 172.413,-0.535156 -0.413086,-0.535156"/>
<text text-anchor="middle" x="86" y="-109.465" font-family="sans-serif" font-size="10.00">csc440.nuf.ViewMessageActivity</text>
<polyline fill="none" stroke="black" points="-0.413086,-101.332 172.413,-101.332 "/>
<text text-anchor="middle" x="86" y="-87.332" font-family="sans-serif" font-size="10.00"> </text>
<polyline fill="none" stroke="black" points="-0.413086,-79.1992 172.413,-79.1992 "/>
<text text-anchor="start" x="7.58691" y="-65.1992" font-family="sans-serif" font-size="10.00">+ onCreate()</text>
<text text-anchor="start" x="7.58691" y="-51.0664" font-family="sans-serif" font-size="10.00">+ playMessage()</text>
<text text-anchor="start" x="7.58691" y="-36.9336" font-family="sans-serif" font-size="10.00">+ onClick()</text>
<text text-anchor="start" x="7.58691" y="-22.8008" font-family="sans-serif" font-size="10.00"># onResume()</text>
<text text-anchor="start" x="7.58691" y="-8.66797" font-family="sans-serif" font-size="10.00"># onActivityResult()</text>
</g>
<!-- Node2 -->
<g id="node2" class="node"><title>Node2</title>
<polygon fill="none" stroke="#bfbfbf" points="15.1582,-160.801 15.1582,-227.199 66.8418,-227.199 66.8418,-160.801 15.1582,-160.801"/>
<text text-anchor="middle" x="41" y="-213.199" font-family="sans-serif" font-size="10.00">Activity</text>
<polyline fill="none" stroke="#bfbfbf" points="15.1582,-205.066 66.8418,-205.066 "/>
<text text-anchor="middle" x="41" y="-191.066" font-family="sans-serif" font-size="10.00"> </text>
<polyline fill="none" stroke="#bfbfbf" points="15.1582,-182.934 66.8418,-182.934 "/>
<text text-anchor="middle" x="41" y="-168.934" font-family="sans-serif" font-size="10.00"> </text>
</g>
<!-- Node2&#45;&gt;Node1 -->
<g id="edge2" class="edge"><title>Node2&#45;&gt;Node1</title>
<path fill="none" stroke="midnightblue" d="M55.5423,-150.989C58.5627,-142.263 61.8027,-132.903 65.002,-123.661"/>
<polygon fill="none" stroke="midnightblue" points="52.203,-149.936 52.2393,-160.531 58.8179,-152.226 52.203,-149.936"/>
</g>
<!-- Node3 -->
<g id="node4" class="node"><title>Node3</title>
<polygon fill="none" stroke="#bfbfbf" points="84.9287,-160.801 84.9287,-227.199 177.071,-227.199 177.071,-160.801 84.9287,-160.801"/>
<text text-anchor="middle" x="131" y="-213.199" font-family="sans-serif" font-size="10.00">OnClickListener</text>
<polyline fill="none" stroke="#bfbfbf" points="84.9287,-205.066 177.071,-205.066 "/>
<text text-anchor="middle" x="131" y="-191.066" font-family="sans-serif" font-size="10.00"> </text>
<polyline fill="none" stroke="#bfbfbf" points="84.9287,-182.934 177.071,-182.934 "/>
<text text-anchor="middle" x="131" y="-168.934" font-family="sans-serif" font-size="10.00"> </text>
</g>
<!-- Node3&#45;&gt;Node1 -->
<g id="edge4" class="edge"><title>Node3&#45;&gt;Node1</title>
<path fill="none" stroke="midnightblue" d="M116.458,-150.989C113.437,-142.263 110.197,-132.903 106.998,-123.661"/>
<polygon fill="none" stroke="midnightblue" points="113.182,-152.226 119.761,-160.531 119.797,-149.936 113.182,-152.226"/>
</g>
</g>
</svg>
