<?xml version="1.0" encoding="UTF-8" standalone="no"?>
<!DOCTYPE svg PUBLIC "-//W3C//DTD SVG 1.1//EN"
 "http://www.w3.org/Graphics/SVG/1.1/DTD/svg11.dtd">
<!-- Generated by graphviz version 2.28.0 (20111028.1807)
 -->
<!-- Title: G Pages: 1 -->
<!--zoomable 358 -->
<svg id="main" version="1.1" xmlns="http://www.w3.org/2000/svg" xmlns:xlink="http://www.w3.org/1999/xlink" xml:space="preserve" onload="init(evt)">
        <defs>
                <circle id="rim" cx="0" cy="0" r="7"/>
                <circle id="rim2" cx="0" cy="0" r="3.5"/>
                <g id="zoomPlus">
                        <use xlink:href="#rim" fill="#404040">
                                <set attributeName="fill" to="#808080" begin="zoomplus.mouseover" end="zoomplus.mouseout"/>
                        </use>
                        <path d="M-4,0h8M0,-4v8" fill="none" stroke="white" stroke-width="1.5" pointer-events="none"/>
                </g>
                <g id="zoomMin">
                        <use xlink:href="#rim" fill="#404040">
                                <set attributeName="fill" to="#808080" begin="zoomminus.mouseover" end="zoomminus.mouseout"/>
                        </use>
                        <path d="M-4,0h8" fill="none" stroke="white" stroke-width="1.5" pointer-events="none"/>
                </g>
                <g id="dirArrow">
                        <path fill="none" stroke="white" stroke-width="1.5" d="M0,-3.0v7 M-2.5,-0.5L0,-3.0L2.5,-0.5"/>
                </g>
               <g id="resetDef">
                       <use xlink:href="#rim2" fill="#404040">
                               <set attributeName="fill" to="#808080" begin="reset.mouseover" end="reset.mouseout"/>
                       </use>
               </g>
        </defs>

<script type="text/javascript">
var viewWidth = 718;
var viewHeight = 358;
var sectionId = 'dynsection-6';
</script>
<script xlink:href="svgpan.js"/>
<svg id="graph" class="graph">
<g id="viewport">
<title>G</title>
<!-- Node1 -->
<g id="node1" class="node"><title>Node1</title>
<polygon fill="#bfbfbf" stroke="black" points="0.304688,-163.934 0.304688,-186.066 221.695,-186.066 221.695,-163.934 0.304688,-163.934"/>
<text text-anchor="middle" x="111" y="-172.066" font-family="sans-serif" font-size="10.00">csc440.nuf.complay.PlayerCanvas.setTime</text>
</g>
<!-- Node2 -->
<g id="node3" class="node"><title>Node2</title>
<a xlink:href="classcsc440_1_1nuf_1_1complay_1_1_timer.xhtml#aebbe2beb25856951b72d866d783ce897" target="_top" xlink:title="csc440.nuf.complay.Timer.setTime">
<polygon fill="none" stroke="black" points="257.834,-163.934 257.834,-186.066 444.166,-186.066 444.166,-163.934 257.834,-163.934"/>
<text text-anchor="middle" x="351" y="-172.066" font-family="sans-serif" font-size="10.00">csc440.nuf.complay.Timer.setTime</text>
</a>
</g>
<!-- Node1&#45;&gt;Node2 -->
<g id="edge2" class="edge"><title>Node1&#45;&gt;Node2</title>
<path fill="none" stroke="midnightblue" d="M221.943,-175C230.429,-175 238.977,-175 247.412,-175"/>
<polygon fill="midnightblue" stroke="midnightblue" points="247.634,-178.5 257.634,-175 247.634,-171.5 247.634,-178.5"/>
</g>
<!-- Node3 -->
<g id="node5" class="node"><title>Node3</title>
<a xlink:href="classcsc440_1_1nuf_1_1complay_1_1_on_screen.xhtml#a33feeb951e6558b0f50251e713a5a230" target="_top" xlink:title="csc440.nuf.complay.OnScreen.Q">
<polygon fill="none" stroke="black" points="508.36,-327.934 508.36,-350.066 681.64,-350.066 681.64,-327.934 508.36,-327.934"/>
<text text-anchor="middle" x="595" y="-336.066" font-family="sans-serif" font-size="10.00">csc440.nuf.complay.OnScreen.Q</text>
</a>
</g>
<!-- Node2&#45;&gt;Node3 -->
<g id="edge4" class="edge"><title>Node2&#45;&gt;Node3</title>
<path fill="none" stroke="midnightblue" d="M358.361,-186.186C374.639,-213.679 420.726,-284.733 480,-318 485.837,-321.276 492.081,-324.055 498.528,-326.411"/>
<polygon fill="midnightblue" stroke="midnightblue" points="497.502,-329.758 508.096,-329.569 499.697,-323.111 497.502,-329.758"/>
</g>
<!-- Node4 -->
<g id="node7" class="node"><title>Node4</title>
<a xlink:href="classcsc440_1_1nuf_1_1complay_1_1_q.xhtml#a6c333b08908191e022f23b68989c263a" target="_top" xlink:title="csc440.nuf.complay.Q.isEmpty">
<polygon fill="none" stroke="black" points="512.32,-286.934 512.32,-309.066 677.68,-309.066 677.68,-286.934 512.32,-286.934"/>
<text text-anchor="middle" x="595" y="-295.066" font-family="sans-serif" font-size="10.00">csc440.nuf.complay.Q.isEmpty</text>
</a>
</g>
<!-- Node2&#45;&gt;Node4 -->
<g id="edge6" class="edge"><title>Node2&#45;&gt;Node4</title>
<path fill="none" stroke="midnightblue" d="M362.373,-186.361C382.685,-207.835 430.094,-254.263 480,-277 487.082,-280.227 494.626,-282.958 502.331,-285.269"/>
<polygon fill="midnightblue" stroke="midnightblue" points="501.582,-288.693 512.153,-287.978 503.444,-281.945 501.582,-288.693"/>
</g>
<!-- Node5 -->
<g id="node9" class="node"><title>Node5</title>
<a xlink:href="classcsc440_1_1nuf_1_1complay_1_1_q.xhtml#a1909fe89eabfc73398d99c7dc4c9b946" target="_top" xlink:title="csc440.nuf.complay.Q.peek">
<polygon fill="none" stroke="black" points="519.681,-245.934 519.681,-268.066 670.319,-268.066 670.319,-245.934 519.681,-245.934"/>
<text text-anchor="middle" x="595" y="-254.066" font-family="sans-serif" font-size="10.00">csc440.nuf.complay.Q.peek</text>
</a>
</g>
<!-- Node2&#45;&gt;Node5 -->
<g id="edge8" class="edge"><title>Node2&#45;&gt;Node5</title>
<path fill="none" stroke="midnightblue" d="M371.29,-186.176C395.786,-199.896 439.722,-222.945 480,-236 489.405,-239.048 499.398,-241.7 509.407,-243.995"/>
<polygon fill="midnightblue" stroke="midnightblue" points="508.885,-247.463 519.401,-246.173 510.375,-240.624 508.885,-247.463"/>
</g>
<!-- Node6 -->
<g id="node11" class="node"><title>Node6</title>
<a xlink:href="classcsc440_1_1nuf_1_1complay_1_1_off_screen.xhtml#ab94d06e82ef902255257e6ca5b635a56" target="_top" xlink:title="csc440.nuf.complay.OffScreen.Q">
<polygon fill="none" stroke="black" points="507.94,-204.934 507.94,-227.066 682.06,-227.066 682.06,-204.934 507.94,-204.934"/>
<text text-anchor="middle" x="595" y="-213.066" font-family="sans-serif" font-size="10.00">csc440.nuf.complay.OffScreen.Q</text>
</a>
</g>
<!-- Node2&#45;&gt;Node6 -->
<g id="edge10" class="edge"><title>Node2&#45;&gt;Node6</title>
<path fill="none" stroke="midnightblue" d="M417.489,-186.095C448.695,-191.382 486.191,-197.735 518.583,-203.223"/>
<polygon fill="midnightblue" stroke="midnightblue" points="518.015,-206.676 528.459,-204.896 519.184,-199.775 518.015,-206.676"/>
</g>
<!-- Node7 -->
<g id="node13" class="node"><title>Node7</title>
<a xlink:href="classcsc440_1_1nuf_1_1complay_1_1_q.xhtml#aaa9e1371272a3d71932a7b753155741b" target="_top" xlink:title="csc440.nuf.complay.Q.push">
<polygon fill="none" stroke="black" points="519.419,-163.934 519.419,-186.066 670.581,-186.066 670.581,-163.934 519.419,-163.934"/>
<text text-anchor="middle" x="595" y="-172.066" font-family="sans-serif" font-size="10.00">csc440.nuf.complay.Q.push</text>
</a>
</g>
<!-- Node2&#45;&gt;Node7 -->
<g id="edge12" class="edge"><title>Node2&#45;&gt;Node7</title>
<path fill="none" stroke="midnightblue" d="M444.18,-175C465.531,-175 488.153,-175 509.171,-175"/>
<polygon fill="midnightblue" stroke="midnightblue" points="509.348,-178.5 519.348,-175 509.348,-171.5 509.348,-178.5"/>
</g>
<!-- Node8 -->
<g id="node15" class="node"><title>Node8</title>
<a xlink:href="classcsc440_1_1nuf_1_1complay_1_1_waiting.xhtml#aaa8d6d536f680a183de75424e4d95627" target="_top" xlink:title="csc440.nuf.complay.Waiting.Q">
<polygon fill="none" stroke="black" points="513.301,-122.934 513.301,-145.066 676.699,-145.066 676.699,-122.934 513.301,-122.934"/>
<text text-anchor="middle" x="595" y="-131.066" font-family="sans-serif" font-size="10.00">csc440.nuf.complay.Waiting.Q</text>
</a>
</g>
<!-- Node2&#45;&gt;Node8 -->
<g id="edge14" class="edge"><title>Node2&#45;&gt;Node8</title>
<path fill="none" stroke="midnightblue" d="M417.489,-163.905C448.695,-158.618 486.191,-152.265 518.583,-146.777"/>
<polygon fill="midnightblue" stroke="midnightblue" points="519.184,-150.225 528.459,-145.104 518.015,-143.324 519.184,-150.225"/>
</g>
<!-- Node9 -->
<g id="node17" class="node"><title>Node9</title>
<a xlink:href="classcsc440_1_1nuf_1_1complay_1_1_q.xhtml#af768e2d386701d7d3ee1078e08a21422" target="_top" xlink:title="csc440.nuf.complay.Q.pop">
<polygon fill="none" stroke="black" points="521.956,-81.9336 521.956,-104.066 668.044,-104.066 668.044,-81.9336 521.956,-81.9336"/>
<text text-anchor="middle" x="595" y="-90.0664" font-family="sans-serif" font-size="10.00">csc440.nuf.complay.Q.pop</text>
</a>
</g>
<!-- Node2&#45;&gt;Node9 -->
<g id="edge16" class="edge"><title>Node2&#45;&gt;Node9</title>
<path fill="none" stroke="midnightblue" d="M370.821,-163.814C395.186,-149.827 439.35,-126.128 480,-113 490.175,-109.714 501.045,-106.93 511.882,-104.581"/>
<polygon fill="midnightblue" stroke="midnightblue" points="512.712,-107.984 521.804,-102.545 511.305,-101.127 512.712,-107.984"/>
</g>
<!-- Node10 -->
<g id="node19" class="node"><title>Node10</title>
<a xlink:href="classcsc440_1_1nuf_1_1complay_1_1_q.xhtml#aa873b2a8f7d338e917b5db7af678a55d" target="_top" xlink:title="csc440.nuf.complay.Q.sortByEndTimeASC">
<polygon fill="none" stroke="black" points="485.674,-40.9336 485.674,-63.0664 704.326,-63.0664 704.326,-40.9336 485.674,-40.9336"/>
<text text-anchor="middle" x="595" y="-49.0664" font-family="sans-serif" font-size="10.00">csc440.nuf.complay.Q.sortByEndTimeASC</text>
</a>
</g>
<!-- Node2&#45;&gt;Node10 -->
<g id="edge18" class="edge"><title>Node2&#45;&gt;Node10</title>
<path fill="none" stroke="midnightblue" d="M362.019,-163.822C382.08,-142.218 429.602,-94.8479 480,-72 484.918,-69.7703 490.061,-67.7883 495.325,-66.0266"/>
<polygon fill="midnightblue" stroke="midnightblue" points="496.377,-69.3649 504.912,-63.0875 494.325,-62.6724 496.377,-69.3649"/>
</g>
<!-- Node11 -->
<g id="node21" class="node"><title>Node11</title>
<a xlink:href="classcsc440_1_1nuf_1_1complay_1_1_q.xhtml#a935d3fbb201ad281bfc122c616335413" target="_top" xlink:title="csc440.nuf.complay.Q.sortByStartTimeDESC">
<polygon fill="none" stroke="black" points="480.389,0.0664062 480.389,-22.0664 709.611,-22.0664 709.611,0.0664062 480.389,0.0664062"/>
<text text-anchor="middle" x="595" y="-8.06641" font-family="sans-serif" font-size="10.00">csc440.nuf.complay.Q.sortByStartTimeDESC</text>
</a>
</g>
<!-- Node2&#45;&gt;Node11 -->
<g id="edge20" class="edge"><title>Node2&#45;&gt;Node11</title>
<path fill="none" stroke="midnightblue" d="M358.322,-163.705C374.511,-135.948 420.411,-64.2463 480,-31 483.455,-29.0725 487.052,-27.3232 490.75,-25.7361"/>
<polygon fill="midnightblue" stroke="midnightblue" points="492.057,-28.9833 500.125,-22.1159 489.536,-22.4533 492.057,-28.9833"/>
</g>
</g>
</svg>
        <g id="navigator" transform="translate(0 0)" fill="#404254">
                <rect fill="#f2f5e9" fill-opacity="0.5" stroke="#606060" stroke-width=".5" x="0" y="0" width="60" height="60"/>
                <use id="zoomplus" xlink:href="#zoomPlus" x="17" y="9" onmousedown="handleZoom(evt,'in')"/>
                <use id="zoomminus" xlink:href="#zoomMin" x="42" y="9" onmousedown="handleZoom(evt,'out')"/>
                <use id="reset" xlink:href="#resetDef" x="30" y="36" onmousedown="handleReset()"/>
                <g id="arrowUp" xlink:href="#dirArrow" transform="translate(30 24)" onmousedown="handlePan(0,-1)">
                  <use xlink:href="#rim" fill="#404040">
                        <set attributeName="fill" to="#808080" begin="arrowUp.mouseover" end="arrowUp.mouseout"/>
                  </use>
                  <path fill="none" stroke="white" stroke-width="1.5" d="M0,-3.0v7 M-2.5,-0.5L0,-3.0L2.5,-0.5"/>
                </g>
                <g id="arrowRight" xlink:href="#dirArrow" transform="rotate(90) translate(36 -43)" onmousedown="handlePan(1,0)">
                  <use xlink:href="#rim" fill="#404040">
                        <set attributeName="fill" to="#808080" begin="arrowRight.mouseover" end="arrowRight.mouseout"/>
                  </use>
                  <path fill="none" stroke="white" stroke-width="1.5" d="M0,-3.0v7 M-2.5,-0.5L0,-3.0L2.5,-0.5"/>
                </g>
                <g id="arrowDown" xlink:href="#dirArrow" transform="rotate(180) translate(-30 -48)" onmousedown="handlePan(0,1)">
                  <use xlink:href="#rim" fill="#404040">
                        <set attributeName="fill" to="#808080" begin="arrowDown.mouseover" end="arrowDown.mouseout"/>
                  </use>
                  <path fill="none" stroke="white" stroke-width="1.5" d="M0,-3.0v7 M-2.5,-0.5L0,-3.0L2.5,-0.5"/>
                </g>
                <g id="arrowLeft" xlink:href="#dirArrow" transform="rotate(270) translate(-36 17)" onmousedown="handlePan(-1,0)">
                  <use xlink:href="#rim" fill="#404040">
                        <set attributeName="fill" to="#808080" begin="arrowLeft.mouseover" end="arrowLeft.mouseout"/>
                  </use>
                  <path fill="none" stroke="white" stroke-width="1.5" d="M0,-3.0v7 M-2.5,-0.5L0,-3.0L2.5,-0.5"/>
                </g>
        </g>
        <svg viewBox="0 0 25 25" width="100%" height="30px" preserveAspectRatio="xMaxYMin meet"> 
          <g id="printButton" transform="scale(0.4 0.4)" onmousedown="handlePrint(evt)">
            <rect height="23.33753581" id="paper" rx="2" style="fill:#f2f5e9;fill-rule:evenodd;stroke:#111111;stroke-width:3.224;stroke-linejoin:round;" transform="matrix(1.000000,0.000000,-0.339266,0.940691,0.000000,0.000000)" width="25.55231285" x="26.69387353" y="7.36162977"/>
            <rect height="26.272097" id="body" rx="2" style="fill:#404040;fill-rule:evenodd;stroke:#111111;stroke-width:3.125;stroke-linejoin:round;" width="50" x="4.5295201" y="27.078951"/>
            <rect height="8.27750969" id="tray" style="fill:#d2d5c9;fill-rule:evenodd;stroke:#111111;stroke-width:3.125;stroke-linecap:round;stroke-linejoin:round;" width="40" x="10.28778839" y="44.96812282"/>
          </g>
        </svg>
</svg>
