<?xml version="1.0" encoding="UTF-8" standalone="no"?>
<!DOCTYPE svg PUBLIC "-//W3C//DTD SVG 1.1//EN"
 "http://www.w3.org/Graphics/SVG/1.1/DTD/svg11.dtd">
<!-- Generated by graphviz version 2.28.0 (20111028.1807)
 -->
<!-- Title: G Pages: 1 -->
<!--zoomable 153 -->
<svg id="main" version="1.1" xmlns="http://www.w3.org/2000/svg" xmlns:xlink="http://www.w3.org/1999/xlink" xml:space="preserve" onload="init(evt)">
        <defs>
                <circle id="rim" cx="0" cy="0" r="7"/>
                <circle id="rim2" cx="0" cy="0" r="3.5"/>
                <g id="zoomPlus">
                        <use xlink:href="#rim" fill="#404040">
                                <set attributeName="fill" to="#808080" begin="zoomplus.mouseover" end="zoomplus.mouseout"/>
                        </use>
                        <path d="M-4,0h8M0,-4v8" fill="none" stroke="white" stroke-width="1.5" pointer-events="none"/>
                </g>
                <g id="zoomMin">
                        <use xlink:href="#rim" fill="#404040">
                                <set attributeName="fill" to="#808080" begin="zoomminus.mouseover" end="zoomminus.mouseout"/>
                        </use>
                        <path d="M-4,0h8" fill="none" stroke="white" stroke-width="1.5" pointer-events="none"/>
                </g>
                <g id="dirArrow">
                        <path fill="none" stroke="white" stroke-width="1.5" d="M0,-3.0v7 M-2.5,-0.5L0,-3.0L2.5,-0.5"/>
                </g>
               <g id="resetDef">
                       <use xlink:href="#rim2" fill="#404040">
                               <set attributeName="fill" to="#808080" begin="reset.mouseover" end="reset.mouseout"/>
                       </use>
               </g>
        </defs>

<script type="text/javascript">
var viewWidth = 960;
var viewHeight = 153;
var sectionId = 'dynsection-5';
</script>
<script xlink:href="svgpan.js"/>
<svg id="graph" class="graph">
<g id="viewport">
<title>G</title>
<!-- Node1 -->
<g id="node1" class="node"><title>Node1</title>
<polygon fill="#bfbfbf" stroke="black" points="-0.0439453,-101.934 -0.0439453,-124.066 146.044,-124.066 146.044,-101.934 -0.0439453,-101.934"/>
<text text-anchor="middle" x="73" y="-110.066" font-family="sans-serif" font-size="10.00">csc440.nuf.complay.Q.pop</text>
</g>
<!-- Node2 -->
<g id="node3" class="node"><title>Node2</title>
<a xlink:href="classcsc440_1_1nuf_1_1complay_1_1_player_activity.xhtml#a592b9fe89b9076e65456181c0e389e3c" target="_top" xlink:title="csc440.nuf.complay.PlayerActivity.onCreate">
<polygon fill="none" stroke="black" points="693.067,-122.934 693.067,-145.066 920.933,-145.066 920.933,-122.934 693.067,-122.934"/>
<text text-anchor="middle" x="807" y="-131.066" font-family="sans-serif" font-size="10.00">csc440.nuf.complay.PlayerActivity.onCreate</text>
</a>
</g>
<!-- Node1&#45;&gt;Node2 -->
<g id="edge2" class="edge"><title>Node1&#45;&gt;Node2</title>
<path fill="none" stroke="midnightblue" d="M156.575,-115.369C287.85,-119.135 544.429,-126.496 692.757,-130.751"/>
<polygon fill="midnightblue" stroke="midnightblue" points="156.287,-111.859 146.19,-115.071 156.086,-118.856 156.287,-111.859"/>
</g>
<!-- Node3 -->
<g id="node5" class="node"><title>Node3</title>
<a xlink:href="classcsc440_1_1nuf_1_1complay_1_1_timer.xhtml#aebbe2beb25856951b72d866d783ce897" target="_top" xlink:title="csc440.nuf.complay.Timer.setTime">
<polygon fill="none" stroke="black" points="181.834,-81.9336 181.834,-104.066 368.166,-104.066 368.166,-81.9336 181.834,-81.9336"/>
<text text-anchor="middle" x="275" y="-90.0664" font-family="sans-serif" font-size="10.00">csc440.nuf.complay.Timer.setTime</text>
</a>
</g>
<!-- Node1&#45;&gt;Node3 -->
<g id="edge4" class="edge"><title>Node1&#45;&gt;Node3</title>
<path fill="none" stroke="midnightblue" d="M156.316,-104.768C164.689,-103.931 173.233,-103.077 181.702,-102.23"/>
<polygon fill="midnightblue" stroke="midnightblue" points="155.807,-101.302 146.205,-105.78 156.503,-108.267 155.807,-101.302"/>
</g>
<!-- Node4 -->
<g id="node7" class="node"><title>Node4</title>
<a xlink:href="classcsc440_1_1nuf_1_1complay_1_1_player_canvas.xhtml#a64eae2e9ed26456ab5b104436c97d78f" target="_top" xlink:title="csc440.nuf.complay.PlayerCanvas.setTime">
<polygon fill="none" stroke="black" points="404.305,-81.9336 404.305,-104.066 625.695,-104.066 625.695,-81.9336 404.305,-81.9336"/>
<text text-anchor="middle" x="515" y="-90.0664" font-family="sans-serif" font-size="10.00">csc440.nuf.complay.PlayerCanvas.setTime</text>
</a>
</g>
<!-- Node3&#45;&gt;Node4 -->
<g id="edge6" class="edge"><title>Node3&#45;&gt;Node4</title>
<path fill="none" stroke="midnightblue" d="M378.635,-93C387.117,-93 395.712,-93 404.243,-93"/>
<polygon fill="midnightblue" stroke="midnightblue" points="378.358,-89.5001 368.358,-93 378.358,-96.5001 378.358,-89.5001"/>
</g>
<!-- Node7 -->
<g id="node14" class="node"><title>Node7</title>
<a xlink:href="classcsc440_1_1nuf_1_1complay_1_1_timer.xhtml#aff1846d75c64aee648b2321f9ea62314" target="_top" xlink:title="csc440.nuf.complay.Timer.timePlusPlus">
<polygon fill="none" stroke="black" points="410.608,-20.9336 410.608,-43.0664 619.392,-43.0664 619.392,-20.9336 410.608,-20.9336"/>
<text text-anchor="middle" x="515" y="-29.0664" font-family="sans-serif" font-size="10.00">csc440.nuf.complay.Timer.timePlusPlus</text>
</a>
</g>
<!-- Node3&#45;&gt;Node7 -->
<g id="edge14" class="edge"><title>Node3&#45;&gt;Node7</title>
<path fill="none" stroke="midnightblue" d="M329.281,-79.344C371.85,-68.4333 430.767,-53.3329 470.52,-43.144"/>
<polygon fill="midnightblue" stroke="midnightblue" points="328.194,-76.0093 319.376,-81.8826 329.932,-82.7902 328.194,-76.0093"/>
</g>
<!-- Node4&#45;&gt;Node2 -->
<g id="edge8" class="edge"><title>Node4&#45;&gt;Node2</title>
<path fill="none" stroke="midnightblue" d="M604.579,-105.523C643.866,-111.078 689.699,-117.557 727.711,-122.932"/>
<polygon fill="midnightblue" stroke="midnightblue" points="604.87,-102.03 594.478,-104.095 603.89,-108.961 604.87,-102.03"/>
</g>
<!-- Node5 -->
<g id="node10" class="node"><title>Node5</title>
<a xlink:href="classcsc440_1_1nuf_1_1complay_1_1_player_activity.xhtml#a042e95babe17fab59ba7d71a6dfc9dbb" target="_top" xlink:title="csc440.nuf.complay.PlayerActivity.onStopTrackingTouch">
<polygon fill="none" stroke="black" points="661.876,-81.9336 661.876,-104.066 952.124,-104.066 952.124,-81.9336 661.876,-81.9336"/>
<text text-anchor="middle" x="807" y="-90.0664" font-family="sans-serif" font-size="10.00">csc440.nuf.complay.PlayerActivity.onStopTrackingTouch</text>
</a>
</g>
<!-- Node4&#45;&gt;Node5 -->
<g id="edge10" class="edge"><title>Node4&#45;&gt;Node5</title>
<path fill="none" stroke="midnightblue" d="M636.266,-93C644.695,-93 653.239,-93 661.779,-93"/>
<polygon fill="midnightblue" stroke="midnightblue" points="636.05,-89.5001 626.05,-93 636.05,-96.5001 636.05,-89.5001"/>
</g>
<!-- Node6 -->
<g id="node12" class="node"><title>Node6</title>
<a xlink:href="classcsc440_1_1nuf_1_1complay_1_1_player_activity.xhtml#a7f5eb45ffac9b23a602a8ba76dbb6d47" target="_top" xlink:title="csc440.nuf.complay.PlayerActivity.playPause">
<polygon fill="none" stroke="black" points="691.021,-40.9336 691.021,-63.0664 922.979,-63.0664 922.979,-40.9336 691.021,-40.9336"/>
<text text-anchor="middle" x="807" y="-49.0664" font-family="sans-serif" font-size="10.00">csc440.nuf.complay.PlayerActivity.playPause</text>
</a>
</g>
<!-- Node4&#45;&gt;Node6 -->
<g id="edge12" class="edge"><title>Node4&#45;&gt;Node6</title>
<path fill="none" stroke="midnightblue" d="M602.619,-80.4704C622.148,-77.6652 642.783,-74.7166 662,-72 682.618,-69.0854 704.902,-65.9723 725.637,-63.0912"/>
<polygon fill="midnightblue" stroke="midnightblue" points="601.921,-77.0347 592.521,-81.9223 602.917,-83.9635 601.921,-77.0347"/>
</g>
<!-- Node8 -->
<g id="node16" class="node"><title>Node8</title>
<a xlink:href="classcsc440_1_1nuf_1_1complay_1_1_player_canvas.xhtml#aa0797d703af20d0ada15e590da003617" target="_top" xlink:title="csc440.nuf.complay.PlayerCanvas.run">
<polygon fill="none" stroke="black" points="707.318,0.0664062 707.318,-22.0664 906.682,-22.0664 906.682,0.0664062 707.318,0.0664062"/>
<text text-anchor="middle" x="807" y="-8.06641" font-family="sans-serif" font-size="10.00">csc440.nuf.complay.PlayerCanvas.run</text>
</a>
</g>
<!-- Node7&#45;&gt;Node8 -->
<g id="edge16" class="edge"><title>Node7&#45;&gt;Node8</title>
<path fill="none" stroke="midnightblue" d="M629.564,-23.7764C655.117,-21.926 682.039,-19.9765 706.944,-18.173"/>
<polygon fill="midnightblue" stroke="midnightblue" points="629.19,-20.2943 619.468,-24.5075 629.695,-27.276 629.19,-20.2943"/>
</g>
</g>
</svg>
        <g id="navigator" transform="translate(0 0)" fill="#404254">
                <rect fill="#f2f5e9" fill-opacity="0.5" stroke="#606060" stroke-width=".5" x="0" y="0" width="60" height="60"/>
                <use id="zoomplus" xlink:href="#zoomPlus" x="17" y="9" onmousedown="handleZoom(evt,'in')"/>
                <use id="zoomminus" xlink:href="#zoomMin" x="42" y="9" onmousedown="handleZoom(evt,'out')"/>
                <use id="reset" xlink:href="#resetDef" x="30" y="36" onmousedown="handleReset()"/>
                <g id="arrowUp" xlink:href="#dirArrow" transform="translate(30 24)" onmousedown="handlePan(0,-1)">
                  <use xlink:href="#rim" fill="#404040">
                        <set attributeName="fill" to="#808080" begin="arrowUp.mouseover" end="arrowUp.mouseout"/>
                  </use>
                  <path fill="none" stroke="white" stroke-width="1.5" d="M0,-3.0v7 M-2.5,-0.5L0,-3.0L2.5,-0.5"/>
                </g>
                <g id="arrowRight" xlink:href="#dirArrow" transform="rotate(90) translate(36 -43)" onmousedown="handlePan(1,0)">
                  <use xlink:href="#rim" fill="#404040">
                        <set attributeName="fill" to="#808080" begin="arrowRight.mouseover" end="arrowRight.mouseout"/>
                  </use>
                  <path fill="none" stroke="white" stroke-width="1.5" d="M0,-3.0v7 M-2.5,-0.5L0,-3.0L2.5,-0.5"/>
                </g>
                <g id="arrowDown" xlink:href="#dirArrow" transform="rotate(180) translate(-30 -48)" onmousedown="handlePan(0,1)">
                  <use xlink:href="#rim" fill="#404040">
                        <set attributeName="fill" to="#808080" begin="arrowDown.mouseover" end="arrowDown.mouseout"/>
                  </use>
                  <path fill="none" stroke="white" stroke-width="1.5" d="M0,-3.0v7 M-2.5,-0.5L0,-3.0L2.5,-0.5"/>
                </g>
                <g id="arrowLeft" xlink:href="#dirArrow" transform="rotate(270) translate(-36 17)" onmousedown="handlePan(-1,0)">
                  <use xlink:href="#rim" fill="#404040">
                        <set attributeName="fill" to="#808080" begin="arrowLeft.mouseover" end="arrowLeft.mouseout"/>
                  </use>
                  <path fill="none" stroke="white" stroke-width="1.5" d="M0,-3.0v7 M-2.5,-0.5L0,-3.0L2.5,-0.5"/>
                </g>
        </g>
        <svg viewBox="0 0 25 25" width="100%" height="30px" preserveAspectRatio="xMaxYMin meet"> 
          <g id="printButton" transform="scale(0.4 0.4)" onmousedown="handlePrint(evt)">
            <rect height="23.33753581" id="paper" rx="2" style="fill:#f2f5e9;fill-rule:evenodd;stroke:#111111;stroke-width:3.224;stroke-linejoin:round;" transform="matrix(1.000000,0.000000,-0.339266,0.940691,0.000000,0.000000)" width="25.55231285" x="26.69387353" y="7.36162977"/>
            <rect height="26.272097" id="body" rx="2" style="fill:#404040;fill-rule:evenodd;stroke:#111111;stroke-width:3.125;stroke-linejoin:round;" width="50" x="4.5295201" y="27.078951"/>
            <rect height="8.27750969" id="tray" style="fill:#d2d5c9;fill-rule:evenodd;stroke:#111111;stroke-width:3.125;stroke-linecap:round;stroke-linejoin:round;" width="40" x="10.28778839" y="44.96812282"/>
          </g>
        </svg>
</svg>
