<?xml version="1.0" encoding="UTF-8" standalone="no"?>
<!DOCTYPE svg PUBLIC "-//W3C//DTD SVG 1.1//EN"
 "http://www.w3.org/Graphics/SVG/1.1/DTD/svg11.dtd">
<!-- Generated by graphviz version 2.28.0 (20111028.1807)
 -->
<!-- Title: G Pages: 1 -->
<svg width="466pt" height="71pt"
 viewBox="0.00 0.00 466.00 71.00" xmlns="http://www.w3.org/2000/svg" xmlns:xlink="http://www.w3.org/1999/xlink">
<g id="graph1" class="graph" transform="scale(1 1) rotate(0) translate(4 67)">
<title>G</title>
<!-- Node1 -->
<g id="node1" class="node"><title>Node1</title>
<polygon fill="#bfbfbf" stroke="black" points="0.233887,-19.9336 0.233887,-42.0664 201.766,-42.0664 201.766,-19.9336 0.233887,-19.9336"/>
<text text-anchor="middle" x="101" y="-28.0664" font-family="sans-serif" font-size="10.00">csc440.nuf.ScrollItemManager.setTitle</text>
</g>
<!-- Node2 -->
<g id="node3" class="node"><title>Node2</title>
<a xlink:href="classcsc440_1_1nuf_1_1_s_m_i_l_activity.xhtml#a2940cb9bd30e02c726a99b9949f94472" target="_top" xlink:title="csc440.nuf.SMILActivity.onResume">
<polygon fill="none" stroke="black" points="255.879,-40.9336 255.879,-63.0664 440.121,-63.0664 440.121,-40.9336 255.879,-40.9336"/>
<text text-anchor="middle" x="348" y="-49.0664" font-family="sans-serif" font-size="10.00">csc440.nuf.SMILActivity.onResume</text>
</a>
</g>
<!-- Node1&#45;&gt;Node2 -->
<g id="edge2" class="edge"><title>Node1&#45;&gt;Node2</title>
<path fill="none" stroke="midnightblue" d="M212.036,-40.4316C226.596,-41.6796 241.393,-42.9479 255.593,-44.1651"/>
<polygon fill="midnightblue" stroke="midnightblue" points="212.267,-36.9387 202.004,-39.5718 211.669,-43.9131 212.267,-36.9387"/>
</g>
<!-- Node3 -->
<g id="node5" class="node"><title>Node3</title>
<a xlink:href="classcsc440_1_1nuf_1_1_view_message_activity.xhtml#a067f20ee5e75405a29b71d914d62a2fc" target="_top" xlink:title="csc440.nuf.ViewMessageActivity.onCreate">
<polygon fill="none" stroke="black" points="238.123,0.0664062 238.123,-22.0664 457.877,-22.0664 457.877,0.0664062 238.123,0.0664062"/>
<text text-anchor="middle" x="348" y="-8.06641" font-family="sans-serif" font-size="10.00">csc440.nuf.ViewMessageActivity.onCreate</text>
</a>
</g>
<!-- Node1&#45;&gt;Node3 -->
<g id="edge4" class="edge"><title>Node1&#45;&gt;Node3</title>
<path fill="none" stroke="midnightblue" d="M211.998,-22.0205C220.553,-21.3222 229.189,-20.6172 237.738,-19.9193"/>
<polygon fill="midnightblue" stroke="midnightblue" points="211.686,-18.5343 202.004,-22.8364 212.256,-25.5111 211.686,-18.5343"/>
</g>
</g>
</svg>
