<?xml version="1.0" encoding="UTF-8" standalone="no"?>
<!DOCTYPE svg PUBLIC "-//W3C//DTD SVG 1.1//EN"
 "http://www.w3.org/Graphics/SVG/1.1/DTD/svg11.dtd">
<!-- Generated by graphviz version 2.28.0 (20111028.1807)
 -->
<!-- Title: G Pages: 1 -->
<svg width="252pt" height="308pt"
 viewBox="0.00 0.00 252.00 308.00" xmlns="http://www.w3.org/2000/svg" xmlns:xlink="http://www.w3.org/1999/xlink">
<g id="graph1" class="graph" transform="scale(1 1) rotate(0) translate(4 304)">
<title>G</title>
<!-- Node1 -->
<g id="node1" class="node"><title>Node1</title>
<polygon fill="#bfbfbf" stroke="black" points="-0.812012,-1.20312 -0.812012,-194.797 244.812,-194.797 244.812,-1.20312 -0.812012,-1.20312"/>
<text text-anchor="middle" x="122" y="-180.797" font-family="sans-serif" font-size="10.00">com.thira.examples.actionbar.widget.ActionBar</text>
<polyline fill="none" stroke="black" points="-0.812012,-172.664 244.812,-172.664 "/>
<text text-anchor="middle" x="122" y="-158.664" font-family="sans-serif" font-size="10.00"> </text>
<polyline fill="none" stroke="black" points="-0.812012,-150.531 244.812,-150.531 "/>
<text text-anchor="start" x="7.18799" y="-136.531" font-family="sans-serif" font-size="10.00">+ ActionBar()</text>
<text text-anchor="start" x="7.18799" y="-122.398" font-family="sans-serif" font-size="10.00">+ setHomeLogo()</text>
<text text-anchor="start" x="7.18799" y="-108.266" font-family="sans-serif" font-size="10.00">+ setHomeLogo()</text>
<text text-anchor="start" x="7.18799" y="-94.1328" font-family="sans-serif" font-size="10.00">+ setTitle()</text>
<text text-anchor="start" x="7.18799" y="-80" font-family="sans-serif" font-size="10.00">+ setTitle()</text>
<text text-anchor="start" x="7.18799" y="-65.8672" font-family="sans-serif" font-size="10.00">+ showProgressBar()</text>
<text text-anchor="start" x="7.18799" y="-51.7344" font-family="sans-serif" font-size="10.00">+ hideProgressBar()</text>
<text text-anchor="start" x="7.18799" y="-37.6016" font-family="sans-serif" font-size="10.00">+ addActionIcon()</text>
<text text-anchor="start" x="7.18799" y="-23.4688" font-family="sans-serif" font-size="10.00">+ removeActionIconAt()</text>
<text text-anchor="start" x="7.18799" y="-9.33594" font-family="sans-serif" font-size="10.00">+ isProgressBarVisible()</text>
</g>
<!-- Node2 -->
<g id="node2" class="node"><title>Node2</title>
<polygon fill="none" stroke="#bfbfbf" points="79.0732,-232.801 79.0732,-299.199 164.927,-299.199 164.927,-232.801 79.0732,-232.801"/>
<text text-anchor="middle" x="122" y="-285.199" font-family="sans-serif" font-size="10.00">RelativeLayout</text>
<polyline fill="none" stroke="#bfbfbf" points="79.0732,-277.066 164.927,-277.066 "/>
<text text-anchor="middle" x="122" y="-263.066" font-family="sans-serif" font-size="10.00"> </text>
<polyline fill="none" stroke="#bfbfbf" points="79.0732,-254.934 164.927,-254.934 "/>
<text text-anchor="middle" x="122" y="-240.934" font-family="sans-serif" font-size="10.00"> </text>
</g>
<!-- Node2&#45;&gt;Node1 -->
<g id="edge2" class="edge"><title>Node2&#45;&gt;Node1</title>
<path fill="none" stroke="midnightblue" d="M122,-222.488C122,-213.854 122,-204.446 122,-194.802"/>
<polygon fill="none" stroke="midnightblue" points="118.5,-222.599 122,-232.599 125.5,-222.599 118.5,-222.599"/>
</g>
</g>
</svg>
