<?xml version="1.0" encoding="UTF-8" standalone="no"?>
<!DOCTYPE svg PUBLIC "-//W3C//DTD SVG 1.1//EN"
 "http://www.w3.org/Graphics/SVG/1.1/DTD/svg11.dtd">
<!-- Generated by graphviz version 2.28.0 (20111028.1807)
 -->
<!-- Title: G Pages: 1 -->
<!--zoomable 316 -->
<svg id="main" version="1.1" xmlns="http://www.w3.org/2000/svg" xmlns:xlink="http://www.w3.org/1999/xlink" xml:space="preserve" onload="init(evt)">
        <defs>
                <circle id="rim" cx="0" cy="0" r="7"/>
                <circle id="rim2" cx="0" cy="0" r="3.5"/>
                <g id="zoomPlus">
                        <use xlink:href="#rim" fill="#404040">
                                <set attributeName="fill" to="#808080" begin="zoomplus.mouseover" end="zoomplus.mouseout"/>
                        </use>
                        <path d="M-4,0h8M0,-4v8" fill="none" stroke="white" stroke-width="1.5" pointer-events="none"/>
                </g>
                <g id="zoomMin">
                        <use xlink:href="#rim" fill="#404040">
                                <set attributeName="fill" to="#808080" begin="zoomminus.mouseover" end="zoomminus.mouseout"/>
                        </use>
                        <path d="M-4,0h8" fill="none" stroke="white" stroke-width="1.5" pointer-events="none"/>
                </g>
                <g id="dirArrow">
                        <path fill="none" stroke="white" stroke-width="1.5" d="M0,-3.0v7 M-2.5,-0.5L0,-3.0L2.5,-0.5"/>
                </g>
               <g id="resetDef">
                       <use xlink:href="#rim2" fill="#404040">
                               <set attributeName="fill" to="#808080" begin="reset.mouseover" end="reset.mouseout"/>
                       </use>
               </g>
        </defs>

<script type="text/javascript">
var viewWidth = 1030;
var viewHeight = 316;
var sectionId = 'dynsection-0';
</script>
<script xlink:href="svgpan.js"/>
<svg id="graph" class="graph">
<g id="viewport">
<title>G</title>
<!-- Node1 -->
<g id="node1" class="node"><title>Node1</title>
<polygon fill="#bfbfbf" stroke="black" points="0.30127,-118.4 0.30127,-140.533 163.699,-140.533 163.699,-118.4 0.30127,-118.4"/>
<text text-anchor="middle" x="82" y="-126.533" font-family="sans-serif" font-size="10.00">csc440.nuf.complay.Waiting.Q</text>
</g>
<!-- Node2 -->
<g id="node3" class="node"><title>Node2</title>
<a xlink:href="classcsc440_1_1nuf_1_1complay_1_1_player_activity.xhtml#a592b9fe89b9076e65456181c0e389e3c" target="_top" xlink:title="csc440.nuf.complay.PlayerActivity.onCreate">
<polygon fill="none" stroke="black" points="763.067,-281.4 763.067,-303.533 990.933,-303.533 990.933,-281.4 763.067,-281.4"/>
<text text-anchor="middle" x="877" y="-289.533" font-family="sans-serif" font-size="10.00">csc440.nuf.complay.PlayerActivity.onCreate</text>
</a>
</g>
<!-- Node1&#45;&gt;Node2 -->
<g id="edge2" class="edge"><title>Node1&#45;&gt;Node2</title>
<path fill="none" stroke="midnightblue" d="M99.067,-148.563C119.812,-171.814 158.241,-210.339 200,-229.466 386.196,-314.75 631.044,-313.288 769.158,-303.546"/>
<polygon fill="midnightblue" stroke="midnightblue" points="101.463,-145.985 92.251,-140.752 96.189,-150.588 101.463,-145.985"/>
</g>
<!-- Node3 -->
<g id="node5" class="node"><title>Node3</title>
<a xlink:href="classcsc440_1_1nuf_1_1complay_1_1_player_canvas.xhtml#aa0797d703af20d0ada15e590da003617" target="_top" xlink:title="csc440.nuf.complay.PlayerCanvas.run">
<polygon fill="none" stroke="black" points="777.318,-158.4 777.318,-180.533 976.682,-180.533 976.682,-158.4 777.318,-158.4"/>
<text text-anchor="middle" x="877" y="-166.533" font-family="sans-serif" font-size="10.00">csc440.nuf.complay.PlayerCanvas.run</text>
</a>
</g>
<!-- Node1&#45;&gt;Node3 -->
<g id="edge4" class="edge"><title>Node1&#45;&gt;Node3</title>
<path fill="none" stroke="midnightblue" d="M148.638,-142.344C165.328,-145.162 183.274,-147.797 200,-149.466 404.457,-169.865 645.278,-171.721 777.204,-170.853"/>
<polygon fill="midnightblue" stroke="midnightblue" points="148.881,-138.834 138.43,-140.574 147.685,-145.731 148.881,-138.834"/>
</g>
<!-- Node4 -->
<g id="node7" class="node"><title>Node4</title>
<a xlink:href="classcsc440_1_1nuf_1_1complay_1_1_timer.xhtml#aebbe2beb25856951b72d866d783ce897" target="_top" xlink:title="csc440.nuf.complay.Timer.setTime">
<polygon fill="none" stroke="black" points="222.834,-198.4 222.834,-220.533 409.166,-220.533 409.166,-198.4 222.834,-198.4"/>
<text text-anchor="middle" x="316" y="-206.533" font-family="sans-serif" font-size="10.00">csc440.nuf.complay.Timer.setTime</text>
</a>
</g>
<!-- Node1&#45;&gt;Node4 -->
<g id="edge6" class="edge"><title>Node1&#45;&gt;Node4</title>
<path fill="none" stroke="midnightblue" d="M112.581,-145.231C135.819,-157.092 169.28,-173.034 200,-183.466 217.541,-189.423 237.052,-194.417 254.947,-198.386"/>
<polygon fill="midnightblue" stroke="midnightblue" points="114.082,-142.067 103.592,-140.586 110.869,-148.286 114.082,-142.067"/>
</g>
<!-- Node9 -->
<g id="node19" class="node"><title>Node9</title>
<a xlink:href="classcsc440_1_1nuf_1_1components_1_1_s_m_i_l_text.xhtml#a03f6fe93c172a493c65862d99e877e05" target="_top" xlink:title="csc440.nuf.components.SMILText.draw">
<polygon fill="none" stroke="black" points="212.746,-118.4 212.746,-140.533 419.254,-140.533 419.254,-118.4 212.746,-118.4"/>
<text text-anchor="middle" x="316" y="-126.533" font-family="sans-serif" font-size="10.00">csc440.nuf.components.SMILText.draw</text>
</a>
</g>
<!-- Node1&#45;&gt;Node9 -->
<g id="edge20" class="edge"><title>Node1&#45;&gt;Node9</title>
<path fill="none" stroke="midnightblue" d="M173.862,-129.466C186.514,-129.466 199.585,-129.466 212.434,-129.466"/>
<polygon fill="midnightblue" stroke="midnightblue" points="173.817,-125.966 163.817,-129.466 173.817,-132.966 173.817,-125.966"/>
</g>
<!-- Node10 -->
<g id="node21" class="node"><title>Node10</title>
<a xlink:href="classcsc440_1_1nuf_1_1parser_1_1_s_m_i_l_handler.xhtml#a2b4d94d2fc3c31316eb1c44a1720902e" target="_top" xlink:title="csc440.nuf.parser.SMILHandler.startElement">
<polygon fill="none" stroke="black" points="200.605,-77.3997 200.605,-99.5326 431.395,-99.5326 431.395,-77.3997 200.605,-77.3997"/>
<text text-anchor="middle" x="316" y="-85.5326" font-family="sans-serif" font-size="10.00">csc440.nuf.parser.SMILHandler.startElement</text>
</a>
</g>
<!-- Node1&#45;&gt;Node10 -->
<g id="edge22" class="edge"><title>Node1&#45;&gt;Node10</title>
<path fill="none" stroke="midnightblue" d="M154.57,-116.557C169.576,-113.868 185.304,-111.063 200,-108.466 216.464,-105.557 234.259,-102.446 250.818,-99.565"/>
<polygon fill="midnightblue" stroke="midnightblue" points="153.543,-113.185 144.318,-118.396 154.779,-120.075 153.543,-113.185"/>
</g>
<!-- Node11 -->
<g id="node23" class="node"><title>Node11</title>
<a xlink:href="classcsc440_1_1nuf_1_1parser_1_1_s_m_i_l_handler.xhtml#a3e1b09860f1ed33f8de26294e34ef167" target="_top" xlink:title="csc440.nuf.parser.SMILHandler.endElement">
<polygon fill="none" stroke="black" points="468.666,-16.3997 468.666,-38.5326 695.334,-38.5326 695.334,-16.3997 468.666,-16.3997"/>
<text text-anchor="middle" x="582" y="-24.5326" font-family="sans-serif" font-size="10.00">csc440.nuf.parser.SMILHandler.endElement</text>
</a>
</g>
<!-- Node1&#45;&gt;Node11 -->
<g id="edge24" class="edge"><title>Node1&#45;&gt;Node11</title>
<path fill="none" stroke="midnightblue" d="M97.3085,-110.219C117.143,-85.3389 155.609,-43.2217 200,-26.4661 312.011,15.8132 456.091,-2.19301 530.898,-16.3724"/>
<polygon fill="midnightblue" stroke="midnightblue" points="94.4567,-108.185 91.0905,-118.231 99.9867,-112.477 94.4567,-108.185"/>
</g>
<!-- Node12 -->
<g id="node25" class="node"><title>Node12</title>
<a xlink:href="classcsc440_1_1nuf_1_1parser_1_1_s_m_i_l_handler.xhtml#aa6eb041f2aed3eb2895323c762cd39de" target="_top" xlink:title="csc440.nuf.parser.SMILHandler.add">
<polygon fill="none" stroke="black" points="222.014,-36.3997 222.014,-58.5326 409.986,-58.5326 409.986,-36.3997 222.014,-36.3997"/>
<text text-anchor="middle" x="316" y="-44.5326" font-family="sans-serif" font-size="10.00">csc440.nuf.parser.SMILHandler.add</text>
</a>
</g>
<!-- Node1&#45;&gt;Node12 -->
<g id="edge26" class="edge"><title>Node1&#45;&gt;Node12</title>
<path fill="none" stroke="midnightblue" d="M108.542,-112.887C131.557,-98.7052 166.782,-78.8344 200,-67.4661 210.354,-63.9228 221.456,-60.9844 232.531,-58.5534"/>
<polygon fill="midnightblue" stroke="midnightblue" points="106.674,-109.928 100.056,-118.201 110.389,-115.861 106.674,-109.928"/>
</g>
<!-- Node5 -->
<g id="node9" class="node"><title>Node5</title>
<a xlink:href="classcsc440_1_1nuf_1_1complay_1_1_player_canvas.xhtml#a64eae2e9ed26456ab5b104436c97d78f" target="_top" xlink:title="csc440.nuf.complay.PlayerCanvas.setTime">
<polygon fill="none" stroke="black" points="471.305,-239.4 471.305,-261.533 692.695,-261.533 692.695,-239.4 471.305,-239.4"/>
<text text-anchor="middle" x="582" y="-247.533" font-family="sans-serif" font-size="10.00">csc440.nuf.complay.PlayerCanvas.setTime</text>
</a>
</g>
<!-- Node4&#45;&gt;Node5 -->
<g id="edge8" class="edge"><title>Node4&#45;&gt;Node5</title>
<path fill="none" stroke="midnightblue" d="M398.757,-222.163C434.191,-227.666 475.303,-234.051 509.501,-239.362"/>
<polygon fill="midnightblue" stroke="midnightblue" points="398.861,-218.638 388.442,-220.561 397.787,-225.555 398.861,-218.638"/>
</g>
<!-- Node8 -->
<g id="node16" class="node"><title>Node8</title>
<a xlink:href="classcsc440_1_1nuf_1_1complay_1_1_timer.xhtml#aff1846d75c64aee648b2321f9ea62314" target="_top" xlink:title="csc440.nuf.complay.Timer.timePlusPlus">
<polygon fill="none" stroke="black" points="477.608,-198.4 477.608,-220.533 686.392,-220.533 686.392,-198.4 477.608,-198.4"/>
<text text-anchor="middle" x="582" y="-206.533" font-family="sans-serif" font-size="10.00">csc440.nuf.complay.Timer.timePlusPlus</text>
</a>
</g>
<!-- Node4&#45;&gt;Node8 -->
<g id="edge16" class="edge"><title>Node4&#45;&gt;Node8</title>
<path fill="none" stroke="midnightblue" d="M419.495,-209.466C438.513,-209.466 458.392,-209.466 477.442,-209.466"/>
<polygon fill="midnightblue" stroke="midnightblue" points="419.334,-205.966 409.334,-209.466 419.334,-212.966 419.334,-205.966"/>
</g>
<!-- Node5&#45;&gt;Node2 -->
<g id="edge10" class="edge"><title>Node5&#45;&gt;Node2</title>
<path fill="none" stroke="midnightblue" d="M670.297,-262.98C711.092,-268.827 759.249,-275.731 798.709,-281.387"/>
<polygon fill="midnightblue" stroke="midnightblue" points="670.761,-259.511 660.366,-261.556 669.768,-266.44 670.761,-259.511"/>
</g>
<!-- Node6 -->
<g id="node12" class="node"><title>Node6</title>
<a xlink:href="classcsc440_1_1nuf_1_1complay_1_1_player_activity.xhtml#a042e95babe17fab59ba7d71a6dfc9dbb" target="_top" xlink:title="csc440.nuf.complay.PlayerActivity.onStopTrackingTouch">
<polygon fill="none" stroke="black" points="731.876,-199.4 731.876,-221.533 1022.12,-221.533 1022.12,-199.4 731.876,-199.4"/>
<text text-anchor="middle" x="877" y="-207.533" font-family="sans-serif" font-size="10.00">csc440.nuf.complay.PlayerActivity.onStopTrackingTouch</text>
</a>
</g>
<!-- Node5&#45;&gt;Node6 -->
<g id="edge12" class="edge"><title>Node5&#45;&gt;Node6</title>
<path fill="none" stroke="midnightblue" d="M674.413,-237.987C712.972,-232.723 757.491,-226.645 794.868,-221.542"/>
<polygon fill="midnightblue" stroke="midnightblue" points="673.662,-234.556 664.228,-239.377 674.609,-241.492 673.662,-234.556"/>
</g>
<!-- Node7 -->
<g id="node14" class="node"><title>Node7</title>
<a xlink:href="classcsc440_1_1nuf_1_1complay_1_1_player_activity.xhtml#a7f5eb45ffac9b23a602a8ba76dbb6d47" target="_top" xlink:title="csc440.nuf.complay.PlayerActivity.playPause">
<polygon fill="none" stroke="black" points="761.021,-240.4 761.021,-262.533 992.979,-262.533 992.979,-240.4 761.021,-240.4"/>
<text text-anchor="middle" x="877" y="-248.533" font-family="sans-serif" font-size="10.00">csc440.nuf.complay.PlayerActivity.playPause</text>
</a>
</g>
<!-- Node5&#45;&gt;Node7 -->
<g id="edge14" class="edge"><title>Node5&#45;&gt;Node7</title>
<path fill="none" stroke="midnightblue" d="M703.104,-250.876C722.086,-250.941 741.68,-251.008 760.554,-251.072"/>
<polygon fill="midnightblue" stroke="midnightblue" points="702.948,-247.376 692.936,-250.841 702.924,-254.376 702.948,-247.376"/>
</g>
<!-- Node8&#45;&gt;Node3 -->
<g id="edge18" class="edge"><title>Node8&#45;&gt;Node3</title>
<path fill="none" stroke="midnightblue" d="M674.413,-196.987C712.972,-191.723 757.491,-185.645 794.868,-180.542"/>
<polygon fill="midnightblue" stroke="midnightblue" points="673.662,-193.556 664.228,-198.377 674.609,-200.492 673.662,-193.556"/>
</g>
<!-- Node12&#45;&gt;Node11 -->
<g id="edge28" class="edge"><title>Node12&#45;&gt;Node11</title>
<path fill="none" stroke="midnightblue" d="M420.342,-39.6372C436.105,-38.4431 452.44,-37.2055 468.39,-35.9972"/>
<polygon fill="midnightblue" stroke="midnightblue" points="419.784,-36.1694 410.077,-40.4149 420.312,-43.1494 419.784,-36.1694"/>
</g>
</g>
</svg>
        <g id="navigator" transform="translate(0 0)" fill="#404254">
                <rect fill="#f2f5e9" fill-opacity="0.5" stroke="#606060" stroke-width=".5" x="0" y="0" width="60" height="60"/>
                <use id="zoomplus" xlink:href="#zoomPlus" x="17" y="9" onmousedown="handleZoom(evt,'in')"/>
                <use id="zoomminus" xlink:href="#zoomMin" x="42" y="9" onmousedown="handleZoom(evt,'out')"/>
                <use id="reset" xlink:href="#resetDef" x="30" y="36" onmousedown="handleReset()"/>
                <g id="arrowUp" xlink:href="#dirArrow" transform="translate(30 24)" onmousedown="handlePan(0,-1)">
                  <use xlink:href="#rim" fill="#404040">
                        <set attributeName="fill" to="#808080" begin="arrowUp.mouseover" end="arrowUp.mouseout"/>
                  </use>
                  <path fill="none" stroke="white" stroke-width="1.5" d="M0,-3.0v7 M-2.5,-0.5L0,-3.0L2.5,-0.5"/>
                </g>
                <g id="arrowRight" xlink:href="#dirArrow" transform="rotate(90) translate(36 -43)" onmousedown="handlePan(1,0)">
                  <use xlink:href="#rim" fill="#404040">
                        <set attributeName="fill" to="#808080" begin="arrowRight.mouseover" end="arrowRight.mouseout"/>
                  </use>
                  <path fill="none" stroke="white" stroke-width="1.5" d="M0,-3.0v7 M-2.5,-0.5L0,-3.0L2.5,-0.5"/>
                </g>
                <g id="arrowDown" xlink:href="#dirArrow" transform="rotate(180) translate(-30 -48)" onmousedown="handlePan(0,1)">
                  <use xlink:href="#rim" fill="#404040">
                        <set attributeName="fill" to="#808080" begin="arrowDown.mouseover" end="arrowDown.mouseout"/>
                  </use>
                  <path fill="none" stroke="white" stroke-width="1.5" d="M0,-3.0v7 M-2.5,-0.5L0,-3.0L2.5,-0.5"/>
                </g>
                <g id="arrowLeft" xlink:href="#dirArrow" transform="rotate(270) translate(-36 17)" onmousedown="handlePan(-1,0)">
                  <use xlink:href="#rim" fill="#404040">
                        <set attributeName="fill" to="#808080" begin="arrowLeft.mouseover" end="arrowLeft.mouseout"/>
                  </use>
                  <path fill="none" stroke="white" stroke-width="1.5" d="M0,-3.0v7 M-2.5,-0.5L0,-3.0L2.5,-0.5"/>
                </g>
        </g>
        <svg viewBox="0 0 25 25" width="100%" height="30px" preserveAspectRatio="xMaxYMin meet"> 
          <g id="printButton" transform="scale(0.4 0.4)" onmousedown="handlePrint(evt)">
            <rect height="23.33753581" id="paper" rx="2" style="fill:#f2f5e9;fill-rule:evenodd;stroke:#111111;stroke-width:3.224;stroke-linejoin:round;" transform="matrix(1.000000,0.000000,-0.339266,0.940691,0.000000,0.000000)" width="25.55231285" x="26.69387353" y="7.36162977"/>
            <rect height="26.272097" id="body" rx="2" style="fill:#404040;fill-rule:evenodd;stroke:#111111;stroke-width:3.125;stroke-linejoin:round;" width="50" x="4.5295201" y="27.078951"/>
            <rect height="8.27750969" id="tray" style="fill:#d2d5c9;fill-rule:evenodd;stroke:#111111;stroke-width:3.125;stroke-linecap:round;stroke-linejoin:round;" width="40" x="10.28778839" y="44.96812282"/>
          </g>
        </svg>
</svg>
