<?xml version="1.0" encoding="UTF-8" standalone="no"?>
<!DOCTYPE svg PUBLIC "-//W3C//DTD SVG 1.1//EN"
 "http://www.w3.org/Graphics/SVG/1.1/DTD/svg11.dtd">
<!-- Generated by graphviz version 2.28.0 (20111028.1807)
 -->
<!-- Title: G Pages: 1 -->
<!--zoomable 214 -->
<svg id="main" version="1.1" xmlns="http://www.w3.org/2000/svg" xmlns:xlink="http://www.w3.org/1999/xlink" xml:space="preserve" onload="init(evt)">
        <defs>
                <circle id="rim" cx="0" cy="0" r="7"/>
                <circle id="rim2" cx="0" cy="0" r="3.5"/>
                <g id="zoomPlus">
                        <use xlink:href="#rim" fill="#404040">
                                <set attributeName="fill" to="#808080" begin="zoomplus.mouseover" end="zoomplus.mouseout"/>
                        </use>
                        <path d="M-4,0h8M0,-4v8" fill="none" stroke="white" stroke-width="1.5" pointer-events="none"/>
                </g>
                <g id="zoomMin">
                        <use xlink:href="#rim" fill="#404040">
                                <set attributeName="fill" to="#808080" begin="zoomminus.mouseover" end="zoomminus.mouseout"/>
                        </use>
                        <path d="M-4,0h8" fill="none" stroke="white" stroke-width="1.5" pointer-events="none"/>
                </g>
                <g id="dirArrow">
                        <path fill="none" stroke="white" stroke-width="1.5" d="M0,-3.0v7 M-2.5,-0.5L0,-3.0L2.5,-0.5"/>
                </g>
               <g id="resetDef">
                       <use xlink:href="#rim2" fill="#404040">
                               <set attributeName="fill" to="#808080" begin="reset.mouseover" end="reset.mouseout"/>
                       </use>
               </g>
        </defs>

<script type="text/javascript">
var viewWidth = 1166;
var viewHeight = 214;
var sectionId = 'dynsection-5';
</script>
<script xlink:href="svgpan.js"/>
<svg id="graph" class="graph">
<g id="viewport">
<title>G</title>
<!-- Node1 -->
<g id="node1" class="node"><title>Node1</title>
<polygon fill="#bfbfbf" stroke="black" points="0.622559,-102.934 0.622559,-125.066 295.377,-125.066 295.377,-102.934 0.622559,-102.934"/>
<text text-anchor="middle" x="148" y="-111.066" font-family="sans-serif" font-size="10.00">csc440.nuf.server.SMILEngineService.updateSMILMessage</text>
</g>
<!-- Node2 -->
<g id="node3" class="node"><title>Node2</title>
<a xlink:href="classcsc440_1_1nuf_1_1server_1_1_s_m_i_l_message.xhtml#a839f38b917f400f15cc39046b99d7ec6" target="_top" xlink:title="csc440.nuf.server.SMILMessage.setSenderEmail">
<polygon fill="none" stroke="black" points="611.917,-183.934 611.917,-206.066 858.083,-206.066 858.083,-183.934 611.917,-183.934"/>
<text text-anchor="middle" x="735" y="-192.066" font-family="sans-serif" font-size="10.00">csc440.nuf.server.SMILMessage.setSenderEmail</text>
</a>
</g>
<!-- Node1&#45;&gt;Node2 -->
<g id="edge2" class="edge"><title>Node1&#45;&gt;Node2</title>
<path fill="none" stroke="midnightblue" d="M191.607,-125.086C228.516,-134.319 283.463,-147.178 332,-155 421.296,-169.391 522.639,-179.434 601.232,-185.857"/>
<polygon fill="midnightblue" stroke="midnightblue" points="601.428,-189.384 611.677,-186.7 601.991,-182.407 601.428,-189.384"/>
</g>
<!-- Node3 -->
<g id="node5" class="node"><title>Node3</title>
<a xlink:href="classcsc440_1_1nuf_1_1server_1_1_data_store.xhtml#a3749afd0edd374001b7a29ef14495ffc" target="_top" xlink:title="csc440.nuf.server.DataStore.getUserEmail">
<polygon fill="none" stroke="black" points="625.42,-142.934 625.42,-165.066 844.58,-165.066 844.58,-142.934 625.42,-142.934"/>
<text text-anchor="middle" x="735" y="-151.066" font-family="sans-serif" font-size="10.00">csc440.nuf.server.DataStore.getUserEmail</text>
</a>
</g>
<!-- Node1&#45;&gt;Node3 -->
<g id="edge4" class="edge"><title>Node1&#45;&gt;Node3</title>
<path fill="none" stroke="midnightblue" d="M240.589,-125.084C269.771,-128.327 302.211,-131.633 332,-134 427.025,-141.55 534.927,-146.732 614.999,-149.927"/>
<polygon fill="midnightblue" stroke="midnightblue" points="614.987,-153.429 625.118,-150.326 615.263,-146.435 614.987,-153.429"/>
</g>
<!-- Node4 -->
<g id="node7" class="node"><title>Node4</title>
<a xlink:href="classcsc440_1_1nuf_1_1server_1_1_data_store.xhtml#ab66ed1adeb1a5ee0ce37bf5404909e11" target="_top" xlink:title="csc440.nuf.server.DataStore.update">
<polygon fill="none" stroke="black" points="359.254,-102.934 359.254,-125.066 548.746,-125.066 548.746,-102.934 359.254,-102.934"/>
<text text-anchor="middle" x="454" y="-111.066" font-family="sans-serif" font-size="10.00">csc440.nuf.server.DataStore.update</text>
</a>
</g>
<!-- Node1&#45;&gt;Node4 -->
<g id="edge6" class="edge"><title>Node1&#45;&gt;Node4</title>
<path fill="none" stroke="midnightblue" d="M295.657,-114C313.68,-114 331.804,-114 349.012,-114"/>
<polygon fill="midnightblue" stroke="midnightblue" points="349.031,-117.5 359.031,-114 349.031,-110.5 349.031,-117.5"/>
</g>
<!-- Node7 -->
<g id="node15" class="node"><title>Node7</title>
<a xlink:href="classcsc440_1_1nuf_1_1server_1_1_data_store.xhtml#ad7c4ecf86f1850c8ba359f20feec8797" target="_top" xlink:title="csc440.nuf.server.DataStore.sendC2DMUpdate">
<polygon fill="none" stroke="black" points="332.636,-61.9336 332.636,-84.0664 575.364,-84.0664 575.364,-61.9336 332.636,-61.9336"/>
<text text-anchor="middle" x="454" y="-70.0664" font-family="sans-serif" font-size="10.00">csc440.nuf.server.DataStore.sendC2DMUpdate</text>
</a>
</g>
<!-- Node1&#45;&gt;Node7 -->
<g id="edge16" class="edge"><title>Node1&#45;&gt;Node7</title>
<path fill="none" stroke="midnightblue" d="M231.267,-102.905C271.31,-97.5042 319.597,-90.9919 360.873,-85.425"/>
<polygon fill="midnightblue" stroke="midnightblue" points="361.489,-88.8738 370.931,-84.0685 360.553,-81.9366 361.489,-88.8738"/>
</g>
<!-- Node11 -->
<g id="node23" class="node"><title>Node11</title>
<a xlink:href="classcsc440_1_1nuf_1_1server_1_1_s_m_i_l_message.xhtml#a3244ff730fcc1e2935e268358d0c507d" target="_top" xlink:title="csc440.nuf.server.SMILMessage.getId">
<polygon fill="none" stroke="black" points="355.351,-20.9336 355.351,-43.0664 552.649,-43.0664 552.649,-20.9336 355.351,-20.9336"/>
<text text-anchor="middle" x="454" y="-29.0664" font-family="sans-serif" font-size="10.00">csc440.nuf.server.SMILMessage.getId</text>
</a>
</g>
<!-- Node1&#45;&gt;Node11 -->
<g id="edge24" class="edge"><title>Node1&#45;&gt;Node11</title>
<path fill="none" stroke="midnightblue" d="M177.1,-102.879C212.66,-89.1805 276.029,-66.0079 332,-52 342.358,-49.4077 353.301,-47.0635 364.203,-44.9697"/>
<polygon fill="midnightblue" stroke="midnightblue" points="364.991,-48.3832 374.185,-43.1173 363.714,-41.5007 364.991,-48.3832"/>
</g>
<!-- Node4&#45;&gt;Node2 -->
<g id="edge12" class="edge"><title>Node4&#45;&gt;Node2</title>
<path fill="none" stroke="midnightblue" d="M479.517,-125.086C509.995,-138.463 563.881,-160.799 612,-174 622.901,-176.99 634.472,-179.639 645.978,-181.959"/>
<polygon fill="midnightblue" stroke="midnightblue" points="645.57,-185.445 656.054,-183.914 646.903,-178.573 645.57,-185.445"/>
</g>
<!-- Node4&#45;&gt;Node3 -->
<g id="edge14" class="edge"><title>Node4&#45;&gt;Node3</title>
<path fill="none" stroke="midnightblue" d="M532.347,-125.089C567.724,-130.161 609.806,-136.194 646.352,-141.434"/>
<polygon fill="midnightblue" stroke="midnightblue" points="646.107,-144.935 656.503,-142.889 647.101,-138.005 646.107,-144.935"/>
</g>
<!-- Node5 -->
<g id="node9" class="node"><title>Node5</title>
<a xlink:href="classcsc440_1_1nuf_1_1server_1_1_s_m_i_l_message.xhtml#ae0bf6116cba42238cf2ddd705222021c" target="_top" xlink:title="csc440.nuf.server.SMILMessage.setId">
<polygon fill="none" stroke="black" points="636.919,-60.9336 636.919,-83.0664 833.081,-83.0664 833.081,-60.9336 636.919,-60.9336"/>
<text text-anchor="middle" x="735" y="-69.0664" font-family="sans-serif" font-size="10.00">csc440.nuf.server.SMILMessage.setId</text>
</a>
</g>
<!-- Node4&#45;&gt;Node5 -->
<g id="edge8" class="edge"><title>Node4&#45;&gt;Node5</title>
<path fill="none" stroke="midnightblue" d="M528.669,-102.91C566.016,-97.288 611.53,-90.4363 650.208,-84.6139"/>
<polygon fill="midnightblue" stroke="midnightblue" points="651.035,-88.0289 660.402,-83.0792 649.993,-81.1069 651.035,-88.0289"/>
</g>
<!-- Node6 -->
<g id="node11" class="node"><title>Node6</title>
<a xlink:href="classcsc440_1_1nuf_1_1server_1_1_data_store.xhtml#aec9033c4e9624646beb5276de28bfe59" target="_top" xlink:title="csc440.nuf.server.DataStore.getUserId">
<polygon fill="none" stroke="black" points="633.863,-101.934 633.863,-124.066 836.137,-124.066 836.137,-101.934 633.863,-101.934"/>
<text text-anchor="middle" x="735" y="-110.066" font-family="sans-serif" font-size="10.00">csc440.nuf.server.DataStore.getUserId</text>
</a>
</g>
<!-- Node4&#45;&gt;Node6 -->
<g id="edge10" class="edge"><title>Node4&#45;&gt;Node6</title>
<path fill="none" stroke="midnightblue" d="M549.068,-113.663C572.983,-113.577 598.897,-113.484 623.546,-113.396"/>
<polygon fill="midnightblue" stroke="midnightblue" points="623.666,-116.896 633.653,-113.36 623.641,-109.896 623.666,-116.896"/>
</g>
<!-- Node8 -->
<g id="node17" class="node"><title>Node8</title>
<a xlink:href="classcsc440_1_1nuf_1_1server_1_1_send_message.xhtml#a0c14fe20917e68f73dda5a275ba2a7f2" target="_top" xlink:title="csc440.nuf.server.SendMessage.sendMessage">
<polygon fill="none" stroke="black" points="615.65,-19.9336 615.65,-42.0664 854.35,-42.0664 854.35,-19.9336 615.65,-19.9336"/>
<text text-anchor="middle" x="735" y="-28.0664" font-family="sans-serif" font-size="10.00">csc440.nuf.server.SendMessage.sendMessage</text>
</a>
</g>
<!-- Node7&#45;&gt;Node8 -->
<g id="edge18" class="edge"><title>Node7&#45;&gt;Node8</title>
<path fill="none" stroke="midnightblue" d="M528.669,-61.9101C566.016,-56.288 611.53,-49.4363 650.208,-43.6139"/>
<polygon fill="midnightblue" stroke="midnightblue" points="651.035,-47.0289 660.402,-42.0792 649.993,-40.1069 651.035,-47.0289"/>
</g>
<!-- Node9 -->
<g id="node19" class="node"><title>Node9</title>
<a xlink:href="classcsc440_1_1nuf_1_1server_1_1_device_info.xhtml#a9d068913be4bf051ab37c7fb7ef981f2" target="_top" xlink:title="csc440.nuf.server.DeviceInfo.getDeviceInfoForUser">
<polygon fill="none" stroke="black" points="894.528,-40.9336 894.528,-63.0664 1157.47,-63.0664 1157.47,-40.9336 894.528,-40.9336"/>
<text text-anchor="middle" x="1026" y="-49.0664" font-family="sans-serif" font-size="10.00">csc440.nuf.server.DeviceInfo.getDeviceInfoForUser</text>
</a>
</g>
<!-- Node8&#45;&gt;Node9 -->
<g id="edge20" class="edge"><title>Node8&#45;&gt;Node9</title>
<path fill="none" stroke="midnightblue" d="M854.381,-39.6021C864.099,-40.3083 873.981,-41.0263 883.841,-41.7428"/>
<polygon fill="midnightblue" stroke="midnightblue" points="883.874,-45.2543 894.102,-42.4884 884.382,-38.2727 883.874,-45.2543"/>
</g>
<!-- Node10 -->
<g id="node21" class="node"><title>Node10</title>
<a xlink:href="classcsc440_1_1nuf_1_1server_1_1_device_info.xhtml#a10d351ee9254f7f63bd6b77c3005f33c" target="_top" xlink:title="csc440.nuf.server.DeviceInfo.getKey">
<polygon fill="none" stroke="black" points="929.873,0.0664062 929.873,-22.0664 1122.13,-22.0664 1122.13,0.0664062 929.873,0.0664062"/>
<text text-anchor="middle" x="1026" y="-8.06641" font-family="sans-serif" font-size="10.00">csc440.nuf.server.DeviceInfo.getKey</text>
</a>
</g>
<!-- Node8&#45;&gt;Node10 -->
<g id="edge22" class="edge"><title>Node8&#45;&gt;Node10</title>
<path fill="none" stroke="midnightblue" d="M854.381,-22.8075C876.047,-21.3082 898.523,-19.7527 919.773,-18.2822"/>
<polygon fill="midnightblue" stroke="midnightblue" points="920.034,-21.7725 929.768,-17.5904 919.551,-14.7893 920.034,-21.7725"/>
</g>
</g>
</svg>
        <g id="navigator" transform="translate(0 0)" fill="#404254">
                <rect fill="#f2f5e9" fill-opacity="0.5" stroke="#606060" stroke-width=".5" x="0" y="0" width="60" height="60"/>
                <use id="zoomplus" xlink:href="#zoomPlus" x="17" y="9" onmousedown="handleZoom(evt,'in')"/>
                <use id="zoomminus" xlink:href="#zoomMin" x="42" y="9" onmousedown="handleZoom(evt,'out')"/>
                <use id="reset" xlink:href="#resetDef" x="30" y="36" onmousedown="handleReset()"/>
                <g id="arrowUp" xlink:href="#dirArrow" transform="translate(30 24)" onmousedown="handlePan(0,-1)">
                  <use xlink:href="#rim" fill="#404040">
                        <set attributeName="fill" to="#808080" begin="arrowUp.mouseover" end="arrowUp.mouseout"/>
                  </use>
                  <path fill="none" stroke="white" stroke-width="1.5" d="M0,-3.0v7 M-2.5,-0.5L0,-3.0L2.5,-0.5"/>
                </g>
                <g id="arrowRight" xlink:href="#dirArrow" transform="rotate(90) translate(36 -43)" onmousedown="handlePan(1,0)">
                  <use xlink:href="#rim" fill="#404040">
                        <set attributeName="fill" to="#808080" begin="arrowRight.mouseover" end="arrowRight.mouseout"/>
                  </use>
                  <path fill="none" stroke="white" stroke-width="1.5" d="M0,-3.0v7 M-2.5,-0.5L0,-3.0L2.5,-0.5"/>
                </g>
                <g id="arrowDown" xlink:href="#dirArrow" transform="rotate(180) translate(-30 -48)" onmousedown="handlePan(0,1)">
                  <use xlink:href="#rim" fill="#404040">
                        <set attributeName="fill" to="#808080" begin="arrowDown.mouseover" end="arrowDown.mouseout"/>
                  </use>
                  <path fill="none" stroke="white" stroke-width="1.5" d="M0,-3.0v7 M-2.5,-0.5L0,-3.0L2.5,-0.5"/>
                </g>
                <g id="arrowLeft" xlink:href="#dirArrow" transform="rotate(270) translate(-36 17)" onmousedown="handlePan(-1,0)">
                  <use xlink:href="#rim" fill="#404040">
                        <set attributeName="fill" to="#808080" begin="arrowLeft.mouseover" end="arrowLeft.mouseout"/>
                  </use>
                  <path fill="none" stroke="white" stroke-width="1.5" d="M0,-3.0v7 M-2.5,-0.5L0,-3.0L2.5,-0.5"/>
                </g>
        </g>
        <svg viewBox="0 0 25 25" width="100%" height="30px" preserveAspectRatio="xMaxYMin meet"> 
          <g id="printButton" transform="scale(0.4 0.4)" onmousedown="handlePrint(evt)">
            <rect height="23.33753581" id="paper" rx="2" style="fill:#f2f5e9;fill-rule:evenodd;stroke:#111111;stroke-width:3.224;stroke-linejoin:round;" transform="matrix(1.000000,0.000000,-0.339266,0.940691,0.000000,0.000000)" width="25.55231285" x="26.69387353" y="7.36162977"/>
            <rect height="26.272097" id="body" rx="2" style="fill:#404040;fill-rule:evenodd;stroke:#111111;stroke-width:3.125;stroke-linejoin:round;" width="50" x="4.5295201" y="27.078951"/>
            <rect height="8.27750969" id="tray" style="fill:#d2d5c9;fill-rule:evenodd;stroke:#111111;stroke-width:3.125;stroke-linecap:round;stroke-linejoin:round;" width="40" x="10.28778839" y="44.96812282"/>
          </g>
        </svg>
</svg>
