<?xml version="1.0" encoding="UTF-8" standalone="no"?>
<!DOCTYPE svg PUBLIC "-//W3C//DTD SVG 1.1//EN"
 "http://www.w3.org/Graphics/SVG/1.1/DTD/svg11.dtd">
<!-- Generated by graphviz version 2.28.0 (20111028.1807)
 -->
<!-- Title: G Pages: 1 -->
<svg width="170pt" height="236pt"
 viewBox="0.00 0.00 170.00 236.00" xmlns="http://www.w3.org/2000/svg" xmlns:xlink="http://www.w3.org/1999/xlink">
<g id="graph1" class="graph" transform="scale(1 1) rotate(0) translate(4 232)">
<title>G</title>
<!-- Node1 -->
<g id="node1" class="node"><title>Node1</title>
<polygon fill="#bfbfbf" stroke="black" points="-0.059082,-0.535156 -0.059082,-123.465 142.059,-123.465 142.059,-0.535156 -0.059082,-0.535156"/>
<text text-anchor="middle" x="71" y="-109.465" font-family="sans-serif" font-size="10.00">csc440.nuf.SMILActivity</text>
<polyline fill="none" stroke="black" points="-0.059082,-101.332 142.059,-101.332 "/>
<text text-anchor="middle" x="71" y="-87.332" font-family="sans-serif" font-size="10.00"> </text>
<polyline fill="none" stroke="black" points="-0.059082,-79.1992 142.059,-79.1992 "/>
<text text-anchor="start" x="7.94092" y="-65.1992" font-family="sans-serif" font-size="10.00">+ onCreate()</text>
<text text-anchor="start" x="7.94092" y="-51.0664" font-family="sans-serif" font-size="10.00">+ onResume()</text>
<text text-anchor="start" x="7.94092" y="-36.9336" font-family="sans-serif" font-size="10.00">+ onClick()</text>
<text text-anchor="start" x="7.94092" y="-22.8008" font-family="sans-serif" font-size="10.00">+ onDestroy()</text>
<text text-anchor="start" x="7.94092" y="-8.66797" font-family="sans-serif" font-size="10.00">+ onCreateOptionsMenu()</text>
</g>
<!-- Node2 -->
<g id="node2" class="node"><title>Node2</title>
<polygon fill="none" stroke="#bfbfbf" points="0.158203,-160.801 0.158203,-227.199 51.8418,-227.199 51.8418,-160.801 0.158203,-160.801"/>
<text text-anchor="middle" x="26" y="-213.199" font-family="sans-serif" font-size="10.00">Activity</text>
<polyline fill="none" stroke="#bfbfbf" points="0.158203,-205.066 51.8418,-205.066 "/>
<text text-anchor="middle" x="26" y="-191.066" font-family="sans-serif" font-size="10.00"> </text>
<polyline fill="none" stroke="#bfbfbf" points="0.158203,-182.934 51.8418,-182.934 "/>
<text text-anchor="middle" x="26" y="-168.934" font-family="sans-serif" font-size="10.00"> </text>
</g>
<!-- Node2&#45;&gt;Node1 -->
<g id="edge2" class="edge"><title>Node2&#45;&gt;Node1</title>
<path fill="none" stroke="midnightblue" d="M40.5423,-150.989C43.5627,-142.263 46.8027,-132.903 50.002,-123.661"/>
<polygon fill="none" stroke="midnightblue" points="37.203,-149.936 37.2393,-160.531 43.8179,-152.226 37.203,-149.936"/>
</g>
<!-- Node3 -->
<g id="node4" class="node"><title>Node3</title>
<polygon fill="none" stroke="#bfbfbf" points="69.9287,-160.801 69.9287,-227.199 162.071,-227.199 162.071,-160.801 69.9287,-160.801"/>
<text text-anchor="middle" x="116" y="-213.199" font-family="sans-serif" font-size="10.00">OnClickListener</text>
<polyline fill="none" stroke="#bfbfbf" points="69.9287,-205.066 162.071,-205.066 "/>
<text text-anchor="middle" x="116" y="-191.066" font-family="sans-serif" font-size="10.00"> </text>
<polyline fill="none" stroke="#bfbfbf" points="69.9287,-182.934 162.071,-182.934 "/>
<text text-anchor="middle" x="116" y="-168.934" font-family="sans-serif" font-size="10.00"> </text>
</g>
<!-- Node3&#45;&gt;Node1 -->
<g id="edge4" class="edge"><title>Node3&#45;&gt;Node1</title>
<path fill="none" stroke="midnightblue" d="M101.458,-150.989C98.4373,-142.263 95.1973,-132.903 91.998,-123.661"/>
<polygon fill="none" stroke="midnightblue" points="98.1821,-152.226 104.761,-160.531 104.797,-149.936 98.1821,-152.226"/>
</g>
</g>
</svg>
