<?xml version="1.0" encoding="UTF-8" standalone="no"?>
<!DOCTYPE svg PUBLIC "-//W3C//DTD SVG 1.1//EN"
 "http://www.w3.org/Graphics/SVG/1.1/DTD/svg11.dtd">
<!-- Generated by graphviz version 2.28.0 (20111028.1807)
 -->
<!-- Title: G Pages: 1 -->
<svg width="424pt" height="250pt"
 viewBox="0.00 0.00 424.00 250.00" xmlns="http://www.w3.org/2000/svg" xmlns:xlink="http://www.w3.org/1999/xlink">
<g id="graph1" class="graph" transform="scale(1 1) rotate(0) translate(4 246)">
<title>G</title>
<!-- Node1 -->
<g id="node1" class="node"><title>Node1</title>
<polygon fill="#bfbfbf" stroke="black" points="105.247,-0.46875 105.247,-137.531 310.753,-137.531 310.753,-0.46875 105.247,-0.46875"/>
<text text-anchor="middle" x="208" y="-123.531" font-family="sans-serif" font-size="10.00">csc440.nuf.server.SMILMessageLocator</text>
<polyline fill="none" stroke="black" points="105.247,-115.398 310.753,-115.398 "/>
<text text-anchor="middle" x="208" y="-101.398" font-family="sans-serif" font-size="10.00"> </text>
<polyline fill="none" stroke="black" points="105.247,-93.2656 310.753,-93.2656 "/>
<text text-anchor="start" x="113.247" y="-79.2656" font-family="sans-serif" font-size="10.00">+ create()</text>
<text text-anchor="start" x="113.247" y="-65.1328" font-family="sans-serif" font-size="10.00">+ find()</text>
<text text-anchor="start" x="113.247" y="-51" font-family="sans-serif" font-size="10.00">+ getDomainType()</text>
<text text-anchor="start" x="113.247" y="-36.8672" font-family="sans-serif" font-size="10.00">+ getId()</text>
<text text-anchor="start" x="113.247" y="-22.7344" font-family="sans-serif" font-size="10.00">+ getIdType()</text>
<text text-anchor="start" x="113.247" y="-8.60156" font-family="sans-serif" font-size="10.00">+ getVersion()</text>
</g>
<!-- Node2 -->
<g id="node2" class="node"><title>Node2</title>
<polygon fill="none" stroke="#bfbfbf" points="-0.620117,-174.801 -0.620117,-241.199 416.62,-241.199 416.62,-174.801 -0.620117,-174.801"/>
<text text-anchor="middle" x="208" y="-227.199" font-family="sans-serif" font-size="10.00">com::google::web::bindery::requestfactory::shared::Locator&lt; SMILMessage, Void &gt;</text>
<polyline fill="none" stroke="#bfbfbf" points="-0.620117,-219.066 416.62,-219.066 "/>
<text text-anchor="middle" x="208" y="-205.066" font-family="sans-serif" font-size="10.00"> </text>
<polyline fill="none" stroke="#bfbfbf" points="-0.620117,-196.934 416.62,-196.934 "/>
<text text-anchor="middle" x="208" y="-182.934" font-family="sans-serif" font-size="10.00"> </text>
</g>
<!-- Node2&#45;&gt;Node1 -->
<g id="edge2" class="edge"><title>Node2&#45;&gt;Node1</title>
<path fill="none" stroke="midnightblue" d="M208,-164.455C208,-155.899 208,-146.709 208,-137.542"/>
<polygon fill="none" stroke="midnightblue" points="204.5,-164.533 208,-174.533 211.5,-164.533 204.5,-164.533"/>
</g>
</g>
</svg>
