<?xml version="1.0" encoding="UTF-8" standalone="no"?>
<!DOCTYPE svg PUBLIC "-//W3C//DTD SVG 1.1//EN"
 "http://www.w3.org/Graphics/SVG/1.1/DTD/svg11.dtd">
<!-- Generated by graphviz version 2.28.0 (20111028.1807)
 -->
<!-- Title: G Pages: 1 -->
<svg width="188pt" height="336pt"
 viewBox="0.00 0.00 188.00 336.00" xmlns="http://www.w3.org/2000/svg" xmlns:xlink="http://www.w3.org/1999/xlink">
<g id="graph1" class="graph" transform="scale(1 1) rotate(0) translate(4 332)">
<title>G</title>
<!-- Node1 -->
<g id="node1" class="node"><title>Node1</title>
<polygon fill="#bfbfbf" stroke="black" points="-0.468262,-1.07031 -0.468262,-222.93 180.468,-222.93 180.468,-1.07031 -0.468262,-1.07031"/>
<text text-anchor="middle" x="90" y="-208.93" font-family="sans-serif" font-size="10.00">csc440.nuf.complay.PlayerActivity</text>
<polyline fill="none" stroke="black" points="-0.468262,-200.797 180.468,-200.797 "/>
<text text-anchor="start" x="7.53174" y="-186.797" font-family="sans-serif" font-size="10.00">~ mainView</text>
<text text-anchor="start" x="7.53174" y="-172.664" font-family="sans-serif" font-size="10.00">~ playingCopy</text>
<text text-anchor="start" x="7.53174" y="-158.531" font-family="sans-serif" font-size="10.00">~ fromMessage</text>
<text text-anchor="start" x="7.53174" y="-144.398" font-family="sans-serif" font-size="10.00">~ playPressed</text>
<polyline fill="none" stroke="black" points="-0.468262,-136.266 180.468,-136.266 "/>
<text text-anchor="start" x="7.53174" y="-122.266" font-family="sans-serif" font-size="10.00">+ onCreate()</text>
<text text-anchor="start" x="7.53174" y="-108.133" font-family="sans-serif" font-size="10.00">+ onProgressChanged()</text>
<text text-anchor="start" x="7.53174" y="-94" font-family="sans-serif" font-size="10.00">+ onStartTrackingTouch()</text>
<text text-anchor="start" x="7.53174" y="-79.8672" font-family="sans-serif" font-size="10.00">+ onStopTrackingTouch()</text>
<text text-anchor="start" x="7.53174" y="-65.7344" font-family="sans-serif" font-size="10.00">+ playPause()</text>
<text text-anchor="start" x="7.53174" y="-51.6016" font-family="sans-serif" font-size="10.00">+ playPause()</text>
<text text-anchor="start" x="7.53174" y="-37.4688" font-family="sans-serif" font-size="10.00">+ formatSecondsToMinutes()</text>
<text text-anchor="start" x="7.53174" y="-23.3359" font-family="sans-serif" font-size="10.00"># onResume()</text>
<text text-anchor="start" x="7.53174" y="-9.20312" font-family="sans-serif" font-size="10.00"># onPause()</text>
</g>
<!-- Node2 -->
<g id="node2" class="node"><title>Node2</title>
<polygon fill="none" stroke="#bfbfbf" points="64.1582,-260.801 64.1582,-327.199 115.842,-327.199 115.842,-260.801 64.1582,-260.801"/>
<text text-anchor="middle" x="90" y="-313.199" font-family="sans-serif" font-size="10.00">Activity</text>
<polyline fill="none" stroke="#bfbfbf" points="64.1582,-305.066 115.842,-305.066 "/>
<text text-anchor="middle" x="90" y="-291.066" font-family="sans-serif" font-size="10.00"> </text>
<polyline fill="none" stroke="#bfbfbf" points="64.1582,-282.934 115.842,-282.934 "/>
<text text-anchor="middle" x="90" y="-268.934" font-family="sans-serif" font-size="10.00"> </text>
</g>
<!-- Node2&#45;&gt;Node1 -->
<g id="edge2" class="edge"><title>Node2&#45;&gt;Node1</title>
<path fill="none" stroke="midnightblue" d="M90,-250.179C90,-241.756 90,-232.564 90,-223.057"/>
<polygon fill="none" stroke="midnightblue" points="86.5001,-250.403 90,-260.403 93.5001,-250.403 86.5001,-250.403"/>
</g>
</g>
</svg>
