<?xml version="1.0" encoding="UTF-8" standalone="no"?>
<!DOCTYPE svg PUBLIC "-//W3C//DTD SVG 1.1//EN"
 "http://www.w3.org/Graphics/SVG/1.1/DTD/svg11.dtd">
<!-- Generated by graphviz version 2.28.0 (20111028.1807)
 -->
<!-- Title: G Pages: 1 -->
<svg width="460pt" height="358pt"
 viewBox="0.00 0.00 460.00 358.00" xmlns="http://www.w3.org/2000/svg" xmlns:xlink="http://www.w3.org/1999/xlink">
<g id="graph1" class="graph" transform="scale(1 1) rotate(0) translate(4 354)">
<title>G</title>
<!-- Node1 -->
<g id="node1" class="node"><title>Node1</title>
<polygon fill="#bfbfbf" stroke="black" points="-0.166016,-163.934 -0.166016,-186.066 186.166,-186.066 186.166,-163.934 -0.166016,-163.934"/>
<text text-anchor="middle" x="93" y="-172.066" font-family="sans-serif" font-size="10.00">csc440.nuf.complay.Timer.setTime</text>
</g>
<!-- Node2 -->
<g id="node3" class="node"><title>Node2</title>
<a xlink:href="classcsc440_1_1nuf_1_1complay_1_1_on_screen.xhtml#a33feeb951e6558b0f50251e713a5a230" target="_top" xlink:title="csc440.nuf.complay.OnScreen.Q">
<polygon fill="none" stroke="black" points="250.36,-327.934 250.36,-350.066 423.64,-350.066 423.64,-327.934 250.36,-327.934"/>
<text text-anchor="middle" x="337" y="-336.066" font-family="sans-serif" font-size="10.00">csc440.nuf.complay.OnScreen.Q</text>
</a>
</g>
<!-- Node1&#45;&gt;Node2 -->
<g id="edge2" class="edge"><title>Node1&#45;&gt;Node2</title>
<path fill="none" stroke="midnightblue" d="M100.361,-186.186C116.639,-213.679 162.726,-284.733 222,-318 227.837,-321.276 234.081,-324.055 240.528,-326.411"/>
<polygon fill="midnightblue" stroke="midnightblue" points="239.502,-329.758 250.096,-329.569 241.697,-323.111 239.502,-329.758"/>
</g>
<!-- Node3 -->
<g id="node5" class="node"><title>Node3</title>
<a xlink:href="classcsc440_1_1nuf_1_1complay_1_1_q.xhtml#a6c333b08908191e022f23b68989c263a" target="_top" xlink:title="csc440.nuf.complay.Q.isEmpty">
<polygon fill="none" stroke="black" points="254.32,-286.934 254.32,-309.066 419.68,-309.066 419.68,-286.934 254.32,-286.934"/>
<text text-anchor="middle" x="337" y="-295.066" font-family="sans-serif" font-size="10.00">csc440.nuf.complay.Q.isEmpty</text>
</a>
</g>
<!-- Node1&#45;&gt;Node3 -->
<g id="edge4" class="edge"><title>Node1&#45;&gt;Node3</title>
<path fill="none" stroke="midnightblue" d="M104.373,-186.361C124.685,-207.835 172.094,-254.263 222,-277 229.082,-280.227 236.626,-282.958 244.331,-285.269"/>
<polygon fill="midnightblue" stroke="midnightblue" points="243.582,-288.693 254.153,-287.978 245.444,-281.945 243.582,-288.693"/>
</g>
<!-- Node4 -->
<g id="node7" class="node"><title>Node4</title>
<a xlink:href="classcsc440_1_1nuf_1_1complay_1_1_q.xhtml#a1909fe89eabfc73398d99c7dc4c9b946" target="_top" xlink:title="csc440.nuf.complay.Q.peek">
<polygon fill="none" stroke="black" points="261.681,-245.934 261.681,-268.066 412.319,-268.066 412.319,-245.934 261.681,-245.934"/>
<text text-anchor="middle" x="337" y="-254.066" font-family="sans-serif" font-size="10.00">csc440.nuf.complay.Q.peek</text>
</a>
</g>
<!-- Node1&#45;&gt;Node4 -->
<g id="edge6" class="edge"><title>Node1&#45;&gt;Node4</title>
<path fill="none" stroke="midnightblue" d="M113.29,-186.176C137.786,-199.896 181.722,-222.945 222,-236 231.405,-239.048 241.398,-241.7 251.407,-243.995"/>
<polygon fill="midnightblue" stroke="midnightblue" points="250.885,-247.463 261.401,-246.173 252.375,-240.624 250.885,-247.463"/>
</g>
<!-- Node5 -->
<g id="node9" class="node"><title>Node5</title>
<a xlink:href="classcsc440_1_1nuf_1_1complay_1_1_off_screen.xhtml#ab94d06e82ef902255257e6ca5b635a56" target="_top" xlink:title="csc440.nuf.complay.OffScreen.Q">
<polygon fill="none" stroke="black" points="249.94,-204.934 249.94,-227.066 424.06,-227.066 424.06,-204.934 249.94,-204.934"/>
<text text-anchor="middle" x="337" y="-213.066" font-family="sans-serif" font-size="10.00">csc440.nuf.complay.OffScreen.Q</text>
</a>
</g>
<!-- Node1&#45;&gt;Node5 -->
<g id="edge8" class="edge"><title>Node1&#45;&gt;Node5</title>
<path fill="none" stroke="midnightblue" d="M159.489,-186.095C190.695,-191.382 228.191,-197.735 260.583,-203.223"/>
<polygon fill="midnightblue" stroke="midnightblue" points="260.015,-206.676 270.459,-204.896 261.184,-199.775 260.015,-206.676"/>
</g>
<!-- Node6 -->
<g id="node11" class="node"><title>Node6</title>
<a xlink:href="classcsc440_1_1nuf_1_1complay_1_1_q.xhtml#aaa9e1371272a3d71932a7b753155741b" target="_top" xlink:title="csc440.nuf.complay.Q.push">
<polygon fill="none" stroke="black" points="261.419,-163.934 261.419,-186.066 412.581,-186.066 412.581,-163.934 261.419,-163.934"/>
<text text-anchor="middle" x="337" y="-172.066" font-family="sans-serif" font-size="10.00">csc440.nuf.complay.Q.push</text>
</a>
</g>
<!-- Node1&#45;&gt;Node6 -->
<g id="edge10" class="edge"><title>Node1&#45;&gt;Node6</title>
<path fill="none" stroke="midnightblue" d="M186.18,-175C207.531,-175 230.153,-175 251.171,-175"/>
<polygon fill="midnightblue" stroke="midnightblue" points="251.348,-178.5 261.348,-175 251.348,-171.5 251.348,-178.5"/>
</g>
<!-- Node7 -->
<g id="node13" class="node"><title>Node7</title>
<a xlink:href="classcsc440_1_1nuf_1_1complay_1_1_waiting.xhtml#aaa8d6d536f680a183de75424e4d95627" target="_top" xlink:title="csc440.nuf.complay.Waiting.Q">
<polygon fill="none" stroke="black" points="255.301,-122.934 255.301,-145.066 418.699,-145.066 418.699,-122.934 255.301,-122.934"/>
<text text-anchor="middle" x="337" y="-131.066" font-family="sans-serif" font-size="10.00">csc440.nuf.complay.Waiting.Q</text>
</a>
</g>
<!-- Node1&#45;&gt;Node7 -->
<g id="edge12" class="edge"><title>Node1&#45;&gt;Node7</title>
<path fill="none" stroke="midnightblue" d="M159.489,-163.905C190.695,-158.618 228.191,-152.265 260.583,-146.777"/>
<polygon fill="midnightblue" stroke="midnightblue" points="261.184,-150.225 270.459,-145.104 260.015,-143.324 261.184,-150.225"/>
</g>
<!-- Node8 -->
<g id="node15" class="node"><title>Node8</title>
<a xlink:href="classcsc440_1_1nuf_1_1complay_1_1_q.xhtml#af768e2d386701d7d3ee1078e08a21422" target="_top" xlink:title="csc440.nuf.complay.Q.pop">
<polygon fill="none" stroke="black" points="263.956,-81.9336 263.956,-104.066 410.044,-104.066 410.044,-81.9336 263.956,-81.9336"/>
<text text-anchor="middle" x="337" y="-90.0664" font-family="sans-serif" font-size="10.00">csc440.nuf.complay.Q.pop</text>
</a>
</g>
<!-- Node1&#45;&gt;Node8 -->
<g id="edge14" class="edge"><title>Node1&#45;&gt;Node8</title>
<path fill="none" stroke="midnightblue" d="M112.821,-163.814C137.186,-149.827 181.35,-126.128 222,-113 232.175,-109.714 243.045,-106.93 253.882,-104.581"/>
<polygon fill="midnightblue" stroke="midnightblue" points="254.712,-107.984 263.804,-102.545 253.305,-101.127 254.712,-107.984"/>
</g>
<!-- Node9 -->
<g id="node17" class="node"><title>Node9</title>
<a xlink:href="classcsc440_1_1nuf_1_1complay_1_1_q.xhtml#aa873b2a8f7d338e917b5db7af678a55d" target="_top" xlink:title="csc440.nuf.complay.Q.sortByEndTimeASC">
<polygon fill="none" stroke="black" points="227.674,-40.9336 227.674,-63.0664 446.326,-63.0664 446.326,-40.9336 227.674,-40.9336"/>
<text text-anchor="middle" x="337" y="-49.0664" font-family="sans-serif" font-size="10.00">csc440.nuf.complay.Q.sortByEndTimeASC</text>
</a>
</g>
<!-- Node1&#45;&gt;Node9 -->
<g id="edge16" class="edge"><title>Node1&#45;&gt;Node9</title>
<path fill="none" stroke="midnightblue" d="M104.019,-163.822C124.08,-142.218 171.602,-94.8479 222,-72 226.918,-69.7703 232.061,-67.7883 237.325,-66.0266"/>
<polygon fill="midnightblue" stroke="midnightblue" points="238.377,-69.3649 246.912,-63.0875 236.325,-62.6724 238.377,-69.3649"/>
</g>
<!-- Node10 -->
<g id="node19" class="node"><title>Node10</title>
<a xlink:href="classcsc440_1_1nuf_1_1complay_1_1_q.xhtml#a935d3fbb201ad281bfc122c616335413" target="_top" xlink:title="csc440.nuf.complay.Q.sortByStartTimeDESC">
<polygon fill="none" stroke="black" points="222.389,0.0664062 222.389,-22.0664 451.611,-22.0664 451.611,0.0664062 222.389,0.0664062"/>
<text text-anchor="middle" x="337" y="-8.06641" font-family="sans-serif" font-size="10.00">csc440.nuf.complay.Q.sortByStartTimeDESC</text>
</a>
</g>
<!-- Node1&#45;&gt;Node10 -->
<g id="edge18" class="edge"><title>Node1&#45;&gt;Node10</title>
<path fill="none" stroke="midnightblue" d="M100.322,-163.705C116.511,-135.948 162.411,-64.2463 222,-31 225.455,-29.0725 229.052,-27.3232 232.75,-25.7361"/>
<polygon fill="midnightblue" stroke="midnightblue" points="234.057,-28.9833 242.125,-22.1159 231.536,-22.4533 234.057,-28.9833"/>
</g>
</g>
</svg>
