<?xml version="1.0" encoding="UTF-8" standalone="no"?>
<!DOCTYPE svg PUBLIC "-//W3C//DTD SVG 1.1//EN"
 "http://www.w3.org/Graphics/SVG/1.1/DTD/svg11.dtd">
<!-- Generated by graphviz version 2.28.0 (20111028.1807)
 -->
<!-- Title: G Pages: 1 -->
<!--zoomable 235 -->
<svg id="main" version="1.1" xmlns="http://www.w3.org/2000/svg" xmlns:xlink="http://www.w3.org/1999/xlink" xml:space="preserve" onload="init(evt)">
        <defs>
                <circle id="rim" cx="0" cy="0" r="7"/>
                <circle id="rim2" cx="0" cy="0" r="3.5"/>
                <g id="zoomPlus">
                        <use xlink:href="#rim" fill="#404040">
                                <set attributeName="fill" to="#808080" begin="zoomplus.mouseover" end="zoomplus.mouseout"/>
                        </use>
                        <path d="M-4,0h8M0,-4v8" fill="none" stroke="white" stroke-width="1.5" pointer-events="none"/>
                </g>
                <g id="zoomMin">
                        <use xlink:href="#rim" fill="#404040">
                                <set attributeName="fill" to="#808080" begin="zoomminus.mouseover" end="zoomminus.mouseout"/>
                        </use>
                        <path d="M-4,0h8" fill="none" stroke="white" stroke-width="1.5" pointer-events="none"/>
                </g>
                <g id="dirArrow">
                        <path fill="none" stroke="white" stroke-width="1.5" d="M0,-3.0v7 M-2.5,-0.5L0,-3.0L2.5,-0.5"/>
                </g>
               <g id="resetDef">
                       <use xlink:href="#rim2" fill="#404040">
                               <set attributeName="fill" to="#808080" begin="reset.mouseover" end="reset.mouseout"/>
                       </use>
               </g>
        </defs>

<script type="text/javascript">
var viewWidth = 606;
var viewHeight = 235;
var sectionId = 'dynsection-2';
</script>
<script xlink:href="svgpan.js"/>
<svg id="graph" class="graph">
<g id="viewport">
<title>G</title>
<!-- Node1 -->
<g id="node1" class="node"><title>Node1</title>
<polygon fill="#bfbfbf" stroke="black" points="-0.236816,-101.934 -0.236816,-124.066 216.237,-124.066 216.237,-101.934 -0.236816,-101.934"/>
<text text-anchor="middle" x="108" y="-110.066" font-family="sans-serif" font-size="10.00">csc440.nuf.client.SMILWidget.SMILWidget</text>
</g>
<!-- Node2 -->
<g id="node3" class="node"><title>Node2</title>
<a xlink:href="interfacecsc440_1_1nuf_1_1client_1_1_my_request_factory.xhtml#aec007852eb50441fe13e53e4fb86e3a6" target="_top" xlink:title="csc440.nuf.client.MyRequestFactory.messageRequest">
<polygon fill="none" stroke="black" points="287.72,-204.934 287.72,-227.066 562.28,-227.066 562.28,-204.934 287.72,-204.934"/>
<text text-anchor="middle" x="425" y="-213.066" font-family="sans-serif" font-size="10.00">csc440.nuf.client.MyRequestFactory.messageRequest</text>
</a>
</g>
<!-- Node1&#45;&gt;Node2 -->
<g id="edge2" class="edge"><title>Node1&#45;&gt;Node2</title>
<path fill="none" stroke="midnightblue" d="M123.899,-124.272C148.889,-142.526 201.49,-178.201 252,-195 260.898,-197.959 270.18,-200.509 279.619,-202.706"/>
<polygon fill="midnightblue" stroke="midnightblue" points="278.986,-206.15 289.504,-204.869 280.483,-199.312 278.986,-206.15"/>
</g>
<!-- Node3 -->
<g id="node5" class="node"><title>Node3</title>
<a xlink:href="interfacecsc440_1_1nuf_1_1shared_1_1_message_proxy.xhtml#ae5db6a14c1cd21b25d90e77d56a85ddd" target="_top" xlink:title="csc440.nuf.shared.MessageProxy.setRecipient">
<polygon fill="none" stroke="black" points="305.157,-163.934 305.157,-186.066 544.843,-186.066 544.843,-163.934 305.157,-163.934"/>
<text text-anchor="middle" x="425" y="-172.066" font-family="sans-serif" font-size="10.00">csc440.nuf.shared.MessageProxy.setRecipient</text>
</a>
</g>
<!-- Node1&#45;&gt;Node3 -->
<g id="edge4" class="edge"><title>Node1&#45;&gt;Node3</title>
<path fill="none" stroke="midnightblue" d="M142.148,-124.117C170.897,-133.369 213.782,-146.239 252,-154 267.869,-157.223 284.669,-160.019 301.307,-162.425"/>
<polygon fill="midnightblue" stroke="midnightblue" points="301.247,-165.95 311.636,-163.873 302.219,-159.018 301.247,-165.95"/>
</g>
<!-- Node4 -->
<g id="node7" class="node"><title>Node4</title>
<a xlink:href="interfacecsc440_1_1nuf_1_1shared_1_1_message_proxy.xhtml#a05843b2b7eb495a2b217f37a0f25db3b" target="_top" xlink:title="csc440.nuf.shared.MessageProxy.setMessage">
<polygon fill="none" stroke="black" points="306.607,-122.934 306.607,-145.066 543.393,-145.066 543.393,-122.934 306.607,-122.934"/>
<text text-anchor="middle" x="425" y="-131.066" font-family="sans-serif" font-size="10.00">csc440.nuf.shared.MessageProxy.setMessage</text>
</a>
</g>
<!-- Node1&#45;&gt;Node4 -->
<g id="edge6" class="edge"><title>Node1&#45;&gt;Node4</title>
<path fill="none" stroke="midnightblue" d="M216.524,-120.168C242.205,-121.88 269.864,-123.724 296.354,-125.49"/>
<polygon fill="midnightblue" stroke="midnightblue" points="296.232,-128.99 306.442,-126.163 296.697,-122.005 296.232,-128.99"/>
</g>
<!-- Node5 -->
<g id="node9" class="node"><title>Node5</title>
<a xlink:href="interfacecsc440_1_1nuf_1_1client_1_1_my_request_factory_1_1_message_request.xhtml#af97b69aaf2d4d1af0581210de50b5c28" target="_top" xlink:title="csc440.nuf.client.MyRequestFactory.MessageRequest.send">
<polygon fill="none" stroke="black" points="274.915,-81.9336 274.915,-104.066 575.085,-104.066 575.085,-81.9336 274.915,-81.9336"/>
<text text-anchor="middle" x="425" y="-90.0664" font-family="sans-serif" font-size="10.00">csc440.nuf.client.MyRequestFactory.MessageRequest.send</text>
</a>
</g>
<!-- Node1&#45;&gt;Node5 -->
<g id="edge8" class="edge"><title>Node1&#45;&gt;Node5</title>
<path fill="none" stroke="midnightblue" d="M216.524,-106.173C232.095,-105.184 248.394,-104.15 264.718,-103.113"/>
<polygon fill="midnightblue" stroke="midnightblue" points="265.121,-106.595 274.879,-102.468 264.677,-99.6088 265.121,-106.595"/>
</g>
<!-- Node6 -->
<g id="node11" class="node"><title>Node6</title>
<a xlink:href="interfacecsc440_1_1nuf_1_1client_1_1_my_request_factory.xhtml#a4828401da626ac8389a9417580304595" target="_top" xlink:title="csc440.nuf.client.MyRequestFactory.helloWorldRequest">
<polygon fill="none" stroke="black" points="283.099,-40.9336 283.099,-63.0664 566.901,-63.0664 566.901,-40.9336 283.099,-40.9336"/>
<text text-anchor="middle" x="425" y="-49.0664" font-family="sans-serif" font-size="10.00">csc440.nuf.client.MyRequestFactory.helloWorldRequest</text>
</a>
</g>
<!-- Node1&#45;&gt;Node6 -->
<g id="edge10" class="edge"><title>Node1&#45;&gt;Node6</title>
<path fill="none" stroke="midnightblue" d="M141.852,-101.92C170.595,-92.6269 213.633,-79.6772 252,-72 266.131,-69.1724 281.001,-66.7025 295.837,-64.5554"/>
<polygon fill="midnightblue" stroke="midnightblue" points="296.676,-67.9723 306.094,-63.1201 295.706,-61.0398 296.676,-67.9723"/>
</g>
<!-- Node7 -->
<g id="node13" class="node"><title>Node7</title>
<a xlink:href="interfacecsc440_1_1nuf_1_1client_1_1_my_request_factory_1_1_hello_world_request.xhtml#ad2a116ea152e1420554619fbe67a056c" target="_top" xlink:title="csc440.nuf.client.MyRequestFactory.HelloWorldRequest.getMessage">
<polygon fill="none" stroke="black" points="252.317,0.0664062 252.317,-22.0664 597.683,-22.0664 597.683,0.0664062 252.317,0.0664062"/>
<text text-anchor="middle" x="425" y="-8.06641" font-family="sans-serif" font-size="10.00">csc440.nuf.client.MyRequestFactory.HelloWorldRequest.getMessage</text>
</a>
</g>
<!-- Node1&#45;&gt;Node7 -->
<g id="edge12" class="edge"><title>Node1&#45;&gt;Node7</title>
<path fill="none" stroke="midnightblue" d="M123.888,-101.695C148.862,-83.3948 201.442,-47.6538 252,-31 259.612,-28.4925 267.505,-26.2904 275.536,-24.3572"/>
<polygon fill="midnightblue" stroke="midnightblue" points="276.409,-27.7482 285.392,-22.1301 274.866,-20.9204 276.409,-27.7482"/>
</g>
</g>
</svg>
        <g id="navigator" transform="translate(0 0)" fill="#404254">
                <rect fill="#f2f5e9" fill-opacity="0.5" stroke="#606060" stroke-width=".5" x="0" y="0" width="60" height="60"/>
                <use id="zoomplus" xlink:href="#zoomPlus" x="17" y="9" onmousedown="handleZoom(evt,'in')"/>
                <use id="zoomminus" xlink:href="#zoomMin" x="42" y="9" onmousedown="handleZoom(evt,'out')"/>
                <use id="reset" xlink:href="#resetDef" x="30" y="36" onmousedown="handleReset()"/>
                <g id="arrowUp" xlink:href="#dirArrow" transform="translate(30 24)" onmousedown="handlePan(0,-1)">
                  <use xlink:href="#rim" fill="#404040">
                        <set attributeName="fill" to="#808080" begin="arrowUp.mouseover" end="arrowUp.mouseout"/>
                  </use>
                  <path fill="none" stroke="white" stroke-width="1.5" d="M0,-3.0v7 M-2.5,-0.5L0,-3.0L2.5,-0.5"/>
                </g>
                <g id="arrowRight" xlink:href="#dirArrow" transform="rotate(90) translate(36 -43)" onmousedown="handlePan(1,0)">
                  <use xlink:href="#rim" fill="#404040">
                        <set attributeName="fill" to="#808080" begin="arrowRight.mouseover" end="arrowRight.mouseout"/>
                  </use>
                  <path fill="none" stroke="white" stroke-width="1.5" d="M0,-3.0v7 M-2.5,-0.5L0,-3.0L2.5,-0.5"/>
                </g>
                <g id="arrowDown" xlink:href="#dirArrow" transform="rotate(180) translate(-30 -48)" onmousedown="handlePan(0,1)">
                  <use xlink:href="#rim" fill="#404040">
                        <set attributeName="fill" to="#808080" begin="arrowDown.mouseover" end="arrowDown.mouseout"/>
                  </use>
                  <path fill="none" stroke="white" stroke-width="1.5" d="M0,-3.0v7 M-2.5,-0.5L0,-3.0L2.5,-0.5"/>
                </g>
                <g id="arrowLeft" xlink:href="#dirArrow" transform="rotate(270) translate(-36 17)" onmousedown="handlePan(-1,0)">
                  <use xlink:href="#rim" fill="#404040">
                        <set attributeName="fill" to="#808080" begin="arrowLeft.mouseover" end="arrowLeft.mouseout"/>
                  </use>
                  <path fill="none" stroke="white" stroke-width="1.5" d="M0,-3.0v7 M-2.5,-0.5L0,-3.0L2.5,-0.5"/>
                </g>
        </g>
        <svg viewBox="0 0 25 25" width="100%" height="30px" preserveAspectRatio="xMaxYMin meet"> 
          <g id="printButton" transform="scale(0.4 0.4)" onmousedown="handlePrint(evt)">
            <rect height="23.33753581" id="paper" rx="2" style="fill:#f2f5e9;fill-rule:evenodd;stroke:#111111;stroke-width:3.224;stroke-linejoin:round;" transform="matrix(1.000000,0.000000,-0.339266,0.940691,0.000000,0.000000)" width="25.55231285" x="26.69387353" y="7.36162977"/>
            <rect height="26.272097" id="body" rx="2" style="fill:#404040;fill-rule:evenodd;stroke:#111111;stroke-width:3.125;stroke-linejoin:round;" width="50" x="4.5295201" y="27.078951"/>
            <rect height="8.27750969" id="tray" style="fill:#d2d5c9;fill-rule:evenodd;stroke:#111111;stroke-width:3.125;stroke-linecap:round;stroke-linejoin:round;" width="40" x="10.28778839" y="44.96812282"/>
          </g>
        </svg>
</svg>
