<?xml version="1.0" encoding="UTF-8" standalone="no"?>
<!DOCTYPE svg PUBLIC "-//W3C//DTD SVG 1.1//EN"
 "http://www.w3.org/Graphics/SVG/1.1/DTD/svg11.dtd">
<!-- Generated by graphviz version 2.28.0 (20111028.1807)
 -->
<!-- Title: G Pages: 1 -->
<!--zoomable 358 -->
<svg id="main" version="1.1" xmlns="http://www.w3.org/2000/svg" xmlns:xlink="http://www.w3.org/1999/xlink" xml:space="preserve" onload="init(evt)">
        <defs>
                <circle id="rim" cx="0" cy="0" r="7"/>
                <circle id="rim2" cx="0" cy="0" r="3.5"/>
                <g id="zoomPlus">
                        <use xlink:href="#rim" fill="#404040">
                                <set attributeName="fill" to="#808080" begin="zoomplus.mouseover" end="zoomplus.mouseout"/>
                        </use>
                        <path d="M-4,0h8M0,-4v8" fill="none" stroke="white" stroke-width="1.5" pointer-events="none"/>
                </g>
                <g id="zoomMin">
                        <use xlink:href="#rim" fill="#404040">
                                <set attributeName="fill" to="#808080" begin="zoomminus.mouseover" end="zoomminus.mouseout"/>
                        </use>
                        <path d="M-4,0h8" fill="none" stroke="white" stroke-width="1.5" pointer-events="none"/>
                </g>
                <g id="dirArrow">
                        <path fill="none" stroke="white" stroke-width="1.5" d="M0,-3.0v7 M-2.5,-0.5L0,-3.0L2.5,-0.5"/>
                </g>
               <g id="resetDef">
                       <use xlink:href="#rim2" fill="#404040">
                               <set attributeName="fill" to="#808080" begin="reset.mouseover" end="reset.mouseout"/>
                       </use>
               </g>
        </defs>

<script type="text/javascript">
var viewWidth = 1054;
var viewHeight = 358;
var sectionId = 'dynsection-8';
</script>
<script xlink:href="svgpan.js"/>
<svg id="graph" class="graph">
<g id="viewport">
<title>G</title>
<!-- Node1 -->
<g id="node1" class="node"><title>Node1</title>
<polygon fill="#bfbfbf" stroke="black" points="-0.124023,-183.934 -0.124023,-206.066 290.124,-206.066 290.124,-183.934 -0.124023,-183.934"/>
<text text-anchor="middle" x="145" y="-192.066" font-family="sans-serif" font-size="10.00">csc440.nuf.complay.PlayerActivity.onStopTrackingTouch</text>
</g>
<!-- Node2 -->
<g id="node3" class="node"><title>Node2</title>
<a xlink:href="classcsc440_1_1nuf_1_1complay_1_1_player_activity.xhtml#aa3331f58e6bf08d6ccd6f324607738d8" target="_top" xlink:title="csc440.nuf.complay.PlayerActivity.playPause">
<polygon fill="none" stroke="black" points="326.021,-204.934 326.021,-227.066 557.979,-227.066 557.979,-204.934 326.021,-204.934"/>
<text text-anchor="middle" x="442" y="-213.066" font-family="sans-serif" font-size="10.00">csc440.nuf.complay.PlayerActivity.playPause</text>
</a>
</g>
<!-- Node1&#45;&gt;Node2 -->
<g id="edge2" class="edge"><title>Node1&#45;&gt;Node2</title>
<path fill="none" stroke="midnightblue" d="M290.475,-205.285C298.882,-205.883 307.302,-206.482 315.625,-207.075"/>
<polygon fill="midnightblue" stroke="midnightblue" points="315.5,-210.575 325.723,-207.794 315.997,-203.593 315.5,-210.575"/>
</g>
<!-- Node3 -->
<g id="node5" class="node"><title>Node3</title>
<a xlink:href="classcsc440_1_1nuf_1_1complay_1_1_player_canvas.xhtml#a64eae2e9ed26456ab5b104436c97d78f" target="_top" xlink:title="csc440.nuf.complay.PlayerCanvas.setTime">
<polygon fill="none" stroke="black" points="331.305,-163.934 331.305,-186.066 552.695,-186.066 552.695,-163.934 331.305,-163.934"/>
<text text-anchor="middle" x="442" y="-172.066" font-family="sans-serif" font-size="10.00">csc440.nuf.complay.PlayerCanvas.setTime</text>
</a>
</g>
<!-- Node1&#45;&gt;Node3 -->
<g id="edge4" class="edge"><title>Node1&#45;&gt;Node3</title>
<path fill="none" stroke="midnightblue" d="M290.475,-185.205C300.767,-184.507 311.079,-183.808 321.21,-183.121"/>
<polygon fill="midnightblue" stroke="midnightblue" points="321.532,-186.608 331.272,-182.439 321.059,-179.624 321.532,-186.608"/>
</g>
<!-- Node4 -->
<g id="node7" class="node"><title>Node4</title>
<a xlink:href="classcsc440_1_1nuf_1_1complay_1_1_timer.xhtml#aebbe2beb25856951b72d866d783ce897" target="_top" xlink:title="csc440.nuf.complay.Timer.setTime">
<polygon fill="none" stroke="black" points="593.834,-163.934 593.834,-186.066 780.166,-186.066 780.166,-163.934 593.834,-163.934"/>
<text text-anchor="middle" x="687" y="-172.066" font-family="sans-serif" font-size="10.00">csc440.nuf.complay.Timer.setTime</text>
</a>
</g>
<!-- Node3&#45;&gt;Node4 -->
<g id="edge6" class="edge"><title>Node3&#45;&gt;Node4</title>
<path fill="none" stroke="midnightblue" d="M552.77,-175C563.052,-175 573.447,-175 583.657,-175"/>
<polygon fill="midnightblue" stroke="midnightblue" points="583.794,-178.5 593.794,-175 583.794,-171.5 583.794,-178.5"/>
</g>
<!-- Node5 -->
<g id="node9" class="node"><title>Node5</title>
<a xlink:href="classcsc440_1_1nuf_1_1complay_1_1_on_screen.xhtml#a33feeb951e6558b0f50251e713a5a230" target="_top" xlink:title="csc440.nuf.complay.OnScreen.Q">
<polygon fill="none" stroke="black" points="844.36,-327.934 844.36,-350.066 1017.64,-350.066 1017.64,-327.934 844.36,-327.934"/>
<text text-anchor="middle" x="931" y="-336.066" font-family="sans-serif" font-size="10.00">csc440.nuf.complay.OnScreen.Q</text>
</a>
</g>
<!-- Node4&#45;&gt;Node5 -->
<g id="edge8" class="edge"><title>Node4&#45;&gt;Node5</title>
<path fill="none" stroke="midnightblue" d="M694.361,-186.186C710.639,-213.679 756.726,-284.733 816,-318 821.837,-321.276 828.081,-324.055 834.528,-326.411"/>
<polygon fill="midnightblue" stroke="midnightblue" points="833.502,-329.758 844.096,-329.569 835.697,-323.111 833.502,-329.758"/>
</g>
<!-- Node6 -->
<g id="node11" class="node"><title>Node6</title>
<a xlink:href="classcsc440_1_1nuf_1_1complay_1_1_q.xhtml#a6c333b08908191e022f23b68989c263a" target="_top" xlink:title="csc440.nuf.complay.Q.isEmpty">
<polygon fill="none" stroke="black" points="848.32,-286.934 848.32,-309.066 1013.68,-309.066 1013.68,-286.934 848.32,-286.934"/>
<text text-anchor="middle" x="931" y="-295.066" font-family="sans-serif" font-size="10.00">csc440.nuf.complay.Q.isEmpty</text>
</a>
</g>
<!-- Node4&#45;&gt;Node6 -->
<g id="edge10" class="edge"><title>Node4&#45;&gt;Node6</title>
<path fill="none" stroke="midnightblue" d="M698.373,-186.361C718.685,-207.835 766.094,-254.263 816,-277 823.082,-280.227 830.626,-282.958 838.331,-285.269"/>
<polygon fill="midnightblue" stroke="midnightblue" points="837.582,-288.693 848.153,-287.978 839.444,-281.945 837.582,-288.693"/>
</g>
<!-- Node7 -->
<g id="node13" class="node"><title>Node7</title>
<a xlink:href="classcsc440_1_1nuf_1_1complay_1_1_q.xhtml#a1909fe89eabfc73398d99c7dc4c9b946" target="_top" xlink:title="csc440.nuf.complay.Q.peek">
<polygon fill="none" stroke="black" points="855.681,-245.934 855.681,-268.066 1006.32,-268.066 1006.32,-245.934 855.681,-245.934"/>
<text text-anchor="middle" x="931" y="-254.066" font-family="sans-serif" font-size="10.00">csc440.nuf.complay.Q.peek</text>
</a>
</g>
<!-- Node4&#45;&gt;Node7 -->
<g id="edge12" class="edge"><title>Node4&#45;&gt;Node7</title>
<path fill="none" stroke="midnightblue" d="M707.29,-186.176C731.786,-199.896 775.722,-222.945 816,-236 825.405,-239.048 835.398,-241.7 845.407,-243.995"/>
<polygon fill="midnightblue" stroke="midnightblue" points="844.885,-247.463 855.401,-246.173 846.375,-240.624 844.885,-247.463"/>
</g>
<!-- Node8 -->
<g id="node15" class="node"><title>Node8</title>
<a xlink:href="classcsc440_1_1nuf_1_1complay_1_1_off_screen.xhtml#ab94d06e82ef902255257e6ca5b635a56" target="_top" xlink:title="csc440.nuf.complay.OffScreen.Q">
<polygon fill="none" stroke="black" points="843.94,-204.934 843.94,-227.066 1018.06,-227.066 1018.06,-204.934 843.94,-204.934"/>
<text text-anchor="middle" x="931" y="-213.066" font-family="sans-serif" font-size="10.00">csc440.nuf.complay.OffScreen.Q</text>
</a>
</g>
<!-- Node4&#45;&gt;Node8 -->
<g id="edge14" class="edge"><title>Node4&#45;&gt;Node8</title>
<path fill="none" stroke="midnightblue" d="M753.489,-186.095C784.695,-191.382 822.191,-197.735 854.583,-203.223"/>
<polygon fill="midnightblue" stroke="midnightblue" points="854.015,-206.676 864.459,-204.896 855.184,-199.775 854.015,-206.676"/>
</g>
<!-- Node9 -->
<g id="node17" class="node"><title>Node9</title>
<a xlink:href="classcsc440_1_1nuf_1_1complay_1_1_q.xhtml#aaa9e1371272a3d71932a7b753155741b" target="_top" xlink:title="csc440.nuf.complay.Q.push">
<polygon fill="none" stroke="black" points="855.419,-163.934 855.419,-186.066 1006.58,-186.066 1006.58,-163.934 855.419,-163.934"/>
<text text-anchor="middle" x="931" y="-172.066" font-family="sans-serif" font-size="10.00">csc440.nuf.complay.Q.push</text>
</a>
</g>
<!-- Node4&#45;&gt;Node9 -->
<g id="edge16" class="edge"><title>Node4&#45;&gt;Node9</title>
<path fill="none" stroke="midnightblue" d="M780.18,-175C801.531,-175 824.153,-175 845.171,-175"/>
<polygon fill="midnightblue" stroke="midnightblue" points="845.348,-178.5 855.348,-175 845.348,-171.5 845.348,-178.5"/>
</g>
<!-- Node10 -->
<g id="node19" class="node"><title>Node10</title>
<a xlink:href="classcsc440_1_1nuf_1_1complay_1_1_waiting.xhtml#aaa8d6d536f680a183de75424e4d95627" target="_top" xlink:title="csc440.nuf.complay.Waiting.Q">
<polygon fill="none" stroke="black" points="849.301,-122.934 849.301,-145.066 1012.7,-145.066 1012.7,-122.934 849.301,-122.934"/>
<text text-anchor="middle" x="931" y="-131.066" font-family="sans-serif" font-size="10.00">csc440.nuf.complay.Waiting.Q</text>
</a>
</g>
<!-- Node4&#45;&gt;Node10 -->
<g id="edge18" class="edge"><title>Node4&#45;&gt;Node10</title>
<path fill="none" stroke="midnightblue" d="M753.489,-163.905C784.695,-158.618 822.191,-152.265 854.583,-146.777"/>
<polygon fill="midnightblue" stroke="midnightblue" points="855.184,-150.225 864.459,-145.104 854.015,-143.324 855.184,-150.225"/>
</g>
<!-- Node11 -->
<g id="node21" class="node"><title>Node11</title>
<a xlink:href="classcsc440_1_1nuf_1_1complay_1_1_q.xhtml#af768e2d386701d7d3ee1078e08a21422" target="_top" xlink:title="csc440.nuf.complay.Q.pop">
<polygon fill="none" stroke="black" points="857.956,-81.9336 857.956,-104.066 1004.04,-104.066 1004.04,-81.9336 857.956,-81.9336"/>
<text text-anchor="middle" x="931" y="-90.0664" font-family="sans-serif" font-size="10.00">csc440.nuf.complay.Q.pop</text>
</a>
</g>
<!-- Node4&#45;&gt;Node11 -->
<g id="edge20" class="edge"><title>Node4&#45;&gt;Node11</title>
<path fill="none" stroke="midnightblue" d="M706.821,-163.814C731.186,-149.827 775.35,-126.128 816,-113 826.175,-109.714 837.045,-106.93 847.882,-104.581"/>
<polygon fill="midnightblue" stroke="midnightblue" points="848.712,-107.984 857.804,-102.545 847.305,-101.127 848.712,-107.984"/>
</g>
<!-- Node12 -->
<g id="node23" class="node"><title>Node12</title>
<a xlink:href="classcsc440_1_1nuf_1_1complay_1_1_q.xhtml#aa873b2a8f7d338e917b5db7af678a55d" target="_top" xlink:title="csc440.nuf.complay.Q.sortByEndTimeASC">
<polygon fill="none" stroke="black" points="821.674,-40.9336 821.674,-63.0664 1040.33,-63.0664 1040.33,-40.9336 821.674,-40.9336"/>
<text text-anchor="middle" x="931" y="-49.0664" font-family="sans-serif" font-size="10.00">csc440.nuf.complay.Q.sortByEndTimeASC</text>
</a>
</g>
<!-- Node4&#45;&gt;Node12 -->
<g id="edge22" class="edge"><title>Node4&#45;&gt;Node12</title>
<path fill="none" stroke="midnightblue" d="M698.019,-163.822C718.08,-142.218 765.602,-94.8479 816,-72 820.918,-69.7703 826.061,-67.7883 831.325,-66.0266"/>
<polygon fill="midnightblue" stroke="midnightblue" points="832.377,-69.3649 840.912,-63.0875 830.325,-62.6724 832.377,-69.3649"/>
</g>
<!-- Node13 -->
<g id="node25" class="node"><title>Node13</title>
<a xlink:href="classcsc440_1_1nuf_1_1complay_1_1_q.xhtml#a935d3fbb201ad281bfc122c616335413" target="_top" xlink:title="csc440.nuf.complay.Q.sortByStartTimeDESC">
<polygon fill="none" stroke="black" points="816.389,0.0664062 816.389,-22.0664 1045.61,-22.0664 1045.61,0.0664062 816.389,0.0664062"/>
<text text-anchor="middle" x="931" y="-8.06641" font-family="sans-serif" font-size="10.00">csc440.nuf.complay.Q.sortByStartTimeDESC</text>
</a>
</g>
<!-- Node4&#45;&gt;Node13 -->
<g id="edge24" class="edge"><title>Node4&#45;&gt;Node13</title>
<path fill="none" stroke="midnightblue" d="M694.322,-163.705C710.511,-135.948 756.411,-64.2463 816,-31 819.455,-29.0725 823.052,-27.3232 826.75,-25.7361"/>
<polygon fill="midnightblue" stroke="midnightblue" points="828.057,-28.9833 836.125,-22.1159 825.536,-22.4533 828.057,-28.9833"/>
</g>
</g>
</svg>
        <g id="navigator" transform="translate(0 0)" fill="#404254">
                <rect fill="#f2f5e9" fill-opacity="0.5" stroke="#606060" stroke-width=".5" x="0" y="0" width="60" height="60"/>
                <use id="zoomplus" xlink:href="#zoomPlus" x="17" y="9" onmousedown="handleZoom(evt,'in')"/>
                <use id="zoomminus" xlink:href="#zoomMin" x="42" y="9" onmousedown="handleZoom(evt,'out')"/>
                <use id="reset" xlink:href="#resetDef" x="30" y="36" onmousedown="handleReset()"/>
                <g id="arrowUp" xlink:href="#dirArrow" transform="translate(30 24)" onmousedown="handlePan(0,-1)">
                  <use xlink:href="#rim" fill="#404040">
                        <set attributeName="fill" to="#808080" begin="arrowUp.mouseover" end="arrowUp.mouseout"/>
                  </use>
                  <path fill="none" stroke="white" stroke-width="1.5" d="M0,-3.0v7 M-2.5,-0.5L0,-3.0L2.5,-0.5"/>
                </g>
                <g id="arrowRight" xlink:href="#dirArrow" transform="rotate(90) translate(36 -43)" onmousedown="handlePan(1,0)">
                  <use xlink:href="#rim" fill="#404040">
                        <set attributeName="fill" to="#808080" begin="arrowRight.mouseover" end="arrowRight.mouseout"/>
                  </use>
                  <path fill="none" stroke="white" stroke-width="1.5" d="M0,-3.0v7 M-2.5,-0.5L0,-3.0L2.5,-0.5"/>
                </g>
                <g id="arrowDown" xlink:href="#dirArrow" transform="rotate(180) translate(-30 -48)" onmousedown="handlePan(0,1)">
                  <use xlink:href="#rim" fill="#404040">
                        <set attributeName="fill" to="#808080" begin="arrowDown.mouseover" end="arrowDown.mouseout"/>
                  </use>
                  <path fill="none" stroke="white" stroke-width="1.5" d="M0,-3.0v7 M-2.5,-0.5L0,-3.0L2.5,-0.5"/>
                </g>
                <g id="arrowLeft" xlink:href="#dirArrow" transform="rotate(270) translate(-36 17)" onmousedown="handlePan(-1,0)">
                  <use xlink:href="#rim" fill="#404040">
                        <set attributeName="fill" to="#808080" begin="arrowLeft.mouseover" end="arrowLeft.mouseout"/>
                  </use>
                  <path fill="none" stroke="white" stroke-width="1.5" d="M0,-3.0v7 M-2.5,-0.5L0,-3.0L2.5,-0.5"/>
                </g>
        </g>
        <svg viewBox="0 0 25 25" width="100%" height="30px" preserveAspectRatio="xMaxYMin meet"> 
          <g id="printButton" transform="scale(0.4 0.4)" onmousedown="handlePrint(evt)">
            <rect height="23.33753581" id="paper" rx="2" style="fill:#f2f5e9;fill-rule:evenodd;stroke:#111111;stroke-width:3.224;stroke-linejoin:round;" transform="matrix(1.000000,0.000000,-0.339266,0.940691,0.000000,0.000000)" width="25.55231285" x="26.69387353" y="7.36162977"/>
            <rect height="26.272097" id="body" rx="2" style="fill:#404040;fill-rule:evenodd;stroke:#111111;stroke-width:3.125;stroke-linejoin:round;" width="50" x="4.5295201" y="27.078951"/>
            <rect height="8.27750969" id="tray" style="fill:#d2d5c9;fill-rule:evenodd;stroke:#111111;stroke-width:3.125;stroke-linecap:round;stroke-linejoin:round;" width="40" x="10.28778839" y="44.96812282"/>
          </g>
        </svg>
</svg>
