<?xml version="1.0" encoding="UTF-8" standalone="no"?>
<!DOCTYPE svg PUBLIC "-//W3C//DTD SVG 1.1//EN"
 "http://www.w3.org/Graphics/SVG/1.1/DTD/svg11.dtd">
<!-- Generated by graphviz version 2.28.0 (20111028.1807)
 -->
<!-- Title: G Pages: 1 -->
<!--zoomable 112 -->
<svg id="main" version="1.1" xmlns="http://www.w3.org/2000/svg" xmlns:xlink="http://www.w3.org/1999/xlink" xml:space="preserve" onload="init(evt)">
        <defs>
                <circle id="rim" cx="0" cy="0" r="7"/>
                <circle id="rim2" cx="0" cy="0" r="3.5"/>
                <g id="zoomPlus">
                        <use xlink:href="#rim" fill="#404040">
                                <set attributeName="fill" to="#808080" begin="zoomplus.mouseover" end="zoomplus.mouseout"/>
                        </use>
                        <path d="M-4,0h8M0,-4v8" fill="none" stroke="white" stroke-width="1.5" pointer-events="none"/>
                </g>
                <g id="zoomMin">
                        <use xlink:href="#rim" fill="#404040">
                                <set attributeName="fill" to="#808080" begin="zoomminus.mouseover" end="zoomminus.mouseout"/>
                        </use>
                        <path d="M-4,0h8" fill="none" stroke="white" stroke-width="1.5" pointer-events="none"/>
                </g>
                <g id="dirArrow">
                        <path fill="none" stroke="white" stroke-width="1.5" d="M0,-3.0v7 M-2.5,-0.5L0,-3.0L2.5,-0.5"/>
                </g>
               <g id="resetDef">
                       <use xlink:href="#rim2" fill="#404040">
                               <set attributeName="fill" to="#808080" begin="reset.mouseover" end="reset.mouseout"/>
                       </use>
               </g>
        </defs>

<script type="text/javascript">
var viewWidth = 966;
var viewHeight = 112;
var sectionId = 'dynsection-0';
</script>
<script xlink:href="svgpan.js"/>
<svg id="graph" class="graph">
<g id="viewport">
<title>G</title>
<!-- Node1 -->
<g id="node1" class="node"><title>Node1</title>
<polygon fill="#bfbfbf" stroke="black" points="0.42334,-40.9336 0.42334,-63.0664 293.577,-63.0664 293.577,-40.9336 0.42334,-40.9336"/>
<text text-anchor="middle" x="147" y="-49.0664" font-family="sans-serif" font-size="10.00">com.google.appengine.codelab.Item.createOrUpdateItem</text>
</g>
<!-- Node2 -->
<g id="node3" class="node"><title>Node2</title>
<a xlink:href="classcom_1_1google_1_1appengine_1_1codelab_1_1_product.xhtml#a8281f8c29702347f39fcb651db5e073f" target="_top" xlink:title="com.google.appengine.codelab.Product.getProduct">
<polygon fill="none" stroke="black" points="329.969,-81.9336 329.969,-104.066 594.031,-104.066 594.031,-81.9336 329.969,-81.9336"/>
<text text-anchor="middle" x="462" y="-90.0664" font-family="sans-serif" font-size="10.00">com.google.appengine.codelab.Product.getProduct</text>
</a>
</g>
<!-- Node1&#45;&gt;Node2 -->
<g id="edge2" class="edge"><title>Node1&#45;&gt;Node2</title>
<path fill="none" stroke="midnightblue" d="M232.702,-63.0952C274.018,-68.5072 323.858,-75.0357 366.415,-80.6102"/>
<polygon fill="midnightblue" stroke="midnightblue" points="366.132,-84.103 376.502,-81.9315 367.041,-77.1623 366.132,-84.103"/>
</g>
<!-- Node4 -->
<g id="node7" class="node"><title>Node4</title>
<a xlink:href="classcom_1_1google_1_1appengine_1_1codelab_1_1_item.xhtml#addfefc24274a9ae1e62dc123e4bc2a68" target="_top" xlink:title="com.google.appengine.codelab.Item.getSingleItem">
<polygon fill="none" stroke="black" points="330.975,-40.9336 330.975,-63.0664 593.025,-63.0664 593.025,-40.9336 330.975,-40.9336"/>
<text text-anchor="middle" x="462" y="-49.0664" font-family="sans-serif" font-size="10.00">com.google.appengine.codelab.Item.getSingleItem</text>
</a>
</g>
<!-- Node1&#45;&gt;Node4 -->
<g id="edge6" class="edge"><title>Node1&#45;&gt;Node4</title>
<path fill="none" stroke="midnightblue" d="M293.962,-52C302.878,-52 311.84,-52 320.732,-52"/>
<polygon fill="midnightblue" stroke="midnightblue" points="320.734,-55.5001 330.734,-52 320.734,-48.5001 320.734,-55.5001"/>
</g>
<!-- Node6 -->
<g id="node11" class="node"><title>Node6</title>
<a xlink:href="classcom_1_1google_1_1appengine_1_1codelab_1_1_util.xhtml#a95f645b216766041423363dd06815dc7" target="_top" xlink:title="com.google.appengine.codelab.Util.persistEntity">
<polygon fill="none" stroke="black" points="336.639,0.0664062 336.639,-22.0664 587.361,-22.0664 587.361,0.0664062 336.639,0.0664062"/>
<text text-anchor="middle" x="462" y="-8.06641" font-family="sans-serif" font-size="10.00">com.google.appengine.codelab.Util.persistEntity</text>
</a>
</g>
<!-- Node1&#45;&gt;Node6 -->
<g id="edge10" class="edge"><title>Node1&#45;&gt;Node6</title>
<path fill="none" stroke="midnightblue" d="M232.702,-40.9048C274.018,-35.4928 323.858,-28.9643 366.415,-23.3898"/>
<polygon fill="midnightblue" stroke="midnightblue" points="367.041,-26.8377 376.502,-22.0685 366.132,-19.897 367.041,-26.8377"/>
</g>
<!-- Node3 -->
<g id="node5" class="node"><title>Node3</title>
<a xlink:href="classcom_1_1google_1_1appengine_1_1codelab_1_1_util.xhtml#a14548b6d0d079225ae5f6596542a1c0f" target="_top" xlink:title="com.google.appengine.codelab.Util.findEntity">
<polygon fill="none" stroke="black" points="675.558,-81.9336 675.558,-104.066 912.442,-104.066 912.442,-81.9336 675.558,-81.9336"/>
<text text-anchor="middle" x="794" y="-90.0664" font-family="sans-serif" font-size="10.00">com.google.appengine.codelab.Util.findEntity</text>
</a>
</g>
<!-- Node2&#45;&gt;Node3 -->
<g id="edge4" class="edge"><title>Node2&#45;&gt;Node3</title>
<path fill="none" stroke="midnightblue" d="M594.373,-93C617.702,-93 641.967,-93 665.195,-93"/>
<polygon fill="midnightblue" stroke="midnightblue" points="665.433,-96.5001 675.433,-93 665.433,-89.5001 665.433,-96.5001"/>
</g>
<!-- Node5 -->
<g id="node9" class="node"><title>Node5</title>
<a xlink:href="classcom_1_1google_1_1appengine_1_1codelab_1_1_util.xhtml#a097d93268afc438617bd7e13f0f0f5e7" target="_top" xlink:title="com.google.appengine.codelab.Util.getDatastoreServiceInstance">
<polygon fill="none" stroke="black" points="630.331,-40.9336 630.331,-63.0664 957.669,-63.0664 957.669,-40.9336 630.331,-40.9336"/>
<text text-anchor="middle" x="794" y="-49.0664" font-family="sans-serif" font-size="10.00">com.google.appengine.codelab.Util.getDatastoreServiceInstance</text>
</a>
</g>
<!-- Node4&#45;&gt;Node5 -->
<g id="edge8" class="edge"><title>Node4&#45;&gt;Node5</title>
<path fill="none" stroke="midnightblue" d="M593.425,-52C602.195,-52 611.101,-52 620.039,-52"/>
<polygon fill="midnightblue" stroke="midnightblue" points="620.138,-55.5001 630.137,-52 620.137,-48.5001 620.138,-55.5001"/>
</g>
</g>
</svg>
        <g id="navigator" transform="translate(0 0)" fill="#404254">
                <rect fill="#f2f5e9" fill-opacity="0.5" stroke="#606060" stroke-width=".5" x="0" y="0" width="60" height="60"/>
                <use id="zoomplus" xlink:href="#zoomPlus" x="17" y="9" onmousedown="handleZoom(evt,'in')"/>
                <use id="zoomminus" xlink:href="#zoomMin" x="42" y="9" onmousedown="handleZoom(evt,'out')"/>
                <use id="reset" xlink:href="#resetDef" x="30" y="36" onmousedown="handleReset()"/>
                <g id="arrowUp" xlink:href="#dirArrow" transform="translate(30 24)" onmousedown="handlePan(0,-1)">
                  <use xlink:href="#rim" fill="#404040">
                        <set attributeName="fill" to="#808080" begin="arrowUp.mouseover" end="arrowUp.mouseout"/>
                  </use>
                  <path fill="none" stroke="white" stroke-width="1.5" d="M0,-3.0v7 M-2.5,-0.5L0,-3.0L2.5,-0.5"/>
                </g>
                <g id="arrowRight" xlink:href="#dirArrow" transform="rotate(90) translate(36 -43)" onmousedown="handlePan(1,0)">
                  <use xlink:href="#rim" fill="#404040">
                        <set attributeName="fill" to="#808080" begin="arrowRight.mouseover" end="arrowRight.mouseout"/>
                  </use>
                  <path fill="none" stroke="white" stroke-width="1.5" d="M0,-3.0v7 M-2.5,-0.5L0,-3.0L2.5,-0.5"/>
                </g>
                <g id="arrowDown" xlink:href="#dirArrow" transform="rotate(180) translate(-30 -48)" onmousedown="handlePan(0,1)">
                  <use xlink:href="#rim" fill="#404040">
                        <set attributeName="fill" to="#808080" begin="arrowDown.mouseover" end="arrowDown.mouseout"/>
                  </use>
                  <path fill="none" stroke="white" stroke-width="1.5" d="M0,-3.0v7 M-2.5,-0.5L0,-3.0L2.5,-0.5"/>
                </g>
                <g id="arrowLeft" xlink:href="#dirArrow" transform="rotate(270) translate(-36 17)" onmousedown="handlePan(-1,0)">
                  <use xlink:href="#rim" fill="#404040">
                        <set attributeName="fill" to="#808080" begin="arrowLeft.mouseover" end="arrowLeft.mouseout"/>
                  </use>
                  <path fill="none" stroke="white" stroke-width="1.5" d="M0,-3.0v7 M-2.5,-0.5L0,-3.0L2.5,-0.5"/>
                </g>
        </g>
        <svg viewBox="0 0 25 25" width="100%" height="30px" preserveAspectRatio="xMaxYMin meet"> 
          <g id="printButton" transform="scale(0.4 0.4)" onmousedown="handlePrint(evt)">
            <rect height="23.33753581" id="paper" rx="2" style="fill:#f2f5e9;fill-rule:evenodd;stroke:#111111;stroke-width:3.224;stroke-linejoin:round;" transform="matrix(1.000000,0.000000,-0.339266,0.940691,0.000000,0.000000)" width="25.55231285" x="26.69387353" y="7.36162977"/>
            <rect height="26.272097" id="body" rx="2" style="fill:#404040;fill-rule:evenodd;stroke:#111111;stroke-width:3.125;stroke-linejoin:round;" width="50" x="4.5295201" y="27.078951"/>
            <rect height="8.27750969" id="tray" style="fill:#d2d5c9;fill-rule:evenodd;stroke:#111111;stroke-width:3.125;stroke-linecap:round;stroke-linejoin:round;" width="40" x="10.28778839" y="44.96812282"/>
          </g>
        </svg>
</svg>
