<?xml version="1.0" encoding="UTF-8" standalone="no"?>
<!DOCTYPE svg PUBLIC "-//W3C//DTD SVG 1.1//EN"
 "http://www.w3.org/Graphics/SVG/1.1/DTD/svg11.dtd">
<!-- Generated by graphviz version 2.28.0 (20111028.1807)
 -->
<!-- Title: G Pages: 1 -->
<!--zoomable 359 -->
<svg id="main" version="1.1" xmlns="http://www.w3.org/2000/svg" xmlns:xlink="http://www.w3.org/1999/xlink" xml:space="preserve" onload="init(evt)">
        <defs>
                <circle id="rim" cx="0" cy="0" r="7"/>
                <circle id="rim2" cx="0" cy="0" r="3.5"/>
                <g id="zoomPlus">
                        <use xlink:href="#rim" fill="#404040">
                                <set attributeName="fill" to="#808080" begin="zoomplus.mouseover" end="zoomplus.mouseout"/>
                        </use>
                        <path d="M-4,0h8M0,-4v8" fill="none" stroke="white" stroke-width="1.5" pointer-events="none"/>
                </g>
                <g id="zoomMin">
                        <use xlink:href="#rim" fill="#404040">
                                <set attributeName="fill" to="#808080" begin="zoomminus.mouseover" end="zoomminus.mouseout"/>
                        </use>
                        <path d="M-4,0h8" fill="none" stroke="white" stroke-width="1.5" pointer-events="none"/>
                </g>
                <g id="dirArrow">
                        <path fill="none" stroke="white" stroke-width="1.5" d="M0,-3.0v7 M-2.5,-0.5L0,-3.0L2.5,-0.5"/>
                </g>
               <g id="resetDef">
                       <use xlink:href="#rim2" fill="#404040">
                               <set attributeName="fill" to="#808080" begin="reset.mouseover" end="reset.mouseout"/>
                       </use>
               </g>
        </defs>

<script type="text/javascript">
var viewWidth = 986;
var viewHeight = 359;
var sectionId = 'dynsection-10';
</script>
<script xlink:href="svgpan.js"/>
<svg id="graph" class="graph">
<g id="viewport">
<title>G</title>
<!-- Node1 -->
<g id="node1" class="node"><title>Node1</title>
<polygon fill="#bfbfbf" stroke="black" points="0.0214844,-123.934 0.0214844,-146.066 231.979,-146.066 231.979,-123.934 0.0214844,-123.934"/>
<text text-anchor="middle" x="116" y="-132.066" font-family="sans-serif" font-size="10.00">csc440.nuf.complay.PlayerActivity.playPause</text>
</g>
<!-- Node2 -->
<g id="node3" class="node"><title>Node2</title>
<a xlink:href="classcsc440_1_1nuf_1_1complay_1_1_player_canvas.xhtml#a64eae2e9ed26456ab5b104436c97d78f" target="_top" xlink:title="csc440.nuf.complay.PlayerCanvas.setTime">
<polygon fill="none" stroke="black" points="268.305,-164.934 268.305,-187.066 489.695,-187.066 489.695,-164.934 268.305,-164.934"/>
<text text-anchor="middle" x="379" y="-173.066" font-family="sans-serif" font-size="10.00">csc440.nuf.complay.PlayerCanvas.setTime</text>
</a>
</g>
<!-- Node1&#45;&gt;Node2 -->
<g id="edge2" class="edge"><title>Node1&#45;&gt;Node2</title>
<path fill="none" stroke="midnightblue" d="M187.63,-146.095C221.432,-151.405 262.076,-157.79 297.113,-163.294"/>
<polygon fill="midnightblue" stroke="midnightblue" points="296.891,-166.802 307.313,-164.896 297.978,-159.886 296.891,-166.802"/>
</g>
<!-- Node13 -->
<g id="node25" class="node"><title>Node13</title>
<a xlink:href="classcsc440_1_1nuf_1_1complay_1_1_player_canvas.xhtml#a1d41cf44dc0cb2c075744299c9867903" target="_top" xlink:title="csc440.nuf.complay.PlayerCanvas.play">
<polygon fill="none" stroke="black" points="277.604,-123.934 277.604,-146.066 480.396,-146.066 480.396,-123.934 277.604,-123.934"/>
<text text-anchor="middle" x="379" y="-132.066" font-family="sans-serif" font-size="10.00">csc440.nuf.complay.PlayerCanvas.play</text>
</a>
</g>
<!-- Node1&#45;&gt;Node13 -->
<g id="edge24" class="edge"><title>Node1&#45;&gt;Node13</title>
<path fill="none" stroke="midnightblue" d="M232.238,-135C243.856,-135 255.638,-135 267.208,-135"/>
<polygon fill="midnightblue" stroke="midnightblue" points="267.312,-138.5 277.312,-135 267.312,-131.5 267.312,-138.5"/>
</g>
<!-- Node14 -->
<g id="node27" class="node"><title>Node14</title>
<a xlink:href="classcsc440_1_1nuf_1_1complay_1_1_player_canvas.xhtml#ab280f6a822b63f5aa82300ebdec8dccf" target="_top" xlink:title="csc440.nuf.complay.PlayerCanvas.pause">
<polygon fill="none" stroke="black" points="273.224,-82.9336 273.224,-105.066 484.776,-105.066 484.776,-82.9336 273.224,-82.9336"/>
<text text-anchor="middle" x="379" y="-91.0664" font-family="sans-serif" font-size="10.00">csc440.nuf.complay.PlayerCanvas.pause</text>
</a>
</g>
<!-- Node1&#45;&gt;Node14 -->
<g id="edge26" class="edge"><title>Node1&#45;&gt;Node14</title>
<path fill="none" stroke="midnightblue" d="M187.63,-123.905C221.432,-118.595 262.076,-112.21 297.113,-106.706"/>
<polygon fill="midnightblue" stroke="midnightblue" points="297.978,-110.114 307.313,-105.104 296.891,-103.198 297.978,-110.114"/>
</g>
<!-- Node3 -->
<g id="node5" class="node"><title>Node3</title>
<a xlink:href="classcsc440_1_1nuf_1_1complay_1_1_timer.xhtml#aebbe2beb25856951b72d866d783ce897" target="_top" xlink:title="csc440.nuf.complay.Timer.setTime">
<polygon fill="none" stroke="black" points="525.834,-164.934 525.834,-187.066 712.166,-187.066 712.166,-164.934 525.834,-164.934"/>
<text text-anchor="middle" x="619" y="-173.066" font-family="sans-serif" font-size="10.00">csc440.nuf.complay.Timer.setTime</text>
</a>
</g>
<!-- Node2&#45;&gt;Node3 -->
<g id="edge4" class="edge"><title>Node2&#45;&gt;Node3</title>
<path fill="none" stroke="midnightblue" d="M489.943,-176C498.429,-176 506.977,-176 515.412,-176"/>
<polygon fill="midnightblue" stroke="midnightblue" points="515.634,-179.5 525.634,-176 515.634,-172.5 515.634,-179.5"/>
</g>
<!-- Node4 -->
<g id="node7" class="node"><title>Node4</title>
<a xlink:href="classcsc440_1_1nuf_1_1complay_1_1_on_screen.xhtml#a33feeb951e6558b0f50251e713a5a230" target="_top" xlink:title="csc440.nuf.complay.OnScreen.Q">
<polygon fill="none" stroke="black" points="776.36,-328.934 776.36,-351.066 949.64,-351.066 949.64,-328.934 776.36,-328.934"/>
<text text-anchor="middle" x="863" y="-337.066" font-family="sans-serif" font-size="10.00">csc440.nuf.complay.OnScreen.Q</text>
</a>
</g>
<!-- Node3&#45;&gt;Node4 -->
<g id="edge6" class="edge"><title>Node3&#45;&gt;Node4</title>
<path fill="none" stroke="midnightblue" d="M626.361,-187.186C642.639,-214.679 688.726,-285.733 748,-319 753.837,-322.276 760.081,-325.055 766.528,-327.411"/>
<polygon fill="midnightblue" stroke="midnightblue" points="765.502,-330.758 776.096,-330.569 767.697,-324.111 765.502,-330.758"/>
</g>
<!-- Node5 -->
<g id="node9" class="node"><title>Node5</title>
<a xlink:href="classcsc440_1_1nuf_1_1complay_1_1_q.xhtml#a6c333b08908191e022f23b68989c263a" target="_top" xlink:title="csc440.nuf.complay.Q.isEmpty">
<polygon fill="none" stroke="black" points="780.32,-287.934 780.32,-310.066 945.68,-310.066 945.68,-287.934 780.32,-287.934"/>
<text text-anchor="middle" x="863" y="-296.066" font-family="sans-serif" font-size="10.00">csc440.nuf.complay.Q.isEmpty</text>
</a>
</g>
<!-- Node3&#45;&gt;Node5 -->
<g id="edge8" class="edge"><title>Node3&#45;&gt;Node5</title>
<path fill="none" stroke="midnightblue" d="M630.373,-187.361C650.685,-208.835 698.094,-255.263 748,-278 755.082,-281.227 762.626,-283.958 770.331,-286.269"/>
<polygon fill="midnightblue" stroke="midnightblue" points="769.582,-289.693 780.153,-288.978 771.444,-282.945 769.582,-289.693"/>
</g>
<!-- Node6 -->
<g id="node11" class="node"><title>Node6</title>
<a xlink:href="classcsc440_1_1nuf_1_1complay_1_1_q.xhtml#a1909fe89eabfc73398d99c7dc4c9b946" target="_top" xlink:title="csc440.nuf.complay.Q.peek">
<polygon fill="none" stroke="black" points="787.681,-246.934 787.681,-269.066 938.319,-269.066 938.319,-246.934 787.681,-246.934"/>
<text text-anchor="middle" x="863" y="-255.066" font-family="sans-serif" font-size="10.00">csc440.nuf.complay.Q.peek</text>
</a>
</g>
<!-- Node3&#45;&gt;Node6 -->
<g id="edge10" class="edge"><title>Node3&#45;&gt;Node6</title>
<path fill="none" stroke="midnightblue" d="M639.29,-187.176C663.786,-200.896 707.722,-223.945 748,-237 757.405,-240.048 767.398,-242.7 777.407,-244.995"/>
<polygon fill="midnightblue" stroke="midnightblue" points="776.885,-248.463 787.401,-247.173 778.375,-241.624 776.885,-248.463"/>
</g>
<!-- Node7 -->
<g id="node13" class="node"><title>Node7</title>
<a xlink:href="classcsc440_1_1nuf_1_1complay_1_1_off_screen.xhtml#ab94d06e82ef902255257e6ca5b635a56" target="_top" xlink:title="csc440.nuf.complay.OffScreen.Q">
<polygon fill="none" stroke="black" points="775.94,-205.934 775.94,-228.066 950.06,-228.066 950.06,-205.934 775.94,-205.934"/>
<text text-anchor="middle" x="863" y="-214.066" font-family="sans-serif" font-size="10.00">csc440.nuf.complay.OffScreen.Q</text>
</a>
</g>
<!-- Node3&#45;&gt;Node7 -->
<g id="edge12" class="edge"><title>Node3&#45;&gt;Node7</title>
<path fill="none" stroke="midnightblue" d="M685.489,-187.095C716.695,-192.382 754.191,-198.735 786.583,-204.223"/>
<polygon fill="midnightblue" stroke="midnightblue" points="786.015,-207.676 796.459,-205.896 787.184,-200.775 786.015,-207.676"/>
</g>
<!-- Node8 -->
<g id="node15" class="node"><title>Node8</title>
<a xlink:href="classcsc440_1_1nuf_1_1complay_1_1_q.xhtml#aaa9e1371272a3d71932a7b753155741b" target="_top" xlink:title="csc440.nuf.complay.Q.push">
<polygon fill="none" stroke="black" points="787.419,-164.934 787.419,-187.066 938.581,-187.066 938.581,-164.934 787.419,-164.934"/>
<text text-anchor="middle" x="863" y="-173.066" font-family="sans-serif" font-size="10.00">csc440.nuf.complay.Q.push</text>
</a>
</g>
<!-- Node3&#45;&gt;Node8 -->
<g id="edge14" class="edge"><title>Node3&#45;&gt;Node8</title>
<path fill="none" stroke="midnightblue" d="M712.18,-176C733.531,-176 756.153,-176 777.171,-176"/>
<polygon fill="midnightblue" stroke="midnightblue" points="777.348,-179.5 787.348,-176 777.348,-172.5 777.348,-179.5"/>
</g>
<!-- Node9 -->
<g id="node17" class="node"><title>Node9</title>
<a xlink:href="classcsc440_1_1nuf_1_1complay_1_1_waiting.xhtml#aaa8d6d536f680a183de75424e4d95627" target="_top" xlink:title="csc440.nuf.complay.Waiting.Q">
<polygon fill="none" stroke="black" points="781.301,-123.934 781.301,-146.066 944.699,-146.066 944.699,-123.934 781.301,-123.934"/>
<text text-anchor="middle" x="863" y="-132.066" font-family="sans-serif" font-size="10.00">csc440.nuf.complay.Waiting.Q</text>
</a>
</g>
<!-- Node3&#45;&gt;Node9 -->
<g id="edge16" class="edge"><title>Node3&#45;&gt;Node9</title>
<path fill="none" stroke="midnightblue" d="M685.489,-164.905C716.695,-159.618 754.191,-153.265 786.583,-147.777"/>
<polygon fill="midnightblue" stroke="midnightblue" points="787.184,-151.225 796.459,-146.104 786.015,-144.324 787.184,-151.225"/>
</g>
<!-- Node10 -->
<g id="node19" class="node"><title>Node10</title>
<a xlink:href="classcsc440_1_1nuf_1_1complay_1_1_q.xhtml#af768e2d386701d7d3ee1078e08a21422" target="_top" xlink:title="csc440.nuf.complay.Q.pop">
<polygon fill="none" stroke="black" points="789.956,-82.9336 789.956,-105.066 936.044,-105.066 936.044,-82.9336 789.956,-82.9336"/>
<text text-anchor="middle" x="863" y="-91.0664" font-family="sans-serif" font-size="10.00">csc440.nuf.complay.Q.pop</text>
</a>
</g>
<!-- Node3&#45;&gt;Node10 -->
<g id="edge18" class="edge"><title>Node3&#45;&gt;Node10</title>
<path fill="none" stroke="midnightblue" d="M638.821,-164.814C663.186,-150.827 707.35,-127.128 748,-114 758.175,-110.714 769.045,-107.93 779.882,-105.581"/>
<polygon fill="midnightblue" stroke="midnightblue" points="780.712,-108.984 789.804,-103.545 779.305,-102.127 780.712,-108.984"/>
</g>
<!-- Node11 -->
<g id="node21" class="node"><title>Node11</title>
<a xlink:href="classcsc440_1_1nuf_1_1complay_1_1_q.xhtml#aa873b2a8f7d338e917b5db7af678a55d" target="_top" xlink:title="csc440.nuf.complay.Q.sortByEndTimeASC">
<polygon fill="none" stroke="black" points="753.674,-41.9336 753.674,-64.0664 972.326,-64.0664 972.326,-41.9336 753.674,-41.9336"/>
<text text-anchor="middle" x="863" y="-50.0664" font-family="sans-serif" font-size="10.00">csc440.nuf.complay.Q.sortByEndTimeASC</text>
</a>
</g>
<!-- Node3&#45;&gt;Node11 -->
<g id="edge20" class="edge"><title>Node3&#45;&gt;Node11</title>
<path fill="none" stroke="midnightblue" d="M630.019,-164.822C650.08,-143.218 697.602,-95.8479 748,-73 752.918,-70.7703 758.061,-68.7883 763.325,-67.0266"/>
<polygon fill="midnightblue" stroke="midnightblue" points="764.377,-70.3649 772.912,-64.0875 762.325,-63.6724 764.377,-70.3649"/>
</g>
<!-- Node12 -->
<g id="node23" class="node"><title>Node12</title>
<a xlink:href="classcsc440_1_1nuf_1_1complay_1_1_q.xhtml#a935d3fbb201ad281bfc122c616335413" target="_top" xlink:title="csc440.nuf.complay.Q.sortByStartTimeDESC">
<polygon fill="none" stroke="black" points="748.389,-0.933594 748.389,-23.0664 977.611,-23.0664 977.611,-0.933594 748.389,-0.933594"/>
<text text-anchor="middle" x="863" y="-9.06641" font-family="sans-serif" font-size="10.00">csc440.nuf.complay.Q.sortByStartTimeDESC</text>
</a>
</g>
<!-- Node3&#45;&gt;Node12 -->
<g id="edge22" class="edge"><title>Node3&#45;&gt;Node12</title>
<path fill="none" stroke="midnightblue" d="M626.322,-164.705C642.511,-136.948 688.411,-65.2463 748,-32 751.455,-30.0725 755.052,-28.3232 758.75,-26.7361"/>
<polygon fill="midnightblue" stroke="midnightblue" points="760.057,-29.9833 768.125,-23.1159 757.536,-23.4533 760.057,-29.9833"/>
</g>
</g>
</svg>
        <g id="navigator" transform="translate(0 0)" fill="#404254">
                <rect fill="#f2f5e9" fill-opacity="0.5" stroke="#606060" stroke-width=".5" x="0" y="0" width="60" height="60"/>
                <use id="zoomplus" xlink:href="#zoomPlus" x="17" y="9" onmousedown="handleZoom(evt,'in')"/>
                <use id="zoomminus" xlink:href="#zoomMin" x="42" y="9" onmousedown="handleZoom(evt,'out')"/>
                <use id="reset" xlink:href="#resetDef" x="30" y="36" onmousedown="handleReset()"/>
                <g id="arrowUp" xlink:href="#dirArrow" transform="translate(30 24)" onmousedown="handlePan(0,-1)">
                  <use xlink:href="#rim" fill="#404040">
                        <set attributeName="fill" to="#808080" begin="arrowUp.mouseover" end="arrowUp.mouseout"/>
                  </use>
                  <path fill="none" stroke="white" stroke-width="1.5" d="M0,-3.0v7 M-2.5,-0.5L0,-3.0L2.5,-0.5"/>
                </g>
                <g id="arrowRight" xlink:href="#dirArrow" transform="rotate(90) translate(36 -43)" onmousedown="handlePan(1,0)">
                  <use xlink:href="#rim" fill="#404040">
                        <set attributeName="fill" to="#808080" begin="arrowRight.mouseover" end="arrowRight.mouseout"/>
                  </use>
                  <path fill="none" stroke="white" stroke-width="1.5" d="M0,-3.0v7 M-2.5,-0.5L0,-3.0L2.5,-0.5"/>
                </g>
                <g id="arrowDown" xlink:href="#dirArrow" transform="rotate(180) translate(-30 -48)" onmousedown="handlePan(0,1)">
                  <use xlink:href="#rim" fill="#404040">
                        <set attributeName="fill" to="#808080" begin="arrowDown.mouseover" end="arrowDown.mouseout"/>
                  </use>
                  <path fill="none" stroke="white" stroke-width="1.5" d="M0,-3.0v7 M-2.5,-0.5L0,-3.0L2.5,-0.5"/>
                </g>
                <g id="arrowLeft" xlink:href="#dirArrow" transform="rotate(270) translate(-36 17)" onmousedown="handlePan(-1,0)">
                  <use xlink:href="#rim" fill="#404040">
                        <set attributeName="fill" to="#808080" begin="arrowLeft.mouseover" end="arrowLeft.mouseout"/>
                  </use>
                  <path fill="none" stroke="white" stroke-width="1.5" d="M0,-3.0v7 M-2.5,-0.5L0,-3.0L2.5,-0.5"/>
                </g>
        </g>
        <svg viewBox="0 0 25 25" width="100%" height="30px" preserveAspectRatio="xMaxYMin meet"> 
          <g id="printButton" transform="scale(0.4 0.4)" onmousedown="handlePrint(evt)">
            <rect height="23.33753581" id="paper" rx="2" style="fill:#f2f5e9;fill-rule:evenodd;stroke:#111111;stroke-width:3.224;stroke-linejoin:round;" transform="matrix(1.000000,0.000000,-0.339266,0.940691,0.000000,0.000000)" width="25.55231285" x="26.69387353" y="7.36162977"/>
            <rect height="26.272097" id="body" rx="2" style="fill:#404040;fill-rule:evenodd;stroke:#111111;stroke-width:3.125;stroke-linejoin:round;" width="50" x="4.5295201" y="27.078951"/>
            <rect height="8.27750969" id="tray" style="fill:#d2d5c9;fill-rule:evenodd;stroke:#111111;stroke-width:3.125;stroke-linecap:round;stroke-linejoin:round;" width="40" x="10.28778839" y="44.96812282"/>
          </g>
        </svg>
</svg>
