<?xml version="1.0" encoding="UTF-8" standalone="no"?>
<!DOCTYPE svg PUBLIC "-//W3C//DTD SVG 1.1//EN"
 "http://www.w3.org/Graphics/SVG/1.1/DTD/svg11.dtd">
<!-- Generated by graphviz version 2.28.0 (20111028.1807)
 -->
<!-- Title: G Pages: 1 -->
<svg width="266pt" height="180pt"
 viewBox="0.00 0.00 266.00 180.00" xmlns="http://www.w3.org/2000/svg" xmlns:xlink="http://www.w3.org/1999/xlink">
<g id="graph1" class="graph" transform="scale(1 1) rotate(0) translate(4 176)">
<title>G</title>
<!-- Node1 -->
<g id="node1" class="node"><title>Node1</title>
<polygon fill="#bfbfbf" stroke="black" points="-0.0986328,-0.800781 -0.0986328,-67.1992 258.099,-67.1992 258.099,-0.800781 -0.0986328,-0.800781"/>
<text text-anchor="middle" x="129" y="-53.1992" font-family="sans-serif" font-size="10.00">com.thira.examples.actionbar.CustomTitleActivity</text>
<polyline fill="none" stroke="black" points="-0.0986328,-45.0664 258.099,-45.0664 "/>
<text text-anchor="middle" x="129" y="-31.0664" font-family="sans-serif" font-size="10.00"> </text>
<polyline fill="none" stroke="black" points="-0.0986328,-22.9336 258.099,-22.9336 "/>
<text text-anchor="start" x="7.90137" y="-8.93359" font-family="sans-serif" font-size="10.00"># onCreate()</text>
</g>
<!-- Node2 -->
<g id="node2" class="node"><title>Node2</title>
<polygon fill="none" stroke="#bfbfbf" points="103.158,-104.801 103.158,-171.199 154.842,-171.199 154.842,-104.801 103.158,-104.801"/>
<text text-anchor="middle" x="129" y="-157.199" font-family="sans-serif" font-size="10.00">Activity</text>
<polyline fill="none" stroke="#bfbfbf" points="103.158,-149.066 154.842,-149.066 "/>
<text text-anchor="middle" x="129" y="-135.066" font-family="sans-serif" font-size="10.00"> </text>
<polyline fill="none" stroke="#bfbfbf" points="103.158,-126.934 154.842,-126.934 "/>
<text text-anchor="middle" x="129" y="-112.934" font-family="sans-serif" font-size="10.00"> </text>
</g>
<!-- Node2&#45;&gt;Node1 -->
<g id="edge2" class="edge"><title>Node2&#45;&gt;Node1</title>
<path fill="none" stroke="midnightblue" d="M129,-94.6693C129,-85.5613 129,-76.0733 129,-67.4136"/>
<polygon fill="none" stroke="midnightblue" points="125.5,-94.7265 129,-104.727 132.5,-94.7266 125.5,-94.7265"/>
</g>
</g>
</svg>
