<?xml version="1.0" encoding="UTF-8" standalone="no"?>
<!DOCTYPE svg PUBLIC "-//W3C//DTD SVG 1.1//EN"
 "http://www.w3.org/Graphics/SVG/1.1/DTD/svg11.dtd">
<!-- Generated by graphviz version 2.28.0 (20111028.1807)
 -->
<!-- Title: G Pages: 1 -->
<svg width="150pt" height="236pt"
 viewBox="0.00 0.00 150.00 236.00" xmlns="http://www.w3.org/2000/svg" xmlns:xlink="http://www.w3.org/1999/xlink">
<g id="graph1" class="graph" transform="scale(1 1) rotate(0) translate(4 232)">
<title>G</title>
<!-- Node1 -->
<g id="node1" class="node"><title>Node1</title>
<polygon fill="#bfbfbf" stroke="black" points="-0.195801,-0.535156 -0.195801,-123.465 142.196,-123.465 142.196,-0.535156 -0.195801,-0.535156"/>
<text text-anchor="middle" x="71" y="-109.465" font-family="sans-serif" font-size="10.00">csc440.nuf.C2DMReceiver</text>
<polyline fill="none" stroke="black" points="-0.195801,-101.332 142.196,-101.332 "/>
<text text-anchor="middle" x="71" y="-87.332" font-family="sans-serif" font-size="10.00"> </text>
<polyline fill="none" stroke="black" points="-0.195801,-79.1992 142.196,-79.1992 "/>
<text text-anchor="start" x="7.8042" y="-65.1992" font-family="sans-serif" font-size="10.00">+ C2DMReceiver()</text>
<text text-anchor="start" x="7.8042" y="-51.0664" font-family="sans-serif" font-size="10.00">+ onRegistered()</text>
<text text-anchor="start" x="7.8042" y="-36.9336" font-family="sans-serif" font-size="10.00">+ onUnregistered()</text>
<text text-anchor="start" x="7.8042" y="-22.8008" font-family="sans-serif" font-size="10.00">+ onError()</text>
<text text-anchor="start" x="7.8042" y="-8.66797" font-family="sans-serif" font-size="10.00">+ onMessage()</text>
</g>
<!-- Node2 -->
<g id="node2" class="node"><title>Node2</title>
<polygon fill="none" stroke="#bfbfbf" points="17.1968,-160.801 17.1968,-227.199 124.803,-227.199 124.803,-160.801 17.1968,-160.801"/>
<text text-anchor="middle" x="71" y="-213.199" font-family="sans-serif" font-size="10.00">C2DMBaseReceiver</text>
<polyline fill="none" stroke="#bfbfbf" points="17.1968,-205.066 124.803,-205.066 "/>
<text text-anchor="middle" x="71" y="-191.066" font-family="sans-serif" font-size="10.00"> </text>
<polyline fill="none" stroke="#bfbfbf" points="17.1968,-182.934 124.803,-182.934 "/>
<text text-anchor="middle" x="71" y="-168.934" font-family="sans-serif" font-size="10.00"> </text>
</g>
<!-- Node2&#45;&gt;Node1 -->
<g id="edge2" class="edge"><title>Node2&#45;&gt;Node1</title>
<path fill="none" stroke="midnightblue" d="M71,-150.425C71,-141.861 71,-132.705 71,-123.661"/>
<polygon fill="none" stroke="midnightblue" points="67.5001,-150.531 71,-160.531 74.5001,-150.531 67.5001,-150.531"/>
</g>
</g>
</svg>
