<?xml version="1.0" encoding="UTF-8" standalone="no"?>
<!DOCTYPE svg PUBLIC "-//W3C//DTD SVG 1.1//EN"
 "http://www.w3.org/Graphics/SVG/1.1/DTD/svg11.dtd">
<!-- Generated by graphviz version 2.28.0 (20111028.1807)
 -->
<!-- Title: G Pages: 1 -->
<!--zoomable 414 -->
<svg id="main" version="1.1" xmlns="http://www.w3.org/2000/svg" xmlns:xlink="http://www.w3.org/1999/xlink" xml:space="preserve" onload="init(evt)">
        <defs>
                <circle id="rim" cx="0" cy="0" r="7"/>
                <circle id="rim2" cx="0" cy="0" r="3.5"/>
                <g id="zoomPlus">
                        <use xlink:href="#rim" fill="#404040">
                                <set attributeName="fill" to="#808080" begin="zoomplus.mouseover" end="zoomplus.mouseout"/>
                        </use>
                        <path d="M-4,0h8M0,-4v8" fill="none" stroke="white" stroke-width="1.5" pointer-events="none"/>
                </g>
                <g id="zoomMin">
                        <use xlink:href="#rim" fill="#404040">
                                <set attributeName="fill" to="#808080" begin="zoomminus.mouseover" end="zoomminus.mouseout"/>
                        </use>
                        <path d="M-4,0h8" fill="none" stroke="white" stroke-width="1.5" pointer-events="none"/>
                </g>
                <g id="dirArrow">
                        <path fill="none" stroke="white" stroke-width="1.5" d="M0,-3.0v7 M-2.5,-0.5L0,-3.0L2.5,-0.5"/>
                </g>
               <g id="resetDef">
                       <use xlink:href="#rim2" fill="#404040">
                               <set attributeName="fill" to="#808080" begin="reset.mouseover" end="reset.mouseout"/>
                       </use>
               </g>
        </defs>

<script type="text/javascript">
var viewWidth = 1068;
var viewHeight = 414;
var sectionId = 'dynsection-3';
</script>
<script xlink:href="svgpan.js"/>
<svg id="graph" class="graph">
<g id="viewport">
<title>G</title>
<!-- Node1 -->
<g id="node1" class="node"><title>Node1</title>
<polygon fill="#bfbfbf" stroke="black" points="0.0673828,-183.934 0.0673828,-206.066 227.933,-206.066 227.933,-183.934 0.0673828,-183.934"/>
<text text-anchor="middle" x="114" y="-192.066" font-family="sans-serif" font-size="10.00">csc440.nuf.complay.PlayerActivity.onCreate</text>
</g>
<!-- Node2 -->
<g id="node3" class="node"><title>Node2</title>
<a xlink:href="classcsc440_1_1nuf_1_1complay_1_1_waiting.xhtml#aaa8d6d536f680a183de75424e4d95627" target="_top" xlink:title="csc440.nuf.complay.Waiting.Q">
<polygon fill="none" stroke="black" points="863.301,-366.934 863.301,-389.066 1026.7,-389.066 1026.7,-366.934 863.301,-366.934"/>
<text text-anchor="middle" x="945" y="-375.066" font-family="sans-serif" font-size="10.00">csc440.nuf.complay.Waiting.Q</text>
</a>
</g>
<!-- Node1&#45;&gt;Node2 -->
<g id="edge2" class="edge"><title>Node1&#45;&gt;Node2</title>
<path fill="none" stroke="midnightblue" d="M122.341,-206.345C141.538,-234.872 196.448,-309.413 264,-339 466.159,-427.541 734.981,-407.709 865.814,-390.462"/>
<polygon fill="midnightblue" stroke="midnightblue" points="866.312,-393.927 875.754,-389.122 865.376,-386.99 866.312,-393.927"/>
</g>
<!-- Node3 -->
<g id="node5" class="node"><title>Node3</title>
<a xlink:href="classcsc440_1_1nuf_1_1complay_1_1_q.xhtml#a89a196928ffab3aa6d54f6029a6c22db" target="_top" xlink:title="csc440.nuf.complay.Q.setScreenDensity">
<polygon fill="none" stroke="black" points="313.032,-163.934 313.032,-186.066 522.968,-186.066 522.968,-163.934 313.032,-163.934"/>
<text text-anchor="middle" x="418" y="-172.066" font-family="sans-serif" font-size="10.00">csc440.nuf.complay.Q.setScreenDensity</text>
</a>
</g>
<!-- Node1&#45;&gt;Node3 -->
<g id="edge4" class="edge"><title>Node1&#45;&gt;Node3</title>
<path fill="none" stroke="midnightblue" d="M228.313,-187.496C252.732,-185.879 278.556,-184.168 303.001,-182.55"/>
<polygon fill="midnightblue" stroke="midnightblue" points="303.272,-186.039 313.019,-181.886 302.81,-179.055 303.272,-186.039"/>
</g>
<!-- Node4 -->
<g id="node7" class="node"><title>Node4</title>
<a xlink:href="classcsc440_1_1nuf_1_1complay_1_1_q.xhtml#a6c333b08908191e022f23b68989c263a" target="_top" xlink:title="csc440.nuf.complay.Q.isEmpty">
<polygon fill="none" stroke="black" points="862.32,-325.934 862.32,-348.066 1027.68,-348.066 1027.68,-325.934 862.32,-325.934"/>
<text text-anchor="middle" x="945" y="-334.066" font-family="sans-serif" font-size="10.00">csc440.nuf.complay.Q.isEmpty</text>
</a>
</g>
<!-- Node1&#45;&gt;Node4 -->
<g id="edge6" class="edge"><title>Node1&#45;&gt;Node4</title>
<path fill="none" stroke="midnightblue" d="M124.806,-206.159C146.823,-230.295 203.05,-286.95 264,-309 369.324,-347.103 691.595,-344.126 851.716,-340.018"/>
<polygon fill="midnightblue" stroke="midnightblue" points="852.12,-343.508 862.025,-339.746 851.936,-336.511 852.12,-343.508"/>
</g>
<!-- Node5 -->
<g id="node9" class="node"><title>Node5</title>
<a xlink:href="classcsc440_1_1nuf_1_1complay_1_1_q.xhtml#af768e2d386701d7d3ee1078e08a21422" target="_top" xlink:title="csc440.nuf.complay.Q.pop">
<polygon fill="none" stroke="black" points="871.956,-284.934 871.956,-307.066 1018.04,-307.066 1018.04,-284.934 871.956,-284.934"/>
<text text-anchor="middle" x="945" y="-293.066" font-family="sans-serif" font-size="10.00">csc440.nuf.complay.Q.pop</text>
</a>
</g>
<!-- Node1&#45;&gt;Node5 -->
<g id="edge8" class="edge"><title>Node1&#45;&gt;Node5</title>
<path fill="none" stroke="midnightblue" d="M130.08,-206.205C155.907,-224.653 210.966,-260.789 264,-275 473.245,-331.069 731.7,-317.577 861.452,-305.417"/>
<polygon fill="midnightblue" stroke="midnightblue" points="862.087,-308.872 871.707,-304.433 861.418,-301.904 862.087,-308.872"/>
</g>
<!-- Node6 -->
<g id="node11" class="node"><title>Node6</title>
<a xlink:href="classcsc440_1_1nuf_1_1complay_1_1_q.xhtml#aaa9e1371272a3d71932a7b753155741b" target="_top" xlink:title="csc440.nuf.complay.Q.push">
<polygon fill="none" stroke="black" points="869.419,-38.9336 869.419,-61.0664 1020.58,-61.0664 1020.58,-38.9336 869.419,-38.9336"/>
<text text-anchor="middle" x="945" y="-47.0664" font-family="sans-serif" font-size="10.00">csc440.nuf.complay.Q.push</text>
</a>
</g>
<!-- Node1&#45;&gt;Node6 -->
<g id="edge10" class="edge"><title>Node1&#45;&gt;Node6</title>
<path fill="none" stroke="midnightblue" d="M198.816,-206.1C291.441,-215.817 444.405,-224.282 572,-195 696.188,-166.5 708.752,-109.163 830,-70 839.393,-66.966 849.379,-64.3599 859.385,-62.1293"/>
<polygon fill="midnightblue" stroke="midnightblue" points="860.314,-65.5105 869.376,-60.0219 858.869,-58.6613 860.314,-65.5105"/>
</g>
<!-- Node7 -->
<g id="node13" class="node"><title>Node7</title>
<a xlink:href="classcsc440_1_1nuf_1_1complay_1_1_q.xhtml#a819204376514251f5ca8edc5245b950b" target="_top" xlink:title="csc440.nuf.complay.Q.prepQ">
<polygon fill="none" stroke="black" points="339.312,-122.934 339.312,-145.066 496.688,-145.066 496.688,-122.934 339.312,-122.934"/>
<text text-anchor="middle" x="418" y="-131.066" font-family="sans-serif" font-size="10.00">csc440.nuf.complay.Q.prepQ</text>
</a>
</g>
<!-- Node1&#45;&gt;Node7 -->
<g id="edge12" class="edge"><title>Node1&#45;&gt;Node7</title>
<path fill="none" stroke="midnightblue" d="M149.893,-183.922C179.881,-174.758 224.42,-161.992 264,-154 284.968,-149.766 307.742,-146.227 329.155,-143.362"/>
<polygon fill="midnightblue" stroke="midnightblue" points="329.75,-146.814 339.213,-142.052 328.845,-139.873 329.75,-146.814"/>
</g>
<!-- Node8 -->
<g id="node15" class="node"><title>Node8</title>
<a xlink:href="classcsc440_1_1nuf_1_1complay_1_1_q.xhtml#a71e507602b30ba7ca249efedf6ddabad" target="_top" xlink:title="csc440.nuf.complay.Q.getMessageLength">
<polygon fill="none" stroke="black" points="309.048,-81.9336 309.048,-104.066 526.952,-104.066 526.952,-81.9336 309.048,-81.9336"/>
<text text-anchor="middle" x="418" y="-90.0664" font-family="sans-serif" font-size="10.00">csc440.nuf.complay.Q.getMessageLength</text>
</a>
</g>
<!-- Node1&#45;&gt;Node8 -->
<g id="edge14" class="edge"><title>Node1&#45;&gt;Node8</title>
<path fill="none" stroke="midnightblue" d="M130.622,-183.795C156.802,-165.636 211.809,-130.095 264,-113 275.138,-109.352 286.937,-106.366 298.847,-103.924"/>
<polygon fill="midnightblue" stroke="midnightblue" points="299.706,-107.323 308.865,-101.997 298.384,-100.449 299.706,-107.323"/>
</g>
<!-- Node9 -->
<g id="node17" class="node"><title>Node9</title>
<a xlink:href="classcsc440_1_1nuf_1_1complay_1_1_player_canvas.xhtml#ab0dcca93b23d621e1d3d353ecd95a215" target="_top" xlink:title="csc440.nuf.complay.PlayerCanvas.setSeekBar">
<polygon fill="none" stroke="black" points="300.496,-40.9336 300.496,-63.0664 535.504,-63.0664 535.504,-40.9336 300.496,-40.9336"/>
<text text-anchor="middle" x="418" y="-49.0664" font-family="sans-serif" font-size="10.00">csc440.nuf.complay.PlayerCanvas.setSeekBar</text>
</a>
</g>
<!-- Node1&#45;&gt;Node9 -->
<g id="edge16" class="edge"><title>Node1&#45;&gt;Node9</title>
<path fill="none" stroke="midnightblue" d="M124.438,-183.757C146.14,-158.774 202.474,-98.7439 264,-72 272.39,-68.3532 281.263,-65.3235 290.343,-62.8111"/>
<polygon fill="midnightblue" stroke="midnightblue" points="291.437,-66.1443 300.263,-60.2832 289.708,-59.3611 291.437,-66.1443"/>
</g>
<!-- Node10 -->
<g id="node19" class="node"><title>Node10</title>
<a xlink:href="classcsc440_1_1nuf_1_1complay_1_1_player_activity.xhtml#a2c26eb31e540ba1a1c22a029d1669741" target="_top" xlink:title="csc440.nuf.complay.PlayerActivity.formatSecondsToMinutes">
<polygon fill="none" stroke="black" points="264.39,0.0664062 264.39,-22.0664 571.61,-22.0664 571.61,0.0664062 264.39,0.0664062"/>
<text text-anchor="middle" x="418" y="-8.06641" font-family="sans-serif" font-size="10.00">csc440.nuf.complay.PlayerActivity.formatSecondsToMinutes</text>
</a>
</g>
<!-- Node1&#45;&gt;Node10 -->
<g id="edge18" class="edge"><title>Node1&#45;&gt;Node10</title>
<path fill="none" stroke="midnightblue" d="M121.271,-183.774C139.045,-153.165 193.088,-68.0649 264,-31 267.57,-29.1338 271.249,-27.4178 275.012,-25.8409"/>
<polygon fill="midnightblue" stroke="midnightblue" points="276.433,-29.0444 284.522,-22.201 273.931,-22.5069 276.433,-29.0444"/>
</g>
<!-- Node11 -->
<g id="node21" class="node"><title>Node11</title>
<a xlink:href="classcsc440_1_1nuf_1_1complay_1_1_player_canvas.xhtml#a64eae2e9ed26456ab5b104436c97d78f" target="_top" xlink:title="csc440.nuf.complay.PlayerCanvas.setTime">
<polygon fill="none" stroke="black" points="307.305,-243.934 307.305,-266.066 528.695,-266.066 528.695,-243.934 307.305,-243.934"/>
<text text-anchor="middle" x="418" y="-252.066" font-family="sans-serif" font-size="10.00">csc440.nuf.complay.PlayerCanvas.setTime</text>
</a>
</g>
<!-- Node1&#45;&gt;Node11 -->
<g id="edge20" class="edge"><title>Node1&#45;&gt;Node11</title>
<path fill="none" stroke="midnightblue" d="M160.507,-206.08C189.939,-213.074 229.129,-222.064 264,-229 287.585,-233.691 313.321,-238.271 336.842,-242.248"/>
<polygon fill="midnightblue" stroke="midnightblue" points="336.333,-245.711 346.774,-243.914 337.491,-238.808 336.333,-245.711"/>
</g>
<!-- Node12 -->
<g id="node23" class="node"><title>Node12</title>
<a xlink:href="classcsc440_1_1nuf_1_1complay_1_1_timer.xhtml#aebbe2beb25856951b72d866d783ce897" target="_top" xlink:title="csc440.nuf.complay.Timer.setTime">
<polygon fill="none" stroke="black" points="607.834,-243.934 607.834,-266.066 794.166,-266.066 794.166,-243.934 607.834,-243.934"/>
<text text-anchor="middle" x="701" y="-252.066" font-family="sans-serif" font-size="10.00">csc440.nuf.complay.Timer.setTime</text>
</a>
</g>
<!-- Node11&#45;&gt;Node12 -->
<g id="edge22" class="edge"><title>Node11&#45;&gt;Node12</title>
<path fill="none" stroke="midnightblue" d="M528.849,-255C551.408,-255 575.076,-255 597.369,-255"/>
<polygon fill="midnightblue" stroke="midnightblue" points="597.506,-258.5 607.506,-255 597.506,-251.5 597.506,-258.5"/>
</g>
<!-- Node12&#45;&gt;Node2 -->
<g id="edge34" class="edge"><title>Node12&#45;&gt;Node2</title>
<path fill="none" stroke="midnightblue" d="M712.373,-266.361C732.685,-287.835 780.094,-334.263 830,-357 837.356,-360.351 845.211,-363.168 853.226,-365.536"/>
<polygon fill="midnightblue" stroke="midnightblue" points="852.492,-368.963 863.059,-368.206 854.326,-362.208 852.492,-368.963"/>
</g>
<!-- Node12&#45;&gt;Node4 -->
<g id="edge26" class="edge"><title>Node12&#45;&gt;Node4</title>
<path fill="none" stroke="midnightblue" d="M721.29,-266.176C745.786,-279.896 789.722,-302.945 830,-316 839.022,-318.924 848.586,-321.484 858.187,-323.714"/>
<polygon fill="midnightblue" stroke="midnightblue" points="857.665,-327.182 868.184,-325.919 859.173,-320.347 857.665,-327.182"/>
</g>
<!-- Node12&#45;&gt;Node5 -->
<g id="edge36" class="edge"><title>Node12&#45;&gt;Node5</title>
<path fill="none" stroke="midnightblue" d="M767.489,-266.095C798.695,-271.382 836.191,-277.735 868.583,-283.223"/>
<polygon fill="midnightblue" stroke="midnightblue" points="868.015,-286.676 878.459,-284.896 869.184,-279.775 868.015,-286.676"/>
</g>
<!-- Node12&#45;&gt;Node6 -->
<g id="edge32" class="edge"><title>Node12&#45;&gt;Node6</title>
<path fill="none" stroke="midnightblue" d="M772.383,-243.921C780.455,-240.236 787.946,-235.382 794,-229 843.864,-176.433 777.527,-119.963 830,-70 838.329,-62.0694 848.632,-56.6853 859.61,-53.1053"/>
<polygon fill="midnightblue" stroke="midnightblue" points="860.689,-56.4384 869.398,-50.4051 858.827,-49.6905 860.689,-56.4384"/>
</g>
<!-- Node13 -->
<g id="node25" class="node"><title>Node13</title>
<a xlink:href="classcsc440_1_1nuf_1_1complay_1_1_on_screen.xhtml#a33feeb951e6558b0f50251e713a5a230" target="_top" xlink:title="csc440.nuf.complay.OnScreen.Q">
<polygon fill="none" stroke="black" points="858.36,-161.934 858.36,-184.066 1031.64,-184.066 1031.64,-161.934 858.36,-161.934"/>
<text text-anchor="middle" x="945" y="-170.066" font-family="sans-serif" font-size="10.00">csc440.nuf.complay.OnScreen.Q</text>
</a>
</g>
<!-- Node12&#45;&gt;Node13 -->
<g id="edge24" class="edge"><title>Node12&#45;&gt;Node13</title>
<path fill="none" stroke="midnightblue" d="M758.834,-243.831C770.919,-240.137 783.262,-235.297 794,-229 813.518,-217.553 809.925,-203.44 830,-193 835.733,-190.019 841.824,-187.471 848.093,-185.295"/>
<polygon fill="midnightblue" stroke="midnightblue" points="849.568,-188.501 858.065,-182.172 847.476,-181.821 849.568,-188.501"/>
</g>
<!-- Node14 -->
<g id="node28" class="node"><title>Node14</title>
<a xlink:href="classcsc440_1_1nuf_1_1complay_1_1_q.xhtml#a1909fe89eabfc73398d99c7dc4c9b946" target="_top" xlink:title="csc440.nuf.complay.Q.peek">
<polygon fill="none" stroke="black" points="869.681,-120.934 869.681,-143.066 1020.32,-143.066 1020.32,-120.934 869.681,-120.934"/>
<text text-anchor="middle" x="945" y="-129.066" font-family="sans-serif" font-size="10.00">csc440.nuf.complay.Q.peek</text>
</a>
</g>
<!-- Node12&#45;&gt;Node14 -->
<g id="edge28" class="edge"><title>Node12&#45;&gt;Node14</title>
<path fill="none" stroke="midnightblue" d="M768.336,-243.773C777.629,-240.142 786.538,-235.342 794,-229 822.786,-204.535 800.007,-174.97 830,-152 838.733,-145.312 848.944,-140.57 859.601,-137.247"/>
<polygon fill="midnightblue" stroke="midnightblue" points="860.742,-140.564 869.485,-134.579 858.918,-133.806 860.742,-140.564"/>
</g>
<!-- Node15 -->
<g id="node30" class="node"><title>Node15</title>
<a xlink:href="classcsc440_1_1nuf_1_1complay_1_1_off_screen.xhtml#ab94d06e82ef902255257e6ca5b635a56" target="_top" xlink:title="csc440.nuf.complay.OffScreen.Q">
<polygon fill="none" stroke="black" points="857.94,-79.9336 857.94,-102.066 1032.06,-102.066 1032.06,-79.9336 857.94,-79.9336"/>
<text text-anchor="middle" x="945" y="-88.0664" font-family="sans-serif" font-size="10.00">csc440.nuf.complay.OffScreen.Q</text>
</a>
</g>
<!-- Node12&#45;&gt;Node15 -->
<g id="edge30" class="edge"><title>Node12&#45;&gt;Node15</title>
<path fill="none" stroke="midnightblue" d="M771.024,-243.899C779.513,-240.231 787.479,-235.388 794,-229 833.17,-190.632 788.929,-147.326 830,-111 835.484,-106.149 841.717,-102.274 848.374,-99.1952"/>
<polygon fill="midnightblue" stroke="midnightblue" points="849.697,-102.435 857.684,-95.4734 847.099,-95.9356 849.697,-102.435"/>
</g>
<!-- Node16 -->
<g id="node35" class="node"><title>Node16</title>
<a xlink:href="classcsc440_1_1nuf_1_1complay_1_1_q.xhtml#aa873b2a8f7d338e917b5db7af678a55d" target="_top" xlink:title="csc440.nuf.complay.Q.sortByEndTimeASC">
<polygon fill="none" stroke="black" points="835.674,-243.934 835.674,-266.066 1054.33,-266.066 1054.33,-243.934 835.674,-243.934"/>
<text text-anchor="middle" x="945" y="-252.066" font-family="sans-serif" font-size="10.00">csc440.nuf.complay.Q.sortByEndTimeASC</text>
</a>
</g>
<!-- Node12&#45;&gt;Node16 -->
<g id="edge38" class="edge"><title>Node12&#45;&gt;Node16</title>
<path fill="none" stroke="midnightblue" d="M794.18,-255C804.404,-255 814.919,-255 825.409,-255"/>
<polygon fill="midnightblue" stroke="midnightblue" points="825.45,-258.5 835.45,-255 825.45,-251.5 825.45,-258.5"/>
</g>
<!-- Node17 -->
<g id="node37" class="node"><title>Node17</title>
<a xlink:href="classcsc440_1_1nuf_1_1complay_1_1_q.xhtml#a935d3fbb201ad281bfc122c616335413" target="_top" xlink:title="csc440.nuf.complay.Q.sortByStartTimeDESC">
<polygon fill="none" stroke="black" points="830.389,-202.934 830.389,-225.066 1059.61,-225.066 1059.61,-202.934 830.389,-202.934"/>
<text text-anchor="middle" x="945" y="-211.066" font-family="sans-serif" font-size="10.00">csc440.nuf.complay.Q.sortByStartTimeDESC</text>
</a>
</g>
<!-- Node12&#45;&gt;Node17 -->
<g id="edge40" class="edge"><title>Node12&#45;&gt;Node17</title>
<path fill="none" stroke="midnightblue" d="M767.489,-243.905C798.695,-238.618 836.191,-232.265 868.583,-226.777"/>
<polygon fill="midnightblue" stroke="midnightblue" points="869.184,-230.225 878.459,-225.104 868.015,-223.324 869.184,-230.225"/>
</g>
</g>
</svg>
        <g id="navigator" transform="translate(0 0)" fill="#404254">
                <rect fill="#f2f5e9" fill-opacity="0.5" stroke="#606060" stroke-width=".5" x="0" y="0" width="60" height="60"/>
                <use id="zoomplus" xlink:href="#zoomPlus" x="17" y="9" onmousedown="handleZoom(evt,'in')"/>
                <use id="zoomminus" xlink:href="#zoomMin" x="42" y="9" onmousedown="handleZoom(evt,'out')"/>
                <use id="reset" xlink:href="#resetDef" x="30" y="36" onmousedown="handleReset()"/>
                <g id="arrowUp" xlink:href="#dirArrow" transform="translate(30 24)" onmousedown="handlePan(0,-1)">
                  <use xlink:href="#rim" fill="#404040">
                        <set attributeName="fill" to="#808080" begin="arrowUp.mouseover" end="arrowUp.mouseout"/>
                  </use>
                  <path fill="none" stroke="white" stroke-width="1.5" d="M0,-3.0v7 M-2.5,-0.5L0,-3.0L2.5,-0.5"/>
                </g>
                <g id="arrowRight" xlink:href="#dirArrow" transform="rotate(90) translate(36 -43)" onmousedown="handlePan(1,0)">
                  <use xlink:href="#rim" fill="#404040">
                        <set attributeName="fill" to="#808080" begin="arrowRight.mouseover" end="arrowRight.mouseout"/>
                  </use>
                  <path fill="none" stroke="white" stroke-width="1.5" d="M0,-3.0v7 M-2.5,-0.5L0,-3.0L2.5,-0.5"/>
                </g>
                <g id="arrowDown" xlink:href="#dirArrow" transform="rotate(180) translate(-30 -48)" onmousedown="handlePan(0,1)">
                  <use xlink:href="#rim" fill="#404040">
                        <set attributeName="fill" to="#808080" begin="arrowDown.mouseover" end="arrowDown.mouseout"/>
                  </use>
                  <path fill="none" stroke="white" stroke-width="1.5" d="M0,-3.0v7 M-2.5,-0.5L0,-3.0L2.5,-0.5"/>
                </g>
                <g id="arrowLeft" xlink:href="#dirArrow" transform="rotate(270) translate(-36 17)" onmousedown="handlePan(-1,0)">
                  <use xlink:href="#rim" fill="#404040">
                        <set attributeName="fill" to="#808080" begin="arrowLeft.mouseover" end="arrowLeft.mouseout"/>
                  </use>
                  <path fill="none" stroke="white" stroke-width="1.5" d="M0,-3.0v7 M-2.5,-0.5L0,-3.0L2.5,-0.5"/>
                </g>
        </g>
        <svg viewBox="0 0 25 25" width="100%" height="30px" preserveAspectRatio="xMaxYMin meet"> 
          <g id="printButton" transform="scale(0.4 0.4)" onmousedown="handlePrint(evt)">
            <rect height="23.33753581" id="paper" rx="2" style="fill:#f2f5e9;fill-rule:evenodd;stroke:#111111;stroke-width:3.224;stroke-linejoin:round;" transform="matrix(1.000000,0.000000,-0.339266,0.940691,0.000000,0.000000)" width="25.55231285" x="26.69387353" y="7.36162977"/>
            <rect height="26.272097" id="body" rx="2" style="fill:#404040;fill-rule:evenodd;stroke:#111111;stroke-width:3.125;stroke-linejoin:round;" width="50" x="4.5295201" y="27.078951"/>
            <rect height="8.27750969" id="tray" style="fill:#d2d5c9;fill-rule:evenodd;stroke:#111111;stroke-width:3.125;stroke-linecap:round;stroke-linejoin:round;" width="40" x="10.28778839" y="44.96812282"/>
          </g>
        </svg>
</svg>
