<?xml version="1.0" encoding="UTF-8" standalone="no"?>
<!DOCTYPE svg PUBLIC "-//W3C//DTD SVG 1.1//EN"
 "http://www.w3.org/Graphics/SVG/1.1/DTD/svg11.dtd">
<!-- Generated by graphviz version 2.28.0 (20111028.1807)
 -->
<!-- Title: G Pages: 1 -->
<svg width="480pt" height="153pt"
 viewBox="0.00 0.00 480.00 153.00" xmlns="http://www.w3.org/2000/svg" xmlns:xlink="http://www.w3.org/1999/xlink">
<g id="graph1" class="graph" transform="scale(1 1) rotate(0) translate(4 149)">
<title>G</title>
<!-- Node1 -->
<g id="node1" class="node"><title>Node1</title>
<polygon fill="#bfbfbf" stroke="black" points="0.254395,-60.9336 0.254395,-83.0664 189.746,-83.0664 189.746,-60.9336 0.254395,-60.9336"/>
<text text-anchor="middle" x="95" y="-69.0664" font-family="sans-serif" font-size="10.00">csc440.nuf.server.DataStore.update</text>
</g>
<!-- Node2 -->
<g id="node3" class="node"><title>Node2</title>
<a xlink:href="classcsc440_1_1nuf_1_1server_1_1_s_m_i_l_message.xhtml#ae0bf6116cba42238cf2ddd705222021c" target="_top" xlink:title="csc440.nuf.server.SMILMessage.setId">
<polygon fill="none" stroke="black" points="250.919,-122.934 250.919,-145.066 447.081,-145.066 447.081,-122.934 250.919,-122.934"/>
<text text-anchor="middle" x="349" y="-131.066" font-family="sans-serif" font-size="10.00">csc440.nuf.server.SMILMessage.setId</text>
</a>
</g>
<!-- Node1&#45;&gt;Node2 -->
<g id="edge2" class="edge"><title>Node1&#45;&gt;Node2</title>
<path fill="none" stroke="midnightblue" d="M127.188,-83.1437C153.316,-92.1619 191.733,-104.687 226,-113 238.113,-115.938 251,-118.623 263.687,-121.019"/>
<polygon fill="midnightblue" stroke="midnightblue" points="263.333,-124.512 273.801,-122.877 264.598,-117.627 263.333,-124.512"/>
</g>
<!-- Node3 -->
<g id="node5" class="node"><title>Node3</title>
<a xlink:href="classcsc440_1_1nuf_1_1server_1_1_data_store.xhtml#aec9033c4e9624646beb5276de28bfe59" target="_top" xlink:title="csc440.nuf.server.DataStore.getUserId">
<polygon fill="none" stroke="black" points="247.863,-81.9336 247.863,-104.066 450.137,-104.066 450.137,-81.9336 247.863,-81.9336"/>
<text text-anchor="middle" x="349" y="-90.0664" font-family="sans-serif" font-size="10.00">csc440.nuf.server.DataStore.getUserId</text>
</a>
</g>
<!-- Node1&#45;&gt;Node3 -->
<g id="edge4" class="edge"><title>Node1&#45;&gt;Node3</title>
<path fill="none" stroke="midnightblue" d="M189.835,-79.8196C205.332,-81.111 221.525,-82.4604 237.387,-83.7822"/>
<polygon fill="midnightblue" stroke="midnightblue" points="237.496,-87.3034 247.752,-84.646 238.078,-80.3276 237.496,-87.3034"/>
</g>
<!-- Node4 -->
<g id="node7" class="node"><title>Node4</title>
<a xlink:href="classcsc440_1_1nuf_1_1server_1_1_s_m_i_l_message.xhtml#a839f38b917f400f15cc39046b99d7ec6" target="_top" xlink:title="csc440.nuf.server.SMILMessage.setSenderEmail">
<polygon fill="none" stroke="black" points="225.917,-40.9336 225.917,-63.0664 472.083,-63.0664 472.083,-40.9336 225.917,-40.9336"/>
<text text-anchor="middle" x="349" y="-49.0664" font-family="sans-serif" font-size="10.00">csc440.nuf.server.SMILMessage.setSenderEmail</text>
</a>
</g>
<!-- Node1&#45;&gt;Node4 -->
<g id="edge6" class="edge"><title>Node1&#45;&gt;Node4</title>
<path fill="none" stroke="midnightblue" d="M189.835,-64.5527C198.284,-63.8822 206.94,-63.1953 215.635,-62.5051"/>
<polygon fill="midnightblue" stroke="midnightblue" points="216.161,-65.9745 225.852,-61.6943 215.607,-58.9965 216.161,-65.9745"/>
</g>
<!-- Node5 -->
<g id="node9" class="node"><title>Node5</title>
<a xlink:href="classcsc440_1_1nuf_1_1server_1_1_data_store.xhtml#a3749afd0edd374001b7a29ef14495ffc" target="_top" xlink:title="csc440.nuf.server.DataStore.getUserEmail">
<polygon fill="none" stroke="black" points="239.42,0.0664062 239.42,-22.0664 458.58,-22.0664 458.58,0.0664062 239.42,0.0664062"/>
<text text-anchor="middle" x="349" y="-8.06641" font-family="sans-serif" font-size="10.00">csc440.nuf.server.DataStore.getUserEmail</text>
</a>
</g>
<!-- Node1&#45;&gt;Node5 -->
<g id="edge8" class="edge"><title>Node1&#45;&gt;Node5</title>
<path fill="none" stroke="midnightblue" d="M126.908,-60.8758C153.03,-51.8081 191.585,-39.2035 226,-31 236.9,-28.4018 248.428,-26.0316 259.875,-23.9043"/>
<polygon fill="midnightblue" stroke="midnightblue" points="260.675,-27.3166 269.895,-22.0979 259.433,-20.4277 260.675,-27.3166"/>
</g>
</g>
</svg>
