<?xml version="1.0" encoding="UTF-8" standalone="no"?>
<!DOCTYPE svg PUBLIC "-//W3C//DTD SVG 1.1//EN"
 "http://www.w3.org/Graphics/SVG/1.1/DTD/svg11.dtd">
<!-- Generated by graphviz version 2.28.0 (20111028.1807)
 -->
<!-- Title: G Pages: 1 -->
<svg width="186pt" height="264pt"
 viewBox="0.00 0.00 186.00 264.00" xmlns="http://www.w3.org/2000/svg" xmlns:xlink="http://www.w3.org/1999/xlink">
<g id="graph1" class="graph" transform="scale(1 1) rotate(0) translate(4 260)">
<title>G</title>
<!-- Node1 -->
<g id="node1" class="node"><title>Node1</title>
<polygon fill="#bfbfbf" stroke="black" points="-0.848145,-0.402344 -0.848145,-151.598 178.848,-151.598 178.848,-0.402344 -0.848145,-0.402344"/>
<text text-anchor="middle" x="89" y="-137.598" font-family="sans-serif" font-size="10.00">csc440.nuf.complay.PlayerCanvas</text>
<polyline fill="none" stroke="black" points="-0.848145,-129.465 178.848,-129.465 "/>
<text text-anchor="middle" x="89" y="-115.465" font-family="sans-serif" font-size="10.00"> </text>
<polyline fill="none" stroke="black" points="-0.848145,-107.332 178.848,-107.332 "/>
<text text-anchor="start" x="7.15186" y="-93.332" font-family="sans-serif" font-size="10.00">+ PlayerCanvas()</text>
<text text-anchor="start" x="7.15186" y="-79.1992" font-family="sans-serif" font-size="10.00">+ setSeekBar()</text>
<text text-anchor="start" x="7.15186" y="-65.0664" font-family="sans-serif" font-size="10.00">+ play()</text>
<text text-anchor="start" x="7.15186" y="-50.9336" font-family="sans-serif" font-size="10.00">+ run()</text>
<text text-anchor="start" x="7.15186" y="-36.8008" font-family="sans-serif" font-size="10.00">+ pause()</text>
<text text-anchor="start" x="7.15186" y="-22.668" font-family="sans-serif" font-size="10.00">+ setTime()</text>
<text text-anchor="start" x="7.15186" y="-8.53516" font-family="sans-serif" font-size="10.00"># onDraw()</text>
</g>
<!-- Node2 -->
<g id="node2" class="node"><title>Node2</title>
<polygon fill="none" stroke="#bfbfbf" points="51.8594,-188.801 51.8594,-255.199 126.141,-255.199 126.141,-188.801 51.8594,-188.801"/>
<text text-anchor="middle" x="89" y="-241.199" font-family="sans-serif" font-size="10.00">SurfaceView</text>
<polyline fill="none" stroke="#bfbfbf" points="51.8594,-233.066 126.141,-233.066 "/>
<text text-anchor="middle" x="89" y="-219.066" font-family="sans-serif" font-size="10.00"> </text>
<polyline fill="none" stroke="#bfbfbf" points="51.8594,-210.934 126.141,-210.934 "/>
<text text-anchor="middle" x="89" y="-196.934" font-family="sans-serif" font-size="10.00"> </text>
</g>
<!-- Node2&#45;&gt;Node1 -->
<g id="edge2" class="edge"><title>Node2&#45;&gt;Node1</title>
<path fill="none" stroke="midnightblue" d="M89,-178.428C89,-170.023 89,-160.973 89,-151.861"/>
<polygon fill="none" stroke="midnightblue" points="85.5001,-178.684 89,-188.684 92.5001,-178.684 85.5001,-178.684"/>
</g>
</g>
</svg>
