<?xml version="1.0" encoding="UTF-8" standalone="no"?>
<!DOCTYPE svg PUBLIC "-//W3C//DTD SVG 1.1//EN"
 "http://www.w3.org/Graphics/SVG/1.1/DTD/svg11.dtd">
<!-- Generated by graphviz version 2.28.0 (20111028.1807)
 -->
<!-- Title: G Pages: 1 -->
<!--zoomable 194 -->
<svg id="main" version="1.1" xmlns="http://www.w3.org/2000/svg" xmlns:xlink="http://www.w3.org/1999/xlink" xml:space="preserve" onload="init(evt)">
        <defs>
                <circle id="rim" cx="0" cy="0" r="7"/>
                <circle id="rim2" cx="0" cy="0" r="3.5"/>
                <g id="zoomPlus">
                        <use xlink:href="#rim" fill="#404040">
                                <set attributeName="fill" to="#808080" begin="zoomplus.mouseover" end="zoomplus.mouseout"/>
                        </use>
                        <path d="M-4,0h8M0,-4v8" fill="none" stroke="white" stroke-width="1.5" pointer-events="none"/>
                </g>
                <g id="zoomMin">
                        <use xlink:href="#rim" fill="#404040">
                                <set attributeName="fill" to="#808080" begin="zoomminus.mouseover" end="zoomminus.mouseout"/>
                        </use>
                        <path d="M-4,0h8" fill="none" stroke="white" stroke-width="1.5" pointer-events="none"/>
                </g>
                <g id="dirArrow">
                        <path fill="none" stroke="white" stroke-width="1.5" d="M0,-3.0v7 M-2.5,-0.5L0,-3.0L2.5,-0.5"/>
                </g>
               <g id="resetDef">
                       <use xlink:href="#rim2" fill="#404040">
                               <set attributeName="fill" to="#808080" begin="reset.mouseover" end="reset.mouseout"/>
                       </use>
               </g>
        </defs>

<script type="text/javascript">
var viewWidth = 658;
var viewHeight = 194;
var sectionId = 'dynsection-0';
</script>
<script xlink:href="svgpan.js"/>
<svg id="graph" class="graph">
<g id="viewport">
<title>G</title>
<!-- Node1 -->
<g id="node1" class="node"><title>Node1</title>
<polygon fill="#bfbfbf" stroke="black" points="0.573242,-81.9336 0.573242,-104.066 251.427,-104.066 251.427,-81.9336 0.573242,-81.9336"/>
<text text-anchor="middle" x="126" y="-90.0664" font-family="sans-serif" font-size="10.00">csc440.nuf.DeviceRegistrar.registerOrUnregister</text>
</g>
<!-- Node2 -->
<g id="node3" class="node"><title>Node2</title>
<a xlink:href="classcsc440_1_1nuf_1_1_util.xhtml#a048158fe7160473100aaae303ef393e4" target="_top" xlink:title="csc440.nuf.Util.getSharedPreferences">
<polygon fill="none" stroke="black" points="370.47,-163.934 370.47,-186.066 567.53,-186.066 567.53,-163.934 370.47,-163.934"/>
<text text-anchor="middle" x="469" y="-172.066" font-family="sans-serif" font-size="10.00">csc440.nuf.Util.getSharedPreferences</text>
</a>
</g>
<!-- Node1&#45;&gt;Node2 -->
<g id="edge2" class="edge"><title>Node1&#45;&gt;Node2</title>
<path fill="none" stroke="midnightblue" d="M150.687,-104.095C181.575,-118.063 237.616,-141.715 288,-154 311.001,-159.608 336.033,-163.734 359.914,-166.764"/>
<polygon fill="midnightblue" stroke="midnightblue" points="359.72,-170.266 370.069,-167.997 360.564,-163.317 359.72,-170.266"/>
</g>
<!-- Node3 -->
<g id="node5" class="node"><title>Node3</title>
<a xlink:href="interfacecsc440_1_1nuf_1_1shared_1_1_registration_info_proxy.xhtml#adfd37626741163e3b5b1e815af150e23" target="_top" xlink:title="csc440.nuf.shared.RegistrationInfoProxy.setDeviceRegistrationId">
<polygon fill="none" stroke="black" points="303.913,-122.934 303.913,-145.066 634.087,-145.066 634.087,-122.934 303.913,-122.934"/>
<text text-anchor="middle" x="469" y="-131.066" font-family="sans-serif" font-size="10.00">csc440.nuf.shared.RegistrationInfoProxy.setDeviceRegistrationId</text>
</a>
</g>
<!-- Node1&#45;&gt;Node3 -->
<g id="edge4" class="edge"><title>Node1&#45;&gt;Node3</title>
<path fill="none" stroke="midnightblue" d="M215.142,-104.07C238.799,-107.008 264.37,-110.154 288,-113 311.885,-115.877 337.56,-118.909 361.825,-121.746"/>
<polygon fill="midnightblue" stroke="midnightblue" points="361.428,-125.223 371.766,-122.907 362.24,-118.271 361.428,-125.223"/>
</g>
<!-- Node4 -->
<g id="node7" class="node"><title>Node4</title>
<a xlink:href="interfacecsc440_1_1nuf_1_1shared_1_1_registration_info_proxy.xhtml#a3d96be9a03c6aa4547a680419561baff" target="_top" xlink:title="csc440.nuf.shared.RegistrationInfoProxy.setDeviceId">
<polygon fill="none" stroke="black" points="333.139,-81.9336 333.139,-104.066 604.861,-104.066 604.861,-81.9336 333.139,-81.9336"/>
<text text-anchor="middle" x="469" y="-90.0664" font-family="sans-serif" font-size="10.00">csc440.nuf.shared.RegistrationInfoProxy.setDeviceId</text>
</a>
</g>
<!-- Node1&#45;&gt;Node4 -->
<g id="edge6" class="edge"><title>Node1&#45;&gt;Node4</title>
<path fill="none" stroke="midnightblue" d="M251.556,-93C274.696,-93 299.056,-93 322.751,-93"/>
<polygon fill="midnightblue" stroke="midnightblue" points="322.86,-96.5001 332.86,-93 322.859,-89.5001 322.86,-96.5001"/>
</g>
<!-- Node5 -->
<g id="node9" class="node"><title>Node5</title>
<a xlink:href="interfacecsc440_1_1nuf_1_1client_1_1_my_request_factory_1_1_registration_info_request.xhtml#a675270c3171bd35749e7552fa4e93546" target="_top" xlink:title="csc440.nuf.client.MyRequestFactory.RegistrationInfoRequest.register">
<polygon fill="none" stroke="black" points="294.03,-40.9336 294.03,-63.0664 643.97,-63.0664 643.97,-40.9336 294.03,-40.9336"/>
<text text-anchor="middle" x="469" y="-49.0664" font-family="sans-serif" font-size="10.00">csc440.nuf.client.MyRequestFactory.RegistrationInfoRequest.register</text>
</a>
</g>
<!-- Node1&#45;&gt;Node5 -->
<g id="edge8" class="edge"><title>Node1&#45;&gt;Node5</title>
<path fill="none" stroke="midnightblue" d="M209.695,-81.9068C234.829,-78.6178 262.534,-75.0753 288,-72 309.656,-69.3848 332.793,-66.7183 355.019,-64.2202"/>
<polygon fill="midnightblue" stroke="midnightblue" points="355.61,-67.6761 365.158,-63.0851 354.831,-60.7195 355.61,-67.6761"/>
</g>
<!-- Node6 -->
<g id="node11" class="node"><title>Node6</title>
<a xlink:href="interfacecsc440_1_1nuf_1_1client_1_1_my_request_factory_1_1_registration_info_request.xhtml#a2135c9d95519fc4923751338733456de" target="_top" xlink:title="csc440.nuf.client.MyRequestFactory.RegistrationInfoRequest.unregister">
<polygon fill="none" stroke="black" points="287.824,0.0664062 287.824,-22.0664 650.176,-22.0664 650.176,0.0664062 287.824,0.0664062"/>
<text text-anchor="middle" x="469" y="-8.06641" font-family="sans-serif" font-size="10.00">csc440.nuf.client.MyRequestFactory.RegistrationInfoRequest.unregister</text>
</a>
</g>
<!-- Node1&#45;&gt;Node6 -->
<g id="edge10" class="edge"><title>Node1&#45;&gt;Node6</title>
<path fill="none" stroke="midnightblue" d="M150.124,-81.9135C180.862,-67.6895 237.22,-43.3795 288,-31 299.455,-28.2073 311.417,-25.8037 323.491,-23.735"/>
<polygon fill="midnightblue" stroke="midnightblue" points="324.346,-27.1417 333.651,-22.0748 323.217,-20.2334 324.346,-27.1417"/>
</g>
</g>
</svg>
        <g id="navigator" transform="translate(0 0)" fill="#404254">
                <rect fill="#f2f5e9" fill-opacity="0.5" stroke="#606060" stroke-width=".5" x="0" y="0" width="60" height="60"/>
                <use id="zoomplus" xlink:href="#zoomPlus" x="17" y="9" onmousedown="handleZoom(evt,'in')"/>
                <use id="zoomminus" xlink:href="#zoomMin" x="42" y="9" onmousedown="handleZoom(evt,'out')"/>
                <use id="reset" xlink:href="#resetDef" x="30" y="36" onmousedown="handleReset()"/>
                <g id="arrowUp" xlink:href="#dirArrow" transform="translate(30 24)" onmousedown="handlePan(0,-1)">
                  <use xlink:href="#rim" fill="#404040">
                        <set attributeName="fill" to="#808080" begin="arrowUp.mouseover" end="arrowUp.mouseout"/>
                  </use>
                  <path fill="none" stroke="white" stroke-width="1.5" d="M0,-3.0v7 M-2.5,-0.5L0,-3.0L2.5,-0.5"/>
                </g>
                <g id="arrowRight" xlink:href="#dirArrow" transform="rotate(90) translate(36 -43)" onmousedown="handlePan(1,0)">
                  <use xlink:href="#rim" fill="#404040">
                        <set attributeName="fill" to="#808080" begin="arrowRight.mouseover" end="arrowRight.mouseout"/>
                  </use>
                  <path fill="none" stroke="white" stroke-width="1.5" d="M0,-3.0v7 M-2.5,-0.5L0,-3.0L2.5,-0.5"/>
                </g>
                <g id="arrowDown" xlink:href="#dirArrow" transform="rotate(180) translate(-30 -48)" onmousedown="handlePan(0,1)">
                  <use xlink:href="#rim" fill="#404040">
                        <set attributeName="fill" to="#808080" begin="arrowDown.mouseover" end="arrowDown.mouseout"/>
                  </use>
                  <path fill="none" stroke="white" stroke-width="1.5" d="M0,-3.0v7 M-2.5,-0.5L0,-3.0L2.5,-0.5"/>
                </g>
                <g id="arrowLeft" xlink:href="#dirArrow" transform="rotate(270) translate(-36 17)" onmousedown="handlePan(-1,0)">
                  <use xlink:href="#rim" fill="#404040">
                        <set attributeName="fill" to="#808080" begin="arrowLeft.mouseover" end="arrowLeft.mouseout"/>
                  </use>
                  <path fill="none" stroke="white" stroke-width="1.5" d="M0,-3.0v7 M-2.5,-0.5L0,-3.0L2.5,-0.5"/>
                </g>
        </g>
        <svg viewBox="0 0 25 25" width="100%" height="30px" preserveAspectRatio="xMaxYMin meet"> 
          <g id="printButton" transform="scale(0.4 0.4)" onmousedown="handlePrint(evt)">
            <rect height="23.33753581" id="paper" rx="2" style="fill:#f2f5e9;fill-rule:evenodd;stroke:#111111;stroke-width:3.224;stroke-linejoin:round;" transform="matrix(1.000000,0.000000,-0.339266,0.940691,0.000000,0.000000)" width="25.55231285" x="26.69387353" y="7.36162977"/>
            <rect height="26.272097" id="body" rx="2" style="fill:#404040;fill-rule:evenodd;stroke:#111111;stroke-width:3.125;stroke-linejoin:round;" width="50" x="4.5295201" y="27.078951"/>
            <rect height="8.27750969" id="tray" style="fill:#d2d5c9;fill-rule:evenodd;stroke:#111111;stroke-width:3.125;stroke-linecap:round;stroke-linejoin:round;" width="40" x="10.28778839" y="44.96812282"/>
          </g>
        </svg>
</svg>
