<?xml version="1.0" encoding="UTF-8" standalone="no"?>
<!DOCTYPE svg PUBLIC "-//W3C//DTD SVG 1.1//EN"
 "http://www.w3.org/Graphics/SVG/1.1/DTD/svg11.dtd">
<!-- Generated by graphviz version 2.28.0 (20111028.1807)
 -->
<!-- Title: G Pages: 1 -->
<!--zoomable 153 -->
<svg id="main" version="1.1" xmlns="http://www.w3.org/2000/svg" xmlns:xlink="http://www.w3.org/1999/xlink" xml:space="preserve" onload="init(evt)">
        <defs>
                <circle id="rim" cx="0" cy="0" r="7"/>
                <circle id="rim2" cx="0" cy="0" r="3.5"/>
                <g id="zoomPlus">
                        <use xlink:href="#rim" fill="#404040">
                                <set attributeName="fill" to="#808080" begin="zoomplus.mouseover" end="zoomplus.mouseout"/>
                        </use>
                        <path d="M-4,0h8M0,-4v8" fill="none" stroke="white" stroke-width="1.5" pointer-events="none"/>
                </g>
                <g id="zoomMin">
                        <use xlink:href="#rim" fill="#404040">
                                <set attributeName="fill" to="#808080" begin="zoomminus.mouseover" end="zoomminus.mouseout"/>
                        </use>
                        <path d="M-4,0h8" fill="none" stroke="white" stroke-width="1.5" pointer-events="none"/>
                </g>
                <g id="dirArrow">
                        <path fill="none" stroke="white" stroke-width="1.5" d="M0,-3.0v7 M-2.5,-0.5L0,-3.0L2.5,-0.5"/>
                </g>
               <g id="resetDef">
                       <use xlink:href="#rim2" fill="#404040">
                               <set attributeName="fill" to="#808080" begin="reset.mouseover" end="reset.mouseout"/>
                       </use>
               </g>
        </defs>

<script type="text/javascript">
var viewWidth = 1044;
var viewHeight = 153;
var sectionId = 'dynsection-11';
</script>
<script xlink:href="svgpan.js"/>
<svg id="graph" class="graph">
<g id="viewport">
<title>G</title>
<!-- Node1 -->
<g id="node1" class="node"><title>Node1</title>
<polygon fill="#bfbfbf" stroke="black" points="0.388672,-44.9336 0.388672,-67.0664 229.611,-67.0664 229.611,-44.9336 0.388672,-44.9336"/>
<text text-anchor="middle" x="115" y="-53.0664" font-family="sans-serif" font-size="10.00">csc440.nuf.complay.Q.sortByStartTimeDESC</text>
</g>
<!-- Node2 -->
<g id="node3" class="node"><title>Node2</title>
<a xlink:href="classcsc440_1_1nuf_1_1complay_1_1_timer.xhtml#aebbe2beb25856951b72d866d783ce897" target="_top" xlink:title="csc440.nuf.complay.Timer.setTime">
<polygon fill="none" stroke="black" points="265.834,-44.9336 265.834,-67.0664 452.166,-67.0664 452.166,-44.9336 265.834,-44.9336"/>
<text text-anchor="middle" x="359" y="-53.0664" font-family="sans-serif" font-size="10.00">csc440.nuf.complay.Timer.setTime</text>
</a>
</g>
<!-- Node1&#45;&gt;Node2 -->
<g id="edge2" class="edge"><title>Node1&#45;&gt;Node2</title>
<path fill="none" stroke="midnightblue" d="M240.062,-56C248.708,-56 257.333,-56 265.76,-56"/>
<polygon fill="midnightblue" stroke="midnightblue" points="239.914,-52.5001 229.914,-56 239.914,-59.5001 239.914,-52.5001"/>
</g>
<!-- Node3 -->
<g id="node5" class="node"><title>Node3</title>
<a xlink:href="classcsc440_1_1nuf_1_1complay_1_1_player_canvas.xhtml#a64eae2e9ed26456ab5b104436c97d78f" target="_top" xlink:title="csc440.nuf.complay.PlayerCanvas.setTime">
<polygon fill="none" stroke="black" points="488.305,-70.9336 488.305,-93.0664 709.695,-93.0664 709.695,-70.9336 488.305,-70.9336"/>
<text text-anchor="middle" x="599" y="-79.0664" font-family="sans-serif" font-size="10.00">csc440.nuf.complay.PlayerCanvas.setTime</text>
</a>
</g>
<!-- Node2&#45;&gt;Node3 -->
<g id="edge4" class="edge"><title>Node2&#45;&gt;Node3</title>
<path fill="none" stroke="midnightblue" d="M462.635,-67.2123C473.901,-68.4429 485.366,-69.6954 496.616,-70.9244"/>
<polygon fill="midnightblue" stroke="midnightblue" points="462.679,-63.6963 452.358,-66.0895 461.918,-70.6549 462.679,-63.6963"/>
</g>
<!-- Node7 -->
<g id="node13" class="node"><title>Node7</title>
<a xlink:href="classcsc440_1_1nuf_1_1complay_1_1_timer.xhtml#aff1846d75c64aee648b2321f9ea62314" target="_top" xlink:title="csc440.nuf.complay.Timer.timePlusPlus">
<polygon fill="none" stroke="black" points="494.608,-19.9336 494.608,-42.0664 703.392,-42.0664 703.392,-19.9336 494.608,-19.9336"/>
<text text-anchor="middle" x="599" y="-28.0664" font-family="sans-serif" font-size="10.00">csc440.nuf.complay.Timer.timePlusPlus</text>
</a>
</g>
<!-- Node2&#45;&gt;Node7 -->
<g id="edge12" class="edge"><title>Node2&#45;&gt;Node7</title>
<path fill="none" stroke="midnightblue" d="M462.402,-45.2434C472.948,-44.1358 483.67,-43.0095 494.23,-41.9002"/>
<polygon fill="midnightblue" stroke="midnightblue" points="461.937,-41.773 452.358,-46.2986 462.669,-48.7347 461.937,-41.773"/>
</g>
<!-- Node4 -->
<g id="node7" class="node"><title>Node4</title>
<a xlink:href="classcsc440_1_1nuf_1_1complay_1_1_player_activity.xhtml#a592b9fe89b9076e65456181c0e389e3c" target="_top" xlink:title="csc440.nuf.complay.PlayerActivity.onCreate">
<polygon fill="none" stroke="black" points="777.067,-122.934 777.067,-145.066 1004.93,-145.066 1004.93,-122.934 777.067,-122.934"/>
<text text-anchor="middle" x="891" y="-131.066" font-family="sans-serif" font-size="10.00">csc440.nuf.complay.PlayerActivity.onCreate</text>
</a>
</g>
<!-- Node3&#45;&gt;Node4 -->
<g id="edge6" class="edge"><title>Node3&#45;&gt;Node4</title>
<path fill="none" stroke="midnightblue" d="M658.44,-95.3084C685.071,-101.141 717.049,-107.821 746,-113 765.896,-116.559 787.419,-119.945 807.61,-122.917"/>
<polygon fill="midnightblue" stroke="midnightblue" points="659.032,-91.8549 648.513,-93.1195 657.525,-98.6907 659.032,-91.8549"/>
</g>
<!-- Node5 -->
<g id="node9" class="node"><title>Node5</title>
<a xlink:href="classcsc440_1_1nuf_1_1complay_1_1_player_activity.xhtml#a042e95babe17fab59ba7d71a6dfc9dbb" target="_top" xlink:title="csc440.nuf.complay.PlayerActivity.onStopTrackingTouch">
<polygon fill="none" stroke="black" points="745.876,-81.9336 745.876,-104.066 1036.12,-104.066 1036.12,-81.9336 745.876,-81.9336"/>
<text text-anchor="middle" x="891" y="-90.0664" font-family="sans-serif" font-size="10.00">csc440.nuf.complay.PlayerActivity.onStopTrackingTouch</text>
</a>
</g>
<!-- Node3&#45;&gt;Node5 -->
<g id="edge8" class="edge"><title>Node3&#45;&gt;Node5</title>
<path fill="none" stroke="midnightblue" d="M720.266,-86.5618C728.695,-86.8815 737.239,-87.2056 745.779,-87.5296"/>
<polygon fill="midnightblue" stroke="midnightblue" points="720.176,-83.056 710.05,-86.1743 719.91,-90.0509 720.176,-83.056"/>
</g>
<!-- Node6 -->
<g id="node11" class="node"><title>Node6</title>
<a xlink:href="classcsc440_1_1nuf_1_1complay_1_1_player_activity.xhtml#a7f5eb45ffac9b23a602a8ba76dbb6d47" target="_top" xlink:title="csc440.nuf.complay.PlayerActivity.playPause">
<polygon fill="none" stroke="black" points="775.021,-40.9336 775.021,-63.0664 1006.98,-63.0664 1006.98,-40.9336 775.021,-40.9336"/>
<text text-anchor="middle" x="891" y="-49.0664" font-family="sans-serif" font-size="10.00">csc440.nuf.complay.PlayerActivity.playPause</text>
</a>
</g>
<!-- Node3&#45;&gt;Node6 -->
<g id="edge10" class="edge"><title>Node3&#45;&gt;Node6</title>
<path fill="none" stroke="midnightblue" d="M717.367,-69.8586C738.999,-67.6208 761.482,-65.2949 782.795,-63.0901"/>
<polygon fill="midnightblue" stroke="midnightblue" points="716.748,-66.4038 707.161,-70.9143 717.468,-73.3667 716.748,-66.4038"/>
</g>
<!-- Node8 -->
<g id="node15" class="node"><title>Node8</title>
<a xlink:href="classcsc440_1_1nuf_1_1complay_1_1_player_canvas.xhtml#aa0797d703af20d0ada15e590da003617" target="_top" xlink:title="csc440.nuf.complay.PlayerCanvas.run">
<polygon fill="none" stroke="black" points="791.318,0.0664062 791.318,-22.0664 990.682,-22.0664 990.682,0.0664062 791.318,0.0664062"/>
<text text-anchor="middle" x="891" y="-8.06641" font-family="sans-serif" font-size="10.00">csc440.nuf.complay.PlayerCanvas.run</text>
</a>
</g>
<!-- Node7&#45;&gt;Node8 -->
<g id="edge14" class="edge"><title>Node7&#45;&gt;Node8</title>
<path fill="none" stroke="midnightblue" d="M713.564,-23.168C739.117,-21.4057 766.039,-19.549 790.944,-17.8315"/>
<polygon fill="midnightblue" stroke="midnightblue" points="713.204,-19.6844 703.468,-23.8642 713.686,-26.6678 713.204,-19.6844"/>
</g>
</g>
</svg>
        <g id="navigator" transform="translate(0 0)" fill="#404254">
                <rect fill="#f2f5e9" fill-opacity="0.5" stroke="#606060" stroke-width=".5" x="0" y="0" width="60" height="60"/>
                <use id="zoomplus" xlink:href="#zoomPlus" x="17" y="9" onmousedown="handleZoom(evt,'in')"/>
                <use id="zoomminus" xlink:href="#zoomMin" x="42" y="9" onmousedown="handleZoom(evt,'out')"/>
                <use id="reset" xlink:href="#resetDef" x="30" y="36" onmousedown="handleReset()"/>
                <g id="arrowUp" xlink:href="#dirArrow" transform="translate(30 24)" onmousedown="handlePan(0,-1)">
                  <use xlink:href="#rim" fill="#404040">
                        <set attributeName="fill" to="#808080" begin="arrowUp.mouseover" end="arrowUp.mouseout"/>
                  </use>
                  <path fill="none" stroke="white" stroke-width="1.5" d="M0,-3.0v7 M-2.5,-0.5L0,-3.0L2.5,-0.5"/>
                </g>
                <g id="arrowRight" xlink:href="#dirArrow" transform="rotate(90) translate(36 -43)" onmousedown="handlePan(1,0)">
                  <use xlink:href="#rim" fill="#404040">
                        <set attributeName="fill" to="#808080" begin="arrowRight.mouseover" end="arrowRight.mouseout"/>
                  </use>
                  <path fill="none" stroke="white" stroke-width="1.5" d="M0,-3.0v7 M-2.5,-0.5L0,-3.0L2.5,-0.5"/>
                </g>
                <g id="arrowDown" xlink:href="#dirArrow" transform="rotate(180) translate(-30 -48)" onmousedown="handlePan(0,1)">
                  <use xlink:href="#rim" fill="#404040">
                        <set attributeName="fill" to="#808080" begin="arrowDown.mouseover" end="arrowDown.mouseout"/>
                  </use>
                  <path fill="none" stroke="white" stroke-width="1.5" d="M0,-3.0v7 M-2.5,-0.5L0,-3.0L2.5,-0.5"/>
                </g>
                <g id="arrowLeft" xlink:href="#dirArrow" transform="rotate(270) translate(-36 17)" onmousedown="handlePan(-1,0)">
                  <use xlink:href="#rim" fill="#404040">
                        <set attributeName="fill" to="#808080" begin="arrowLeft.mouseover" end="arrowLeft.mouseout"/>
                  </use>
                  <path fill="none" stroke="white" stroke-width="1.5" d="M0,-3.0v7 M-2.5,-0.5L0,-3.0L2.5,-0.5"/>
                </g>
        </g>
        <svg viewBox="0 0 25 25" width="100%" height="30px" preserveAspectRatio="xMaxYMin meet"> 
          <g id="printButton" transform="scale(0.4 0.4)" onmousedown="handlePrint(evt)">
            <rect height="23.33753581" id="paper" rx="2" style="fill:#f2f5e9;fill-rule:evenodd;stroke:#111111;stroke-width:3.224;stroke-linejoin:round;" transform="matrix(1.000000,0.000000,-0.339266,0.940691,0.000000,0.000000)" width="25.55231285" x="26.69387353" y="7.36162977"/>
            <rect height="26.272097" id="body" rx="2" style="fill:#404040;fill-rule:evenodd;stroke:#111111;stroke-width:3.125;stroke-linejoin:round;" width="50" x="4.5295201" y="27.078951"/>
            <rect height="8.27750969" id="tray" style="fill:#d2d5c9;fill-rule:evenodd;stroke:#111111;stroke-width:3.125;stroke-linecap:round;stroke-linejoin:round;" width="40" x="10.28778839" y="44.96812282"/>
          </g>
        </svg>
</svg>
