<?xml version="1.0" encoding="UTF-8" standalone="no"?>
<!DOCTYPE svg PUBLIC "-//W3C//DTD SVG 1.1//EN"
 "http://www.w3.org/Graphics/SVG/1.1/DTD/svg11.dtd">
<!-- Generated by graphviz version 2.28.0 (20111028.1807)
 -->
<!-- Title: G Pages: 1 -->
<svg width="152pt" height="392pt"
 viewBox="0.00 0.00 152.00 392.00" xmlns="http://www.w3.org/2000/svg" xmlns:xlink="http://www.w3.org/1999/xlink">
<g id="graph1" class="graph" transform="scale(1 1) rotate(0) translate(4 388)">
<title>G</title>
<!-- Node1 -->
<g id="node1" class="node"><title>Node1</title>
<polygon fill="#bfbfbf" stroke="black" points="-0.233398,-0.804688 -0.233398,-279.195 144.233,-279.195 144.233,-0.804688 -0.233398,-0.804688"/>
<text text-anchor="middle" x="72" y="-265.195" font-family="sans-serif" font-size="10.00">com.DisplayExp.MyCanvas</text>
<polyline fill="none" stroke="black" points="-0.233398,-257.062 144.233,-257.062 "/>
<text text-anchor="start" x="7.7666" y="-243.062" font-family="sans-serif" font-size="10.00">~ original</text>
<text text-anchor="start" x="7.7666" y="-228.93" font-family="sans-serif" font-size="10.00">~ myImg</text>
<text text-anchor="start" x="7.7666" y="-214.797" font-family="sans-serif" font-size="10.00">~ p</text>
<text text-anchor="start" x="7.7666" y="-200.664" font-family="sans-serif" font-size="10.00">~ xCenter</text>
<text text-anchor="start" x="7.7666" y="-186.531" font-family="sans-serif" font-size="10.00">~ yCenter</text>
<text text-anchor="start" x="7.7666" y="-172.398" font-family="sans-serif" font-size="10.00">~ xLeft</text>
<text text-anchor="start" x="7.7666" y="-158.266" font-family="sans-serif" font-size="10.00">~ yTop</text>
<text text-anchor="start" x="7.7666" y="-144.133" font-family="sans-serif" font-size="10.00">~ xRight</text>
<text text-anchor="start" x="7.7666" y="-130" font-family="sans-serif" font-size="10.00">~ yBottom</text>
<text text-anchor="start" x="7.7666" y="-115.867" font-family="sans-serif" font-size="10.00">~ width</text>
<text text-anchor="start" x="7.7666" y="-101.734" font-family="sans-serif" font-size="10.00">~ height</text>
<text text-anchor="start" x="7.7666" y="-87.6016" font-family="sans-serif" font-size="10.00">~ FATFINGER</text>
<polyline fill="none" stroke="black" points="-0.233398,-79.4688 144.233,-79.4688 "/>
<text text-anchor="start" x="7.7666" y="-65.4688" font-family="sans-serif" font-size="10.00">+ MyCanvas()</text>
<text text-anchor="start" x="7.7666" y="-51.3359" font-family="sans-serif" font-size="10.00">+ onTouch()</text>
<text text-anchor="start" x="7.7666" y="-37.2031" font-family="sans-serif" font-size="10.00">~ setLoc()</text>
<text text-anchor="start" x="7.7666" y="-23.0703" font-family="sans-serif" font-size="10.00">~ newImage()</text>
<text text-anchor="start" x="7.7666" y="-8.9375" font-family="sans-serif" font-size="10.00"># onDraw()</text>
</g>
<!-- Node2 -->
<g id="node2" class="node"><title>Node2</title>
<polygon fill="none" stroke="#bfbfbf" points="52.6475,-316.801 52.6475,-383.199 91.3525,-383.199 91.3525,-316.801 52.6475,-316.801"/>
<text text-anchor="middle" x="72" y="-369.199" font-family="sans-serif" font-size="10.00">View</text>
<polyline fill="none" stroke="#bfbfbf" points="52.6475,-361.066 91.3525,-361.066 "/>
<text text-anchor="middle" x="72" y="-347.066" font-family="sans-serif" font-size="10.00"> </text>
<polyline fill="none" stroke="#bfbfbf" points="52.6475,-338.934 91.3525,-338.934 "/>
<text text-anchor="middle" x="72" y="-324.934" font-family="sans-serif" font-size="10.00"> </text>
</g>
<!-- Node2&#45;&gt;Node1 -->
<g id="edge2" class="edge"><title>Node2&#45;&gt;Node1</title>
<path fill="none" stroke="midnightblue" d="M72,-306.442C72,-298.134 72,-289.011 72,-279.45"/>
<polygon fill="none" stroke="midnightblue" points="68.5001,-306.5 72,-316.5 75.5001,-306.5 68.5001,-306.5"/>
</g>
</g>
</svg>
