<?xml version="1.0" encoding="UTF-8" standalone="no"?>
<!DOCTYPE svg PUBLIC "-//W3C//DTD SVG 1.1//EN"
 "http://www.w3.org/Graphics/SVG/1.1/DTD/svg11.dtd">
<!-- Generated by graphviz version 2.28.0 (20111028.1807)
 -->
<!-- Title: G Pages: 1 -->
<svg width="204pt" height="194pt"
 viewBox="0.00 0.00 204.00 194.00" xmlns="http://www.w3.org/2000/svg" xmlns:xlink="http://www.w3.org/1999/xlink">
<g id="graph1" class="graph" transform="scale(1 1) rotate(0) translate(4 190)">
<title>G</title>
<!-- Node1 -->
<g id="node1" class="node"><title>Node1</title>
<polygon fill="#bfbfbf" stroke="black" points="-0.930176,-0.734375 -0.930176,-81.2656 196.93,-81.2656 196.93,-0.734375 -0.930176,-0.734375"/>
<text text-anchor="middle" x="98" y="-67.2656" font-family="sans-serif" font-size="10.00">csc440.nuf.AndroidRequestTransport</text>
<polyline fill="none" stroke="black" points="-0.930176,-59.1328 196.93,-59.1328 "/>
<text text-anchor="middle" x="98" y="-45.1328" font-family="sans-serif" font-size="10.00"> </text>
<polyline fill="none" stroke="black" points="-0.930176,-37 196.93,-37 "/>
<text text-anchor="start" x="7.06982" y="-23" font-family="sans-serif" font-size="10.00">+ AndroidRequestTransport()</text>
<text text-anchor="start" x="7.06982" y="-8.86719" font-family="sans-serif" font-size="10.00">+ send()</text>
</g>
<!-- Node2 -->
<g id="node2" class="node"><title>Node2</title>
<polygon fill="none" stroke="#bfbfbf" points="46.8433,-118.801 46.8433,-185.199 149.157,-185.199 149.157,-118.801 46.8433,-118.801"/>
<text text-anchor="middle" x="98" y="-171.199" font-family="sans-serif" font-size="10.00">RequestTransport</text>
<polyline fill="none" stroke="#bfbfbf" points="46.8433,-163.066 149.157,-163.066 "/>
<text text-anchor="middle" x="98" y="-149.066" font-family="sans-serif" font-size="10.00"> </text>
<polyline fill="none" stroke="#bfbfbf" points="46.8433,-140.934 149.157,-140.934 "/>
<text text-anchor="middle" x="98" y="-126.934" font-family="sans-serif" font-size="10.00"> </text>
</g>
<!-- Node2&#45;&gt;Node1 -->
<g id="edge2" class="edge"><title>Node2&#45;&gt;Node1</title>
<path fill="none" stroke="midnightblue" d="M98,-108.417C98,-99.5248 98,-90.1871 98,-81.4153"/>
<polygon fill="none" stroke="midnightblue" points="94.5001,-108.591 98,-118.592 101.5,-108.592 94.5001,-108.591"/>
</g>
</g>
</svg>
