<?xml version="1.0" encoding="UTF-8" standalone="no"?>
<!DOCTYPE svg PUBLIC "-//W3C//DTD SVG 1.1//EN"
 "http://www.w3.org/Graphics/SVG/1.1/DTD/svg11.dtd">
<!-- Generated by graphviz version 2.28.0 (20111028.1807)
 -->
<!-- Title: G Pages: 1 -->
<!--zoomable 153 -->
<svg id="main" version="1.1" xmlns="http://www.w3.org/2000/svg" xmlns:xlink="http://www.w3.org/1999/xlink" xml:space="preserve" onload="init(evt)">
        <defs>
                <circle id="rim" cx="0" cy="0" r="7"/>
                <circle id="rim2" cx="0" cy="0" r="3.5"/>
                <g id="zoomPlus">
                        <use xlink:href="#rim" fill="#404040">
                                <set attributeName="fill" to="#808080" begin="zoomplus.mouseover" end="zoomplus.mouseout"/>
                        </use>
                        <path d="M-4,0h8M0,-4v8" fill="none" stroke="white" stroke-width="1.5" pointer-events="none"/>
                </g>
                <g id="zoomMin">
                        <use xlink:href="#rim" fill="#404040">
                                <set attributeName="fill" to="#808080" begin="zoomminus.mouseover" end="zoomminus.mouseout"/>
                        </use>
                        <path d="M-4,0h8" fill="none" stroke="white" stroke-width="1.5" pointer-events="none"/>
                </g>
                <g id="dirArrow">
                        <path fill="none" stroke="white" stroke-width="1.5" d="M0,-3.0v7 M-2.5,-0.5L0,-3.0L2.5,-0.5"/>
                </g>
               <g id="resetDef">
                       <use xlink:href="#rim2" fill="#404040">
                               <set attributeName="fill" to="#808080" begin="reset.mouseover" end="reset.mouseout"/>
                       </use>
               </g>
        </defs>

<script type="text/javascript">
var viewWidth = 974;
var viewHeight = 153;
var sectionId = 'dynsection-7';
</script>
<script xlink:href="svgpan.js"/>
<svg id="graph" class="graph">
<g id="viewport">
<title>G</title>
<!-- Node1 -->
<g id="node1" class="node"><title>Node1</title>
<polygon fill="#bfbfbf" stroke="black" points="0.419434,-59.9336 0.419434,-82.0664 151.581,-82.0664 151.581,-59.9336 0.419434,-59.9336"/>
<text text-anchor="middle" x="76" y="-68.0664" font-family="sans-serif" font-size="10.00">csc440.nuf.complay.Q.push</text>
</g>
<!-- Node2 -->
<g id="node3" class="node"><title>Node2</title>
<a xlink:href="classcsc440_1_1nuf_1_1complay_1_1_player_activity.xhtml#a592b9fe89b9076e65456181c0e389e3c" target="_top" xlink:title="csc440.nuf.complay.PlayerActivity.onCreate">
<polygon fill="none" stroke="black" points="707.067,-122.934 707.067,-145.066 934.933,-145.066 934.933,-122.934 707.067,-122.934"/>
<text text-anchor="middle" x="821" y="-131.066" font-family="sans-serif" font-size="10.00">csc440.nuf.complay.PlayerActivity.onCreate</text>
</a>
</g>
<!-- Node1&#45;&gt;Node2 -->
<g id="edge2" class="edge"><title>Node1&#45;&gt;Node2</title>
<path fill="none" stroke="midnightblue" d="M110.459,-86.1338C132.099,-95.1431 161.143,-105.803 188,-111 366.941,-145.623 579.555,-145.015 706.934,-140.308"/>
<polygon fill="midnightblue" stroke="midnightblue" points="111.644,-82.8342 101.072,-82.1361 108.901,-89.2745 111.644,-82.8342"/>
</g>
<!-- Node3 -->
<g id="node5" class="node"><title>Node3</title>
<a xlink:href="classcsc440_1_1nuf_1_1complay_1_1_timer.xhtml#aebbe2beb25856951b72d866d783ce897" target="_top" xlink:title="csc440.nuf.complay.Timer.setTime">
<polygon fill="none" stroke="black" points="188.834,-79.9336 188.834,-102.066 375.166,-102.066 375.166,-79.9336 188.834,-79.9336"/>
<text text-anchor="middle" x="282" y="-88.0664" font-family="sans-serif" font-size="10.00">csc440.nuf.complay.Timer.setTime</text>
</a>
</g>
<!-- Node1&#45;&gt;Node3 -->
<g id="edge4" class="edge"><title>Node1&#45;&gt;Node3</title>
<path fill="none" stroke="midnightblue" d="M161.989,-79.3323C170.747,-80.1909 179.677,-81.0663 188.511,-81.9324"/>
<polygon fill="midnightblue" stroke="midnightblue" points="162.098,-75.8262 151.804,-78.3337 161.414,-82.7928 162.098,-75.8262"/>
</g>
<!-- Node9 -->
<g id="node18" class="node"><title>Node9</title>
<a xlink:href="classcsc440_1_1nuf_1_1parser_1_1_s_m_i_l_handler.xhtml#a3e1b09860f1ed33f8de26294e34ef167" target="_top" xlink:title="csc440.nuf.parser.SMILHandler.endElement">
<polygon fill="none" stroke="black" points="412.666,0.0664062 412.666,-22.0664 639.334,-22.0664 639.334,0.0664062 412.666,0.0664062"/>
<text text-anchor="middle" x="526" y="-8.06641" font-family="sans-serif" font-size="10.00">csc440.nuf.parser.SMILHandler.endElement</text>
</a>
</g>
<!-- Node1&#45;&gt;Node9 -->
<g id="edge18" class="edge"><title>Node1&#45;&gt;Node9</title>
<path fill="none" stroke="midnightblue" d="M161.808,-59.6645C221.666,-51.6615 303.745,-40.6824 376,-31 397.471,-28.1228 420.682,-25.0089 442.248,-22.1143"/>
<polygon fill="midnightblue" stroke="midnightblue" points="161.097,-56.2284 151.649,-61.0228 162.025,-63.1667 161.097,-56.2284"/>
</g>
<!-- Node10 -->
<g id="node20" class="node"><title>Node10</title>
<a xlink:href="classcsc440_1_1nuf_1_1parser_1_1_s_m_i_l_handler.xhtml#aa6eb041f2aed3eb2895323c762cd39de" target="_top" xlink:title="csc440.nuf.parser.SMILHandler.add">
<polygon fill="none" stroke="black" points="188.014,0.0664062 188.014,-22.0664 375.986,-22.0664 375.986,0.0664062 188.014,0.0664062"/>
<text text-anchor="middle" x="282" y="-8.06641" font-family="sans-serif" font-size="10.00">csc440.nuf.parser.SMILHandler.add</text>
</a>
</g>
<!-- Node1&#45;&gt;Node10 -->
<g id="edge20" class="edge"><title>Node1&#45;&gt;Node10</title>
<path fill="none" stroke="midnightblue" d="M122.253,-56.8628C142.355,-50.6545 166.324,-43.3487 188,-37 205.054,-32.0049 223.93,-26.6888 240.195,-22.1738"/>
<polygon fill="midnightblue" stroke="midnightblue" points="120.943,-53.6044 112.426,-59.9056 123.014,-60.2912 120.943,-53.6044"/>
</g>
<!-- Node4 -->
<g id="node7" class="node"><title>Node4</title>
<a xlink:href="classcsc440_1_1nuf_1_1complay_1_1_player_canvas.xhtml#a64eae2e9ed26456ab5b104436c97d78f" target="_top" xlink:title="csc440.nuf.complay.PlayerCanvas.setTime">
<polygon fill="none" stroke="black" points="415.305,-81.9336 415.305,-104.066 636.695,-104.066 636.695,-81.9336 415.305,-81.9336"/>
<text text-anchor="middle" x="526" y="-90.0664" font-family="sans-serif" font-size="10.00">csc440.nuf.complay.PlayerCanvas.setTime</text>
</a>
</g>
<!-- Node3&#45;&gt;Node4 -->
<g id="edge6" class="edge"><title>Node3&#45;&gt;Node4</title>
<path fill="none" stroke="midnightblue" d="M385.388,-91.8462C395.254,-91.9277 405.289,-92.0106 415.221,-92.0927"/>
<polygon fill="midnightblue" stroke="midnightblue" points="385.209,-88.3447 375.18,-91.7618 385.151,-95.3444 385.209,-88.3447"/>
</g>
<!-- Node7 -->
<g id="node14" class="node"><title>Node7</title>
<a xlink:href="classcsc440_1_1nuf_1_1complay_1_1_timer.xhtml#aff1846d75c64aee648b2321f9ea62314" target="_top" xlink:title="csc440.nuf.complay.Timer.timePlusPlus">
<polygon fill="none" stroke="black" points="421.608,-40.9336 421.608,-63.0664 630.392,-63.0664 630.392,-40.9336 421.608,-40.9336"/>
<text text-anchor="middle" x="526" y="-49.0664" font-family="sans-serif" font-size="10.00">csc440.nuf.complay.Timer.timePlusPlus</text>
</a>
</g>
<!-- Node3&#45;&gt;Node7 -->
<g id="edge14" class="edge"><title>Node3&#45;&gt;Node7</title>
<path fill="none" stroke="midnightblue" d="M361.845,-78.2936C392.258,-73.3924 426.731,-67.8368 456.128,-63.0992"/>
<polygon fill="midnightblue" stroke="midnightblue" points="361.016,-74.8819 351.7,-79.9285 362.13,-81.7928 361.016,-74.8819"/>
</g>
<!-- Node4&#45;&gt;Node2 -->
<g id="edge8" class="edge"><title>Node4&#45;&gt;Node2</title>
<path fill="none" stroke="midnightblue" d="M616.243,-105.488C655.992,-111.05 702.414,-117.546 740.901,-122.932"/>
<polygon fill="midnightblue" stroke="midnightblue" points="616.679,-102.015 606.29,-104.095 615.708,-108.947 616.679,-102.015"/>
</g>
<!-- Node5 -->
<g id="node10" class="node"><title>Node5</title>
<a xlink:href="classcsc440_1_1nuf_1_1complay_1_1_player_activity.xhtml#a042e95babe17fab59ba7d71a6dfc9dbb" target="_top" xlink:title="csc440.nuf.complay.PlayerActivity.onStopTrackingTouch">
<polygon fill="none" stroke="black" points="675.876,-81.9336 675.876,-104.066 966.124,-104.066 966.124,-81.9336 675.876,-81.9336"/>
<text text-anchor="middle" x="821" y="-90.0664" font-family="sans-serif" font-size="10.00">csc440.nuf.complay.PlayerActivity.onStopTrackingTouch</text>
</a>
</g>
<!-- Node4&#45;&gt;Node5 -->
<g id="edge10" class="edge"><title>Node4&#45;&gt;Node5</title>
<path fill="none" stroke="midnightblue" d="M647.104,-93C656.536,-93 666.119,-93 675.69,-93"/>
<polygon fill="midnightblue" stroke="midnightblue" points="646.936,-89.5001 636.936,-93 646.936,-96.5001 646.936,-89.5001"/>
</g>
<!-- Node6 -->
<g id="node12" class="node"><title>Node6</title>
<a xlink:href="classcsc440_1_1nuf_1_1complay_1_1_player_activity.xhtml#a7f5eb45ffac9b23a602a8ba76dbb6d47" target="_top" xlink:title="csc440.nuf.complay.PlayerActivity.playPause">
<polygon fill="none" stroke="black" points="705.021,-40.9336 705.021,-63.0664 936.979,-63.0664 936.979,-40.9336 705.021,-40.9336"/>
<text text-anchor="middle" x="821" y="-49.0664" font-family="sans-serif" font-size="10.00">csc440.nuf.complay.PlayerActivity.playPause</text>
</a>
</g>
<!-- Node4&#45;&gt;Node6 -->
<g id="edge12" class="edge"><title>Node4&#45;&gt;Node6</title>
<path fill="none" stroke="midnightblue" d="M615.468,-80.5015C635.379,-77.6968 656.413,-74.7405 676,-72 696.747,-69.0972 719.178,-65.9743 740.02,-63.0792"/>
<polygon fill="midnightblue" stroke="midnightblue" points="614.898,-77.0471 605.484,-81.9083 615.875,-83.9786 614.898,-77.0471"/>
</g>
<!-- Node8 -->
<g id="node16" class="node"><title>Node8</title>
<a xlink:href="classcsc440_1_1nuf_1_1complay_1_1_player_canvas.xhtml#aa0797d703af20d0ada15e590da003617" target="_top" xlink:title="csc440.nuf.complay.PlayerCanvas.run">
<polygon fill="none" stroke="black" points="721.318,0.0664062 721.318,-22.0664 920.682,-22.0664 920.682,0.0664062 721.318,0.0664062"/>
<text text-anchor="middle" x="821" y="-8.06641" font-family="sans-serif" font-size="10.00">csc440.nuf.complay.PlayerCanvas.run</text>
</a>
</g>
<!-- Node7&#45;&gt;Node8 -->
<g id="edge16" class="edge"><title>Node7&#45;&gt;Node8</title>
<path fill="none" stroke="midnightblue" d="M615.468,-39.5015C635.379,-36.6968 656.413,-33.7405 676,-31 696.747,-28.0972 719.178,-24.9743 740.02,-22.0792"/>
<polygon fill="midnightblue" stroke="midnightblue" points="614.898,-36.0471 605.484,-40.9083 615.875,-42.9786 614.898,-36.0471"/>
</g>
<!-- Node10&#45;&gt;Node9 -->
<g id="edge22" class="edge"><title>Node10&#45;&gt;Node9</title>
<path fill="none" stroke="midnightblue" d="M386.294,-11C394.936,-11 403.701,-11 412.407,-11"/>
<polygon fill="midnightblue" stroke="midnightblue" points="386.217,-7.5001 376.217,-11 386.217,-14.5001 386.217,-7.5001"/>
</g>
</g>
</svg>
        <g id="navigator" transform="translate(0 0)" fill="#404254">
                <rect fill="#f2f5e9" fill-opacity="0.5" stroke="#606060" stroke-width=".5" x="0" y="0" width="60" height="60"/>
                <use id="zoomplus" xlink:href="#zoomPlus" x="17" y="9" onmousedown="handleZoom(evt,'in')"/>
                <use id="zoomminus" xlink:href="#zoomMin" x="42" y="9" onmousedown="handleZoom(evt,'out')"/>
                <use id="reset" xlink:href="#resetDef" x="30" y="36" onmousedown="handleReset()"/>
                <g id="arrowUp" xlink:href="#dirArrow" transform="translate(30 24)" onmousedown="handlePan(0,-1)">
                  <use xlink:href="#rim" fill="#404040">
                        <set attributeName="fill" to="#808080" begin="arrowUp.mouseover" end="arrowUp.mouseout"/>
                  </use>
                  <path fill="none" stroke="white" stroke-width="1.5" d="M0,-3.0v7 M-2.5,-0.5L0,-3.0L2.5,-0.5"/>
                </g>
                <g id="arrowRight" xlink:href="#dirArrow" transform="rotate(90) translate(36 -43)" onmousedown="handlePan(1,0)">
                  <use xlink:href="#rim" fill="#404040">
                        <set attributeName="fill" to="#808080" begin="arrowRight.mouseover" end="arrowRight.mouseout"/>
                  </use>
                  <path fill="none" stroke="white" stroke-width="1.5" d="M0,-3.0v7 M-2.5,-0.5L0,-3.0L2.5,-0.5"/>
                </g>
                <g id="arrowDown" xlink:href="#dirArrow" transform="rotate(180) translate(-30 -48)" onmousedown="handlePan(0,1)">
                  <use xlink:href="#rim" fill="#404040">
                        <set attributeName="fill" to="#808080" begin="arrowDown.mouseover" end="arrowDown.mouseout"/>
                  </use>
                  <path fill="none" stroke="white" stroke-width="1.5" d="M0,-3.0v7 M-2.5,-0.5L0,-3.0L2.5,-0.5"/>
                </g>
                <g id="arrowLeft" xlink:href="#dirArrow" transform="rotate(270) translate(-36 17)" onmousedown="handlePan(-1,0)">
                  <use xlink:href="#rim" fill="#404040">
                        <set attributeName="fill" to="#808080" begin="arrowLeft.mouseover" end="arrowLeft.mouseout"/>
                  </use>
                  <path fill="none" stroke="white" stroke-width="1.5" d="M0,-3.0v7 M-2.5,-0.5L0,-3.0L2.5,-0.5"/>
                </g>
        </g>
        <svg viewBox="0 0 25 25" width="100%" height="30px" preserveAspectRatio="xMaxYMin meet"> 
          <g id="printButton" transform="scale(0.4 0.4)" onmousedown="handlePrint(evt)">
            <rect height="23.33753581" id="paper" rx="2" style="fill:#f2f5e9;fill-rule:evenodd;stroke:#111111;stroke-width:3.224;stroke-linejoin:round;" transform="matrix(1.000000,0.000000,-0.339266,0.940691,0.000000,0.000000)" width="25.55231285" x="26.69387353" y="7.36162977"/>
            <rect height="26.272097" id="body" rx="2" style="fill:#404040;fill-rule:evenodd;stroke:#111111;stroke-width:3.125;stroke-linejoin:round;" width="50" x="4.5295201" y="27.078951"/>
            <rect height="8.27750969" id="tray" style="fill:#d2d5c9;fill-rule:evenodd;stroke:#111111;stroke-width:3.125;stroke-linecap:round;stroke-linejoin:round;" width="40" x="10.28778839" y="44.96812282"/>
          </g>
        </svg>
</svg>
