<?xml version="1.0" encoding="UTF-8" standalone="no"?>
<!DOCTYPE svg PUBLIC "-//W3C//DTD SVG 1.1//EN"
 "http://www.w3.org/Graphics/SVG/1.1/DTD/svg11.dtd">
<!-- Generated by graphviz version 2.28.0 (20111028.1807)
 -->
<!-- Title: G Pages: 1 -->
<!--zoomable 91 -->
<svg id="main" version="1.1" xmlns="http://www.w3.org/2000/svg" xmlns:xlink="http://www.w3.org/1999/xlink" xml:space="preserve" onload="init(evt)">
        <defs>
                <circle id="rim" cx="0" cy="0" r="7"/>
                <circle id="rim2" cx="0" cy="0" r="3.5"/>
                <g id="zoomPlus">
                        <use xlink:href="#rim" fill="#404040">
                                <set attributeName="fill" to="#808080" begin="zoomplus.mouseover" end="zoomplus.mouseout"/>
                        </use>
                        <path d="M-4,0h8M0,-4v8" fill="none" stroke="white" stroke-width="1.5" pointer-events="none"/>
                </g>
                <g id="zoomMin">
                        <use xlink:href="#rim" fill="#404040">
                                <set attributeName="fill" to="#808080" begin="zoomminus.mouseover" end="zoomminus.mouseout"/>
                        </use>
                        <path d="M-4,0h8" fill="none" stroke="white" stroke-width="1.5" pointer-events="none"/>
                </g>
                <g id="dirArrow">
                        <path fill="none" stroke="white" stroke-width="1.5" d="M0,-3.0v7 M-2.5,-0.5L0,-3.0L2.5,-0.5"/>
                </g>
               <g id="resetDef">
                       <use xlink:href="#rim2" fill="#404040">
                               <set attributeName="fill" to="#808080" begin="reset.mouseover" end="reset.mouseout"/>
                       </use>
               </g>
        </defs>

<script type="text/javascript">
var viewWidth = 1250;
var viewHeight = 91;
var sectionId = 'dynsection-2';
</script>
<script xlink:href="svgpan.js"/>
<svg id="graph" class="graph">
<g id="viewport">
<title>G</title>
<!-- Node1 -->
<g id="node1" class="node"><title>Node1</title>
<polygon fill="#bfbfbf" stroke="black" points="0.253418,-19.9336 0.253418,-42.0664 271.747,-42.0664 271.747,-19.9336 0.253418,-19.9336"/>
<text text-anchor="middle" x="136" y="-28.0664" font-family="sans-serif" font-size="10.00">com.google.appengine.codelab.ItemServlet.doDelete</text>
</g>
<!-- Node2 -->
<g id="node3" class="node"><title>Node2</title>
<a xlink:href="classcom_1_1google_1_1appengine_1_1codelab_1_1_item.xhtml#a43b58e542f3362d9d1f3c35cc0d27d4d" target="_top" xlink:title="com.google.appengine.codelab.Item.deleteItem">
<polygon fill="none" stroke="black" points="320.519,-40.9336 320.519,-63.0664 567.481,-63.0664 567.481,-40.9336 320.519,-40.9336"/>
<text text-anchor="middle" x="444" y="-49.0664" font-family="sans-serif" font-size="10.00">com.google.appengine.codelab.Item.deleteItem</text>
</a>
</g>
<!-- Node1&#45;&gt;Node2 -->
<g id="edge2" class="edge"><title>Node1&#45;&gt;Node2</title>
<path fill="none" stroke="midnightblue" d="M272.107,-40.272C284.74,-41.139 297.538,-42.0173 310.15,-42.8829"/>
<polygon fill="midnightblue" stroke="midnightblue" points="310.002,-46.3809 320.219,-43.5738 310.482,-39.3973 310.002,-46.3809"/>
</g>
<!-- Node6 -->
<g id="node11" class="node"><title>Node6</title>
<a xlink:href="classcom_1_1google_1_1appengine_1_1codelab_1_1_util.xhtml#a0d7e9492450f9aaaaf6b8b4e8a9d7890" target="_top" xlink:title="com.google.appengine.codelab.Util.getErrorMessage">
<polygon fill="none" stroke="black" points="308.095,0.0664062 308.095,-22.0664 579.905,-22.0664 579.905,0.0664062 308.095,0.0664062"/>
<text text-anchor="middle" x="444" y="-8.06641" font-family="sans-serif" font-size="10.00">com.google.appengine.codelab.Util.getErrorMessage</text>
</a>
</g>
<!-- Node1&#45;&gt;Node6 -->
<g id="edge10" class="edge"><title>Node1&#45;&gt;Node6</title>
<path fill="none" stroke="midnightblue" d="M272.107,-22.1695C280.622,-21.6129 289.213,-21.0515 297.771,-20.4921"/>
<polygon fill="midnightblue" stroke="midnightblue" points="298.045,-23.9817 307.796,-19.8369 297.589,-16.9966 298.045,-23.9817"/>
</g>
<!-- Node3 -->
<g id="node5" class="node"><title>Node3</title>
<a xlink:href="classcom_1_1google_1_1appengine_1_1codelab_1_1_item.xhtml#addfefc24274a9ae1e62dc123e4bc2a68" target="_top" xlink:title="com.google.appengine.codelab.Item.getSingleItem">
<polygon fill="none" stroke="black" points="615.975,-60.9336 615.975,-83.0664 878.025,-83.0664 878.025,-60.9336 615.975,-60.9336"/>
<text text-anchor="middle" x="747" y="-69.0664" font-family="sans-serif" font-size="10.00">com.google.appengine.codelab.Item.getSingleItem</text>
</a>
</g>
<!-- Node2&#45;&gt;Node3 -->
<g id="edge4" class="edge"><title>Node2&#45;&gt;Node3</title>
<path fill="none" stroke="midnightblue" d="M567.862,-60.1636C580.304,-60.9903 593.007,-61.8344 605.615,-62.6721"/>
<polygon fill="midnightblue" stroke="midnightblue" points="605.489,-66.1714 615.699,-63.3422 605.954,-59.1868 605.489,-66.1714"/>
</g>
<!-- Node5 -->
<g id="node9" class="node"><title>Node5</title>
<a xlink:href="classcom_1_1google_1_1appengine_1_1codelab_1_1_util.xhtml#a04a02f078a3bd61f4bb36b48b4580c58" target="_top" xlink:title="com.google.appengine.codelab.Util.deleteEntity">
<polygon fill="none" stroke="black" points="623.211,-19.9336 623.211,-42.0664 870.789,-42.0664 870.789,-19.9336 623.211,-19.9336"/>
<text text-anchor="middle" x="747" y="-28.0664" font-family="sans-serif" font-size="10.00">com.google.appengine.codelab.Util.deleteEntity</text>
</a>
</g>
<!-- Node2&#45;&gt;Node5 -->
<g id="edge8" class="edge"><title>Node2&#45;&gt;Node5</title>
<path fill="none" stroke="midnightblue" d="M567.862,-43.4282C582.655,-42.3962 597.817,-41.3384 612.749,-40.2966"/>
<polygon fill="midnightblue" stroke="midnightblue" points="613.311,-43.766 623.043,-39.5784 612.823,-36.783 613.311,-43.766"/>
</g>
<!-- Node4 -->
<g id="node7" class="node"><title>Node4</title>
<a xlink:href="classcom_1_1google_1_1appengine_1_1codelab_1_1_util.xhtml#a097d93268afc438617bd7e13f0f0f5e7" target="_top" xlink:title="com.google.appengine.codelab.Util.getDatastoreServiceInstance">
<polygon fill="none" stroke="black" points="914.331,-60.9336 914.331,-83.0664 1241.67,-83.0664 1241.67,-60.9336 914.331,-60.9336"/>
<text text-anchor="middle" x="1078" y="-69.0664" font-family="sans-serif" font-size="10.00">com.google.appengine.codelab.Util.getDatastoreServiceInstance</text>
</a>
</g>
<!-- Node3&#45;&gt;Node4 -->
<g id="edge6" class="edge"><title>Node3&#45;&gt;Node4</title>
<path fill="none" stroke="midnightblue" d="M878.03,-72C886.55,-72 895.199,-72 903.881,-72"/>
<polygon fill="midnightblue" stroke="midnightblue" points="904.081,-75.5001 914.081,-72 904.081,-68.5001 904.081,-75.5001"/>
</g>
</g>
</svg>
        <g id="navigator" transform="translate(0 0)" fill="#404254">
                <rect fill="#f2f5e9" fill-opacity="0.5" stroke="#606060" stroke-width=".5" x="0" y="0" width="60" height="60"/>
                <use id="zoomplus" xlink:href="#zoomPlus" x="17" y="9" onmousedown="handleZoom(evt,'in')"/>
                <use id="zoomminus" xlink:href="#zoomMin" x="42" y="9" onmousedown="handleZoom(evt,'out')"/>
                <use id="reset" xlink:href="#resetDef" x="30" y="36" onmousedown="handleReset()"/>
                <g id="arrowUp" xlink:href="#dirArrow" transform="translate(30 24)" onmousedown="handlePan(0,-1)">
                  <use xlink:href="#rim" fill="#404040">
                        <set attributeName="fill" to="#808080" begin="arrowUp.mouseover" end="arrowUp.mouseout"/>
                  </use>
                  <path fill="none" stroke="white" stroke-width="1.5" d="M0,-3.0v7 M-2.5,-0.5L0,-3.0L2.5,-0.5"/>
                </g>
                <g id="arrowRight" xlink:href="#dirArrow" transform="rotate(90) translate(36 -43)" onmousedown="handlePan(1,0)">
                  <use xlink:href="#rim" fill="#404040">
                        <set attributeName="fill" to="#808080" begin="arrowRight.mouseover" end="arrowRight.mouseout"/>
                  </use>
                  <path fill="none" stroke="white" stroke-width="1.5" d="M0,-3.0v7 M-2.5,-0.5L0,-3.0L2.5,-0.5"/>
                </g>
                <g id="arrowDown" xlink:href="#dirArrow" transform="rotate(180) translate(-30 -48)" onmousedown="handlePan(0,1)">
                  <use xlink:href="#rim" fill="#404040">
                        <set attributeName="fill" to="#808080" begin="arrowDown.mouseover" end="arrowDown.mouseout"/>
                  </use>
                  <path fill="none" stroke="white" stroke-width="1.5" d="M0,-3.0v7 M-2.5,-0.5L0,-3.0L2.5,-0.5"/>
                </g>
                <g id="arrowLeft" xlink:href="#dirArrow" transform="rotate(270) translate(-36 17)" onmousedown="handlePan(-1,0)">
                  <use xlink:href="#rim" fill="#404040">
                        <set attributeName="fill" to="#808080" begin="arrowLeft.mouseover" end="arrowLeft.mouseout"/>
                  </use>
                  <path fill="none" stroke="white" stroke-width="1.5" d="M0,-3.0v7 M-2.5,-0.5L0,-3.0L2.5,-0.5"/>
                </g>
        </g>
        <svg viewBox="0 0 25 25" width="100%" height="30px" preserveAspectRatio="xMaxYMin meet"> 
          <g id="printButton" transform="scale(0.4 0.4)" onmousedown="handlePrint(evt)">
            <rect height="23.33753581" id="paper" rx="2" style="fill:#f2f5e9;fill-rule:evenodd;stroke:#111111;stroke-width:3.224;stroke-linejoin:round;" transform="matrix(1.000000,0.000000,-0.339266,0.940691,0.000000,0.000000)" width="25.55231285" x="26.69387353" y="7.36162977"/>
            <rect height="26.272097" id="body" rx="2" style="fill:#404040;fill-rule:evenodd;stroke:#111111;stroke-width:3.125;stroke-linejoin:round;" width="50" x="4.5295201" y="27.078951"/>
            <rect height="8.27750969" id="tray" style="fill:#d2d5c9;fill-rule:evenodd;stroke:#111111;stroke-width:3.125;stroke-linecap:round;stroke-linejoin:round;" width="40" x="10.28778839" y="44.96812282"/>
          </g>
        </svg>
</svg>
