<?xml version="1.0" encoding="UTF-8" standalone="no"?>
<!DOCTYPE svg PUBLIC "-//W3C//DTD SVG 1.1//EN"
 "http://www.w3.org/Graphics/SVG/1.1/DTD/svg11.dtd">
<!-- Generated by graphviz version 2.28.0 (20111028.1807)
 -->
<!-- Title: G Pages: 1 -->
<svg width="432pt" height="71pt"
 viewBox="0.00 0.00 432.00 71.00" xmlns="http://www.w3.org/2000/svg" xmlns:xlink="http://www.w3.org/1999/xlink">
<g id="graph1" class="graph" transform="scale(1 1) rotate(0) translate(4 67)">
<title>G</title>
<!-- Node1 -->
<g id="node1" class="node"><title>Node1</title>
<polygon fill="#bfbfbf" stroke="black" points="0.746094,-19.9336 0.746094,-42.0664 207.254,-42.0664 207.254,-19.9336 0.746094,-19.9336"/>
<text text-anchor="middle" x="104" y="-28.0664" font-family="sans-serif" font-size="10.00">csc440.nuf.components.SMILText.draw</text>
</g>
<!-- Node2 -->
<g id="node3" class="node"><title>Node2</title>
<a xlink:href="classcsc440_1_1nuf_1_1complay_1_1_waiting.xhtml#aaa8d6d536f680a183de75424e4d95627" target="_top" xlink:title="csc440.nuf.complay.Waiting.Q">
<polygon fill="none" stroke="black" points="252.301,-40.9336 252.301,-63.0664 415.699,-63.0664 415.699,-40.9336 252.301,-40.9336"/>
<text text-anchor="middle" x="334" y="-49.0664" font-family="sans-serif" font-size="10.00">csc440.nuf.complay.Waiting.Q</text>
</a>
</g>
<!-- Node1&#45;&gt;Node2 -->
<g id="edge2" class="edge"><title>Node1&#45;&gt;Node2</title>
<path fill="none" stroke="midnightblue" d="M207.329,-40.425C218.957,-41.496 230.749,-42.5822 242.214,-43.6381"/>
<polygon fill="midnightblue" stroke="midnightblue" points="241.914,-47.1252 252.193,-44.5572 242.556,-40.1547 241.914,-47.1252"/>
</g>
<!-- Node3 -->
<g id="node5" class="node"><title>Node3</title>
<a xlink:href="classcsc440_1_1nuf_1_1complay_1_1_q.xhtml#ab4cfe319143b0b8147222d71b1a7e474" target="_top" xlink:title="csc440.nuf.complay.Q.getDensity">
<polygon fill="none" stroke="black" points="244.438,0.0664062 244.438,-22.0664 423.562,-22.0664 423.562,0.0664062 244.438,0.0664062"/>
<text text-anchor="middle" x="334" y="-8.06641" font-family="sans-serif" font-size="10.00">csc440.nuf.complay.Q.getDensity</text>
</a>
</g>
<!-- Node1&#45;&gt;Node3 -->
<g id="edge4" class="edge"><title>Node1&#45;&gt;Node3</title>
<path fill="none" stroke="midnightblue" d="M207.329,-22.0238C216.274,-21.2391 225.316,-20.4459 234.232,-19.6639"/>
<polygon fill="midnightblue" stroke="midnightblue" points="234.576,-23.1472 244.232,-18.7867 233.964,-16.174 234.576,-23.1472"/>
</g>
</g>
</svg>
