<?xml version="1.0" encoding="UTF-8" standalone="no"?>
<!DOCTYPE svg PUBLIC "-//W3C//DTD SVG 1.1//EN"
 "http://www.w3.org/Graphics/SVG/1.1/DTD/svg11.dtd">
<!-- Generated by graphviz version 2.28.0 (20111028.1807)
 -->
<!-- Title: G Pages: 1 -->
<!--zoomable 235 -->
<svg id="main" version="1.1" xmlns="http://www.w3.org/2000/svg" xmlns:xlink="http://www.w3.org/1999/xlink" xml:space="preserve" onload="init(evt)">
        <defs>
                <circle id="rim" cx="0" cy="0" r="7"/>
                <circle id="rim2" cx="0" cy="0" r="3.5"/>
                <g id="zoomPlus">
                        <use xlink:href="#rim" fill="#404040">
                                <set attributeName="fill" to="#808080" begin="zoomplus.mouseover" end="zoomplus.mouseout"/>
                        </use>
                        <path d="M-4,0h8M0,-4v8" fill="none" stroke="white" stroke-width="1.5" pointer-events="none"/>
                </g>
                <g id="zoomMin">
                        <use xlink:href="#rim" fill="#404040">
                                <set attributeName="fill" to="#808080" begin="zoomminus.mouseover" end="zoomminus.mouseout"/>
                        </use>
                        <path d="M-4,0h8" fill="none" stroke="white" stroke-width="1.5" pointer-events="none"/>
                </g>
                <g id="dirArrow">
                        <path fill="none" stroke="white" stroke-width="1.5" d="M0,-3.0v7 M-2.5,-0.5L0,-3.0L2.5,-0.5"/>
                </g>
               <g id="resetDef">
                       <use xlink:href="#rim2" fill="#404040">
                               <set attributeName="fill" to="#808080" begin="reset.mouseover" end="reset.mouseout"/>
                       </use>
               </g>
        </defs>

<script type="text/javascript">
var viewWidth = 662;
var viewHeight = 235;
var sectionId = 'dynsection-2';
</script>
<script xlink:href="svgpan.js"/>
<svg id="graph" class="graph">
<g id="viewport">
<title>G</title>
<!-- Node1 -->
<g id="node1" class="node"><title>Node1</title>
<polygon fill="#bfbfbf" stroke="black" points="0.249512,-101.934 0.249512,-124.066 269.75,-124.066 269.75,-101.934 0.249512,-101.934"/>
<text text-anchor="middle" x="135" y="-110.066" font-family="sans-serif" font-size="10.00">com.thira.examples.actionbar.MainActivity.onCreate</text>
</g>
<!-- Node2 -->
<g id="node3" class="node"><title>Node2</title>
<a xlink:href="classcom_1_1thira_1_1examples_1_1actionbar_1_1widget_1_1_action_bar.xhtml#a9940796cc1b0e1a6169da32cf75593e9" target="_top" xlink:title="com.thira.examples.actionbar.widget.ActionBar.setTitle">
<polygon fill="none" stroke="black" points="337.693,-204.934 337.693,-227.066 622.307,-227.066 622.307,-204.934 337.693,-204.934"/>
<text text-anchor="middle" x="480" y="-213.066" font-family="sans-serif" font-size="10.00">com.thira.examples.actionbar.widget.ActionBar.setTitle</text>
</a>
</g>
<!-- Node1&#45;&gt;Node2 -->
<g id="edge2" class="edge"><title>Node1&#45;&gt;Node2</title>
<path fill="none" stroke="midnightblue" d="M154.062,-124.195C184.273,-142.338 247.512,-177.857 306,-195 316.554,-198.093 327.599,-200.732 338.783,-202.982"/>
<polygon fill="midnightblue" stroke="midnightblue" points="338.16,-206.426 348.638,-204.861 339.471,-199.55 338.16,-206.426"/>
</g>
<!-- Node3 -->
<g id="node5" class="node"><title>Node3</title>
<a xlink:href="classcom_1_1thira_1_1examples_1_1actionbar_1_1widget_1_1_action_bar.xhtml#a3fae9dd666ad12891b9d9a96918652de" target="_top" xlink:title="com.thira.examples.actionbar.widget.ActionBar.setHomeLogo">
<polygon fill="none" stroke="black" points="322.276,-163.934 322.276,-186.066 637.724,-186.066 637.724,-163.934 322.276,-163.934"/>
<text text-anchor="middle" x="480" y="-172.066" font-family="sans-serif" font-size="10.00">com.thira.examples.actionbar.widget.ActionBar.setHomeLogo</text>
</a>
</g>
<!-- Node1&#45;&gt;Node3 -->
<g id="edge4" class="edge"><title>Node1&#45;&gt;Node3</title>
<path fill="none" stroke="midnightblue" d="M176.252,-124.103C210.523,-133.219 261.185,-145.904 306,-154 323.919,-157.237 342.974,-160.113 361.64,-162.618"/>
<polygon fill="midnightblue" stroke="midnightblue" points="361.288,-166.102 371.658,-163.933 362.199,-159.161 361.288,-166.102"/>
</g>
<!-- Node4 -->
<g id="node7" class="node"><title>Node4</title>
<a xlink:href="classcom_1_1thira_1_1examples_1_1actionbar_1_1widget_1_1_action_bar.xhtml#a1483342c600fcea3fe48953f8773ac18" target="_top" xlink:title="com.thira.examples.actionbar.widget.ActionBar.showProgressBar">
<polygon fill="none" stroke="black" points="314.419,-122.934 314.419,-145.066 645.581,-145.066 645.581,-122.934 314.419,-122.934"/>
<text text-anchor="middle" x="480" y="-131.066" font-family="sans-serif" font-size="10.00">com.thira.examples.actionbar.widget.ActionBar.showProgressBar</text>
</a>
</g>
<!-- Node1&#45;&gt;Node4 -->
<g id="edge6" class="edge"><title>Node1&#45;&gt;Node4</title>
<path fill="none" stroke="midnightblue" d="M270.086,-121.209C281.276,-121.894 292.69,-122.593 304.123,-123.293"/>
<polygon fill="midnightblue" stroke="midnightblue" points="303.975,-126.791 314.171,-123.908 304.403,-119.804 303.975,-126.791"/>
</g>
<!-- Node5 -->
<g id="node9" class="node"><title>Node5</title>
<a xlink:href="classcom_1_1thira_1_1examples_1_1actionbar_1_1widget_1_1_action_bar.xhtml#a29a2b3a12e2ad549fc16eeef9e81714f" target="_top" xlink:title="com.thira.examples.actionbar.widget.ActionBar.hideProgressBar">
<polygon fill="none" stroke="black" points="316.514,-81.9336 316.514,-104.066 643.486,-104.066 643.486,-81.9336 316.514,-81.9336"/>
<text text-anchor="middle" x="480" y="-90.0664" font-family="sans-serif" font-size="10.00">com.thira.examples.actionbar.widget.ActionBar.hideProgressBar</text>
</a>
</g>
<!-- Node1&#45;&gt;Node5 -->
<g id="edge8" class="edge"><title>Node1&#45;&gt;Node5</title>
<path fill="none" stroke="midnightblue" d="M270.086,-105.182C281.977,-104.488 294.119,-103.78 306.27,-103.072"/>
<polygon fill="midnightblue" stroke="midnightblue" points="306.693,-106.553 316.473,-102.477 306.286,-99.5649 306.693,-106.553"/>
</g>
<!-- Node6 -->
<g id="node11" class="node"><title>Node6</title>
<a xlink:href="classcom_1_1thira_1_1examples_1_1actionbar_1_1widget_1_1_action_bar.xhtml#a0e3a9b81ca94496856105e3390f34266" target="_top" xlink:title="com.thira.examples.actionbar.widget.ActionBar.addActionIcon">
<polygon fill="none" stroke="black" points="320.875,-40.9336 320.875,-63.0664 639.125,-63.0664 639.125,-40.9336 320.875,-40.9336"/>
<text text-anchor="middle" x="480" y="-49.0664" font-family="sans-serif" font-size="10.00">com.thira.examples.actionbar.widget.ActionBar.addActionIcon</text>
</a>
</g>
<!-- Node1&#45;&gt;Node6 -->
<g id="edge10" class="edge"><title>Node1&#45;&gt;Node6</title>
<path fill="none" stroke="midnightblue" d="M175.898,-101.923C210.166,-92.7597 261.013,-79.9948 306,-72 321.9,-69.1743 338.697,-66.657 355.324,-64.4426"/>
<polygon fill="midnightblue" stroke="midnightblue" points="356.179,-67.8611 365.645,-63.1028 355.277,-60.9193 356.179,-67.8611"/>
</g>
<!-- Node7 -->
<g id="node13" class="node"><title>Node7</title>
<a xlink:href="classcom_1_1thira_1_1examples_1_1actionbar_1_1widget_1_1_action_bar.xhtml#ad83d48f27fc9972e22c0b3605f4a45ea" target="_top" xlink:title="com.thira.examples.actionbar.widget.ActionBar.removeActionIconAt">
<polygon fill="none" stroke="black" points="306.666,0.0664062 306.666,-22.0664 653.334,-22.0664 653.334,0.0664062 306.666,0.0664062"/>
<text text-anchor="middle" x="480" y="-8.06641" font-family="sans-serif" font-size="10.00">com.thira.examples.actionbar.widget.ActionBar.removeActionIconAt</text>
</a>
</g>
<!-- Node1&#45;&gt;Node7 -->
<g id="edge12" class="edge"><title>Node1&#45;&gt;Node7</title>
<path fill="none" stroke="midnightblue" d="M154.051,-101.768C184.246,-83.571 247.464,-47.9759 306,-31 315.052,-28.3749 324.464,-26.0926 334.015,-24.1085"/>
<polygon fill="midnightblue" stroke="midnightblue" points="334.871,-27.5074 344.009,-22.1469 333.522,-20.6385 334.871,-27.5074"/>
</g>
</g>
</svg>
        <g id="navigator" transform="translate(0 0)" fill="#404254">
                <rect fill="#f2f5e9" fill-opacity="0.5" stroke="#606060" stroke-width=".5" x="0" y="0" width="60" height="60"/>
                <use id="zoomplus" xlink:href="#zoomPlus" x="17" y="9" onmousedown="handleZoom(evt,'in')"/>
                <use id="zoomminus" xlink:href="#zoomMin" x="42" y="9" onmousedown="handleZoom(evt,'out')"/>
                <use id="reset" xlink:href="#resetDef" x="30" y="36" onmousedown="handleReset()"/>
                <g id="arrowUp" xlink:href="#dirArrow" transform="translate(30 24)" onmousedown="handlePan(0,-1)">
                  <use xlink:href="#rim" fill="#404040">
                        <set attributeName="fill" to="#808080" begin="arrowUp.mouseover" end="arrowUp.mouseout"/>
                  </use>
                  <path fill="none" stroke="white" stroke-width="1.5" d="M0,-3.0v7 M-2.5,-0.5L0,-3.0L2.5,-0.5"/>
                </g>
                <g id="arrowRight" xlink:href="#dirArrow" transform="rotate(90) translate(36 -43)" onmousedown="handlePan(1,0)">
                  <use xlink:href="#rim" fill="#404040">
                        <set attributeName="fill" to="#808080" begin="arrowRight.mouseover" end="arrowRight.mouseout"/>
                  </use>
                  <path fill="none" stroke="white" stroke-width="1.5" d="M0,-3.0v7 M-2.5,-0.5L0,-3.0L2.5,-0.5"/>
                </g>
                <g id="arrowDown" xlink:href="#dirArrow" transform="rotate(180) translate(-30 -48)" onmousedown="handlePan(0,1)">
                  <use xlink:href="#rim" fill="#404040">
                        <set attributeName="fill" to="#808080" begin="arrowDown.mouseover" end="arrowDown.mouseout"/>
                  </use>
                  <path fill="none" stroke="white" stroke-width="1.5" d="M0,-3.0v7 M-2.5,-0.5L0,-3.0L2.5,-0.5"/>
                </g>
                <g id="arrowLeft" xlink:href="#dirArrow" transform="rotate(270) translate(-36 17)" onmousedown="handlePan(-1,0)">
                  <use xlink:href="#rim" fill="#404040">
                        <set attributeName="fill" to="#808080" begin="arrowLeft.mouseover" end="arrowLeft.mouseout"/>
                  </use>
                  <path fill="none" stroke="white" stroke-width="1.5" d="M0,-3.0v7 M-2.5,-0.5L0,-3.0L2.5,-0.5"/>
                </g>
        </g>
        <svg viewBox="0 0 25 25" width="100%" height="30px" preserveAspectRatio="xMaxYMin meet"> 
          <g id="printButton" transform="scale(0.4 0.4)" onmousedown="handlePrint(evt)">
            <rect height="23.33753581" id="paper" rx="2" style="fill:#f2f5e9;fill-rule:evenodd;stroke:#111111;stroke-width:3.224;stroke-linejoin:round;" transform="matrix(1.000000,0.000000,-0.339266,0.940691,0.000000,0.000000)" width="25.55231285" x="26.69387353" y="7.36162977"/>
            <rect height="26.272097" id="body" rx="2" style="fill:#404040;fill-rule:evenodd;stroke:#111111;stroke-width:3.125;stroke-linejoin:round;" width="50" x="4.5295201" y="27.078951"/>
            <rect height="8.27750969" id="tray" style="fill:#d2d5c9;fill-rule:evenodd;stroke:#111111;stroke-width:3.125;stroke-linecap:round;stroke-linejoin:round;" width="40" x="10.28778839" y="44.96812282"/>
          </g>
        </svg>
</svg>
