<?xml version="1.0" encoding="UTF-8" standalone="no"?>
<!DOCTYPE svg PUBLIC "-//W3C//DTD SVG 1.1//EN"
 "http://www.w3.org/Graphics/SVG/1.1/DTD/svg11.dtd">
<!-- Generated by graphviz version 2.28.0 (20111028.1807)
 -->
<!-- Title: G Pages: 1 -->
<!--zoomable 231 -->
<svg id="main" version="1.1" xmlns="http://www.w3.org/2000/svg" xmlns:xlink="http://www.w3.org/1999/xlink" xml:space="preserve" onload="init(evt)">
        <defs>
                <circle id="rim" cx="0" cy="0" r="7"/>
                <circle id="rim2" cx="0" cy="0" r="3.5"/>
                <g id="zoomPlus">
                        <use xlink:href="#rim" fill="#404040">
                                <set attributeName="fill" to="#808080" begin="zoomplus.mouseover" end="zoomplus.mouseout"/>
                        </use>
                        <path d="M-4,0h8M0,-4v8" fill="none" stroke="white" stroke-width="1.5" pointer-events="none"/>
                </g>
                <g id="zoomMin">
                        <use xlink:href="#rim" fill="#404040">
                                <set attributeName="fill" to="#808080" begin="zoomminus.mouseover" end="zoomminus.mouseout"/>
                        </use>
                        <path d="M-4,0h8" fill="none" stroke="white" stroke-width="1.5" pointer-events="none"/>
                </g>
                <g id="dirArrow">
                        <path fill="none" stroke="white" stroke-width="1.5" d="M0,-3.0v7 M-2.5,-0.5L0,-3.0L2.5,-0.5"/>
                </g>
               <g id="resetDef">
                       <use xlink:href="#rim2" fill="#404040">
                               <set attributeName="fill" to="#808080" begin="reset.mouseover" end="reset.mouseout"/>
                       </use>
               </g>
        </defs>

<script type="text/javascript">
var viewWidth = 834;
var viewHeight = 231;
var sectionId = 'dynsection-5';
</script>
<script xlink:href="svgpan.js"/>
<svg id="graph" class="graph">
<g id="viewport">
<title>G</title>
<!-- Node1 -->
<g id="node1" class="node"><title>Node1</title>
<polygon fill="#bfbfbf" stroke="black" points="0.42041,-99.9336 0.42041,-122.066 219.58,-122.066 219.58,-99.9336 0.42041,-99.9336"/>
<text text-anchor="middle" x="110" y="-108.066" font-family="sans-serif" font-size="10.00">csc440.nuf.server.DataStore.getUserEmail</text>
</g>
<!-- Node2 -->
<g id="node3" class="node"><title>Node2</title>
<a xlink:href="classcsc440_1_1nuf_1_1server_1_1_data_store.xhtml#ae6c7e81006cca7f550337a8ac3c84a47" target="_top" xlink:title="csc440.nuf.server.DataStore.find">
<polygon fill="none" stroke="black" points="287.596,-200.934 287.596,-223.066 462.404,-223.066 462.404,-200.934 287.596,-200.934"/>
<text text-anchor="middle" x="375" y="-209.066" font-family="sans-serif" font-size="10.00">csc440.nuf.server.DataStore.find</text>
</a>
</g>
<!-- Node1&#45;&gt;Node2 -->
<g id="edge2" class="edge"><title>Node1&#45;&gt;Node2</title>
<path fill="none" stroke="midnightblue" d="M135.465,-127.797C163.379,-146.156 211,-175.074 256,-191 267.279,-194.992 279.444,-198.25 291.529,-200.902"/>
<polygon fill="midnightblue" stroke="midnightblue" points="137.385,-124.87 127.123,-122.237 133.503,-130.695 137.385,-124.87"/>
</g>
<!-- Node4 -->
<g id="node7" class="node"><title>Node4</title>
<a xlink:href="classcsc440_1_1nuf_1_1server_1_1_data_store.xhtml#adeb95b19f2aef0eae3d55b5aabf63660" target="_top" xlink:title="csc440.nuf.server.DataStore.findAll">
<polygon fill="none" stroke="black" points="281.255,-159.934 281.255,-182.066 468.745,-182.066 468.745,-159.934 281.255,-159.934"/>
<text text-anchor="middle" x="375" y="-168.066" font-family="sans-serif" font-size="10.00">csc440.nuf.server.DataStore.findAll</text>
</a>
</g>
<!-- Node1&#45;&gt;Node4 -->
<g id="edge6" class="edge"><title>Node1&#45;&gt;Node4</title>
<path fill="none" stroke="midnightblue" d="M167.621,-124.463C194.398,-130.782 226.825,-138.366 256,-145 277.887,-149.977 302.092,-155.336 322.854,-159.888"/>
<polygon fill="midnightblue" stroke="midnightblue" points="168.191,-121.001 157.654,-122.108 166.581,-127.813 168.191,-121.001"/>
</g>
<!-- Node6 -->
<g id="node11" class="node"><title>Node6</title>
<a xlink:href="classcsc440_1_1nuf_1_1server_1_1_data_store.xhtml#ab66ed1adeb1a5ee0ce37bf5404909e11" target="_top" xlink:title="csc440.nuf.server.DataStore.update">
<polygon fill="none" stroke="black" points="280.254,-79.9336 280.254,-102.066 469.746,-102.066 469.746,-79.9336 280.254,-79.9336"/>
<text text-anchor="middle" x="375" y="-88.0664" font-family="sans-serif" font-size="10.00">csc440.nuf.server.DataStore.update</text>
</a>
</g>
<!-- Node1&#45;&gt;Node6 -->
<g id="edge10" class="edge"><title>Node1&#45;&gt;Node6</title>
<path fill="none" stroke="midnightblue" d="M230.198,-101.935C246.856,-100.669 263.779,-99.3818 279.886,-98.157"/>
<polygon fill="midnightblue" stroke="midnightblue" points="229.576,-98.4726 219.871,-102.721 230.107,-105.452 229.576,-98.4726"/>
</g>
<!-- Node7 -->
<g id="node13" class="node"><title>Node7</title>
<a xlink:href="classcsc440_1_1nuf_1_1server_1_1_s_m_i_l_engine_service.xhtml#a3b83cad8892f2616c9107132e9335272" target="_top" xlink:title="csc440.nuf.server.SMILEngineService.createSMILMessage">
<polygon fill="none" stroke="black" points="532.627,-109.934 532.627,-132.066 823.373,-132.066 823.373,-109.934 532.627,-109.934"/>
<text text-anchor="middle" x="678" y="-118.066" font-family="sans-serif" font-size="10.00">csc440.nuf.server.SMILEngineService.createSMILMessage</text>
</a>
</g>
<!-- Node1&#45;&gt;Node7 -->
<g id="edge16" class="edge"><title>Node1&#45;&gt;Node7</title>
<path fill="none" stroke="midnightblue" d="M229.841,-113.1C318.004,-114.657 438.656,-116.789 532.415,-118.445"/>
<polygon fill="midnightblue" stroke="midnightblue" points="229.856,-109.599 219.795,-112.922 229.732,-116.598 229.856,-109.599"/>
</g>
<!-- Node8 -->
<g id="node15" class="node"><title>Node8</title>
<a xlink:href="classcsc440_1_1nuf_1_1server_1_1_s_m_i_l_engine_service.xhtml#a2c28cf08855cb6e77d5b774321f245d0" target="_top" xlink:title="csc440.nuf.server.SMILEngineService.updateSMILMessage">
<polygon fill="none" stroke="black" points="530.623,-50.9336 530.623,-73.0664 825.377,-73.0664 825.377,-50.9336 530.623,-50.9336"/>
<text text-anchor="middle" x="678" y="-59.0664" font-family="sans-serif" font-size="10.00">csc440.nuf.server.SMILEngineService.updateSMILMessage</text>
</a>
</g>
<!-- Node1&#45;&gt;Node8 -->
<g id="edge18" class="edge"><title>Node1&#45;&gt;Node8</title>
<path fill="none" stroke="midnightblue" d="M151.299,-96.5922C180.061,-87.0568 219.889,-75.3573 256,-70 346.571,-56.5632 449.293,-54.3595 530.596,-55.6136"/>
<polygon fill="midnightblue" stroke="midnightblue" points="149.967,-93.3475 141.611,-99.8608 152.205,-99.9802 149.967,-93.3475"/>
</g>
<!-- Node9 -->
<g id="node19" class="node"><title>Node9</title>
<a xlink:href="classcsc440_1_1nuf_1_1server_1_1_s_m_i_l_message_locator.xhtml#ab7bbcf409e81bffa7b1ebcae40e80f89" target="_top" xlink:title="csc440.nuf.server.SMILMessageLocator.create">
<polygon fill="none" stroke="black" points="255.855,0.0664062 255.855,-22.0664 494.145,-22.0664 494.145,0.0664062 255.855,0.0664062"/>
<text text-anchor="middle" x="375" y="-8.06641" font-family="sans-serif" font-size="10.00">csc440.nuf.server.SMILMessageLocator.create</text>
</a>
</g>
<!-- Node1&#45;&gt;Node9 -->
<g id="edge20" class="edge"><title>Node1&#45;&gt;Node9</title>
<path fill="none" stroke="midnightblue" d="M138.009,-94.5609C166.447,-77.8966 212.978,-52.4309 256,-37 272.981,-30.9092 291.87,-25.9765 309.468,-22.1111"/>
<polygon fill="midnightblue" stroke="midnightblue" points="135.907,-91.7379 129.09,-99.8477 139.477,-97.7596 135.907,-91.7379"/>
</g>
<!-- Node3 -->
<g id="node5" class="node"><title>Node3</title>
<a xlink:href="classcsc440_1_1nuf_1_1server_1_1_s_m_i_l_engine_service.xhtml#afd3deee2a9ec22cfeb37095d0b118e13" target="_top" xlink:title="csc440.nuf.server.SMILEngineService.readSMILMessage">
<polygon fill="none" stroke="black" points="536.697,-200.934 536.697,-223.066 819.303,-223.066 819.303,-200.934 536.697,-200.934"/>
<text text-anchor="middle" x="678" y="-209.066" font-family="sans-serif" font-size="10.00">csc440.nuf.server.SMILEngineService.readSMILMessage</text>
</a>
</g>
<!-- Node2&#45;&gt;Node3 -->
<g id="edge4" class="edge"><title>Node2&#45;&gt;Node3</title>
<path fill="none" stroke="midnightblue" d="M472.819,-212C493.138,-212 514.958,-212 536.505,-212"/>
<polygon fill="midnightblue" stroke="midnightblue" points="472.658,-208.5 462.658,-212 472.658,-215.5 472.658,-208.5"/>
</g>
<!-- Node5 -->
<g id="node9" class="node"><title>Node5</title>
<a xlink:href="classcsc440_1_1nuf_1_1server_1_1_s_m_i_l_engine_service.xhtml#aa5da8cd2b8d67fc8120eeb94f575b4c6" target="_top" xlink:title="csc440.nuf.server.SMILEngineService.querySMILMessages">
<polygon fill="none" stroke="black" points="531.194,-159.934 531.194,-182.066 824.806,-182.066 824.806,-159.934 531.194,-159.934"/>
<text text-anchor="middle" x="678" y="-168.066" font-family="sans-serif" font-size="10.00">csc440.nuf.server.SMILEngineService.querySMILMessages</text>
</a>
</g>
<!-- Node4&#45;&gt;Node5 -->
<g id="edge8" class="edge"><title>Node4&#45;&gt;Node5</title>
<path fill="none" stroke="midnightblue" d="M479.095,-171C495.878,-171 513.538,-171 531.114,-171"/>
<polygon fill="midnightblue" stroke="midnightblue" points="478.766,-167.5 468.766,-171 478.766,-174.5 478.766,-167.5"/>
</g>
<!-- Node6&#45;&gt;Node7 -->
<g id="edge12" class="edge"><title>Node6&#45;&gt;Node7</title>
<path fill="none" stroke="midnightblue" d="M480.083,-101.374C507.755,-104.132 537.749,-107.121 565.787,-109.916"/>
<polygon fill="midnightblue" stroke="midnightblue" points="480.298,-97.8779 470,-100.369 479.604,-104.843 480.298,-97.8779"/>
</g>
<!-- Node6&#45;&gt;Node8 -->
<g id="edge14" class="edge"><title>Node6&#45;&gt;Node8</title>
<path fill="none" stroke="midnightblue" d="M480.027,-80.9775C506.479,-78.4289 535.056,-75.6757 562.02,-73.0778"/>
<polygon fill="midnightblue" stroke="midnightblue" points="479.618,-77.5005 470,-81.9435 480.29,-84.4683 479.618,-77.5005"/>
</g>
<!-- Node10 -->
<g id="node21" class="node"><title>Node10</title>
<a xlink:href="classcsc440_1_1nuf_1_1server_1_1_s_m_i_l_message_locator.xhtml#a3fabe3cb299046a276f91cbdbb8479cf" target="_top" xlink:title="csc440.nuf.server.SMILMessageLocator.find">
<polygon fill="none" stroke="black" points="564.192,0.0664062 564.192,-22.0664 791.808,-22.0664 791.808,0.0664062 564.192,0.0664062"/>
<text text-anchor="middle" x="678" y="-8.06641" font-family="sans-serif" font-size="10.00">csc440.nuf.server.SMILMessageLocator.find</text>
</a>
</g>
<!-- Node9&#45;&gt;Node10 -->
<g id="edge22" class="edge"><title>Node9&#45;&gt;Node10</title>
<path fill="none" stroke="midnightblue" d="M504.775,-11C524.467,-11 544.666,-11 563.985,-11"/>
<polygon fill="midnightblue" stroke="midnightblue" points="504.531,-7.5001 494.531,-11 504.531,-14.5001 504.531,-7.5001"/>
</g>
</g>
</svg>
        <g id="navigator" transform="translate(0 0)" fill="#404254">
                <rect fill="#f2f5e9" fill-opacity="0.5" stroke="#606060" stroke-width=".5" x="0" y="0" width="60" height="60"/>
                <use id="zoomplus" xlink:href="#zoomPlus" x="17" y="9" onmousedown="handleZoom(evt,'in')"/>
                <use id="zoomminus" xlink:href="#zoomMin" x="42" y="9" onmousedown="handleZoom(evt,'out')"/>
                <use id="reset" xlink:href="#resetDef" x="30" y="36" onmousedown="handleReset()"/>
                <g id="arrowUp" xlink:href="#dirArrow" transform="translate(30 24)" onmousedown="handlePan(0,-1)">
                  <use xlink:href="#rim" fill="#404040">
                        <set attributeName="fill" to="#808080" begin="arrowUp.mouseover" end="arrowUp.mouseout"/>
                  </use>
                  <path fill="none" stroke="white" stroke-width="1.5" d="M0,-3.0v7 M-2.5,-0.5L0,-3.0L2.5,-0.5"/>
                </g>
                <g id="arrowRight" xlink:href="#dirArrow" transform="rotate(90) translate(36 -43)" onmousedown="handlePan(1,0)">
                  <use xlink:href="#rim" fill="#404040">
                        <set attributeName="fill" to="#808080" begin="arrowRight.mouseover" end="arrowRight.mouseout"/>
                  </use>
                  <path fill="none" stroke="white" stroke-width="1.5" d="M0,-3.0v7 M-2.5,-0.5L0,-3.0L2.5,-0.5"/>
                </g>
                <g id="arrowDown" xlink:href="#dirArrow" transform="rotate(180) translate(-30 -48)" onmousedown="handlePan(0,1)">
                  <use xlink:href="#rim" fill="#404040">
                        <set attributeName="fill" to="#808080" begin="arrowDown.mouseover" end="arrowDown.mouseout"/>
                  </use>
                  <path fill="none" stroke="white" stroke-width="1.5" d="M0,-3.0v7 M-2.5,-0.5L0,-3.0L2.5,-0.5"/>
                </g>
                <g id="arrowLeft" xlink:href="#dirArrow" transform="rotate(270) translate(-36 17)" onmousedown="handlePan(-1,0)">
                  <use xlink:href="#rim" fill="#404040">
                        <set attributeName="fill" to="#808080" begin="arrowLeft.mouseover" end="arrowLeft.mouseout"/>
                  </use>
                  <path fill="none" stroke="white" stroke-width="1.5" d="M0,-3.0v7 M-2.5,-0.5L0,-3.0L2.5,-0.5"/>
                </g>
        </g>
        <svg viewBox="0 0 25 25" width="100%" height="30px" preserveAspectRatio="xMaxYMin meet"> 
          <g id="printButton" transform="scale(0.4 0.4)" onmousedown="handlePrint(evt)">
            <rect height="23.33753581" id="paper" rx="2" style="fill:#f2f5e9;fill-rule:evenodd;stroke:#111111;stroke-width:3.224;stroke-linejoin:round;" transform="matrix(1.000000,0.000000,-0.339266,0.940691,0.000000,0.000000)" width="25.55231285" x="26.69387353" y="7.36162977"/>
            <rect height="26.272097" id="body" rx="2" style="fill:#404040;fill-rule:evenodd;stroke:#111111;stroke-width:3.125;stroke-linejoin:round;" width="50" x="4.5295201" y="27.078951"/>
            <rect height="8.27750969" id="tray" style="fill:#d2d5c9;fill-rule:evenodd;stroke:#111111;stroke-width:3.125;stroke-linecap:round;stroke-linejoin:round;" width="40" x="10.28778839" y="44.96812282"/>
          </g>
        </svg>
</svg>
