<?xml version="1.0" encoding="UTF-8" standalone="no"?>
<!DOCTYPE svg PUBLIC "-//W3C//DTD SVG 1.1//EN"
 "http://www.w3.org/Graphics/SVG/1.1/DTD/svg11.dtd">
<!-- Generated by graphviz version 2.28.0 (20111028.1807)
 -->
<!-- Title: G Pages: 1 -->
<!--zoomable 71 -->
<svg id="main" version="1.1" xmlns="http://www.w3.org/2000/svg" xmlns:xlink="http://www.w3.org/1999/xlink" xml:space="preserve" onload="init(evt)">
        <defs>
                <circle id="rim" cx="0" cy="0" r="7"/>
                <circle id="rim2" cx="0" cy="0" r="3.5"/>
                <g id="zoomPlus">
                        <use xlink:href="#rim" fill="#404040">
                                <set attributeName="fill" to="#808080" begin="zoomplus.mouseover" end="zoomplus.mouseout"/>
                        </use>
                        <path d="M-4,0h8M0,-4v8" fill="none" stroke="white" stroke-width="1.5" pointer-events="none"/>
                </g>
                <g id="zoomMin">
                        <use xlink:href="#rim" fill="#404040">
                                <set attributeName="fill" to="#808080" begin="zoomminus.mouseover" end="zoomminus.mouseout"/>
                        </use>
                        <path d="M-4,0h8" fill="none" stroke="white" stroke-width="1.5" pointer-events="none"/>
                </g>
                <g id="dirArrow">
                        <path fill="none" stroke="white" stroke-width="1.5" d="M0,-3.0v7 M-2.5,-0.5L0,-3.0L2.5,-0.5"/>
                </g>
               <g id="resetDef">
                       <use xlink:href="#rim2" fill="#404040">
                               <set attributeName="fill" to="#808080" begin="reset.mouseover" end="reset.mouseout"/>
                       </use>
               </g>
        </defs>

<script type="text/javascript">
var viewWidth = 894;
var viewHeight = 71;
var sectionId = 'dynsection-0';
</script>
<script xlink:href="svgpan.js"/>
<svg id="graph" class="graph">
<g id="viewport">
<title>G</title>
<!-- Node1 -->
<g id="node1" class="node"><title>Node1</title>
<polygon fill="#bfbfbf" stroke="black" points="0.211426,-19.9336 0.211426,-42.0664 247.789,-42.0664 247.789,-19.9336 0.211426,-19.9336"/>
<text text-anchor="middle" x="124" y="-28.0664" font-family="sans-serif" font-size="10.00">com.google.appengine.codelab.Util.deleteEntity</text>
</g>
<!-- Node2 -->
<g id="node3" class="node"><title>Node2</title>
<a xlink:href="classcom_1_1google_1_1appengine_1_1codelab_1_1_item.xhtml#a43b58e542f3362d9d1f3c35cc0d27d4d" target="_top" xlink:title="com.google.appengine.codelab.Item.deleteItem">
<polygon fill="none" stroke="black" points="299.519,-40.9336 299.519,-63.0664 546.481,-63.0664 546.481,-40.9336 299.519,-40.9336"/>
<text text-anchor="middle" x="423" y="-49.0664" font-family="sans-serif" font-size="10.00">com.google.appengine.codelab.Item.deleteItem</text>
</a>
</g>
<!-- Node1&#45;&gt;Node2 -->
<g id="edge2" class="edge"><title>Node1&#45;&gt;Node2</title>
<path fill="none" stroke="midnightblue" d="M258.302,-40.4254C271.899,-41.3868 285.669,-42.3604 299.147,-43.3134"/>
<polygon fill="midnightblue" stroke="midnightblue" points="258.167,-36.9072 247.945,-39.6931 257.673,-43.8898 258.167,-36.9072"/>
</g>
<!-- Node4 -->
<g id="node7" class="node"><title>Node4</title>
<a xlink:href="classcom_1_1google_1_1appengine_1_1codelab_1_1_product.xhtml#addc5d2e4ec78d1eef631ffc4cdf268a1" target="_top" xlink:title="com.google.appengine.codelab.Product.deleteProduct">
<polygon fill="none" stroke="black" points="283.923,0.0664062 283.923,-22.0664 562.077,-22.0664 562.077,0.0664062 283.923,0.0664062"/>
<text text-anchor="middle" x="423" y="-8.06641" font-family="sans-serif" font-size="10.00">com.google.appengine.codelab.Product.deleteProduct</text>
</a>
</g>
<!-- Node1&#45;&gt;Node4 -->
<g id="edge6" class="edge"><title>Node1&#45;&gt;Node4</title>
<path fill="none" stroke="midnightblue" d="M257.955,-22.0468C266.515,-21.4704 275.145,-20.8892 283.729,-20.3112"/>
<polygon fill="midnightblue" stroke="midnightblue" points="257.687,-18.5568 247.945,-22.7209 258.158,-25.541 257.687,-18.5568"/>
</g>
<!-- Node3 -->
<g id="node5" class="node"><title>Node3</title>
<a xlink:href="classcom_1_1google_1_1appengine_1_1codelab_1_1_item_servlet.xhtml#a977e84d117d1e9c9faf1be8e71f0e69e" target="_top" xlink:title="com.google.appengine.codelab.ItemServlet.doDelete">
<polygon fill="none" stroke="black" points="606.253,-40.9336 606.253,-63.0664 877.747,-63.0664 877.747,-40.9336 606.253,-40.9336"/>
<text text-anchor="middle" x="742" y="-49.0664" font-family="sans-serif" font-size="10.00">com.google.appengine.codelab.ItemServlet.doDelete</text>
</a>
</g>
<!-- Node2&#45;&gt;Node3 -->
<g id="edge4" class="edge"><title>Node2&#45;&gt;Node3</title>
<path fill="none" stroke="midnightblue" d="M556.684,-52C573.03,-52 589.754,-52 606.133,-52"/>
<polygon fill="midnightblue" stroke="midnightblue" points="556.561,-48.5001 546.56,-52 556.56,-55.5001 556.561,-48.5001"/>
</g>
<!-- Node5 -->
<g id="node9" class="node"><title>Node5</title>
<a xlink:href="classcom_1_1google_1_1appengine_1_1codelab_1_1_product_servlet.xhtml#a772fa15f8adf07619e0e71e58488f198" target="_top" xlink:title="com.google.appengine.codelab.ProductServlet.doDelete">
<polygon fill="none" stroke="black" points="598.456,0.0664062 598.456,-22.0664 885.544,-22.0664 885.544,0.0664062 598.456,0.0664062"/>
<text text-anchor="middle" x="742" y="-8.06641" font-family="sans-serif" font-size="10.00">com.google.appengine.codelab.ProductServlet.doDelete</text>
</a>
</g>
<!-- Node4&#45;&gt;Node5 -->
<g id="edge8" class="edge"><title>Node4&#45;&gt;Node5</title>
<path fill="none" stroke="midnightblue" d="M572.286,-11C580.968,-11 589.692,-11 598.352,-11"/>
<polygon fill="midnightblue" stroke="midnightblue" points="572.119,-7.5001 562.119,-11 572.119,-14.5001 572.119,-7.5001"/>
</g>
</g>
</svg>
        <g id="navigator" transform="translate(0 0)" fill="#404254">
                <rect fill="#f2f5e9" fill-opacity="0.5" stroke="#606060" stroke-width=".5" x="0" y="0" width="60" height="60"/>
                <use id="zoomplus" xlink:href="#zoomPlus" x="17" y="9" onmousedown="handleZoom(evt,'in')"/>
                <use id="zoomminus" xlink:href="#zoomMin" x="42" y="9" onmousedown="handleZoom(evt,'out')"/>
                <use id="reset" xlink:href="#resetDef" x="30" y="36" onmousedown="handleReset()"/>
                <g id="arrowUp" xlink:href="#dirArrow" transform="translate(30 24)" onmousedown="handlePan(0,-1)">
                  <use xlink:href="#rim" fill="#404040">
                        <set attributeName="fill" to="#808080" begin="arrowUp.mouseover" end="arrowUp.mouseout"/>
                  </use>
                  <path fill="none" stroke="white" stroke-width="1.5" d="M0,-3.0v7 M-2.5,-0.5L0,-3.0L2.5,-0.5"/>
                </g>
                <g id="arrowRight" xlink:href="#dirArrow" transform="rotate(90) translate(36 -43)" onmousedown="handlePan(1,0)">
                  <use xlink:href="#rim" fill="#404040">
                        <set attributeName="fill" to="#808080" begin="arrowRight.mouseover" end="arrowRight.mouseout"/>
                  </use>
                  <path fill="none" stroke="white" stroke-width="1.5" d="M0,-3.0v7 M-2.5,-0.5L0,-3.0L2.5,-0.5"/>
                </g>
                <g id="arrowDown" xlink:href="#dirArrow" transform="rotate(180) translate(-30 -48)" onmousedown="handlePan(0,1)">
                  <use xlink:href="#rim" fill="#404040">
                        <set attributeName="fill" to="#808080" begin="arrowDown.mouseover" end="arrowDown.mouseout"/>
                  </use>
                  <path fill="none" stroke="white" stroke-width="1.5" d="M0,-3.0v7 M-2.5,-0.5L0,-3.0L2.5,-0.5"/>
                </g>
                <g id="arrowLeft" xlink:href="#dirArrow" transform="rotate(270) translate(-36 17)" onmousedown="handlePan(-1,0)">
                  <use xlink:href="#rim" fill="#404040">
                        <set attributeName="fill" to="#808080" begin="arrowLeft.mouseover" end="arrowLeft.mouseout"/>
                  </use>
                  <path fill="none" stroke="white" stroke-width="1.5" d="M0,-3.0v7 M-2.5,-0.5L0,-3.0L2.5,-0.5"/>
                </g>
        </g>
        <svg viewBox="0 0 25 25" width="100%" height="30px" preserveAspectRatio="xMaxYMin meet"> 
          <g id="printButton" transform="scale(0.4 0.4)" onmousedown="handlePrint(evt)">
            <rect height="23.33753581" id="paper" rx="2" style="fill:#f2f5e9;fill-rule:evenodd;stroke:#111111;stroke-width:3.224;stroke-linejoin:round;" transform="matrix(1.000000,0.000000,-0.339266,0.940691,0.000000,0.000000)" width="25.55231285" x="26.69387353" y="7.36162977"/>
            <rect height="26.272097" id="body" rx="2" style="fill:#404040;fill-rule:evenodd;stroke:#111111;stroke-width:3.125;stroke-linejoin:round;" width="50" x="4.5295201" y="27.078951"/>
            <rect height="8.27750969" id="tray" style="fill:#d2d5c9;fill-rule:evenodd;stroke:#111111;stroke-width:3.125;stroke-linecap:round;stroke-linejoin:round;" width="40" x="10.28778839" y="44.96812282"/>
          </g>
        </svg>
</svg>
