<?xml version="1.0" encoding="UTF-8" standalone="no"?>
<!DOCTYPE svg PUBLIC "-//W3C//DTD SVG 1.1//EN"
 "http://www.w3.org/Graphics/SVG/1.1/DTD/svg11.dtd">
<!-- Generated by graphviz version 2.28.0 (20111028.1807)
 -->
<!-- Title: G Pages: 1 -->
<svg width="132pt" height="180pt"
 viewBox="0.00 0.00 132.00 180.00" xmlns="http://www.w3.org/2000/svg" xmlns:xlink="http://www.w3.org/1999/xlink">
<g id="graph1" class="graph" transform="scale(1 1) rotate(0) translate(4 176)">
<title>G</title>
<!-- Node1 -->
<g id="node1" class="node"><title>Node1</title>
<polygon fill="#bfbfbf" stroke="black" points="-0.262695,-0.800781 -0.262695,-67.1992 124.263,-67.1992 124.263,-0.800781 -0.262695,-0.800781"/>
<text text-anchor="middle" x="62" y="-53.1992" font-family="sans-serif" font-size="10.00">csc440.nuf.client.SMIL</text>
<polyline fill="none" stroke="black" points="-0.262695,-45.0664 124.263,-45.0664 "/>
<text text-anchor="middle" x="62" y="-31.0664" font-family="sans-serif" font-size="10.00"> </text>
<polyline fill="none" stroke="black" points="-0.262695,-22.9336 124.263,-22.9336 "/>
<text text-anchor="start" x="7.7373" y="-8.93359" font-family="sans-serif" font-size="10.00">+ onModuleLoad()</text>
</g>
<!-- Node2 -->
<g id="node2" class="node"><title>Node2</title>
<polygon fill="none" stroke="#bfbfbf" points="29.4053,-104.801 29.4053,-171.199 94.5947,-171.199 94.5947,-104.801 29.4053,-104.801"/>
<text text-anchor="middle" x="62" y="-157.199" font-family="sans-serif" font-size="10.00">EntryPoint</text>
<polyline fill="none" stroke="#bfbfbf" points="29.4053,-149.066 94.5947,-149.066 "/>
<text text-anchor="middle" x="62" y="-135.066" font-family="sans-serif" font-size="10.00"> </text>
<polyline fill="none" stroke="#bfbfbf" points="29.4053,-126.934 94.5947,-126.934 "/>
<text text-anchor="middle" x="62" y="-112.934" font-family="sans-serif" font-size="10.00"> </text>
</g>
<!-- Node2&#45;&gt;Node1 -->
<g id="edge2" class="edge"><title>Node2&#45;&gt;Node1</title>
<path fill="none" stroke="midnightblue" d="M62,-94.6693C62,-85.5613 62,-76.0733 62,-67.4136"/>
<polygon fill="none" stroke="midnightblue" points="58.5001,-94.7265 62,-104.727 65.5001,-94.7266 58.5001,-94.7265"/>
</g>
</g>
</svg>
