<?xml version="1.0" encoding="UTF-8" standalone="no"?>
<!DOCTYPE svg PUBLIC "-//W3C//DTD SVG 1.1//EN"
 "http://www.w3.org/Graphics/SVG/1.1/DTD/svg11.dtd">
<!-- Generated by graphviz version 2.28.0 (20111028.1807)
 -->
<!-- Title: G Pages: 1 -->
<!--zoomable 524 -->
<svg id="main" version="1.1" xmlns="http://www.w3.org/2000/svg" xmlns:xlink="http://www.w3.org/1999/xlink" xml:space="preserve" onload="init(evt)">
        <defs>
                <circle id="rim" cx="0" cy="0" r="7"/>
                <circle id="rim2" cx="0" cy="0" r="3.5"/>
                <g id="zoomPlus">
                        <use xlink:href="#rim" fill="#404040">
                                <set attributeName="fill" to="#808080" begin="zoomplus.mouseover" end="zoomplus.mouseout"/>
                        </use>
                        <path d="M-4,0h8M0,-4v8" fill="none" stroke="white" stroke-width="1.5" pointer-events="none"/>
                </g>
                <g id="zoomMin">
                        <use xlink:href="#rim" fill="#404040">
                                <set attributeName="fill" to="#808080" begin="zoomminus.mouseover" end="zoomminus.mouseout"/>
                        </use>
                        <path d="M-4,0h8" fill="none" stroke="white" stroke-width="1.5" pointer-events="none"/>
                </g>
                <g id="dirArrow">
                        <path fill="none" stroke="white" stroke-width="1.5" d="M0,-3.0v7 M-2.5,-0.5L0,-3.0L2.5,-0.5"/>
                </g>
               <g id="resetDef">
                       <use xlink:href="#rim2" fill="#404040">
                               <set attributeName="fill" to="#808080" begin="reset.mouseover" end="reset.mouseout"/>
                       </use>
               </g>
        </defs>

<script type="text/javascript">
var viewWidth = 234;
var viewHeight = 524;
var sectionId = 'dynsection-1';
</script>
<script xlink:href="svgpan.js"/>
<svg id="graph" class="graph">
<g id="viewport">
<title>G</title>
<!-- Node1 -->
<g id="node1" class="node"><title>Node1</title>
<polygon fill="#bfbfbf" stroke="black" points="-0.797852,-0.800781 -0.797852,-67.1992 130.798,-67.1992 130.798,-0.800781 -0.797852,-0.800781"/>
<text text-anchor="middle" x="65" y="-53.1992" font-family="sans-serif" font-size="10.00">com.DisplayExp.Display</text>
<polyline fill="none" stroke="black" points="-0.797852,-45.0664 130.798,-45.0664 "/>
<text text-anchor="middle" x="65" y="-31.0664" font-family="sans-serif" font-size="10.00"> </text>
<polyline fill="none" stroke="black" points="-0.797852,-22.9336 130.798,-22.9336 "/>
<text text-anchor="start" x="7.20215" y="-8.93359" font-family="sans-serif" font-size="10.00">+ onCreate()</text>
</g>
<!-- Node2 -->
<g id="node2" class="node"><title>Node2</title>
<polygon fill="none" stroke="#bfbfbf" points="2.1582,-217.801 2.1582,-284.199 53.8418,-284.199 53.8418,-217.801 2.1582,-217.801"/>
<text text-anchor="middle" x="28" y="-270.199" font-family="sans-serif" font-size="10.00">Activity</text>
<polyline fill="none" stroke="#bfbfbf" points="2.1582,-262.066 53.8418,-262.066 "/>
<text text-anchor="middle" x="28" y="-248.066" font-family="sans-serif" font-size="10.00"> </text>
<polyline fill="none" stroke="#bfbfbf" points="2.1582,-239.934 53.8418,-239.934 "/>
<text text-anchor="middle" x="28" y="-225.934" font-family="sans-serif" font-size="10.00"> </text>
</g>
<!-- Node2&#45;&gt;Node1 -->
<g id="edge2" class="edge"><title>Node2&#45;&gt;Node1</title>
<path fill="none" stroke="midnightblue" d="M35.3435,-207.328C42.4393,-166.096 53.03,-104.555 59.4488,-67.2567"/>
<polygon fill="none" stroke="midnightblue" points="31.8663,-206.897 33.6195,-217.346 38.7649,-208.085 31.8663,-206.897"/>
</g>
<!-- Node3 -->
<g id="node4" class="node"><title>Node3</title>
<a xlink:href="classcom_1_1_display_exp_1_1_my_canvas.xhtml" target="_top" xlink:title="{com.DisplayExp.MyCanvas\n|~ original\l~ myImg\l~ xCenter\l~ yCenter\l~ xLeft\l~ yTop\l~ xRight\l~ yBottom\l~ width\l~ height\l~ FATFINGER\l|+ MyCanvas()\l+ onTouch()\l~ setLoc()\l~ newImage()\l# onDraw()\l}">
<polygon fill="none" stroke="black" points="71.7666,-118.871 71.7666,-383.129 216.233,-383.129 216.233,-118.871 71.7666,-118.871"/>
<text text-anchor="middle" x="144" y="-369.129" font-family="sans-serif" font-size="10.00">com.DisplayExp.MyCanvas</text>
<polyline fill="none" stroke="black" points="71.7666,-360.996 216.233,-360.996 "/>
<text text-anchor="start" x="79.7666" y="-346.996" font-family="sans-serif" font-size="10.00">~ original</text>
<text text-anchor="start" x="79.7666" y="-332.863" font-family="sans-serif" font-size="10.00">~ myImg</text>
<text text-anchor="start" x="79.7666" y="-318.73" font-family="sans-serif" font-size="10.00">~ xCenter</text>
<text text-anchor="start" x="79.7666" y="-304.598" font-family="sans-serif" font-size="10.00">~ yCenter</text>
<text text-anchor="start" x="79.7666" y="-290.465" font-family="sans-serif" font-size="10.00">~ xLeft</text>
<text text-anchor="start" x="79.7666" y="-276.332" font-family="sans-serif" font-size="10.00">~ yTop</text>
<text text-anchor="start" x="79.7666" y="-262.199" font-family="sans-serif" font-size="10.00">~ xRight</text>
<text text-anchor="start" x="79.7666" y="-248.066" font-family="sans-serif" font-size="10.00">~ yBottom</text>
<text text-anchor="start" x="79.7666" y="-233.934" font-family="sans-serif" font-size="10.00">~ width</text>
<text text-anchor="start" x="79.7666" y="-219.801" font-family="sans-serif" font-size="10.00">~ height</text>
<text text-anchor="start" x="79.7666" y="-205.668" font-family="sans-serif" font-size="10.00">~ FATFINGER</text>
<polyline fill="none" stroke="black" points="71.7666,-197.535 216.233,-197.535 "/>
<text text-anchor="start" x="79.7666" y="-183.535" font-family="sans-serif" font-size="10.00">+ MyCanvas()</text>
<text text-anchor="start" x="79.7666" y="-169.402" font-family="sans-serif" font-size="10.00">+ onTouch()</text>
<text text-anchor="start" x="79.7666" y="-155.27" font-family="sans-serif" font-size="10.00">~ setLoc()</text>
<text text-anchor="start" x="79.7666" y="-141.137" font-family="sans-serif" font-size="10.00">~ newImage()</text>
<text text-anchor="start" x="79.7666" y="-127.004" font-family="sans-serif" font-size="10.00"># onDraw()</text>
</a>
</g>
<!-- Node3&#45;&gt;Node1 -->
<g id="edge4" class="edge"><title>Node3&#45;&gt;Node1</title>
<path fill="none" stroke="#404040" d="M95.7697,-118.74C90.5173,-104.446 85.4817,-90.7414 81.0601,-78.7078"/>
<polygon fill="none" stroke="#404040" points="80.9966,-78.535 75.1727,-74.2827 76.8578,-67.2713 82.6818,-71.5235 80.9966,-78.535"/>
<text text-anchor="middle" x="106.671" y="-90.0664" font-family="sans-serif" font-size="10.00"> myCav</text>
</g>
<!-- Node4 -->
<g id="node6" class="node"><title>Node4</title>
<polygon fill="none" stroke="#bfbfbf" points="62.6475,-448.801 62.6475,-515.199 101.353,-515.199 101.353,-448.801 62.6475,-448.801"/>
<text text-anchor="middle" x="82" y="-501.199" font-family="sans-serif" font-size="10.00">View</text>
<polyline fill="none" stroke="#bfbfbf" points="62.6475,-493.066 101.353,-493.066 "/>
<text text-anchor="middle" x="82" y="-479.066" font-family="sans-serif" font-size="10.00"> </text>
<polyline fill="none" stroke="#bfbfbf" points="62.6475,-470.934 101.353,-470.934 "/>
<text text-anchor="middle" x="82" y="-456.934" font-family="sans-serif" font-size="10.00"> </text>
</g>
<!-- Node4&#45;&gt;Node3 -->
<g id="edge6" class="edge"><title>Node4&#45;&gt;Node3</title>
<path fill="none" stroke="midnightblue" d="M93.4816,-438.592C97.8367,-422.506 103.058,-403.221 108.468,-383.24"/>
<polygon fill="none" stroke="midnightblue" points="89.9866,-438.108 90.7516,-448.676 96.7434,-439.938 89.9866,-438.108"/>
</g>
<!-- Node5 -->
<g id="node8" class="node"><title>Node5</title>
<polygon fill="none" stroke="#bfbfbf" points="119.232,-448.801 119.232,-515.199 168.768,-515.199 168.768,-448.801 119.232,-448.801"/>
<text text-anchor="middle" x="144" y="-501.199" font-family="sans-serif" font-size="10.00">Bitmap</text>
<polyline fill="none" stroke="#bfbfbf" points="119.232,-493.066 168.768,-493.066 "/>
<text text-anchor="middle" x="144" y="-479.066" font-family="sans-serif" font-size="10.00"> </text>
<polyline fill="none" stroke="#bfbfbf" points="119.232,-470.934 168.768,-470.934 "/>
<text text-anchor="middle" x="144" y="-456.934" font-family="sans-serif" font-size="10.00"> </text>
</g>
<!-- Node5&#45;&gt;Node3 -->
<g id="edge8" class="edge"><title>Node5&#45;&gt;Node3</title>
<path fill="none" stroke="#404040" d="M144,-448.676C144,-433.904 144,-415.276 144,-395.405"/>
<polygon fill="none" stroke="#404040" points="144,-395.24 140,-389.24 144,-383.24 148,-389.24 144,-395.24"/>
<text text-anchor="middle" x="162.435" y="-420.133" font-family="sans-serif" font-size="10.00"> myImg</text>
<text text-anchor="middle" x="162.435" y="-406" font-family="sans-serif" font-size="10.00">original</text>
</g>
<!-- Node6 -->
<g id="node10" class="node"><title>Node6</title>
<polygon fill="none" stroke="#bfbfbf" points="187.057,-448.801 187.057,-515.199 226.943,-515.199 226.943,-448.801 187.057,-448.801"/>
<text text-anchor="middle" x="207" y="-501.199" font-family="sans-serif" font-size="10.00">Paint</text>
<polyline fill="none" stroke="#bfbfbf" points="187.057,-493.066 226.943,-493.066 "/>
<text text-anchor="middle" x="207" y="-479.066" font-family="sans-serif" font-size="10.00"> </text>
<polyline fill="none" stroke="#bfbfbf" points="187.057,-470.934 226.943,-470.934 "/>
<text text-anchor="middle" x="207" y="-456.934" font-family="sans-serif" font-size="10.00"> </text>
</g>
<!-- Node6&#45;&gt;Node3 -->
<g id="edge10" class="edge"><title>Node6&#45;&gt;Node3</title>
<path fill="none" stroke="#404040" d="M198.107,-448.676C194.005,-433.765 188.822,-414.926 183.298,-394.845"/>
<polygon fill="none" stroke="#404040" points="183.288,-394.81 177.84,-390.086 180.105,-383.24 185.554,-387.964 183.288,-394.81"/>
<text text-anchor="middle" x="195.729" y="-413.066" font-family="sans-serif" font-size="10.00"> p</text>
</g>
</g>
</svg>
        <g id="navigator" transform="translate(0 0)" fill="#404254">
                <rect fill="#f2f5e9" fill-opacity="0.5" stroke="#606060" stroke-width=".5" x="0" y="0" width="60" height="60"/>
                <use id="zoomplus" xlink:href="#zoomPlus" x="17" y="9" onmousedown="handleZoom(evt,'in')"/>
                <use id="zoomminus" xlink:href="#zoomMin" x="42" y="9" onmousedown="handleZoom(evt,'out')"/>
                <use id="reset" xlink:href="#resetDef" x="30" y="36" onmousedown="handleReset()"/>
                <g id="arrowUp" xlink:href="#dirArrow" transform="translate(30 24)" onmousedown="handlePan(0,-1)">
                  <use xlink:href="#rim" fill="#404040">
                        <set attributeName="fill" to="#808080" begin="arrowUp.mouseover" end="arrowUp.mouseout"/>
                  </use>
                  <path fill="none" stroke="white" stroke-width="1.5" d="M0,-3.0v7 M-2.5,-0.5L0,-3.0L2.5,-0.5"/>
                </g>
                <g id="arrowRight" xlink:href="#dirArrow" transform="rotate(90) translate(36 -43)" onmousedown="handlePan(1,0)">
                  <use xlink:href="#rim" fill="#404040">
                        <set attributeName="fill" to="#808080" begin="arrowRight.mouseover" end="arrowRight.mouseout"/>
                  </use>
                  <path fill="none" stroke="white" stroke-width="1.5" d="M0,-3.0v7 M-2.5,-0.5L0,-3.0L2.5,-0.5"/>
                </g>
                <g id="arrowDown" xlink:href="#dirArrow" transform="rotate(180) translate(-30 -48)" onmousedown="handlePan(0,1)">
                  <use xlink:href="#rim" fill="#404040">
                        <set attributeName="fill" to="#808080" begin="arrowDown.mouseover" end="arrowDown.mouseout"/>
                  </use>
                  <path fill="none" stroke="white" stroke-width="1.5" d="M0,-3.0v7 M-2.5,-0.5L0,-3.0L2.5,-0.5"/>
                </g>
                <g id="arrowLeft" xlink:href="#dirArrow" transform="rotate(270) translate(-36 17)" onmousedown="handlePan(-1,0)">
                  <use xlink:href="#rim" fill="#404040">
                        <set attributeName="fill" to="#808080" begin="arrowLeft.mouseover" end="arrowLeft.mouseout"/>
                  </use>
                  <path fill="none" stroke="white" stroke-width="1.5" d="M0,-3.0v7 M-2.5,-0.5L0,-3.0L2.5,-0.5"/>
                </g>
        </g>
        <svg viewBox="0 0 25 25" width="100%" height="30px" preserveAspectRatio="xMaxYMin meet"> 
          <g id="printButton" transform="scale(0.4 0.4)" onmousedown="handlePrint(evt)">
            <rect height="23.33753581" id="paper" rx="2" style="fill:#f2f5e9;fill-rule:evenodd;stroke:#111111;stroke-width:3.224;stroke-linejoin:round;" transform="matrix(1.000000,0.000000,-0.339266,0.940691,0.000000,0.000000)" width="25.55231285" x="26.69387353" y="7.36162977"/>
            <rect height="26.272097" id="body" rx="2" style="fill:#404040;fill-rule:evenodd;stroke:#111111;stroke-width:3.125;stroke-linejoin:round;" width="50" x="4.5295201" y="27.078951"/>
            <rect height="8.27750969" id="tray" style="fill:#d2d5c9;fill-rule:evenodd;stroke:#111111;stroke-width:3.125;stroke-linecap:round;stroke-linejoin:round;" width="40" x="10.28778839" y="44.96812282"/>
          </g>
        </svg>
</svg>
