<?xml version="1.0" encoding="UTF-8" standalone="no"?>
<!DOCTYPE svg PUBLIC "-//W3C//DTD SVG 1.1//EN"
 "http://www.w3.org/Graphics/SVG/1.1/DTD/svg11.dtd">
<!-- Generated by graphviz version 2.28.0 (20111028.1807)
 -->
<!-- Title: G Pages: 1 -->
<!--zoomable 233 -->
<svg id="main" version="1.1" xmlns="http://www.w3.org/2000/svg" xmlns:xlink="http://www.w3.org/1999/xlink" xml:space="preserve" onload="init(evt)">
        <defs>
                <circle id="rim" cx="0" cy="0" r="7"/>
                <circle id="rim2" cx="0" cy="0" r="3.5"/>
                <g id="zoomPlus">
                        <use xlink:href="#rim" fill="#404040">
                                <set attributeName="fill" to="#808080" begin="zoomplus.mouseover" end="zoomplus.mouseout"/>
                        </use>
                        <path d="M-4,0h8M0,-4v8" fill="none" stroke="white" stroke-width="1.5" pointer-events="none"/>
                </g>
                <g id="zoomMin">
                        <use xlink:href="#rim" fill="#404040">
                                <set attributeName="fill" to="#808080" begin="zoomminus.mouseover" end="zoomminus.mouseout"/>
                        </use>
                        <path d="M-4,0h8" fill="none" stroke="white" stroke-width="1.5" pointer-events="none"/>
                </g>
                <g id="dirArrow">
                        <path fill="none" stroke="white" stroke-width="1.5" d="M0,-3.0v7 M-2.5,-0.5L0,-3.0L2.5,-0.5"/>
                </g>
               <g id="resetDef">
                       <use xlink:href="#rim2" fill="#404040">
                               <set attributeName="fill" to="#808080" begin="reset.mouseover" end="reset.mouseout"/>
                       </use>
               </g>
        </defs>

<script type="text/javascript">
var viewWidth = 1040;
var viewHeight = 233;
var sectionId = 'dynsection-5';
</script>
<script xlink:href="svgpan.js"/>
<svg id="graph" class="graph">
<g id="viewport">
<title>G</title>
<!-- Node1 -->
<g id="node1" class="node"><title>Node1</title>
<polygon fill="#bfbfbf" stroke="black" points="0.470215,-100.934 0.470215,-123.066 197.53,-123.066 197.53,-100.934 0.470215,-100.934"/>
<text text-anchor="middle" x="99" y="-109.066" font-family="sans-serif" font-size="10.00">csc440.nuf.Util.getSharedPreferences</text>
</g>
<!-- Node2 -->
<g id="node3" class="node"><title>Node2</title>
<a xlink:href="classcsc440_1_1nuf_1_1_util.xhtml#adbbee48d176f30c61d5819634d17b73a" target="_top" xlink:title="csc440.nuf.Util.generateNotification">
<polygon fill="none" stroke="black" points="264.458,-202.934 264.458,-225.066 455.542,-225.066 455.542,-202.934 264.458,-202.934"/>
<text text-anchor="middle" x="360" y="-211.066" font-family="sans-serif" font-size="10.00">csc440.nuf.Util.generateNotification</text>
</a>
</g>
<!-- Node1&#45;&gt;Node2 -->
<g id="edge2" class="edge"><title>Node1&#45;&gt;Node2</title>
<path fill="none" stroke="midnightblue" d="M122.589,-129.351C148.177,-148.092 191.82,-177.36 234,-193 244.832,-197.016 256.479,-200.269 268.15,-202.901"/>
<polygon fill="midnightblue" stroke="midnightblue" points="124.436,-126.362 114.323,-123.201 120.257,-131.978 124.436,-126.362"/>
</g>
<!-- Node5 -->
<g id="node9" class="node"><title>Node5</title>
<a xlink:href="classcsc440_1_1nuf_1_1_util.xhtml#a5fbb65d6db8c6c778abe34f22b529513" target="_top" xlink:title="csc440.nuf.Util.getRequestFactory">
<polygon fill="none" stroke="black" points="269.051,-161.934 269.051,-184.066 450.949,-184.066 450.949,-161.934 269.051,-161.934"/>
<text text-anchor="middle" x="360" y="-170.066" font-family="sans-serif" font-size="10.00">csc440.nuf.Util.getRequestFactory</text>
</a>
</g>
<!-- Node1&#45;&gt;Node5 -->
<g id="edge8" class="edge"><title>Node1&#45;&gt;Node5</title>
<path fill="none" stroke="midnightblue" d="M142.612,-126.189C168.767,-134.53 203.07,-144.814 234,-152 249.969,-155.71 267.23,-159.039 283.678,-161.895"/>
<polygon fill="midnightblue" stroke="midnightblue" points="143.602,-122.831 133.011,-123.098 141.457,-129.494 143.602,-122.831"/>
</g>
<!-- Node7 -->
<g id="node13" class="node"><title>Node7</title>
<a xlink:href="classcsc440_1_1nuf_1_1_accounts_activity.xhtml#a4404f0bf65d48a9e30301527d1150c57" target="_top" xlink:title="csc440.nuf.AccountsActivity.onCreate">
<polygon fill="none" stroke="black" points="260.062,-120.934 260.062,-143.066 459.938,-143.066 459.938,-120.934 260.062,-120.934"/>
<text text-anchor="middle" x="360" y="-129.066" font-family="sans-serif" font-size="10.00">csc440.nuf.AccountsActivity.onCreate</text>
</a>
</g>
<!-- Node1&#45;&gt;Node7 -->
<g id="edge12" class="edge"><title>Node1&#45;&gt;Node7</title>
<path fill="none" stroke="midnightblue" d="M207.651,-120.313C224.931,-121.647 242.747,-123.023 259.817,-124.341"/>
<polygon fill="midnightblue" stroke="midnightblue" points="207.788,-116.813 197.548,-119.533 207.249,-123.792 207.788,-116.813"/>
</g>
<!-- Node8 -->
<g id="node15" class="node"><title>Node8</title>
<a xlink:href="classcsc440_1_1nuf_1_1_c2_d_m_receiver.xhtml#a5703ea903b3efa7a0fc8b0dd94c93939" target="_top" xlink:title="csc440.nuf.C2DMReceiver.onUnregistered">
<polygon fill="none" stroke="black" points="548.903,-81.9336 548.903,-104.066 769.097,-104.066 769.097,-81.9336 548.903,-81.9336"/>
<text text-anchor="middle" x="659" y="-90.0664" font-family="sans-serif" font-size="10.00">csc440.nuf.C2DMReceiver.onUnregistered</text>
</a>
</g>
<!-- Node1&#45;&gt;Node8 -->
<g id="edge14" class="edge"><title>Node1&#45;&gt;Node8</title>
<path fill="none" stroke="midnightblue" d="M208.079,-108.32C306.234,-104.978 450.304,-100.072 548.805,-96.7181"/>
<polygon fill="midnightblue" stroke="midnightblue" points="207.71,-104.83 197.835,-108.669 207.948,-111.826 207.71,-104.83"/>
</g>
<!-- Node9 -->
<g id="node17" class="node"><title>Node9</title>
<a xlink:href="classcsc440_1_1nuf_1_1_device_registrar.xhtml#a588aba958edca877d7f3f995d8854dbd" target="_top" xlink:title="csc440.nuf.DeviceRegistrar.registerOrUnregister">
<polygon fill="none" stroke="black" points="234.573,-40.9336 234.573,-63.0664 485.427,-63.0664 485.427,-40.9336 234.573,-40.9336"/>
<text text-anchor="middle" x="360" y="-49.0664" font-family="sans-serif" font-size="10.00">csc440.nuf.DeviceRegistrar.registerOrUnregister</text>
</a>
</g>
<!-- Node1&#45;&gt;Node9 -->
<g id="edge16" class="edge"><title>Node1&#45;&gt;Node9</title>
<path fill="none" stroke="midnightblue" d="M151.763,-98.3082C176.579,-91.8871 206.765,-84.2845 234,-78 256.57,-72.7919 281.543,-67.5033 303.195,-63.0678"/>
<polygon fill="midnightblue" stroke="midnightblue" points="150.632,-94.9859 141.833,-100.888 152.392,-101.761 150.632,-94.9859"/>
</g>
<!-- Node12 -->
<g id="node24" class="node"><title>Node12</title>
<a xlink:href="classcsc440_1_1nuf_1_1_s_m_i_l_activity.xhtml#a2940cb9bd30e02c726a99b9949f94472" target="_top" xlink:title="csc440.nuf.SMILActivity.onResume">
<polygon fill="none" stroke="black" points="267.879,0.0664062 267.879,-22.0664 452.121,-22.0664 452.121,0.0664062 267.879,0.0664062"/>
<text text-anchor="middle" x="360" y="-8.06641" font-family="sans-serif" font-size="10.00">csc440.nuf.SMILActivity.onResume</text>
</a>
</g>
<!-- Node1&#45;&gt;Node12 -->
<g id="edge24" class="edge"><title>Node1&#45;&gt;Node12</title>
<path fill="none" stroke="midnightblue" d="M122.567,-94.5871C148.134,-75.7916 191.76,-46.4755 234,-31 244.731,-27.0686 256.26,-23.9091 267.82,-21.3702"/>
<polygon fill="midnightblue" stroke="midnightblue" points="120.225,-91.9679 114.308,-100.757 124.414,-97.5759 120.225,-91.9679"/>
</g>
<!-- Node3 -->
<g id="node5" class="node"><title>Node3</title>
<a xlink:href="classcsc440_1_1nuf_1_1_message_display.xhtml#adf7092394387e6226d21bfa80c15b28d" target="_top" xlink:title="csc440.nuf.MessageDisplay.displayMessage">
<polygon fill="none" stroke="black" points="544.533,-202.934 544.533,-225.066 773.467,-225.066 773.467,-202.934 544.533,-202.934"/>
<text text-anchor="middle" x="659" y="-211.066" font-family="sans-serif" font-size="10.00">csc440.nuf.MessageDisplay.displayMessage</text>
</a>
</g>
<!-- Node2&#45;&gt;Node3 -->
<g id="edge4" class="edge"><title>Node2&#45;&gt;Node3</title>
<path fill="none" stroke="midnightblue" d="M465.812,-214C491.248,-214 518.561,-214 544.383,-214"/>
<polygon fill="midnightblue" stroke="midnightblue" points="465.789,-210.5 455.789,-214 465.789,-217.5 465.789,-210.5"/>
</g>
<!-- Node4 -->
<g id="node7" class="node"><title>Node4</title>
<a xlink:href="classcsc440_1_1nuf_1_1_c2_d_m_receiver.xhtml#a4fd8cbc3e17b49225e052b12547af03a" target="_top" xlink:title="csc440.nuf.C2DMReceiver.onMessage">
<polygon fill="none" stroke="black" points="832.193,-202.934 832.193,-225.066 1031.81,-225.066 1031.81,-202.934 832.193,-202.934"/>
<text text-anchor="middle" x="932" y="-211.066" font-family="sans-serif" font-size="10.00">csc440.nuf.C2DMReceiver.onMessage</text>
</a>
</g>
<!-- Node3&#45;&gt;Node4 -->
<g id="edge6" class="edge"><title>Node3&#45;&gt;Node4</title>
<path fill="none" stroke="midnightblue" d="M783.804,-214C800.012,-214 816.444,-214 832.164,-214"/>
<polygon fill="midnightblue" stroke="midnightblue" points="783.751,-210.5 773.75,-214 783.75,-217.5 783.751,-210.5"/>
</g>
<!-- Node6 -->
<g id="node11" class="node"><title>Node6</title>
<a xlink:href="classcsc440_1_1nuf_1_1_async_fetch_s_m_i_l_message.xhtml#a19a50624286e3650df8cbe84e6cf4ada" target="_top" xlink:title="csc440.nuf.AsyncFetchSMILMessage.doInBackground">
<polygon fill="none" stroke="black" points="522.348,-161.934 522.348,-184.066 795.652,-184.066 795.652,-161.934 522.348,-161.934"/>
<text text-anchor="middle" x="659" y="-170.066" font-family="sans-serif" font-size="10.00">csc440.nuf.AsyncFetchSMILMessage.doInBackground</text>
</a>
</g>
<!-- Node5&#45;&gt;Node6 -->
<g id="edge10" class="edge"><title>Node5&#45;&gt;Node6</title>
<path fill="none" stroke="midnightblue" d="M461.405,-173C480.924,-173 501.686,-173 522.126,-173"/>
<polygon fill="midnightblue" stroke="midnightblue" points="461.319,-169.5 451.319,-173 461.319,-176.5 461.319,-169.5"/>
</g>
<!-- Node9&#45;&gt;Node8 -->
<g id="edge22" class="edge"><title>Node9&#45;&gt;Node8</title>
<path fill="none" stroke="midnightblue" d="M451.461,-64.4879C491.753,-70.05 538.809,-76.546 577.821,-81.9315"/>
<polygon fill="midnightblue" stroke="midnightblue" points="451.757,-60.9957 441.372,-63.0952 450.8,-67.9299 451.757,-60.9957"/>
</g>
<!-- Node10 -->
<g id="node19" class="node"><title>Node10</title>
<a xlink:href="classcsc440_1_1nuf_1_1_accounts_activity.xhtml#a172796bda215011c1ef3b983e9555cfb" target="_top" xlink:title="csc440.nuf.AccountsActivity.onResume">
<polygon fill="none" stroke="black" points="555.717,-40.9336 555.717,-63.0664 762.283,-63.0664 762.283,-40.9336 555.717,-40.9336"/>
<text text-anchor="middle" x="659" y="-49.0664" font-family="sans-serif" font-size="10.00">csc440.nuf.AccountsActivity.onResume</text>
</a>
</g>
<!-- Node9&#45;&gt;Node10 -->
<g id="edge18" class="edge"><title>Node9&#45;&gt;Node10</title>
<path fill="none" stroke="midnightblue" d="M495.825,-52C515.945,-52 536.402,-52 555.703,-52"/>
<polygon fill="midnightblue" stroke="midnightblue" points="495.664,-48.5001 485.664,-52 495.664,-55.5001 495.664,-48.5001"/>
</g>
<!-- Node11 -->
<g id="node21" class="node"><title>Node11</title>
<a xlink:href="classcsc440_1_1nuf_1_1_c2_d_m_receiver.xhtml#a55ec75d92b2ea18fc3bfb7354fc63571" target="_top" xlink:title="csc440.nuf.C2DMReceiver.onRegistered">
<polygon fill="none" stroke="black" points="554.354,0.0664062 554.354,-22.0664 763.646,-22.0664 763.646,0.0664062 554.354,0.0664062"/>
<text text-anchor="middle" x="659" y="-8.06641" font-family="sans-serif" font-size="10.00">csc440.nuf.C2DMReceiver.onRegistered</text>
</a>
</g>
<!-- Node9&#45;&gt;Node11 -->
<g id="edge20" class="edge"><title>Node9&#45;&gt;Node11</title>
<path fill="none" stroke="midnightblue" d="M451.461,-39.5121C491.753,-33.95 538.809,-27.454 577.821,-22.0685"/>
<polygon fill="midnightblue" stroke="midnightblue" points="450.8,-36.0701 441.372,-40.9048 451.757,-43.0043 450.8,-36.0701"/>
</g>
</g>
</svg>
        <g id="navigator" transform="translate(0 0)" fill="#404254">
                <rect fill="#f2f5e9" fill-opacity="0.5" stroke="#606060" stroke-width=".5" x="0" y="0" width="60" height="60"/>
                <use id="zoomplus" xlink:href="#zoomPlus" x="17" y="9" onmousedown="handleZoom(evt,'in')"/>
                <use id="zoomminus" xlink:href="#zoomMin" x="42" y="9" onmousedown="handleZoom(evt,'out')"/>
                <use id="reset" xlink:href="#resetDef" x="30" y="36" onmousedown="handleReset()"/>
                <g id="arrowUp" xlink:href="#dirArrow" transform="translate(30 24)" onmousedown="handlePan(0,-1)">
                  <use xlink:href="#rim" fill="#404040">
                        <set attributeName="fill" to="#808080" begin="arrowUp.mouseover" end="arrowUp.mouseout"/>
                  </use>
                  <path fill="none" stroke="white" stroke-width="1.5" d="M0,-3.0v7 M-2.5,-0.5L0,-3.0L2.5,-0.5"/>
                </g>
                <g id="arrowRight" xlink:href="#dirArrow" transform="rotate(90) translate(36 -43)" onmousedown="handlePan(1,0)">
                  <use xlink:href="#rim" fill="#404040">
                        <set attributeName="fill" to="#808080" begin="arrowRight.mouseover" end="arrowRight.mouseout"/>
                  </use>
                  <path fill="none" stroke="white" stroke-width="1.5" d="M0,-3.0v7 M-2.5,-0.5L0,-3.0L2.5,-0.5"/>
                </g>
                <g id="arrowDown" xlink:href="#dirArrow" transform="rotate(180) translate(-30 -48)" onmousedown="handlePan(0,1)">
                  <use xlink:href="#rim" fill="#404040">
                        <set attributeName="fill" to="#808080" begin="arrowDown.mouseover" end="arrowDown.mouseout"/>
                  </use>
                  <path fill="none" stroke="white" stroke-width="1.5" d="M0,-3.0v7 M-2.5,-0.5L0,-3.0L2.5,-0.5"/>
                </g>
                <g id="arrowLeft" xlink:href="#dirArrow" transform="rotate(270) translate(-36 17)" onmousedown="handlePan(-1,0)">
                  <use xlink:href="#rim" fill="#404040">
                        <set attributeName="fill" to="#808080" begin="arrowLeft.mouseover" end="arrowLeft.mouseout"/>
                  </use>
                  <path fill="none" stroke="white" stroke-width="1.5" d="M0,-3.0v7 M-2.5,-0.5L0,-3.0L2.5,-0.5"/>
                </g>
        </g>
        <svg viewBox="0 0 25 25" width="100%" height="30px" preserveAspectRatio="xMaxYMin meet"> 
          <g id="printButton" transform="scale(0.4 0.4)" onmousedown="handlePrint(evt)">
            <rect height="23.33753581" id="paper" rx="2" style="fill:#f2f5e9;fill-rule:evenodd;stroke:#111111;stroke-width:3.224;stroke-linejoin:round;" transform="matrix(1.000000,0.000000,-0.339266,0.940691,0.000000,0.000000)" width="25.55231285" x="26.69387353" y="7.36162977"/>
            <rect height="26.272097" id="body" rx="2" style="fill:#404040;fill-rule:evenodd;stroke:#111111;stroke-width:3.125;stroke-linejoin:round;" width="50" x="4.5295201" y="27.078951"/>
            <rect height="8.27750969" id="tray" style="fill:#d2d5c9;fill-rule:evenodd;stroke:#111111;stroke-width:3.125;stroke-linecap:round;stroke-linejoin:round;" width="40" x="10.28778839" y="44.96812282"/>
          </g>
        </svg>
</svg>
