<?xml version="1.0" encoding="UTF-8" standalone="no"?>
<!DOCTYPE svg PUBLIC "-//W3C//DTD SVG 1.1//EN"
 "http://www.w3.org/Graphics/SVG/1.1/DTD/svg11.dtd">
<!-- Generated by graphviz version 2.28.0 (20111028.1807)
 -->
<!-- Title: G Pages: 1 -->
<svg width="232pt" height="180pt"
 viewBox="0.00 0.00 232.00 180.00" xmlns="http://www.w3.org/2000/svg" xmlns:xlink="http://www.w3.org/1999/xlink">
<g id="graph1" class="graph" transform="scale(1 1) rotate(0) translate(4 176)">
<title>G</title>
<!-- Node1 -->
<g id="node1" class="node"><title>Node1</title>
<polygon fill="#bfbfbf" stroke="black" points="-0.736328,-0.800781 -0.736328,-67.1992 224.736,-67.1992 224.736,-0.800781 -0.736328,-0.800781"/>
<text text-anchor="middle" x="112" y="-53.1992" font-family="sans-serif" font-size="10.00">com.google.appengine.codelab.BaseServlet</text>
<polyline fill="none" stroke="black" points="-0.736328,-45.0664 224.736,-45.0664 "/>
<text text-anchor="middle" x="112" y="-31.0664" font-family="sans-serif" font-size="10.00"> </text>
<polyline fill="none" stroke="black" points="-0.736328,-22.9336 224.736,-22.9336 "/>
<text text-anchor="start" x="7.26367" y="-8.93359" font-family="sans-serif" font-size="10.00"># doGet()</text>
</g>
<!-- Node2 -->
<g id="node2" class="node"><title>Node2</title>
<polygon fill="none" stroke="#bfbfbf" points="77.2251,-104.801 77.2251,-171.199 146.775,-171.199 146.775,-104.801 77.2251,-104.801"/>
<text text-anchor="middle" x="112" y="-157.199" font-family="sans-serif" font-size="10.00">HttpServlet</text>
<polyline fill="none" stroke="#bfbfbf" points="77.2251,-149.066 146.775,-149.066 "/>
<text text-anchor="middle" x="112" y="-135.066" font-family="sans-serif" font-size="10.00"> </text>
<polyline fill="none" stroke="#bfbfbf" points="77.2251,-126.934 146.775,-126.934 "/>
<text text-anchor="middle" x="112" y="-112.934" font-family="sans-serif" font-size="10.00"> </text>
</g>
<!-- Node2&#45;&gt;Node1 -->
<g id="edge2" class="edge"><title>Node2&#45;&gt;Node1</title>
<path fill="none" stroke="midnightblue" d="M112,-94.6693C112,-85.5613 112,-76.0733 112,-67.4136"/>
<polygon fill="none" stroke="midnightblue" points="108.5,-94.7265 112,-104.727 115.5,-94.7266 108.5,-94.7265"/>
</g>
</g>
</svg>
