<?xml version="1.0" encoding="UTF-8" standalone="no"?>
<!DOCTYPE svg PUBLIC "-//W3C//DTD SVG 1.1//EN"
 "http://www.w3.org/Graphics/SVG/1.1/DTD/svg11.dtd">
<!-- Generated by graphviz version 2.28.0 (20111028.1807)
 -->
<!-- Title: G Pages: 1 -->
<svg width="396pt" height="71pt"
 viewBox="0.00 0.00 396.00 71.00" xmlns="http://www.w3.org/2000/svg" xmlns:xlink="http://www.w3.org/1999/xlink">
<g id="graph1" class="graph" transform="scale(1 1) rotate(0) translate(4 67)">
<title>G</title>
<!-- Node1 -->
<g id="node1" class="node"><title>Node1</title>
<polygon fill="#bfbfbf" stroke="black" points="0.0136719,-19.9336 0.0136719,-42.0664 187.986,-42.0664 187.986,-19.9336 0.0136719,-19.9336"/>
<text text-anchor="middle" x="94" y="-28.0664" font-family="sans-serif" font-size="10.00">csc440.nuf.parser.SMILHandler.add</text>
</g>
<!-- Node2 -->
<g id="node3" class="node"><title>Node2</title>
<a xlink:href="classcsc440_1_1nuf_1_1complay_1_1_waiting.xhtml#aaa8d6d536f680a183de75424e4d95627" target="_top" xlink:title="csc440.nuf.complay.Waiting.Q">
<polygon fill="none" stroke="black" points="224.301,-40.9336 224.301,-63.0664 387.699,-63.0664 387.699,-40.9336 224.301,-40.9336"/>
<text text-anchor="middle" x="306" y="-49.0664" font-family="sans-serif" font-size="10.00">csc440.nuf.complay.Waiting.Q</text>
</a>
</g>
<!-- Node1&#45;&gt;Node2 -->
<g id="edge2" class="edge"><title>Node1&#45;&gt;Node2</title>
<path fill="none" stroke="midnightblue" d="M188.026,-40.3026C196.7,-41.17 205.484,-42.0484 214.138,-42.9138"/>
<polygon fill="midnightblue" stroke="midnightblue" points="213.924,-46.4098 224.223,-43.9223 214.621,-39.4445 213.924,-46.4098"/>
</g>
<!-- Node3 -->
<g id="node5" class="node"><title>Node3</title>
<a xlink:href="classcsc440_1_1nuf_1_1complay_1_1_q.xhtml#aaa9e1371272a3d71932a7b753155741b" target="_top" xlink:title="csc440.nuf.complay.Q.push">
<polygon fill="none" stroke="black" points="230.419,0.0664062 230.419,-22.0664 381.581,-22.0664 381.581,0.0664062 230.419,0.0664062"/>
<text text-anchor="middle" x="306" y="-8.06641" font-family="sans-serif" font-size="10.00">csc440.nuf.complay.Q.push</text>
</a>
</g>
<!-- Node1&#45;&gt;Node3 -->
<g id="edge4" class="edge"><title>Node1&#45;&gt;Node3</title>
<path fill="none" stroke="midnightblue" d="M188.026,-22.1404C198.751,-21.1189 209.645,-20.0814 220.252,-19.0712"/>
<polygon fill="midnightblue" stroke="midnightblue" points="220.696,-22.5449 230.319,-18.1125 220.032,-15.5764 220.696,-22.5449"/>
</g>
</g>
</svg>
