<?xml version="1.0" encoding="UTF-8" standalone="no"?>
<!DOCTYPE svg PUBLIC "-//W3C//DTD SVG 1.1//EN"
 "http://www.w3.org/Graphics/SVG/1.1/DTD/svg11.dtd">
<!-- Generated by graphviz version 2.28.0 (20111028.1807)
 -->
<!-- Title: G Pages: 1 -->
<svg width="402pt" height="250pt"
 viewBox="0.00 0.00 402.00 250.00" xmlns="http://www.w3.org/2000/svg" xmlns:xlink="http://www.w3.org/1999/xlink">
<g id="graph1" class="graph" transform="scale(1 1) rotate(0) translate(4 246)">
<title>G</title>
<!-- Node1 -->
<g id="node1" class="node"><title>Node1</title>
<polygon fill="#bfbfbf" stroke="black" points="105.353,-0.46875 105.353,-137.531 288.647,-137.531 288.647,-0.46875 105.353,-0.46875"/>
<text text-anchor="middle" x="197" y="-123.531" font-family="sans-serif" font-size="10.00">csc440.nuf.server.MessageLocator</text>
<polyline fill="none" stroke="black" points="105.353,-115.398 288.647,-115.398 "/>
<text text-anchor="middle" x="197" y="-101.398" font-family="sans-serif" font-size="10.00"> </text>
<polyline fill="none" stroke="black" points="105.353,-93.2656 288.647,-93.2656 "/>
<text text-anchor="start" x="113.353" y="-79.2656" font-family="sans-serif" font-size="10.00">+ create()</text>
<text text-anchor="start" x="113.353" y="-65.1328" font-family="sans-serif" font-size="10.00">+ find()</text>
<text text-anchor="start" x="113.353" y="-51" font-family="sans-serif" font-size="10.00">+ getDomainType()</text>
<text text-anchor="start" x="113.353" y="-36.8672" font-family="sans-serif" font-size="10.00">+ getId()</text>
<text text-anchor="start" x="113.353" y="-22.7344" font-family="sans-serif" font-size="10.00">+ getIdType()</text>
<text text-anchor="start" x="113.353" y="-8.60156" font-family="sans-serif" font-size="10.00">+ getVersion()</text>
</g>
<!-- Node2 -->
<g id="node2" class="node"><title>Node2</title>
<polygon fill="none" stroke="#bfbfbf" points="-0.51416,-174.801 -0.51416,-241.199 394.514,-241.199 394.514,-174.801 -0.51416,-174.801"/>
<text text-anchor="middle" x="197" y="-227.199" font-family="sans-serif" font-size="10.00">com::google::web::bindery::requestfactory::shared::Locator&lt; Message, Void &gt;</text>
<polyline fill="none" stroke="#bfbfbf" points="-0.51416,-219.066 394.514,-219.066 "/>
<text text-anchor="middle" x="197" y="-205.066" font-family="sans-serif" font-size="10.00"> </text>
<polyline fill="none" stroke="#bfbfbf" points="-0.51416,-196.934 394.514,-196.934 "/>
<text text-anchor="middle" x="197" y="-182.934" font-family="sans-serif" font-size="10.00"> </text>
</g>
<!-- Node2&#45;&gt;Node1 -->
<g id="edge2" class="edge"><title>Node2&#45;&gt;Node1</title>
<path fill="none" stroke="midnightblue" d="M197,-164.455C197,-155.899 197,-146.709 197,-137.542"/>
<polygon fill="none" stroke="midnightblue" points="193.5,-164.533 197,-174.533 200.5,-164.533 193.5,-164.533"/>
</g>
</g>
</svg>
