<?xml version="1.0" encoding="UTF-8" standalone="no"?>
<!DOCTYPE svg PUBLIC "-//W3C//DTD SVG 1.1//EN"
 "http://www.w3.org/Graphics/SVG/1.1/DTD/svg11.dtd">
<!-- Generated by graphviz version 2.28.0 (20111028.1807)
 -->
<!-- Title: G Pages: 1 -->
<!--zoomable 112 -->
<svg id="main" version="1.1" xmlns="http://www.w3.org/2000/svg" xmlns:xlink="http://www.w3.org/1999/xlink" xml:space="preserve" onload="init(evt)">
        <defs>
                <circle id="rim" cx="0" cy="0" r="7"/>
                <circle id="rim2" cx="0" cy="0" r="3.5"/>
                <g id="zoomPlus">
                        <use xlink:href="#rim" fill="#404040">
                                <set attributeName="fill" to="#808080" begin="zoomplus.mouseover" end="zoomplus.mouseout"/>
                        </use>
                        <path d="M-4,0h8M0,-4v8" fill="none" stroke="white" stroke-width="1.5" pointer-events="none"/>
                </g>
                <g id="zoomMin">
                        <use xlink:href="#rim" fill="#404040">
                                <set attributeName="fill" to="#808080" begin="zoomminus.mouseover" end="zoomminus.mouseout"/>
                        </use>
                        <path d="M-4,0h8" fill="none" stroke="white" stroke-width="1.5" pointer-events="none"/>
                </g>
                <g id="dirArrow">
                        <path fill="none" stroke="white" stroke-width="1.5" d="M0,-3.0v7 M-2.5,-0.5L0,-3.0L2.5,-0.5"/>
                </g>
               <g id="resetDef">
                       <use xlink:href="#rim2" fill="#404040">
                               <set attributeName="fill" to="#808080" begin="reset.mouseover" end="reset.mouseout"/>
                       </use>
               </g>
        </defs>

<script type="text/javascript">
var viewWidth = 1288;
var viewHeight = 112;
var sectionId = 'dynsection-2';
</script>
<script xlink:href="svgpan.js"/>
<svg id="graph" class="graph">
<g id="viewport">
<title>G</title>
<!-- Node1 -->
<g id="node1" class="node"><title>Node1</title>
<polygon fill="#bfbfbf" stroke="black" points="0.331055,-19.9336 0.331055,-42.0664 327.669,-42.0664 327.669,-19.9336 0.331055,-19.9336"/>
<text text-anchor="middle" x="164" y="-28.0664" font-family="sans-serif" font-size="10.00">com.google.appengine.codelab.Util.getDatastoreServiceInstance</text>
</g>
<!-- Node2 -->
<g id="node3" class="node"><title>Node2</title>
<a xlink:href="classcom_1_1google_1_1appengine_1_1codelab_1_1_item.xhtml#addfefc24274a9ae1e62dc123e4bc2a68" target="_top" xlink:title="com.google.appengine.codelab.Item.getSingleItem">
<polygon fill="none" stroke="black" points="363.975,-40.9336 363.975,-63.0664 626.025,-63.0664 626.025,-40.9336 363.975,-40.9336"/>
<text text-anchor="middle" x="495" y="-49.0664" font-family="sans-serif" font-size="10.00">com.google.appengine.codelab.Item.getSingleItem</text>
</a>
</g>
<!-- Node1&#45;&gt;Node2 -->
<g id="edge2" class="edge"><title>Node1&#45;&gt;Node2</title>
<path fill="none" stroke="midnightblue" d="M338.14,-42.0515C346.723,-42.5994 355.276,-43.1453 363.703,-43.6832"/>
<polygon fill="midnightblue" stroke="midnightblue" points="338.257,-38.5519 328.054,-41.4077 337.811,-45.5377 338.257,-38.5519"/>
</g>
<!-- Node7 -->
<g id="node13" class="node"><title>Node7</title>
<a xlink:href="classcom_1_1google_1_1appengine_1_1codelab_1_1_product.xhtml#a7a8a391c4b6446d33e163ceb21521e69" target="_top" xlink:title="com.google.appengine.codelab.Product.getItems">
<polygon fill="none" stroke="black" points="368.218,0.0664062 368.218,-22.0664 621.782,-22.0664 621.782,0.0664062 368.218,0.0664062"/>
<text text-anchor="middle" x="495" y="-8.06641" font-family="sans-serif" font-size="10.00">com.google.appengine.codelab.Product.getItems</text>
</a>
</g>
<!-- Node1&#45;&gt;Node7 -->
<g id="edge12" class="edge"><title>Node1&#45;&gt;Node7</title>
<path fill="none" stroke="midnightblue" d="M338.109,-20.4766C348.156,-19.8659 358.159,-19.2578 367.97,-18.6614"/>
<polygon fill="midnightblue" stroke="midnightblue" points="337.823,-16.9875 328.054,-21.0879 338.248,-23.9746 337.823,-16.9875"/>
</g>
<!-- Node3 -->
<g id="node5" class="node"><title>Node3</title>
<a xlink:href="classcom_1_1google_1_1appengine_1_1codelab_1_1_item.xhtml#a1f0cd1ed3e9e496f6cd40cde580dc045" target="_top" xlink:title="com.google.appengine.codelab.Item.createOrUpdateItem">
<polygon fill="none" stroke="black" points="662.423,-81.9336 662.423,-104.066 955.577,-104.066 955.577,-81.9336 662.423,-81.9336"/>
<text text-anchor="middle" x="809" y="-90.0664" font-family="sans-serif" font-size="10.00">com.google.appengine.codelab.Item.createOrUpdateItem</text>
</a>
</g>
<!-- Node2&#45;&gt;Node3 -->
<g id="edge4" class="edge"><title>Node2&#45;&gt;Node3</title>
<path fill="none" stroke="midnightblue" d="M590.492,-64.4173C632.937,-69.995 682.616,-76.5232 723.771,-81.9315"/>
<polygon fill="midnightblue" stroke="midnightblue" points="590.802,-60.928 580.432,-63.0952 589.89,-67.8683 590.802,-60.928"/>
</g>
<!-- Node5 -->
<g id="node9" class="node"><title>Node5</title>
<a xlink:href="classcom_1_1google_1_1appengine_1_1codelab_1_1_item.xhtml#a43b58e542f3362d9d1f3c35cc0d27d4d" target="_top" xlink:title="com.google.appengine.codelab.Item.deleteItem">
<polygon fill="none" stroke="black" points="685.519,-40.9336 685.519,-63.0664 932.481,-63.0664 932.481,-40.9336 685.519,-40.9336"/>
<text text-anchor="middle" x="809" y="-49.0664" font-family="sans-serif" font-size="10.00">com.google.appengine.codelab.Item.deleteItem</text>
</a>
</g>
<!-- Node2&#45;&gt;Node5 -->
<g id="edge8" class="edge"><title>Node2&#45;&gt;Node5</title>
<path fill="none" stroke="midnightblue" d="M636.187,-52C652.516,-52 669.078,-52 685.149,-52"/>
<polygon fill="midnightblue" stroke="midnightblue" points="636.057,-48.5001 626.057,-52 636.057,-55.5001 636.057,-48.5001"/>
</g>
<!-- Node4 -->
<g id="node7" class="node"><title>Node4</title>
<a xlink:href="classcom_1_1google_1_1appengine_1_1codelab_1_1_item_servlet.xhtml#a5d5c9f0b60f447633023ec79cfa95ea1" target="_top" xlink:title="com.google.appengine.codelab.ItemServlet.doPut">
<polygon fill="none" stroke="black" points="1007.93,-81.9336 1007.93,-104.066 1264.07,-104.066 1264.07,-81.9336 1007.93,-81.9336"/>
<text text-anchor="middle" x="1136" y="-90.0664" font-family="sans-serif" font-size="10.00">com.google.appengine.codelab.ItemServlet.doPut</text>
</a>
</g>
<!-- Node3&#45;&gt;Node4 -->
<g id="edge6" class="edge"><title>Node3&#45;&gt;Node4</title>
<path fill="none" stroke="midnightblue" d="M965.972,-93C979.877,-93 993.846,-93 1007.47,-93"/>
<polygon fill="midnightblue" stroke="midnightblue" points="965.863,-89.5001 955.863,-93 965.863,-96.5001 965.863,-89.5001"/>
</g>
<!-- Node6 -->
<g id="node11" class="node"><title>Node6</title>
<a xlink:href="classcom_1_1google_1_1appengine_1_1codelab_1_1_item_servlet.xhtml#a977e84d117d1e9c9faf1be8e71f0e69e" target="_top" xlink:title="com.google.appengine.codelab.ItemServlet.doDelete">
<polygon fill="none" stroke="black" points="1000.25,-40.9336 1000.25,-63.0664 1271.75,-63.0664 1271.75,-40.9336 1000.25,-40.9336"/>
<text text-anchor="middle" x="1136" y="-49.0664" font-family="sans-serif" font-size="10.00">com.google.appengine.codelab.ItemServlet.doDelete</text>
</a>
</g>
<!-- Node5&#45;&gt;Node6 -->
<g id="edge10" class="edge"><title>Node5&#45;&gt;Node6</title>
<path fill="none" stroke="midnightblue" d="M942.957,-52C961.776,-52 981.143,-52 1000,-52"/>
<polygon fill="midnightblue" stroke="midnightblue" points="942.869,-48.5001 932.869,-52 942.869,-55.5001 942.869,-48.5001"/>
</g>
<!-- Node8 -->
<g id="node15" class="node"><title>Node8</title>
<a xlink:href="classcom_1_1google_1_1appengine_1_1codelab_1_1_product.xhtml#addc5d2e4ec78d1eef631ffc4cdf268a1" target="_top" xlink:title="com.google.appengine.codelab.Product.deleteProduct">
<polygon fill="none" stroke="black" points="669.923,0.0664062 669.923,-22.0664 948.077,-22.0664 948.077,0.0664062 669.923,0.0664062"/>
<text text-anchor="middle" x="809" y="-8.06641" font-family="sans-serif" font-size="10.00">com.google.appengine.codelab.Product.deleteProduct</text>
</a>
</g>
<!-- Node7&#45;&gt;Node8 -->
<g id="edge14" class="edge"><title>Node7&#45;&gt;Node8</title>
<path fill="none" stroke="midnightblue" d="M632.006,-11C644.534,-11 657.237,-11 669.784,-11"/>
<polygon fill="midnightblue" stroke="midnightblue" points="632.003,-7.5001 622.003,-11 632.003,-14.5001 632.003,-7.5001"/>
</g>
<!-- Node9 -->
<g id="node17" class="node"><title>Node9</title>
<a xlink:href="classcom_1_1google_1_1appengine_1_1codelab_1_1_product_servlet.xhtml#a772fa15f8adf07619e0e71e58488f198" target="_top" xlink:title="com.google.appengine.codelab.ProductServlet.doDelete">
<polygon fill="none" stroke="black" points="992.456,0.0664062 992.456,-22.0664 1279.54,-22.0664 1279.54,0.0664062 992.456,0.0664062"/>
<text text-anchor="middle" x="1136" y="-8.06641" font-family="sans-serif" font-size="10.00">com.google.appengine.codelab.ProductServlet.doDelete</text>
</a>
</g>
<!-- Node8&#45;&gt;Node9 -->
<g id="edge16" class="edge"><title>Node8&#45;&gt;Node9</title>
<path fill="none" stroke="midnightblue" d="M958.603,-11C969.855,-11 981.197,-11 992.411,-11"/>
<polygon fill="midnightblue" stroke="midnightblue" points="958.301,-7.5001 948.301,-11 958.3,-14.5001 958.301,-7.5001"/>
</g>
</g>
</svg>
        <g id="navigator" transform="translate(0 0)" fill="#404254">
                <rect fill="#f2f5e9" fill-opacity="0.5" stroke="#606060" stroke-width=".5" x="0" y="0" width="60" height="60"/>
                <use id="zoomplus" xlink:href="#zoomPlus" x="17" y="9" onmousedown="handleZoom(evt,'in')"/>
                <use id="zoomminus" xlink:href="#zoomMin" x="42" y="9" onmousedown="handleZoom(evt,'out')"/>
                <use id="reset" xlink:href="#resetDef" x="30" y="36" onmousedown="handleReset()"/>
                <g id="arrowUp" xlink:href="#dirArrow" transform="translate(30 24)" onmousedown="handlePan(0,-1)">
                  <use xlink:href="#rim" fill="#404040">
                        <set attributeName="fill" to="#808080" begin="arrowUp.mouseover" end="arrowUp.mouseout"/>
                  </use>
                  <path fill="none" stroke="white" stroke-width="1.5" d="M0,-3.0v7 M-2.5,-0.5L0,-3.0L2.5,-0.5"/>
                </g>
                <g id="arrowRight" xlink:href="#dirArrow" transform="rotate(90) translate(36 -43)" onmousedown="handlePan(1,0)">
                  <use xlink:href="#rim" fill="#404040">
                        <set attributeName="fill" to="#808080" begin="arrowRight.mouseover" end="arrowRight.mouseout"/>
                  </use>
                  <path fill="none" stroke="white" stroke-width="1.5" d="M0,-3.0v7 M-2.5,-0.5L0,-3.0L2.5,-0.5"/>
                </g>
                <g id="arrowDown" xlink:href="#dirArrow" transform="rotate(180) translate(-30 -48)" onmousedown="handlePan(0,1)">
                  <use xlink:href="#rim" fill="#404040">
                        <set attributeName="fill" to="#808080" begin="arrowDown.mouseover" end="arrowDown.mouseout"/>
                  </use>
                  <path fill="none" stroke="white" stroke-width="1.5" d="M0,-3.0v7 M-2.5,-0.5L0,-3.0L2.5,-0.5"/>
                </g>
                <g id="arrowLeft" xlink:href="#dirArrow" transform="rotate(270) translate(-36 17)" onmousedown="handlePan(-1,0)">
                  <use xlink:href="#rim" fill="#404040">
                        <set attributeName="fill" to="#808080" begin="arrowLeft.mouseover" end="arrowLeft.mouseout"/>
                  </use>
                  <path fill="none" stroke="white" stroke-width="1.5" d="M0,-3.0v7 M-2.5,-0.5L0,-3.0L2.5,-0.5"/>
                </g>
        </g>
        <svg viewBox="0 0 25 25" width="100%" height="30px" preserveAspectRatio="xMaxYMin meet"> 
          <g id="printButton" transform="scale(0.4 0.4)" onmousedown="handlePrint(evt)">
            <rect height="23.33753581" id="paper" rx="2" style="fill:#f2f5e9;fill-rule:evenodd;stroke:#111111;stroke-width:3.224;stroke-linejoin:round;" transform="matrix(1.000000,0.000000,-0.339266,0.940691,0.000000,0.000000)" width="25.55231285" x="26.69387353" y="7.36162977"/>
            <rect height="26.272097" id="body" rx="2" style="fill:#404040;fill-rule:evenodd;stroke:#111111;stroke-width:3.125;stroke-linejoin:round;" width="50" x="4.5295201" y="27.078951"/>
            <rect height="8.27750969" id="tray" style="fill:#d2d5c9;fill-rule:evenodd;stroke:#111111;stroke-width:3.125;stroke-linecap:round;stroke-linejoin:round;" width="40" x="10.28778839" y="44.96812282"/>
          </g>
        </svg>
</svg>
