<?xml version="1.0" encoding="UTF-8" standalone="no"?>
<!DOCTYPE svg PUBLIC "-//W3C//DTD SVG 1.1//EN"
 "http://www.w3.org/Graphics/SVG/1.1/DTD/svg11.dtd">
<!-- Generated by graphviz version 2.28.0 (20111028.1807)
 -->
<!-- Title: G Pages: 1 -->
<svg width="188pt" height="336pt"
 viewBox="0.00 0.00 188.00 336.00" xmlns="http://www.w3.org/2000/svg" xmlns:xlink="http://www.w3.org/1999/xlink">
<g id="graph1" class="graph" transform="scale(1 1) rotate(0) translate(4 332)">
<title>G</title>
<!-- Node1 -->
<g id="node1" class="node"><title>Node1</title>
<polygon fill="#bfbfbf" stroke="black" points="-0.468262,-1.13672 -0.468262,-208.863 180.468,-208.863 180.468,-1.13672 -0.468262,-1.13672"/>
<text text-anchor="middle" x="90" y="-194.863" font-family="sans-serif" font-size="10.00">csc440.nuf.complay.PlayerActivity</text>
<polyline fill="none" stroke="black" points="-0.468262,-186.73 180.468,-186.73 "/>
<text text-anchor="start" x="7.53174" y="-172.73" font-family="sans-serif" font-size="10.00">~ playingCopy</text>
<text text-anchor="start" x="7.53174" y="-158.598" font-family="sans-serif" font-size="10.00">~ fromMessage</text>
<text text-anchor="start" x="7.53174" y="-144.465" font-family="sans-serif" font-size="10.00">~ playPressed</text>
<polyline fill="none" stroke="black" points="-0.468262,-136.332 180.468,-136.332 "/>
<text text-anchor="start" x="7.53174" y="-122.332" font-family="sans-serif" font-size="10.00">+ onCreate()</text>
<text text-anchor="start" x="7.53174" y="-108.199" font-family="sans-serif" font-size="10.00">+ onProgressChanged()</text>
<text text-anchor="start" x="7.53174" y="-94.0664" font-family="sans-serif" font-size="10.00">+ onStartTrackingTouch()</text>
<text text-anchor="start" x="7.53174" y="-79.9336" font-family="sans-serif" font-size="10.00">+ onStopTrackingTouch()</text>
<text text-anchor="start" x="7.53174" y="-65.8008" font-family="sans-serif" font-size="10.00">+ playPause()</text>
<text text-anchor="start" x="7.53174" y="-51.668" font-family="sans-serif" font-size="10.00">+ playPause()</text>
<text text-anchor="start" x="7.53174" y="-37.5352" font-family="sans-serif" font-size="10.00">+ formatSecondsToMinutes()</text>
<text text-anchor="start" x="7.53174" y="-23.4023" font-family="sans-serif" font-size="10.00"># onResume()</text>
<text text-anchor="start" x="7.53174" y="-9.26953" font-family="sans-serif" font-size="10.00"># onPause()</text>
</g>
<!-- Node2 -->
<g id="node2" class="node"><title>Node2</title>
<polygon fill="none" stroke="#bfbfbf" points="21.1582,-260.801 21.1582,-327.199 72.8418,-327.199 72.8418,-260.801 21.1582,-260.801"/>
<text text-anchor="middle" x="47" y="-313.199" font-family="sans-serif" font-size="10.00">Activity</text>
<polyline fill="none" stroke="#bfbfbf" points="21.1582,-305.066 72.8418,-305.066 "/>
<text text-anchor="middle" x="47" y="-291.066" font-family="sans-serif" font-size="10.00"> </text>
<polyline fill="none" stroke="#bfbfbf" points="21.1582,-282.934 72.8418,-282.934 "/>
<text text-anchor="middle" x="47" y="-268.934" font-family="sans-serif" font-size="10.00"> </text>
</g>
<!-- Node2&#45;&gt;Node1 -->
<g id="edge2" class="edge"><title>Node2&#45;&gt;Node1</title>
<path fill="none" stroke="midnightblue" d="M56.8101,-250.337C59.6937,-237.797 62.9803,-223.504 66.338,-208.902"/>
<polygon fill="none" stroke="midnightblue" points="53.3201,-249.897 54.49,-260.427 60.1421,-251.466 53.3201,-249.897"/>
</g>
<!-- Node3 -->
<g id="node4" class="node"><title>Node3</title>
<polygon fill="none" stroke="#bfbfbf" points="91.0732,-260.801 91.0732,-327.199 176.927,-327.199 176.927,-260.801 91.0732,-260.801"/>
<text text-anchor="middle" x="134" y="-313.199" font-family="sans-serif" font-size="10.00">RelativeLayout</text>
<polyline fill="none" stroke="#bfbfbf" points="91.0732,-305.066 176.927,-305.066 "/>
<text text-anchor="middle" x="134" y="-291.066" font-family="sans-serif" font-size="10.00"> </text>
<polyline fill="none" stroke="#bfbfbf" points="91.0732,-282.934 176.927,-282.934 "/>
<text text-anchor="middle" x="134" y="-268.934" font-family="sans-serif" font-size="10.00"> </text>
</g>
<!-- Node3&#45;&gt;Node1 -->
<g id="edge4" class="edge"><title>Node3&#45;&gt;Node1</title>
<path fill="none" stroke="#404040" d="M126.336,-260.427C123.616,-248.867 120.378,-235.107 116.973,-220.634"/>
<polygon fill="none" stroke="#404040" points="116.961,-220.583 111.693,-215.659 114.212,-208.902 119.48,-213.826 116.961,-220.583"/>
<text text-anchor="middle" x="145.912" y="-232.066" font-family="sans-serif" font-size="10.00"> mainView</text>
</g>
</g>
</svg>
