<?xml version="1.0" encoding="UTF-8" standalone="no"?>
<!DOCTYPE svg PUBLIC "-//W3C//DTD SVG 1.1//EN"
 "http://www.w3.org/Graphics/SVG/1.1/DTD/svg11.dtd">
<!-- Generated by graphviz version 2.28.0 (20111028.1807)
 -->
<!-- Title: G Pages: 1 -->
<svg width="422pt" height="71pt"
 viewBox="0.00 0.00 422.00 71.00" xmlns="http://www.w3.org/2000/svg" xmlns:xlink="http://www.w3.org/1999/xlink">
<g id="graph1" class="graph" transform="scale(1 1) rotate(0) translate(4 67)">
<title>G</title>
<!-- Node1 -->
<g id="node1" class="node"><title>Node1</title>
<polygon fill="#bfbfbf" stroke="black" points="-0.0424805,-19.9336 -0.0424805,-42.0664 158.042,-42.0664 158.042,-19.9336 -0.0424805,-19.9336"/>
<text text-anchor="middle" x="79" y="-28.0664" font-family="sans-serif" font-size="10.00">csc440.nuf.ActionBar.setTitle</text>
</g>
<!-- Node2 -->
<g id="node3" class="node"><title>Node2</title>
<a xlink:href="classcsc440_1_1nuf_1_1_s_m_i_l_activity.xhtml#a2940cb9bd30e02c726a99b9949f94472" target="_top" xlink:title="csc440.nuf.SMILActivity.onResume">
<polygon fill="none" stroke="black" points="211.879,-40.9336 211.879,-63.0664 396.121,-63.0664 396.121,-40.9336 211.879,-40.9336"/>
<text text-anchor="middle" x="304" y="-49.0664" font-family="sans-serif" font-size="10.00">csc440.nuf.SMILActivity.onResume</text>
</a>
</g>
<!-- Node1&#45;&gt;Node2 -->
<g id="edge2" class="edge"><title>Node1&#45;&gt;Node2</title>
<path fill="none" stroke="midnightblue" d="M168.501,-39.3342C182.643,-40.666 197.302,-42.0464 211.512,-43.3846"/>
<polygon fill="midnightblue" stroke="midnightblue" points="168.592,-35.8273 158.308,-38.3743 167.936,-42.7965 168.592,-35.8273"/>
</g>
<!-- Node3 -->
<g id="node5" class="node"><title>Node3</title>
<a xlink:href="classcsc440_1_1nuf_1_1_view_message_activity.xhtml#a067f20ee5e75405a29b71d914d62a2fc" target="_top" xlink:title="csc440.nuf.ViewMessageActivity.onCreate">
<polygon fill="none" stroke="black" points="194.123,0.0664062 194.123,-22.0664 413.877,-22.0664 413.877,0.0664062 194.123,0.0664062"/>
<text text-anchor="middle" x="304" y="-8.06641" font-family="sans-serif" font-size="10.00">csc440.nuf.ViewMessageActivity.onCreate</text>
</a>
</g>
<!-- Node1&#45;&gt;Node3 -->
<g id="edge4" class="edge"><title>Node1&#45;&gt;Node3</title>
<path fill="none" stroke="midnightblue" d="M168.438,-23.0684C176.828,-22.3159 185.4,-21.5471 193.952,-20.7801"/>
<polygon fill="midnightblue" stroke="midnightblue" points="167.955,-19.5975 158.308,-23.9769 168.581,-26.5695 167.955,-19.5975"/>
</g>
</g>
</svg>
