<?xml version="1.0" encoding="UTF-8" standalone="no"?>
<!DOCTYPE svg PUBLIC "-//W3C//DTD SVG 1.1//EN"
 "http://www.w3.org/Graphics/SVG/1.1/DTD/svg11.dtd">
<!-- Generated by graphviz version 2.28.0 (20111028.1807)
 -->
<!-- Title: G Pages: 1 -->
<!--zoomable 153 -->
<svg id="main" version="1.1" xmlns="http://www.w3.org/2000/svg" xmlns:xlink="http://www.w3.org/1999/xlink" xml:space="preserve" onload="init(evt)">
        <defs>
                <circle id="rim" cx="0" cy="0" r="7"/>
                <circle id="rim2" cx="0" cy="0" r="3.5"/>
                <g id="zoomPlus">
                        <use xlink:href="#rim" fill="#404040">
                                <set attributeName="fill" to="#808080" begin="zoomplus.mouseover" end="zoomplus.mouseout"/>
                        </use>
                        <path d="M-4,0h8M0,-4v8" fill="none" stroke="white" stroke-width="1.5" pointer-events="none"/>
                </g>
                <g id="zoomMin">
                        <use xlink:href="#rim" fill="#404040">
                                <set attributeName="fill" to="#808080" begin="zoomminus.mouseover" end="zoomminus.mouseout"/>
                        </use>
                        <path d="M-4,0h8" fill="none" stroke="white" stroke-width="1.5" pointer-events="none"/>
                </g>
                <g id="dirArrow">
                        <path fill="none" stroke="white" stroke-width="1.5" d="M0,-3.0v7 M-2.5,-0.5L0,-3.0L2.5,-0.5"/>
                </g>
               <g id="resetDef">
                       <use xlink:href="#rim2" fill="#404040">
                               <set attributeName="fill" to="#808080" begin="reset.mouseover" end="reset.mouseout"/>
                       </use>
               </g>
        </defs>

<script type="text/javascript">
var viewWidth = 808;
var viewHeight = 153;
var sectionId = 'dynsection-1';
</script>
<script xlink:href="svgpan.js"/>
<svg id="graph" class="graph">
<g id="viewport">
<title>G</title>
<!-- Node1 -->
<g id="node1" class="node"><title>Node1</title>
<polygon fill="#bfbfbf" stroke="black" points="0.626953,-50.9336 0.626953,-73.0664 291.373,-73.0664 291.373,-50.9336 0.626953,-50.9336"/>
<text text-anchor="middle" x="146" y="-59.0664" font-family="sans-serif" font-size="10.00">csc440.nuf.server.SMILEngineService.createSMILMessage</text>
</g>
<!-- Node2 -->
<g id="node3" class="node"><title>Node2</title>
<a xlink:href="classcsc440_1_1nuf_1_1server_1_1_data_store.xhtml#ab66ed1adeb1a5ee0ce37bf5404909e11" target="_top" xlink:title="csc440.nuf.server.DataStore.update">
<polygon fill="none" stroke="black" points="328.254,-50.9336 328.254,-73.0664 517.746,-73.0664 517.746,-50.9336 328.254,-50.9336"/>
<text text-anchor="middle" x="423" y="-59.0664" font-family="sans-serif" font-size="10.00">csc440.nuf.server.DataStore.update</text>
</a>
</g>
<!-- Node1&#45;&gt;Node2 -->
<g id="edge2" class="edge"><title>Node1&#45;&gt;Node2</title>
<path fill="none" stroke="midnightblue" d="M291.748,-62C300.583,-62 309.379,-62 317.988,-62"/>
<polygon fill="midnightblue" stroke="midnightblue" points="317.999,-65.5001 327.999,-62 317.999,-58.5001 317.999,-65.5001"/>
</g>
<!-- Node4 -->
<g id="node7" class="node"><title>Node4</title>
<a xlink:href="classcsc440_1_1nuf_1_1server_1_1_data_store.xhtml#aec9033c4e9624646beb5276de28bfe59" target="_top" xlink:title="csc440.nuf.server.DataStore.getUserId">
<polygon fill="none" stroke="black" points="575.863,-122.934 575.863,-145.066 778.137,-145.066 778.137,-122.934 575.863,-122.934"/>
<text text-anchor="middle" x="677" y="-131.066" font-family="sans-serif" font-size="10.00">csc440.nuf.server.DataStore.getUserId</text>
</a>
</g>
<!-- Node1&#45;&gt;Node4 -->
<g id="edge12" class="edge"><title>Node1&#45;&gt;Node4</title>
<path fill="none" stroke="midnightblue" d="M228.497,-73.0922C324.605,-86.1731 483.941,-107.86 584.286,-121.517"/>
<polygon fill="midnightblue" stroke="midnightblue" points="584.03,-125.015 594.41,-122.895 584.974,-118.078 584.03,-125.015"/>
</g>
<!-- Node6 -->
<g id="node11" class="node"><title>Node6</title>
<a xlink:href="classcsc440_1_1nuf_1_1server_1_1_data_store.xhtml#a3749afd0edd374001b7a29ef14495ffc" target="_top" xlink:title="csc440.nuf.server.DataStore.getUserEmail">
<polygon fill="none" stroke="black" points="567.42,0.0664062 567.42,-22.0664 786.58,-22.0664 786.58,0.0664062 567.42,0.0664062"/>
<text text-anchor="middle" x="677" y="-8.06641" font-family="sans-serif" font-size="10.00">csc440.nuf.server.DataStore.getUserEmail</text>
</a>
</g>
<!-- Node1&#45;&gt;Node6 -->
<g id="edge14" class="edge"><title>Node1&#45;&gt;Node6</title>
<path fill="none" stroke="midnightblue" d="M238.094,-50.8996C266.838,-47.5396 298.729,-43.9591 328,-41 404.182,-33.2986 489.874,-25.896 557.162,-20.371"/>
<polygon fill="midnightblue" stroke="midnightblue" points="557.694,-23.8393 567.375,-19.5352 557.123,-16.8626 557.694,-23.8393"/>
</g>
<!-- Node3 -->
<g id="node5" class="node"><title>Node3</title>
<a xlink:href="classcsc440_1_1nuf_1_1server_1_1_s_m_i_l_message.xhtml#ae0bf6116cba42238cf2ddd705222021c" target="_top" xlink:title="csc440.nuf.server.SMILMessage.setId">
<polygon fill="none" stroke="black" points="578.919,-81.9336 578.919,-104.066 775.081,-104.066 775.081,-81.9336 578.919,-81.9336"/>
<text text-anchor="middle" x="677" y="-90.0664" font-family="sans-serif" font-size="10.00">csc440.nuf.server.SMILMessage.setId</text>
</a>
</g>
<!-- Node2&#45;&gt;Node3 -->
<g id="edge4" class="edge"><title>Node2&#45;&gt;Node3</title>
<path fill="none" stroke="midnightblue" d="M514.266,-73.1042C534.201,-75.5564 555.436,-78.1687 575.74,-80.6665"/>
<polygon fill="midnightblue" stroke="midnightblue" points="575.588,-84.1741 585.941,-81.9213 576.443,-77.2265 575.588,-84.1741"/>
</g>
<!-- Node2&#45;&gt;Node4 -->
<g id="edge6" class="edge"><title>Node2&#45;&gt;Node4</title>
<path fill="none" stroke="midnightblue" d="M447.934,-73.0959C473.641,-84.6059 515.937,-102.377 554,-113 564.727,-115.994 576.111,-118.636 587.445,-120.946"/>
<polygon fill="midnightblue" stroke="midnightblue" points="586.889,-124.404 597.375,-122.892 588.234,-117.534 586.889,-124.404"/>
</g>
<!-- Node5 -->
<g id="node9" class="node"><title>Node5</title>
<a xlink:href="classcsc440_1_1nuf_1_1server_1_1_s_m_i_l_message.xhtml#a839f38b917f400f15cc39046b99d7ec6" target="_top" xlink:title="csc440.nuf.server.SMILMessage.setSenderEmail">
<polygon fill="none" stroke="black" points="553.917,-40.9336 553.917,-63.0664 800.083,-63.0664 800.083,-40.9336 553.917,-40.9336"/>
<text text-anchor="middle" x="677" y="-49.0664" font-family="sans-serif" font-size="10.00">csc440.nuf.server.SMILMessage.setSenderEmail</text>
</a>
</g>
<!-- Node2&#45;&gt;Node5 -->
<g id="edge8" class="edge"><title>Node2&#45;&gt;Node5</title>
<path fill="none" stroke="midnightblue" d="M517.835,-58.2764C526.284,-57.9411 534.94,-57.5976 543.635,-57.2526"/>
<polygon fill="midnightblue" stroke="midnightblue" points="543.999,-60.741 553.852,-56.8471 543.721,-53.7465 543.999,-60.741"/>
</g>
<!-- Node2&#45;&gt;Node6 -->
<g id="edge10" class="edge"><title>Node2&#45;&gt;Node6</title>
<path fill="none" stroke="midnightblue" d="M467.162,-50.8878C492.383,-44.6005 524.883,-36.8505 554,-31 566.576,-28.473 579.93,-26.0359 593.012,-23.7844"/>
<polygon fill="midnightblue" stroke="midnightblue" points="593.672,-27.2226 602.946,-22.1004 592.502,-20.321 593.672,-27.2226"/>
</g>
</g>
</svg>
        <g id="navigator" transform="translate(0 0)" fill="#404254">
                <rect fill="#f2f5e9" fill-opacity="0.5" stroke="#606060" stroke-width=".5" x="0" y="0" width="60" height="60"/>
                <use id="zoomplus" xlink:href="#zoomPlus" x="17" y="9" onmousedown="handleZoom(evt,'in')"/>
                <use id="zoomminus" xlink:href="#zoomMin" x="42" y="9" onmousedown="handleZoom(evt,'out')"/>
                <use id="reset" xlink:href="#resetDef" x="30" y="36" onmousedown="handleReset()"/>
                <g id="arrowUp" xlink:href="#dirArrow" transform="translate(30 24)" onmousedown="handlePan(0,-1)">
                  <use xlink:href="#rim" fill="#404040">
                        <set attributeName="fill" to="#808080" begin="arrowUp.mouseover" end="arrowUp.mouseout"/>
                  </use>
                  <path fill="none" stroke="white" stroke-width="1.5" d="M0,-3.0v7 M-2.5,-0.5L0,-3.0L2.5,-0.5"/>
                </g>
                <g id="arrowRight" xlink:href="#dirArrow" transform="rotate(90) translate(36 -43)" onmousedown="handlePan(1,0)">
                  <use xlink:href="#rim" fill="#404040">
                        <set attributeName="fill" to="#808080" begin="arrowRight.mouseover" end="arrowRight.mouseout"/>
                  </use>
                  <path fill="none" stroke="white" stroke-width="1.5" d="M0,-3.0v7 M-2.5,-0.5L0,-3.0L2.5,-0.5"/>
                </g>
                <g id="arrowDown" xlink:href="#dirArrow" transform="rotate(180) translate(-30 -48)" onmousedown="handlePan(0,1)">
                  <use xlink:href="#rim" fill="#404040">
                        <set attributeName="fill" to="#808080" begin="arrowDown.mouseover" end="arrowDown.mouseout"/>
                  </use>
                  <path fill="none" stroke="white" stroke-width="1.5" d="M0,-3.0v7 M-2.5,-0.5L0,-3.0L2.5,-0.5"/>
                </g>
                <g id="arrowLeft" xlink:href="#dirArrow" transform="rotate(270) translate(-36 17)" onmousedown="handlePan(-1,0)">
                  <use xlink:href="#rim" fill="#404040">
                        <set attributeName="fill" to="#808080" begin="arrowLeft.mouseover" end="arrowLeft.mouseout"/>
                  </use>
                  <path fill="none" stroke="white" stroke-width="1.5" d="M0,-3.0v7 M-2.5,-0.5L0,-3.0L2.5,-0.5"/>
                </g>
        </g>
        <svg viewBox="0 0 25 25" width="100%" height="30px" preserveAspectRatio="xMaxYMin meet"> 
          <g id="printButton" transform="scale(0.4 0.4)" onmousedown="handlePrint(evt)">
            <rect height="23.33753581" id="paper" rx="2" style="fill:#f2f5e9;fill-rule:evenodd;stroke:#111111;stroke-width:3.224;stroke-linejoin:round;" transform="matrix(1.000000,0.000000,-0.339266,0.940691,0.000000,0.000000)" width="25.55231285" x="26.69387353" y="7.36162977"/>
            <rect height="26.272097" id="body" rx="2" style="fill:#404040;fill-rule:evenodd;stroke:#111111;stroke-width:3.125;stroke-linejoin:round;" width="50" x="4.5295201" y="27.078951"/>
            <rect height="8.27750969" id="tray" style="fill:#d2d5c9;fill-rule:evenodd;stroke:#111111;stroke-width:3.125;stroke-linecap:round;stroke-linejoin:round;" width="40" x="10.28778839" y="44.96812282"/>
          </g>
        </svg>
</svg>
