<?xml version="1.0" encoding="UTF-8" standalone="no"?>
<!DOCTYPE svg PUBLIC "-//W3C//DTD SVG 1.1//EN"
 "http://www.w3.org/Graphics/SVG/1.1/DTD/svg11.dtd">
<!-- Generated by graphviz version 2.28.0 (20111028.1807)
 -->
<!-- Title: G Pages: 1 -->
<svg width="529pt" height="174pt"
 viewBox="0.00 0.00 529.00 174.00" xmlns="http://www.w3.org/2000/svg" xmlns:xlink="http://www.w3.org/1999/xlink">
<g id="graph1" class="graph" transform="scale(1 1) rotate(0) translate(4 170)">
<title>G</title>
<!-- Node9 -->
<g id="node1" class="node"><title>Node9</title>
<polygon fill="#bfbfbf" stroke="black" points="299.588,-22.1332 240.412,-22.1332 240.412,0.133213 299.588,0.133213 299.588,-22.1332"/>
<text text-anchor="middle" x="270" y="-8.06641" font-family="sans-serif" font-size="10.00">Inherited</text>
</g>
<!-- Node10 -->
<g id="node2" class="node"><title>Node10</title>
<a xlink:href="$classPublicBase.xhtml" xlink:title="PublicBase">
<polygon fill="none" stroke="black" points="66.156,-94.1332 -0.156047,-94.1332 -0.156047,-71.8668 66.156,-71.8668 66.156,-94.1332"/>
<text text-anchor="middle" x="33" y="-80.0664" font-family="sans-serif" font-size="10.00">PublicBase</text>
</a>
</g>
<!-- Node10&#45;&gt;Node9 -->
<g id="edge2" class="edge"><title>Node10&#45;&gt;Node9</title>
<path fill="none" stroke="midnightblue" d="M75.9096,-69.3263C123.485,-55.2746 198.963,-32.9813 240.383,-20.7477"/>
<polygon fill="midnightblue" stroke="midnightblue" points="74.8024,-66.0038 66.2034,-72.1931 76.7853,-72.7171 74.8024,-66.0038"/>
</g>
<!-- Node11 -->
<g id="node4" class="node"><title>Node11</title>
<a xlink:href="$classTruncated.xhtml" xlink:title="Truncated">
<polygon fill="none" stroke="red" points="65.3076,-166.133 0.692413,-166.133 0.692413,-143.867 65.3076,-143.867 65.3076,-166.133"/>
<text text-anchor="middle" x="33" y="-152.066" font-family="sans-serif" font-size="10.00">Truncated</text>
</a>
</g>
<!-- Node11&#45;&gt;Node10 -->
<g id="edge4" class="edge"><title>Node11&#45;&gt;Node10</title>
<path fill="none" stroke="midnightblue" d="M33,-133.424C33,-120.591 33,-104.623 33,-94.3711"/>
<polygon fill="midnightblue" stroke="midnightblue" points="29.5001,-133.671 33,-143.671 36.5001,-133.671 29.5001,-133.671"/>
</g>
<!-- Node13 -->
<g id="node6" class="node"><title>Node13</title>
<a xlink:href="$classProtectedBase.xhtml" xlink:title="ProtectedBase">
<polygon fill="none" stroke="black" points="167.31,-94.1332 84.6902,-94.1332 84.6902,-71.8668 167.31,-71.8668 167.31,-94.1332"/>
<text text-anchor="middle" x="126" y="-80.0664" font-family="sans-serif" font-size="10.00">ProtectedBase</text>
</a>
</g>
<!-- Node13&#45;&gt;Node9 -->
<g id="edge6" class="edge"><title>Node13&#45;&gt;Node9</title>
<path fill="none" stroke="darkgreen" d="M156.203,-67.3179C184.032,-53.7902 224.603,-34.0681 249.036,-22.1909"/>
<polygon fill="darkgreen" stroke="darkgreen" points="154.402,-64.3016 146.939,-71.8214 157.463,-70.5972 154.402,-64.3016"/>
</g>
<!-- Node14 -->
<g id="node8" class="node"><title>Node14</title>
<a xlink:href="$classPrivateBase.xhtml" xlink:title="PrivateBase">
<polygon fill="none" stroke="black" points="256.348,-94.1332 185.652,-94.1332 185.652,-71.8668 256.348,-71.8668 256.348,-94.1332"/>
<text text-anchor="middle" x="221" y="-80.0664" font-family="sans-serif" font-size="10.00">PrivateBase</text>
</a>
</g>
<!-- Node14&#45;&gt;Node9 -->
<g id="edge8" class="edge"><title>Node14&#45;&gt;Node9</title>
<path fill="none" stroke="#8b1a1a" d="M234.06,-63.3429C243.247,-50.2186 255.201,-33.1409 262.74,-22.3711"/>
<polygon fill="#8b1a1a" stroke="#8b1a1a" points="231.097,-61.4718 228.23,-71.6713 236.832,-65.4861 231.097,-61.4718"/>
</g>
<!-- Node15 -->
<g id="node10" class="node"><title>Node15</title>
<polygon fill="none" stroke="#bfbfbf" points="363.216,-94.1332 274.784,-94.1332 274.784,-71.8668 363.216,-71.8668 363.216,-94.1332"/>
<text text-anchor="middle" x="319" y="-80.0664" font-family="sans-serif" font-size="10.00">Undocumented</text>
</g>
<!-- Node15&#45;&gt;Node9 -->
<g id="edge10" class="edge"><title>Node15&#45;&gt;Node9</title>
<path fill="none" stroke="midnightblue" d="M305.94,-63.3429C296.753,-50.2186 284.799,-33.1409 277.26,-22.3711"/>
<polygon fill="midnightblue" stroke="midnightblue" points="303.168,-65.4861 311.77,-71.6713 308.903,-61.4718 303.168,-65.4861"/>
</g>
<!-- Node16 -->
<g id="node12" class="node"><title>Node16</title>
<a xlink:href="$classTempl.xhtml" xlink:title="Templ&lt; int &gt;">
<polygon fill="none" stroke="black" points="463.608,-94.1332 382.392,-94.1332 382.392,-71.8668 463.608,-71.8668 463.608,-94.1332"/>
<text text-anchor="middle" x="423" y="-80.0664" font-family="sans-serif" font-size="10.00">Templ&lt; int &gt;</text>
</a>
</g>
<!-- Node16&#45;&gt;Node9 -->
<g id="edge12" class="edge"><title>Node16&#45;&gt;Node9</title>
<path fill="none" stroke="midnightblue" d="M391.296,-67.4947C361.718,-53.9626 318.348,-34.12 292.274,-22.1909"/>
<polygon fill="midnightblue" stroke="midnightblue" points="390.203,-70.8437 400.752,-71.8214 393.115,-64.4782 390.203,-70.8437"/>
</g>
<!-- Node17 -->
<g id="node14" class="node"><title>Node17</title>
<a xlink:href="$classTempl.xhtml" xlink:title="Templ&lt; T &gt;">
<polygon fill="none" stroke="black" points="460.224,-166.133 385.776,-166.133 385.776,-143.867 460.224,-143.867 460.224,-166.133"/>
<text text-anchor="middle" x="423" y="-152.066" font-family="sans-serif" font-size="10.00">Templ&lt; T &gt;</text>
</a>
</g>
<!-- Node17&#45;&gt;Node16 -->
<g id="edge14" class="edge"><title>Node17&#45;&gt;Node16</title>
<path fill="none" stroke="orange" stroke-dasharray="5,2" d="M423,-133.424C423,-120.591 423,-104.623 423,-94.3711"/>
<polygon fill="orange" stroke="orange" points="419.5,-133.671 423,-143.671 426.5,-133.671 419.5,-133.671"/>
<text text-anchor="middle" x="440.532" y="-116.066" font-family="sans-serif" font-size="10.00">&lt; int &gt;</text>
</g>
<!-- Node18 -->
<g id="node16" class="node"><title>Node18</title>
<a xlink:href="$classUsed.xhtml" xlink:title="Used">
<polygon fill="none" stroke="black" points="521.42,-94.1332 482.58,-94.1332 482.58,-71.8668 521.42,-71.8668 521.42,-94.1332"/>
<text text-anchor="middle" x="502" y="-80.0664" font-family="sans-serif" font-size="10.00">Used</text>
</a>
</g>
<!-- Node18&#45;&gt;Node9 -->
<g id="edge16" class="edge"><title>Node18&#45;&gt;Node9</title>
<path fill="none" stroke="#9a32cd" stroke-dasharray="5,2" d="M472.631,-72.1991C472.42,-72.1324 472.209,-72.066 472,-72 410.938,-52.7601 338.964,-31.7867 299.532,-20.4407"/>
<polygon fill="#9a32cd" stroke="#9a32cd" points="471.751,-75.5931 482.343,-75.3444 473.908,-68.9336 471.751,-75.5931"/>
<text text-anchor="middle" x="443.516" y="-44.0664" font-family="sans-serif" font-size="10.00">m_usedClass</text>
</g>
</g>
</svg>
