<?xml version="1.0" encoding="UTF-8" standalone="no"?>
<!DOCTYPE svg PUBLIC "-//W3C//DTD SVG 1.1//EN"
 "http://www.w3.org/Graphics/SVG/1.1/DTD/svg11.dtd">
<!-- Generated by graphviz version 2.28.0 (20111028.1807)
 -->
<!-- Title: G Pages: 1 -->
<svg width="482pt" height="235pt"
 viewBox="0.00 0.00 482.00 235.00" xmlns="http://www.w3.org/2000/svg" xmlns:xlink="http://www.w3.org/1999/xlink">
<g id="graph1" class="graph" transform="scale(1 1) rotate(0) translate(4 231)">
<title>G</title>
<!-- Node1 -->
<g id="node1" class="node"><title>Node1</title>
<a xlink:href="classcsc440_1_1nuf_1_1components_1_1_abstract_s_m_i_l_object.xhtml" target="_top" xlink:title="csc440.nuf.components.AbstractSMILObject">
<polygon fill="none" stroke="black" points="-0.00439453,-101.934 -0.00439453,-124.066 230.004,-124.066 230.004,-101.934 -0.00439453,-101.934"/>
<text text-anchor="middle" x="115" y="-110.066" font-family="sans-serif" font-size="10.00">csc440.nuf.components.AbstractSMILObject</text>
</a>
</g>
<!-- Node2 -->
<g id="node3" class="node"><title>Node2</title>
<a xlink:href="classcsc440_1_1nuf_1_1components_1_1_s_m_i_l_audio.xhtml" target="_top" xlink:title="csc440.nuf.components.SMILAudio">
<polygon fill="none" stroke="black" points="276.802,-204.934 276.802,-227.066 463.198,-227.066 463.198,-204.934 276.802,-204.934"/>
<text text-anchor="middle" x="370" y="-213.066" font-family="sans-serif" font-size="10.00">csc440.nuf.components.SMILAudio</text>
</a>
</g>
<!-- Node1&#45;&gt;Node2 -->
<g id="edge2" class="edge"><title>Node1&#45;&gt;Node2</title>
<path fill="none" stroke="midnightblue" d="M140.94,-129.689C169.842,-148.289 219.472,-177.979 266,-195 276.798,-198.95 288.519,-202.228 300.055,-204.925"/>
<polygon fill="midnightblue" stroke="midnightblue" points="142.604,-126.596 132.315,-124.071 138.784,-132.462 142.604,-126.596"/>
</g>
<!-- Node3 -->
<g id="node5" class="node"><title>Node3</title>
<a xlink:href="classcsc440_1_1nuf_1_1components_1_1_s_m_i_l_image.xhtml" target="_top" xlink:title="csc440.nuf.components.SMILImage">
<polygon fill="none" stroke="black" points="276.246,-163.934 276.246,-186.066 463.754,-186.066 463.754,-163.934 276.246,-163.934"/>
<text text-anchor="middle" x="370" y="-172.066" font-family="sans-serif" font-size="10.00">csc440.nuf.components.SMILImage</text>
</a>
</g>
<!-- Node1&#45;&gt;Node3 -->
<g id="edge4" class="edge"><title>Node1&#45;&gt;Node3</title>
<path fill="none" stroke="midnightblue" d="M164.025,-126.991C193.359,-135.321 231.702,-145.826 266,-154 280.557,-157.469 296.356,-160.871 311.108,-163.892"/>
<polygon fill="midnightblue" stroke="midnightblue" points="164.623,-123.522 154.047,-124.143 162.702,-130.253 164.623,-123.522"/>
</g>
<!-- Node4 -->
<g id="node7" class="node"><title>Node4</title>
<a xlink:href="classcsc440_1_1nuf_1_1components_1_1_s_m_i_l_parallel.xhtml" target="_top" xlink:title="csc440.nuf.components.SMILParallel">
<polygon fill="none" stroke="black" points="273.565,-122.934 273.565,-145.066 466.435,-145.066 466.435,-122.934 273.565,-122.934"/>
<text text-anchor="middle" x="370" y="-131.066" font-family="sans-serif" font-size="10.00">csc440.nuf.components.SMILParallel</text>
</a>
</g>
<!-- Node1&#45;&gt;Node4 -->
<g id="edge6" class="edge"><title>Node1&#45;&gt;Node4</title>
<path fill="none" stroke="midnightblue" d="M240.441,-123.329C251.514,-124.248 262.608,-125.169 273.384,-126.063"/>
<polygon fill="midnightblue" stroke="midnightblue" points="240.542,-119.826 230.287,-122.486 239.963,-126.802 240.542,-119.826"/>
</g>
<!-- Node5 -->
<g id="node9" class="node"><title>Node5</title>
<a xlink:href="classcsc440_1_1nuf_1_1components_1_1_s_m_i_l_sequential.xhtml" target="_top" xlink:title="csc440.nuf.components.SMILSequential">
<polygon fill="none" stroke="black" points="265.879,-81.9336 265.879,-104.066 474.121,-104.066 474.121,-81.9336 265.879,-81.9336"/>
<text text-anchor="middle" x="370" y="-90.0664" font-family="sans-serif" font-size="10.00">csc440.nuf.components.SMILSequential</text>
</a>
</g>
<!-- Node1&#45;&gt;Node5 -->
<g id="edge8" class="edge"><title>Node1&#45;&gt;Node5</title>
<path fill="none" stroke="midnightblue" d="M240.533,-103.155C248.946,-102.49 257.37,-101.824 265.658,-101.169"/>
<polygon fill="midnightblue" stroke="midnightblue" points="239.98,-99.6882 230.287,-103.965 240.532,-106.666 239.98,-99.6882"/>
</g>
<!-- Node6 -->
<g id="node11" class="node"><title>Node6</title>
<a xlink:href="classcsc440_1_1nuf_1_1components_1_1_s_m_i_l_text.xhtml" target="_top" xlink:title="csc440.nuf.components.SMILText">
<polygon fill="none" stroke="black" points="280.135,-40.9336 280.135,-63.0664 459.865,-63.0664 459.865,-40.9336 280.135,-40.9336"/>
<text text-anchor="middle" x="370" y="-49.0664" font-family="sans-serif" font-size="10.00">csc440.nuf.components.SMILText</text>
</a>
</g>
<!-- Node1&#45;&gt;Node6 -->
<g id="edge10" class="edge"><title>Node1&#45;&gt;Node6</title>
<path fill="none" stroke="midnightblue" d="M163.697,-98.9796C193.06,-90.5942 231.547,-80.0416 266,-72 279.482,-68.8533 294.037,-65.8122 307.839,-63.0914"/>
<polygon fill="midnightblue" stroke="midnightblue" points="162.358,-95.7226 153.714,-101.848 164.291,-102.45 162.358,-95.7226"/>
</g>
<!-- Node7 -->
<g id="node13" class="node"><title>Node7</title>
<a xlink:href="classcsc440_1_1nuf_1_1components_1_1_s_m_i_l_video.xhtml" target="_top" xlink:title="csc440.nuf.components.SMILVideo">
<polygon fill="none" stroke="black" points="277.3,0.0664062 277.3,-22.0664 462.7,-22.0664 462.7,0.0664062 277.3,0.0664062"/>
<text text-anchor="middle" x="370" y="-8.06641" font-family="sans-serif" font-size="10.00">csc440.nuf.components.SMILVideo</text>
</a>
</g>
<!-- Node1&#45;&gt;Node7 -->
<g id="edge12" class="edge"><title>Node1&#45;&gt;Node7</title>
<path fill="none" stroke="midnightblue" d="M140.912,-96.2316C169.787,-77.5602 219.393,-47.8038 266,-31 275.768,-27.4784 286.292,-24.5335 296.752,-22.083"/>
<polygon fill="midnightblue" stroke="midnightblue" points="138.744,-93.4675 132.295,-101.874 142.578,-99.3237 138.744,-93.4675"/>
</g>
</g>
</svg>
