<?xml version="1.0" encoding="UTF-8" standalone="no"?>
<!DOCTYPE svg PUBLIC "-//W3C//DTD SVG 1.1//EN"
 "http://www.w3.org/Graphics/SVG/1.1/DTD/svg11.dtd">
<!-- Generated by graphviz version 2.28.0 (20111028.1807)
 -->
<!-- Title: G Pages: 1 -->
<svg width="512pt" height="71pt"
 viewBox="0.00 0.00 512.00 71.00" xmlns="http://www.w3.org/2000/svg" xmlns:xlink="http://www.w3.org/1999/xlink">
<g id="graph1" class="graph" transform="scale(1 1) rotate(0) translate(4 67)">
<title>G</title>
<!-- Node1 -->
<g id="node1" class="node"><title>Node1</title>
<a xlink:href="classcom_1_1google_1_1appengine_1_1codelab_1_1_base_servlet.xhtml" target="_top" xlink:title="com.google.appengine.codelab.BaseServlet">
<polygon fill="none" stroke="black" points="0.263672,-19.9336 0.263672,-42.0664 225.736,-42.0664 225.736,-19.9336 0.263672,-19.9336"/>
<text text-anchor="middle" x="113" y="-28.0664" font-family="sans-serif" font-size="10.00">com.google.appengine.codelab.BaseServlet</text>
</a>
</g>
<!-- Node2 -->
<g id="node3" class="node"><title>Node2</title>
<a xlink:href="classcom_1_1google_1_1appengine_1_1codelab_1_1_item_servlet.xhtml" target="_top" xlink:title="com.google.appengine.codelab.ItemServlet">
<polygon fill="none" stroke="black" points="270.471,-40.9336 270.471,-63.0664 495.529,-63.0664 495.529,-40.9336 270.471,-40.9336"/>
<text text-anchor="middle" x="383" y="-49.0664" font-family="sans-serif" font-size="10.00">com.google.appengine.codelab.ItemServlet</text>
</a>
</g>
<!-- Node1&#45;&gt;Node2 -->
<g id="edge2" class="edge"><title>Node1&#45;&gt;Node2</title>
<path fill="none" stroke="midnightblue" d="M236.094,-40.5671C247.507,-41.4613 259.035,-42.3647 270.345,-43.2509"/>
<polygon fill="midnightblue" stroke="midnightblue" points="236.346,-37.0762 226.103,-39.7842 235.799,-44.0548 236.346,-37.0762"/>
</g>
<!-- Node3 -->
<g id="node5" class="node"><title>Node3</title>
<a xlink:href="classcom_1_1google_1_1appengine_1_1codelab_1_1_product_servlet.xhtml" target="_top" xlink:title="com.google.appengine.codelab.ProductServlet">
<polygon fill="none" stroke="black" points="262.673,0.0664062 262.673,-22.0664 503.327,-22.0664 503.327,0.0664062 262.673,0.0664062"/>
<text text-anchor="middle" x="383" y="-8.06641" font-family="sans-serif" font-size="10.00">com.google.appengine.codelab.ProductServlet</text>
</a>
</g>
<!-- Node1&#45;&gt;Node3 -->
<g id="edge4" class="edge"><title>Node1&#45;&gt;Node3</title>
<path fill="none" stroke="midnightblue" d="M236.318,-21.8718C245.053,-21.2199 253.855,-20.5631 262.573,-19.9124"/>
<polygon fill="midnightblue" stroke="midnightblue" points="235.815,-18.3995 226.103,-22.6341 236.336,-25.3801 235.815,-18.3995"/>
</g>
</g>
</svg>
