<?xml version="1.0" encoding="UTF-8" standalone="no"?>
<!DOCTYPE svg PUBLIC "-//W3C//DTD SVG 1.1//EN"
 "http://www.w3.org/Graphics/SVG/1.1/DTD/svg11.dtd">
<!-- Generated by graphviz version 2.28.0 (20111028.1807)
 -->
<!-- Title: G Pages: 1 -->
<svg width="198pt" height="208pt"
 viewBox="0.00 0.00 198.00 208.00" xmlns="http://www.w3.org/2000/svg" xmlns:xlink="http://www.w3.org/1999/xlink">
<g id="graph1" class="graph" transform="scale(1 1) rotate(0) translate(4 204)">
<title>G</title>
<!-- Node1 -->
<g id="node1" class="node"><title>Node1</title>
<polygon fill="#bfbfbf" stroke="black" points="-0.0800781,-0.667969 -0.0800781,-95.332 190.08,-95.332 190.08,-0.667969 -0.0800781,-0.667969"/>
<text text-anchor="middle" x="95" y="-81.332" font-family="sans-serif" font-size="10.00">csc440.nuf.client.MyRequestFactory</text>
<polyline fill="none" stroke="black" points="-0.0800781,-73.1992 190.08,-73.1992 "/>
<text text-anchor="middle" x="95" y="-59.1992" font-family="sans-serif" font-size="10.00"> </text>
<polyline fill="none" stroke="black" points="-0.0800781,-51.0664 190.08,-51.0664 "/>
<text text-anchor="start" x="7.91992" y="-37.0664" font-family="sans-serif" font-size="10.00">+ helloWorldRequest()</text>
<text text-anchor="start" x="7.91992" y="-22.9336" font-family="sans-serif" font-size="10.00">+ registrationInfoRequest()</text>
<text text-anchor="start" x="7.91992" y="-8.80078" font-family="sans-serif" font-size="10.00">+ messageRequest()</text>
</g>
<!-- Node2 -->
<g id="node2" class="node"><title>Node2</title>
<polygon fill="none" stroke="#bfbfbf" points="49.9956,-132.801 49.9956,-199.199 140.004,-199.199 140.004,-132.801 49.9956,-132.801"/>
<text text-anchor="middle" x="95" y="-185.199" font-family="sans-serif" font-size="10.00">RequestFactory</text>
<polyline fill="none" stroke="#bfbfbf" points="49.9956,-177.066 140.004,-177.066 "/>
<text text-anchor="middle" x="95" y="-163.066" font-family="sans-serif" font-size="10.00"> </text>
<polyline fill="none" stroke="#bfbfbf" points="49.9956,-154.934 140.004,-154.934 "/>
<text text-anchor="middle" x="95" y="-140.934" font-family="sans-serif" font-size="10.00"> </text>
</g>
<!-- Node2&#45;&gt;Node1 -->
<g id="edge2" class="edge"><title>Node2&#45;&gt;Node1</title>
<path fill="none" stroke="midnightblue" d="M95,-122.61C95,-113.775 95,-104.418 95,-95.4454"/>
<polygon fill="none" stroke="midnightblue" points="91.5001,-122.687 95,-132.688 98.5001,-122.688 91.5001,-122.687"/>
</g>
</g>
</svg>
