<?xml version="1.0" encoding="UTF-8" standalone="no"?>
<!DOCTYPE svg PUBLIC "-//W3C//DTD SVG 1.1//EN"
 "http://www.w3.org/Graphics/SVG/1.1/DTD/svg11.dtd">
<!-- Generated by graphviz version 2.28.0 (20111028.1807)
 -->
<!-- Title: G Pages: 1 -->
<svg width="254pt" height="180pt"
 viewBox="0.00 0.00 254.00 180.00" xmlns="http://www.w3.org/2000/svg" xmlns:xlink="http://www.w3.org/1999/xlink">
<g id="graph1" class="graph" transform="scale(1 1) rotate(0) translate(4 176)">
<title>G</title>
<!-- Node1 -->
<g id="node1" class="node"><title>Node1</title>
<polygon fill="#bfbfbf" stroke="black" points="-0.302734,-0.800781 -0.302734,-67.1992 246.303,-67.1992 246.303,-0.800781 -0.302734,-0.800781"/>
<text text-anchor="middle" x="123" y="-53.1992" font-family="sans-serif" font-size="10.00">csc440.nuf.shared.SMILMessageRequestFactory</text>
<polyline fill="none" stroke="black" points="-0.302734,-45.0664 246.303,-45.0664 "/>
<text text-anchor="middle" x="123" y="-31.0664" font-family="sans-serif" font-size="10.00"> </text>
<polyline fill="none" stroke="black" points="-0.302734,-22.9336 246.303,-22.9336 "/>
<text text-anchor="start" x="7.69727" y="-8.93359" font-family="sans-serif" font-size="10.00">+ SMILEngineRequest()</text>
</g>
<!-- Node2 -->
<g id="node2" class="node"><title>Node2</title>
<polygon fill="none" stroke="#bfbfbf" points="77.9956,-104.801 77.9956,-171.199 168.004,-171.199 168.004,-104.801 77.9956,-104.801"/>
<text text-anchor="middle" x="123" y="-157.199" font-family="sans-serif" font-size="10.00">RequestFactory</text>
<polyline fill="none" stroke="#bfbfbf" points="77.9956,-149.066 168.004,-149.066 "/>
<text text-anchor="middle" x="123" y="-135.066" font-family="sans-serif" font-size="10.00"> </text>
<polyline fill="none" stroke="#bfbfbf" points="77.9956,-126.934 168.004,-126.934 "/>
<text text-anchor="middle" x="123" y="-112.934" font-family="sans-serif" font-size="10.00"> </text>
</g>
<!-- Node2&#45;&gt;Node1 -->
<g id="edge2" class="edge"><title>Node2&#45;&gt;Node1</title>
<path fill="none" stroke="midnightblue" d="M123,-94.6693C123,-85.5613 123,-76.0733 123,-67.4136"/>
<polygon fill="none" stroke="midnightblue" points="119.5,-94.7265 123,-104.727 126.5,-94.7266 119.5,-94.7265"/>
</g>
</g>
</svg>
