<?xml version="1.0" encoding="UTF-8" standalone="no"?>
<!DOCTYPE svg PUBLIC "-//W3C//DTD SVG 1.1//EN"
 "http://www.w3.org/Graphics/SVG/1.1/DTD/svg11.dtd">
<!-- Generated by graphviz version 2.28.0 (20111028.1807)
 -->
<!-- Title: G Pages: 1 -->
<svg width="184pt" height="222pt"
 viewBox="0.00 0.00 184.00 222.00" xmlns="http://www.w3.org/2000/svg" xmlns:xlink="http://www.w3.org/1999/xlink">
<g id="graph1" class="graph" transform="scale(1 1) rotate(0) translate(4 218)">
<title>G</title>
<!-- Node1 -->
<g id="node1" class="node"><title>Node1</title>
<polygon fill="#bfbfbf" stroke="black" points="-0.751953,-0.601562 -0.751953,-109.398 176.752,-109.398 176.752,-0.601562 -0.751953,-0.601562"/>
<text text-anchor="middle" x="88" y="-95.3984" font-family="sans-serif" font-size="10.00">csc440.nuf.shared.MessageProxy</text>
<polyline fill="none" stroke="black" points="-0.751953,-87.2656 176.752,-87.2656 "/>
<text text-anchor="middle" x="88" y="-73.2656" font-family="sans-serif" font-size="10.00"> </text>
<polyline fill="none" stroke="black" points="-0.751953,-65.1328 176.752,-65.1328 "/>
<text text-anchor="start" x="7.24805" y="-51.1328" font-family="sans-serif" font-size="10.00">+ getMessage()</text>
<text text-anchor="start" x="7.24805" y="-37" font-family="sans-serif" font-size="10.00">+ getRecipient()</text>
<text text-anchor="start" x="7.24805" y="-22.8672" font-family="sans-serif" font-size="10.00">+ setRecipient()</text>
<text text-anchor="start" x="7.24805" y="-8.73438" font-family="sans-serif" font-size="10.00">+ setMessage()</text>
</g>
<!-- Node2 -->
<g id="node2" class="node"><title>Node2</title>
<polygon fill="none" stroke="#bfbfbf" points="53.0762,-146.801 53.0762,-213.199 122.924,-213.199 122.924,-146.801 53.0762,-146.801"/>
<text text-anchor="middle" x="88" y="-199.199" font-family="sans-serif" font-size="10.00">ValueProxy</text>
<polyline fill="none" stroke="#bfbfbf" points="53.0762,-191.066 122.924,-191.066 "/>
<text text-anchor="middle" x="88" y="-177.066" font-family="sans-serif" font-size="10.00"> </text>
<polyline fill="none" stroke="#bfbfbf" points="53.0762,-168.934 122.924,-168.934 "/>
<text text-anchor="middle" x="88" y="-154.934" font-family="sans-serif" font-size="10.00"> </text>
</g>
<!-- Node2&#45;&gt;Node1 -->
<g id="edge2" class="edge"><title>Node2&#45;&gt;Node1</title>
<path fill="none" stroke="midnightblue" d="M88,-136.425C88,-127.745 88,-118.507 88,-109.502"/>
<polygon fill="none" stroke="midnightblue" points="84.5001,-136.683 88,-146.683 91.5001,-136.683 84.5001,-136.683"/>
</g>
</g>
</svg>
