<?xml version="1.0" encoding="UTF-8" standalone="no"?>
<!DOCTYPE svg PUBLIC "-//W3C//DTD SVG 1.1//EN"
 "http://www.w3.org/Graphics/SVG/1.1/DTD/svg11.dtd">
<!-- Generated by graphviz version 2.28.0 (20111028.1807)
 -->
<!-- Title: G Pages: 1 -->
<svg width="1088pt" height="71pt"
 viewBox="0.00 0.00 1088.00 71.00" xmlns="http://www.w3.org/2000/svg" xmlns:xlink="http://www.w3.org/1999/xlink">
<g id="graph1" class="graph" transform="scale(1 1) rotate(0) translate(4 67)">
<title>G</title>
<!-- Node1 -->
<g id="node1" class="node"><title>Node1</title>
<polygon fill="#bfbfbf" stroke="black" points="-0.127441,-19.9336 -0.127441,-42.0664 192.127,-42.0664 192.127,-19.9336 -0.127441,-19.9336"/>
<text text-anchor="middle" x="96" y="-28.0664" font-family="sans-serif" font-size="10.00">csc440.nuf.server.DeviceInfo.getKey</text>
</g>
<!-- Node2 -->
<g id="node3" class="node"><title>Node2</title>
<a xlink:href="$classcsc440_1_1nuf_1_1server_1_1_send_message.xhtml#a0c14fe20917e68f73dda5a275ba2a7f2" xlink:title="csc440.nuf.server.SendMessage.sendMessage">
<polygon fill="none" stroke="black" points="228.65,-19.9336 228.65,-42.0664 467.35,-42.0664 467.35,-19.9336 228.65,-19.9336"/>
<text text-anchor="middle" x="348" y="-28.0664" font-family="sans-serif" font-size="10.00">csc440.nuf.server.SendMessage.sendMessage</text>
</a>
</g>
<!-- Node1&#45;&gt;Node2 -->
<g id="edge2" class="edge"><title>Node1&#45;&gt;Node2</title>
<path fill="none" stroke="midnightblue" d="M202.32,-31C210.977,-31 219.763,-31 228.506,-31"/>
<polygon fill="midnightblue" stroke="midnightblue" points="202.227,-27.5001 192.227,-31 202.227,-34.5001 202.227,-27.5001"/>
</g>
<!-- Node3 -->
<g id="node5" class="node"><title>Node3</title>
<a xlink:href="$classcsc440_1_1nuf_1_1server_1_1_data_store.xhtml#ad7c4ecf86f1850c8ba359f20feec8797" xlink:title="csc440.nuf.server.DataStore.sendC2DMUpdate">
<polygon fill="none" stroke="black" points="504.636,-40.9336 504.636,-63.0664 747.364,-63.0664 747.364,-40.9336 504.636,-40.9336"/>
<text text-anchor="middle" x="626" y="-49.0664" font-family="sans-serif" font-size="10.00">csc440.nuf.server.DataStore.sendC2DMUpdate</text>
</a>
</g>
<!-- Node2&#45;&gt;Node3 -->
<g id="edge4" class="edge"><title>Node2&#45;&gt;Node3</title>
<path fill="none" stroke="midnightblue" d="M477.636,-40.7875C486.507,-41.4625 495.429,-42.1414 504.256,-42.813"/>
<polygon fill="midnightblue" stroke="midnightblue" points="477.887,-37.2966 467.651,-40.0278 477.356,-44.2764 477.887,-37.2966"/>
</g>
<!-- Node5 -->
<g id="node9" class="node"><title>Node5</title>
<a xlink:href="$classcsc440_1_1nuf_1_1server_1_1_message.xhtml#a8fe8e1a3d08cf036c59a0fe09458754e" xlink:title="csc440.nuf.server.Message.send">
<polygon fill="none" stroke="black" points="539.233,0.0664062 539.233,-22.0664 712.767,-22.0664 712.767,0.0664062 539.233,0.0664062"/>
<text text-anchor="middle" x="626" y="-8.06641" font-family="sans-serif" font-size="10.00">csc440.nuf.server.Message.send</text>
</a>
</g>
<!-- Node2&#45;&gt;Node5 -->
<g id="edge8" class="edge"><title>Node2&#45;&gt;Node5</title>
<path fill="none" stroke="midnightblue" d="M477.798,-21.6668C498.531,-20.1644 519.542,-18.6419 538.949,-17.2356"/>
<polygon fill="midnightblue" stroke="midnightblue" points="477.371,-18.1884 467.651,-22.4021 477.877,-25.1701 477.371,-18.1884"/>
</g>
<!-- Node4 -->
<g id="node7" class="node"><title>Node4</title>
<a xlink:href="$classcsc440_1_1nuf_1_1server_1_1_s_m_i_l_engine_service.xhtml#a2c28cf08855cb6e77d5b774321f245d0" xlink:title="csc440.nuf.server.SMILEngineService.updateSMILMessage">
<polygon fill="none" stroke="black" points="784.623,-40.9336 784.623,-63.0664 1079.38,-63.0664 1079.38,-40.9336 784.623,-40.9336"/>
<text text-anchor="middle" x="932" y="-49.0664" font-family="sans-serif" font-size="10.00">csc440.nuf.server.SMILEngineService.updateSMILMessage</text>
</a>
</g>
<!-- Node3&#45;&gt;Node4 -->
<g id="edge6" class="edge"><title>Node3&#45;&gt;Node4</title>
<path fill="none" stroke="midnightblue" d="M757.855,-52C766.646,-52 775.534,-52 784.398,-52"/>
<polygon fill="midnightblue" stroke="midnightblue" points="757.586,-48.5001 747.585,-52 757.585,-55.5001 757.586,-48.5001"/>
</g>
</g>
</svg>
