<?xml version="1.0" encoding="UTF-8" standalone="no"?>
<!DOCTYPE svg PUBLIC "-//W3C//DTD SVG 1.1//EN"
 "http://www.w3.org/Graphics/SVG/1.1/DTD/svg11.dtd">
<!-- Generated by graphviz version 2.28.0 (20111028.1807)
 -->
<!-- Title: G Pages: 1 -->
<svg width="1250pt" height="91pt"
 viewBox="0.00 0.00 1250.00 91.00" xmlns="http://www.w3.org/2000/svg" xmlns:xlink="http://www.w3.org/1999/xlink">
<g id="graph1" class="graph" transform="scale(1 1) rotate(0) translate(4 87)">
<title>G</title>
<!-- Node1 -->
<g id="node1" class="node"><title>Node1</title>
<polygon fill="#bfbfbf" stroke="black" points="0.253418,-19.9336 0.253418,-42.0664 271.747,-42.0664 271.747,-19.9336 0.253418,-19.9336"/>
<text text-anchor="middle" x="136" y="-28.0664" font-family="sans-serif" font-size="10.00">com.google.appengine.codelab.ItemServlet.doDelete</text>
</g>
<!-- Node2 -->
<g id="node3" class="node"><title>Node2</title>
<a xlink:href="$classcom_1_1google_1_1appengine_1_1codelab_1_1_item.xhtml#a43b58e542f3362d9d1f3c35cc0d27d4d" xlink:title="com.google.appengine.codelab.Item.deleteItem">
<polygon fill="none" stroke="black" points="320.519,-40.9336 320.519,-63.0664 567.481,-63.0664 567.481,-40.9336 320.519,-40.9336"/>
<text text-anchor="middle" x="444" y="-49.0664" font-family="sans-serif" font-size="10.00">com.google.appengine.codelab.Item.deleteItem</text>
</a>
</g>
<!-- Node1&#45;&gt;Node2 -->
<g id="edge2" class="edge"><title>Node1&#45;&gt;Node2</title>
<path fill="none" stroke="midnightblue" d="M272.107,-40.272C284.74,-41.139 297.538,-42.0173 310.15,-42.8829"/>
<polygon fill="midnightblue" stroke="midnightblue" points="310.002,-46.3809 320.219,-43.5738 310.482,-39.3973 310.002,-46.3809"/>
</g>
<!-- Node6 -->
<g id="node11" class="node"><title>Node6</title>
<a xlink:href="$classcom_1_1google_1_1appengine_1_1codelab_1_1_util.xhtml#a0d7e9492450f9aaaaf6b8b4e8a9d7890" xlink:title="com.google.appengine.codelab.Util.getErrorMessage">
<polygon fill="none" stroke="black" points="308.095,0.0664062 308.095,-22.0664 579.905,-22.0664 579.905,0.0664062 308.095,0.0664062"/>
<text text-anchor="middle" x="444" y="-8.06641" font-family="sans-serif" font-size="10.00">com.google.appengine.codelab.Util.getErrorMessage</text>
</a>
</g>
<!-- Node1&#45;&gt;Node6 -->
<g id="edge10" class="edge"><title>Node1&#45;&gt;Node6</title>
<path fill="none" stroke="midnightblue" d="M272.107,-22.1695C280.622,-21.6129 289.213,-21.0515 297.771,-20.4921"/>
<polygon fill="midnightblue" stroke="midnightblue" points="298.045,-23.9817 307.796,-19.8369 297.589,-16.9966 298.045,-23.9817"/>
</g>
<!-- Node3 -->
<g id="node5" class="node"><title>Node3</title>
<a xlink:href="$classcom_1_1google_1_1appengine_1_1codelab_1_1_item.xhtml#addfefc24274a9ae1e62dc123e4bc2a68" xlink:title="com.google.appengine.codelab.Item.getSingleItem">
<polygon fill="none" stroke="black" points="615.975,-60.9336 615.975,-83.0664 878.025,-83.0664 878.025,-60.9336 615.975,-60.9336"/>
<text text-anchor="middle" x="747" y="-69.0664" font-family="sans-serif" font-size="10.00">com.google.appengine.codelab.Item.getSingleItem</text>
</a>
</g>
<!-- Node2&#45;&gt;Node3 -->
<g id="edge4" class="edge"><title>Node2&#45;&gt;Node3</title>
<path fill="none" stroke="midnightblue" d="M567.862,-60.1636C580.304,-60.9903 593.007,-61.8344 605.615,-62.6721"/>
<polygon fill="midnightblue" stroke="midnightblue" points="605.489,-66.1714 615.699,-63.3422 605.954,-59.1868 605.489,-66.1714"/>
</g>
<!-- Node5 -->
<g id="node9" class="node"><title>Node5</title>
<a xlink:href="$classcom_1_1google_1_1appengine_1_1codelab_1_1_util.xhtml#a04a02f078a3bd61f4bb36b48b4580c58" xlink:title="com.google.appengine.codelab.Util.deleteEntity">
<polygon fill="none" stroke="black" points="623.211,-19.9336 623.211,-42.0664 870.789,-42.0664 870.789,-19.9336 623.211,-19.9336"/>
<text text-anchor="middle" x="747" y="-28.0664" font-family="sans-serif" font-size="10.00">com.google.appengine.codelab.Util.deleteEntity</text>
</a>
</g>
<!-- Node2&#45;&gt;Node5 -->
<g id="edge8" class="edge"><title>Node2&#45;&gt;Node5</title>
<path fill="none" stroke="midnightblue" d="M567.862,-43.4282C582.655,-42.3962 597.817,-41.3384 612.749,-40.2966"/>
<polygon fill="midnightblue" stroke="midnightblue" points="613.311,-43.766 623.043,-39.5784 612.823,-36.783 613.311,-43.766"/>
</g>
<!-- Node4 -->
<g id="node7" class="node"><title>Node4</title>
<a xlink:href="$classcom_1_1google_1_1appengine_1_1codelab_1_1_util.xhtml#a097d93268afc438617bd7e13f0f0f5e7" xlink:title="com.google.appengine.codelab.Util.getDatastoreServiceInstance">
<polygon fill="none" stroke="black" points="914.331,-60.9336 914.331,-83.0664 1241.67,-83.0664 1241.67,-60.9336 914.331,-60.9336"/>
<text text-anchor="middle" x="1078" y="-69.0664" font-family="sans-serif" font-size="10.00">com.google.appengine.codelab.Util.getDatastoreServiceInstance</text>
</a>
</g>
<!-- Node3&#45;&gt;Node4 -->
<g id="edge6" class="edge"><title>Node3&#45;&gt;Node4</title>
<path fill="none" stroke="midnightblue" d="M878.03,-72C886.55,-72 895.199,-72 903.881,-72"/>
<polygon fill="midnightblue" stroke="midnightblue" points="904.081,-75.5001 914.081,-72 904.081,-68.5001 904.081,-75.5001"/>
</g>
</g>
</svg>
