<?xml version="1.0" encoding="UTF-8" standalone="no"?>
<!DOCTYPE svg PUBLIC "-//W3C//DTD SVG 1.1//EN"
 "http://www.w3.org/Graphics/SVG/1.1/DTD/svg11.dtd">
<!-- Generated by graphviz version 2.28.0 (20111028.1807)
 -->
<!-- Title: G Pages: 1 -->
<svg width="758pt" height="71pt"
 viewBox="0.00 0.00 758.00 71.00" xmlns="http://www.w3.org/2000/svg" xmlns:xlink="http://www.w3.org/1999/xlink">
<g id="graph1" class="graph" transform="scale(1 1) rotate(0) translate(4 67)">
<title>G</title>
<!-- Node1 -->
<g id="node1" class="node"><title>Node1</title>
<polygon fill="#bfbfbf" stroke="black" points="0.23291,-19.9336 0.23291,-42.0664 173.767,-42.0664 173.767,-19.9336 0.23291,-19.9336"/>
<text text-anchor="middle" x="87" y="-28.0664" font-family="sans-serif" font-size="10.00">csc440.nuf.server.Message.send</text>
</g>
<!-- Node2 -->
<g id="node3" class="node"><title>Node2</title>
<a xlink:href="$classcsc440_1_1nuf_1_1server_1_1_send_message.xhtml#a0c14fe20917e68f73dda5a275ba2a7f2" xlink:title="csc440.nuf.server.SendMessage.sendMessage">
<polygon fill="none" stroke="black" points="210.65,-19.9336 210.65,-42.0664 449.35,-42.0664 449.35,-19.9336 210.65,-19.9336"/>
<text text-anchor="middle" x="330" y="-28.0664" font-family="sans-serif" font-size="10.00">csc440.nuf.server.SendMessage.sendMessage</text>
</a>
</g>
<!-- Node1&#45;&gt;Node2 -->
<g id="edge2" class="edge"><title>Node1&#45;&gt;Node2</title>
<path fill="none" stroke="midnightblue" d="M173.986,-31C182.629,-31 191.531,-31 200.492,-31"/>
<polygon fill="midnightblue" stroke="midnightblue" points="200.624,-34.5001 210.624,-31 200.624,-27.5001 200.624,-34.5001"/>
</g>
<!-- Node3 -->
<g id="node5" class="node"><title>Node3</title>
<a xlink:href="$classcsc440_1_1nuf_1_1server_1_1_device_info.xhtml#a9d068913be4bf051ab37c7fb7ef981f2" xlink:title="csc440.nuf.server.DeviceInfo.getDeviceInfoForUser">
<polygon fill="none" stroke="black" points="486.528,-40.9336 486.528,-63.0664 749.472,-63.0664 749.472,-40.9336 486.528,-40.9336"/>
<text text-anchor="middle" x="618" y="-49.0664" font-family="sans-serif" font-size="10.00">csc440.nuf.server.DeviceInfo.getDeviceInfoForUser</text>
</a>
</g>
<!-- Node2&#45;&gt;Node3 -->
<g id="edge4" class="edge"><title>Node2&#45;&gt;Node3</title>
<path fill="none" stroke="midnightblue" d="M449.392,-39.6931C458.212,-40.3408 467.162,-40.9979 476.1,-41.6542"/>
<polygon fill="midnightblue" stroke="midnightblue" points="475.95,-45.1525 486.18,-42.3943 476.463,-38.1713 475.95,-45.1525"/>
</g>
<!-- Node4 -->
<g id="node7" class="node"><title>Node4</title>
<a xlink:href="$classcsc440_1_1nuf_1_1server_1_1_device_info.xhtml#a10d351ee9254f7f63bd6b77c3005f33c" xlink:title="csc440.nuf.server.DeviceInfo.getKey">
<polygon fill="none" stroke="black" points="521.873,0.0664062 521.873,-22.0664 714.127,-22.0664 714.127,0.0664062 521.873,0.0664062"/>
<text text-anchor="middle" x="618" y="-8.06641" font-family="sans-serif" font-size="10.00">csc440.nuf.server.DeviceInfo.getKey</text>
</a>
</g>
<!-- Node2&#45;&gt;Node4 -->
<g id="edge6" class="edge"><title>Node2&#45;&gt;Node4</title>
<path fill="none" stroke="midnightblue" d="M449.392,-22.7209C470.031,-21.2775 491.376,-19.7849 511.636,-18.3681"/>
<polygon fill="midnightblue" stroke="midnightblue" points="512.071,-21.8463 521.803,-17.6572 511.583,-14.8634 512.071,-21.8463"/>
</g>
</g>
</svg>
