<?xml version="1.0" encoding="UTF-8" standalone="no"?>
<!DOCTYPE svg PUBLIC "-//W3C//DTD SVG 1.1//EN"
 "http://www.w3.org/Graphics/SVG/1.1/DTD/svg11.dtd">
<!-- Generated by graphviz version 2.28.0 (20111028.1807)
 -->
<!-- Title: G Pages: 1 -->
<svg width="900pt" height="30pt"
 viewBox="0.00 0.00 900.00 30.00" xmlns="http://www.w3.org/2000/svg" xmlns:xlink="http://www.w3.org/1999/xlink">
<g id="graph1" class="graph" transform="scale(1 1) rotate(0) translate(4 26)">
<title>G</title>
<!-- Node1 -->
<g id="node1" class="node"><title>Node1</title>
<polygon fill="#bfbfbf" stroke="black" points="0.218262,0.0664062 0.218262,-22.0664 253.782,-22.0664 253.782,0.0664062 0.218262,0.0664062"/>
<text text-anchor="middle" x="127" y="-8.06641" font-family="sans-serif" font-size="10.00">com.google.appengine.codelab.Product.getItems</text>
</g>
<!-- Node2 -->
<g id="node3" class="node"><title>Node2</title>
<a xlink:href="$classcom_1_1google_1_1appengine_1_1codelab_1_1_product.xhtml#addc5d2e4ec78d1eef631ffc4cdf268a1" xlink:title="com.google.appengine.codelab.Product.deleteProduct">
<polygon fill="none" stroke="black" points="289.923,0.0664062 289.923,-22.0664 568.077,-22.0664 568.077,0.0664062 289.923,0.0664062"/>
<text text-anchor="middle" x="429" y="-8.06641" font-family="sans-serif" font-size="10.00">com.google.appengine.codelab.Product.deleteProduct</text>
</a>
</g>
<!-- Node1&#45;&gt;Node2 -->
<g id="edge2" class="edge"><title>Node1&#45;&gt;Node2</title>
<path fill="none" stroke="midnightblue" d="M263.977,-11C272.571,-11 281.228,-11 289.832,-11"/>
<polygon fill="midnightblue" stroke="midnightblue" points="263.923,-7.5001 253.923,-11 263.923,-14.5001 263.923,-7.5001"/>
</g>
<!-- Node3 -->
<g id="node5" class="node"><title>Node3</title>
<a xlink:href="$classcom_1_1google_1_1appengine_1_1codelab_1_1_product_servlet.xhtml#a772fa15f8adf07619e0e71e58488f198" xlink:title="com.google.appengine.codelab.ProductServlet.doDelete">
<polygon fill="none" stroke="black" points="604.456,0.0664062 604.456,-22.0664 891.544,-22.0664 891.544,0.0664062 604.456,0.0664062"/>
<text text-anchor="middle" x="748" y="-8.06641" font-family="sans-serif" font-size="10.00">com.google.appengine.codelab.ProductServlet.doDelete</text>
</a>
</g>
<!-- Node2&#45;&gt;Node3 -->
<g id="edge4" class="edge"><title>Node2&#45;&gt;Node3</title>
<path fill="none" stroke="midnightblue" d="M578.286,-11C586.968,-11 595.692,-11 604.352,-11"/>
<polygon fill="midnightblue" stroke="midnightblue" points="578.119,-7.5001 568.119,-11 578.119,-14.5001 578.119,-7.5001"/>
</g>
</g>
</svg>
