<?xml version="1.0" encoding="UTF-8" standalone="no"?>
<!DOCTYPE svg PUBLIC "-//W3C//DTD SVG 1.1//EN"
 "http://www.w3.org/Graphics/SVG/1.1/DTD/svg11.dtd">
<!-- Generated by graphviz version 2.28.0 (20111028.1807)
 -->
<!-- Title: G Pages: 1 -->
<svg width="940pt" height="71pt"
 viewBox="0.00 0.00 940.00 71.00" xmlns="http://www.w3.org/2000/svg" xmlns:xlink="http://www.w3.org/1999/xlink">
<g id="graph1" class="graph" transform="scale(1 1) rotate(0) translate(4 67)">
<title>G</title>
<!-- Node1 -->
<g id="node1" class="node"><title>Node1</title>
<polygon fill="#bfbfbf" stroke="black" points="-0.0766602,-19.9336 -0.0766602,-42.0664 278.077,-42.0664 278.077,-19.9336 -0.0766602,-19.9336"/>
<text text-anchor="middle" x="139" y="-28.0664" font-family="sans-serif" font-size="10.00">com.google.appengine.codelab.Product.deleteProduct</text>
</g>
<!-- Node2 -->
<g id="node3" class="node"><title>Node2</title>
<a xlink:href="$classcom_1_1google_1_1appengine_1_1codelab_1_1_product.xhtml#a7a8a391c4b6446d33e163ceb21521e69" xlink:title="com.google.appengine.codelab.Product.getItems">
<polygon fill="none" stroke="black" points="314.218,-40.9336 314.218,-63.0664 567.782,-63.0664 567.782,-40.9336 314.218,-40.9336"/>
<text text-anchor="middle" x="441" y="-49.0664" font-family="sans-serif" font-size="10.00">com.google.appengine.codelab.Product.getItems</text>
</a>
</g>
<!-- Node1&#45;&gt;Node2 -->
<g id="edge2" class="edge"><title>Node1&#45;&gt;Node2</title>
<path fill="none" stroke="midnightblue" d="M278.146,-40.6702C286.767,-41.2737 295.441,-41.8809 304.052,-42.4837"/>
<polygon fill="midnightblue" stroke="midnightblue" points="303.906,-45.9819 314.126,-43.1888 304.395,-38.999 303.906,-45.9819"/>
</g>
<!-- Node4 -->
<g id="node7" class="node"><title>Node4</title>
<a xlink:href="$classcom_1_1google_1_1appengine_1_1codelab_1_1_util.xhtml#a04a02f078a3bd61f4bb36b48b4580c58" xlink:title="com.google.appengine.codelab.Util.deleteEntity">
<polygon fill="none" stroke="black" points="317.211,0.0664062 317.211,-22.0664 564.789,-22.0664 564.789,0.0664062 317.211,0.0664062"/>
<text text-anchor="middle" x="441" y="-8.06641" font-family="sans-serif" font-size="10.00">com.google.appengine.codelab.Util.deleteEntity</text>
</a>
</g>
<!-- Node1&#45;&gt;Node4 -->
<g id="edge6" class="edge"><title>Node1&#45;&gt;Node4</title>
<path fill="none" stroke="midnightblue" d="M278.146,-21.7903C287.632,-21.1579 297.182,-20.5212 306.643,-19.8905"/>
<polygon fill="midnightblue" stroke="midnightblue" points="307.121,-23.3665 316.866,-19.2089 306.655,-16.382 307.121,-23.3665"/>
</g>
<!-- Node3 -->
<g id="node5" class="node"><title>Node3</title>
<a xlink:href="$classcom_1_1google_1_1appengine_1_1codelab_1_1_util.xhtml#a097d93268afc438617bd7e13f0f0f5e7" xlink:title="com.google.appengine.codelab.Util.getDatastoreServiceInstance">
<polygon fill="none" stroke="black" points="604.331,-40.9336 604.331,-63.0664 931.669,-63.0664 931.669,-40.9336 604.331,-40.9336"/>
<text text-anchor="middle" x="768" y="-49.0664" font-family="sans-serif" font-size="10.00">com.google.appengine.codelab.Util.getDatastoreServiceInstance</text>
</a>
</g>
<!-- Node2&#45;&gt;Node3 -->
<g id="edge4" class="edge"><title>Node2&#45;&gt;Node3</title>
<path fill="none" stroke="midnightblue" d="M568.119,-52C576.647,-52 585.316,-52 594.026,-52"/>
<polygon fill="midnightblue" stroke="midnightblue" points="594.262,-55.5001 604.262,-52 594.262,-48.5001 594.262,-55.5001"/>
</g>
</g>
</svg>
