<?xml version="1.0" encoding="UTF-8" standalone="no"?>
<!DOCTYPE svg PUBLIC "-//W3C//DTD SVG 1.1//EN"
 "http://www.w3.org/Graphics/SVG/1.1/DTD/svg11.dtd">
<!-- Generated by graphviz version 2.28.0 (20111028.1807)
 -->
<!-- Title: G Pages: 1 -->
<svg width="164pt" height="250pt"
 viewBox="0.00 0.00 164.00 250.00" xmlns="http://www.w3.org/2000/svg" xmlns:xlink="http://www.w3.org/1999/xlink">
<g id="graph1" class="graph" transform="scale(1 1) rotate(0) translate(4 246)">
<title>G</title>
<!-- Node1 -->
<g id="node1" class="node"><title>Node1</title>
<polygon fill="#bfbfbf" stroke="black" points="-0.905762,-0.46875 -0.905762,-137.531 156.906,-137.531 156.906,-0.46875 -0.905762,-0.46875"/>
<text text-anchor="middle" x="78" y="-123.531" font-family="sans-serif" font-size="10.00">csc440.nuf.client.SMILWidget</text>
<polyline fill="none" stroke="black" points="-0.905762,-115.398 156.906,-115.398 "/>
<text text-anchor="start" x="7.09424" y="-101.398" font-family="sans-serif" font-size="10.00">~ messageArea</text>
<text text-anchor="start" x="7.09424" y="-87.2656" font-family="sans-serif" font-size="10.00">~ recipientArea</text>
<text text-anchor="start" x="7.09424" y="-73.1328" font-family="sans-serif" font-size="10.00">~ status</text>
<text text-anchor="start" x="7.09424" y="-59" font-family="sans-serif" font-size="10.00">~ sayHelloButton</text>
<text text-anchor="start" x="7.09424" y="-44.8672" font-family="sans-serif" font-size="10.00">~ sendMessageButton</text>
<text text-anchor="start" x="7.09424" y="-30.7344" font-family="sans-serif" font-size="10.00">~ timer</text>
<polyline fill="none" stroke="black" points="-0.905762,-22.6016 156.906,-22.6016 "/>
<text text-anchor="start" x="7.09424" y="-8.60156" font-family="sans-serif" font-size="10.00">+ SMILWidget()</text>
</g>
<!-- Node2 -->
<g id="node2" class="node"><title>Node2</title>
<polygon fill="none" stroke="#bfbfbf" points="43.9331,-174.801 43.9331,-241.199 112.067,-241.199 112.067,-174.801 43.9331,-174.801"/>
<text text-anchor="middle" x="78" y="-227.199" font-family="sans-serif" font-size="10.00">Composite</text>
<polyline fill="none" stroke="#bfbfbf" points="43.9331,-219.066 112.067,-219.066 "/>
<text text-anchor="middle" x="78" y="-205.066" font-family="sans-serif" font-size="10.00"> </text>
<polyline fill="none" stroke="#bfbfbf" points="43.9331,-196.934 112.067,-196.934 "/>
<text text-anchor="middle" x="78" y="-182.934" font-family="sans-serif" font-size="10.00"> </text>
</g>
<!-- Node2&#45;&gt;Node1 -->
<g id="edge2" class="edge"><title>Node2&#45;&gt;Node1</title>
<path fill="none" stroke="midnightblue" d="M78,-164.455C78,-155.899 78,-146.709 78,-137.542"/>
<polygon fill="none" stroke="midnightblue" points="74.5001,-164.533 78,-174.533 81.5001,-164.533 74.5001,-164.533"/>
</g>
</g>
</svg>
