<?xml version="1.0" encoding="UTF-8" standalone="no"?>
<!DOCTYPE svg PUBLIC "-//W3C//DTD SVG 1.1//EN"
 "http://www.w3.org/Graphics/SVG/1.1/DTD/svg11.dtd">
<!-- Generated by graphviz version 2.28.0 (20111028.1807)
 -->
<!-- Title: G Pages: 1 -->
<svg width="812pt" height="71pt"
 viewBox="0.00 0.00 812.00 71.00" xmlns="http://www.w3.org/2000/svg" xmlns:xlink="http://www.w3.org/1999/xlink">
<g id="graph1" class="graph" transform="scale(1 1) rotate(0) translate(4 67)">
<title>G</title>
<!-- Node1 -->
<g id="node1" class="node"><title>Node1</title>
<polygon fill="#bfbfbf" stroke="black" points="-0.0830078,-19.9336 -0.0830078,-42.0664 246.083,-42.0664 246.083,-19.9336 -0.0830078,-19.9336"/>
<text text-anchor="middle" x="123" y="-28.0664" font-family="sans-serif" font-size="10.00">csc440.nuf.server.SMILMessage.setSenderEmail</text>
</g>
<!-- Node2 -->
<g id="node3" class="node"><title>Node2</title>
<a xlink:href="$classcsc440_1_1nuf_1_1server_1_1_data_store.xhtml#ab66ed1adeb1a5ee0ce37bf5404909e11" xlink:title="csc440.nuf.server.DataStore.update">
<polygon fill="none" stroke="black" points="282.254,-39.9336 282.254,-62.0664 471.746,-62.0664 471.746,-39.9336 282.254,-39.9336"/>
<text text-anchor="middle" x="377" y="-48.0664" font-family="sans-serif" font-size="10.00">csc440.nuf.server.DataStore.update</text>
</a>
</g>
<!-- Node1&#45;&gt;Node2 -->
<g id="edge2" class="edge"><title>Node1&#45;&gt;Node2</title>
<path fill="none" stroke="midnightblue" d="M256.468,-41.5133C265.113,-42.1995 273.719,-42.8824 282.12,-43.5492"/>
<polygon fill="midnightblue" stroke="midnightblue" points="256.555,-38.0093 246.309,-40.7071 256.001,-44.9874 256.555,-38.0093"/>
</g>
<!-- Node4 -->
<g id="node7" class="node"><title>Node4</title>
<a xlink:href="$classcsc440_1_1nuf_1_1server_1_1_s_m_i_l_engine_service.xhtml#a2c28cf08855cb6e77d5b774321f245d0" xlink:title="csc440.nuf.server.SMILEngineService.updateSMILMessage">
<polygon fill="none" stroke="black" points="508.623,0.0664062 508.623,-22.0664 803.377,-22.0664 803.377,0.0664062 508.623,0.0664062"/>
<text text-anchor="middle" x="656" y="-8.06641" font-family="sans-serif" font-size="10.00">csc440.nuf.server.SMILEngineService.updateSMILMessage</text>
</a>
</g>
<!-- Node1&#45;&gt;Node4 -->
<g id="edge8" class="edge"><title>Node1&#45;&gt;Node4</title>
<path fill="none" stroke="midnightblue" d="M256.349,-26.0151C332.952,-23.1299 429.508,-19.4931 508.406,-16.5214"/>
<polygon fill="midnightblue" stroke="midnightblue" points="256.016,-22.525 246.155,-26.399 256.28,-29.5201 256.016,-22.525"/>
</g>
<!-- Node3 -->
<g id="node5" class="node"><title>Node3</title>
<a xlink:href="$classcsc440_1_1nuf_1_1server_1_1_s_m_i_l_engine_service.xhtml#a3b83cad8892f2616c9107132e9335272" xlink:title="csc440.nuf.server.SMILEngineService.createSMILMessage">
<polygon fill="none" stroke="black" points="510.627,-40.9336 510.627,-63.0664 801.373,-63.0664 801.373,-40.9336 510.627,-40.9336"/>
<text text-anchor="middle" x="656" y="-49.0664" font-family="sans-serif" font-size="10.00">csc440.nuf.server.SMILEngineService.createSMILMessage</text>
</a>
</g>
<!-- Node2&#45;&gt;Node3 -->
<g id="edge4" class="edge"><title>Node2&#45;&gt;Node3</title>
<path fill="none" stroke="midnightblue" d="M481.893,-51.3751C491.303,-51.409 500.941,-51.4438 510.618,-51.4788"/>
<polygon fill="midnightblue" stroke="midnightblue" points="481.792,-47.8748 471.78,-51.3386 481.767,-54.8747 481.792,-47.8748"/>
</g>
<!-- Node2&#45;&gt;Node4 -->
<g id="edge6" class="edge"><title>Node2&#45;&gt;Node4</title>
<path fill="none" stroke="midnightblue" d="M458.545,-38.3846C474.904,-35.8854 491.999,-33.3192 508,-31 528.519,-28.026 550.669,-24.9447 571.395,-22.1177"/>
<polygon fill="midnightblue" stroke="midnightblue" points="457.825,-34.9541 448.471,-39.9293 458.886,-41.8732 457.825,-34.9541"/>
</g>
</g>
</svg>
