<?xml version="1.0" encoding="UTF-8" standalone="no"?>
<!DOCTYPE svg PUBLIC "-//W3C//DTD SVG 1.1//EN"
 "http://www.w3.org/Graphics/SVG/1.1/DTD/svg11.dtd">
<!-- Generated by graphviz version 2.28.0 (20111028.1807)
 -->
<!-- Title: G Pages: 1 -->
<svg width="700pt" height="30pt"
 viewBox="0.00 0.00 700.00 30.00" xmlns="http://www.w3.org/2000/svg" xmlns:xlink="http://www.w3.org/1999/xlink">
<g id="graph1" class="graph" transform="scale(1 1) rotate(0) translate(4 26)">
<title>G</title>
<!-- Node1 -->
<g id="node1" class="node"><title>Node1</title>
<polygon fill="#bfbfbf" stroke="black" points="0.532715,0.0664062 0.532715,-22.0664 229.467,-22.0664 229.467,0.0664062 0.532715,0.0664062"/>
<text text-anchor="middle" x="115" y="-8.06641" font-family="sans-serif" font-size="10.00">csc440.nuf.MessageDisplay.displayMessage</text>
</g>
<!-- Node2 -->
<g id="node3" class="node"><title>Node2</title>
<a xlink:href="$classcsc440_1_1nuf_1_1_util.xhtml#adbbee48d176f30c61d5819634d17b73a" xlink:title="csc440.nuf.Util.generateNotification">
<polygon fill="none" stroke="black" points="266.458,0.0664062 266.458,-22.0664 457.542,-22.0664 457.542,0.0664062 266.458,0.0664062"/>
<text text-anchor="middle" x="362" y="-8.06641" font-family="sans-serif" font-size="10.00">csc440.nuf.Util.generateNotification</text>
</a>
</g>
<!-- Node1&#45;&gt;Node2 -->
<g id="edge2" class="edge"><title>Node1&#45;&gt;Node2</title>
<path fill="none" stroke="midnightblue" d="M229.535,-11C238.352,-11 247.231,-11 255.988,-11"/>
<polygon fill="midnightblue" stroke="midnightblue" points="256.201,-14.5001 266.201,-11 256.201,-7.5001 256.201,-14.5001"/>
</g>
<!-- Node3 -->
<g id="node5" class="node"><title>Node3</title>
<a xlink:href="$classcsc440_1_1nuf_1_1_util.xhtml#a048158fe7160473100aaae303ef393e4" xlink:title="csc440.nuf.Util.getSharedPreferences">
<polygon fill="none" stroke="black" points="494.47,0.0664062 494.47,-22.0664 691.53,-22.0664 691.53,0.0664062 494.47,0.0664062"/>
<text text-anchor="middle" x="593" y="-8.06641" font-family="sans-serif" font-size="10.00">csc440.nuf.Util.getSharedPreferences</text>
</a>
</g>
<!-- Node2&#45;&gt;Node3 -->
<g id="edge4" class="edge"><title>Node2&#45;&gt;Node3</title>
<path fill="none" stroke="midnightblue" d="M457.796,-11C466.463,-11 475.285,-11 484.056,-11"/>
<polygon fill="midnightblue" stroke="midnightblue" points="484.317,-14.5001 494.316,-11 484.316,-7.5001 484.317,-14.5001"/>
</g>
</g>
</svg>
