<?xml version="1.0" encoding="UTF-8" standalone="no"?>
<!DOCTYPE svg PUBLIC "-//W3C//DTD SVG 1.1//EN"
 "http://www.w3.org/Graphics/SVG/1.1/DTD/svg11.dtd">
<!-- Generated by graphviz version 2.28.0 (20111028.1807)
 -->
<!-- Title: G Pages: 1 -->
<svg width="908pt" height="71pt"
 viewBox="0.00 0.00 908.00 71.00" xmlns="http://www.w3.org/2000/svg" xmlns:xlink="http://www.w3.org/1999/xlink">
<g id="graph1" class="graph" transform="scale(1 1) rotate(0) translate(4 67)">
<title>G</title>
<!-- Node1 -->
<g id="node1" class="node"><title>Node1</title>
<polygon fill="#bfbfbf" stroke="black" points="-0.0249023,-19.9336 -0.0249023,-42.0664 262.025,-42.0664 262.025,-19.9336 -0.0249023,-19.9336"/>
<text text-anchor="middle" x="131" y="-28.0664" font-family="sans-serif" font-size="10.00">com.google.appengine.codelab.Item.getSingleItem</text>
</g>
<!-- Node2 -->
<g id="node3" class="node"><title>Node2</title>
<a xlink:href="$classcom_1_1google_1_1appengine_1_1codelab_1_1_item.xhtml#a1f0cd1ed3e9e496f6cd40cde580dc045" xlink:title="com.google.appengine.codelab.Item.createOrUpdateItem">
<polygon fill="none" stroke="black" points="298.423,-40.9336 298.423,-63.0664 591.577,-63.0664 591.577,-40.9336 298.423,-40.9336"/>
<text text-anchor="middle" x="445" y="-49.0664" font-family="sans-serif" font-size="10.00">com.google.appengine.codelab.Item.createOrUpdateItem</text>
</a>
</g>
<!-- Node1&#45;&gt;Node2 -->
<g id="edge2" class="edge"><title>Node1&#45;&gt;Node2</title>
<path fill="none" stroke="midnightblue" d="M272.187,-40.4357C280.848,-41.0186 289.574,-41.606 298.258,-42.1905"/>
<polygon fill="midnightblue" stroke="midnightblue" points="272.269,-36.9334 262.057,-39.7538 271.799,-43.9176 272.269,-36.9334"/>
</g>
<!-- Node4 -->
<g id="node7" class="node"><title>Node4</title>
<a xlink:href="$classcom_1_1google_1_1appengine_1_1codelab_1_1_item.xhtml#a43b58e542f3362d9d1f3c35cc0d27d4d" xlink:title="com.google.appengine.codelab.Item.deleteItem">
<polygon fill="none" stroke="black" points="321.519,0.0664062 321.519,-22.0664 568.481,-22.0664 568.481,0.0664062 321.519,0.0664062"/>
<text text-anchor="middle" x="445" y="-8.06641" font-family="sans-serif" font-size="10.00">com.google.appengine.codelab.Item.deleteItem</text>
</a>
</g>
<!-- Node1&#45;&gt;Node4 -->
<g id="edge6" class="edge"><title>Node1&#45;&gt;Node4</title>
<path fill="none" stroke="midnightblue" d="M272.187,-22.0136C288.516,-20.9669 305.078,-19.9052 321.149,-18.8751"/>
<polygon fill="midnightblue" stroke="midnightblue" points="271.812,-18.5304 262.057,-22.663 272.26,-25.516 271.812,-18.5304"/>
</g>
<!-- Node3 -->
<g id="node5" class="node"><title>Node3</title>
<a xlink:href="$classcom_1_1google_1_1appengine_1_1codelab_1_1_item_servlet.xhtml#a5d5c9f0b60f447633023ec79cfa95ea1" xlink:title="com.google.appengine.codelab.ItemServlet.doPut">
<polygon fill="none" stroke="black" points="635.934,-40.9336 635.934,-63.0664 892.066,-63.0664 892.066,-40.9336 635.934,-40.9336"/>
<text text-anchor="middle" x="764" y="-49.0664" font-family="sans-serif" font-size="10.00">com.google.appengine.codelab.ItemServlet.doPut</text>
</a>
</g>
<!-- Node2&#45;&gt;Node3 -->
<g id="edge4" class="edge"><title>Node2&#45;&gt;Node3</title>
<path fill="none" stroke="midnightblue" d="M602.274,-52C613.501,-52 624.743,-52 635.775,-52"/>
<polygon fill="midnightblue" stroke="midnightblue" points="601.974,-48.5001 591.974,-52 601.974,-55.5001 601.974,-48.5001"/>
</g>
<!-- Node5 -->
<g id="node9" class="node"><title>Node5</title>
<a xlink:href="$classcom_1_1google_1_1appengine_1_1codelab_1_1_item_servlet.xhtml#a977e84d117d1e9c9faf1be8e71f0e69e" xlink:title="com.google.appengine.codelab.ItemServlet.doDelete">
<polygon fill="none" stroke="black" points="628.253,0.0664062 628.253,-22.0664 899.747,-22.0664 899.747,0.0664062 628.253,0.0664062"/>
<text text-anchor="middle" x="764" y="-8.06641" font-family="sans-serif" font-size="10.00">com.google.appengine.codelab.ItemServlet.doDelete</text>
</a>
</g>
<!-- Node4&#45;&gt;Node5 -->
<g id="edge8" class="edge"><title>Node4&#45;&gt;Node5</title>
<path fill="none" stroke="midnightblue" d="M578.684,-11C595.03,-11 611.754,-11 628.133,-11"/>
<polygon fill="midnightblue" stroke="midnightblue" points="578.561,-7.5001 568.56,-11 578.56,-14.5001 578.561,-7.5001"/>
</g>
</g>
</svg>
