<?xml version="1.0" encoding="UTF-8" standalone="no"?>
<!DOCTYPE svg PUBLIC "-//W3C//DTD SVG 1.1//EN"
 "http://www.w3.org/Graphics/SVG/1.1/DTD/svg11.dtd">
<!-- Generated by graphviz version 2.28.0 (20111028.1807)
 -->
<!-- Title: G Pages: 1 -->
<svg width="138pt" height="180pt"
 viewBox="0.00 0.00 138.00 180.00" xmlns="http://www.w3.org/2000/svg" xmlns:xlink="http://www.w3.org/1999/xlink">
<g id="graph1" class="graph" transform="scale(1 1) rotate(0) translate(4 176)">
<title>G</title>
<!-- Node1 -->
<g id="node1" class="node"><title>Node1</title>
<polygon fill="#bfbfbf" stroke="black" points="-0.797852,-0.800781 -0.797852,-67.1992 130.798,-67.1992 130.798,-0.800781 -0.797852,-0.800781"/>
<text text-anchor="middle" x="65" y="-53.1992" font-family="sans-serif" font-size="10.00">com.DisplayExp.Display</text>
<polyline fill="none" stroke="black" points="-0.797852,-45.0664 130.798,-45.0664 "/>
<text text-anchor="start" x="7.20215" y="-31.0664" font-family="sans-serif" font-size="10.00">~ myCav</text>
<polyline fill="none" stroke="black" points="-0.797852,-22.9336 130.798,-22.9336 "/>
<text text-anchor="start" x="7.20215" y="-8.93359" font-family="sans-serif" font-size="10.00">+ onCreate()</text>
</g>
<!-- Node2 -->
<g id="node2" class="node"><title>Node2</title>
<polygon fill="none" stroke="#bfbfbf" points="39.1582,-104.801 39.1582,-171.199 90.8418,-171.199 90.8418,-104.801 39.1582,-104.801"/>
<text text-anchor="middle" x="65" y="-157.199" font-family="sans-serif" font-size="10.00">Activity</text>
<polyline fill="none" stroke="#bfbfbf" points="39.1582,-149.066 90.8418,-149.066 "/>
<text text-anchor="middle" x="65" y="-135.066" font-family="sans-serif" font-size="10.00"> </text>
<polyline fill="none" stroke="#bfbfbf" points="39.1582,-126.934 90.8418,-126.934 "/>
<text text-anchor="middle" x="65" y="-112.934" font-family="sans-serif" font-size="10.00"> </text>
</g>
<!-- Node2&#45;&gt;Node1 -->
<g id="edge2" class="edge"><title>Node2&#45;&gt;Node1</title>
<path fill="none" stroke="midnightblue" d="M65,-94.6693C65,-85.5613 65,-76.0733 65,-67.4136"/>
<polygon fill="none" stroke="midnightblue" points="61.5001,-94.7265 65,-104.727 68.5001,-94.7266 61.5001,-94.7265"/>
</g>
</g>
</svg>
