<?xml version="1.0" encoding="UTF-8" standalone="no"?>
<!DOCTYPE svg PUBLIC "-//W3C//DTD SVG 1.1//EN"
 "http://www.w3.org/Graphics/SVG/1.1/DTD/svg11.dtd">
<!-- Generated by graphviz version 2.28.0 (20111028.1807)
 -->
<!-- Title: G Pages: 1 -->
<svg width="448pt" height="276pt"
 viewBox="0.00 0.00 448.00 276.00" xmlns="http://www.w3.org/2000/svg" xmlns:xlink="http://www.w3.org/1999/xlink">
<g id="graph1" class="graph" transform="scale(1 1) rotate(0) translate(4 272)">
<title>G</title>
<!-- Node1 -->
<g id="node1" class="node"><title>Node1</title>
<polygon fill="#bfbfbf" stroke="black" points="-0.121094,-122.934 -0.121094,-145.066 184.121,-145.066 184.121,-122.934 -0.121094,-122.934"/>
<text text-anchor="middle" x="92" y="-131.066" font-family="sans-serif" font-size="10.00">csc440.nuf.SMILActivity.onResume</text>
</g>
<!-- Node2 -->
<g id="node3" class="node"><title>Node2</title>
<a xlink:href="$classcsc440_1_1nuf_1_1_util.xhtml#a048158fe7160473100aaae303ef393e4" xlink:title="csc440.nuf.Util.getSharedPreferences">
<polygon fill="none" stroke="black" points="231.47,-245.934 231.47,-268.066 428.53,-268.066 428.53,-245.934 231.47,-245.934"/>
<text text-anchor="middle" x="330" y="-254.066" font-family="sans-serif" font-size="10.00">csc440.nuf.Util.getSharedPreferences</text>
</a>
</g>
<!-- Node1&#45;&gt;Node2 -->
<g id="edge2" class="edge"><title>Node1&#45;&gt;Node2</title>
<path fill="none" stroke="midnightblue" d="M103.289,-145.326C123.438,-166.742 170.469,-213.074 220,-236 225.681,-238.63 231.676,-240.93 237.812,-242.942"/>
<polygon fill="midnightblue" stroke="midnightblue" points="236.964,-246.342 247.549,-245.873 238.982,-239.639 236.964,-246.342"/>
</g>
<!-- Node3 -->
<g id="node5" class="node"><title>Node3</title>
<a xlink:href="$classcsc440_1_1nuf_1_1_action_bar.xhtml#aa8aa6584906e2aa28298c720006060db" xlink:title="csc440.nuf.ActionBar.setTitle">
<polygon fill="none" stroke="black" points="250.958,-204.934 250.958,-227.066 409.042,-227.066 409.042,-204.934 250.958,-204.934"/>
<text text-anchor="middle" x="330" y="-213.066" font-family="sans-serif" font-size="10.00">csc440.nuf.ActionBar.setTitle</text>
</a>
</g>
<!-- Node1&#45;&gt;Node3 -->
<g id="edge4" class="edge"><title>Node1&#45;&gt;Node3</title>
<path fill="none" stroke="midnightblue" d="M112.144,-145.13C136.454,-158.804 180.052,-181.804 220,-195 228.668,-197.863 237.86,-200.386 247.085,-202.596"/>
<polygon fill="midnightblue" stroke="midnightblue" points="246.558,-206.065 257.085,-204.873 248.112,-199.24 246.558,-206.065"/>
</g>
<!-- Node4 -->
<g id="node7" class="node"><title>Node4</title>
<a xlink:href="$classcsc440_1_1nuf_1_1_action_bar.xhtml#af2b4df26aa6a8e02bc668d49abd82835" xlink:title="csc440.nuf.ActionBar.setHomeLogo">
<polygon fill="none" stroke="black" points="235.54,-163.934 235.54,-186.066 424.46,-186.066 424.46,-163.934 235.54,-163.934"/>
<text text-anchor="middle" x="330" y="-172.066" font-family="sans-serif" font-size="10.00">csc440.nuf.ActionBar.setHomeLogo</text>
</a>
</g>
<!-- Node1&#45;&gt;Node4 -->
<g id="edge6" class="edge"><title>Node1&#45;&gt;Node4</title>
<path fill="none" stroke="midnightblue" d="M156.865,-145.095C187.167,-150.359 223.549,-156.68 255.044,-162.152"/>
<polygon fill="midnightblue" stroke="midnightblue" points="254.632,-165.633 265.084,-163.896 255.831,-158.736 254.632,-165.633"/>
</g>
<!-- Node5 -->
<g id="node9" class="node"><title>Node5</title>
<a xlink:href="$classcsc440_1_1nuf_1_1_scroll_item_manager.xhtml#ab0e055a91a49439fa3a2ccca61a05657" xlink:title="csc440.nuf.ScrollItemManager.addItem">
<polygon fill="none" stroke="black" points="227.327,-122.934 227.327,-145.066 432.673,-145.066 432.673,-122.934 227.327,-122.934"/>
<text text-anchor="middle" x="330" y="-131.066" font-family="sans-serif" font-size="10.00">csc440.nuf.ScrollItemManager.addItem</text>
</a>
</g>
<!-- Node1&#45;&gt;Node5 -->
<g id="edge8" class="edge"><title>Node1&#45;&gt;Node5</title>
<path fill="none" stroke="midnightblue" d="M184.244,-134C194.969,-134 206.005,-134 216.973,-134"/>
<polygon fill="midnightblue" stroke="midnightblue" points="217.015,-137.5 227.015,-134 217.015,-130.5 217.015,-137.5"/>
</g>
<!-- Node6 -->
<g id="node11" class="node"><title>Node6</title>
<a xlink:href="$classcsc440_1_1nuf_1_1_scroll_item_manager.xhtml#a593cfa1b9eb3288297683b1a370015e1" xlink:title="csc440.nuf.ScrollItemManager.setTitle">
<polygon fill="none" stroke="black" points="229.234,-81.9336 229.234,-104.066 430.766,-104.066 430.766,-81.9336 229.234,-81.9336"/>
<text text-anchor="middle" x="330" y="-90.0664" font-family="sans-serif" font-size="10.00">csc440.nuf.ScrollItemManager.setTitle</text>
</a>
</g>
<!-- Node1&#45;&gt;Node6 -->
<g id="edge10" class="edge"><title>Node1&#45;&gt;Node6</title>
<path fill="none" stroke="midnightblue" d="M156.865,-122.905C187.167,-117.641 223.549,-111.32 255.044,-105.848"/>
<polygon fill="midnightblue" stroke="midnightblue" points="255.831,-109.264 265.084,-104.104 254.632,-102.367 255.831,-109.264"/>
</g>
<!-- Node7 -->
<g id="node13" class="node"><title>Node7</title>
<a xlink:href="$classcsc440_1_1nuf_1_1_scroll_item_manager.xhtml#a1561fbe2466c1f47c901f3760ccbfa07" xlink:title="csc440.nuf.ScrollItemManager.setIcon">
<polygon fill="none" stroke="black" points="229.766,-40.9336 229.766,-63.0664 430.234,-63.0664 430.234,-40.9336 229.766,-40.9336"/>
<text text-anchor="middle" x="330" y="-49.0664" font-family="sans-serif" font-size="10.00">csc440.nuf.ScrollItemManager.setIcon</text>
</a>
</g>
<!-- Node1&#45;&gt;Node7 -->
<g id="edge12" class="edge"><title>Node1&#45;&gt;Node7</title>
<path fill="none" stroke="midnightblue" d="M111.678,-122.857C135.856,-108.915 179.679,-85.2641 220,-72 227.536,-69.5209 235.472,-67.3216 243.484,-65.3762"/>
<polygon fill="midnightblue" stroke="midnightblue" points="244.311,-68.7777 253.273,-63.1275 242.743,-61.9554 244.311,-68.7777"/>
</g>
<!-- Node8 -->
<g id="node15" class="node"><title>Node8</title>
<a xlink:href="$classcsc440_1_1nuf_1_1_scroll_item_manager.xhtml#a29b56004e0c6b27c4cf37abbe702b0e2" xlink:title="csc440.nuf.ScrollItemManager.setListener">
<polygon fill="none" stroke="black" points="220.691,0.0664062 220.691,-22.0664 439.309,-22.0664 439.309,0.0664062 220.691,0.0664062"/>
<text text-anchor="middle" x="330" y="-8.06641" font-family="sans-serif" font-size="10.00">csc440.nuf.ScrollItemManager.setListener</text>
</a>
</g>
<!-- Node1&#45;&gt;Node8 -->
<g id="edge14" class="edge"><title>Node1&#45;&gt;Node8</title>
<path fill="none" stroke="midnightblue" d="M102.936,-122.855C122.835,-101.306 169.973,-54.031 220,-31 224.686,-28.8427 229.586,-26.918 234.604,-25.2007"/>
<polygon fill="midnightblue" stroke="midnightblue" points="235.873,-28.4711 244.373,-22.1473 233.785,-21.7898 235.873,-28.4711"/>
</g>
</g>
</svg>
