<?xml version="1.0" encoding="UTF-8" standalone="no"?>
<!DOCTYPE svg PUBLIC "-//W3C//DTD SVG 1.1//EN"
 "http://www.w3.org/Graphics/SVG/1.1/DTD/svg11.dtd">
<!-- Generated by graphviz version 2.28.0 (20111028.1807)
 -->
<!-- Title: G Pages: 1 -->
<svg width="940pt" height="112pt"
 viewBox="0.00 0.00 940.00 112.00" xmlns="http://www.w3.org/2000/svg" xmlns:xlink="http://www.w3.org/1999/xlink">
<g id="graph1" class="graph" transform="scale(1 1) rotate(0) translate(4 108)">
<title>G</title>
<!-- Node1 -->
<g id="node1" class="node"><title>Node1</title>
<polygon fill="#bfbfbf" stroke="black" points="-0.0307617,-40.9336 -0.0307617,-63.0664 264.031,-63.0664 264.031,-40.9336 -0.0307617,-40.9336"/>
<text text-anchor="middle" x="132" y="-49.0664" font-family="sans-serif" font-size="10.00">com.google.appengine.codelab.Product.getProduct</text>
</g>
<!-- Node2 -->
<g id="node3" class="node"><title>Node2</title>
<a xlink:href="$classcom_1_1google_1_1appengine_1_1codelab_1_1_item.xhtml#a1f0cd1ed3e9e496f6cd40cde580dc045" xlink:title="com.google.appengine.codelab.Item.createOrUpdateItem">
<polygon fill="none" stroke="black" points="315.423,-81.9336 315.423,-104.066 608.577,-104.066 608.577,-81.9336 315.423,-81.9336"/>
<text text-anchor="middle" x="462" y="-90.0664" font-family="sans-serif" font-size="10.00">com.google.appengine.codelab.Item.createOrUpdateItem</text>
</a>
</g>
<!-- Node1&#45;&gt;Node2 -->
<g id="edge2" class="edge"><title>Node1&#45;&gt;Node2</title>
<path fill="none" stroke="midnightblue" d="M231.774,-64.3467C276.519,-69.9399 329.003,-76.5004 372.452,-81.9315"/>
<polygon fill="midnightblue" stroke="midnightblue" points="232.118,-60.8627 221.762,-63.0952 231.25,-67.8086 232.118,-60.8627"/>
</g>
<!-- Node4 -->
<g id="node7" class="node"><title>Node4</title>
<a xlink:href="$classcom_1_1google_1_1appengine_1_1codelab_1_1_product.xhtml#a0ad4aec15554c898684fcd6ea8d9ef10" xlink:title="com.google.appengine.codelab.Product.createOrUpdateProduct">
<polygon fill="none" stroke="black" points="299.828,-40.9336 299.828,-63.0664 624.172,-63.0664 624.172,-40.9336 299.828,-40.9336"/>
<text text-anchor="middle" x="462" y="-49.0664" font-family="sans-serif" font-size="10.00">com.google.appengine.codelab.Product.createOrUpdateProduct</text>
</a>
</g>
<!-- Node1&#45;&gt;Node4 -->
<g id="edge6" class="edge"><title>Node1&#45;&gt;Node4</title>
<path fill="none" stroke="midnightblue" d="M274.236,-52C282.626,-52 291.097,-52 299.559,-52"/>
<polygon fill="midnightblue" stroke="midnightblue" points="274.048,-48.5001 264.048,-52 274.048,-55.5001 274.048,-48.5001"/>
</g>
<!-- Node6 -->
<g id="node11" class="node"><title>Node6</title>
<a xlink:href="$classcom_1_1google_1_1appengine_1_1codelab_1_1_product_servlet.xhtml#a7c57929d447f8ee5c296d57be19d1727" xlink:title="com.google.appengine.codelab.ProductServlet.doGet">
<polygon fill="none" stroke="black" points="325.604,0.0664062 325.604,-22.0664 598.396,-22.0664 598.396,0.0664062 325.604,0.0664062"/>
<text text-anchor="middle" x="462" y="-8.06641" font-family="sans-serif" font-size="10.00">com.google.appengine.codelab.ProductServlet.doGet</text>
</a>
</g>
<!-- Node1&#45;&gt;Node6 -->
<g id="edge10" class="edge"><title>Node1&#45;&gt;Node6</title>
<path fill="none" stroke="midnightblue" d="M230.935,-39.6598C253.612,-36.8094 277.647,-33.7939 300,-31 323.197,-28.1006 348.277,-24.979 371.579,-22.0839"/>
<polygon fill="midnightblue" stroke="midnightblue" points="230.453,-36.1929 220.967,-40.9131 231.326,-43.1382 230.453,-36.1929"/>
</g>
<!-- Node3 -->
<g id="node5" class="node"><title>Node3</title>
<a xlink:href="$classcom_1_1google_1_1appengine_1_1codelab_1_1_item_servlet.xhtml#a5d5c9f0b60f447633023ec79cfa95ea1" xlink:title="com.google.appengine.codelab.ItemServlet.doPut">
<polygon fill="none" stroke="black" points="667.934,-81.9336 667.934,-104.066 924.066,-104.066 924.066,-81.9336 667.934,-81.9336"/>
<text text-anchor="middle" x="796" y="-90.0664" font-family="sans-serif" font-size="10.00">com.google.appengine.codelab.ItemServlet.doPut</text>
</a>
</g>
<!-- Node2&#45;&gt;Node3 -->
<g id="edge4" class="edge"><title>Node2&#45;&gt;Node3</title>
<path fill="none" stroke="midnightblue" d="M618.8,-93C635.187,-93 651.707,-93 667.717,-93"/>
<polygon fill="midnightblue" stroke="midnightblue" points="618.62,-89.5001 608.62,-93 618.62,-96.5001 618.62,-89.5001"/>
</g>
<!-- Node5 -->
<g id="node9" class="node"><title>Node5</title>
<a xlink:href="$classcom_1_1google_1_1appengine_1_1codelab_1_1_product_servlet.xhtml#a3cbc6cfe522686a474dade9a58b3d1a3" xlink:title="com.google.appengine.codelab.ProductServlet.doPut">
<polygon fill="none" stroke="black" points="660.136,-40.9336 660.136,-63.0664 931.864,-63.0664 931.864,-40.9336 660.136,-40.9336"/>
<text text-anchor="middle" x="796" y="-49.0664" font-family="sans-serif" font-size="10.00">com.google.appengine.codelab.ProductServlet.doPut</text>
</a>
</g>
<!-- Node4&#45;&gt;Node5 -->
<g id="edge8" class="edge"><title>Node4&#45;&gt;Node5</title>
<path fill="none" stroke="midnightblue" d="M634.643,-52C643.176,-52 651.688,-52 660.09,-52"/>
<polygon fill="midnightblue" stroke="midnightblue" points="634.624,-48.5001 624.623,-52 634.623,-55.5001 634.624,-48.5001"/>
</g>
</g>
</svg>
