<?xml version="1.0" encoding="UTF-8" standalone="no"?>
<!DOCTYPE svg PUBLIC "-//W3C//DTD SVG 1.1//EN"
 "http://www.w3.org/Graphics/SVG/1.1/DTD/svg11.dtd">
<!-- Generated by graphviz version 2.28.0 (20111028.1807)
 -->
<!-- Title: G Pages: 1 -->
<svg width="668pt" height="71pt"
 viewBox="0.00 0.00 668.00 71.00" xmlns="http://www.w3.org/2000/svg" xmlns:xlink="http://www.w3.org/1999/xlink">
<g id="graph1" class="graph" transform="scale(1 1) rotate(0) translate(4 67)">
<title>G</title>
<!-- Node1 -->
<g id="node1" class="node"><title>Node1</title>
<polygon fill="#bfbfbf" stroke="black" points="-0.125488,-19.9336 -0.125488,-42.0664 318.125,-42.0664 318.125,-19.9336 -0.125488,-19.9336"/>
<text text-anchor="middle" x="159" y="-28.0664" font-family="sans-serif" font-size="10.00">com.thira.examples.actionbar.widget.ActionBar.addActionIcon</text>
</g>
<!-- Node2 -->
<g id="node3" class="node"><title>Node2</title>
<a xlink:href="$classcom_1_1thira_1_1examples_1_1actionbar_1_1_custom_title_activity.xhtml#a0fc998991fdce16c2902a85b6f9d5bc2" xlink:title="com.thira.examples.actionbar.CustomTitleActivity.onCreate">
<polygon fill="none" stroke="black" points="354.437,-40.9336 354.437,-63.0664 659.563,-63.0664 659.563,-40.9336 354.437,-40.9336"/>
<text text-anchor="middle" x="507" y="-49.0664" font-family="sans-serif" font-size="10.00">com.thira.examples.actionbar.CustomTitleActivity.onCreate</text>
</a>
</g>
<!-- Node1&#45;&gt;Node2 -->
<g id="edge2" class="edge"><title>Node1&#45;&gt;Node2</title>
<path fill="none" stroke="midnightblue" d="M328.469,-41.225C337.127,-41.7505 345.801,-42.2769 354.402,-42.799"/>
<polygon fill="midnightblue" stroke="midnightblue" points="328.511,-37.7212 318.317,-40.6089 328.087,-44.7083 328.511,-37.7212"/>
</g>
<!-- Node3 -->
<g id="node5" class="node"><title>Node3</title>
<a xlink:href="$classcom_1_1thira_1_1examples_1_1actionbar_1_1_main_activity.xhtml#ae12c4aa98ff986fa533899384b521987" xlink:title="com.thira.examples.actionbar.MainActivity.onCreate">
<polygon fill="none" stroke="black" points="372.25,0.0664062 372.25,-22.0664 641.75,-22.0664 641.75,0.0664062 372.25,0.0664062"/>
<text text-anchor="middle" x="507" y="-8.06641" font-family="sans-serif" font-size="10.00">com.thira.examples.actionbar.MainActivity.onCreate</text>
</a>
</g>
<!-- Node1&#45;&gt;Node3 -->
<g id="edge4" class="edge"><title>Node1&#45;&gt;Node3</title>
<path fill="none" stroke="midnightblue" d="M328.444,-21.2633C343.089,-20.4168 357.777,-19.5678 372.089,-18.7405"/>
<polygon fill="midnightblue" stroke="midnightblue" points="328.099,-17.7774 318.317,-21.8487 328.503,-24.7657 328.099,-17.7774"/>
</g>
</g>
</svg>
