<?xml version="1.0" encoding="UTF-8" standalone="no"?>
<!DOCTYPE svg PUBLIC "-//W3C//DTD SVG 1.1//EN"
 "http://www.w3.org/Graphics/SVG/1.1/DTD/svg11.dtd">
<!-- Generated by graphviz version 2.28.0 (20111028.1807)
 -->
<!-- Title: G Pages: 1 -->
<svg width="1034pt" height="153pt"
 viewBox="0.00 0.00 1034.00 153.00" xmlns="http://www.w3.org/2000/svg" xmlns:xlink="http://www.w3.org/1999/xlink">
<g id="graph1" class="graph" transform="scale(1 1) rotate(0) translate(4 149)">
<title>G</title>
<!-- Node1 -->
<g id="node1" class="node"><title>Node1</title>
<polygon fill="#bfbfbf" stroke="black" points="0.674316,-44.9336 0.674316,-67.0664 219.326,-67.0664 219.326,-44.9336 0.674316,-44.9336"/>
<text text-anchor="middle" x="110" y="-53.0664" font-family="sans-serif" font-size="10.00">csc440.nuf.complay.Q.sortByEndTimeASC</text>
</g>
<!-- Node2 -->
<g id="node3" class="node"><title>Node2</title>
<a xlink:href="$classcsc440_1_1nuf_1_1complay_1_1_timer.xhtml#aebbe2beb25856951b72d866d783ce897" xlink:title="csc440.nuf.complay.Timer.setTime">
<polygon fill="none" stroke="black" points="255.834,-44.9336 255.834,-67.0664 442.166,-67.0664 442.166,-44.9336 255.834,-44.9336"/>
<text text-anchor="middle" x="349" y="-53.0664" font-family="sans-serif" font-size="10.00">csc440.nuf.complay.Timer.setTime</text>
</a>
</g>
<!-- Node1&#45;&gt;Node2 -->
<g id="edge2" class="edge"><title>Node1&#45;&gt;Node2</title>
<path fill="none" stroke="midnightblue" d="M229.646,-56C238.347,-56 247.047,-56 255.558,-56"/>
<polygon fill="midnightblue" stroke="midnightblue" points="229.443,-52.5001 219.443,-56 229.443,-59.5001 229.443,-52.5001"/>
</g>
<!-- Node3 -->
<g id="node5" class="node"><title>Node3</title>
<a xlink:href="$classcsc440_1_1nuf_1_1complay_1_1_player_canvas.xhtml#a64eae2e9ed26456ab5b104436c97d78f" xlink:title="csc440.nuf.complay.PlayerCanvas.setTime">
<polygon fill="none" stroke="black" points="478.305,-70.9336 478.305,-93.0664 699.695,-93.0664 699.695,-70.9336 478.305,-70.9336"/>
<text text-anchor="middle" x="589" y="-79.0664" font-family="sans-serif" font-size="10.00">csc440.nuf.complay.PlayerCanvas.setTime</text>
</a>
</g>
<!-- Node2&#45;&gt;Node3 -->
<g id="edge4" class="edge"><title>Node2&#45;&gt;Node3</title>
<path fill="none" stroke="midnightblue" d="M452.635,-67.2123C463.901,-68.4429 475.366,-69.6954 486.616,-70.9244"/>
<polygon fill="midnightblue" stroke="midnightblue" points="452.679,-63.6963 442.358,-66.0895 451.918,-70.6549 452.679,-63.6963"/>
</g>
<!-- Node7 -->
<g id="node13" class="node"><title>Node7</title>
<a xlink:href="$classcsc440_1_1nuf_1_1complay_1_1_timer.xhtml#aff1846d75c64aee648b2321f9ea62314" xlink:title="csc440.nuf.complay.Timer.timePlusPlus">
<polygon fill="none" stroke="black" points="484.608,-19.9336 484.608,-42.0664 693.392,-42.0664 693.392,-19.9336 484.608,-19.9336"/>
<text text-anchor="middle" x="589" y="-28.0664" font-family="sans-serif" font-size="10.00">csc440.nuf.complay.Timer.timePlusPlus</text>
</a>
</g>
<!-- Node2&#45;&gt;Node7 -->
<g id="edge12" class="edge"><title>Node2&#45;&gt;Node7</title>
<path fill="none" stroke="midnightblue" d="M452.402,-45.2434C462.948,-44.1358 473.67,-43.0095 484.23,-41.9002"/>
<polygon fill="midnightblue" stroke="midnightblue" points="451.937,-41.773 442.358,-46.2986 452.669,-48.7347 451.937,-41.773"/>
</g>
<!-- Node4 -->
<g id="node7" class="node"><title>Node4</title>
<a xlink:href="$classcsc440_1_1nuf_1_1complay_1_1_player_activity.xhtml#a592b9fe89b9076e65456181c0e389e3c" xlink:title="csc440.nuf.complay.PlayerActivity.onCreate">
<polygon fill="none" stroke="black" points="767.067,-122.934 767.067,-145.066 994.933,-145.066 994.933,-122.934 767.067,-122.934"/>
<text text-anchor="middle" x="881" y="-131.066" font-family="sans-serif" font-size="10.00">csc440.nuf.complay.PlayerActivity.onCreate</text>
</a>
</g>
<!-- Node3&#45;&gt;Node4 -->
<g id="edge6" class="edge"><title>Node3&#45;&gt;Node4</title>
<path fill="none" stroke="midnightblue" d="M648.44,-95.3084C675.071,-101.141 707.049,-107.821 736,-113 755.896,-116.559 777.419,-119.945 797.61,-122.917"/>
<polygon fill="midnightblue" stroke="midnightblue" points="649.032,-91.8549 638.513,-93.1195 647.525,-98.6907 649.032,-91.8549"/>
</g>
<!-- Node5 -->
<g id="node9" class="node"><title>Node5</title>
<a xlink:href="$classcsc440_1_1nuf_1_1complay_1_1_player_activity.xhtml#a042e95babe17fab59ba7d71a6dfc9dbb" xlink:title="csc440.nuf.complay.PlayerActivity.onStopTrackingTouch">
<polygon fill="none" stroke="black" points="735.876,-81.9336 735.876,-104.066 1026.12,-104.066 1026.12,-81.9336 735.876,-81.9336"/>
<text text-anchor="middle" x="881" y="-90.0664" font-family="sans-serif" font-size="10.00">csc440.nuf.complay.PlayerActivity.onStopTrackingTouch</text>
</a>
</g>
<!-- Node3&#45;&gt;Node5 -->
<g id="edge8" class="edge"><title>Node3&#45;&gt;Node5</title>
<path fill="none" stroke="midnightblue" d="M710.266,-86.5618C718.695,-86.8815 727.239,-87.2056 735.779,-87.5296"/>
<polygon fill="midnightblue" stroke="midnightblue" points="710.176,-83.056 700.05,-86.1743 709.91,-90.0509 710.176,-83.056"/>
</g>
<!-- Node6 -->
<g id="node11" class="node"><title>Node6</title>
<a xlink:href="$classcsc440_1_1nuf_1_1complay_1_1_player_activity.xhtml#a7f5eb45ffac9b23a602a8ba76dbb6d47" xlink:title="csc440.nuf.complay.PlayerActivity.playPause">
<polygon fill="none" stroke="black" points="765.021,-40.9336 765.021,-63.0664 996.979,-63.0664 996.979,-40.9336 765.021,-40.9336"/>
<text text-anchor="middle" x="881" y="-49.0664" font-family="sans-serif" font-size="10.00">csc440.nuf.complay.PlayerActivity.playPause</text>
</a>
</g>
<!-- Node3&#45;&gt;Node6 -->
<g id="edge10" class="edge"><title>Node3&#45;&gt;Node6</title>
<path fill="none" stroke="midnightblue" d="M707.367,-69.8586C728.999,-67.6208 751.482,-65.2949 772.795,-63.0901"/>
<polygon fill="midnightblue" stroke="midnightblue" points="706.748,-66.4038 697.161,-70.9143 707.468,-73.3667 706.748,-66.4038"/>
</g>
<!-- Node8 -->
<g id="node15" class="node"><title>Node8</title>
<a xlink:href="$classcsc440_1_1nuf_1_1complay_1_1_player_canvas.xhtml#aa0797d703af20d0ada15e590da003617" xlink:title="csc440.nuf.complay.PlayerCanvas.run">
<polygon fill="none" stroke="black" points="781.318,0.0664062 781.318,-22.0664 980.682,-22.0664 980.682,0.0664062 781.318,0.0664062"/>
<text text-anchor="middle" x="881" y="-8.06641" font-family="sans-serif" font-size="10.00">csc440.nuf.complay.PlayerCanvas.run</text>
</a>
</g>
<!-- Node7&#45;&gt;Node8 -->
<g id="edge14" class="edge"><title>Node7&#45;&gt;Node8</title>
<path fill="none" stroke="midnightblue" d="M703.564,-23.168C729.117,-21.4057 756.039,-19.549 780.944,-17.8315"/>
<polygon fill="midnightblue" stroke="midnightblue" points="703.204,-19.6844 693.468,-23.8642 703.686,-26.6678 703.204,-19.6844"/>
</g>
</g>
</svg>
