<?xml version="1.0" encoding="UTF-8" standalone="no"?>
<!DOCTYPE svg PUBLIC "-//W3C//DTD SVG 1.1//EN"
 "http://www.w3.org/Graphics/SVG/1.1/DTD/svg11.dtd">
<!-- Generated by graphviz version 2.28.0 (20111028.1807)
 -->
<!-- Title: G Pages: 1 -->
<svg width="668pt" height="112pt"
 viewBox="0.00 0.00 668.00 112.00" xmlns="http://www.w3.org/2000/svg" xmlns:xlink="http://www.w3.org/1999/xlink">
<g id="graph1" class="graph" transform="scale(1 1) rotate(0) translate(4 108)">
<title>G</title>
<!-- Node1 -->
<g id="node1" class="node"><title>Node1</title>
<polygon fill="#bfbfbf" stroke="black" points="0.437012,-40.9336 0.437012,-63.0664 305.563,-63.0664 305.563,-40.9336 0.437012,-40.9336"/>
<text text-anchor="middle" x="153" y="-49.0664" font-family="sans-serif" font-size="10.00">com.thira.examples.actionbar.CustomTitleActivity.onCreate</text>
</g>
<!-- Node2 -->
<g id="node3" class="node"><title>Node2</title>
<a xlink:href="$classcom_1_1thira_1_1examples_1_1actionbar_1_1widget_1_1_action_bar.xhtml#a9940796cc1b0e1a6169da32cf75593e9" xlink:title="com.thira.examples.actionbar.widget.ActionBar.setTitle">
<polygon fill="none" stroke="black" points="358.693,-81.9336 358.693,-104.066 643.307,-104.066 643.307,-81.9336 358.693,-81.9336"/>
<text text-anchor="middle" x="501" y="-90.0664" font-family="sans-serif" font-size="10.00">com.thira.examples.actionbar.widget.ActionBar.setTitle</text>
</a>
</g>
<!-- Node1&#45;&gt;Node2 -->
<g id="edge2" class="edge"><title>Node1&#45;&gt;Node2</title>
<path fill="none" stroke="midnightblue" d="M247.633,-63.0952C293.69,-68.5529 349.329,-75.1459 396.632,-80.7512"/>
<polygon fill="midnightblue" stroke="midnightblue" points="396.25,-84.2304 406.593,-81.9315 397.074,-77.279 396.25,-84.2304"/>
</g>
<!-- Node3 -->
<g id="node5" class="node"><title>Node3</title>
<a xlink:href="$classcom_1_1thira_1_1examples_1_1actionbar_1_1widget_1_1_action_bar.xhtml#a3fae9dd666ad12891b9d9a96918652de" xlink:title="com.thira.examples.actionbar.widget.ActionBar.setHomeLogo">
<polygon fill="none" stroke="black" points="343.276,-40.9336 343.276,-63.0664 658.724,-63.0664 658.724,-40.9336 343.276,-40.9336"/>
<text text-anchor="middle" x="501" y="-49.0664" font-family="sans-serif" font-size="10.00">com.thira.examples.actionbar.widget.ActionBar.setHomeLogo</text>
</a>
</g>
<!-- Node1&#45;&gt;Node3 -->
<g id="edge4" class="edge"><title>Node1&#45;&gt;Node3</title>
<path fill="none" stroke="midnightblue" d="M305.761,-52C314.797,-52 323.913,-52 333.006,-52"/>
<polygon fill="midnightblue" stroke="midnightblue" points="333.258,-55.5001 343.258,-52 333.258,-48.5001 333.258,-55.5001"/>
</g>
<!-- Node4 -->
<g id="node7" class="node"><title>Node4</title>
<a xlink:href="$classcom_1_1thira_1_1examples_1_1actionbar_1_1widget_1_1_action_bar.xhtml#a0e3a9b81ca94496856105e3390f34266" xlink:title="com.thira.examples.actionbar.widget.ActionBar.addActionIcon">
<polygon fill="none" stroke="black" points="341.875,0.0664062 341.875,-22.0664 660.125,-22.0664 660.125,0.0664062 341.875,0.0664062"/>
<text text-anchor="middle" x="501" y="-8.06641" font-family="sans-serif" font-size="10.00">com.thira.examples.actionbar.widget.ActionBar.addActionIcon</text>
</a>
</g>
<!-- Node1&#45;&gt;Node4 -->
<g id="edge6" class="edge"><title>Node1&#45;&gt;Node4</title>
<path fill="none" stroke="midnightblue" d="M247.633,-40.9048C293.69,-35.4471 349.329,-28.8541 396.632,-23.2488"/>
<polygon fill="midnightblue" stroke="midnightblue" points="397.074,-26.721 406.593,-22.0685 396.25,-19.7696 397.074,-26.721"/>
</g>
</g>
</svg>
