<?xml version="1.0" encoding="UTF-8" standalone="no"?>
<!DOCTYPE svg PUBLIC "-//W3C//DTD SVG 1.1//EN"
 "http://www.w3.org/Graphics/SVG/1.1/DTD/svg11.dtd">
<!-- Generated by graphviz version 2.28.0 (20111028.1807)
 -->
<!-- Title: G Pages: 1 -->
<svg width="534pt" height="71pt"
 viewBox="0.00 0.00 534.00 71.00" xmlns="http://www.w3.org/2000/svg" xmlns:xlink="http://www.w3.org/1999/xlink">
<g id="graph1" class="graph" transform="scale(1 1) rotate(0) translate(4 67)">
<title>G</title>
<!-- Node1 -->
<g id="node1" class="node"><title>Node1</title>
<polygon fill="#bfbfbf" stroke="black" points="0.617188,-19.9336 0.617188,-42.0664 291.383,-42.0664 291.383,-19.9336 0.617188,-19.9336"/>
<text text-anchor="middle" x="146" y="-28.0664" font-family="sans-serif" font-size="10.00">csc440.nuf.server.SMILEngineService.deleteSMILMessage</text>
</g>
<!-- Node2 -->
<g id="node3" class="node"><title>Node2</title>
<a xlink:href="$classcsc440_1_1nuf_1_1server_1_1_data_store.xhtml#a338414fad64469e2aeb74ffd4833f5d9" xlink:title="csc440.nuf.server.DataStore.delete">
<polygon fill="none" stroke="black" points="334.249,-40.9336 334.249,-63.0664 519.751,-63.0664 519.751,-40.9336 334.249,-40.9336"/>
<text text-anchor="middle" x="427" y="-49.0664" font-family="sans-serif" font-size="10.00">csc440.nuf.server.DataStore.delete</text>
</a>
</g>
<!-- Node1&#45;&gt;Node2 -->
<g id="edge2" class="edge"><title>Node1&#45;&gt;Node2</title>
<path fill="none" stroke="midnightblue" d="M291.403,-41.8691C302.386,-42.6958 313.329,-43.5194 323.958,-44.3194"/>
<polygon fill="midnightblue" stroke="midnightblue" points="323.81,-47.8181 334.044,-45.0786 324.335,-40.8378 323.81,-47.8181"/>
</g>
<!-- Node3 -->
<g id="node5" class="node"><title>Node3</title>
<a xlink:href="$classcsc440_1_1nuf_1_1server_1_1_s_m_i_l_message.xhtml#a3244ff730fcc1e2935e268358d0c507d" xlink:title="csc440.nuf.server.SMILMessage.getId">
<polygon fill="none" stroke="black" points="328.351,0.0664062 328.351,-22.0664 525.649,-22.0664 525.649,0.0664062 328.351,0.0664062"/>
<text text-anchor="middle" x="427" y="-8.06641" font-family="sans-serif" font-size="10.00">csc440.nuf.server.SMILMessage.getId</text>
</a>
</g>
<!-- Node1&#45;&gt;Node3 -->
<g id="edge4" class="edge"><title>Node1&#45;&gt;Node3</title>
<path fill="none" stroke="midnightblue" d="M291.403,-20.6485C300.387,-20.0045 309.343,-19.3625 318.123,-18.7331"/>
<polygon fill="midnightblue" stroke="midnightblue" points="318.616,-22.2069 328.34,-18.0007 318.115,-15.2248 318.616,-22.2069"/>
</g>
</g>
</svg>
