<?xml version="1.0" encoding="UTF-8" standalone="no"?>
<!DOCTYPE svg PUBLIC "-//W3C//DTD SVG 1.1//EN"
 "http://www.w3.org/Graphics/SVG/1.1/DTD/svg11.dtd">
<!-- Generated by graphviz version 2.28.0 (20111028.1807)
 -->
<!-- Title: G Pages: 1 -->
<svg width="894pt" height="71pt"
 viewBox="0.00 0.00 894.00 71.00" xmlns="http://www.w3.org/2000/svg" xmlns:xlink="http://www.w3.org/1999/xlink">
<g id="graph1" class="graph" transform="scale(1 1) rotate(0) translate(4 67)">
<title>G</title>
<!-- Node1 -->
<g id="node1" class="node"><title>Node1</title>
<polygon fill="#bfbfbf" stroke="black" points="0.211426,-19.9336 0.211426,-42.0664 247.789,-42.0664 247.789,-19.9336 0.211426,-19.9336"/>
<text text-anchor="middle" x="124" y="-28.0664" font-family="sans-serif" font-size="10.00">com.google.appengine.codelab.Util.deleteEntity</text>
</g>
<!-- Node2 -->
<g id="node3" class="node"><title>Node2</title>
<a xlink:href="$classcom_1_1google_1_1appengine_1_1codelab_1_1_item.xhtml#a43b58e542f3362d9d1f3c35cc0d27d4d" xlink:title="com.google.appengine.codelab.Item.deleteItem">
<polygon fill="none" stroke="black" points="299.519,-40.9336 299.519,-63.0664 546.481,-63.0664 546.481,-40.9336 299.519,-40.9336"/>
<text text-anchor="middle" x="423" y="-49.0664" font-family="sans-serif" font-size="10.00">com.google.appengine.codelab.Item.deleteItem</text>
</a>
</g>
<!-- Node1&#45;&gt;Node2 -->
<g id="edge2" class="edge"><title>Node1&#45;&gt;Node2</title>
<path fill="none" stroke="midnightblue" d="M258.302,-40.4254C271.899,-41.3868 285.669,-42.3604 299.147,-43.3134"/>
<polygon fill="midnightblue" stroke="midnightblue" points="258.167,-36.9072 247.945,-39.6931 257.673,-43.8898 258.167,-36.9072"/>
</g>
<!-- Node4 -->
<g id="node7" class="node"><title>Node4</title>
<a xlink:href="$classcom_1_1google_1_1appengine_1_1codelab_1_1_product.xhtml#addc5d2e4ec78d1eef631ffc4cdf268a1" xlink:title="com.google.appengine.codelab.Product.deleteProduct">
<polygon fill="none" stroke="black" points="283.923,0.0664062 283.923,-22.0664 562.077,-22.0664 562.077,0.0664062 283.923,0.0664062"/>
<text text-anchor="middle" x="423" y="-8.06641" font-family="sans-serif" font-size="10.00">com.google.appengine.codelab.Product.deleteProduct</text>
</a>
</g>
<!-- Node1&#45;&gt;Node4 -->
<g id="edge6" class="edge"><title>Node1&#45;&gt;Node4</title>
<path fill="none" stroke="midnightblue" d="M257.955,-22.0468C266.515,-21.4704 275.145,-20.8892 283.729,-20.3112"/>
<polygon fill="midnightblue" stroke="midnightblue" points="257.687,-18.5568 247.945,-22.7209 258.158,-25.541 257.687,-18.5568"/>
</g>
<!-- Node3 -->
<g id="node5" class="node"><title>Node3</title>
<a xlink:href="$classcom_1_1google_1_1appengine_1_1codelab_1_1_item_servlet.xhtml#a977e84d117d1e9c9faf1be8e71f0e69e" xlink:title="com.google.appengine.codelab.ItemServlet.doDelete">
<polygon fill="none" stroke="black" points="606.253,-40.9336 606.253,-63.0664 877.747,-63.0664 877.747,-40.9336 606.253,-40.9336"/>
<text text-anchor="middle" x="742" y="-49.0664" font-family="sans-serif" font-size="10.00">com.google.appengine.codelab.ItemServlet.doDelete</text>
</a>
</g>
<!-- Node2&#45;&gt;Node3 -->
<g id="edge4" class="edge"><title>Node2&#45;&gt;Node3</title>
<path fill="none" stroke="midnightblue" d="M556.684,-52C573.03,-52 589.754,-52 606.133,-52"/>
<polygon fill="midnightblue" stroke="midnightblue" points="556.561,-48.5001 546.56,-52 556.56,-55.5001 556.561,-48.5001"/>
</g>
<!-- Node5 -->
<g id="node9" class="node"><title>Node5</title>
<a xlink:href="$classcom_1_1google_1_1appengine_1_1codelab_1_1_product_servlet.xhtml#a772fa15f8adf07619e0e71e58488f198" xlink:title="com.google.appengine.codelab.ProductServlet.doDelete">
<polygon fill="none" stroke="black" points="598.456,0.0664062 598.456,-22.0664 885.544,-22.0664 885.544,0.0664062 598.456,0.0664062"/>
<text text-anchor="middle" x="742" y="-8.06641" font-family="sans-serif" font-size="10.00">com.google.appengine.codelab.ProductServlet.doDelete</text>
</a>
</g>
<!-- Node4&#45;&gt;Node5 -->
<g id="edge8" class="edge"><title>Node4&#45;&gt;Node5</title>
<path fill="none" stroke="midnightblue" d="M572.286,-11C580.968,-11 589.692,-11 598.352,-11"/>
<polygon fill="midnightblue" stroke="midnightblue" points="572.119,-7.5001 562.119,-11 572.119,-14.5001 572.119,-7.5001"/>
</g>
</g>
</svg>
