<?xml version="1.0" encoding="UTF-8" standalone="no"?>
<!DOCTYPE svg PUBLIC "-//W3C//DTD SVG 1.1//EN"
 "http://www.w3.org/Graphics/SVG/1.1/DTD/svg11.dtd">
<!-- Generated by graphviz version 2.28.0 (20111028.1807)
 -->
<!-- Title: G Pages: 1 -->
<svg width="760pt" height="30pt"
 viewBox="0.00 0.00 760.00 30.00" xmlns="http://www.w3.org/2000/svg" xmlns:xlink="http://www.w3.org/1999/xlink">
<g id="graph1" class="graph" transform="scale(1 1) rotate(0) translate(4 26)">
<title>G</title>
<!-- Node1 -->
<g id="node1" class="node"><title>Node1</title>
<polygon fill="#bfbfbf" stroke="black" points="0.696777,0.0664062 0.696777,-22.0664 283.303,-22.0664 283.303,0.0664062 0.696777,0.0664062"/>
<text text-anchor="middle" x="142" y="-8.06641" font-family="sans-serif" font-size="10.00">csc440.nuf.server.SMILEngineService.readSMILMessage</text>
</g>
<!-- Node2 -->
<g id="node3" class="node"><title>Node2</title>
<a xlink:href="$classcsc440_1_1nuf_1_1server_1_1_data_store.xhtml#ae6c7e81006cca7f550337a8ac3c84a47" xlink:title="csc440.nuf.server.DataStore.find">
<polygon fill="none" stroke="black" points="320.596,0.0664062 320.596,-22.0664 495.404,-22.0664 495.404,0.0664062 320.596,0.0664062"/>
<text text-anchor="middle" x="408" y="-8.06641" font-family="sans-serif" font-size="10.00">csc440.nuf.server.DataStore.find</text>
</a>
</g>
<!-- Node1&#45;&gt;Node2 -->
<g id="edge2" class="edge"><title>Node1&#45;&gt;Node2</title>
<path fill="none" stroke="midnightblue" d="M283.503,-11C292.53,-11 301.505,-11 310.256,-11"/>
<polygon fill="midnightblue" stroke="midnightblue" points="310.417,-14.5001 320.417,-11 310.417,-7.5001 310.417,-14.5001"/>
</g>
<!-- Node3 -->
<g id="node5" class="node"><title>Node3</title>
<a xlink:href="$classcsc440_1_1nuf_1_1server_1_1_data_store.xhtml#a3749afd0edd374001b7a29ef14495ffc" xlink:title="csc440.nuf.server.DataStore.getUserEmail">
<polygon fill="none" stroke="black" points="532.42,0.0664062 532.42,-22.0664 751.58,-22.0664 751.58,0.0664062 532.42,0.0664062"/>
<text text-anchor="middle" x="642" y="-8.06641" font-family="sans-serif" font-size="10.00">csc440.nuf.server.DataStore.getUserEmail</text>
</a>
</g>
<!-- Node2&#45;&gt;Node3 -->
<g id="edge4" class="edge"><title>Node2&#45;&gt;Node3</title>
<path fill="none" stroke="midnightblue" d="M495.718,-11C504.415,-11 513.346,-11 522.299,-11"/>
<polygon fill="midnightblue" stroke="midnightblue" points="522.405,-14.5001 532.405,-11 522.405,-7.5001 522.405,-14.5001"/>
</g>
</g>
</svg>
