<?xml version="1.0" encoding="UTF-8" standalone="no"?>
<!DOCTYPE svg PUBLIC "-//W3C//DTD SVG 1.1//EN"
 "http://www.w3.org/Graphics/SVG/1.1/DTD/svg11.dtd">
<!-- Generated by graphviz version 2.28.0 (20111028.1807)
 -->
<!-- Title: G Pages: 1 -->
<svg width="606pt" height="235pt"
 viewBox="0.00 0.00 606.00 235.00" xmlns="http://www.w3.org/2000/svg" xmlns:xlink="http://www.w3.org/1999/xlink">
<g id="graph1" class="graph" transform="scale(1 1) rotate(0) translate(4 231)">
<title>G</title>
<!-- Node1 -->
<g id="node1" class="node"><title>Node1</title>
<polygon fill="#bfbfbf" stroke="black" points="-0.236816,-101.934 -0.236816,-124.066 216.237,-124.066 216.237,-101.934 -0.236816,-101.934"/>
<text text-anchor="middle" x="108" y="-110.066" font-family="sans-serif" font-size="10.00">csc440.nuf.client.SMILWidget.SMILWidget</text>
</g>
<!-- Node2 -->
<g id="node3" class="node"><title>Node2</title>
<a xlink:href="$interfacecsc440_1_1nuf_1_1client_1_1_my_request_factory.xhtml#aec007852eb50441fe13e53e4fb86e3a6" xlink:title="csc440.nuf.client.MyRequestFactory.messageRequest">
<polygon fill="none" stroke="black" points="287.72,-204.934 287.72,-227.066 562.28,-227.066 562.28,-204.934 287.72,-204.934"/>
<text text-anchor="middle" x="425" y="-213.066" font-family="sans-serif" font-size="10.00">csc440.nuf.client.MyRequestFactory.messageRequest</text>
</a>
</g>
<!-- Node1&#45;&gt;Node2 -->
<g id="edge2" class="edge"><title>Node1&#45;&gt;Node2</title>
<path fill="none" stroke="midnightblue" d="M123.899,-124.272C148.889,-142.526 201.49,-178.201 252,-195 260.898,-197.959 270.18,-200.509 279.619,-202.706"/>
<polygon fill="midnightblue" stroke="midnightblue" points="278.986,-206.15 289.504,-204.869 280.483,-199.312 278.986,-206.15"/>
</g>
<!-- Node3 -->
<g id="node5" class="node"><title>Node3</title>
<a xlink:href="$interfacecsc440_1_1nuf_1_1shared_1_1_message_proxy.xhtml#ae5db6a14c1cd21b25d90e77d56a85ddd" xlink:title="csc440.nuf.shared.MessageProxy.setRecipient">
<polygon fill="none" stroke="black" points="305.157,-163.934 305.157,-186.066 544.843,-186.066 544.843,-163.934 305.157,-163.934"/>
<text text-anchor="middle" x="425" y="-172.066" font-family="sans-serif" font-size="10.00">csc440.nuf.shared.MessageProxy.setRecipient</text>
</a>
</g>
<!-- Node1&#45;&gt;Node3 -->
<g id="edge4" class="edge"><title>Node1&#45;&gt;Node3</title>
<path fill="none" stroke="midnightblue" d="M142.148,-124.117C170.897,-133.369 213.782,-146.239 252,-154 267.869,-157.223 284.669,-160.019 301.307,-162.425"/>
<polygon fill="midnightblue" stroke="midnightblue" points="301.247,-165.95 311.636,-163.873 302.219,-159.018 301.247,-165.95"/>
</g>
<!-- Node4 -->
<g id="node7" class="node"><title>Node4</title>
<a xlink:href="$interfacecsc440_1_1nuf_1_1shared_1_1_message_proxy.xhtml#a05843b2b7eb495a2b217f37a0f25db3b" xlink:title="csc440.nuf.shared.MessageProxy.setMessage">
<polygon fill="none" stroke="black" points="306.607,-122.934 306.607,-145.066 543.393,-145.066 543.393,-122.934 306.607,-122.934"/>
<text text-anchor="middle" x="425" y="-131.066" font-family="sans-serif" font-size="10.00">csc440.nuf.shared.MessageProxy.setMessage</text>
</a>
</g>
<!-- Node1&#45;&gt;Node4 -->
<g id="edge6" class="edge"><title>Node1&#45;&gt;Node4</title>
<path fill="none" stroke="midnightblue" d="M216.524,-120.168C242.205,-121.88 269.864,-123.724 296.354,-125.49"/>
<polygon fill="midnightblue" stroke="midnightblue" points="296.232,-128.99 306.442,-126.163 296.697,-122.005 296.232,-128.99"/>
</g>
<!-- Node5 -->
<g id="node9" class="node"><title>Node5</title>
<a xlink:href="$interfacecsc440_1_1nuf_1_1client_1_1_my_request_factory_1_1_message_request.xhtml#af97b69aaf2d4d1af0581210de50b5c28" xlink:title="csc440.nuf.client.MyRequestFactory.MessageRequest.send">
<polygon fill="none" stroke="black" points="274.915,-81.9336 274.915,-104.066 575.085,-104.066 575.085,-81.9336 274.915,-81.9336"/>
<text text-anchor="middle" x="425" y="-90.0664" font-family="sans-serif" font-size="10.00">csc440.nuf.client.MyRequestFactory.MessageRequest.send</text>
</a>
</g>
<!-- Node1&#45;&gt;Node5 -->
<g id="edge8" class="edge"><title>Node1&#45;&gt;Node5</title>
<path fill="none" stroke="midnightblue" d="M216.524,-106.173C232.095,-105.184 248.394,-104.15 264.718,-103.113"/>
<polygon fill="midnightblue" stroke="midnightblue" points="265.121,-106.595 274.879,-102.468 264.677,-99.6088 265.121,-106.595"/>
</g>
<!-- Node6 -->
<g id="node11" class="node"><title>Node6</title>
<a xlink:href="$interfacecsc440_1_1nuf_1_1client_1_1_my_request_factory.xhtml#a4828401da626ac8389a9417580304595" xlink:title="csc440.nuf.client.MyRequestFactory.helloWorldRequest">
<polygon fill="none" stroke="black" points="283.099,-40.9336 283.099,-63.0664 566.901,-63.0664 566.901,-40.9336 283.099,-40.9336"/>
<text text-anchor="middle" x="425" y="-49.0664" font-family="sans-serif" font-size="10.00">csc440.nuf.client.MyRequestFactory.helloWorldRequest</text>
</a>
</g>
<!-- Node1&#45;&gt;Node6 -->
<g id="edge10" class="edge"><title>Node1&#45;&gt;Node6</title>
<path fill="none" stroke="midnightblue" d="M141.852,-101.92C170.595,-92.6269 213.633,-79.6772 252,-72 266.131,-69.1724 281.001,-66.7025 295.837,-64.5554"/>
<polygon fill="midnightblue" stroke="midnightblue" points="296.676,-67.9723 306.094,-63.1201 295.706,-61.0398 296.676,-67.9723"/>
</g>
<!-- Node7 -->
<g id="node13" class="node"><title>Node7</title>
<a xlink:href="$interfacecsc440_1_1nuf_1_1client_1_1_my_request_factory_1_1_hello_world_request.xhtml#ad2a116ea152e1420554619fbe67a056c" xlink:title="csc440.nuf.client.MyRequestFactory.HelloWorldRequest.getMessage">
<polygon fill="none" stroke="black" points="252.317,0.0664062 252.317,-22.0664 597.683,-22.0664 597.683,0.0664062 252.317,0.0664062"/>
<text text-anchor="middle" x="425" y="-8.06641" font-family="sans-serif" font-size="10.00">csc440.nuf.client.MyRequestFactory.HelloWorldRequest.getMessage</text>
</a>
</g>
<!-- Node1&#45;&gt;Node7 -->
<g id="edge12" class="edge"><title>Node1&#45;&gt;Node7</title>
<path fill="none" stroke="midnightblue" d="M123.888,-101.695C148.862,-83.3948 201.442,-47.6538 252,-31 259.612,-28.4925 267.505,-26.2904 275.536,-24.3572"/>
<polygon fill="midnightblue" stroke="midnightblue" points="276.409,-27.7482 285.392,-22.1301 274.866,-20.9204 276.409,-27.7482"/>
</g>
</g>
</svg>
