<?xml version="1.0" encoding="UTF-8" standalone="no"?>
<!DOCTYPE svg PUBLIC "-//W3C//DTD SVG 1.1//EN"
 "http://www.w3.org/Graphics/SVG/1.1/DTD/svg11.dtd">
<!-- Generated by graphviz version 2.28.0 (20111028.1807)
 -->
<!-- Title: G Pages: 1 -->
<svg width="484pt" height="71pt"
 viewBox="0.00 0.00 484.00 71.00" xmlns="http://www.w3.org/2000/svg" xmlns:xlink="http://www.w3.org/1999/xlink">
<g id="graph1" class="graph" transform="scale(1 1) rotate(0) translate(4 67)">
<title>G</title>
<!-- Node1 -->
<g id="node1" class="node"><title>Node1</title>
<polygon fill="#bfbfbf" stroke="black" points="0.691406,-19.9336 0.691406,-42.0664 219.309,-42.0664 219.309,-19.9336 0.691406,-19.9336"/>
<text text-anchor="middle" x="110" y="-28.0664" font-family="sans-serif" font-size="10.00">csc440.nuf.ScrollItemManager.setListener</text>
</g>
<!-- Node2 -->
<g id="node3" class="node"><title>Node2</title>
<a xlink:href="$classcsc440_1_1nuf_1_1_s_m_i_l_activity.xhtml#a2940cb9bd30e02c726a99b9949f94472" xlink:title="csc440.nuf.SMILActivity.onResume">
<polygon fill="none" stroke="black" points="273.879,-40.9336 273.879,-63.0664 458.121,-63.0664 458.121,-40.9336 273.879,-40.9336"/>
<text text-anchor="middle" x="366" y="-49.0664" font-family="sans-serif" font-size="10.00">csc440.nuf.SMILActivity.onResume</text>
</a>
</g>
<!-- Node1&#45;&gt;Node2 -->
<g id="edge2" class="edge"><title>Node1&#45;&gt;Node2</title>
<path fill="none" stroke="midnightblue" d="M229.663,-40.8107C244.456,-42.0338 259.401,-43.2694 273.69,-44.4507"/>
<polygon fill="midnightblue" stroke="midnightblue" points="229.71,-37.3028 219.456,-39.9668 229.133,-44.279 229.71,-37.3028"/>
</g>
<!-- Node3 -->
<g id="node5" class="node"><title>Node3</title>
<a xlink:href="$classcsc440_1_1nuf_1_1_view_message_activity.xhtml#a067f20ee5e75405a29b71d914d62a2fc" xlink:title="csc440.nuf.ViewMessageActivity.onCreate">
<polygon fill="none" stroke="black" points="256.123,0.0664062 256.123,-22.0664 475.877,-22.0664 475.877,0.0664062 256.123,0.0664062"/>
<text text-anchor="middle" x="366" y="-8.06641" font-family="sans-serif" font-size="10.00">csc440.nuf.ViewMessageActivity.onCreate</text>
</a>
</g>
<!-- Node1&#45;&gt;Node3 -->
<g id="edge4" class="edge"><title>Node1&#45;&gt;Node3</title>
<path fill="none" stroke="midnightblue" d="M229.453,-21.673C238.337,-20.9735 247.277,-20.2695 256.098,-19.575"/>
<polygon fill="midnightblue" stroke="midnightblue" points="229.15,-18.1859 219.456,-22.4602 229.7,-25.1643 229.15,-18.1859"/>
</g>
</g>
</svg>
