<?xml version="1.0" encoding="UTF-8" standalone="no"?>
<!DOCTYPE svg PUBLIC "-//W3C//DTD SVG 1.1//EN"
 "http://www.w3.org/Graphics/SVG/1.1/DTD/svg11.dtd">
<!-- Generated by graphviz version 2.28.0 (20111028.1807)
 -->
<!-- Title: G Pages: 1 -->
<svg width="604pt" height="112pt"
 viewBox="0.00 0.00 604.00 112.00" xmlns="http://www.w3.org/2000/svg" xmlns:xlink="http://www.w3.org/1999/xlink">
<g id="graph1" class="graph" transform="scale(1 1) rotate(0) translate(4 108)">
<title>G</title>
<!-- Node1 -->
<g id="node1" class="node"><title>Node1</title>
<polygon fill="#bfbfbf" stroke="black" points="0.0947266,-40.9336 0.0947266,-63.0664 271.905,-63.0664 271.905,-40.9336 0.0947266,-40.9336"/>
<text text-anchor="middle" x="136" y="-49.0664" font-family="sans-serif" font-size="10.00">com.google.appengine.codelab.Util.getErrorMessage</text>
</g>
<!-- Node2 -->
<g id="node3" class="node"><title>Node2</title>
<a xlink:href="$classcom_1_1google_1_1appengine_1_1codelab_1_1_item_servlet.xhtml#a977e84d117d1e9c9faf1be8e71f0e69e" xlink:title="com.google.appengine.codelab.ItemServlet.doDelete">
<polygon fill="none" stroke="black" points="316.253,-81.9336 316.253,-104.066 587.747,-104.066 587.747,-81.9336 316.253,-81.9336"/>
<text text-anchor="middle" x="452" y="-90.0664" font-family="sans-serif" font-size="10.00">com.google.appengine.codelab.ItemServlet.doDelete</text>
</a>
</g>
<!-- Node1&#45;&gt;Node2 -->
<g id="edge2" class="edge"><title>Node1&#45;&gt;Node2</title>
<path fill="none" stroke="midnightblue" d="M232.098,-64.4173C274.815,-69.995 324.812,-76.5232 366.232,-81.9315"/>
<polygon fill="midnightblue" stroke="midnightblue" points="232.342,-60.9195 221.973,-63.0952 231.436,-67.8606 232.342,-60.9195"/>
</g>
<!-- Node3 -->
<g id="node5" class="node"><title>Node3</title>
<a xlink:href="$classcom_1_1google_1_1appengine_1_1codelab_1_1_product_servlet.xhtml#a3cbc6cfe522686a474dade9a58b3d1a3" xlink:title="com.google.appengine.codelab.ProductServlet.doPut">
<polygon fill="none" stroke="black" points="316.136,-40.9336 316.136,-63.0664 587.864,-63.0664 587.864,-40.9336 316.136,-40.9336"/>
<text text-anchor="middle" x="452" y="-49.0664" font-family="sans-serif" font-size="10.00">com.google.appengine.codelab.ProductServlet.doPut</text>
</a>
</g>
<!-- Node1&#45;&gt;Node3 -->
<g id="edge4" class="edge"><title>Node1&#45;&gt;Node3</title>
<path fill="none" stroke="midnightblue" d="M282.308,-52C293.578,-52 304.929,-52 316.127,-52"/>
<polygon fill="midnightblue" stroke="midnightblue" points="281.987,-48.5001 271.987,-52 281.987,-55.5001 281.987,-48.5001"/>
</g>
<!-- Node4 -->
<g id="node7" class="node"><title>Node4</title>
<a xlink:href="$classcom_1_1google_1_1appengine_1_1codelab_1_1_product_servlet.xhtml#a772fa15f8adf07619e0e71e58488f198" xlink:title="com.google.appengine.codelab.ProductServlet.doDelete">
<polygon fill="none" stroke="black" points="308.456,0.0664062 308.456,-22.0664 595.544,-22.0664 595.544,0.0664062 308.456,0.0664062"/>
<text text-anchor="middle" x="452" y="-8.06641" font-family="sans-serif" font-size="10.00">com.google.appengine.codelab.ProductServlet.doDelete</text>
</a>
</g>
<!-- Node1&#45;&gt;Node4 -->
<g id="edge6" class="edge"><title>Node1&#45;&gt;Node4</title>
<path fill="none" stroke="midnightblue" d="M232.098,-39.5827C274.815,-34.005 324.812,-27.4768 366.232,-22.0685"/>
<polygon fill="midnightblue" stroke="midnightblue" points="231.436,-36.1394 221.973,-40.9048 232.342,-43.0805 231.436,-36.1394"/>
</g>
</g>
</svg>
