<?xml version="1.0" encoding="UTF-8" standalone="no"?>
<!DOCTYPE svg PUBLIC "-//W3C//DTD SVG 1.1//EN"
 "http://www.w3.org/Graphics/SVG/1.1/DTD/svg11.dtd">
<!-- Generated by graphviz version 2.28.0 (20111028.1807)
 -->
<!-- Title: G Pages: 1 -->
<svg width="764pt" height="85pt"
 viewBox="0.00 0.00 764.00 85.23" xmlns="http://www.w3.org/2000/svg" xmlns:xlink="http://www.w3.org/1999/xlink">
<g id="graph1" class="graph" transform="scale(1 1) rotate(0) translate(4 81.2289)">
<title>G</title>
<!-- Node1 -->
<g id="node1" class="node"><title>Node1</title>
<polygon fill="#bfbfbf" stroke="black" points="0.18457,-40.9336 0.18457,-63.0664 237.815,-63.0664 237.815,-40.9336 0.18457,-40.9336"/>
<text text-anchor="middle" x="119" y="-49.0664" font-family="sans-serif" font-size="10.00">csc440.nuf.ViewMessageActivity.playMessage</text>
</g>
<!-- Node2 -->
<g id="node3" class="node"><title>Node2</title>
<a xlink:href="$classcsc440_1_1nuf_1_1_view_message_activity.xhtml#a067f20ee5e75405a29b71d914d62a2fc" xlink:title="csc440.nuf.ViewMessageActivity.onCreate">
<polygon fill="none" stroke="black" points="536.123,-39.9336 536.123,-62.0664 755.877,-62.0664 755.877,-39.9336 536.123,-39.9336"/>
<text text-anchor="middle" x="646" y="-48.0664" font-family="sans-serif" font-size="10.00">csc440.nuf.ViewMessageActivity.onCreate</text>
</a>
</g>
<!-- Node1&#45;&gt;Node2 -->
<g id="edge2" class="edge"><title>Node1&#45;&gt;Node2</title>
<path fill="none" stroke="midnightblue" d="M200.334,-64.4259C224.001,-67.5463 249.988,-70.4473 274,-72 374.235,-78.4816 399.815,-79.2171 500,-72 527.146,-70.0444 556.931,-66.0549 582.407,-62.0734"/>
<polygon fill="midnightblue" stroke="midnightblue" points="200.724,-60.9469 190.346,-63.0785 199.788,-67.8841 200.724,-60.9469"/>
</g>
<!-- Node3 -->
<g id="node5" class="node"><title>Node3</title>
<a xlink:href="$classcsc440_1_1nuf_1_1_view_message_activity.xhtml#ac15977b1ad20ed909ff3ce8ee4a85769" xlink:title="csc440.nuf.ViewMessageActivity.onResume">
<polygon fill="none" stroke="black" points="273.778,-40.9336 273.778,-63.0664 500.222,-63.0664 500.222,-40.9336 273.778,-40.9336"/>
<text text-anchor="middle" x="387" y="-49.0664" font-family="sans-serif" font-size="10.00">csc440.nuf.ViewMessageActivity.onResume</text>
</a>
</g>
<!-- Node1&#45;&gt;Node3 -->
<g id="edge4" class="edge"><title>Node1&#45;&gt;Node3</title>
<path fill="none" stroke="midnightblue" d="M248.108,-52C256.549,-52 265.017,-52 273.375,-52"/>
<polygon fill="midnightblue" stroke="midnightblue" points="247.833,-48.5001 237.833,-52 247.833,-55.5001 247.833,-48.5001"/>
</g>
<!-- Node4 -->
<g id="node7" class="node"><title>Node4</title>
<a xlink:href="$classcsc440_1_1nuf_1_1_view_message_activity.xhtml#a8b4905772a4092ef3bc0e21ed23d7ae1" xlink:title="csc440.nuf.ViewMessageActivity.onClick">
<polygon fill="none" stroke="black" points="280.997,0.0664062 280.997,-22.0664 493.003,-22.0664 493.003,0.0664062 280.997,0.0664062"/>
<text text-anchor="middle" x="387" y="-8.06641" font-family="sans-serif" font-size="10.00">csc440.nuf.ViewMessageActivity.onClick</text>
</a>
</g>
<!-- Node1&#45;&gt;Node4 -->
<g id="edge6" class="edge"><title>Node1&#45;&gt;Node4</title>
<path fill="none" stroke="midnightblue" d="M201.917,-39.3736C237.723,-33.8547 279.354,-27.4379 313.959,-22.1041"/>
<polygon fill="midnightblue" stroke="midnightblue" points="201.334,-35.9222 191.983,-40.9048 202.4,-42.8405 201.334,-35.9222"/>
</g>
<!-- Node4&#45;&gt;Node2 -->
<g id="edge8" class="edge"><title>Node4&#45;&gt;Node2</title>
<path fill="none" stroke="midnightblue" d="M469.457,-23.6782C502.905,-28.8841 541.287,-34.8579 573.614,-39.8893"/>
<polygon fill="midnightblue" stroke="midnightblue" points="469.667,-20.1687 459.248,-22.0891 468.59,-27.0855 469.667,-20.1687"/>
</g>
</g>
</svg>
