<?xml version="1.0" encoding="UTF-8" standalone="no"?>
<!DOCTYPE svg PUBLIC "-//W3C//DTD SVG 1.1//EN"
 "http://www.w3.org/Graphics/SVG/1.1/DTD/svg11.dtd">
<!-- Generated by graphviz version 2.28.0 (20111028.1807)
 -->
<!-- Title: G Pages: 1 -->
<svg width="980pt" height="153pt"
 viewBox="0.00 0.00 980.00 153.00" xmlns="http://www.w3.org/2000/svg" xmlns:xlink="http://www.w3.org/1999/xlink">
<g id="graph1" class="graph" transform="scale(1 1) rotate(0) translate(4 149)">
<title>G</title>
<!-- Node1 -->
<g id="node1" class="node"><title>Node1</title>
<polygon fill="#bfbfbf" stroke="black" points="0.319824,-59.9336 0.319824,-82.0664 165.68,-82.0664 165.68,-59.9336 0.319824,-59.9336"/>
<text text-anchor="middle" x="83" y="-68.0664" font-family="sans-serif" font-size="10.00">csc440.nuf.complay.Q.isEmpty</text>
</g>
<!-- Node2 -->
<g id="node3" class="node"><title>Node2</title>
<a xlink:href="$classcsc440_1_1nuf_1_1complay_1_1_player_activity.xhtml#a592b9fe89b9076e65456181c0e389e3c" xlink:title="csc440.nuf.complay.PlayerActivity.onCreate">
<polygon fill="none" stroke="black" points="713.067,-122.934 713.067,-145.066 940.933,-145.066 940.933,-122.934 713.067,-122.934"/>
<text text-anchor="middle" x="827" y="-131.066" font-family="sans-serif" font-size="10.00">csc440.nuf.complay.PlayerActivity.onCreate</text>
</a>
</g>
<!-- Node1&#45;&gt;Node2 -->
<g id="edge2" class="edge"><title>Node1&#45;&gt;Node2</title>
<path fill="none" stroke="midnightblue" d="M154.344,-83.7947C169.999,-86.3986 186.538,-88.9612 202,-91 379.636,-114.423 587.511,-125.516 712.851,-130.442"/>
<polygon fill="midnightblue" stroke="midnightblue" points="154.647,-80.2964 144.204,-82.0826 153.481,-87.1987 154.647,-80.2964"/>
</g>
<!-- Node3 -->
<g id="node5" class="node"><title>Node3</title>
<a xlink:href="$classcsc440_1_1nuf_1_1complay_1_1_player_canvas.xhtml#aa0797d703af20d0ada15e590da003617" xlink:title="csc440.nuf.complay.PlayerCanvas.run">
<polygon fill="none" stroke="black" points="727.318,0.0664062 727.318,-22.0664 926.682,-22.0664 926.682,0.0664062 727.318,0.0664062"/>
<text text-anchor="middle" x="827" y="-8.06641" font-family="sans-serif" font-size="10.00">csc440.nuf.complay.PlayerCanvas.run</text>
</a>
</g>
<!-- Node1&#45;&gt;Node3 -->
<g id="edge4" class="edge"><title>Node1&#45;&gt;Node3</title>
<path fill="none" stroke="midnightblue" d="M150.776,-58.0815C167.461,-55.1391 185.348,-52.2277 202,-50 386.511,-25.3172 603.854,-16.2025 727.232,-12.8746"/>
<polygon fill="midnightblue" stroke="midnightblue" points="149.789,-54.7024 140.564,-59.9116 151.024,-61.5926 149.789,-54.7024"/>
</g>
<!-- Node4 -->
<g id="node7" class="node"><title>Node4</title>
<a xlink:href="$classcsc440_1_1nuf_1_1complay_1_1_timer.xhtml#aebbe2beb25856951b72d866d783ce897" xlink:title="csc440.nuf.complay.Timer.setTime">
<polygon fill="none" stroke="black" points="201.834,-59.9336 201.834,-82.0664 388.166,-82.0664 388.166,-59.9336 201.834,-59.9336"/>
<text text-anchor="middle" x="295" y="-68.0664" font-family="sans-serif" font-size="10.00">csc440.nuf.complay.Timer.setTime</text>
</a>
</g>
<!-- Node1&#45;&gt;Node4 -->
<g id="edge6" class="edge"><title>Node1&#45;&gt;Node4</title>
<path fill="none" stroke="midnightblue" d="M176.067,-71C184.548,-71 193.144,-71 201.628,-71"/>
<polygon fill="midnightblue" stroke="midnightblue" points="175.793,-67.5001 165.793,-71 175.793,-74.5001 175.793,-67.5001"/>
</g>
<!-- Node5 -->
<g id="node9" class="node"><title>Node5</title>
<a xlink:href="$classcsc440_1_1nuf_1_1complay_1_1_player_canvas.xhtml#a64eae2e9ed26456ab5b104436c97d78f" xlink:title="csc440.nuf.complay.PlayerCanvas.setTime">
<polygon fill="none" stroke="black" points="424.305,-80.9336 424.305,-103.066 645.695,-103.066 645.695,-80.9336 424.305,-80.9336"/>
<text text-anchor="middle" x="535" y="-89.0664" font-family="sans-serif" font-size="10.00">csc440.nuf.complay.PlayerCanvas.setTime</text>
</a>
</g>
<!-- Node4&#45;&gt;Node5 -->
<g id="edge8" class="edge"><title>Node4&#45;&gt;Node5</title>
<path fill="none" stroke="midnightblue" d="M398.356,-80.0314C406.928,-80.7878 415.618,-81.5545 424.243,-82.3155"/>
<polygon fill="midnightblue" stroke="midnightblue" points="398.627,-76.5418 388.358,-79.1492 398.011,-83.5147 398.627,-76.5418"/>
</g>
<!-- Node8 -->
<g id="node16" class="node"><title>Node8</title>
<a xlink:href="$classcsc440_1_1nuf_1_1complay_1_1_timer.xhtml#aff1846d75c64aee648b2321f9ea62314" xlink:title="csc440.nuf.complay.Timer.timePlusPlus">
<polygon fill="none" stroke="black" points="430.608,-39.9336 430.608,-62.0664 639.392,-62.0664 639.392,-39.9336 430.608,-39.9336"/>
<text text-anchor="middle" x="535" y="-48.0664" font-family="sans-serif" font-size="10.00">csc440.nuf.complay.Timer.timePlusPlus</text>
</a>
</g>
<!-- Node4&#45;&gt;Node8 -->
<g id="edge16" class="edge"><title>Node4&#45;&gt;Node8</title>
<path fill="none" stroke="midnightblue" d="M398.402,-62.3948C408.948,-61.5086 419.67,-60.6076 430.23,-59.7202"/>
<polygon fill="midnightblue" stroke="midnightblue" points="398.029,-58.9137 388.358,-63.2389 398.616,-65.8891 398.029,-58.9137"/>
</g>
<!-- Node5&#45;&gt;Node2 -->
<g id="edge10" class="edge"><title>Node5&#45;&gt;Node2</title>
<path fill="none" stroke="midnightblue" d="M622.66,-104.551C662.982,-110.39 710.527,-117.276 749.501,-122.921"/>
<polygon fill="midnightblue" stroke="midnightblue" points="622.972,-101.059 612.573,-103.09 621.968,-107.987 622.972,-101.059"/>
</g>
<!-- Node6 -->
<g id="node12" class="node"><title>Node6</title>
<a xlink:href="$classcsc440_1_1nuf_1_1complay_1_1_player_activity.xhtml#a042e95babe17fab59ba7d71a6dfc9dbb" xlink:title="csc440.nuf.complay.PlayerActivity.onStopTrackingTouch">
<polygon fill="none" stroke="black" points="681.876,-81.9336 681.876,-104.066 972.124,-104.066 972.124,-81.9336 681.876,-81.9336"/>
<text text-anchor="middle" x="827" y="-90.0664" font-family="sans-serif" font-size="10.00">csc440.nuf.complay.PlayerActivity.onStopTrackingTouch</text>
</a>
</g>
<!-- Node5&#45;&gt;Node6 -->
<g id="edge12" class="edge"><title>Node5&#45;&gt;Node6</title>
<path fill="none" stroke="midnightblue" d="M656.266,-92.4147C664.695,-92.4438 673.239,-92.4732 681.779,-92.5027"/>
<polygon fill="midnightblue" stroke="midnightblue" points="656.062,-88.9141 646.05,-92.3795 656.038,-95.914 656.062,-88.9141"/>
</g>
<!-- Node7 -->
<g id="node14" class="node"><title>Node7</title>
<a xlink:href="$classcsc440_1_1nuf_1_1complay_1_1_player_activity.xhtml#a7f5eb45ffac9b23a602a8ba76dbb6d47" xlink:title="csc440.nuf.complay.PlayerActivity.playPause">
<polygon fill="none" stroke="black" points="711.021,-40.9336 711.021,-63.0664 942.979,-63.0664 942.979,-40.9336 711.021,-40.9336"/>
<text text-anchor="middle" x="827" y="-49.0664" font-family="sans-serif" font-size="10.00">csc440.nuf.complay.PlayerActivity.playPause</text>
</a>
</g>
<!-- Node5&#45;&gt;Node7 -->
<g id="edge14" class="edge"><title>Node5&#45;&gt;Node7</title>
<path fill="none" stroke="midnightblue" d="M626.477,-79.5204C664.641,-74.2564 708.704,-68.1787 745.699,-63.076"/>
<polygon fill="midnightblue" stroke="midnightblue" points="625.824,-76.0773 616.396,-80.9109 626.781,-83.0116 625.824,-76.0773"/>
</g>
<!-- Node8&#45;&gt;Node3 -->
<g id="edge18" class="edge"><title>Node8&#45;&gt;Node3</title>
<path fill="none" stroke="midnightblue" d="M626.477,-38.5204C664.641,-33.2564 708.704,-27.1787 745.699,-22.076"/>
<polygon fill="midnightblue" stroke="midnightblue" points="625.824,-35.0773 616.396,-39.9109 626.781,-42.0116 625.824,-35.0773"/>
</g>
</g>
</svg>
