<?xml version="1.0" encoding="UTF-8" standalone="no"?>
<!DOCTYPE svg PUBLIC "-//W3C//DTD SVG 1.1//EN"
 "http://www.w3.org/Graphics/SVG/1.1/DTD/svg11.dtd">
<!-- Generated by graphviz version 2.28.0 (20111028.1807)
 -->
<!-- Title: G Pages: 1 -->
<svg width="634pt" height="71pt"
 viewBox="0.00 0.00 634.00 71.00" xmlns="http://www.w3.org/2000/svg" xmlns:xlink="http://www.w3.org/1999/xlink">
<g id="graph1" class="graph" transform="scale(1 1) rotate(0) translate(4 67)">
<title>G</title>
<!-- Node1 -->
<g id="node1" class="node"><title>Node1</title>
<polygon fill="#bfbfbf" stroke="black" points="0.389648,-19.9336 0.389648,-42.0664 307.61,-42.0664 307.61,-19.9336 0.389648,-19.9336"/>
<text text-anchor="middle" x="154" y="-28.0664" font-family="sans-serif" font-size="10.00">csc440.nuf.complay.PlayerActivity.formatSecondsToMinutes</text>
</g>
<!-- Node2 -->
<g id="node3" class="node"><title>Node2</title>
<a xlink:href="$classcsc440_1_1nuf_1_1complay_1_1_player_activity.xhtml#a592b9fe89b9076e65456181c0e389e3c" xlink:title="csc440.nuf.complay.PlayerActivity.onCreate">
<polygon fill="none" stroke="black" points="371.067,-40.9336 371.067,-63.0664 598.933,-63.0664 598.933,-40.9336 371.067,-40.9336"/>
<text text-anchor="middle" x="485" y="-49.0664" font-family="sans-serif" font-size="10.00">csc440.nuf.complay.PlayerActivity.onCreate</text>
</a>
</g>
<!-- Node1&#45;&gt;Node2 -->
<g id="edge2" class="edge"><title>Node1&#45;&gt;Node2</title>
<path fill="none" stroke="midnightblue" d="M318.363,-41.4274C336.076,-42.5581 353.807,-43.6898 370.734,-44.7702"/>
<polygon fill="midnightblue" stroke="midnightblue" points="318.145,-37.9065 307.942,-40.7623 317.699,-44.8922 318.145,-37.9065"/>
</g>
<!-- Node3 -->
<g id="node5" class="node"><title>Node3</title>
<a xlink:href="$classcsc440_1_1nuf_1_1complay_1_1_player_activity.xhtml#a0bf16e9f9a7c640c685def8eb7d38205" xlink:title="csc440.nuf.complay.PlayerActivity.onProgressChanged">
<polygon fill="none" stroke="black" points="344.371,0.0664062 344.371,-22.0664 625.629,-22.0664 625.629,0.0664062 344.371,0.0664062"/>
<text text-anchor="middle" x="485" y="-8.06641" font-family="sans-serif" font-size="10.00">csc440.nuf.complay.PlayerActivity.onProgressChanged</text>
</a>
</g>
<!-- Node1&#45;&gt;Node3 -->
<g id="edge4" class="edge"><title>Node1&#45;&gt;Node3</title>
<path fill="none" stroke="midnightblue" d="M318.15,-21.0821C326.853,-20.553 335.561,-20.0237 344.176,-19.4999"/>
<polygon fill="midnightblue" stroke="midnightblue" points="317.711,-17.6022 307.942,-21.7026 318.136,-24.5893 317.711,-17.6022"/>
</g>
</g>
</svg>
