<?xml version="1.0" encoding="UTF-8" standalone="no"?>
<!DOCTYPE svg PUBLIC "-//W3C//DTD SVG 1.1//EN"
 "http://www.w3.org/Graphics/SVG/1.1/DTD/svg11.dtd">
<!-- Generated by graphviz version 2.28.0 (20111028.1807)
 -->
<!-- Title: G Pages: 1 -->
<svg width="516pt" height="112pt"
 viewBox="0.00 0.00 516.00 112.00" xmlns="http://www.w3.org/2000/svg" xmlns:xlink="http://www.w3.org/1999/xlink">
<g id="graph1" class="graph" transform="scale(1 1) rotate(0) translate(4 108)">
<title>G</title>
<!-- Node1 -->
<g id="node1" class="node"><title>Node1</title>
<polygon fill="#bfbfbf" stroke="black" points="0.573242,-40.9336 0.573242,-63.0664 251.427,-63.0664 251.427,-40.9336 0.573242,-40.9336"/>
<text text-anchor="middle" x="126" y="-49.0664" font-family="sans-serif" font-size="10.00">csc440.nuf.DeviceRegistrar.registerOrUnregister</text>
</g>
<!-- Node2 -->
<g id="node3" class="node"><title>Node2</title>
<a xlink:href="$classcsc440_1_1nuf_1_1_accounts_activity.xhtml#a172796bda215011c1ef3b983e9555cfb" xlink:title="csc440.nuf.AccountsActivity.onResume">
<polygon fill="none" stroke="black" points="294.717,-81.9336 294.717,-104.066 501.283,-104.066 501.283,-81.9336 294.717,-81.9336"/>
<text text-anchor="middle" x="398" y="-90.0664" font-family="sans-serif" font-size="10.00">csc440.nuf.AccountsActivity.onResume</text>
</a>
</g>
<!-- Node1&#45;&gt;Node2 -->
<g id="edge2" class="edge"><title>Node1&#45;&gt;Node2</title>
<path fill="none" stroke="midnightblue" d="M210.149,-64.6264C246.494,-70.1453 288.75,-76.5621 323.876,-81.8959"/>
<polygon fill="midnightblue" stroke="midnightblue" points="210.478,-61.1362 200.066,-63.0952 209.427,-68.0569 210.478,-61.1362"/>
</g>
<!-- Node3 -->
<g id="node5" class="node"><title>Node3</title>
<a xlink:href="$classcsc440_1_1nuf_1_1_c2_d_m_receiver.xhtml#a55ec75d92b2ea18fc3bfb7354fc63571" xlink:title="csc440.nuf.C2DMReceiver.onRegistered">
<polygon fill="none" stroke="black" points="293.354,-40.9336 293.354,-63.0664 502.646,-63.0664 502.646,-40.9336 293.354,-40.9336"/>
<text text-anchor="middle" x="398" y="-49.0664" font-family="sans-serif" font-size="10.00">csc440.nuf.C2DMReceiver.onRegistered</text>
</a>
</g>
<!-- Node1&#45;&gt;Node3 -->
<g id="edge4" class="edge"><title>Node1&#45;&gt;Node3</title>
<path fill="none" stroke="midnightblue" d="M261.782,-52C272.28,-52 282.78,-52 293.027,-52"/>
<polygon fill="midnightblue" stroke="midnightblue" points="261.726,-48.5001 251.726,-52 261.726,-55.5001 261.726,-48.5001"/>
</g>
<!-- Node4 -->
<g id="node7" class="node"><title>Node4</title>
<a xlink:href="$classcsc440_1_1nuf_1_1_c2_d_m_receiver.xhtml#a5703ea903b3efa7a0fc8b0dd94c93939" xlink:title="csc440.nuf.C2DMReceiver.onUnregistered">
<polygon fill="none" stroke="black" points="287.903,0.0664062 287.903,-22.0664 508.097,-22.0664 508.097,0.0664062 287.903,0.0664062"/>
<text text-anchor="middle" x="398" y="-8.06641" font-family="sans-serif" font-size="10.00">csc440.nuf.C2DMReceiver.onUnregistered</text>
</a>
</g>
<!-- Node1&#45;&gt;Node4 -->
<g id="edge6" class="edge"><title>Node1&#45;&gt;Node4</title>
<path fill="none" stroke="midnightblue" d="M210.149,-39.3736C246.494,-33.8547 288.75,-27.4379 323.876,-22.1041"/>
<polygon fill="midnightblue" stroke="midnightblue" points="209.427,-35.9431 200.066,-40.9048 210.478,-42.8638 209.427,-35.9431"/>
</g>
</g>
</svg>
