<?xml version="1.0" encoding="UTF-8" standalone="no"?>
<!DOCTYPE svg PUBLIC "-//W3C//DTD SVG 1.1//EN"
 "http://www.w3.org/Graphics/SVG/1.1/DTD/svg11.dtd">
<!-- Generated by graphviz version 2.28.0 (20111028.1807)
 -->
<!-- Title: G Pages: 1 -->
<svg width="556pt" height="112pt"
 viewBox="0.00 0.00 556.00 112.00" xmlns="http://www.w3.org/2000/svg" xmlns:xlink="http://www.w3.org/1999/xlink">
<g id="graph1" class="graph" transform="scale(1 1) rotate(0) translate(4 108)">
<title>G</title>
<!-- Node1 -->
<g id="node1" class="node"><title>Node1</title>
<polygon fill="#bfbfbf" stroke="black" points="0.304688,-40.9336 0.304688,-63.0664 221.695,-63.0664 221.695,-40.9336 0.304688,-40.9336"/>
<text text-anchor="middle" x="111" y="-49.0664" font-family="sans-serif" font-size="10.00">csc440.nuf.complay.PlayerCanvas.setTime</text>
</g>
<!-- Node2 -->
<g id="node3" class="node"><title>Node2</title>
<a xlink:href="$classcsc440_1_1nuf_1_1complay_1_1_player_activity.xhtml#a592b9fe89b9076e65456181c0e389e3c" xlink:title="csc440.nuf.complay.PlayerActivity.onCreate">
<polygon fill="none" stroke="black" points="289.067,-81.9336 289.067,-104.066 516.933,-104.066 516.933,-81.9336 289.067,-81.9336"/>
<text text-anchor="middle" x="403" y="-90.0664" font-family="sans-serif" font-size="10.00">csc440.nuf.complay.PlayerActivity.onCreate</text>
</a>
</g>
<!-- Node1&#45;&gt;Node2 -->
<g id="edge2" class="edge"><title>Node1&#45;&gt;Node2</title>
<path fill="none" stroke="midnightblue" d="M200.579,-64.5233C239.866,-70.0776 285.699,-76.5574 323.711,-81.9315"/>
<polygon fill="midnightblue" stroke="midnightblue" points="200.87,-61.0296 190.478,-63.0952 199.89,-67.9607 200.87,-61.0296"/>
</g>
<!-- Node3 -->
<g id="node5" class="node"><title>Node3</title>
<a xlink:href="$classcsc440_1_1nuf_1_1complay_1_1_player_activity.xhtml#a042e95babe17fab59ba7d71a6dfc9dbb" xlink:title="csc440.nuf.complay.PlayerActivity.onStopTrackingTouch">
<polygon fill="none" stroke="black" points="257.876,-40.9336 257.876,-63.0664 548.124,-63.0664 548.124,-40.9336 257.876,-40.9336"/>
<text text-anchor="middle" x="403" y="-49.0664" font-family="sans-serif" font-size="10.00">csc440.nuf.complay.PlayerActivity.onStopTrackingTouch</text>
</a>
</g>
<!-- Node1&#45;&gt;Node3 -->
<g id="edge4" class="edge"><title>Node1&#45;&gt;Node3</title>
<path fill="none" stroke="midnightblue" d="M232.266,-52C240.695,-52 249.239,-52 257.779,-52"/>
<polygon fill="midnightblue" stroke="midnightblue" points="232.05,-48.5001 222.05,-52 232.05,-55.5001 232.05,-48.5001"/>
</g>
<!-- Node4 -->
<g id="node7" class="node"><title>Node4</title>
<a xlink:href="$classcsc440_1_1nuf_1_1complay_1_1_player_activity.xhtml#a7f5eb45ffac9b23a602a8ba76dbb6d47" xlink:title="csc440.nuf.complay.PlayerActivity.playPause">
<polygon fill="none" stroke="black" points="287.021,0.0664062 287.021,-22.0664 518.979,-22.0664 518.979,0.0664062 287.021,0.0664062"/>
<text text-anchor="middle" x="403" y="-8.06641" font-family="sans-serif" font-size="10.00">csc440.nuf.complay.PlayerActivity.playPause</text>
</a>
</g>
<!-- Node1&#45;&gt;Node4 -->
<g id="edge6" class="edge"><title>Node1&#45;&gt;Node4</title>
<path fill="none" stroke="midnightblue" d="M198.619,-39.4704C218.148,-36.6652 238.783,-33.7166 258,-31 278.618,-28.0854 300.902,-24.9723 321.637,-22.0912"/>
<polygon fill="midnightblue" stroke="midnightblue" points="197.921,-36.0347 188.521,-40.9223 198.917,-42.9635 197.921,-36.0347"/>
</g>
</g>
</svg>
