<?xml version="1.0" encoding="UTF-8" standalone="no"?>
<!DOCTYPE svg PUBLIC "-//W3C//DTD SVG 1.1//EN"
 "http://www.w3.org/Graphics/SVG/1.1/DTD/svg11.dtd">
<!-- Generated by graphviz version 2.28.0 (20111028.1807)
 -->
<!-- Title: G Pages: 1 -->
<svg width="576pt" height="71pt"
 viewBox="0.00 0.00 576.00 71.00" xmlns="http://www.w3.org/2000/svg" xmlns:xlink="http://www.w3.org/1999/xlink">
<g id="graph1" class="graph" transform="scale(1 1) rotate(0) translate(4 67)">
<title>G</title>
<!-- Node1 -->
<g id="node1" class="node"><title>Node1</title>
<polygon fill="#bfbfbf" stroke="black" points="0.194336,-19.9336 0.194336,-42.0664 257.806,-42.0664 257.806,-19.9336 0.194336,-19.9336"/>
<text text-anchor="middle" x="129" y="-28.0664" font-family="sans-serif" font-size="10.00">com.google.appengine.codelab.BaseServlet.doGet</text>
</g>
<!-- Node2 -->
<g id="node3" class="node"><title>Node2</title>
<a xlink:href="$classcom_1_1google_1_1appengine_1_1codelab_1_1_item_servlet.xhtml#ac3bcf595bb8d62c1ef0a44d24ce129c8" xlink:title="com.google.appengine.codelab.ItemServlet.doGet">
<polygon fill="none" stroke="black" points="302.402,-40.9336 302.402,-63.0664 559.598,-63.0664 559.598,-40.9336 302.402,-40.9336"/>
<text text-anchor="middle" x="431" y="-49.0664" font-family="sans-serif" font-size="10.00">com.google.appengine.codelab.ItemServlet.doGet</text>
</a>
</g>
<!-- Node1&#45;&gt;Node2 -->
<g id="edge2" class="edge"><title>Node1&#45;&gt;Node2</title>
<path fill="none" stroke="midnightblue" d="M268.093,-40.6665C279.502,-41.4651 291.003,-42.2702 302.331,-43.0632"/>
<polygon fill="midnightblue" stroke="midnightblue" points="268.317,-37.1737 258.097,-39.9668 267.828,-44.1566 268.317,-37.1737"/>
</g>
<!-- Node3 -->
<g id="node5" class="node"><title>Node3</title>
<a xlink:href="$classcom_1_1google_1_1appengine_1_1codelab_1_1_product_servlet.xhtml#a7c57929d447f8ee5c296d57be19d1727" xlink:title="com.google.appengine.codelab.ProductServlet.doGet">
<polygon fill="none" stroke="black" points="294.604,0.0664062 294.604,-22.0664 567.396,-22.0664 567.396,0.0664062 294.604,0.0664062"/>
<text text-anchor="middle" x="431" y="-8.06641" font-family="sans-serif" font-size="10.00">com.google.appengine.codelab.ProductServlet.doGet</text>
</a>
</g>
<!-- Node1&#45;&gt;Node3 -->
<g id="edge4" class="edge"><title>Node1&#45;&gt;Node3</title>
<path fill="none" stroke="midnightblue" d="M268.213,-21.7858C276.857,-21.2095 285.553,-20.6298 294.186,-20.0543"/>
<polygon fill="midnightblue" stroke="midnightblue" points="267.842,-18.3027 258.097,-22.4602 268.308,-25.2872 267.842,-18.3027"/>
</g>
</g>
</svg>
