<?xml version="1.0" encoding="UTF-8" standalone="no"?>
<!DOCTYPE svg PUBLIC "-//W3C//DTD SVG 1.1//EN"
 "http://www.w3.org/Graphics/SVG/1.1/DTD/svg11.dtd">
<!-- Generated by graphviz version 2.28.0 (20111028.1807)
 -->
<!-- Title: G Pages: 1 -->
<svg width="876pt" height="30pt"
 viewBox="0.00 0.00 876.00 30.00" xmlns="http://www.w3.org/2000/svg" xmlns:xlink="http://www.w3.org/1999/xlink">
<g id="graph1" class="graph" transform="scale(1 1) rotate(0) translate(4 26)">
<title>G</title>
<!-- Node1 -->
<g id="node1" class="node"><title>Node1</title>
<polygon fill="#bfbfbf" stroke="black" points="-0.202637,0.0664062 -0.202637,-22.0664 246.203,-22.0664 246.203,0.0664062 -0.202637,0.0664062"/>
<text text-anchor="middle" x="123" y="-8.06641" font-family="sans-serif" font-size="10.00">com.google.appengine.codelab.Util.listChildren</text>
</g>
<!-- Node2 -->
<g id="node3" class="node"><title>Node2</title>
<a xlink:href="$classcom_1_1google_1_1appengine_1_1codelab_1_1_item.xhtml#a1c221deafdbd13c4133edf24cb6dcdb8" xlink:title="com.google.appengine.codelab.Item.getItemsForProduct">
<polygon fill="none" stroke="black" points="282.656,0.0664062 282.656,-22.0664 573.344,-22.0664 573.344,0.0664062 282.656,0.0664062"/>
<text text-anchor="middle" x="428" y="-8.06641" font-family="sans-serif" font-size="10.00">com.google.appengine.codelab.Item.getItemsForProduct</text>
</a>
</g>
<!-- Node1&#45;&gt;Node2 -->
<g id="edge2" class="edge"><title>Node1&#45;&gt;Node2</title>
<path fill="none" stroke="midnightblue" d="M256.468,-11C265.11,-11 273.836,-11 282.531,-11"/>
<polygon fill="midnightblue" stroke="midnightblue" points="256.368,-7.5001 246.368,-11 256.368,-14.5001 256.368,-7.5001"/>
</g>
<!-- Node3 -->
<g id="node5" class="node"><title>Node3</title>
<a xlink:href="$classcom_1_1google_1_1appengine_1_1codelab_1_1_item_servlet.xhtml#ac3bcf595bb8d62c1ef0a44d24ce129c8" xlink:title="com.google.appengine.codelab.ItemServlet.doGet">
<polygon fill="none" stroke="black" points="610.402,0.0664062 610.402,-22.0664 867.598,-22.0664 867.598,0.0664062 610.402,0.0664062"/>
<text text-anchor="middle" x="739" y="-8.06641" font-family="sans-serif" font-size="10.00">com.google.appengine.codelab.ItemServlet.doGet</text>
</a>
</g>
<!-- Node2&#45;&gt;Node3 -->
<g id="edge4" class="edge"><title>Node2&#45;&gt;Node3</title>
<path fill="none" stroke="midnightblue" d="M583.611,-11C592.529,-11 601.446,-11 610.244,-11"/>
<polygon fill="midnightblue" stroke="midnightblue" points="583.548,-7.5001 573.548,-11 583.548,-14.5001 583.548,-7.5001"/>
</g>
</g>
</svg>
