<?xml version="1.0" encoding="UTF-8" standalone="no"?>
<!DOCTYPE svg PUBLIC "-//W3C//DTD SVG 1.1//EN"
 "http://www.w3.org/Graphics/SVG/1.1/DTD/svg11.dtd">
<!-- Generated by graphviz version 2.28.0 (20111028.1807)
 -->
<!-- Title: G Pages: 1 -->
<svg width="762pt" height="71pt"
 viewBox="0.00 0.00 762.00 71.00" xmlns="http://www.w3.org/2000/svg" xmlns:xlink="http://www.w3.org/1999/xlink">
<g id="graph1" class="graph" transform="scale(1 1) rotate(0) translate(4 67)">
<title>G</title>
<!-- Node1 -->
<g id="node1" class="node"><title>Node1</title>
<polygon fill="#bfbfbf" stroke="black" points="-0.0805664,-19.9336 -0.0805664,-42.0664 196.081,-42.0664 196.081,-19.9336 -0.0805664,-19.9336"/>
<text text-anchor="middle" x="98" y="-28.0664" font-family="sans-serif" font-size="10.00">csc440.nuf.server.SMILMessage.setId</text>
</g>
<!-- Node2 -->
<g id="node3" class="node"><title>Node2</title>
<a xlink:href="$classcsc440_1_1nuf_1_1server_1_1_data_store.xhtml#ab66ed1adeb1a5ee0ce37bf5404909e11" xlink:title="csc440.nuf.server.DataStore.update">
<polygon fill="none" stroke="black" points="232.254,-19.9336 232.254,-42.0664 421.746,-42.0664 421.746,-19.9336 232.254,-19.9336"/>
<text text-anchor="middle" x="327" y="-28.0664" font-family="sans-serif" font-size="10.00">csc440.nuf.server.DataStore.update</text>
</a>
</g>
<!-- Node1&#45;&gt;Node2 -->
<g id="edge2" class="edge"><title>Node1&#45;&gt;Node2</title>
<path fill="none" stroke="midnightblue" d="M206.354,-31C214.984,-31 223.662,-31 232.188,-31"/>
<polygon fill="midnightblue" stroke="midnightblue" points="206.256,-27.5001 196.256,-31 206.256,-34.5001 206.256,-27.5001"/>
</g>
<!-- Node3 -->
<g id="node5" class="node"><title>Node3</title>
<a xlink:href="$classcsc440_1_1nuf_1_1server_1_1_s_m_i_l_engine_service.xhtml#a3b83cad8892f2616c9107132e9335272" xlink:title="csc440.nuf.server.SMILEngineService.createSMILMessage">
<polygon fill="none" stroke="black" points="460.627,-40.9336 460.627,-63.0664 751.373,-63.0664 751.373,-40.9336 460.627,-40.9336"/>
<text text-anchor="middle" x="606" y="-49.0664" font-family="sans-serif" font-size="10.00">csc440.nuf.server.SMILEngineService.createSMILMessage</text>
</a>
</g>
<!-- Node2&#45;&gt;Node3 -->
<g id="edge4" class="edge"><title>Node2&#45;&gt;Node3</title>
<path fill="none" stroke="midnightblue" d="M431.893,-38.8763C441.303,-39.5898 450.941,-40.3205 460.618,-41.0541"/>
<polygon fill="midnightblue" stroke="midnightblue" points="432.016,-35.3757 421.78,-38.1096 431.486,-42.3557 432.016,-35.3757"/>
</g>
<!-- Node4 -->
<g id="node7" class="node"><title>Node4</title>
<a xlink:href="$classcsc440_1_1nuf_1_1server_1_1_s_m_i_l_engine_service.xhtml#a2c28cf08855cb6e77d5b774321f245d0" xlink:title="csc440.nuf.server.SMILEngineService.updateSMILMessage">
<polygon fill="none" stroke="black" points="458.623,0.0664062 458.623,-22.0664 753.377,-22.0664 753.377,0.0664062 458.623,0.0664062"/>
<text text-anchor="middle" x="606" y="-8.06641" font-family="sans-serif" font-size="10.00">csc440.nuf.server.SMILEngineService.updateSMILMessage</text>
</a>
</g>
<!-- Node2&#45;&gt;Node4 -->
<g id="edge6" class="edge"><title>Node2&#45;&gt;Node4</title>
<path fill="none" stroke="midnightblue" d="M431.818,-23.5041C440.451,-22.8808 449.277,-22.2436 458.148,-21.603"/>
<polygon fill="midnightblue" stroke="midnightblue" points="431.502,-20.0178 421.78,-24.2289 432.006,-26.9996 431.502,-20.0178"/>
</g>
</g>
</svg>
