<?xml version="1.0" encoding="UTF-8" standalone="no"?>
<!DOCTYPE svg PUBLIC "-//W3C//DTD SVG 1.1//EN"
 "http://www.w3.org/Graphics/SVG/1.1/DTD/svg11.dtd">
<!-- Generated by graphviz version 2.28.0 (20111028.1807)
 -->
<!-- Title: G Pages: 1 -->
<svg width="660pt" height="153pt"
 viewBox="0.00 0.00 660.00 153.00" xmlns="http://www.w3.org/2000/svg" xmlns:xlink="http://www.w3.org/1999/xlink">
<g id="graph1" class="graph" transform="scale(1 1) rotate(0) translate(4 149)">
<title>G</title>
<!-- Node1 -->
<g id="node1" class="node"><title>Node1</title>
<polygon fill="#bfbfbf" stroke="black" points="-0.137695,-60.9336 -0.137695,-83.0664 288.138,-83.0664 288.138,-60.9336 -0.137695,-60.9336"/>
<text text-anchor="middle" x="144" y="-69.0664" font-family="sans-serif" font-size="10.00">csc440.nuf.components.AbstractSMILObject.getIntValue</text>
</g>
<!-- Node2 -->
<g id="node3" class="node"><title>Node2</title>
<a xlink:href="$classcsc440_1_1nuf_1_1components_1_1_abstract_s_m_i_l_object.xhtml#a30ec13c486b3b2ddd7c1911d69ebd8d3" xlink:title="csc440.nuf.components.AbstractSMILObject.AbstractSMILObject">
<polygon fill="none" stroke="black" points="324.285,-122.934 324.285,-145.066 651.715,-145.066 651.715,-122.934 324.285,-122.934"/>
<text text-anchor="middle" x="488" y="-131.066" font-family="sans-serif" font-size="10.00">csc440.nuf.components.AbstractSMILObject.AbstractSMILObject</text>
</a>
</g>
<!-- Node1&#45;&gt;Node2 -->
<g id="edge2" class="edge"><title>Node1&#45;&gt;Node2</title>
<path fill="none" stroke="midnightblue" d="M198.287,-85.6326C233.738,-94.3486 281.438,-105.402 324,-113 344.926,-116.735 367.477,-120.075 388.935,-122.933"/>
<polygon fill="midnightblue" stroke="midnightblue" points="198.712,-82.1321 188.164,-83.1254 197.029,-88.9268 198.712,-82.1321"/>
</g>
<!-- Node3 -->
<g id="node5" class="node"><title>Node3</title>
<a xlink:href="$classcsc440_1_1nuf_1_1components_1_1_s_m_i_l_image.xhtml#a30d35f0657c429743a53c840f6911000" xlink:title="csc440.nuf.components.SMILImage.SMILImage">
<polygon fill="none" stroke="black" points="366.785,-81.9336 366.785,-104.066 609.215,-104.066 609.215,-81.9336 366.785,-81.9336"/>
<text text-anchor="middle" x="488" y="-90.0664" font-family="sans-serif" font-size="10.00">csc440.nuf.components.SMILImage.SMILImage</text>
</a>
</g>
<!-- Node1&#45;&gt;Node3 -->
<g id="edge4" class="edge"><title>Node1&#45;&gt;Node3</title>
<path fill="none" stroke="midnightblue" d="M298.628,-81.4333C321.398,-82.8315 344.583,-84.2551 366.546,-85.6037"/>
<polygon fill="midnightblue" stroke="midnightblue" points="298.748,-77.9342 288.552,-80.8146 298.319,-84.921 298.748,-77.9342"/>
</g>
<!-- Node4 -->
<g id="node7" class="node"><title>Node4</title>
<a xlink:href="$classcsc440_1_1nuf_1_1components_1_1_s_m_i_l_text.xhtml#aedc70b1dd23a53237160fede4b0e4c2d" xlink:title="csc440.nuf.components.SMILText.SMILText">
<polygon fill="none" stroke="black" points="374.563,-40.9336 374.563,-63.0664 601.437,-63.0664 601.437,-40.9336 374.563,-40.9336"/>
<text text-anchor="middle" x="488" y="-49.0664" font-family="sans-serif" font-size="10.00">csc440.nuf.components.SMILText.SMILText</text>
</a>
</g>
<!-- Node1&#45;&gt;Node4 -->
<g id="edge6" class="edge"><title>Node1&#45;&gt;Node4</title>
<path fill="none" stroke="midnightblue" d="M298.68,-63.0129C324.195,-61.5208 350.229,-59.9983 374.479,-58.5802"/>
<polygon fill="midnightblue" stroke="midnightblue" points="298.331,-59.5272 288.552,-63.6051 298.74,-66.5153 298.331,-59.5272"/>
</g>
<!-- Node5 -->
<g id="node9" class="node"><title>Node5</title>
<a xlink:href="$classcsc440_1_1nuf_1_1components_1_1_s_m_i_l_video.xhtml#ae035b34027fa1b5fbe193edda3a97099" xlink:title="csc440.nuf.components.SMILVideo.SMILVideo">
<polygon fill="none" stroke="black" points="368.894,0.0664062 368.894,-22.0664 607.106,-22.0664 607.106,0.0664062 368.894,0.0664062"/>
<text text-anchor="middle" x="488" y="-8.06641" font-family="sans-serif" font-size="10.00">csc440.nuf.components.SMILVideo.SMILVideo</text>
</a>
</g>
<!-- Node1&#45;&gt;Node5 -->
<g id="edge8" class="edge"><title>Node1&#45;&gt;Node5</title>
<path fill="none" stroke="midnightblue" d="M197.916,-58.3701C233.396,-49.6047 281.272,-38.4942 324,-31 343.096,-27.6507 363.548,-24.6696 383.288,-22.0974"/>
<polygon fill="midnightblue" stroke="midnightblue" points="196.646,-55.0793 187.788,-60.8916 198.337,-61.872 196.646,-55.0793"/>
</g>
</g>
</svg>
