<?xml version="1.0" encoding="UTF-8" standalone="no"?>
<!DOCTYPE svg PUBLIC "-//W3C//DTD SVG 1.1//EN"
 "http://www.w3.org/Graphics/SVG/1.1/DTD/svg11.dtd">
<!-- Generated by graphviz version 2.28.0 (20111028.1807)
 -->
<!-- Title: G Pages: 1 -->
<svg width="966pt" height="112pt"
 viewBox="0.00 0.00 966.00 112.00" xmlns="http://www.w3.org/2000/svg" xmlns:xlink="http://www.w3.org/1999/xlink">
<g id="graph1" class="graph" transform="scale(1 1) rotate(0) translate(4 108)">
<title>G</title>
<!-- Node1 -->
<g id="node1" class="node"><title>Node1</title>
<polygon fill="#bfbfbf" stroke="black" points="0.42334,-40.9336 0.42334,-63.0664 293.577,-63.0664 293.577,-40.9336 0.42334,-40.9336"/>
<text text-anchor="middle" x="147" y="-49.0664" font-family="sans-serif" font-size="10.00">com.google.appengine.codelab.Item.createOrUpdateItem</text>
</g>
<!-- Node2 -->
<g id="node3" class="node"><title>Node2</title>
<a xlink:href="$classcom_1_1google_1_1appengine_1_1codelab_1_1_product.xhtml#a8281f8c29702347f39fcb651db5e073f" xlink:title="com.google.appengine.codelab.Product.getProduct">
<polygon fill="none" stroke="black" points="329.969,-81.9336 329.969,-104.066 594.031,-104.066 594.031,-81.9336 329.969,-81.9336"/>
<text text-anchor="middle" x="462" y="-90.0664" font-family="sans-serif" font-size="10.00">com.google.appengine.codelab.Product.getProduct</text>
</a>
</g>
<!-- Node1&#45;&gt;Node2 -->
<g id="edge2" class="edge"><title>Node1&#45;&gt;Node2</title>
<path fill="none" stroke="midnightblue" d="M232.702,-63.0952C274.018,-68.5072 323.858,-75.0357 366.415,-80.6102"/>
<polygon fill="midnightblue" stroke="midnightblue" points="366.132,-84.103 376.502,-81.9315 367.041,-77.1623 366.132,-84.103"/>
</g>
<!-- Node4 -->
<g id="node7" class="node"><title>Node4</title>
<a xlink:href="$classcom_1_1google_1_1appengine_1_1codelab_1_1_item.xhtml#addfefc24274a9ae1e62dc123e4bc2a68" xlink:title="com.google.appengine.codelab.Item.getSingleItem">
<polygon fill="none" stroke="black" points="330.975,-40.9336 330.975,-63.0664 593.025,-63.0664 593.025,-40.9336 330.975,-40.9336"/>
<text text-anchor="middle" x="462" y="-49.0664" font-family="sans-serif" font-size="10.00">com.google.appengine.codelab.Item.getSingleItem</text>
</a>
</g>
<!-- Node1&#45;&gt;Node4 -->
<g id="edge6" class="edge"><title>Node1&#45;&gt;Node4</title>
<path fill="none" stroke="midnightblue" d="M293.962,-52C302.878,-52 311.84,-52 320.732,-52"/>
<polygon fill="midnightblue" stroke="midnightblue" points="320.734,-55.5001 330.734,-52 320.734,-48.5001 320.734,-55.5001"/>
</g>
<!-- Node6 -->
<g id="node11" class="node"><title>Node6</title>
<a xlink:href="$classcom_1_1google_1_1appengine_1_1codelab_1_1_util.xhtml#a95f645b216766041423363dd06815dc7" xlink:title="com.google.appengine.codelab.Util.persistEntity">
<polygon fill="none" stroke="black" points="336.639,0.0664062 336.639,-22.0664 587.361,-22.0664 587.361,0.0664062 336.639,0.0664062"/>
<text text-anchor="middle" x="462" y="-8.06641" font-family="sans-serif" font-size="10.00">com.google.appengine.codelab.Util.persistEntity</text>
</a>
</g>
<!-- Node1&#45;&gt;Node6 -->
<g id="edge10" class="edge"><title>Node1&#45;&gt;Node6</title>
<path fill="none" stroke="midnightblue" d="M232.702,-40.9048C274.018,-35.4928 323.858,-28.9643 366.415,-23.3898"/>
<polygon fill="midnightblue" stroke="midnightblue" points="367.041,-26.8377 376.502,-22.0685 366.132,-19.897 367.041,-26.8377"/>
</g>
<!-- Node3 -->
<g id="node5" class="node"><title>Node3</title>
<a xlink:href="$classcom_1_1google_1_1appengine_1_1codelab_1_1_util.xhtml#a14548b6d0d079225ae5f6596542a1c0f" xlink:title="com.google.appengine.codelab.Util.findEntity">
<polygon fill="none" stroke="black" points="675.558,-81.9336 675.558,-104.066 912.442,-104.066 912.442,-81.9336 675.558,-81.9336"/>
<text text-anchor="middle" x="794" y="-90.0664" font-family="sans-serif" font-size="10.00">com.google.appengine.codelab.Util.findEntity</text>
</a>
</g>
<!-- Node2&#45;&gt;Node3 -->
<g id="edge4" class="edge"><title>Node2&#45;&gt;Node3</title>
<path fill="none" stroke="midnightblue" d="M594.373,-93C617.702,-93 641.967,-93 665.195,-93"/>
<polygon fill="midnightblue" stroke="midnightblue" points="665.433,-96.5001 675.433,-93 665.433,-89.5001 665.433,-96.5001"/>
</g>
<!-- Node5 -->
<g id="node9" class="node"><title>Node5</title>
<a xlink:href="$classcom_1_1google_1_1appengine_1_1codelab_1_1_util.xhtml#a097d93268afc438617bd7e13f0f0f5e7" xlink:title="com.google.appengine.codelab.Util.getDatastoreServiceInstance">
<polygon fill="none" stroke="black" points="630.331,-40.9336 630.331,-63.0664 957.669,-63.0664 957.669,-40.9336 630.331,-40.9336"/>
<text text-anchor="middle" x="794" y="-49.0664" font-family="sans-serif" font-size="10.00">com.google.appengine.codelab.Util.getDatastoreServiceInstance</text>
</a>
</g>
<!-- Node4&#45;&gt;Node5 -->
<g id="edge8" class="edge"><title>Node4&#45;&gt;Node5</title>
<path fill="none" stroke="midnightblue" d="M593.425,-52C602.195,-52 611.101,-52 620.039,-52"/>
<polygon fill="midnightblue" stroke="midnightblue" points="620.138,-55.5001 630.137,-52 620.137,-48.5001 620.138,-55.5001"/>
</g>
</g>
</svg>
