<?xml version="1.0" encoding="UTF-8" standalone="no"?>
<!DOCTYPE svg PUBLIC "-//W3C//DTD SVG 1.1//EN"
 "http://www.w3.org/Graphics/SVG/1.1/DTD/svg11.dtd">
<!-- Generated by graphviz version 2.28.0 (20111028.1807)
 -->
<!-- Title: G Pages: 1 -->
<svg width="160pt" height="194pt"
 viewBox="0.00 0.00 160.00 194.00" xmlns="http://www.w3.org/2000/svg" xmlns:xlink="http://www.w3.org/1999/xlink">
<g id="graph1" class="graph" transform="scale(1 1) rotate(0) translate(4 190)">
<title>G</title>
<!-- Node1 -->
<g id="node1" class="node"><title>Node1</title>
<polygon fill="#bfbfbf" stroke="black" points="-0.474121,-0.734375 -0.474121,-81.2656 152.474,-81.2656 152.474,-0.734375 -0.474121,-0.734375"/>
<text text-anchor="middle" x="76" y="-67.2656" font-family="sans-serif" font-size="10.00">csc440.nuf.AccountsActivity</text>
<polyline fill="none" stroke="black" points="-0.474121,-59.1328 152.474,-59.1328 "/>
<text text-anchor="middle" x="76" y="-45.1328" font-family="sans-serif" font-size="10.00"> </text>
<polyline fill="none" stroke="black" points="-0.474121,-37 152.474,-37 "/>
<text text-anchor="start" x="7.52588" y="-23" font-family="sans-serif" font-size="10.00">+ onCreate()</text>
<text text-anchor="start" x="7.52588" y="-8.86719" font-family="sans-serif" font-size="10.00"># onResume()</text>
</g>
<!-- Node2 -->
<g id="node2" class="node"><title>Node2</title>
<polygon fill="none" stroke="#bfbfbf" points="50.1582,-118.801 50.1582,-185.199 101.842,-185.199 101.842,-118.801 50.1582,-118.801"/>
<text text-anchor="middle" x="76" y="-171.199" font-family="sans-serif" font-size="10.00">Activity</text>
<polyline fill="none" stroke="#bfbfbf" points="50.1582,-163.066 101.842,-163.066 "/>
<text text-anchor="middle" x="76" y="-149.066" font-family="sans-serif" font-size="10.00"> </text>
<polyline fill="none" stroke="#bfbfbf" points="50.1582,-140.934 101.842,-140.934 "/>
<text text-anchor="middle" x="76" y="-126.934" font-family="sans-serif" font-size="10.00"> </text>
</g>
<!-- Node2&#45;&gt;Node1 -->
<g id="edge2" class="edge"><title>Node2&#45;&gt;Node1</title>
<path fill="none" stroke="midnightblue" d="M76,-108.417C76,-99.5248 76,-90.1871 76,-81.4153"/>
<polygon fill="none" stroke="midnightblue" points="72.5001,-108.591 76,-118.592 79.5001,-108.592 72.5001,-108.591"/>
</g>
</g>
</svg>
