<?xml version="1.0" encoding="UTF-8" standalone="no"?>
<!DOCTYPE svg PUBLIC "-//W3C//DTD SVG 1.1//EN"
 "http://www.w3.org/Graphics/SVG/1.1/DTD/svg11.dtd">
<!-- Generated by graphviz version 2.28.0 (20111028.1807)
 -->
<!-- Title: G Pages: 1 -->
<svg width="764pt" height="397pt"
 viewBox="0.00 0.00 764.00 397.00" xmlns="http://www.w3.org/2000/svg" xmlns:xlink="http://www.w3.org/1999/xlink">
<g id="graph1" class="graph" transform="scale(1 1) rotate(0) translate(4 393)">
<title>G</title>
<!-- Node1 -->
<g id="node1" class="node"><title>Node1</title>
<polygon fill="#bfbfbf" stroke="black" points="0.122559,-183.934 0.122559,-206.066 219.877,-206.066 219.877,-183.934 0.122559,-183.934"/>
<text text-anchor="middle" x="110" y="-192.066" font-family="sans-serif" font-size="10.00">csc440.nuf.ViewMessageActivity.onCreate</text>
</g>
<!-- Node2 -->
<g id="node3" class="node"><title>Node2</title>
<a xlink:href="$classcsc440_1_1nuf_1_1_view_message_activity.xhtml#a8b4905772a4092ef3bc0e21ed23d7ae1" xlink:title="csc440.nuf.ViewMessageActivity.onClick">
<polygon fill="none" stroke="black" points="262.997,-366.934 262.997,-389.066 475.003,-389.066 475.003,-366.934 262.997,-366.934"/>
<text text-anchor="middle" x="369" y="-375.066" font-family="sans-serif" font-size="10.00">csc440.nuf.ViewMessageActivity.onClick</text>
</a>
</g>
<!-- Node1&#45;&gt;Node2 -->
<g id="edge2" class="edge"><title>Node1&#45;&gt;Node2</title>
<path fill="none" stroke="midnightblue" d="M117.871,-206.231C136.298,-235.333 189.923,-313.585 256,-352 264.197,-356.766 273.208,-360.658 282.449,-363.837"/>
<polygon fill="midnightblue" stroke="midnightblue" points="281.548,-367.222 292.138,-366.898 283.657,-360.548 281.548,-367.222"/>
</g>
<!-- Node3 -->
<g id="node5" class="node"><title>Node3</title>
<a xlink:href="$classcsc440_1_1nuf_1_1_view_message_activity.xhtml#af7da4ac74c5aeb46448c50fa8479e13a" xlink:title="csc440.nuf.ViewMessageActivity.playMessage">
<polygon fill="none" stroke="black" points="518.185,-346.934 518.185,-369.066 755.815,-369.066 755.815,-346.934 518.185,-346.934"/>
<text text-anchor="middle" x="637" y="-355.066" font-family="sans-serif" font-size="10.00">csc440.nuf.ViewMessageActivity.playMessage</text>
</a>
</g>
<!-- Node1&#45;&gt;Node3 -->
<g id="edge6" class="edge"><title>Node1&#45;&gt;Node3</title>
<path fill="none" stroke="midnightblue" d="M120.066,-206.355C140.942,-231.567 195.298,-292.036 256,-318 300.091,-336.859 415.585,-347.175 507.766,-352.582"/>
<polygon fill="midnightblue" stroke="midnightblue" points="507.846,-356.092 518.03,-353.169 508.246,-349.103 507.846,-356.092"/>
</g>
<!-- Node4 -->
<g id="node8" class="node"><title>Node4</title>
<a xlink:href="$classcsc440_1_1nuf_1_1_action_bar.xhtml#aa8aa6584906e2aa28298c720006060db" xlink:title="csc440.nuf.ActionBar.setTitle">
<polygon fill="none" stroke="black" points="289.958,-286.934 289.958,-309.066 448.042,-309.066 448.042,-286.934 289.958,-286.934"/>
<text text-anchor="middle" x="369" y="-295.066" font-family="sans-serif" font-size="10.00">csc440.nuf.ActionBar.setTitle</text>
</a>
</g>
<!-- Node1&#45;&gt;Node4 -->
<g id="edge8" class="edge"><title>Node1&#45;&gt;Node4</title>
<path fill="none" stroke="midnightblue" d="M126.676,-206.19C152.399,-224 205.742,-258.653 256,-277 263.814,-279.852 272.082,-282.334 280.445,-284.491"/>
<polygon fill="midnightblue" stroke="midnightblue" points="279.742,-287.921 290.285,-286.875 281.39,-281.118 279.742,-287.921"/>
</g>
<!-- Node5 -->
<g id="node10" class="node"><title>Node5</title>
<a xlink:href="$classcsc440_1_1nuf_1_1_action_bar.xhtml#a05076cbc2ed528aef5c06b37e8469b1d" xlink:title="csc440.nuf.ActionBar.setHomeListener">
<polygon fill="none" stroke="black" points="267.216,-245.934 267.216,-268.066 470.784,-268.066 470.784,-245.934 267.216,-245.934"/>
<text text-anchor="middle" x="369" y="-254.066" font-family="sans-serif" font-size="10.00">csc440.nuf.ActionBar.setHomeListener</text>
</a>
</g>
<!-- Node1&#45;&gt;Node5 -->
<g id="edge10" class="edge"><title>Node1&#45;&gt;Node5</title>
<path fill="none" stroke="midnightblue" d="M146.816,-206.102C176.02,-214.918 218.433,-227.186 256,-236 268.006,-238.817 280.806,-241.507 293.301,-243.965"/>
<polygon fill="midnightblue" stroke="midnightblue" points="292.753,-247.424 303.236,-245.885 294.081,-240.551 292.753,-247.424"/>
</g>
<!-- Node6 -->
<g id="node12" class="node"><title>Node6</title>
<a xlink:href="$classcsc440_1_1nuf_1_1_scroll_item_manager.xhtml#ab0e055a91a49439fa3a2ccca61a05657" xlink:title="csc440.nuf.ScrollItemManager.addItem">
<polygon fill="none" stroke="black" points="266.327,-204.934 266.327,-227.066 471.673,-227.066 471.673,-204.934 266.327,-204.934"/>
<text text-anchor="middle" x="369" y="-213.066" font-family="sans-serif" font-size="10.00">csc440.nuf.ScrollItemManager.addItem</text>
</a>
</g>
<!-- Node1&#45;&gt;Node6 -->
<g id="edge12" class="edge"><title>Node1&#45;&gt;Node6</title>
<path fill="none" stroke="midnightblue" d="M219.991,-203.906C231.962,-204.884 244.164,-205.881 256.168,-206.862"/>
<polygon fill="midnightblue" stroke="midnightblue" points="255.944,-210.355 266.196,-207.681 256.514,-203.379 255.944,-210.355"/>
</g>
<!-- Node7 -->
<g id="node14" class="node"><title>Node7</title>
<a xlink:href="$classcsc440_1_1nuf_1_1_scroll_item_manager.xhtml#a593cfa1b9eb3288297683b1a370015e1" xlink:title="csc440.nuf.ScrollItemManager.setTitle">
<polygon fill="none" stroke="black" points="268.234,-163.934 268.234,-186.066 469.766,-186.066 469.766,-163.934 268.234,-163.934"/>
<text text-anchor="middle" x="369" y="-172.066" font-family="sans-serif" font-size="10.00">csc440.nuf.ScrollItemManager.setTitle</text>
</a>
</g>
<!-- Node1&#45;&gt;Node7 -->
<g id="edge14" class="edge"><title>Node1&#45;&gt;Node7</title>
<path fill="none" stroke="midnightblue" d="M219.991,-186.518C232.621,-185.535 245.509,-184.532 258.15,-183.549"/>
<polygon fill="midnightblue" stroke="midnightblue" points="258.528,-187.03 268.226,-182.765 257.985,-180.051 258.528,-187.03"/>
</g>
<!-- Node8 -->
<g id="node16" class="node"><title>Node8</title>
<a xlink:href="$classcsc440_1_1nuf_1_1_scroll_item_manager.xhtml#a1561fbe2466c1f47c901f3760ccbfa07" xlink:title="csc440.nuf.ScrollItemManager.setIcon">
<polygon fill="none" stroke="black" points="268.766,-122.934 268.766,-145.066 469.234,-145.066 469.234,-122.934 268.766,-122.934"/>
<text text-anchor="middle" x="369" y="-131.066" font-family="sans-serif" font-size="10.00">csc440.nuf.ScrollItemManager.setIcon</text>
</a>
</g>
<!-- Node1&#45;&gt;Node8 -->
<g id="edge16" class="edge"><title>Node1&#45;&gt;Node8</title>
<path fill="none" stroke="midnightblue" d="M146.5,-183.901C175.701,-175.028 218.268,-162.681 256,-154 266.868,-151.5 278.39,-149.129 289.75,-146.953"/>
<polygon fill="midnightblue" stroke="midnightblue" points="290.486,-150.376 299.669,-145.093 289.195,-143.496 290.486,-150.376"/>
</g>
<!-- Node9 -->
<g id="node18" class="node"><title>Node9</title>
<a xlink:href="$classcsc440_1_1nuf_1_1_scroll_item_manager.xhtml#a29b56004e0c6b27c4cf37abbe702b0e2" xlink:title="csc440.nuf.ScrollItemManager.setListener">
<polygon fill="none" stroke="black" points="259.691,-81.9336 259.691,-104.066 478.309,-104.066 478.309,-81.9336 259.691,-81.9336"/>
<text text-anchor="middle" x="369" y="-90.0664" font-family="sans-serif" font-size="10.00">csc440.nuf.ScrollItemManager.setListener</text>
</a>
</g>
<!-- Node1&#45;&gt;Node9 -->
<g id="edge18" class="edge"><title>Node1&#45;&gt;Node9</title>
<path fill="none" stroke="midnightblue" d="M126.658,-183.76C152.355,-165.879 205.663,-131.129 256,-113 262.771,-110.561 269.884,-108.412 277.104,-106.518"/>
<polygon fill="midnightblue" stroke="midnightblue" points="278.116,-109.874 286.994,-104.092 276.448,-103.075 278.116,-109.874"/>
</g>
<!-- Node10 -->
<g id="node20" class="node"><title>Node10</title>
<a xlink:href="$classcsc440_1_1nuf_1_1_scroll_item_manager.xhtml#ab04c896f513d8e83a03d34f26e8ebd65" xlink:title="csc440.nuf.ScrollItemManager.addToLinear">
<polygon fill="none" stroke="black" points="256.051,-40.9336 256.051,-63.0664 481.949,-63.0664 481.949,-40.9336 256.051,-40.9336"/>
<text text-anchor="middle" x="369" y="-49.0664" font-family="sans-serif" font-size="10.00">csc440.nuf.ScrollItemManager.addToLinear</text>
</a>
</g>
<!-- Node1&#45;&gt;Node10 -->
<g id="edge20" class="edge"><title>Node1&#45;&gt;Node10</title>
<path fill="none" stroke="midnightblue" d="M120.525,-183.584C141.916,-158.787 196.568,-99.9866 256,-72 260.628,-69.8207 265.466,-67.8776 270.424,-66.1452"/>
<polygon fill="midnightblue" stroke="midnightblue" points="271.618,-69.4383 280.083,-63.067 269.492,-62.7688 271.618,-69.4383"/>
</g>
<!-- Node11 -->
<g id="node22" class="node"><title>Node11</title>
<a xlink:href="$classcsc440_1_1nuf_1_1_scroll_item_manager.xhtml#ad2ce97de474a3760d071b6dea3e2daf2" xlink:title="csc440.nuf.ScrollItemManager.addLine">
<polygon fill="none" stroke="black" points="267.091,0.0664062 267.091,-22.0664 470.909,-22.0664 470.909,0.0664062 267.091,0.0664062"/>
<text text-anchor="middle" x="369" y="-8.06641" font-family="sans-serif" font-size="10.00">csc440.nuf.ScrollItemManager.addLine</text>
</a>
</g>
<!-- Node1&#45;&gt;Node11 -->
<g id="edge22" class="edge"><title>Node1&#45;&gt;Node11</title>
<path fill="none" stroke="midnightblue" d="M117.364,-183.509C134.938,-152.975 187.409,-69.5258 256,-31 259.438,-29.0692 263.02,-27.3179 266.704,-25.7299"/>
<polygon fill="midnightblue" stroke="midnightblue" points="267.985,-28.9869 276.045,-22.1095 265.456,-22.46 267.985,-28.9869"/>
</g>
<!-- Node2&#45;&gt;Node3 -->
<g id="edge4" class="edge"><title>Node2&#45;&gt;Node3</title>
<path fill="none" stroke="midnightblue" d="M475.13,-370.095C485.915,-369.285 496.956,-368.454 507.951,-367.628"/>
<polygon fill="midnightblue" stroke="midnightblue" points="508.318,-371.11 518.028,-366.87 507.793,-364.13 508.318,-371.11"/>
</g>
</g>
</svg>
