<?xml version="1.0" encoding="UTF-8" standalone="no"?>
<!DOCTYPE svg PUBLIC "-//W3C//DTD SVG 1.1//EN"
 "http://www.w3.org/Graphics/SVG/1.1/DTD/svg11.dtd">
<!-- Generated by graphviz version 2.28.0 (20111028.1807)
 -->
<!-- Title: G Pages: 1 -->
<svg width="666pt" height="71pt"
 viewBox="0.00 0.00 666.00 71.00" xmlns="http://www.w3.org/2000/svg" xmlns:xlink="http://www.w3.org/1999/xlink">
<g id="graph1" class="graph" transform="scale(1 1) rotate(0) translate(4 67)">
<title>G</title>
<!-- Node1 -->
<g id="node1" class="node"><title>Node1</title>
<polygon fill="#bfbfbf" stroke="black" points="0.275879,-19.9336 0.275879,-42.0664 315.724,-42.0664 315.724,-19.9336 0.275879,-19.9336"/>
<text text-anchor="middle" x="158" y="-28.0664" font-family="sans-serif" font-size="10.00">com.thira.examples.actionbar.widget.ActionBar.setHomeLogo</text>
</g>
<!-- Node2 -->
<g id="node3" class="node"><title>Node2</title>
<a xlink:href="$classcom_1_1thira_1_1examples_1_1actionbar_1_1_custom_title_activity.xhtml#a0fc998991fdce16c2902a85b6f9d5bc2" xlink:title="com.thira.examples.actionbar.CustomTitleActivity.onCreate">
<polygon fill="none" stroke="black" points="352.437,-40.9336 352.437,-63.0664 657.563,-63.0664 657.563,-40.9336 352.437,-40.9336"/>
<text text-anchor="middle" x="505" y="-49.0664" font-family="sans-serif" font-size="10.00">com.thira.examples.actionbar.CustomTitleActivity.onCreate</text>
</a>
</g>
<!-- Node1&#45;&gt;Node2 -->
<g id="edge2" class="edge"><title>Node1&#45;&gt;Node2</title>
<path fill="none" stroke="midnightblue" d="M326.085,-41.1704C334.813,-41.7016 343.559,-42.234 352.235,-42.7621"/>
<polygon fill="midnightblue" stroke="midnightblue" points="326.047,-37.6617 315.853,-40.5476 325.621,-44.6487 326.047,-37.6617"/>
</g>
<!-- Node3 -->
<g id="node5" class="node"><title>Node3</title>
<a xlink:href="$classcom_1_1thira_1_1examples_1_1actionbar_1_1_main_activity.xhtml#ae12c4aa98ff986fa533899384b521987" xlink:title="com.thira.examples.actionbar.MainActivity.onCreate">
<polygon fill="none" stroke="black" points="370.25,0.0664062 370.25,-22.0664 639.75,-22.0664 639.75,0.0664062 370.25,0.0664062"/>
<text text-anchor="middle" x="505" y="-8.06641" font-family="sans-serif" font-size="10.00">com.thira.examples.actionbar.MainActivity.onCreate</text>
</a>
</g>
<!-- Node1&#45;&gt;Node3 -->
<g id="edge4" class="edge"><title>Node1&#45;&gt;Node3</title>
<path fill="none" stroke="midnightblue" d="M326.085,-21.3139C340.884,-20.456 355.737,-19.5949 370.207,-18.7561"/>
<polygon fill="midnightblue" stroke="midnightblue" points="325.633,-17.8341 315.853,-21.9071 326.038,-24.8224 325.633,-17.8341"/>
</g>
</g>
</svg>
