<?xml version="1.0" encoding="UTF-8" standalone="no"?>
<!DOCTYPE svg PUBLIC "-//W3C//DTD SVG 1.1//EN"
 "http://www.w3.org/Graphics/SVG/1.1/DTD/svg11.dtd">
<!-- Generated by graphviz version 2.28.0 (20111028.1807)
 -->
<!-- Title: G Pages: 1 -->
<svg width="171pt" height="406pt"
 viewBox="0.00 0.00 171.00 406.00" xmlns="http://www.w3.org/2000/svg" xmlns:xlink="http://www.w3.org/1999/xlink">
<g id="graph1" class="graph" transform="scale(1 1) rotate(0) translate(4 402)">
<title>G</title>
<!-- Node1 -->
<g id="node1" class="node"><title>Node1</title>
<polygon fill="#bfbfbf" stroke="black" points="8.7666,-0.871094 8.7666,-265.129 153.233,-265.129 153.233,-0.871094 8.7666,-0.871094"/>
<text text-anchor="middle" x="81" y="-251.129" font-family="sans-serif" font-size="10.00">com.DisplayExp.MyCanvas</text>
<polyline fill="none" stroke="black" points="8.7666,-242.996 153.233,-242.996 "/>
<text text-anchor="start" x="16.7666" y="-228.996" font-family="sans-serif" font-size="10.00">~ original</text>
<text text-anchor="start" x="16.7666" y="-214.863" font-family="sans-serif" font-size="10.00">~ myImg</text>
<text text-anchor="start" x="16.7666" y="-200.73" font-family="sans-serif" font-size="10.00">~ xCenter</text>
<text text-anchor="start" x="16.7666" y="-186.598" font-family="sans-serif" font-size="10.00">~ yCenter</text>
<text text-anchor="start" x="16.7666" y="-172.465" font-family="sans-serif" font-size="10.00">~ xLeft</text>
<text text-anchor="start" x="16.7666" y="-158.332" font-family="sans-serif" font-size="10.00">~ yTop</text>
<text text-anchor="start" x="16.7666" y="-144.199" font-family="sans-serif" font-size="10.00">~ xRight</text>
<text text-anchor="start" x="16.7666" y="-130.066" font-family="sans-serif" font-size="10.00">~ yBottom</text>
<text text-anchor="start" x="16.7666" y="-115.934" font-family="sans-serif" font-size="10.00">~ width</text>
<text text-anchor="start" x="16.7666" y="-101.801" font-family="sans-serif" font-size="10.00">~ height</text>
<text text-anchor="start" x="16.7666" y="-87.668" font-family="sans-serif" font-size="10.00">~ FATFINGER</text>
<polyline fill="none" stroke="black" points="8.7666,-79.5352 153.233,-79.5352 "/>
<text text-anchor="start" x="16.7666" y="-65.5352" font-family="sans-serif" font-size="10.00">+ MyCanvas()</text>
<text text-anchor="start" x="16.7666" y="-51.4023" font-family="sans-serif" font-size="10.00">+ onTouch()</text>
<text text-anchor="start" x="16.7666" y="-37.2695" font-family="sans-serif" font-size="10.00">~ setLoc()</text>
<text text-anchor="start" x="16.7666" y="-23.1367" font-family="sans-serif" font-size="10.00">~ newImage()</text>
<text text-anchor="start" x="16.7666" y="-9.00391" font-family="sans-serif" font-size="10.00"># onDraw()</text>
</g>
<!-- Node2 -->
<g id="node2" class="node"><title>Node2</title>
<polygon fill="none" stroke="#bfbfbf" points="-0.352539,-330.801 -0.352539,-397.199 38.3525,-397.199 38.3525,-330.801 -0.352539,-330.801"/>
<text text-anchor="middle" x="19" y="-383.199" font-family="sans-serif" font-size="10.00">View</text>
<polyline fill="none" stroke="#bfbfbf" points="-0.352539,-375.066 38.3525,-375.066 "/>
<text text-anchor="middle" x="19" y="-361.066" font-family="sans-serif" font-size="10.00"> </text>
<polyline fill="none" stroke="#bfbfbf" points="-0.352539,-352.934 38.3525,-352.934 "/>
<text text-anchor="middle" x="19" y="-338.934" font-family="sans-serif" font-size="10.00"> </text>
</g>
<!-- Node2&#45;&gt;Node1 -->
<g id="edge2" class="edge"><title>Node2&#45;&gt;Node1</title>
<path fill="none" stroke="midnightblue" d="M30.4816,-320.592C34.8367,-304.506 40.0582,-285.221 45.4678,-265.24"/>
<polygon fill="none" stroke="midnightblue" points="26.9866,-320.108 27.7516,-330.676 33.7434,-321.938 26.9866,-320.108"/>
</g>
<!-- Node3 -->
<g id="node4" class="node"><title>Node3</title>
<polygon fill="none" stroke="#bfbfbf" points="56.2324,-330.801 56.2324,-397.199 105.768,-397.199 105.768,-330.801 56.2324,-330.801"/>
<text text-anchor="middle" x="81" y="-383.199" font-family="sans-serif" font-size="10.00">Bitmap</text>
<polyline fill="none" stroke="#bfbfbf" points="56.2324,-375.066 105.768,-375.066 "/>
<text text-anchor="middle" x="81" y="-361.066" font-family="sans-serif" font-size="10.00"> </text>
<polyline fill="none" stroke="#bfbfbf" points="56.2324,-352.934 105.768,-352.934 "/>
<text text-anchor="middle" x="81" y="-338.934" font-family="sans-serif" font-size="10.00"> </text>
</g>
<!-- Node3&#45;&gt;Node1 -->
<g id="edge4" class="edge"><title>Node3&#45;&gt;Node1</title>
<path fill="none" stroke="#404040" d="M81,-330.676C81,-315.904 81,-297.276 81,-277.405"/>
<polygon fill="none" stroke="#404040" points="81.0001,-277.24 77,-271.24 81,-265.24 85,-271.24 81.0001,-277.24"/>
<text text-anchor="middle" x="99.4351" y="-302.133" font-family="sans-serif" font-size="10.00"> myImg</text>
<text text-anchor="middle" x="99.4351" y="-288" font-family="sans-serif" font-size="10.00">original</text>
</g>
<!-- Node4 -->
<g id="node6" class="node"><title>Node4</title>
<polygon fill="none" stroke="#bfbfbf" points="124.057,-330.801 124.057,-397.199 163.943,-397.199 163.943,-330.801 124.057,-330.801"/>
<text text-anchor="middle" x="144" y="-383.199" font-family="sans-serif" font-size="10.00">Paint</text>
<polyline fill="none" stroke="#bfbfbf" points="124.057,-375.066 163.943,-375.066 "/>
<text text-anchor="middle" x="144" y="-361.066" font-family="sans-serif" font-size="10.00"> </text>
<polyline fill="none" stroke="#bfbfbf" points="124.057,-352.934 163.943,-352.934 "/>
<text text-anchor="middle" x="144" y="-338.934" font-family="sans-serif" font-size="10.00"> </text>
</g>
<!-- Node4&#45;&gt;Node1 -->
<g id="edge6" class="edge"><title>Node4&#45;&gt;Node1</title>
<path fill="none" stroke="#404040" d="M135.107,-330.676C131.005,-315.765 125.822,-296.926 120.298,-276.845"/>
<polygon fill="none" stroke="#404040" points="120.288,-276.81 114.84,-272.086 117.105,-265.24 122.554,-269.964 120.288,-276.81"/>
<text text-anchor="middle" x="133.729" y="-295.066" font-family="sans-serif" font-size="10.00"> p</text>
</g>
</g>
</svg>
