<?xml version="1.0" encoding="UTF-8" standalone="no"?>
<!DOCTYPE svg PUBLIC "-//W3C//DTD SVG 1.1//EN"
 "http://www.w3.org/Graphics/SVG/1.1/DTD/svg11.dtd">
<!-- Generated by graphviz version 2.28.0 (20111028.1807)
 -->
<!-- Title: G Pages: 1 -->
<svg width="512pt" height="71pt"
 viewBox="0.00 0.00 512.00 71.00" xmlns="http://www.w3.org/2000/svg" xmlns:xlink="http://www.w3.org/1999/xlink">
<g id="graph1" class="graph" transform="scale(1 1) rotate(0) translate(4 67)">
<title>G</title>
<!-- Node1 -->
<g id="node1" class="node"><title>Node1</title>
<polygon fill="#bfbfbf" stroke="black" points="-0.249023,-19.9336 -0.249023,-42.0664 236.249,-42.0664 236.249,-19.9336 -0.249023,-19.9336"/>
<text text-anchor="middle" x="118" y="-28.0664" font-family="sans-serif" font-size="10.00">csc440.nuf.server.SMILMessage.SMILMessage</text>
</g>
<!-- Node2 -->
<g id="node3" class="node"><title>Node2</title>
<a xlink:href="$classcsc440_1_1nuf_1_1server_1_1_s_m_i_l_message.xhtml#a918480c6eea346cccc1b9ac3f2f46713" xlink:title="csc440.nuf.server.SMILMessage.setSender">
<polygon fill="none" stroke="black" points="277.947,-40.9336 277.947,-63.0664 498.053,-63.0664 498.053,-40.9336 277.947,-40.9336"/>
<text text-anchor="middle" x="388" y="-49.0664" font-family="sans-serif" font-size="10.00">csc440.nuf.server.SMILMessage.setSender</text>
</a>
</g>
<!-- Node1&#45;&gt;Node2 -->
<g id="edge2" class="edge"><title>Node1&#45;&gt;Node2</title>
<path fill="none" stroke="midnightblue" d="M236.549,-40.2109C246.78,-41.0126 257.142,-41.8246 267.39,-42.6276"/>
<polygon fill="midnightblue" stroke="midnightblue" points="267.348,-46.1349 277.591,-43.4269 267.895,-39.1563 267.348,-46.1349"/>
</g>
<!-- Node3 -->
<g id="node5" class="node"><title>Node3</title>
<a xlink:href="$classcsc440_1_1nuf_1_1server_1_1_s_m_i_l_message.xhtml#ab41e6a3de45845f04ec95588eefb6c23" xlink:title="csc440.nuf.server.SMILMessage.setRecipient">
<polygon fill="none" stroke="black" points="272.202,0.0664062 272.202,-22.0664 503.798,-22.0664 503.798,0.0664062 272.202,0.0664062"/>
<text text-anchor="middle" x="388" y="-8.06641" font-family="sans-serif" font-size="10.00">csc440.nuf.server.SMILMessage.setRecipient</text>
</a>
</g>
<!-- Node1&#45;&gt;Node3 -->
<g id="edge4" class="edge"><title>Node1&#45;&gt;Node3</title>
<path fill="none" stroke="midnightblue" d="M236.549,-22.2277C245.04,-21.594 253.621,-20.9537 262.152,-20.317"/>
<polygon fill="midnightblue" stroke="midnightblue" points="262.423,-23.8066 272.135,-19.572 261.902,-16.826 262.423,-23.8066"/>
</g>
</g>
</svg>
