<?xml version="1.0" encoding="UTF-8" standalone="no"?>
<!DOCTYPE svg PUBLIC "-//W3C//DTD SVG 1.1//EN"
 "http://www.w3.org/Graphics/SVG/1.1/DTD/svg11.dtd">
<!-- Generated by graphviz version 2.28.0 (20111028.1807)
 -->
<!-- Title: G Pages: 1 -->
<svg width="1214pt" height="91pt"
 viewBox="0.00 0.00 1214.00 91.00" xmlns="http://www.w3.org/2000/svg" xmlns:xlink="http://www.w3.org/1999/xlink">
<g id="graph1" class="graph" transform="scale(1 1) rotate(0) translate(4 87)">
<title>G</title>
<!-- Node1 -->
<g id="node1" class="node"><title>Node1</title>
<polygon fill="#bfbfbf" stroke="black" points="0.13623,-19.9336 0.13623,-42.0664 271.864,-42.0664 271.864,-19.9336 0.13623,-19.9336"/>
<text text-anchor="middle" x="136" y="-28.0664" font-family="sans-serif" font-size="10.00">com.google.appengine.codelab.ProductServlet.doPut</text>
</g>
<!-- Node2 -->
<g id="node3" class="node"><title>Node2</title>
<a xlink:href="$classcom_1_1google_1_1appengine_1_1codelab_1_1_product.xhtml#a0ad4aec15554c898684fcd6ea8d9ef10" xlink:title="com.google.appengine.codelab.Product.createOrUpdateProduct">
<polygon fill="none" stroke="black" points="307.828,-40.9336 307.828,-63.0664 632.172,-63.0664 632.172,-40.9336 307.828,-40.9336"/>
<text text-anchor="middle" x="470" y="-49.0664" font-family="sans-serif" font-size="10.00">com.google.appengine.codelab.Product.createOrUpdateProduct</text>
</a>
</g>
<!-- Node1&#45;&gt;Node2 -->
<g id="edge2" class="edge"><title>Node1&#45;&gt;Node2</title>
<path fill="none" stroke="midnightblue" d="M272.037,-39.5415C280.489,-40.0761 289.051,-40.6177 297.633,-41.1605"/>
<polygon fill="midnightblue" stroke="midnightblue" points="297.51,-44.6596 307.711,-41.798 297.952,-37.6736 297.51,-44.6596"/>
</g>
<!-- Node6 -->
<g id="node11" class="node"><title>Node6</title>
<a xlink:href="$classcom_1_1google_1_1appengine_1_1codelab_1_1_util.xhtml#a0d7e9492450f9aaaaf6b8b4e8a9d7890" xlink:title="com.google.appengine.codelab.Util.getErrorMessage">
<polygon fill="none" stroke="black" points="334.095,0.0664062 334.095,-22.0664 605.905,-22.0664 605.905,0.0664062 334.095,0.0664062"/>
<text text-anchor="middle" x="470" y="-8.06641" font-family="sans-serif" font-size="10.00">com.google.appengine.codelab.Util.getErrorMessage</text>
</a>
</g>
<!-- Node1&#45;&gt;Node6 -->
<g id="edge10" class="edge"><title>Node1&#45;&gt;Node6</title>
<path fill="none" stroke="midnightblue" d="M272.037,-22.8652C289.145,-21.8346 306.708,-20.7766 323.964,-19.7371"/>
<polygon fill="midnightblue" stroke="midnightblue" points="324.311,-23.2226 334.083,-19.1276 323.89,-16.2353 324.311,-23.2226"/>
</g>
<!-- Node3 -->
<g id="node5" class="node"><title>Node3</title>
<a xlink:href="$classcom_1_1google_1_1appengine_1_1codelab_1_1_product.xhtml#a8281f8c29702347f39fcb651db5e073f" xlink:title="com.google.appengine.codelab.Product.getProduct">
<polygon fill="none" stroke="black" points="667.969,-60.9336 667.969,-83.0664 932.031,-83.0664 932.031,-60.9336 667.969,-60.9336"/>
<text text-anchor="middle" x="800" y="-69.0664" font-family="sans-serif" font-size="10.00">com.google.appengine.codelab.Product.getProduct</text>
</a>
</g>
<!-- Node2&#45;&gt;Node3 -->
<g id="edge4" class="edge"><title>Node2&#45;&gt;Node3</title>
<path fill="none" stroke="midnightblue" d="M632.598,-61.8535C640.99,-62.3652 649.391,-62.8775 657.712,-63.3849"/>
<polygon fill="midnightblue" stroke="midnightblue" points="657.622,-66.8858 667.816,-64.001 658.048,-59.8988 657.622,-66.8858"/>
</g>
<!-- Node5 -->
<g id="node9" class="node"><title>Node5</title>
<a xlink:href="$classcom_1_1google_1_1appengine_1_1codelab_1_1_util.xhtml#a95f645b216766041423363dd06815dc7" xlink:title="com.google.appengine.codelab.Util.persistEntity">
<polygon fill="none" stroke="black" points="674.639,-19.9336 674.639,-42.0664 925.361,-42.0664 925.361,-19.9336 674.639,-19.9336"/>
<text text-anchor="middle" x="800" y="-28.0664" font-family="sans-serif" font-size="10.00">com.google.appengine.codelab.Util.persistEntity</text>
</a>
</g>
<!-- Node2&#45;&gt;Node5 -->
<g id="edge8" class="edge"><title>Node2&#45;&gt;Node5</title>
<path fill="none" stroke="midnightblue" d="M632.598,-41.6538C643.259,-40.9712 653.934,-40.2878 664.442,-39.615"/>
<polygon fill="midnightblue" stroke="midnightblue" points="664.703,-43.1055 674.459,-38.9736 664.256,-36.1198 664.703,-43.1055"/>
</g>
<!-- Node4 -->
<g id="node7" class="node"><title>Node4</title>
<a xlink:href="$classcom_1_1google_1_1appengine_1_1codelab_1_1_util.xhtml#a14548b6d0d079225ae5f6596542a1c0f" xlink:title="com.google.appengine.codelab.Util.findEntity">
<polygon fill="none" stroke="black" points="968.558,-60.9336 968.558,-83.0664 1205.44,-83.0664 1205.44,-60.9336 968.558,-60.9336"/>
<text text-anchor="middle" x="1087" y="-69.0664" font-family="sans-serif" font-size="10.00">com.google.appengine.codelab.Util.findEntity</text>
</a>
</g>
<!-- Node3&#45;&gt;Node4 -->
<g id="edge6" class="edge"><title>Node3&#45;&gt;Node4</title>
<path fill="none" stroke="midnightblue" d="M932.238,-72C940.849,-72 949.514,-72 958.108,-72"/>
<polygon fill="midnightblue" stroke="midnightblue" points="958.156,-75.5001 968.156,-72 958.156,-68.5001 958.156,-75.5001"/>
</g>
</g>
</svg>
