<?xml version="1.0" encoding="UTF-8" standalone="no"?>
<!DOCTYPE svg PUBLIC "-//W3C//DTD SVG 1.1//EN"
 "http://www.w3.org/Graphics/SVG/1.1/DTD/svg11.dtd">
<!-- Generated by graphviz version 2.28.0 (20111028.1807)
 -->
<!-- Title: G Pages: 1 -->
<svg width="634pt" height="71pt"
 viewBox="0.00 0.00 634.00 71.00" xmlns="http://www.w3.org/2000/svg" xmlns:xlink="http://www.w3.org/1999/xlink">
<g id="graph1" class="graph" transform="scale(1 1) rotate(0) translate(4 67)">
<title>G</title>
<!-- Node1 -->
<g id="node1" class="node"><title>Node1</title>
<polygon fill="#bfbfbf" stroke="black" points="0.370605,-19.9336 0.370605,-42.0664 281.629,-42.0664 281.629,-19.9336 0.370605,-19.9336"/>
<text text-anchor="middle" x="141" y="-28.0664" font-family="sans-serif" font-size="10.00">csc440.nuf.complay.PlayerActivity.onProgressChanged</text>
</g>
<!-- Node2 -->
<g id="node3" class="node"><title>Node2</title>
<a xlink:href="$classcsc440_1_1nuf_1_1complay_1_1_player_activity.xhtml#a2c26eb31e540ba1a1c22a029d1669741" xlink:title="csc440.nuf.complay.PlayerActivity.formatSecondsToMinutes">
<polygon fill="none" stroke="black" points="318.39,-40.9336 318.39,-63.0664 625.61,-63.0664 625.61,-40.9336 318.39,-40.9336"/>
<text text-anchor="middle" x="472" y="-49.0664" font-family="sans-serif" font-size="10.00">csc440.nuf.complay.PlayerActivity.formatSecondsToMinutes</text>
</a>
</g>
<!-- Node1&#45;&gt;Node2 -->
<g id="edge2" class="edge"><title>Node1&#45;&gt;Node2</title>
<path fill="none" stroke="midnightblue" d="M282.003,-39.9363C290.613,-40.486 299.316,-41.0414 308.013,-41.5965"/>
<polygon fill="midnightblue" stroke="midnightblue" points="308.011,-45.1035 318.213,-42.2477 308.457,-38.1177 308.011,-45.1035"/>
</g>
<!-- Node3 -->
<g id="node5" class="node"><title>Node3</title>
<a xlink:href="$classcsc440_1_1nuf_1_1complay_1_1_player_activity.xhtml#aa3331f58e6bf08d6ccd6f324607738d8" xlink:title="csc440.nuf.complay.PlayerActivity.playPause">
<polygon fill="none" stroke="black" points="356.021,0.0664062 356.021,-22.0664 587.979,-22.0664 587.979,0.0664062 356.021,0.0664062"/>
<text text-anchor="middle" x="472" y="-8.06641" font-family="sans-serif" font-size="10.00">csc440.nuf.complay.PlayerActivity.playPause</text>
</a>
</g>
<!-- Node1&#45;&gt;Node3 -->
<g id="edge4" class="edge"><title>Node1&#45;&gt;Node3</title>
<path fill="none" stroke="midnightblue" d="M282.003,-22.4892C303.195,-21.2009 324.942,-19.8789 345.794,-18.6113"/>
<polygon fill="midnightblue" stroke="midnightblue" points="346.183,-22.0942 355.953,-17.9938 345.759,-15.1071 346.183,-22.0942"/>
</g>
</g>
</svg>
