<?xml version="1.0" encoding="UTF-8" standalone="no"?>
<!DOCTYPE svg PUBLIC "-//W3C//DTD SVG 1.1//EN"
 "http://www.w3.org/Graphics/SVG/1.1/DTD/svg11.dtd">
<!-- Generated by graphviz version 2.28.0 (20111028.1807)
 -->
<!-- Title: G Pages: 1 -->
<svg width="570pt" height="71pt"
 viewBox="0.00 0.00 570.00 71.00" xmlns="http://www.w3.org/2000/svg" xmlns:xlink="http://www.w3.org/1999/xlink">
<g id="graph1" class="graph" transform="scale(1 1) rotate(0) translate(4 67)">
<title>G</title>
<!-- Node1 -->
<g id="node1" class="node"><title>Node1</title>
<polygon fill="#bfbfbf" stroke="black" points="0.347656,-19.9336 0.347656,-42.0664 223.652,-42.0664 223.652,-19.9336 0.347656,-19.9336"/>
<text text-anchor="middle" x="112" y="-28.0664" font-family="sans-serif" font-size="10.00">csc440.nuf.server.RegistrationInfo.register</text>
</g>
<!-- Node2 -->
<g id="node3" class="node"><title>Node2</title>
<a xlink:href="$classcsc440_1_1nuf_1_1server_1_1_registration_info.xhtml#a65ef34464fcc2a409fc958e08d8b065f" xlink:title="csc440.nuf.server.RegistrationInfo.getDeviceRegistrationId">
<polygon fill="none" stroke="black" points="260.495,-40.9336 260.495,-63.0664 561.505,-63.0664 561.505,-40.9336 260.495,-40.9336"/>
<text text-anchor="middle" x="411" y="-49.0664" font-family="sans-serif" font-size="10.00">csc440.nuf.server.RegistrationInfo.getDeviceRegistrationId</text>
</a>
</g>
<!-- Node1&#45;&gt;Node2 -->
<g id="edge2" class="edge"><title>Node1&#45;&gt;Node2</title>
<path fill="none" stroke="midnightblue" d="M224.014,-38.8495C232.633,-39.4589 241.433,-40.0811 250.286,-40.7071"/>
<polygon fill="midnightblue" stroke="midnightblue" points="250.075,-44.2008 260.297,-41.4149 250.569,-37.2182 250.075,-44.2008"/>
</g>
<!-- Node3 -->
<g id="node5" class="node"><title>Node3</title>
<a xlink:href="$classcsc440_1_1nuf_1_1server_1_1_registration_info.xhtml#a0a381bfcf246aecc8b7dbfe579f956ee" xlink:title="csc440.nuf.server.RegistrationInfo.getDeviceId">
<polygon fill="none" stroke="black" points="289.721,0.0664062 289.721,-22.0664 532.279,-22.0664 532.279,0.0664062 289.721,0.0664062"/>
<text text-anchor="middle" x="411" y="-8.06641" font-family="sans-serif" font-size="10.00">csc440.nuf.server.RegistrationInfo.getDeviceId</text>
</a>
</g>
<!-- Node1&#45;&gt;Node3 -->
<g id="edge4" class="edge"><title>Node1&#45;&gt;Node3</title>
<path fill="none" stroke="midnightblue" d="M224.014,-23.5243C242.087,-22.3073 260.952,-21.0369 279.44,-19.7919"/>
<polygon fill="midnightblue" stroke="midnightblue" points="279.923,-23.2674 289.665,-19.1033 279.453,-16.2832 279.923,-23.2674"/>
</g>
</g>
</svg>
