<?xml version="1.0" encoding="UTF-8" standalone="no"?>
<!DOCTYPE svg PUBLIC "-//W3C//DTD SVG 1.1//EN"
 "http://www.w3.org/Graphics/SVG/1.1/DTD/svg11.dtd">
<!-- Generated by graphviz version 2.28.0 (20111028.1807)
 -->
<!-- Title: G Pages: 1 -->
<svg width="424pt" height="71pt"
 viewBox="0.00 0.00 424.00 71.00" xmlns="http://www.w3.org/2000/svg" xmlns:xlink="http://www.w3.org/1999/xlink">
<g id="graph1" class="graph" transform="scale(1 1) rotate(0) translate(4 67)">
<title>G</title>
<!-- Node1 -->
<g id="node1" class="node"><title>Node1</title>
<polygon fill="#bfbfbf" stroke="black" points="0.0507812,-19.9336 0.0507812,-42.0664 181.949,-42.0664 181.949,-19.9336 0.0507812,-19.9336"/>
<text text-anchor="middle" x="91" y="-28.0664" font-family="sans-serif" font-size="10.00">csc440.nuf.Util.getRequestFactory</text>
</g>
<!-- Node2 -->
<g id="node3" class="node"><title>Node2</title>
<a xlink:href="$classcsc440_1_1nuf_1_1_util.xhtml#a048158fe7160473100aaae303ef393e4" xlink:title="csc440.nuf.Util.getSharedPreferences">
<polygon fill="none" stroke="black" points="218.47,-40.9336 218.47,-63.0664 415.53,-63.0664 415.53,-40.9336 218.47,-40.9336"/>
<text text-anchor="middle" x="317" y="-49.0664" font-family="sans-serif" font-size="10.00">csc440.nuf.Util.getSharedPreferences</text>
</a>
</g>
<!-- Node1&#45;&gt;Node2 -->
<g id="edge2" class="edge"><title>Node1&#45;&gt;Node2</title>
<path fill="none" stroke="midnightblue" d="M182.141,-39.4507C190.704,-40.2535 199.445,-41.0729 208.152,-41.8892"/>
<polygon fill="midnightblue" stroke="midnightblue" points="208.062,-45.396 218.345,-42.8448 208.715,-38.4266 208.062,-45.396"/>
</g>
<!-- Node3 -->
<g id="node5" class="node"><title>Node3</title>
<a xlink:href="$classcsc440_1_1nuf_1_1_util.xhtml#a6073587e3dc087b21d85869abe1e91e9" xlink:title="csc440.nuf.Util.getBaseUrl">
<polygon fill="none" stroke="black" points="245.128,0.0664062 245.128,-22.0664 388.872,-22.0664 388.872,0.0664062 245.128,0.0664062"/>
<text text-anchor="middle" x="317" y="-8.06641" font-family="sans-serif" font-size="10.00">csc440.nuf.Util.getBaseUrl</text>
</a>
</g>
<!-- Node1&#45;&gt;Node3 -->
<g id="edge4" class="edge"><title>Node1&#45;&gt;Node3</title>
<path fill="none" stroke="midnightblue" d="M182.141,-22.9517C199.621,-21.391 217.839,-19.7644 235.003,-18.2319"/>
<polygon fill="midnightblue" stroke="midnightblue" points="235.324,-21.7172 244.974,-17.3416 234.702,-14.7449 235.324,-21.7172"/>
</g>
</g>
</svg>
