<?xml version="1.0" encoding="UTF-8" standalone="no"?>
<!DOCTYPE svg PUBLIC "-//W3C//DTD SVG 1.1//EN"
 "http://www.w3.org/Graphics/SVG/1.1/DTD/svg11.dtd">
<!-- Generated by graphviz version 2.28.0 (20111028.1807)
 -->
<!-- Title: G Pages: 1 -->
<svg width="918pt" height="71pt"
 viewBox="0.00 0.00 918.00 71.00" xmlns="http://www.w3.org/2000/svg" xmlns:xlink="http://www.w3.org/1999/xlink">
<g id="graph1" class="graph" transform="scale(1 1) rotate(0) translate(4 67)">
<title>G</title>
<!-- Node1 -->
<g id="node1" class="node"><title>Node1</title>
<polygon fill="#bfbfbf" stroke="black" points="0.519043,-19.9336 0.519043,-42.0664 247.481,-42.0664 247.481,-19.9336 0.519043,-19.9336"/>
<text text-anchor="middle" x="124" y="-28.0664" font-family="sans-serif" font-size="10.00">com.google.appengine.codelab.Item.deleteItem</text>
</g>
<!-- Node2 -->
<g id="node3" class="node"><title>Node2</title>
<a xlink:href="$classcom_1_1google_1_1appengine_1_1codelab_1_1_item.xhtml#addfefc24274a9ae1e62dc123e4bc2a68" xlink:title="com.google.appengine.codelab.Item.getSingleItem">
<polygon fill="none" stroke="black" points="283.975,-40.9336 283.975,-63.0664 546.025,-63.0664 546.025,-40.9336 283.975,-40.9336"/>
<text text-anchor="middle" x="415" y="-49.0664" font-family="sans-serif" font-size="10.00">com.google.appengine.codelab.Item.getSingleItem</text>
</a>
</g>
<!-- Node1&#45;&gt;Node2 -->
<g id="edge2" class="edge"><title>Node1&#45;&gt;Node2</title>
<path fill="none" stroke="midnightblue" d="M247.562,-39.9059C256.187,-40.5326 264.918,-41.1671 273.63,-41.8001"/>
<polygon fill="midnightblue" stroke="midnightblue" points="273.612,-45.3079 283.839,-42.542 274.119,-38.3263 273.612,-45.3079"/>
</g>
<!-- Node4 -->
<g id="node7" class="node"><title>Node4</title>
<a xlink:href="$classcom_1_1google_1_1appengine_1_1codelab_1_1_util.xhtml#a04a02f078a3bd61f4bb36b48b4580c58" xlink:title="com.google.appengine.codelab.Util.deleteEntity">
<polygon fill="none" stroke="black" points="291.211,0.0664062 291.211,-22.0664 538.789,-22.0664 538.789,0.0664062 291.211,0.0664062"/>
<text text-anchor="middle" x="415" y="-8.06641" font-family="sans-serif" font-size="10.00">com.google.appengine.codelab.Util.deleteEntity</text>
</a>
</g>
<!-- Node1&#45;&gt;Node4 -->
<g id="edge6" class="edge"><title>Node1&#45;&gt;Node4</title>
<path fill="none" stroke="midnightblue" d="M247.562,-22.5182C258.516,-21.7601 269.642,-20.9902 280.681,-20.2262"/>
<polygon fill="midnightblue" stroke="midnightblue" points="281.052,-23.709 290.786,-19.5269 280.569,-16.7257 281.052,-23.709"/>
</g>
<!-- Node3 -->
<g id="node5" class="node"><title>Node3</title>
<a xlink:href="$classcom_1_1google_1_1appengine_1_1codelab_1_1_util.xhtml#a097d93268afc438617bd7e13f0f0f5e7" xlink:title="com.google.appengine.codelab.Util.getDatastoreServiceInstance">
<polygon fill="none" stroke="black" points="582.331,-40.9336 582.331,-63.0664 909.669,-63.0664 909.669,-40.9336 582.331,-40.9336"/>
<text text-anchor="middle" x="746" y="-49.0664" font-family="sans-serif" font-size="10.00">com.google.appengine.codelab.Util.getDatastoreServiceInstance</text>
</a>
</g>
<!-- Node2&#45;&gt;Node3 -->
<g id="edge4" class="edge"><title>Node2&#45;&gt;Node3</title>
<path fill="none" stroke="midnightblue" d="M546.03,-52C554.55,-52 563.199,-52 571.881,-52"/>
<polygon fill="midnightblue" stroke="midnightblue" points="572.081,-55.5001 582.081,-52 572.081,-48.5001 572.081,-55.5001"/>
</g>
</g>
</svg>
