<?xml version="1.0" encoding="UTF-8" standalone="no"?>
<!DOCTYPE svg PUBLIC "-//W3C//DTD SVG 1.1//EN"
 "http://www.w3.org/Graphics/SVG/1.1/DTD/svg11.dtd">
<!-- Generated by graphviz version 2.28.0 (20111028.1807)
 -->
<!-- Title: G Pages: 1 -->
<svg width="942pt" height="358pt"
 viewBox="0.00 0.00 942.00 358.00" xmlns="http://www.w3.org/2000/svg" xmlns:xlink="http://www.w3.org/1999/xlink">
<g id="graph1" class="graph" transform="scale(1 1) rotate(0) translate(4 354)">
<title>G</title>
<!-- Node1 -->
<g id="node1" class="node"><title>Node1</title>
<polygon fill="#bfbfbf" stroke="black" points="0.317871,-123.934 0.317871,-146.066 199.682,-146.066 199.682,-123.934 0.317871,-123.934"/>
<text text-anchor="middle" x="100" y="-132.066" font-family="sans-serif" font-size="10.00">csc440.nuf.complay.PlayerCanvas.run</text>
</g>
<!-- Node2 -->
<g id="node3" class="node"><title>Node2</title>
<a xlink:href="$classcsc440_1_1nuf_1_1complay_1_1_timer.xhtml#aff1846d75c64aee648b2321f9ea62314" xlink:title="csc440.nuf.complay.Timer.timePlusPlus">
<polygon fill="none" stroke="black" points="236.608,-163.934 236.608,-186.066 445.392,-186.066 445.392,-163.934 236.608,-163.934"/>
<text text-anchor="middle" x="341" y="-172.066" font-family="sans-serif" font-size="10.00">csc440.nuf.complay.Timer.timePlusPlus</text>
</a>
</g>
<!-- Node1&#45;&gt;Node2 -->
<g id="edge2" class="edge"><title>Node1&#45;&gt;Node2</title>
<path fill="none" stroke="midnightblue" d="M167.257,-146.089C197.175,-151.096 232.688,-157.04 263.712,-162.232"/>
<polygon fill="midnightblue" stroke="midnightblue" points="263.173,-165.691 273.614,-163.889 264.329,-158.787 263.173,-165.691"/>
</g>
<!-- Node4 -->
<g id="node7" class="node"><title>Node4</title>
<a xlink:href="$classcsc440_1_1nuf_1_1complay_1_1_on_screen.xhtml#a33feeb951e6558b0f50251e713a5a230" xlink:title="csc440.nuf.complay.OnScreen.Q">
<polygon fill="none" stroke="black" points="732.36,-327.934 732.36,-350.066 905.64,-350.066 905.64,-327.934 732.36,-327.934"/>
<text text-anchor="middle" x="819" y="-336.066" font-family="sans-serif" font-size="10.00">csc440.nuf.complay.OnScreen.Q</text>
</a>
</g>
<!-- Node1&#45;&gt;Node4 -->
<g id="edge24" class="edge"><title>Node1&#45;&gt;Node4</title>
<path fill="none" stroke="midnightblue" d="M112.525,-146.172C134.545,-166.834 184.965,-210.919 236,-233 397.427,-302.845 603.336,-326.678 721.967,-334.804"/>
<polygon fill="midnightblue" stroke="midnightblue" points="721.905,-338.308 732.114,-335.476 722.367,-331.323 721.905,-338.308"/>
</g>
<!-- Node5 -->
<g id="node9" class="node"><title>Node5</title>
<a xlink:href="$classcsc440_1_1nuf_1_1complay_1_1_q.xhtml#a6c333b08908191e022f23b68989c263a" xlink:title="csc440.nuf.complay.Q.isEmpty">
<polygon fill="none" stroke="black" points="736.32,-286.934 736.32,-309.066 901.68,-309.066 901.68,-286.934 736.32,-286.934"/>
<text text-anchor="middle" x="819" y="-295.066" font-family="sans-serif" font-size="10.00">csc440.nuf.complay.Q.isEmpty</text>
</a>
</g>
<!-- Node1&#45;&gt;Node5 -->
<g id="edge30" class="edge"><title>Node1&#45;&gt;Node5</title>
<path fill="none" stroke="midnightblue" d="M121.894,-146.211C147.913,-159.714 194.058,-182.178 236,-195 404.837,-246.616 609.623,-275.377 725.769,-288.688"/>
<polygon fill="midnightblue" stroke="midnightblue" points="725.709,-292.204 736.039,-289.852 726.497,-285.248 725.709,-292.204"/>
</g>
<!-- Node6 -->
<g id="node11" class="node"><title>Node6</title>
<a xlink:href="$classcsc440_1_1nuf_1_1complay_1_1_q.xhtml#a1909fe89eabfc73398d99c7dc4c9b946" xlink:title="csc440.nuf.complay.Q.peek">
<polygon fill="none" stroke="black" points="743.681,-40.9336 743.681,-63.0664 894.319,-63.0664 894.319,-40.9336 743.681,-40.9336"/>
<text text-anchor="middle" x="819" y="-49.0664" font-family="sans-serif" font-size="10.00">csc440.nuf.complay.Q.peek</text>
</a>
</g>
<!-- Node1&#45;&gt;Node6 -->
<g id="edge32" class="edge"><title>Node1&#45;&gt;Node6</title>
<path fill="none" stroke="midnightblue" d="M199.973,-139.766C339.912,-144.997 587.542,-148.274 668,-111 689.404,-101.084 683.293,-83.2994 704,-72 713.156,-67.0036 723.287,-63.2111 733.619,-60.3397"/>
<polygon fill="midnightblue" stroke="midnightblue" points="734.707,-63.6757 743.563,-57.8598 733.013,-56.8837 734.707,-63.6757"/>
</g>
<!-- Node9 -->
<g id="node17" class="node"><title>Node9</title>
<a xlink:href="$classcsc440_1_1nuf_1_1complay_1_1_waiting.xhtml#aaa8d6d536f680a183de75424e4d95627" xlink:title="csc440.nuf.complay.Waiting.Q">
<polygon fill="none" stroke="black" points="737.301,0.0664062 737.301,-22.0664 900.699,-22.0664 900.699,0.0664062 737.301,0.0664062"/>
<text text-anchor="middle" x="819" y="-8.06641" font-family="sans-serif" font-size="10.00">csc440.nuf.complay.Waiting.Q</text>
</a>
</g>
<!-- Node1&#45;&gt;Node9 -->
<g id="edge28" class="edge"><title>Node1&#45;&gt;Node9</title>
<path fill="none" stroke="midnightblue" d="M168.14,-123.914C237.687,-112.384 349.499,-93.714 446,-77 560.766,-57.1224 589.305,-51.2856 704,-31 717.087,-28.6853 731.021,-26.2317 744.492,-23.8654"/>
<polygon fill="midnightblue" stroke="midnightblue" points="745.436,-27.2532 754.68,-22.0766 744.225,-20.3586 745.436,-27.2532"/>
</g>
<!-- Node13 -->
<g id="node26" class="node"><title>Node13</title>
<a xlink:href="$classcsc440_1_1nuf_1_1complay_1_1_q.xhtml#a75d1b0f2ee11e7051721631f7659fdab" xlink:title="csc440.nuf.complay.Q.draw">
<polygon fill="none" stroke="black" points="265.515,-45.9336 265.515,-68.0664 416.485,-68.0664 416.485,-45.9336 265.515,-45.9336"/>
<text text-anchor="middle" x="341" y="-54.0664" font-family="sans-serif" font-size="10.00">csc440.nuf.complay.Q.draw</text>
</a>
</g>
<!-- Node1&#45;&gt;Node13 -->
<g id="edge26" class="edge"><title>Node1&#45;&gt;Node13</title>
<path fill="none" stroke="midnightblue" d="M127.047,-123.87C153.99,-112.617 197.446,-95.194 236,-83 250.274,-78.4856 265.845,-74.2412 280.489,-70.5428"/>
<polygon fill="midnightblue" stroke="midnightblue" points="281.588,-73.8764 290.453,-68.0731 279.904,-67.0821 281.588,-73.8764"/>
</g>
<!-- Node14 -->
<g id="node31" class="node"><title>Node14</title>
<a xlink:href="$classcsc440_1_1nuf_1_1complay_1_1_timer.xhtml#a8a082600290ab98e14d378e26a64c76f" xlink:title="csc440.nuf.complay.Timer.getTime">
<polygon fill="none" stroke="black" points="247.265,-4.93359 247.265,-27.0664 434.735,-27.0664 434.735,-4.93359 247.265,-4.93359"/>
<text text-anchor="middle" x="341" y="-13.0664" font-family="sans-serif" font-size="10.00">csc440.nuf.complay.Timer.getTime</text>
</a>
</g>
<!-- Node1&#45;&gt;Node14 -->
<g id="edge34" class="edge"><title>Node1&#45;&gt;Node14</title>
<path fill="none" stroke="midnightblue" d="M112.504,-123.715C134.489,-102.844 184.852,-58.3137 236,-36 241.108,-33.7714 246.465,-31.7902 251.94,-30.029"/>
<polygon fill="midnightblue" stroke="midnightblue" points="253.294,-33.2787 261.894,-27.0905 251.312,-26.5651 253.294,-33.2787"/>
</g>
<!-- Node3 -->
<g id="node5" class="node"><title>Node3</title>
<a xlink:href="$classcsc440_1_1nuf_1_1complay_1_1_timer.xhtml#aebbe2beb25856951b72d866d783ce897" xlink:title="csc440.nuf.complay.Timer.setTime">
<polygon fill="none" stroke="black" points="481.834,-163.934 481.834,-186.066 668.166,-186.066 668.166,-163.934 481.834,-163.934"/>
<text text-anchor="middle" x="575" y="-172.066" font-family="sans-serif" font-size="10.00">csc440.nuf.complay.Timer.setTime</text>
</a>
</g>
<!-- Node2&#45;&gt;Node3 -->
<g id="edge4" class="edge"><title>Node2&#45;&gt;Node3</title>
<path fill="none" stroke="midnightblue" d="M445.448,-175C454.133,-175 462.912,-175 471.589,-175"/>
<polygon fill="midnightblue" stroke="midnightblue" points="471.716,-178.5 481.716,-175 471.716,-171.5 471.716,-178.5"/>
</g>
<!-- Node3&#45;&gt;Node4 -->
<g id="edge6" class="edge"><title>Node3&#45;&gt;Node4</title>
<path fill="none" stroke="midnightblue" d="M582.361,-186.186C598.639,-213.679 644.726,-284.733 704,-318 709.837,-321.276 716.081,-324.055 722.528,-326.411"/>
<polygon fill="midnightblue" stroke="midnightblue" points="721.502,-329.758 732.096,-329.569 723.697,-323.111 721.502,-329.758"/>
</g>
<!-- Node3&#45;&gt;Node5 -->
<g id="edge8" class="edge"><title>Node3&#45;&gt;Node5</title>
<path fill="none" stroke="midnightblue" d="M607.015,-186.085C626.114,-193.997 650.252,-206.061 668,-222 689.736,-241.521 679.67,-260.826 704,-277 710.851,-281.554 718.421,-285.19 726.305,-288.084"/>
<polygon fill="midnightblue" stroke="midnightblue" points="725.459,-291.489 736.052,-291.257 727.627,-284.833 725.459,-291.489"/>
</g>
<!-- Node3&#45;&gt;Node6 -->
<g id="edge10" class="edge"><title>Node3&#45;&gt;Node6</title>
<path fill="none" stroke="midnightblue" d="M642.336,-163.773C651.629,-160.142 660.538,-155.342 668,-149 696.786,-124.535 674.007,-94.9697 704,-72 712.733,-65.3119 722.944,-60.5695 733.601,-57.2467"/>
<polygon fill="midnightblue" stroke="midnightblue" points="734.742,-60.5641 743.485,-54.579 732.918,-53.8059 734.742,-60.5641"/>
</g>
<!-- Node7 -->
<g id="node13" class="node"><title>Node7</title>
<a xlink:href="$classcsc440_1_1nuf_1_1complay_1_1_off_screen.xhtml#ab94d06e82ef902255257e6ca5b635a56" xlink:title="csc440.nuf.complay.OffScreen.Q">
<polygon fill="none" stroke="black" points="731.94,-163.934 731.94,-186.066 906.06,-186.066 906.06,-163.934 731.94,-163.934"/>
<text text-anchor="middle" x="819" y="-172.066" font-family="sans-serif" font-size="10.00">csc440.nuf.complay.OffScreen.Q</text>
</a>
</g>
<!-- Node3&#45;&gt;Node7 -->
<g id="edge12" class="edge"><title>Node3&#45;&gt;Node7</title>
<path fill="none" stroke="midnightblue" d="M668.18,-175C685.599,-175 703.864,-175 721.413,-175"/>
<polygon fill="midnightblue" stroke="midnightblue" points="721.652,-178.5 731.652,-175 721.652,-171.5 721.652,-178.5"/>
</g>
<!-- Node8 -->
<g id="node15" class="node"><title>Node8</title>
<a xlink:href="$classcsc440_1_1nuf_1_1complay_1_1_q.xhtml#aaa9e1371272a3d71932a7b753155741b" xlink:title="csc440.nuf.complay.Q.push">
<polygon fill="none" stroke="black" points="743.419,-122.934 743.419,-145.066 894.581,-145.066 894.581,-122.934 743.419,-122.934"/>
<text text-anchor="middle" x="819" y="-131.066" font-family="sans-serif" font-size="10.00">csc440.nuf.complay.Q.push</text>
</a>
</g>
<!-- Node3&#45;&gt;Node8 -->
<g id="edge14" class="edge"><title>Node3&#45;&gt;Node8</title>
<path fill="none" stroke="midnightblue" d="M641.489,-163.905C672.695,-158.618 710.191,-152.265 742.583,-146.777"/>
<polygon fill="midnightblue" stroke="midnightblue" points="743.184,-150.225 752.459,-145.104 742.015,-143.324 743.184,-150.225"/>
</g>
<!-- Node3&#45;&gt;Node9 -->
<g id="edge16" class="edge"><title>Node3&#45;&gt;Node9</title>
<path fill="none" stroke="midnightblue" d="M598.665,-163.81C619.072,-152.771 648.735,-134.203 668,-111 692.906,-81.002 673.218,-54.9301 704,-31 711.031,-25.5341 719.044,-21.3613 727.489,-18.1977"/>
<polygon fill="midnightblue" stroke="midnightblue" points="728.755,-21.4665 737.178,-15.0397 726.585,-14.8112 728.755,-21.4665"/>
</g>
<!-- Node10 -->
<g id="node19" class="node"><title>Node10</title>
<a xlink:href="$classcsc440_1_1nuf_1_1complay_1_1_q.xhtml#af768e2d386701d7d3ee1078e08a21422" xlink:title="csc440.nuf.complay.Q.pop">
<polygon fill="none" stroke="black" points="745.956,-81.9336 745.956,-104.066 892.044,-104.066 892.044,-81.9336 745.956,-81.9336"/>
<text text-anchor="middle" x="819" y="-90.0664" font-family="sans-serif" font-size="10.00">csc440.nuf.complay.Q.pop</text>
</a>
</g>
<!-- Node3&#45;&gt;Node10 -->
<g id="edge18" class="edge"><title>Node3&#45;&gt;Node10</title>
<path fill="none" stroke="midnightblue" d="M632.834,-163.831C644.919,-160.137 657.262,-155.297 668,-149 687.518,-137.553 683.925,-123.44 704,-113 713.928,-107.837 724.931,-103.974 736.071,-101.09"/>
<polygon fill="midnightblue" stroke="midnightblue" points="736.932,-104.483 745.873,-98.799 735.339,-97.6669 736.932,-104.483"/>
</g>
<!-- Node11 -->
<g id="node21" class="node"><title>Node11</title>
<a xlink:href="$classcsc440_1_1nuf_1_1complay_1_1_q.xhtml#aa873b2a8f7d338e917b5db7af678a55d" xlink:title="csc440.nuf.complay.Q.sortByEndTimeASC">
<polygon fill="none" stroke="black" points="709.674,-245.934 709.674,-268.066 928.326,-268.066 928.326,-245.934 709.674,-245.934"/>
<text text-anchor="middle" x="819" y="-254.066" font-family="sans-serif" font-size="10.00">csc440.nuf.complay.Q.sortByEndTimeASC</text>
</a>
</g>
<!-- Node3&#45;&gt;Node11 -->
<g id="edge20" class="edge"><title>Node3&#45;&gt;Node11</title>
<path fill="none" stroke="midnightblue" d="M597.573,-186.13C628.205,-201.786 682.924,-229.169 704,-236 713.022,-238.924 722.586,-241.484 732.187,-243.714"/>
<polygon fill="midnightblue" stroke="midnightblue" points="731.665,-247.182 742.184,-245.919 733.173,-240.347 731.665,-247.182"/>
</g>
<!-- Node12 -->
<g id="node23" class="node"><title>Node12</title>
<a xlink:href="$classcsc440_1_1nuf_1_1complay_1_1_q.xhtml#a935d3fbb201ad281bfc122c616335413" xlink:title="csc440.nuf.complay.Q.sortByStartTimeDESC">
<polygon fill="none" stroke="black" points="704.389,-204.934 704.389,-227.066 933.611,-227.066 933.611,-204.934 704.389,-204.934"/>
<text text-anchor="middle" x="819" y="-213.066" font-family="sans-serif" font-size="10.00">csc440.nuf.complay.Q.sortByStartTimeDESC</text>
</a>
</g>
<!-- Node3&#45;&gt;Node12 -->
<g id="edge22" class="edge"><title>Node3&#45;&gt;Node12</title>
<path fill="none" stroke="midnightblue" d="M641.489,-186.095C672.695,-191.382 710.191,-197.735 742.583,-203.223"/>
<polygon fill="midnightblue" stroke="midnightblue" points="742.015,-206.676 752.459,-204.896 743.184,-199.775 742.015,-206.676"/>
</g>
</g>
</svg>
