<?xml version="1.0" encoding="UTF-8" standalone="no"?>
<!DOCTYPE svg PUBLIC "-//W3C//DTD SVG 1.1//EN"
 "http://www.w3.org/Graphics/SVG/1.1/DTD/svg11.dtd">
<!-- Generated by graphviz version 2.28.0 (20111028.1807)
 -->
<!-- Title: G Pages: 1 -->
<svg width="202pt" height="334pt"
 viewBox="0.00 0.00 202.00 334.00" xmlns="http://www.w3.org/2000/svg" xmlns:xlink="http://www.w3.org/1999/xlink">
<g id="graph1" class="graph" transform="scale(1 1) rotate(0) translate(4 330)">
<title>G</title>
<!-- Node1 -->
<g id="node1" class="node"><title>Node1</title>
<polygon fill="#bfbfbf" stroke="black" points="-0.0209961,-0.535156 -0.0209961,-123.465 194.021,-123.465 194.021,-0.535156 -0.0209961,-0.535156"/>
<text text-anchor="middle" x="97" y="-109.465" font-family="sans-serif" font-size="10.00">csc440.nuf.server.SMILEngineService</text>
<polyline fill="none" stroke="black" points="-0.0209961,-101.332 194.021,-101.332 "/>
<text text-anchor="middle" x="97" y="-87.332" font-family="sans-serif" font-size="10.00"> </text>
<polyline fill="none" stroke="black" points="-0.0209961,-79.1992 194.021,-79.1992 "/>
<text text-anchor="start" x="7.979" y="-65.1992" font-family="sans-serif" font-size="10.00">+ createSMILMessage()</text>
<text text-anchor="start" x="7.979" y="-51.0664" font-family="sans-serif" font-size="10.00">+ readSMILMessage()</text>
<text text-anchor="start" x="7.979" y="-36.9336" font-family="sans-serif" font-size="10.00">+ updateSMILMessage()</text>
<text text-anchor="start" x="7.979" y="-22.8008" font-family="sans-serif" font-size="10.00">+ deleteSMILMessage()</text>
<text text-anchor="start" x="7.979" y="-8.66797" font-family="sans-serif" font-size="10.00">+ querySMILMessages()</text>
</g>
<!-- Node2 -->
<g id="node2" class="node"><title>Node2</title>
<a xlink:href="$classcsc440_1_1nuf_1_1server_1_1_data_store.xhtml" xlink:title="{csc440.nuf.server.DataStore\n||+ delete()\l+ find()\l+ findAll()\l+ update()\l+ getUserId()\l+ getUserEmail()\l+ sendC2DMUpdate()\l}">
<polygon fill="none" stroke="black" points="20.6504,-174.402 20.6504,-325.598 173.35,-325.598 173.35,-174.402 20.6504,-174.402"/>
<text text-anchor="middle" x="97" y="-311.598" font-family="sans-serif" font-size="10.00">csc440.nuf.server.DataStore</text>
<polyline fill="none" stroke="black" points="20.6504,-303.465 173.35,-303.465 "/>
<text text-anchor="middle" x="97" y="-289.465" font-family="sans-serif" font-size="10.00"> </text>
<polyline fill="none" stroke="black" points="20.6504,-281.332 173.35,-281.332 "/>
<text text-anchor="start" x="28.6504" y="-267.332" font-family="sans-serif" font-size="10.00">+ delete()</text>
<text text-anchor="start" x="28.6504" y="-253.199" font-family="sans-serif" font-size="10.00">+ find()</text>
<text text-anchor="start" x="28.6504" y="-239.066" font-family="sans-serif" font-size="10.00">+ findAll()</text>
<text text-anchor="start" x="28.6504" y="-224.934" font-family="sans-serif" font-size="10.00">+ update()</text>
<text text-anchor="start" x="28.6504" y="-210.801" font-family="sans-serif" font-size="10.00">+ getUserId()</text>
<text text-anchor="start" x="28.6504" y="-196.668" font-family="sans-serif" font-size="10.00">+ getUserEmail()</text>
<text text-anchor="start" x="28.6504" y="-182.535" font-family="sans-serif" font-size="10.00">+ sendC2DMUpdate()</text>
</a>
</g>
<!-- Node2&#45;&gt;Node1 -->
<g id="edge2" class="edge"><title>Node2&#45;&gt;Node1</title>
<path fill="none" stroke="#404040" d="M97,-174.151C97,-161.583 97,-148.555 97,-136.034"/>
<polygon fill="none" stroke="#404040" points="97.0001,-135.717 93,-129.717 97,-123.717 101,-129.717 97.0001,-135.717"/>
<text text-anchor="middle" x="104.876" y="-146.066" font-family="sans-serif" font-size="10.00"> db</text>
</g>
</g>
</svg>
