<?xml version="1.0" encoding="UTF-8" standalone="no"?>
<!DOCTYPE svg PUBLIC "-//W3C//DTD SVG 1.1//EN"
 "http://www.w3.org/Graphics/SVG/1.1/DTD/svg11.dtd">
<!-- Generated by graphviz version 2.28.0 (20111028.1807)
 -->
<!-- Title: G Pages: 1 -->
<svg width="636pt" height="71pt"
 viewBox="0.00 0.00 636.00 71.00" xmlns="http://www.w3.org/2000/svg" xmlns:xlink="http://www.w3.org/1999/xlink">
<g id="graph1" class="graph" transform="scale(1 1) rotate(0) translate(4 67)">
<title>G</title>
<!-- Node1 -->
<g id="node1" class="node"><title>Node1</title>
<polygon fill="#bfbfbf" stroke="black" points="0.693359,-19.9336 0.693359,-42.0664 285.307,-42.0664 285.307,-19.9336 0.693359,-19.9336"/>
<text text-anchor="middle" x="143" y="-28.0664" font-family="sans-serif" font-size="10.00">com.thira.examples.actionbar.widget.ActionBar.setTitle</text>
</g>
<!-- Node2 -->
<g id="node3" class="node"><title>Node2</title>
<a xlink:href="$classcom_1_1thira_1_1examples_1_1actionbar_1_1_custom_title_activity.xhtml#a0fc998991fdce16c2902a85b6f9d5bc2" xlink:title="com.thira.examples.actionbar.CustomTitleActivity.onCreate">
<polygon fill="none" stroke="black" points="322.437,-40.9336 322.437,-63.0664 627.563,-63.0664 627.563,-40.9336 322.437,-40.9336"/>
<text text-anchor="middle" x="475" y="-49.0664" font-family="sans-serif" font-size="10.00">com.thira.examples.actionbar.CustomTitleActivity.onCreate</text>
</a>
</g>
<!-- Node1&#45;&gt;Node2 -->
<g id="edge2" class="edge"><title>Node1&#45;&gt;Node2</title>
<path fill="none" stroke="midnightblue" d="M295.465,-40.6387C304.418,-41.2084 313.424,-41.7815 322.377,-42.3512"/>
<polygon fill="midnightblue" stroke="midnightblue" points="295.588,-37.1395 285.386,-39.9973 295.143,-44.1254 295.588,-37.1395"/>
</g>
<!-- Node3 -->
<g id="node5" class="node"><title>Node3</title>
<a xlink:href="$classcom_1_1thira_1_1examples_1_1actionbar_1_1_main_activity.xhtml#ae12c4aa98ff986fa533899384b521987" xlink:title="com.thira.examples.actionbar.MainActivity.onCreate">
<polygon fill="none" stroke="black" points="340.25,0.0664062 340.25,-22.0664 609.75,-22.0664 609.75,0.0664062 340.25,0.0664062"/>
<text text-anchor="middle" x="475" y="-8.06641" font-family="sans-serif" font-size="10.00">com.thira.examples.actionbar.MainActivity.onCreate</text>
</a>
</g>
<!-- Node1&#45;&gt;Node3 -->
<g id="edge4" class="edge"><title>Node1&#45;&gt;Node3</title>
<path fill="none" stroke="midnightblue" d="M295.655,-21.8088C310.53,-20.9073 325.551,-19.9969 340.23,-19.1073"/>
<polygon fill="midnightblue" stroke="midnightblue" points="295.156,-18.3325 285.386,-22.4312 295.579,-25.3197 295.156,-18.3325"/>
</g>
</g>
</svg>
