<?xml version="1.0" encoding="UTF-8" standalone="no"?>
<!DOCTYPE svg PUBLIC "-//W3C//DTD SVG 1.1//EN"
 "http://www.w3.org/Graphics/SVG/1.1/DTD/svg11.dtd">
<!-- Generated by graphviz version 2.28.0 (20111028.1807)
 -->
<!-- Title: G Pages: 1 -->
<svg width="174pt" height="222pt"
 viewBox="0.00 0.00 174.00 222.00" xmlns="http://www.w3.org/2000/svg" xmlns:xlink="http://www.w3.org/1999/xlink">
<g id="graph1" class="graph" transform="scale(1 1) rotate(0) translate(4 218)">
<title>G</title>
<!-- Node1 -->
<g id="node1" class="node"><title>Node1</title>
<polygon fill="#bfbfbf" stroke="black" points="-0.349121,-0.601562 -0.349121,-109.398 166.349,-109.398 166.349,-0.601562 -0.349121,-0.601562"/>
<text text-anchor="middle" x="83" y="-95.3984" font-family="sans-serif" font-size="10.00">csc440.nuf.parser.SMILHandler</text>
<polyline fill="none" stroke="black" points="-0.349121,-87.2656 166.349,-87.2656 "/>
<text text-anchor="middle" x="83" y="-73.2656" font-family="sans-serif" font-size="10.00"> </text>
<polyline fill="none" stroke="black" points="-0.349121,-65.1328 166.349,-65.1328 "/>
<text text-anchor="start" x="7.65088" y="-51.1328" font-family="sans-serif" font-size="10.00">+ startElement()</text>
<text text-anchor="start" x="7.65088" y="-37" font-family="sans-serif" font-size="10.00">+ characters()</text>
<text text-anchor="start" x="7.65088" y="-22.8672" font-family="sans-serif" font-size="10.00">+ endElement()</text>
<text text-anchor="start" x="7.65088" y="-8.73438" font-family="sans-serif" font-size="10.00">+ add()</text>
</g>
<!-- Node2 -->
<g id="node2" class="node"><title>Node2</title>
<polygon fill="none" stroke="#bfbfbf" points="38.4888,-146.801 38.4888,-213.199 127.511,-213.199 127.511,-146.801 38.4888,-146.801"/>
<text text-anchor="middle" x="83" y="-199.199" font-family="sans-serif" font-size="10.00">DefaultHandler</text>
<polyline fill="none" stroke="#bfbfbf" points="38.4888,-191.066 127.511,-191.066 "/>
<text text-anchor="middle" x="83" y="-177.066" font-family="sans-serif" font-size="10.00"> </text>
<polyline fill="none" stroke="#bfbfbf" points="38.4888,-168.934 127.511,-168.934 "/>
<text text-anchor="middle" x="83" y="-154.934" font-family="sans-serif" font-size="10.00"> </text>
</g>
<!-- Node2&#45;&gt;Node1 -->
<g id="edge2" class="edge"><title>Node2&#45;&gt;Node1</title>
<path fill="none" stroke="midnightblue" d="M83,-136.425C83,-127.745 83,-118.507 83,-109.502"/>
<polygon fill="none" stroke="midnightblue" points="79.5001,-136.683 83,-146.683 86.5001,-136.683 79.5001,-136.683"/>
</g>
</g>
</svg>
