<?xml version="1.0" encoding="UTF-8" standalone="no"?>
<!DOCTYPE svg PUBLIC "-//W3C//DTD SVG 1.1//EN"
 "http://www.w3.org/Graphics/SVG/1.1/DTD/svg11.dtd">
<!-- Generated by graphviz version 2.28.0 (20111028.1807)
 -->
<!-- Title: G Pages: 1 -->
<svg width="816pt" height="112pt"
 viewBox="0.00 0.00 816.00 112.00" xmlns="http://www.w3.org/2000/svg" xmlns:xlink="http://www.w3.org/1999/xlink">
<g id="graph1" class="graph" transform="scale(1 1) rotate(0) translate(4 108)">
<title>G</title>
<!-- Node1 -->
<g id="node1" class="node"><title>Node1</title>
<polygon fill="#bfbfbf" stroke="black" points="-0.137207,-40.9336 -0.137207,-63.0664 202.137,-63.0664 202.137,-40.9336 -0.137207,-40.9336"/>
<text text-anchor="middle" x="101" y="-49.0664" font-family="sans-serif" font-size="10.00">csc440.nuf.server.DataStore.getUserId</text>
</g>
<!-- Node2 -->
<g id="node3" class="node"><title>Node2</title>
<a xlink:href="$classcsc440_1_1nuf_1_1server_1_1_data_store.xhtml#ab66ed1adeb1a5ee0ce37bf5404909e11" xlink:title="csc440.nuf.server.DataStore.update">
<polygon fill="none" stroke="black" points="262.254,-40.9336 262.254,-63.0664 451.746,-63.0664 451.746,-40.9336 262.254,-40.9336"/>
<text text-anchor="middle" x="357" y="-49.0664" font-family="sans-serif" font-size="10.00">csc440.nuf.server.DataStore.update</text>
</a>
</g>
<!-- Node1&#45;&gt;Node2 -->
<g id="edge2" class="edge"><title>Node1&#45;&gt;Node2</title>
<path fill="none" stroke="midnightblue" d="M212.61,-52C229.121,-52 246.009,-52 262.13,-52"/>
<polygon fill="midnightblue" stroke="midnightblue" points="212.388,-48.5001 202.388,-52 212.387,-55.5001 212.388,-48.5001"/>
</g>
<!-- Node3 -->
<g id="node5" class="node"><title>Node3</title>
<a xlink:href="$classcsc440_1_1nuf_1_1server_1_1_s_m_i_l_engine_service.xhtml#a3b83cad8892f2616c9107132e9335272" xlink:title="csc440.nuf.server.SMILEngineService.createSMILMessage">
<polygon fill="none" stroke="black" points="514.627,-81.9336 514.627,-104.066 805.373,-104.066 805.373,-81.9336 514.627,-81.9336"/>
<text text-anchor="middle" x="660" y="-90.0664" font-family="sans-serif" font-size="10.00">csc440.nuf.server.SMILEngineService.createSMILMessage</text>
</a>
</g>
<!-- Node1&#45;&gt;Node3 -->
<g id="edge8" class="edge"><title>Node1&#45;&gt;Node3</title>
<path fill="none" stroke="midnightblue" d="M178.569,-64.5771C197.917,-67.3922 218.685,-70.1025 238,-72 329.766,-81.0152 433.187,-86.2433 514.559,-89.2282"/>
<polygon fill="midnightblue" stroke="midnightblue" points="179,-61.1029 168.595,-63.0991 177.974,-68.0273 179,-61.1029"/>
</g>
<!-- Node5 -->
<g id="node10" class="node"><title>Node5</title>
<a xlink:href="$classcsc440_1_1nuf_1_1server_1_1_s_m_i_l_message_locator.xhtml#ab7bbcf409e81bffa7b1ebcae40e80f89" xlink:title="csc440.nuf.server.SMILMessageLocator.create">
<polygon fill="none" stroke="black" points="237.855,0.0664062 237.855,-22.0664 476.145,-22.0664 476.145,0.0664062 237.855,0.0664062"/>
<text text-anchor="middle" x="357" y="-8.06641" font-family="sans-serif" font-size="10.00">csc440.nuf.server.SMILMessageLocator.create</text>
</a>
</g>
<!-- Node1&#45;&gt;Node5 -->
<g id="edge10" class="edge"><title>Node1&#45;&gt;Node5</title>
<path fill="none" stroke="midnightblue" d="M180.661,-39.3028C214.752,-33.7998 254.306,-27.4151 287.209,-22.1041"/>
<polygon fill="midnightblue" stroke="midnightblue" points="180.051,-35.8559 170.736,-40.9048 181.166,-42.7665 180.051,-35.8559"/>
</g>
<!-- Node2&#45;&gt;Node3 -->
<g id="edge4" class="edge"><title>Node2&#45;&gt;Node3</title>
<path fill="none" stroke="midnightblue" d="M449.42,-64.4526C490.312,-70.0225 538.12,-76.5346 577.741,-81.9315"/>
<polygon fill="midnightblue" stroke="midnightblue" points="449.836,-60.977 439.455,-63.0952 448.891,-67.9129 449.836,-60.977"/>
</g>
<!-- Node4 -->
<g id="node7" class="node"><title>Node4</title>
<a xlink:href="$classcsc440_1_1nuf_1_1server_1_1_s_m_i_l_engine_service.xhtml#a2c28cf08855cb6e77d5b774321f245d0" xlink:title="csc440.nuf.server.SMILEngineService.updateSMILMessage">
<polygon fill="none" stroke="black" points="512.623,-40.9336 512.623,-63.0664 807.377,-63.0664 807.377,-40.9336 512.623,-40.9336"/>
<text text-anchor="middle" x="660" y="-49.0664" font-family="sans-serif" font-size="10.00">csc440.nuf.server.SMILEngineService.updateSMILMessage</text>
</a>
</g>
<!-- Node2&#45;&gt;Node4 -->
<g id="edge6" class="edge"><title>Node2&#45;&gt;Node4</title>
<path fill="none" stroke="midnightblue" d="M462.037,-52C478.337,-52 495.443,-52 512.48,-52"/>
<polygon fill="midnightblue" stroke="midnightblue" points="462,-48.5001 452,-52 462,-55.5001 462,-48.5001"/>
</g>
<!-- Node6 -->
<g id="node12" class="node"><title>Node6</title>
<a xlink:href="$classcsc440_1_1nuf_1_1server_1_1_s_m_i_l_message_locator.xhtml#a3fabe3cb299046a276f91cbdbb8479cf" xlink:title="csc440.nuf.server.SMILMessageLocator.find">
<polygon fill="none" stroke="black" points="546.192,0.0664062 546.192,-22.0664 773.808,-22.0664 773.808,0.0664062 546.192,0.0664062"/>
<text text-anchor="middle" x="660" y="-8.06641" font-family="sans-serif" font-size="10.00">csc440.nuf.server.SMILMessageLocator.find</text>
</a>
</g>
<!-- Node5&#45;&gt;Node6 -->
<g id="edge12" class="edge"><title>Node5&#45;&gt;Node6</title>
<path fill="none" stroke="midnightblue" d="M486.775,-11C506.467,-11 526.666,-11 545.985,-11"/>
<polygon fill="midnightblue" stroke="midnightblue" points="486.531,-7.5001 476.531,-11 486.531,-14.5001 486.531,-7.5001"/>
</g>
</g>
</svg>
