<?xml version="1.0" encoding="UTF-8" standalone="no"?>
<!DOCTYPE svg PUBLIC "-//W3C//DTD SVG 1.1//EN"
 "http://www.w3.org/Graphics/SVG/1.1/DTD/svg11.dtd">
<!-- Generated by graphviz version 2.28.0 (20111028.1807)
 -->
<!-- Title: G Pages: 1 -->
<svg width="706pt" height="358pt"
 viewBox="0.00 0.00 706.00 358.00" xmlns="http://www.w3.org/2000/svg" xmlns:xlink="http://www.w3.org/1999/xlink">
<g id="graph1" class="graph" transform="scale(1 1) rotate(0) translate(4 354)">
<title>G</title>
<!-- Node1 -->
<g id="node1" class="node"><title>Node1</title>
<polygon fill="#bfbfbf" stroke="black" points="0.608398,-163.934 0.608398,-186.066 209.392,-186.066 209.392,-163.934 0.608398,-163.934"/>
<text text-anchor="middle" x="105" y="-172.066" font-family="sans-serif" font-size="10.00">csc440.nuf.complay.Timer.timePlusPlus</text>
</g>
<!-- Node2 -->
<g id="node3" class="node"><title>Node2</title>
<a xlink:href="$classcsc440_1_1nuf_1_1complay_1_1_timer.xhtml#aebbe2beb25856951b72d866d783ce897" xlink:title="csc440.nuf.complay.Timer.setTime">
<polygon fill="none" stroke="black" points="245.834,-163.934 245.834,-186.066 432.166,-186.066 432.166,-163.934 245.834,-163.934"/>
<text text-anchor="middle" x="339" y="-172.066" font-family="sans-serif" font-size="10.00">csc440.nuf.complay.Timer.setTime</text>
</a>
</g>
<!-- Node1&#45;&gt;Node2 -->
<g id="edge2" class="edge"><title>Node1&#45;&gt;Node2</title>
<path fill="none" stroke="midnightblue" d="M209.448,-175C218.133,-175 226.912,-175 235.589,-175"/>
<polygon fill="midnightblue" stroke="midnightblue" points="235.716,-178.5 245.716,-175 235.716,-171.5 235.716,-178.5"/>
</g>
<!-- Node3 -->
<g id="node5" class="node"><title>Node3</title>
<a xlink:href="$classcsc440_1_1nuf_1_1complay_1_1_on_screen.xhtml#a33feeb951e6558b0f50251e713a5a230" xlink:title="csc440.nuf.complay.OnScreen.Q">
<polygon fill="none" stroke="black" points="496.36,-327.934 496.36,-350.066 669.64,-350.066 669.64,-327.934 496.36,-327.934"/>
<text text-anchor="middle" x="583" y="-336.066" font-family="sans-serif" font-size="10.00">csc440.nuf.complay.OnScreen.Q</text>
</a>
</g>
<!-- Node2&#45;&gt;Node3 -->
<g id="edge4" class="edge"><title>Node2&#45;&gt;Node3</title>
<path fill="none" stroke="midnightblue" d="M346.361,-186.186C362.639,-213.679 408.726,-284.733 468,-318 473.837,-321.276 480.081,-324.055 486.528,-326.411"/>
<polygon fill="midnightblue" stroke="midnightblue" points="485.502,-329.758 496.096,-329.569 487.697,-323.111 485.502,-329.758"/>
</g>
<!-- Node4 -->
<g id="node7" class="node"><title>Node4</title>
<a xlink:href="$classcsc440_1_1nuf_1_1complay_1_1_q.xhtml#a6c333b08908191e022f23b68989c263a" xlink:title="csc440.nuf.complay.Q.isEmpty">
<polygon fill="none" stroke="black" points="500.32,-286.934 500.32,-309.066 665.68,-309.066 665.68,-286.934 500.32,-286.934"/>
<text text-anchor="middle" x="583" y="-295.066" font-family="sans-serif" font-size="10.00">csc440.nuf.complay.Q.isEmpty</text>
</a>
</g>
<!-- Node2&#45;&gt;Node4 -->
<g id="edge6" class="edge"><title>Node2&#45;&gt;Node4</title>
<path fill="none" stroke="midnightblue" d="M350.373,-186.361C370.685,-207.835 418.094,-254.263 468,-277 475.082,-280.227 482.626,-282.958 490.331,-285.269"/>
<polygon fill="midnightblue" stroke="midnightblue" points="489.582,-288.693 500.153,-287.978 491.444,-281.945 489.582,-288.693"/>
</g>
<!-- Node5 -->
<g id="node9" class="node"><title>Node5</title>
<a xlink:href="$classcsc440_1_1nuf_1_1complay_1_1_q.xhtml#a1909fe89eabfc73398d99c7dc4c9b946" xlink:title="csc440.nuf.complay.Q.peek">
<polygon fill="none" stroke="black" points="507.681,-245.934 507.681,-268.066 658.319,-268.066 658.319,-245.934 507.681,-245.934"/>
<text text-anchor="middle" x="583" y="-254.066" font-family="sans-serif" font-size="10.00">csc440.nuf.complay.Q.peek</text>
</a>
</g>
<!-- Node2&#45;&gt;Node5 -->
<g id="edge8" class="edge"><title>Node2&#45;&gt;Node5</title>
<path fill="none" stroke="midnightblue" d="M359.29,-186.176C383.786,-199.896 427.722,-222.945 468,-236 477.405,-239.048 487.398,-241.7 497.407,-243.995"/>
<polygon fill="midnightblue" stroke="midnightblue" points="496.885,-247.463 507.401,-246.173 498.375,-240.624 496.885,-247.463"/>
</g>
<!-- Node6 -->
<g id="node11" class="node"><title>Node6</title>
<a xlink:href="$classcsc440_1_1nuf_1_1complay_1_1_off_screen.xhtml#ab94d06e82ef902255257e6ca5b635a56" xlink:title="csc440.nuf.complay.OffScreen.Q">
<polygon fill="none" stroke="black" points="495.94,-204.934 495.94,-227.066 670.06,-227.066 670.06,-204.934 495.94,-204.934"/>
<text text-anchor="middle" x="583" y="-213.066" font-family="sans-serif" font-size="10.00">csc440.nuf.complay.OffScreen.Q</text>
</a>
</g>
<!-- Node2&#45;&gt;Node6 -->
<g id="edge10" class="edge"><title>Node2&#45;&gt;Node6</title>
<path fill="none" stroke="midnightblue" d="M405.489,-186.095C436.695,-191.382 474.191,-197.735 506.583,-203.223"/>
<polygon fill="midnightblue" stroke="midnightblue" points="506.015,-206.676 516.459,-204.896 507.184,-199.775 506.015,-206.676"/>
</g>
<!-- Node7 -->
<g id="node13" class="node"><title>Node7</title>
<a xlink:href="$classcsc440_1_1nuf_1_1complay_1_1_q.xhtml#aaa9e1371272a3d71932a7b753155741b" xlink:title="csc440.nuf.complay.Q.push">
<polygon fill="none" stroke="black" points="507.419,-163.934 507.419,-186.066 658.581,-186.066 658.581,-163.934 507.419,-163.934"/>
<text text-anchor="middle" x="583" y="-172.066" font-family="sans-serif" font-size="10.00">csc440.nuf.complay.Q.push</text>
</a>
</g>
<!-- Node2&#45;&gt;Node7 -->
<g id="edge12" class="edge"><title>Node2&#45;&gt;Node7</title>
<path fill="none" stroke="midnightblue" d="M432.18,-175C453.531,-175 476.153,-175 497.171,-175"/>
<polygon fill="midnightblue" stroke="midnightblue" points="497.348,-178.5 507.348,-175 497.348,-171.5 497.348,-178.5"/>
</g>
<!-- Node8 -->
<g id="node15" class="node"><title>Node8</title>
<a xlink:href="$classcsc440_1_1nuf_1_1complay_1_1_waiting.xhtml#aaa8d6d536f680a183de75424e4d95627" xlink:title="csc440.nuf.complay.Waiting.Q">
<polygon fill="none" stroke="black" points="501.301,-122.934 501.301,-145.066 664.699,-145.066 664.699,-122.934 501.301,-122.934"/>
<text text-anchor="middle" x="583" y="-131.066" font-family="sans-serif" font-size="10.00">csc440.nuf.complay.Waiting.Q</text>
</a>
</g>
<!-- Node2&#45;&gt;Node8 -->
<g id="edge14" class="edge"><title>Node2&#45;&gt;Node8</title>
<path fill="none" stroke="midnightblue" d="M405.489,-163.905C436.695,-158.618 474.191,-152.265 506.583,-146.777"/>
<polygon fill="midnightblue" stroke="midnightblue" points="507.184,-150.225 516.459,-145.104 506.015,-143.324 507.184,-150.225"/>
</g>
<!-- Node9 -->
<g id="node17" class="node"><title>Node9</title>
<a xlink:href="$classcsc440_1_1nuf_1_1complay_1_1_q.xhtml#af768e2d386701d7d3ee1078e08a21422" xlink:title="csc440.nuf.complay.Q.pop">
<polygon fill="none" stroke="black" points="509.956,-81.9336 509.956,-104.066 656.044,-104.066 656.044,-81.9336 509.956,-81.9336"/>
<text text-anchor="middle" x="583" y="-90.0664" font-family="sans-serif" font-size="10.00">csc440.nuf.complay.Q.pop</text>
</a>
</g>
<!-- Node2&#45;&gt;Node9 -->
<g id="edge16" class="edge"><title>Node2&#45;&gt;Node9</title>
<path fill="none" stroke="midnightblue" d="M358.821,-163.814C383.186,-149.827 427.35,-126.128 468,-113 478.175,-109.714 489.045,-106.93 499.882,-104.581"/>
<polygon fill="midnightblue" stroke="midnightblue" points="500.712,-107.984 509.804,-102.545 499.305,-101.127 500.712,-107.984"/>
</g>
<!-- Node10 -->
<g id="node19" class="node"><title>Node10</title>
<a xlink:href="$classcsc440_1_1nuf_1_1complay_1_1_q.xhtml#aa873b2a8f7d338e917b5db7af678a55d" xlink:title="csc440.nuf.complay.Q.sortByEndTimeASC">
<polygon fill="none" stroke="black" points="473.674,-40.9336 473.674,-63.0664 692.326,-63.0664 692.326,-40.9336 473.674,-40.9336"/>
<text text-anchor="middle" x="583" y="-49.0664" font-family="sans-serif" font-size="10.00">csc440.nuf.complay.Q.sortByEndTimeASC</text>
</a>
</g>
<!-- Node2&#45;&gt;Node10 -->
<g id="edge18" class="edge"><title>Node2&#45;&gt;Node10</title>
<path fill="none" stroke="midnightblue" d="M350.019,-163.822C370.08,-142.218 417.602,-94.8479 468,-72 472.918,-69.7703 478.061,-67.7883 483.325,-66.0266"/>
<polygon fill="midnightblue" stroke="midnightblue" points="484.377,-69.3649 492.912,-63.0875 482.325,-62.6724 484.377,-69.3649"/>
</g>
<!-- Node11 -->
<g id="node21" class="node"><title>Node11</title>
<a xlink:href="$classcsc440_1_1nuf_1_1complay_1_1_q.xhtml#a935d3fbb201ad281bfc122c616335413" xlink:title="csc440.nuf.complay.Q.sortByStartTimeDESC">
<polygon fill="none" stroke="black" points="468.389,0.0664062 468.389,-22.0664 697.611,-22.0664 697.611,0.0664062 468.389,0.0664062"/>
<text text-anchor="middle" x="583" y="-8.06641" font-family="sans-serif" font-size="10.00">csc440.nuf.complay.Q.sortByStartTimeDESC</text>
</a>
</g>
<!-- Node2&#45;&gt;Node11 -->
<g id="edge20" class="edge"><title>Node2&#45;&gt;Node11</title>
<path fill="none" stroke="midnightblue" d="M346.322,-163.705C362.511,-135.948 408.411,-64.2463 468,-31 471.455,-29.0725 475.052,-27.3232 478.75,-25.7361"/>
<polygon fill="midnightblue" stroke="midnightblue" points="480.057,-28.9833 488.125,-22.1159 477.536,-22.4533 480.057,-28.9833"/>
</g>
</g>
</svg>
