<?xml version="1.0" encoding="UTF-8" standalone="no"?>
<!DOCTYPE svg PUBLIC "-//W3C//DTD SVG 1.1//EN"
 "http://www.w3.org/Graphics/SVG/1.1/DTD/svg11.dtd">
<!-- Generated by graphviz version 2.28.0 (20111028.1807)
 -->
<!-- Title: G Pages: 1 -->
<svg width="1160pt" height="71pt"
 viewBox="0.00 0.00 1160.00 71.00" xmlns="http://www.w3.org/2000/svg" xmlns:xlink="http://www.w3.org/1999/xlink">
<g id="graph1" class="graph" transform="scale(1 1) rotate(0) translate(4 67)">
<title>G</title>
<!-- Node1 -->
<g id="node1" class="node"><title>Node1</title>
<polygon fill="#bfbfbf" stroke="black" points="0.52832,-19.9336 0.52832,-42.0664 263.472,-42.0664 263.472,-19.9336 0.52832,-19.9336"/>
<text text-anchor="middle" x="132" y="-28.0664" font-family="sans-serif" font-size="10.00">csc440.nuf.server.DeviceInfo.getDeviceInfoForUser</text>
</g>
<!-- Node2 -->
<g id="node3" class="node"><title>Node2</title>
<a xlink:href="$classcsc440_1_1nuf_1_1server_1_1_send_message.xhtml#a0c14fe20917e68f73dda5a275ba2a7f2" xlink:title="csc440.nuf.server.SendMessage.sendMessage">
<polygon fill="none" stroke="black" points="300.65,-19.9336 300.65,-42.0664 539.35,-42.0664 539.35,-19.9336 300.65,-19.9336"/>
<text text-anchor="middle" x="420" y="-28.0664" font-family="sans-serif" font-size="10.00">csc440.nuf.server.SendMessage.sendMessage</text>
</a>
</g>
<!-- Node1&#45;&gt;Node2 -->
<g id="edge2" class="edge"><title>Node1&#45;&gt;Node2</title>
<path fill="none" stroke="midnightblue" d="M273.897,-31C282.795,-31 291.703,-31 300.485,-31"/>
<polygon fill="midnightblue" stroke="midnightblue" points="273.864,-27.5001 263.864,-31 273.864,-34.5001 273.864,-27.5001"/>
</g>
<!-- Node3 -->
<g id="node5" class="node"><title>Node3</title>
<a xlink:href="$classcsc440_1_1nuf_1_1server_1_1_data_store.xhtml#ad7c4ecf86f1850c8ba359f20feec8797" xlink:title="csc440.nuf.server.DataStore.sendC2DMUpdate">
<polygon fill="none" stroke="black" points="576.636,-40.9336 576.636,-63.0664 819.364,-63.0664 819.364,-40.9336 576.636,-40.9336"/>
<text text-anchor="middle" x="698" y="-49.0664" font-family="sans-serif" font-size="10.00">csc440.nuf.server.DataStore.sendC2DMUpdate</text>
</a>
</g>
<!-- Node2&#45;&gt;Node3 -->
<g id="edge4" class="edge"><title>Node2&#45;&gt;Node3</title>
<path fill="none" stroke="midnightblue" d="M549.636,-40.7875C558.507,-41.4625 567.429,-42.1414 576.256,-42.813"/>
<polygon fill="midnightblue" stroke="midnightblue" points="549.887,-37.2966 539.651,-40.0278 549.356,-44.2764 549.887,-37.2966"/>
</g>
<!-- Node5 -->
<g id="node9" class="node"><title>Node5</title>
<a xlink:href="$classcsc440_1_1nuf_1_1server_1_1_message.xhtml#a8fe8e1a3d08cf036c59a0fe09458754e" xlink:title="csc440.nuf.server.Message.send">
<polygon fill="none" stroke="black" points="611.233,0.0664062 611.233,-22.0664 784.767,-22.0664 784.767,0.0664062 611.233,0.0664062"/>
<text text-anchor="middle" x="698" y="-8.06641" font-family="sans-serif" font-size="10.00">csc440.nuf.server.Message.send</text>
</a>
</g>
<!-- Node2&#45;&gt;Node5 -->
<g id="edge8" class="edge"><title>Node2&#45;&gt;Node5</title>
<path fill="none" stroke="midnightblue" d="M549.798,-21.6668C570.531,-20.1644 591.542,-18.6419 610.949,-17.2356"/>
<polygon fill="midnightblue" stroke="midnightblue" points="549.371,-18.1884 539.651,-22.4021 549.877,-25.1701 549.371,-18.1884"/>
</g>
<!-- Node4 -->
<g id="node7" class="node"><title>Node4</title>
<a xlink:href="$classcsc440_1_1nuf_1_1server_1_1_s_m_i_l_engine_service.xhtml#a2c28cf08855cb6e77d5b774321f245d0" xlink:title="csc440.nuf.server.SMILEngineService.updateSMILMessage">
<polygon fill="none" stroke="black" points="856.623,-40.9336 856.623,-63.0664 1151.38,-63.0664 1151.38,-40.9336 856.623,-40.9336"/>
<text text-anchor="middle" x="1004" y="-49.0664" font-family="sans-serif" font-size="10.00">csc440.nuf.server.SMILEngineService.updateSMILMessage</text>
</a>
</g>
<!-- Node3&#45;&gt;Node4 -->
<g id="edge6" class="edge"><title>Node3&#45;&gt;Node4</title>
<path fill="none" stroke="midnightblue" d="M829.855,-52C838.646,-52 847.534,-52 856.398,-52"/>
<polygon fill="midnightblue" stroke="midnightblue" points="829.586,-48.5001 819.585,-52 829.585,-55.5001 829.586,-48.5001"/>
</g>
</g>
</svg>
