<?xml version="1.0" encoding="UTF-8" standalone="no"?>
<!DOCTYPE svg PUBLIC "-//W3C//DTD SVG 1.1//EN"
 "http://www.w3.org/Graphics/SVG/1.1/DTD/svg11.dtd">
<!-- Generated by graphviz version 2.28.0 (20111028.1807)
 -->
<!-- Title: G Pages: 1 -->
<svg width="876pt" height="194pt"
 viewBox="0.00 0.00 876.00 194.00" xmlns="http://www.w3.org/2000/svg" xmlns:xlink="http://www.w3.org/1999/xlink">
<g id="graph1" class="graph" transform="scale(1 1) rotate(0) translate(4 190)">
<title>G</title>
<!-- Node1 -->
<g id="node1" class="node"><title>Node1</title>
<polygon fill="#bfbfbf" stroke="black" points="0.401855,-81.9336 0.401855,-104.066 257.598,-104.066 257.598,-81.9336 0.401855,-81.9336"/>
<text text-anchor="middle" x="129" y="-90.0664" font-family="sans-serif" font-size="10.00">com.google.appengine.codelab.ItemServlet.doGet</text>
</g>
<!-- Node2 -->
<g id="node3" class="node"><title>Node2</title>
<a xlink:href="$classcom_1_1google_1_1appengine_1_1codelab_1_1_base_servlet.xhtml#abb34ecfcd902fafc62944237f49283b9" xlink:title="com.google.appengine.codelab.BaseServlet.doGet">
<polygon fill="none" stroke="black" points="311.194,-163.934 311.194,-186.066 568.806,-186.066 568.806,-163.934 311.194,-163.934"/>
<text text-anchor="middle" x="440" y="-172.066" font-family="sans-serif" font-size="10.00">com.google.appengine.codelab.BaseServlet.doGet</text>
</a>
</g>
<!-- Node1&#45;&gt;Node2 -->
<g id="edge2" class="edge"><title>Node1&#45;&gt;Node2</title>
<path fill="none" stroke="midnightblue" d="M154.756,-104.098C186.415,-117.847 243.227,-141.037 294,-154 306.275,-157.134 319.262,-159.843 332.219,-162.174"/>
<polygon fill="midnightblue" stroke="midnightblue" points="331.659,-165.629 342.109,-163.884 332.852,-158.732 331.659,-165.629"/>
</g>
<!-- Node3 -->
<g id="node5" class="node"><title>Node3</title>
<a xlink:href="$classcom_1_1google_1_1appengine_1_1codelab_1_1_item.xhtml#ac34c1a67f0b499b88f2ba10c9c57d9d5" xlink:title="com.google.appengine.codelab.Item.getAllItems">
<polygon fill="none" stroke="black" points="314.676,-122.934 314.676,-145.066 565.324,-145.066 565.324,-122.934 314.676,-122.934"/>
<text text-anchor="middle" x="440" y="-131.066" font-family="sans-serif" font-size="10.00">com.google.appengine.codelab.Item.getAllItems</text>
</a>
</g>
<!-- Node1&#45;&gt;Node3 -->
<g id="edge4" class="edge"><title>Node1&#45;&gt;Node3</title>
<path fill="none" stroke="midnightblue" d="M213.62,-104.095C254.408,-109.507 303.61,-116.036 345.624,-121.61"/>
<polygon fill="midnightblue" stroke="midnightblue" points="345.208,-125.086 355.581,-122.932 346.129,-118.146 345.208,-125.086"/>
</g>
<!-- Node5 -->
<g id="node9" class="node"><title>Node5</title>
<a xlink:href="$classcom_1_1google_1_1appengine_1_1codelab_1_1_util.xhtml#a87d0f3bedf24d631c476ca62d10fb8d9" xlink:title="com.google.appengine.codelab.Util.writeJSON">
<polygon fill="none" stroke="black" points="320.816,-81.9336 320.816,-104.066 559.184,-104.066 559.184,-81.9336 320.816,-81.9336"/>
<text text-anchor="middle" x="440" y="-90.0664" font-family="sans-serif" font-size="10.00">com.google.appengine.codelab.Util.writeJSON</text>
</a>
</g>
<!-- Node1&#45;&gt;Node5 -->
<g id="edge8" class="edge"><title>Node1&#45;&gt;Node5</title>
<path fill="none" stroke="midnightblue" d="M257.913,-93C275.262,-93 293.072,-93 310.432,-93"/>
<polygon fill="midnightblue" stroke="midnightblue" points="310.595,-96.5001 320.595,-93 310.595,-89.5001 310.595,-96.5001"/>
</g>
<!-- Node6 -->
<g id="node11" class="node"><title>Node6</title>
<a xlink:href="$classcom_1_1google_1_1appengine_1_1codelab_1_1_item.xhtml#a03e5b5b5ebc360327091c946c6b7874d" xlink:title="com.google.appengine.codelab.Item.getItem">
<polygon fill="none" stroke="black" points="323.565,-40.9336 323.565,-63.0664 556.435,-63.0664 556.435,-40.9336 323.565,-40.9336"/>
<text text-anchor="middle" x="440" y="-49.0664" font-family="sans-serif" font-size="10.00">com.google.appengine.codelab.Item.getItem</text>
</a>
</g>
<!-- Node1&#45;&gt;Node6 -->
<g id="edge10" class="edge"><title>Node1&#45;&gt;Node6</title>
<path fill="none" stroke="midnightblue" d="M213.62,-81.9048C254.408,-76.4928 303.61,-69.9643 345.624,-64.3898"/>
<polygon fill="midnightblue" stroke="midnightblue" points="346.129,-67.8535 355.581,-63.0685 345.208,-60.9143 346.129,-67.8535"/>
</g>
<!-- Node7 -->
<g id="node14" class="node"><title>Node7</title>
<a xlink:href="$classcom_1_1google_1_1appengine_1_1codelab_1_1_item.xhtml#a1c221deafdbd13c4133edf24cb6dcdb8" xlink:title="com.google.appengine.codelab.Item.getItemsForProduct">
<polygon fill="none" stroke="black" points="294.656,0.0664062 294.656,-22.0664 585.344,-22.0664 585.344,0.0664062 294.656,0.0664062"/>
<text text-anchor="middle" x="440" y="-8.06641" font-family="sans-serif" font-size="10.00">com.google.appengine.codelab.Item.getItemsForProduct</text>
</a>
</g>
<!-- Node1&#45;&gt;Node7 -->
<g id="edge14" class="edge"><title>Node1&#45;&gt;Node7</title>
<path fill="none" stroke="midnightblue" d="M154.173,-81.892C185.684,-67.8748 242.82,-44.0276 294,-31 304.666,-28.2849 315.874,-25.916 327.135,-23.854"/>
<polygon fill="midnightblue" stroke="midnightblue" points="327.786,-27.2933 337.032,-22.1198 326.578,-20.3983 327.786,-27.2933"/>
</g>
<!-- Node4 -->
<g id="node7" class="node"><title>Node4</title>
<a xlink:href="$classcom_1_1google_1_1appengine_1_1codelab_1_1_util.xhtml#a450bc0facf36bb5525b4f66a18be74cd" xlink:title="com.google.appengine.codelab.Util.listEntities">
<polygon fill="none" stroke="black" points="624.554,-81.9336 624.554,-104.066 865.446,-104.066 865.446,-81.9336 624.554,-81.9336"/>
<text text-anchor="middle" x="745" y="-90.0664" font-family="sans-serif" font-size="10.00">com.google.appengine.codelab.Util.listEntities</text>
</a>
</g>
<!-- Node3&#45;&gt;Node4 -->
<g id="edge6" class="edge"><title>Node3&#45;&gt;Node4</title>
<path fill="none" stroke="midnightblue" d="M522.996,-122.905C562.908,-117.504 611.036,-110.992 652.176,-105.425"/>
<polygon fill="midnightblue" stroke="midnightblue" points="652.761,-108.878 662.201,-104.068 651.822,-101.941 652.761,-108.878"/>
</g>
<!-- Node6&#45;&gt;Node4 -->
<g id="edge12" class="edge"><title>Node6&#45;&gt;Node4</title>
<path fill="none" stroke="midnightblue" d="M522.996,-63.0952C562.908,-68.4958 611.036,-75.0081 652.176,-80.575"/>
<polygon fill="midnightblue" stroke="midnightblue" points="651.822,-84.0589 662.201,-81.9315 652.761,-77.1221 651.822,-84.0589"/>
</g>
<!-- Node8 -->
<g id="node16" class="node"><title>Node8</title>
<a xlink:href="$classcom_1_1google_1_1appengine_1_1codelab_1_1_util.xhtml#a7a9f221fa79d46f397b81e06820beb03" xlink:title="com.google.appengine.codelab.Util.listChildren">
<polygon fill="none" stroke="black" points="621.797,0.0664062 621.797,-22.0664 868.203,-22.0664 868.203,0.0664062 621.797,0.0664062"/>
<text text-anchor="middle" x="745" y="-8.06641" font-family="sans-serif" font-size="10.00">com.google.appengine.codelab.Util.listChildren</text>
</a>
</g>
<!-- Node7&#45;&gt;Node8 -->
<g id="edge16" class="edge"><title>Node7&#45;&gt;Node8</title>
<path fill="none" stroke="midnightblue" d="M585.401,-11C594.056,-11 602.741,-11 611.345,-11"/>
<polygon fill="midnightblue" stroke="midnightblue" points="611.4,-14.5001 621.4,-11 611.4,-7.5001 611.4,-14.5001"/>
</g>
</g>
</svg>
