<?xml version="1.0" encoding="UTF-8" standalone="no"?>
<!DOCTYPE svg PUBLIC "-//W3C//DTD SVG 1.1//EN"
 "http://www.w3.org/Graphics/SVG/1.1/DTD/svg11.dtd">
<!-- Generated by graphviz version 2.28.0 (20111028.1807)
 -->
<!-- Title: G Pages: 1 -->
<svg width="450pt" height="71pt"
 viewBox="0.00 0.00 450.00 71.00" xmlns="http://www.w3.org/2000/svg" xmlns:xlink="http://www.w3.org/1999/xlink">
<g id="graph1" class="graph" transform="scale(1 1) rotate(0) translate(4 67)">
<title>G</title>
<!-- Node1 -->
<g id="node1" class="node"><title>Node1</title>
<polygon fill="#bfbfbf" stroke="black" points="0.60498,-19.9336 0.60498,-42.0664 231.395,-42.0664 231.395,-19.9336 0.60498,-19.9336"/>
<text text-anchor="middle" x="116" y="-28.0664" font-family="sans-serif" font-size="10.00">csc440.nuf.parser.SMILHandler.startElement</text>
</g>
<!-- Node2 -->
<g id="node3" class="node"><title>Node2</title>
<a xlink:href="$classcsc440_1_1nuf_1_1complay_1_1_waiting.xhtml#aaa8d6d536f680a183de75424e4d95627" xlink:title="csc440.nuf.complay.Waiting.Q">
<polygon fill="none" stroke="black" points="273.301,-40.9336 273.301,-63.0664 436.699,-63.0664 436.699,-40.9336 273.301,-40.9336"/>
<text text-anchor="middle" x="355" y="-49.0664" font-family="sans-serif" font-size="10.00">csc440.nuf.complay.Waiting.Q</text>
</a>
</g>
<!-- Node1&#45;&gt;Node2 -->
<g id="edge2" class="edge"><title>Node1&#45;&gt;Node2</title>
<path fill="none" stroke="midnightblue" d="M231.682,-41.1617C242.227,-42.0961 252.813,-43.034 263.104,-43.9459"/>
<polygon fill="midnightblue" stroke="midnightblue" points="263.015,-47.4517 273.285,-44.8481 263.633,-40.479 263.015,-47.4517"/>
</g>
<!-- Node3 -->
<g id="node5" class="node"><title>Node3</title>
<a xlink:href="$classcsc440_1_1nuf_1_1complay_1_1_q.xhtml#a37ca528aeec4df81de99fe3cec490372" xlink:title="csc440.nuf.complay.Q.setLayout">
<polygon fill="none" stroke="black" points="268.033,0.0664062 268.033,-22.0664 441.967,-22.0664 441.967,0.0664062 268.033,0.0664062"/>
<text text-anchor="middle" x="355" y="-8.06641" font-family="sans-serif" font-size="10.00">csc440.nuf.complay.Q.setLayout</text>
</a>
</g>
<!-- Node1&#45;&gt;Node3 -->
<g id="edge4" class="edge"><title>Node1&#45;&gt;Node3</title>
<path fill="none" stroke="midnightblue" d="M231.682,-21.3222C240.429,-20.5841 249.204,-19.8436 257.815,-19.1168"/>
<polygon fill="midnightblue" stroke="midnightblue" points="258.168,-22.5996 267.839,-18.271 257.58,-15.6244 258.168,-22.5996"/>
</g>
</g>
</svg>
