<?xml version="1.0" encoding="UTF-8" standalone="no"?>
<!DOCTYPE svg PUBLIC "-//W3C//DTD SVG 1.1//EN"
 "http://www.w3.org/Graphics/SVG/1.1/DTD/svg11.dtd">
<!-- Generated by graphviz version 2.28.0 (20111028.1807)
 -->
<!-- Title: G Pages: 1 -->
<svg width="548pt" height="71pt"
 viewBox="0.00 0.00 548.00 71.00" xmlns="http://www.w3.org/2000/svg" xmlns:xlink="http://www.w3.org/1999/xlink">
<g id="graph1" class="graph" transform="scale(1 1) rotate(0) translate(4 67)">
<title>G</title>
<!-- Node1 -->
<g id="node1" class="node"><title>Node1</title>
<polygon fill="#bfbfbf" stroke="black" points="0.649902,-19.9336 0.649902,-42.0664 239.35,-42.0664 239.35,-19.9336 0.649902,-19.9336"/>
<text text-anchor="middle" x="120" y="-28.0664" font-family="sans-serif" font-size="10.00">csc440.nuf.server.SendMessage.sendMessage</text>
</g>
<!-- Node2 -->
<g id="node3" class="node"><title>Node2</title>
<a xlink:href="$classcsc440_1_1nuf_1_1server_1_1_device_info.xhtml#a9d068913be4bf051ab37c7fb7ef981f2" xlink:title="csc440.nuf.server.DeviceInfo.getDeviceInfoForUser">
<polygon fill="none" stroke="black" points="276.528,-40.9336 276.528,-63.0664 539.472,-63.0664 539.472,-40.9336 276.528,-40.9336"/>
<text text-anchor="middle" x="408" y="-49.0664" font-family="sans-serif" font-size="10.00">csc440.nuf.server.DeviceInfo.getDeviceInfoForUser</text>
</a>
</g>
<!-- Node1&#45;&gt;Node2 -->
<g id="edge2" class="edge"><title>Node1&#45;&gt;Node2</title>
<path fill="none" stroke="midnightblue" d="M239.392,-39.6931C248.212,-40.3408 257.162,-40.9979 266.1,-41.6542"/>
<polygon fill="midnightblue" stroke="midnightblue" points="265.95,-45.1525 276.18,-42.3943 266.463,-38.1713 265.95,-45.1525"/>
</g>
<!-- Node3 -->
<g id="node5" class="node"><title>Node3</title>
<a xlink:href="$classcsc440_1_1nuf_1_1server_1_1_device_info.xhtml#a10d351ee9254f7f63bd6b77c3005f33c" xlink:title="csc440.nuf.server.DeviceInfo.getKey">
<polygon fill="none" stroke="black" points="311.873,0.0664062 311.873,-22.0664 504.127,-22.0664 504.127,0.0664062 311.873,0.0664062"/>
<text text-anchor="middle" x="408" y="-8.06641" font-family="sans-serif" font-size="10.00">csc440.nuf.server.DeviceInfo.getKey</text>
</a>
</g>
<!-- Node1&#45;&gt;Node3 -->
<g id="edge4" class="edge"><title>Node1&#45;&gt;Node3</title>
<path fill="none" stroke="midnightblue" d="M239.392,-22.7209C260.031,-21.2775 281.376,-19.7849 301.636,-18.3681"/>
<polygon fill="midnightblue" stroke="midnightblue" points="302.071,-21.8463 311.803,-17.6572 301.583,-14.8634 302.071,-21.8463"/>
</g>
</g>
</svg>
