<?xml version="1.0" encoding="UTF-8" standalone="no"?>
<!DOCTYPE svg PUBLIC "-//W3C//DTD SVG 1.1//EN"
 "http://www.w3.org/Graphics/SVG/1.1/DTD/svg11.dtd">
<!-- Generated by graphviz version 2.28.0 (20111028.1807)
 -->
<!-- Title: G Pages: 1 -->
<svg width="556pt" height="71pt"
 viewBox="0.00 0.00 556.00 71.00" xmlns="http://www.w3.org/2000/svg" xmlns:xlink="http://www.w3.org/1999/xlink">
<g id="graph1" class="graph" transform="scale(1 1) rotate(0) translate(4 67)">
<title>G</title>
<!-- Node1 -->
<g id="node1" class="node"><title>Node1</title>
<polygon fill="#bfbfbf" stroke="black" points="-0.184082,-19.9336 -0.184082,-42.0664 238.184,-42.0664 238.184,-19.9336 -0.184082,-19.9336"/>
<text text-anchor="middle" x="119" y="-28.0664" font-family="sans-serif" font-size="10.00">com.google.appengine.codelab.Util.writeJSON</text>
</g>
<!-- Node2 -->
<g id="node3" class="node"><title>Node2</title>
<a xlink:href="$classcom_1_1google_1_1appengine_1_1codelab_1_1_item_servlet.xhtml#ac3bcf595bb8d62c1ef0a44d24ce129c8" xlink:title="com.google.appengine.codelab.ItemServlet.doGet">
<polygon fill="none" stroke="black" points="282.402,-40.9336 282.402,-63.0664 539.598,-63.0664 539.598,-40.9336 282.402,-40.9336"/>
<text text-anchor="middle" x="411" y="-49.0664" font-family="sans-serif" font-size="10.00">com.google.appengine.codelab.ItemServlet.doGet</text>
</a>
</g>
<!-- Node1&#45;&gt;Node2 -->
<g id="edge2" class="edge"><title>Node1&#45;&gt;Node2</title>
<path fill="none" stroke="midnightblue" d="M248.556,-40.3092C259.693,-41.1157 270.961,-41.9317 282.093,-42.7378"/>
<polygon fill="midnightblue" stroke="midnightblue" points="248.599,-36.8033 238.372,-39.5718 248.093,-43.785 248.599,-36.8033"/>
</g>
<!-- Node3 -->
<g id="node5" class="node"><title>Node3</title>
<a xlink:href="$classcom_1_1google_1_1appengine_1_1codelab_1_1_product_servlet.xhtml#a7c57929d447f8ee5c296d57be19d1727" xlink:title="com.google.appengine.codelab.ProductServlet.doGet">
<polygon fill="none" stroke="black" points="274.604,0.0664062 274.604,-22.0664 547.396,-22.0664 547.396,0.0664062 274.604,0.0664062"/>
<text text-anchor="middle" x="411" y="-8.06641" font-family="sans-serif" font-size="10.00">com.google.appengine.codelab.ProductServlet.doGet</text>
</a>
</g>
<!-- Node1&#45;&gt;Node3 -->
<g id="edge4" class="edge"><title>Node1&#45;&gt;Node3</title>
<path fill="none" stroke="midnightblue" d="M248.467,-22.1402C257.103,-21.5446 265.819,-20.9435 274.489,-20.3456"/>
<polygon fill="midnightblue" stroke="midnightblue" points="248.108,-18.6566 238.372,-22.8364 248.59,-25.64 248.108,-18.6566"/>
</g>
</g>
</svg>
