<?xml version="1.0" encoding="UTF-8" standalone="no"?>
<!DOCTYPE svg PUBLIC "-//W3C//DTD SVG 1.1//EN"
 "http://www.w3.org/Graphics/SVG/1.1/DTD/svg11.dtd">
<!-- Generated by graphviz version 2.28.0 (20111028.1807)
 -->
<!-- Title: G Pages: 1 -->
<svg width="966pt" height="153pt"
 viewBox="0.00 0.00 966.00 153.00" xmlns="http://www.w3.org/2000/svg" xmlns:xlink="http://www.w3.org/1999/xlink">
<g id="graph1" class="graph" transform="scale(1 1) rotate(0) translate(4 149)">
<title>G</title>
<!-- Node1 -->
<g id="node1" class="node"><title>Node1</title>
<polygon fill="#bfbfbf" stroke="black" points="0.680664,-102.934 0.680664,-125.066 151.319,-125.066 151.319,-102.934 0.680664,-102.934"/>
<text text-anchor="middle" x="76" y="-111.066" font-family="sans-serif" font-size="10.00">csc440.nuf.complay.Q.peek</text>
</g>
<!-- Node2 -->
<g id="node3" class="node"><title>Node2</title>
<a xlink:href="$classcsc440_1_1nuf_1_1complay_1_1_player_canvas.xhtml#aa0797d703af20d0ada15e590da003617" xlink:title="csc440.nuf.complay.PlayerCanvas.run">
<polygon fill="none" stroke="black" points="713.318,-122.934 713.318,-145.066 912.682,-145.066 912.682,-122.934 713.318,-122.934"/>
<text text-anchor="middle" x="813" y="-131.066" font-family="sans-serif" font-size="10.00">csc440.nuf.complay.PlayerCanvas.run</text>
</a>
</g>
<!-- Node1&#45;&gt;Node2 -->
<g id="edge2" class="edge"><title>Node1&#45;&gt;Node2</title>
<path fill="none" stroke="midnightblue" d="M161.541,-116.3C298.378,-120.024 567.699,-127.352 713.178,-131.311"/>
<polygon fill="midnightblue" stroke="midnightblue" points="161.612,-112.801 151.521,-116.028 161.422,-119.799 161.612,-112.801"/>
</g>
<!-- Node3 -->
<g id="node5" class="node"><title>Node3</title>
<a xlink:href="$classcsc440_1_1nuf_1_1complay_1_1_timer.xhtml#aebbe2beb25856951b72d866d783ce897" xlink:title="csc440.nuf.complay.Timer.setTime">
<polygon fill="none" stroke="black" points="187.834,-82.9336 187.834,-105.066 374.166,-105.066 374.166,-82.9336 187.834,-82.9336"/>
<text text-anchor="middle" x="281" y="-91.0664" font-family="sans-serif" font-size="10.00">csc440.nuf.complay.Timer.setTime</text>
</a>
</g>
<!-- Node1&#45;&gt;Node3 -->
<g id="edge4" class="edge"><title>Node1&#45;&gt;Node3</title>
<path fill="none" stroke="midnightblue" d="M161.475,-105.677C170.106,-104.827 178.905,-103.96 187.614,-103.102"/>
<polygon fill="midnightblue" stroke="midnightblue" points="161.046,-102.203 151.437,-106.666 161.732,-109.169 161.046,-102.203"/>
</g>
<!-- Node4 -->
<g id="node7" class="node"><title>Node4</title>
<a xlink:href="$classcsc440_1_1nuf_1_1complay_1_1_player_canvas.xhtml#a64eae2e9ed26456ab5b104436c97d78f" xlink:title="csc440.nuf.complay.PlayerCanvas.setTime">
<polygon fill="none" stroke="black" points="410.305,-40.9336 410.305,-63.0664 631.695,-63.0664 631.695,-40.9336 410.305,-40.9336"/>
<text text-anchor="middle" x="521" y="-49.0664" font-family="sans-serif" font-size="10.00">csc440.nuf.complay.PlayerCanvas.setTime</text>
</a>
</g>
<!-- Node3&#45;&gt;Node4 -->
<g id="edge6" class="edge"><title>Node3&#45;&gt;Node4</title>
<path fill="none" stroke="midnightblue" d="M354.808,-81.1515C387.533,-75.3765 425.775,-68.628 457.218,-63.0792"/>
<polygon fill="midnightblue" stroke="midnightblue" points="354.083,-77.7254 344.843,-82.9101 355.299,-84.6189 354.083,-77.7254"/>
</g>
<!-- Node8 -->
<g id="node15" class="node"><title>Node8</title>
<a xlink:href="$classcsc440_1_1nuf_1_1complay_1_1_timer.xhtml#aff1846d75c64aee648b2321f9ea62314" xlink:title="csc440.nuf.complay.Timer.timePlusPlus">
<polygon fill="none" stroke="black" points="416.608,-82.9336 416.608,-105.066 625.392,-105.066 625.392,-82.9336 416.608,-82.9336"/>
<text text-anchor="middle" x="521" y="-91.0664" font-family="sans-serif" font-size="10.00">csc440.nuf.complay.Timer.timePlusPlus</text>
</a>
</g>
<!-- Node3&#45;&gt;Node8 -->
<g id="edge14" class="edge"><title>Node3&#45;&gt;Node8</title>
<path fill="none" stroke="midnightblue" d="M384.402,-94C394.948,-94 405.67,-94 416.23,-94"/>
<polygon fill="midnightblue" stroke="midnightblue" points="384.358,-90.5001 374.358,-94 384.358,-97.5001 384.358,-90.5001"/>
</g>
<!-- Node5 -->
<g id="node9" class="node"><title>Node5</title>
<a xlink:href="$classcsc440_1_1nuf_1_1complay_1_1_player_activity.xhtml#a592b9fe89b9076e65456181c0e389e3c" xlink:title="csc440.nuf.complay.PlayerActivity.onCreate">
<polygon fill="none" stroke="black" points="699.067,-81.9336 699.067,-104.066 926.933,-104.066 926.933,-81.9336 699.067,-81.9336"/>
<text text-anchor="middle" x="813" y="-90.0664" font-family="sans-serif" font-size="10.00">csc440.nuf.complay.PlayerActivity.onCreate</text>
</a>
</g>
<!-- Node4&#45;&gt;Node5 -->
<g id="edge8" class="edge"><title>Node4&#45;&gt;Node5</title>
<path fill="none" stroke="midnightblue" d="M610.579,-64.5233C649.866,-70.0776 695.699,-76.5574 733.711,-81.9315"/>
<polygon fill="midnightblue" stroke="midnightblue" points="610.87,-61.0296 600.478,-63.0952 609.89,-67.9607 610.87,-61.0296"/>
</g>
<!-- Node6 -->
<g id="node11" class="node"><title>Node6</title>
<a xlink:href="$classcsc440_1_1nuf_1_1complay_1_1_player_activity.xhtml#a042e95babe17fab59ba7d71a6dfc9dbb" xlink:title="csc440.nuf.complay.PlayerActivity.onStopTrackingTouch">
<polygon fill="none" stroke="black" points="667.876,-40.9336 667.876,-63.0664 958.124,-63.0664 958.124,-40.9336 667.876,-40.9336"/>
<text text-anchor="middle" x="813" y="-49.0664" font-family="sans-serif" font-size="10.00">csc440.nuf.complay.PlayerActivity.onStopTrackingTouch</text>
</a>
</g>
<!-- Node4&#45;&gt;Node6 -->
<g id="edge10" class="edge"><title>Node4&#45;&gt;Node6</title>
<path fill="none" stroke="midnightblue" d="M642.266,-52C650.695,-52 659.239,-52 667.779,-52"/>
<polygon fill="midnightblue" stroke="midnightblue" points="642.05,-48.5001 632.05,-52 642.05,-55.5001 642.05,-48.5001"/>
</g>
<!-- Node7 -->
<g id="node13" class="node"><title>Node7</title>
<a xlink:href="$classcsc440_1_1nuf_1_1complay_1_1_player_activity.xhtml#a7f5eb45ffac9b23a602a8ba76dbb6d47" xlink:title="csc440.nuf.complay.PlayerActivity.playPause">
<polygon fill="none" stroke="black" points="697.021,0.0664062 697.021,-22.0664 928.979,-22.0664 928.979,0.0664062 697.021,0.0664062"/>
<text text-anchor="middle" x="813" y="-8.06641" font-family="sans-serif" font-size="10.00">csc440.nuf.complay.PlayerActivity.playPause</text>
</a>
</g>
<!-- Node4&#45;&gt;Node7 -->
<g id="edge12" class="edge"><title>Node4&#45;&gt;Node7</title>
<path fill="none" stroke="midnightblue" d="M608.619,-39.4704C628.148,-36.6652 648.783,-33.7166 668,-31 688.618,-28.0854 710.902,-24.9723 731.637,-22.0912"/>
<polygon fill="midnightblue" stroke="midnightblue" points="607.921,-36.0347 598.521,-40.9223 608.917,-42.9635 607.921,-36.0347"/>
</g>
<!-- Node8&#45;&gt;Node2 -->
<g id="edge16" class="edge"><title>Node8&#45;&gt;Node2</title>
<path fill="none" stroke="midnightblue" d="M612.477,-106.48C650.641,-111.744 694.704,-117.821 731.699,-122.924"/>
<polygon fill="midnightblue" stroke="midnightblue" points="612.781,-102.988 602.396,-105.089 611.824,-109.923 612.781,-102.988"/>
</g>
</g>
</svg>
