<?xml version="1.0" encoding="UTF-8" standalone="no"?>
<!DOCTYPE svg PUBLIC "-//W3C//DTD SVG 1.1//EN"
 "http://www.w3.org/Graphics/SVG/1.1/DTD/svg11.dtd">
<!-- Generated by graphviz version 2.28.0 (20111028.1807)
 -->
<!-- Title: G Pages: 1 -->
<svg width="808pt" height="153pt"
 viewBox="0.00 0.00 808.00 153.00" xmlns="http://www.w3.org/2000/svg" xmlns:xlink="http://www.w3.org/1999/xlink">
<g id="graph1" class="graph" transform="scale(1 1) rotate(0) translate(4 149)">
<title>G</title>
<!-- Node1 -->
<g id="node1" class="node"><title>Node1</title>
<polygon fill="#bfbfbf" stroke="black" points="0.626953,-50.9336 0.626953,-73.0664 291.373,-73.0664 291.373,-50.9336 0.626953,-50.9336"/>
<text text-anchor="middle" x="146" y="-59.0664" font-family="sans-serif" font-size="10.00">csc440.nuf.server.SMILEngineService.createSMILMessage</text>
</g>
<!-- Node2 -->
<g id="node3" class="node"><title>Node2</title>
<a xlink:href="$classcsc440_1_1nuf_1_1server_1_1_data_store.xhtml#ab66ed1adeb1a5ee0ce37bf5404909e11" xlink:title="csc440.nuf.server.DataStore.update">
<polygon fill="none" stroke="black" points="328.254,-50.9336 328.254,-73.0664 517.746,-73.0664 517.746,-50.9336 328.254,-50.9336"/>
<text text-anchor="middle" x="423" y="-59.0664" font-family="sans-serif" font-size="10.00">csc440.nuf.server.DataStore.update</text>
</a>
</g>
<!-- Node1&#45;&gt;Node2 -->
<g id="edge2" class="edge"><title>Node1&#45;&gt;Node2</title>
<path fill="none" stroke="midnightblue" d="M291.748,-62C300.583,-62 309.379,-62 317.988,-62"/>
<polygon fill="midnightblue" stroke="midnightblue" points="317.999,-65.5001 327.999,-62 317.999,-58.5001 317.999,-65.5001"/>
</g>
<!-- Node4 -->
<g id="node7" class="node"><title>Node4</title>
<a xlink:href="$classcsc440_1_1nuf_1_1server_1_1_data_store.xhtml#aec9033c4e9624646beb5276de28bfe59" xlink:title="csc440.nuf.server.DataStore.getUserId">
<polygon fill="none" stroke="black" points="575.863,-122.934 575.863,-145.066 778.137,-145.066 778.137,-122.934 575.863,-122.934"/>
<text text-anchor="middle" x="677" y="-131.066" font-family="sans-serif" font-size="10.00">csc440.nuf.server.DataStore.getUserId</text>
</a>
</g>
<!-- Node1&#45;&gt;Node4 -->
<g id="edge12" class="edge"><title>Node1&#45;&gt;Node4</title>
<path fill="none" stroke="midnightblue" d="M228.497,-73.0922C324.605,-86.1731 483.941,-107.86 584.286,-121.517"/>
<polygon fill="midnightblue" stroke="midnightblue" points="584.03,-125.015 594.41,-122.895 584.974,-118.078 584.03,-125.015"/>
</g>
<!-- Node6 -->
<g id="node11" class="node"><title>Node6</title>
<a xlink:href="$classcsc440_1_1nuf_1_1server_1_1_data_store.xhtml#a3749afd0edd374001b7a29ef14495ffc" xlink:title="csc440.nuf.server.DataStore.getUserEmail">
<polygon fill="none" stroke="black" points="567.42,0.0664062 567.42,-22.0664 786.58,-22.0664 786.58,0.0664062 567.42,0.0664062"/>
<text text-anchor="middle" x="677" y="-8.06641" font-family="sans-serif" font-size="10.00">csc440.nuf.server.DataStore.getUserEmail</text>
</a>
</g>
<!-- Node1&#45;&gt;Node6 -->
<g id="edge14" class="edge"><title>Node1&#45;&gt;Node6</title>
<path fill="none" stroke="midnightblue" d="M238.094,-50.8996C266.838,-47.5396 298.729,-43.9591 328,-41 404.182,-33.2986 489.874,-25.896 557.162,-20.371"/>
<polygon fill="midnightblue" stroke="midnightblue" points="557.694,-23.8393 567.375,-19.5352 557.123,-16.8626 557.694,-23.8393"/>
</g>
<!-- Node3 -->
<g id="node5" class="node"><title>Node3</title>
<a xlink:href="$classcsc440_1_1nuf_1_1server_1_1_s_m_i_l_message.xhtml#ae0bf6116cba42238cf2ddd705222021c" xlink:title="csc440.nuf.server.SMILMessage.setId">
<polygon fill="none" stroke="black" points="578.919,-81.9336 578.919,-104.066 775.081,-104.066 775.081,-81.9336 578.919,-81.9336"/>
<text text-anchor="middle" x="677" y="-90.0664" font-family="sans-serif" font-size="10.00">csc440.nuf.server.SMILMessage.setId</text>
</a>
</g>
<!-- Node2&#45;&gt;Node3 -->
<g id="edge4" class="edge"><title>Node2&#45;&gt;Node3</title>
<path fill="none" stroke="midnightblue" d="M514.266,-73.1042C534.201,-75.5564 555.436,-78.1687 575.74,-80.6665"/>
<polygon fill="midnightblue" stroke="midnightblue" points="575.588,-84.1741 585.941,-81.9213 576.443,-77.2265 575.588,-84.1741"/>
</g>
<!-- Node2&#45;&gt;Node4 -->
<g id="edge6" class="edge"><title>Node2&#45;&gt;Node4</title>
<path fill="none" stroke="midnightblue" d="M447.934,-73.0959C473.641,-84.6059 515.937,-102.377 554,-113 564.727,-115.994 576.111,-118.636 587.445,-120.946"/>
<polygon fill="midnightblue" stroke="midnightblue" points="586.889,-124.404 597.375,-122.892 588.234,-117.534 586.889,-124.404"/>
</g>
<!-- Node5 -->
<g id="node9" class="node"><title>Node5</title>
<a xlink:href="$classcsc440_1_1nuf_1_1server_1_1_s_m_i_l_message.xhtml#a839f38b917f400f15cc39046b99d7ec6" xlink:title="csc440.nuf.server.SMILMessage.setSenderEmail">
<polygon fill="none" stroke="black" points="553.917,-40.9336 553.917,-63.0664 800.083,-63.0664 800.083,-40.9336 553.917,-40.9336"/>
<text text-anchor="middle" x="677" y="-49.0664" font-family="sans-serif" font-size="10.00">csc440.nuf.server.SMILMessage.setSenderEmail</text>
</a>
</g>
<!-- Node2&#45;&gt;Node5 -->
<g id="edge8" class="edge"><title>Node2&#45;&gt;Node5</title>
<path fill="none" stroke="midnightblue" d="M517.835,-58.2764C526.284,-57.9411 534.94,-57.5976 543.635,-57.2526"/>
<polygon fill="midnightblue" stroke="midnightblue" points="543.999,-60.741 553.852,-56.8471 543.721,-53.7465 543.999,-60.741"/>
</g>
<!-- Node2&#45;&gt;Node6 -->
<g id="edge10" class="edge"><title>Node2&#45;&gt;Node6</title>
<path fill="none" stroke="midnightblue" d="M467.162,-50.8878C492.383,-44.6005 524.883,-36.8505 554,-31 566.576,-28.473 579.93,-26.0359 593.012,-23.7844"/>
<polygon fill="midnightblue" stroke="midnightblue" points="593.672,-27.2226 602.946,-22.1004 592.502,-20.321 593.672,-27.2226"/>
</g>
</g>
</svg>
