<?xml version="1.0" encoding="UTF-8" standalone="no"?>
<!DOCTYPE svg PUBLIC "-//W3C//DTD SVG 1.1//EN"
 "http://www.w3.org/Graphics/SVG/1.1/DTD/svg11.dtd">
<!-- Generated by graphviz version 2.28.0 (20111028.1807)
 -->
<!-- Title: G Pages: 1 -->
<svg width="906pt" height="71pt"
 viewBox="0.00 0.00 906.00 71.00" xmlns="http://www.w3.org/2000/svg" xmlns:xlink="http://www.w3.org/1999/xlink">
<g id="graph1" class="graph" transform="scale(1 1) rotate(0) translate(4 67)">
<title>G</title>
<!-- Node1 -->
<g id="node1" class="node"><title>Node1</title>
<polygon fill="#bfbfbf" stroke="black" points="-0.172363,-19.9336 -0.172363,-42.0664 324.172,-42.0664 324.172,-19.9336 -0.172363,-19.9336"/>
<text text-anchor="middle" x="162" y="-28.0664" font-family="sans-serif" font-size="10.00">com.google.appengine.codelab.Product.createOrUpdateProduct</text>
</g>
<!-- Node2 -->
<g id="node3" class="node"><title>Node2</title>
<a xlink:href="$classcom_1_1google_1_1appengine_1_1codelab_1_1_product.xhtml#a8281f8c29702347f39fcb651db5e073f" xlink:title="com.google.appengine.codelab.Product.getProduct">
<polygon fill="none" stroke="black" points="359.969,-40.9336 359.969,-63.0664 624.031,-63.0664 624.031,-40.9336 359.969,-40.9336"/>
<text text-anchor="middle" x="492" y="-49.0664" font-family="sans-serif" font-size="10.00">com.google.appengine.codelab.Product.getProduct</text>
</a>
</g>
<!-- Node1&#45;&gt;Node2 -->
<g id="edge2" class="edge"><title>Node1&#45;&gt;Node2</title>
<path fill="none" stroke="midnightblue" d="M324.598,-41.3462C332.99,-41.8835 341.391,-42.4213 349.712,-42.9541"/>
<polygon fill="midnightblue" stroke="midnightblue" points="349.613,-46.4549 359.816,-43.601 350.06,-39.4692 349.613,-46.4549"/>
</g>
<!-- Node4 -->
<g id="node7" class="node"><title>Node4</title>
<a xlink:href="$classcom_1_1google_1_1appengine_1_1codelab_1_1_util.xhtml#a95f645b216766041423363dd06815dc7" xlink:title="com.google.appengine.codelab.Util.persistEntity">
<polygon fill="none" stroke="black" points="366.639,0.0664062 366.639,-22.0664 617.361,-22.0664 617.361,0.0664062 366.639,0.0664062"/>
<text text-anchor="middle" x="492" y="-8.06641" font-family="sans-serif" font-size="10.00">com.google.appengine.codelab.Util.persistEntity</text>
</a>
</g>
<!-- Node1&#45;&gt;Node4 -->
<g id="edge6" class="edge"><title>Node1&#45;&gt;Node4</title>
<path fill="none" stroke="midnightblue" d="M324.598,-21.1465C335.259,-20.4964 345.934,-19.8455 356.442,-19.2048"/>
<polygon fill="midnightblue" stroke="midnightblue" points="356.691,-22.6962 366.459,-18.594 356.265,-15.7092 356.691,-22.6962"/>
</g>
<!-- Node3 -->
<g id="node5" class="node"><title>Node3</title>
<a xlink:href="$classcom_1_1google_1_1appengine_1_1codelab_1_1_util.xhtml#a14548b6d0d079225ae5f6596542a1c0f" xlink:title="com.google.appengine.codelab.Util.findEntity">
<polygon fill="none" stroke="black" points="660.558,-40.9336 660.558,-63.0664 897.442,-63.0664 897.442,-40.9336 660.558,-40.9336"/>
<text text-anchor="middle" x="779" y="-49.0664" font-family="sans-serif" font-size="10.00">com.google.appengine.codelab.Util.findEntity</text>
</a>
</g>
<!-- Node2&#45;&gt;Node3 -->
<g id="edge4" class="edge"><title>Node2&#45;&gt;Node3</title>
<path fill="none" stroke="midnightblue" d="M624.238,-52C632.849,-52 641.514,-52 650.108,-52"/>
<polygon fill="midnightblue" stroke="midnightblue" points="650.156,-55.5001 660.156,-52 650.156,-48.5001 650.156,-55.5001"/>
</g>
</g>
</svg>
