<?xml version="1.0" encoding="UTF-8" standalone="no"?>
<!DOCTYPE svg PUBLIC "-//W3C//DTD SVG 1.1//EN"
 "http://www.w3.org/Graphics/SVG/1.1/DTD/svg11.dtd">
<!-- Generated by graphviz version 2.28.0 (20111028.1807)
 -->
<!-- Title: G Pages: 1 -->
<svg width="346pt" height="208pt"
 viewBox="0.00 0.00 346.00 208.00" xmlns="http://www.w3.org/2000/svg" xmlns:xlink="http://www.w3.org/1999/xlink">
<g id="graph1" class="graph" transform="scale(1 1) rotate(0) translate(4 204)">
<title>G</title>
<!-- Node1 -->
<g id="node1" class="node"><title>Node1</title>
<polygon fill="#bfbfbf" stroke="black" points="73.3999,-0.667969 73.3999,-95.332 264.6,-95.332 264.6,-0.667969 73.3999,-0.667969"/>
<text text-anchor="middle" x="169" y="-81.332" font-family="sans-serif" font-size="10.00">csc440.nuf.AsyncFetchSMILMessage</text>
<polyline fill="none" stroke="black" points="73.3999,-73.1992 264.6,-73.1992 "/>
<text text-anchor="middle" x="169" y="-59.1992" font-family="sans-serif" font-size="10.00"> </text>
<polyline fill="none" stroke="black" points="73.3999,-51.0664 264.6,-51.0664 "/>
<text text-anchor="start" x="81.3999" y="-37.0664" font-family="sans-serif" font-size="10.00">+ AsyncFetchSMILMessage()</text>
<text text-anchor="start" x="81.3999" y="-22.9336" font-family="sans-serif" font-size="10.00"># doInBackground()</text>
<text text-anchor="start" x="81.3999" y="-8.80078" font-family="sans-serif" font-size="10.00"># onPostExecute()</text>
</g>
<!-- Node2 -->
<g id="node2" class="node"><title>Node2</title>
<polygon fill="none" stroke="#bfbfbf" points="-0.833496,-132.801 -0.833496,-199.199 338.833,-199.199 338.833,-132.801 -0.833496,-132.801"/>
<text text-anchor="middle" x="169" y="-185.199" font-family="sans-serif" font-size="10.00">android::os::AsyncTask&lt; Long, Void, List&lt; SMILMessageProxy &gt; &gt;</text>
<polyline fill="none" stroke="#bfbfbf" points="-0.833496,-177.066 338.833,-177.066 "/>
<text text-anchor="middle" x="169" y="-163.066" font-family="sans-serif" font-size="10.00"> </text>
<polyline fill="none" stroke="#bfbfbf" points="-0.833496,-154.934 338.833,-154.934 "/>
<text text-anchor="middle" x="169" y="-140.934" font-family="sans-serif" font-size="10.00"> </text>
</g>
<!-- Node2&#45;&gt;Node1 -->
<g id="edge2" class="edge"><title>Node2&#45;&gt;Node1</title>
<path fill="none" stroke="midnightblue" d="M169,-122.61C169,-113.775 169,-104.418 169,-95.4454"/>
<polygon fill="none" stroke="midnightblue" points="165.5,-122.687 169,-132.688 172.5,-122.688 165.5,-122.687"/>
</g>
</g>
</svg>
