<?xml version="1.0" encoding="UTF-8" standalone="no"?>
<!DOCTYPE svg PUBLIC "-//W3C//DTD SVG 1.1//EN"
 "http://www.w3.org/Graphics/SVG/1.1/DTD/svg11.dtd">
<!-- Generated by graphviz version 2.28.0 (20111028.1807)
 -->
<!-- Title: G Pages: 1 -->
<svg width="878pt" height="153pt"
 viewBox="0.00 0.00 878.00 153.00" xmlns="http://www.w3.org/2000/svg" xmlns:xlink="http://www.w3.org/1999/xlink">
<g id="graph1" class="graph" transform="scale(1 1) rotate(0) translate(4 149)">
<title>G</title>
<!-- Node1 -->
<g id="node1" class="node"><title>Node1</title>
<polygon fill="#bfbfbf" stroke="black" points="0.604004,-60.9336 0.604004,-83.0664 273.396,-83.0664 273.396,-60.9336 0.604004,-60.9336"/>
<text text-anchor="middle" x="137" y="-69.0664" font-family="sans-serif" font-size="10.00">com.google.appengine.codelab.ProductServlet.doGet</text>
</g>
<!-- Node2 -->
<g id="node3" class="node"><title>Node2</title>
<a xlink:href="$classcom_1_1google_1_1appengine_1_1codelab_1_1_base_servlet.xhtml#abb34ecfcd902fafc62944237f49283b9" xlink:title="com.google.appengine.codelab.BaseServlet.doGet">
<polygon fill="none" stroke="black" points="322.194,-122.934 322.194,-145.066 579.806,-145.066 579.806,-122.934 322.194,-122.934"/>
<text text-anchor="middle" x="451" y="-131.066" font-family="sans-serif" font-size="10.00">com.google.appengine.codelab.BaseServlet.doGet</text>
</a>
</g>
<!-- Node1&#45;&gt;Node2 -->
<g id="edge2" class="edge"><title>Node1&#45;&gt;Node2</title>
<path fill="none" stroke="midnightblue" d="M180.193,-83.1186C214.879,-92.0025 265.397,-104.355 310,-113 325.486,-116.001 342.006,-118.818 358.069,-121.353"/>
<polygon fill="midnightblue" stroke="midnightblue" points="357.579,-124.819 367.998,-122.895 358.653,-117.902 357.579,-124.819"/>
</g>
<!-- Node3 -->
<g id="node5" class="node"><title>Node3</title>
<a xlink:href="$classcom_1_1google_1_1appengine_1_1codelab_1_1_product.xhtml#a4fb28dec3d7ae43c47581ecadb62012b" xlink:title="com.google.appengine.codelab.Product.getAllProducts">
<polygon fill="none" stroke="black" points="310.08,-81.9336 310.08,-104.066 591.92,-104.066 591.92,-81.9336 310.08,-81.9336"/>
<text text-anchor="middle" x="451" y="-90.0664" font-family="sans-serif" font-size="10.00">com.google.appengine.codelab.Product.getAllProducts</text>
</a>
</g>
<!-- Node1&#45;&gt;Node3 -->
<g id="edge4" class="edge"><title>Node1&#45;&gt;Node3</title>
<path fill="none" stroke="midnightblue" d="M273.487,-81.1193C282.115,-81.7001 290.829,-82.2866 299.52,-82.8715"/>
<polygon fill="midnightblue" stroke="midnightblue" points="299.493,-86.3776 309.706,-83.5571 299.963,-79.3934 299.493,-86.3776"/>
</g>
<!-- Node5 -->
<g id="node9" class="node"><title>Node5</title>
<a xlink:href="$classcom_1_1google_1_1appengine_1_1codelab_1_1_util.xhtml#a87d0f3bedf24d631c476ca62d10fb8d9" xlink:title="com.google.appengine.codelab.Util.writeJSON">
<polygon fill="none" stroke="black" points="331.816,-40.9336 331.816,-63.0664 570.184,-63.0664 570.184,-40.9336 331.816,-40.9336"/>
<text text-anchor="middle" x="451" y="-49.0664" font-family="sans-serif" font-size="10.00">com.google.appengine.codelab.Util.writeJSON</text>
</a>
</g>
<!-- Node1&#45;&gt;Node5 -->
<g id="edge8" class="edge"><title>Node1&#45;&gt;Node5</title>
<path fill="none" stroke="midnightblue" d="M273.487,-63.315C289.405,-62.2945 305.614,-61.2555 321.434,-60.2414"/>
<polygon fill="midnightblue" stroke="midnightblue" points="322.011,-63.7117 331.766,-59.5791 321.563,-56.726 322.011,-63.7117"/>
</g>
<!-- Node6 -->
<g id="node11" class="node"><title>Node6</title>
<a xlink:href="$classcom_1_1google_1_1appengine_1_1codelab_1_1_product.xhtml#a8281f8c29702347f39fcb651db5e073f" xlink:title="com.google.appengine.codelab.Product.getProduct">
<polygon fill="none" stroke="black" points="318.969,0.0664062 318.969,-22.0664 583.031,-22.0664 583.031,0.0664062 318.969,0.0664062"/>
<text text-anchor="middle" x="451" y="-8.06641" font-family="sans-serif" font-size="10.00">com.google.appengine.codelab.Product.getProduct</text>
</a>
</g>
<!-- Node1&#45;&gt;Node6 -->
<g id="edge10" class="edge"><title>Node1&#45;&gt;Node6</title>
<path fill="none" stroke="midnightblue" d="M179.826,-60.8885C214.513,-51.9496 265.217,-39.5176 310,-31 324.012,-28.3349 338.874,-25.8495 353.479,-23.5994"/>
<polygon fill="midnightblue" stroke="midnightblue" points="354.171,-27.0348 363.535,-22.0799 353.125,-20.1133 354.171,-27.0348"/>
</g>
<!-- Node4 -->
<g id="node7" class="node"><title>Node4</title>
<a xlink:href="$classcom_1_1google_1_1appengine_1_1codelab_1_1_util.xhtml#a450bc0facf36bb5525b4f66a18be74cd" xlink:title="com.google.appengine.codelab.Util.listEntities">
<polygon fill="none" stroke="black" points="628.554,-81.9336 628.554,-104.066 869.446,-104.066 869.446,-81.9336 628.554,-81.9336"/>
<text text-anchor="middle" x="749" y="-90.0664" font-family="sans-serif" font-size="10.00">com.google.appengine.codelab.Util.listEntities</text>
</a>
</g>
<!-- Node3&#45;&gt;Node4 -->
<g id="edge6" class="edge"><title>Node3&#45;&gt;Node4</title>
<path fill="none" stroke="midnightblue" d="M592.199,-93C600.898,-93 609.634,-93 618.284,-93"/>
<polygon fill="midnightblue" stroke="midnightblue" points="618.394,-96.5001 628.394,-93 618.394,-89.5001 618.394,-96.5001"/>
</g>
<!-- Node7 -->
<g id="node13" class="node"><title>Node7</title>
<a xlink:href="$classcom_1_1google_1_1appengine_1_1codelab_1_1_util.xhtml#a14548b6d0d079225ae5f6596542a1c0f" xlink:title="com.google.appengine.codelab.Util.findEntity">
<polygon fill="none" stroke="black" points="630.558,0.0664062 630.558,-22.0664 867.442,-22.0664 867.442,0.0664062 630.558,0.0664062"/>
<text text-anchor="middle" x="749" y="-8.06641" font-family="sans-serif" font-size="10.00">com.google.appengine.codelab.Util.findEntity</text>
</a>
</g>
<!-- Node6&#45;&gt;Node7 -->
<g id="edge12" class="edge"><title>Node6&#45;&gt;Node7</title>
<path fill="none" stroke="midnightblue" d="M583.123,-11C595.445,-11 607.926,-11 620.217,-11"/>
<polygon fill="midnightblue" stroke="midnightblue" points="620.49,-14.5001 630.49,-11 620.49,-7.5001 620.49,-14.5001"/>
</g>
</g>
</svg>
