<?xml version="1.0" encoding="UTF-8" standalone="no"?>
<!DOCTYPE svg PUBLIC "-//W3C//DTD SVG 1.1//EN"
 "http://www.w3.org/Graphics/SVG/1.1/DTD/svg11.dtd">
<!-- Generated by graphviz version 2.28.0 (20111028.1807)
 -->
<!-- Title: G Pages: 1 -->
<svg width="660pt" height="81pt"
 viewBox="0.00 0.00 660.00 81.00" xmlns="http://www.w3.org/2000/svg" xmlns:xlink="http://www.w3.org/1999/xlink">
<g id="graph1" class="graph" transform="scale(1 1) rotate(0) translate(4 77)">
<title>G</title>
<!-- Node1 -->
<g id="node1" class="node"><title>Node1</title>
<polygon fill="#bfbfbf" stroke="black" points="0.665527,-20.9336 0.665527,-43.0664 227.334,-43.0664 227.334,-20.9336 0.665527,-20.9336"/>
<text text-anchor="middle" x="114" y="-29.0664" font-family="sans-serif" font-size="10.00">csc440.nuf.parser.SMILHandler.endElement</text>
</g>
<!-- Node2 -->
<g id="node3" class="node"><title>Node2</title>
<a xlink:href="$classcsc440_1_1nuf_1_1parser_1_1_s_m_i_l_handler.xhtml#aa6eb041f2aed3eb2895323c762cd39de" xlink:title="csc440.nuf.parser.SMILHandler.add">
<polygon fill="none" stroke="black" points="264.014,-20.9336 264.014,-43.0664 451.986,-43.0664 451.986,-20.9336 264.014,-20.9336"/>
<text text-anchor="middle" x="358" y="-29.0664" font-family="sans-serif" font-size="10.00">csc440.nuf.parser.SMILHandler.add</text>
</a>
</g>
<!-- Node1&#45;&gt;Node2 -->
<g id="edge2" class="edge"><title>Node1&#45;&gt;Node2</title>
<path fill="none" stroke="midnightblue" d="M227.498,-32C236.281,-32 245.124,-32 253.841,-32"/>
<polygon fill="midnightblue" stroke="midnightblue" points="254.004,-35.5001 264.004,-32 254.004,-28.5001 254.004,-35.5001"/>
</g>
<!-- Node3 -->
<g id="node5" class="node"><title>Node3</title>
<a xlink:href="$classcsc440_1_1nuf_1_1complay_1_1_waiting.xhtml#aaa8d6d536f680a183de75424e4d95627" xlink:title="csc440.nuf.complay.Waiting.Q">
<polygon fill="none" stroke="black" points="488.301,-50.9336 488.301,-73.0664 651.699,-73.0664 651.699,-50.9336 488.301,-50.9336"/>
<text text-anchor="middle" x="570" y="-59.0664" font-family="sans-serif" font-size="10.00">csc440.nuf.complay.Waiting.Q</text>
</a>
</g>
<!-- Node1&#45;&gt;Node3 -->
<g id="edge8" class="edge"><title>Node1&#45;&gt;Node3</title>
<path fill="none" stroke="midnightblue" d="M186.46,-43.0774C210.984,-46.4833 238.64,-49.8877 264,-52 335.745,-57.976 417.262,-60.4253 477.961,-61.4082"/>
<polygon fill="midnightblue" stroke="midnightblue" points="478.229,-64.9126 488.28,-61.5645 478.335,-57.9134 478.229,-64.9126"/>
</g>
<!-- Node4 -->
<g id="node7" class="node"><title>Node4</title>
<a xlink:href="$classcsc440_1_1nuf_1_1complay_1_1_q.xhtml#aaa9e1371272a3d71932a7b753155741b" xlink:title="csc440.nuf.complay.Q.push">
<polygon fill="none" stroke="black" points="494.419,0.0664062 494.419,-22.0664 645.581,-22.0664 645.581,0.0664062 494.419,0.0664062"/>
<text text-anchor="middle" x="570" y="-8.06641" font-family="sans-serif" font-size="10.00">csc440.nuf.complay.Q.push</text>
</a>
</g>
<!-- Node1&#45;&gt;Node4 -->
<g id="edge10" class="edge"><title>Node1&#45;&gt;Node4</title>
<path fill="none" stroke="midnightblue" d="M179.332,-20.9263C205.511,-16.9448 236.116,-12.9553 264,-11 338.304,-5.78958 423.04,-6.30529 484.309,-7.82746"/>
<polygon fill="midnightblue" stroke="midnightblue" points="484.229,-11.3265 494.318,-8.09023 484.413,-4.32889 484.229,-11.3265"/>
</g>
<!-- Node2&#45;&gt;Node3 -->
<g id="edge4" class="edge"><title>Node2&#45;&gt;Node3</title>
<path fill="none" stroke="midnightblue" d="M436.6,-43.0857C451.124,-45.1606 466.401,-47.3429 481.208,-49.4583"/>
<polygon fill="midnightblue" stroke="midnightblue" points="480.974,-52.9604 491.369,-50.9099 481.964,-46.0307 480.974,-52.9604"/>
</g>
<!-- Node2&#45;&gt;Node4 -->
<g id="edge6" class="edge"><title>Node2&#45;&gt;Node4</title>
<path fill="none" stroke="midnightblue" d="M452.026,-22.6974C462.751,-21.6249 473.645,-20.5355 484.252,-19.4748"/>
<polygon fill="midnightblue" stroke="midnightblue" points="484.717,-22.9458 494.319,-18.4681 484.02,-15.9806 484.717,-22.9458"/>
</g>
</g>
</svg>
