<?xml version="1.0" encoding="UTF-8" standalone="no"?>
<!DOCTYPE svg PUBLIC "-//W3C//DTD SVG 1.1//EN"
 "http://www.w3.org/Graphics/SVG/1.1/DTD/svg11.dtd">
<!-- Generated by graphviz version 2.28.0 (20111028.1807)
 -->
<!-- Title: G Pages: 1 -->
<svg width="988pt" height="153pt"
 viewBox="0.00 0.00 988.00 153.00" xmlns="http://www.w3.org/2000/svg" xmlns:xlink="http://www.w3.org/1999/xlink">
<g id="graph1" class="graph" transform="scale(1 1) rotate(0) translate(4 149)">
<title>G</title>
<!-- Node1 -->
<g id="node1" class="node"><title>Node1</title>
<polygon fill="#bfbfbf" stroke="black" points="0.359863,-102.934 0.359863,-125.066 173.64,-125.066 173.64,-102.934 0.359863,-102.934"/>
<text text-anchor="middle" x="87" y="-111.066" font-family="sans-serif" font-size="10.00">csc440.nuf.complay.OnScreen.Q</text>
</g>
<!-- Node2 -->
<g id="node3" class="node"><title>Node2</title>
<a xlink:href="$classcsc440_1_1nuf_1_1complay_1_1_player_canvas.xhtml#aa0797d703af20d0ada15e590da003617" xlink:title="csc440.nuf.complay.PlayerCanvas.run">
<polygon fill="none" stroke="black" points="735.318,-122.934 735.318,-145.066 934.682,-145.066 934.682,-122.934 735.318,-122.934"/>
<text text-anchor="middle" x="835" y="-131.066" font-family="sans-serif" font-size="10.00">csc440.nuf.complay.PlayerCanvas.run</text>
</a>
</g>
<!-- Node1&#45;&gt;Node2 -->
<g id="edge2" class="edge"><title>Node1&#45;&gt;Node2</title>
<path fill="none" stroke="midnightblue" d="M183.958,-116.573C326.099,-120.383 591.254,-127.492 735.082,-131.348"/>
<polygon fill="midnightblue" stroke="midnightblue" points="184.03,-113.073 173.94,-116.304 183.842,-120.071 184.03,-113.073"/>
</g>
<!-- Node3 -->
<g id="node5" class="node"><title>Node3</title>
<a xlink:href="$classcsc440_1_1nuf_1_1complay_1_1_timer.xhtml#aebbe2beb25856951b72d866d783ce897" xlink:title="csc440.nuf.complay.Timer.setTime">
<polygon fill="none" stroke="black" points="209.834,-82.9336 209.834,-105.066 396.166,-105.066 396.166,-82.9336 209.834,-82.9336"/>
<text text-anchor="middle" x="303" y="-91.0664" font-family="sans-serif" font-size="10.00">csc440.nuf.complay.Timer.setTime</text>
</a>
</g>
<!-- Node1&#45;&gt;Node3 -->
<g id="edge4" class="edge"><title>Node1&#45;&gt;Node3</title>
<path fill="none" stroke="midnightblue" d="M183.789,-105.048C192.34,-104.249 200.988,-103.44 209.51,-102.644"/>
<polygon fill="midnightblue" stroke="midnightblue" points="183.44,-101.565 173.809,-105.98 184.091,-108.535 183.44,-101.565"/>
</g>
<!-- Node4 -->
<g id="node7" class="node"><title>Node4</title>
<a xlink:href="$classcsc440_1_1nuf_1_1complay_1_1_player_canvas.xhtml#a64eae2e9ed26456ab5b104436c97d78f" xlink:title="csc440.nuf.complay.PlayerCanvas.setTime">
<polygon fill="none" stroke="black" points="432.305,-40.9336 432.305,-63.0664 653.695,-63.0664 653.695,-40.9336 432.305,-40.9336"/>
<text text-anchor="middle" x="543" y="-49.0664" font-family="sans-serif" font-size="10.00">csc440.nuf.complay.PlayerCanvas.setTime</text>
</a>
</g>
<!-- Node3&#45;&gt;Node4 -->
<g id="edge6" class="edge"><title>Node3&#45;&gt;Node4</title>
<path fill="none" stroke="midnightblue" d="M376.808,-81.1515C409.533,-75.3765 447.775,-68.628 479.218,-63.0792"/>
<polygon fill="midnightblue" stroke="midnightblue" points="376.083,-77.7254 366.843,-82.9101 377.299,-84.6189 376.083,-77.7254"/>
</g>
<!-- Node8 -->
<g id="node15" class="node"><title>Node8</title>
<a xlink:href="$classcsc440_1_1nuf_1_1complay_1_1_timer.xhtml#aff1846d75c64aee648b2321f9ea62314" xlink:title="csc440.nuf.complay.Timer.timePlusPlus">
<polygon fill="none" stroke="black" points="438.608,-82.9336 438.608,-105.066 647.392,-105.066 647.392,-82.9336 438.608,-82.9336"/>
<text text-anchor="middle" x="543" y="-91.0664" font-family="sans-serif" font-size="10.00">csc440.nuf.complay.Timer.timePlusPlus</text>
</a>
</g>
<!-- Node3&#45;&gt;Node8 -->
<g id="edge14" class="edge"><title>Node3&#45;&gt;Node8</title>
<path fill="none" stroke="midnightblue" d="M406.402,-94C416.948,-94 427.67,-94 438.23,-94"/>
<polygon fill="midnightblue" stroke="midnightblue" points="406.358,-90.5001 396.358,-94 406.358,-97.5001 406.358,-90.5001"/>
</g>
<!-- Node5 -->
<g id="node9" class="node"><title>Node5</title>
<a xlink:href="$classcsc440_1_1nuf_1_1complay_1_1_player_activity.xhtml#a592b9fe89b9076e65456181c0e389e3c" xlink:title="csc440.nuf.complay.PlayerActivity.onCreate">
<polygon fill="none" stroke="black" points="721.067,-81.9336 721.067,-104.066 948.933,-104.066 948.933,-81.9336 721.067,-81.9336"/>
<text text-anchor="middle" x="835" y="-90.0664" font-family="sans-serif" font-size="10.00">csc440.nuf.complay.PlayerActivity.onCreate</text>
</a>
</g>
<!-- Node4&#45;&gt;Node5 -->
<g id="edge8" class="edge"><title>Node4&#45;&gt;Node5</title>
<path fill="none" stroke="midnightblue" d="M632.579,-64.5233C671.866,-70.0776 717.699,-76.5574 755.711,-81.9315"/>
<polygon fill="midnightblue" stroke="midnightblue" points="632.87,-61.0296 622.478,-63.0952 631.89,-67.9607 632.87,-61.0296"/>
</g>
<!-- Node6 -->
<g id="node11" class="node"><title>Node6</title>
<a xlink:href="$classcsc440_1_1nuf_1_1complay_1_1_player_activity.xhtml#a042e95babe17fab59ba7d71a6dfc9dbb" xlink:title="csc440.nuf.complay.PlayerActivity.onStopTrackingTouch">
<polygon fill="none" stroke="black" points="689.876,-40.9336 689.876,-63.0664 980.124,-63.0664 980.124,-40.9336 689.876,-40.9336"/>
<text text-anchor="middle" x="835" y="-49.0664" font-family="sans-serif" font-size="10.00">csc440.nuf.complay.PlayerActivity.onStopTrackingTouch</text>
</a>
</g>
<!-- Node4&#45;&gt;Node6 -->
<g id="edge10" class="edge"><title>Node4&#45;&gt;Node6</title>
<path fill="none" stroke="midnightblue" d="M664.266,-52C672.695,-52 681.239,-52 689.779,-52"/>
<polygon fill="midnightblue" stroke="midnightblue" points="664.05,-48.5001 654.05,-52 664.05,-55.5001 664.05,-48.5001"/>
</g>
<!-- Node7 -->
<g id="node13" class="node"><title>Node7</title>
<a xlink:href="$classcsc440_1_1nuf_1_1complay_1_1_player_activity.xhtml#a7f5eb45ffac9b23a602a8ba76dbb6d47" xlink:title="csc440.nuf.complay.PlayerActivity.playPause">
<polygon fill="none" stroke="black" points="719.021,0.0664062 719.021,-22.0664 950.979,-22.0664 950.979,0.0664062 719.021,0.0664062"/>
<text text-anchor="middle" x="835" y="-8.06641" font-family="sans-serif" font-size="10.00">csc440.nuf.complay.PlayerActivity.playPause</text>
</a>
</g>
<!-- Node4&#45;&gt;Node7 -->
<g id="edge12" class="edge"><title>Node4&#45;&gt;Node7</title>
<path fill="none" stroke="midnightblue" d="M630.619,-39.4704C650.148,-36.6652 670.783,-33.7166 690,-31 710.618,-28.0854 732.902,-24.9723 753.637,-22.0912"/>
<polygon fill="midnightblue" stroke="midnightblue" points="629.921,-36.0347 620.521,-40.9223 630.917,-42.9635 629.921,-36.0347"/>
</g>
<!-- Node8&#45;&gt;Node2 -->
<g id="edge16" class="edge"><title>Node8&#45;&gt;Node2</title>
<path fill="none" stroke="midnightblue" d="M634.477,-106.48C672.641,-111.744 716.704,-117.821 753.699,-122.924"/>
<polygon fill="midnightblue" stroke="midnightblue" points="634.781,-102.988 624.396,-105.089 633.824,-109.923 634.781,-102.988"/>
</g>
</g>
</svg>
