<?xml version="1.0" encoding="UTF-8" standalone="no"?>
<!DOCTYPE svg PUBLIC "-//W3C//DTD SVG 1.1//EN"
 "http://www.w3.org/Graphics/SVG/1.1/DTD/svg11.dtd">
<!-- Generated by graphviz version 2.28.0 (20111028.1807)
 -->
<!-- Title: G Pages: 1 -->
<svg width="554pt" height="222pt"
 viewBox="0.00 0.00 553.67 222.00" xmlns="http://www.w3.org/2000/svg" xmlns:xlink="http://www.w3.org/1999/xlink">
<g id="graph1" class="graph" transform="scale(1 1) rotate(0) translate(4 218)">
<title>G</title>
<!-- Node1 -->
<g id="node1" class="node"><title>Node1</title>
<polygon fill="#bfbfbf" stroke="black" points="150.094,-0.734375 150.094,-81.2656 307.906,-81.2656 307.906,-0.734375 150.094,-0.734375"/>
<text text-anchor="middle" x="229" y="-67.2656" font-family="sans-serif" font-size="10.00">csc440.nuf.client.SMILWidget</text>
<polyline fill="none" stroke="black" points="150.094,-59.1328 307.906,-59.1328 "/>
<text text-anchor="start" x="158.094" y="-45.1328" font-family="sans-serif" font-size="10.00">~ sayHelloButton</text>
<text text-anchor="start" x="158.094" y="-31" font-family="sans-serif" font-size="10.00">~ sendMessageButton</text>
<polyline fill="none" stroke="black" points="150.094,-22.8672 307.906,-22.8672 "/>
<text text-anchor="start" x="158.094" y="-8.86719" font-family="sans-serif" font-size="10.00">+ SMILWidget()</text>
</g>
<!-- Node2 -->
<g id="node2" class="node"><title>Node2</title>
<polygon fill="none" stroke="#bfbfbf" points="-0.0668945,-146.801 -0.0668945,-213.199 68.0669,-213.199 68.0669,-146.801 -0.0668945,-146.801"/>
<text text-anchor="middle" x="34" y="-199.199" font-family="sans-serif" font-size="10.00">Composite</text>
<polyline fill="none" stroke="#bfbfbf" points="-0.0668945,-191.066 68.0669,-191.066 "/>
<text text-anchor="middle" x="34" y="-177.066" font-family="sans-serif" font-size="10.00"> </text>
<polyline fill="none" stroke="#bfbfbf" points="-0.0668945,-168.934 68.0669,-168.934 "/>
<text text-anchor="middle" x="34" y="-154.934" font-family="sans-serif" font-size="10.00"> </text>
</g>
<!-- Node2&#45;&gt;Node1 -->
<g id="edge2" class="edge"><title>Node2&#45;&gt;Node1</title>
<path fill="none" stroke="midnightblue" d="M76.4592,-146.399C76.6398,-146.266 76.8201,-146.133 77,-146 106.984,-123.897 141.157,-100.373 169.496,-81.2994"/>
<polygon fill="none" stroke="midnightblue" points="74.0969,-143.795 68.177,-152.581 78.2843,-149.404 74.0969,-143.795"/>
</g>
<!-- Node3 -->
<g id="node4" class="node"><title>Node3</title>
<polygon fill="none" stroke="#bfbfbf" points="85.8936,-146.801 85.8936,-213.199 130.106,-213.199 130.106,-146.801 85.8936,-146.801"/>
<text text-anchor="middle" x="108" y="-199.199" font-family="sans-serif" font-size="10.00">Timer</text>
<polyline fill="none" stroke="#bfbfbf" points="85.8936,-191.066 130.106,-191.066 "/>
<text text-anchor="middle" x="108" y="-177.066" font-family="sans-serif" font-size="10.00"> </text>
<polyline fill="none" stroke="#bfbfbf" points="85.8936,-168.934 130.106,-168.934 "/>
<text text-anchor="middle" x="108" y="-154.934" font-family="sans-serif" font-size="10.00"> </text>
</g>
<!-- Node3&#45;&gt;Node1 -->
<g id="edge4" class="edge"><title>Node3&#45;&gt;Node1</title>
<path fill="none" stroke="#404040" d="M130.355,-147.335C141.253,-132.523 154.866,-114.905 168.206,-100 171.152,-96.7086 174.252,-93.3843 177.427,-90.0809"/>
<polygon fill="none" stroke="#404040" points="177.536,-89.9708 178.898,-82.8894 185.958,-81.4228 184.596,-88.5042 177.536,-89.9708"/>
<text text-anchor="middle" x="183.397" y="-111.066" font-family="sans-serif" font-size="10.00"> timer</text>
</g>
<!-- Node4 -->
<g id="node6" class="node"><title>Node4</title>
<polygon fill="none" stroke="#bfbfbf" points="147.854,-146.801 147.854,-213.199 218.146,-213.199 218.146,-146.801 147.854,-146.801"/>
<text text-anchor="middle" x="183" y="-199.199" font-family="sans-serif" font-size="10.00">DivElement</text>
<polyline fill="none" stroke="#bfbfbf" points="147.854,-191.066 218.146,-191.066 "/>
<text text-anchor="middle" x="183" y="-177.066" font-family="sans-serif" font-size="10.00"> </text>
<polyline fill="none" stroke="#bfbfbf" points="147.854,-168.934 218.146,-168.934 "/>
<text text-anchor="middle" x="183" y="-154.934" font-family="sans-serif" font-size="10.00"> </text>
</g>
<!-- Node4&#45;&gt;Node1 -->
<g id="edge6" class="edge"><title>Node4&#45;&gt;Node1</title>
<path fill="none" stroke="#404040" d="M193.901,-146.533C199.284,-130.501 205.904,-110.787 211.938,-92.816"/>
<polygon fill="none" stroke="#404040" points="211.98,-92.6905 210.098,-85.7293 215.799,-81.3146 217.682,-88.2758 211.98,-92.6905"/>
<text text-anchor="middle" x="225.284" y="-111.066" font-family="sans-serif" font-size="10.00"> status</text>
</g>
<!-- Node5 -->
<g id="node8" class="node"><title>Node5</title>
<polygon fill="none" stroke="#bfbfbf" points="235.969,-146.801 235.969,-213.199 316.031,-213.199 316.031,-146.801 235.969,-146.801"/>
<text text-anchor="middle" x="276" y="-199.199" font-family="sans-serif" font-size="10.00">InputElement</text>
<polyline fill="none" stroke="#bfbfbf" points="235.969,-191.066 316.031,-191.066 "/>
<text text-anchor="middle" x="276" y="-177.066" font-family="sans-serif" font-size="10.00"> </text>
<polyline fill="none" stroke="#bfbfbf" points="235.969,-168.934 316.031,-168.934 "/>
<text text-anchor="middle" x="276" y="-154.934" font-family="sans-serif" font-size="10.00"> </text>
</g>
<!-- Node5&#45;&gt;Node1 -->
<g id="edge8" class="edge"><title>Node5&#45;&gt;Node1</title>
<path fill="none" stroke="#404040" d="M264.862,-146.533C259.361,-130.501 252.598,-110.787 246.433,-92.816"/>
<polygon fill="none" stroke="#404040" points="246.382,-92.6652 240.651,-88.288 242.487,-81.3146 248.218,-85.6919 246.382,-92.6652"/>
<text text-anchor="middle" x="292.813" y="-111.066" font-family="sans-serif" font-size="10.00"> recipientArea</text>
</g>
<!-- Node6 -->
<g id="node10" class="node"><title>Node6</title>
<polygon fill="none" stroke="#bfbfbf" points="333.706,-146.801 333.706,-213.199 432.294,-213.199 432.294,-146.801 333.706,-146.801"/>
<text text-anchor="middle" x="383" y="-199.199" font-family="sans-serif" font-size="10.00">TextAreaElement</text>
<polyline fill="none" stroke="#bfbfbf" points="333.706,-191.066 432.294,-191.066 "/>
<text text-anchor="middle" x="383" y="-177.066" font-family="sans-serif" font-size="10.00"> </text>
<polyline fill="none" stroke="#bfbfbf" points="333.706,-168.934 432.294,-168.934 "/>
<text text-anchor="middle" x="383" y="-154.934" font-family="sans-serif" font-size="10.00"> </text>
</g>
<!-- Node6&#45;&gt;Node1 -->
<g id="edge10" class="edge"><title>Node6&#45;&gt;Node1</title>
<path fill="none" stroke="#404040" d="M365.825,-146.468C356.626,-131.116 344.252,-113.293 330,-100 325.742,-96.0285 321.164,-92.2166 316.391,-88.5786"/>
<polygon fill="none" stroke="#404040" points="316.102,-88.3706 308.896,-88.1117 306.363,-81.36 313.57,-81.6189 316.102,-88.3706"/>
<text text-anchor="middle" x="387.84" y="-111.066" font-family="sans-serif" font-size="10.00"> messageArea</text>
</g>
<!-- Node7 -->
<g id="node12" class="node"><title>Node7</title>
<polygon fill="none" stroke="#bfbfbf" points="450.106,-146.801 450.106,-213.199 497.894,-213.199 497.894,-146.801 450.106,-146.801"/>
<text text-anchor="middle" x="474" y="-199.199" font-family="sans-serif" font-size="10.00">Button</text>
<polyline fill="none" stroke="#bfbfbf" points="450.106,-191.066 497.894,-191.066 "/>
<text text-anchor="middle" x="474" y="-177.066" font-family="sans-serif" font-size="10.00"> </text>
<polyline fill="none" stroke="#bfbfbf" points="450.106,-168.934 497.894,-168.934 "/>
<text text-anchor="middle" x="474" y="-154.934" font-family="sans-serif" font-size="10.00"> </text>
</g>
<!-- Node7&#45;&gt;Node1 -->
<g id="edge12" class="edge"><title>Node7&#45;&gt;Node1</title>
<path fill="none" stroke="#404040" d="M460.646,-146.541C452.517,-130.444 440.655,-111.942 425,-100 394.708,-76.8924 355.351,-62.9655 319.859,-54.583"/>
<polygon fill="none" stroke="#404040" points="319.705,-54.5488 312.981,-57.1531 307.99,-51.9476 314.715,-49.3433 319.705,-54.5488"/>
<text text-anchor="middle" x="497.333" y="-118.133" font-family="sans-serif" font-size="10.00"> sayHelloButton</text>
<text text-anchor="middle" x="497.333" y="-104" font-family="sans-serif" font-size="10.00">sendMessageButton</text>
</g>
</g>
</svg>
