<?xml version="1.0" encoding="UTF-8" standalone="no"?>
<!DOCTYPE svg PUBLIC "-//W3C//DTD SVG 1.1//EN"
 "http://www.w3.org/Graphics/SVG/1.1/DTD/svg11.dtd">
<!-- Generated by graphviz version 2.28.0 (20111028.1807)
 -->
<!-- Title: G Pages: 1 -->
<svg width="936pt" height="30pt"
 viewBox="0.00 0.00 936.00 30.00" xmlns="http://www.w3.org/2000/svg" xmlns:xlink="http://www.w3.org/1999/xlink">
<g id="graph1" class="graph" transform="scale(1 1) rotate(0) translate(4 26)">
<title>G</title>
<!-- Node1 -->
<g id="node1" class="node"><title>Node1</title>
<polygon fill="#bfbfbf" stroke="black" points="0.193359,0.0664062 0.193359,-22.0664 199.807,-22.0664 199.807,0.0664062 0.193359,0.0664062"/>
<text text-anchor="middle" x="100" y="-8.06641" font-family="sans-serif" font-size="10.00">csc440.nuf.C2DMReceiver.onMessage</text>
</g>
<!-- Node2 -->
<g id="node3" class="node"><title>Node2</title>
<a xlink:href="$classcsc440_1_1nuf_1_1_message_display.xhtml#adf7092394387e6226d21bfa80c15b28d" xlink:title="csc440.nuf.MessageDisplay.displayMessage">
<polygon fill="none" stroke="black" points="236.533,0.0664062 236.533,-22.0664 465.467,-22.0664 465.467,0.0664062 236.533,0.0664062"/>
<text text-anchor="middle" x="351" y="-8.06641" font-family="sans-serif" font-size="10.00">csc440.nuf.MessageDisplay.displayMessage</text>
</a>
</g>
<!-- Node1&#45;&gt;Node2 -->
<g id="edge2" class="edge"><title>Node1&#45;&gt;Node2</title>
<path fill="none" stroke="midnightblue" d="M200.127,-11C208.705,-11 217.451,-11 226.192,-11"/>
<polygon fill="midnightblue" stroke="midnightblue" points="226.441,-14.5001 236.441,-11 226.441,-7.5001 226.441,-14.5001"/>
</g>
<!-- Node3 -->
<g id="node5" class="node"><title>Node3</title>
<a xlink:href="$classcsc440_1_1nuf_1_1_util.xhtml#adbbee48d176f30c61d5819634d17b73a" xlink:title="csc440.nuf.Util.generateNotification">
<polygon fill="none" stroke="black" points="502.458,0.0664062 502.458,-22.0664 693.542,-22.0664 693.542,0.0664062 502.458,0.0664062"/>
<text text-anchor="middle" x="598" y="-8.06641" font-family="sans-serif" font-size="10.00">csc440.nuf.Util.generateNotification</text>
</a>
</g>
<!-- Node2&#45;&gt;Node3 -->
<g id="edge4" class="edge"><title>Node2&#45;&gt;Node3</title>
<path fill="none" stroke="midnightblue" d="M465.535,-11C474.352,-11 483.231,-11 491.988,-11"/>
<polygon fill="midnightblue" stroke="midnightblue" points="492.201,-14.5001 502.201,-11 492.201,-7.5001 492.201,-14.5001"/>
</g>
<!-- Node4 -->
<g id="node7" class="node"><title>Node4</title>
<a xlink:href="$classcsc440_1_1nuf_1_1_util.xhtml#a048158fe7160473100aaae303ef393e4" xlink:title="csc440.nuf.Util.getSharedPreferences">
<polygon fill="none" stroke="black" points="730.47,0.0664062 730.47,-22.0664 927.53,-22.0664 927.53,0.0664062 730.47,0.0664062"/>
<text text-anchor="middle" x="829" y="-8.06641" font-family="sans-serif" font-size="10.00">csc440.nuf.Util.getSharedPreferences</text>
</a>
</g>
<!-- Node3&#45;&gt;Node4 -->
<g id="edge6" class="edge"><title>Node3&#45;&gt;Node4</title>
<path fill="none" stroke="midnightblue" d="M693.796,-11C702.463,-11 711.285,-11 720.056,-11"/>
<polygon fill="midnightblue" stroke="midnightblue" points="720.317,-14.5001 730.316,-11 720.316,-7.5001 720.317,-14.5001"/>
</g>
</g>
</svg>
