<?xml version="1.0" encoding="UTF-8" standalone="no"?>
<!DOCTYPE svg PUBLIC "-//W3C//DTD SVG 1.1//EN"
 "http://www.w3.org/Graphics/SVG/1.1/DTD/svg11.dtd">
<!-- Generated by graphviz version 2.28.0 (20111028.1807)
 -->
<!-- Title: G Pages: 1 -->
<svg width="914pt" height="194pt"
 viewBox="0.00 0.00 914.00 194.00" xmlns="http://www.w3.org/2000/svg" xmlns:xlink="http://www.w3.org/1999/xlink">
<g id="graph1" class="graph" transform="scale(1 1) rotate(0) translate(4 190)">
<title>G</title>
<!-- Node1 -->
<g id="node1" class="node"><title>Node1</title>
<polygon fill="#bfbfbf" stroke="black" points="-0.097168,-121.934 -0.097168,-144.066 220.097,-144.066 220.097,-121.934 -0.097168,-121.934"/>
<text text-anchor="middle" x="110" y="-130.066" font-family="sans-serif" font-size="10.00">csc440.nuf.C2DMReceiver.onUnregistered</text>
</g>
<!-- Node2 -->
<g id="node3" class="node"><title>Node2</title>
<a xlink:href="$classcsc440_1_1nuf_1_1_util.xhtml#a048158fe7160473100aaae303ef393e4" xlink:title="csc440.nuf.Util.getSharedPreferences">
<polygon fill="none" stroke="black" points="626.47,-163.934 626.47,-186.066 823.53,-186.066 823.53,-163.934 626.47,-163.934"/>
<text text-anchor="middle" x="725" y="-172.066" font-family="sans-serif" font-size="10.00">csc440.nuf.Util.getSharedPreferences</text>
</a>
</g>
<!-- Node1&#45;&gt;Node2 -->
<g id="edge2" class="edge"><title>Node1&#45;&gt;Node2</title>
<path fill="none" stroke="midnightblue" d="M220.239,-140.485C332.059,-148.146 504.784,-159.98 616.111,-167.608"/>
<polygon fill="midnightblue" stroke="midnightblue" points="616.138,-171.118 626.354,-168.31 616.617,-164.134 616.138,-171.118"/>
</g>
<!-- Node3 -->
<g id="node5" class="node"><title>Node3</title>
<a xlink:href="$classcsc440_1_1nuf_1_1_device_registrar.xhtml#a588aba958edca877d7f3f995d8854dbd" xlink:title="csc440.nuf.DeviceRegistrar.registerOrUnregister">
<polygon fill="none" stroke="black" points="256.573,-91.9336 256.573,-114.066 507.427,-114.066 507.427,-91.9336 256.573,-91.9336"/>
<text text-anchor="middle" x="382" y="-100.066" font-family="sans-serif" font-size="10.00">csc440.nuf.DeviceRegistrar.registerOrUnregister</text>
</a>
</g>
<!-- Node1&#45;&gt;Node3 -->
<g id="edge4" class="edge"><title>Node1&#45;&gt;Node3</title>
<path fill="none" stroke="midnightblue" d="M210.771,-121.914C230.433,-119.73 251.167,-117.426 271.139,-115.207"/>
<polygon fill="midnightblue" stroke="midnightblue" points="271.636,-118.673 281.189,-114.09 270.863,-111.716 271.636,-118.673"/>
</g>
<!-- Node3&#45;&gt;Node2 -->
<g id="edge6" class="edge"><title>Node3&#45;&gt;Node2</title>
<path fill="none" stroke="midnightblue" d="M412.219,-114.116C444.134,-125.816 496.986,-143.908 544,-154 567.148,-158.969 592.24,-162.831 616.133,-165.808"/>
<polygon fill="midnightblue" stroke="midnightblue" points="615.944,-169.311 626.291,-167.03 616.78,-162.361 615.944,-169.311"/>
</g>
<!-- Node4 -->
<g id="node8" class="node"><title>Node4</title>
<a xlink:href="$interfacecsc440_1_1nuf_1_1shared_1_1_registration_info_proxy.xhtml#adfd37626741163e3b5b1e815af150e23" xlink:title="csc440.nuf.shared.RegistrationInfoProxy.setDeviceRegistrationId">
<polygon fill="none" stroke="black" points="559.913,-122.934 559.913,-145.066 890.087,-145.066 890.087,-122.934 559.913,-122.934"/>
<text text-anchor="middle" x="725" y="-131.066" font-family="sans-serif" font-size="10.00">csc440.nuf.shared.RegistrationInfoProxy.setDeviceRegistrationId</text>
</a>
</g>
<!-- Node3&#45;&gt;Node4 -->
<g id="edge8" class="edge"><title>Node3&#45;&gt;Node4</title>
<path fill="none" stroke="midnightblue" d="M505.146,-114.104C533.352,-116.668 563.484,-119.408 592.087,-122.008"/>
<polygon fill="midnightblue" stroke="midnightblue" points="591.859,-125.501 602.134,-122.921 592.492,-118.53 591.859,-125.501"/>
</g>
<!-- Node5 -->
<g id="node10" class="node"><title>Node5</title>
<a xlink:href="$interfacecsc440_1_1nuf_1_1shared_1_1_registration_info_proxy.xhtml#a3d96be9a03c6aa4547a680419561baff" xlink:title="csc440.nuf.shared.RegistrationInfoProxy.setDeviceId">
<polygon fill="none" stroke="black" points="589.139,-81.9336 589.139,-104.066 860.861,-104.066 860.861,-81.9336 589.139,-81.9336"/>
<text text-anchor="middle" x="725" y="-90.0664" font-family="sans-serif" font-size="10.00">csc440.nuf.shared.RegistrationInfoProxy.setDeviceId</text>
</a>
</g>
<!-- Node3&#45;&gt;Node5 -->
<g id="edge10" class="edge"><title>Node3&#45;&gt;Node5</title>
<path fill="none" stroke="midnightblue" d="M507.556,-99.3473C530.696,-98.6687 555.056,-97.9544 578.751,-97.2595"/>
<polygon fill="midnightblue" stroke="midnightblue" points="578.966,-100.755 588.86,-96.9631 578.761,-93.7578 578.966,-100.755"/>
</g>
<!-- Node6 -->
<g id="node12" class="node"><title>Node6</title>
<a xlink:href="$interfacecsc440_1_1nuf_1_1client_1_1_my_request_factory_1_1_registration_info_request.xhtml#a675270c3171bd35749e7552fa4e93546" xlink:title="csc440.nuf.client.MyRequestFactory.RegistrationInfoRequest.register">
<polygon fill="none" stroke="black" points="550.03,-40.9336 550.03,-63.0664 899.97,-63.0664 899.97,-40.9336 550.03,-40.9336"/>
<text text-anchor="middle" x="725" y="-49.0664" font-family="sans-serif" font-size="10.00">csc440.nuf.client.MyRequestFactory.RegistrationInfoRequest.register</text>
</a>
</g>
<!-- Node3&#45;&gt;Node6 -->
<g id="edge12" class="edge"><title>Node3&#45;&gt;Node6</title>
<path fill="none" stroke="midnightblue" d="M435.024,-91.8937C466.468,-85.4533 507.414,-77.5459 544,-72 562.531,-69.191 582.191,-66.6058 601.451,-64.2925"/>
<polygon fill="midnightblue" stroke="midnightblue" points="601.957,-67.7571 611.477,-63.1078 601.136,-60.8054 601.957,-67.7571"/>
</g>
<!-- Node7 -->
<g id="node14" class="node"><title>Node7</title>
<a xlink:href="$interfacecsc440_1_1nuf_1_1client_1_1_my_request_factory_1_1_registration_info_request.xhtml#a2135c9d95519fc4923751338733456de" xlink:title="csc440.nuf.client.MyRequestFactory.RegistrationInfoRequest.unregister">
<polygon fill="none" stroke="black" points="543.824,0.0664062 543.824,-22.0664 906.176,-22.0664 906.176,0.0664062 543.824,0.0664062"/>
<text text-anchor="middle" x="725" y="-8.06641" font-family="sans-serif" font-size="10.00">csc440.nuf.client.MyRequestFactory.RegistrationInfoRequest.unregister</text>
</a>
</g>
<!-- Node3&#45;&gt;Node7 -->
<g id="edge14" class="edge"><title>Node3&#45;&gt;Node7</title>
<path fill="none" stroke="midnightblue" d="M402.589,-91.8272C432.183,-75.5158 490.523,-45.5468 544,-31 553.887,-28.3107 564.173,-25.982 574.596,-23.9656"/>
<polygon fill="midnightblue" stroke="midnightblue" points="575.419,-27.3731 584.624,-22.1265 574.156,-20.488 575.419,-27.3731"/>
</g>
</g>
</svg>
