<?xml version="1.0" encoding="UTF-8" standalone="no"?>
<!DOCTYPE svg PUBLIC "-//W3C//DTD SVG 1.1//EN"
 "http://www.w3.org/Graphics/SVG/1.1/DTD/svg11.dtd">
<!-- Generated by graphviz version 2.28.0 (20111028.1807)
 -->
<!-- Title: G Pages: 1 -->
<svg width="702pt" height="30pt"
 viewBox="0.00 0.00 702.00 30.00" xmlns="http://www.w3.org/2000/svg" xmlns:xlink="http://www.w3.org/1999/xlink">
<g id="graph1" class="graph" transform="scale(1 1) rotate(0) translate(4 26)">
<title>G</title>
<!-- Node1 -->
<g id="node1" class="node"><title>Node1</title>
<polygon fill="#bfbfbf" stroke="black" points="0.458496,0.0664062 0.458496,-22.0664 191.542,-22.0664 191.542,0.0664062 0.458496,0.0664062"/>
<text text-anchor="middle" x="96" y="-8.06641" font-family="sans-serif" font-size="10.00">csc440.nuf.Util.generateNotification</text>
</g>
<!-- Node2 -->
<g id="node3" class="node"><title>Node2</title>
<a xlink:href="$classcsc440_1_1nuf_1_1_message_display.xhtml#adf7092394387e6226d21bfa80c15b28d" xlink:title="csc440.nuf.MessageDisplay.displayMessage">
<polygon fill="none" stroke="black" points="228.533,0.0664062 228.533,-22.0664 457.467,-22.0664 457.467,0.0664062 228.533,0.0664062"/>
<text text-anchor="middle" x="343" y="-8.06641" font-family="sans-serif" font-size="10.00">csc440.nuf.MessageDisplay.displayMessage</text>
</a>
</g>
<!-- Node1&#45;&gt;Node2 -->
<g id="edge2" class="edge"><title>Node1&#45;&gt;Node2</title>
<path fill="none" stroke="midnightblue" d="M201.913,-11C210.65,-11 219.509,-11 228.307,-11"/>
<polygon fill="midnightblue" stroke="midnightblue" points="201.723,-7.5001 191.723,-11 201.723,-14.5001 201.723,-7.5001"/>
</g>
<!-- Node3 -->
<g id="node5" class="node"><title>Node3</title>
<a xlink:href="$classcsc440_1_1nuf_1_1_c2_d_m_receiver.xhtml#a4fd8cbc3e17b49225e052b12547af03a" xlink:title="csc440.nuf.C2DMReceiver.onMessage">
<polygon fill="none" stroke="black" points="494.193,0.0664062 494.193,-22.0664 693.807,-22.0664 693.807,0.0664062 494.193,0.0664062"/>
<text text-anchor="middle" x="594" y="-8.06641" font-family="sans-serif" font-size="10.00">csc440.nuf.C2DMReceiver.onMessage</text>
</a>
</g>
<!-- Node2&#45;&gt;Node3 -->
<g id="edge4" class="edge"><title>Node2&#45;&gt;Node3</title>
<path fill="none" stroke="midnightblue" d="M467.588,-11C476.471,-11 485.361,-11 494.076,-11"/>
<polygon fill="midnightblue" stroke="midnightblue" points="467.57,-7.5001 457.57,-11 467.57,-14.5001 467.57,-7.5001"/>
</g>
</g>
</svg>
