<?xml version="1.0" encoding="UTF-8" standalone="no"?>
<!DOCTYPE svg PUBLIC "-//W3C//DTD SVG 1.1//EN"
 "http://www.w3.org/Graphics/SVG/1.1/DTD/svg11.dtd">
<!-- Generated by graphviz version 2.28.0 (20111028.1807)
 -->
<!-- Title: G Pages: 1 -->
<svg width="782pt" height="30pt"
 viewBox="0.00 0.00 782.00 30.00" xmlns="http://www.w3.org/2000/svg" xmlns:xlink="http://www.w3.org/1999/xlink">
<g id="graph1" class="graph" transform="scale(1 1) rotate(0) translate(4 26)">
<title>G</title>
<!-- Node1 -->
<g id="node1" class="node"><title>Node1</title>
<polygon fill="#bfbfbf" stroke="black" points="0.193848,0.0664062 0.193848,-22.0664 293.806,-22.0664 293.806,0.0664062 0.193848,0.0664062"/>
<text text-anchor="middle" x="147" y="-8.06641" font-family="sans-serif" font-size="10.00">csc440.nuf.server.SMILEngineService.querySMILMessages</text>
</g>
<!-- Node2 -->
<g id="node3" class="node"><title>Node2</title>
<a xlink:href="$classcsc440_1_1nuf_1_1server_1_1_data_store.xhtml#adeb95b19f2aef0eae3d55b5aabf63660" xlink:title="csc440.nuf.server.DataStore.findAll">
<polygon fill="none" stroke="black" points="330.255,0.0664062 330.255,-22.0664 517.745,-22.0664 517.745,0.0664062 330.255,0.0664062"/>
<text text-anchor="middle" x="424" y="-8.06641" font-family="sans-serif" font-size="10.00">csc440.nuf.server.DataStore.findAll</text>
</a>
</g>
<!-- Node1&#45;&gt;Node2 -->
<g id="edge2" class="edge"><title>Node1&#45;&gt;Node2</title>
<path fill="none" stroke="midnightblue" d="M293.955,-11C302.637,-11 311.274,-11 319.727,-11"/>
<polygon fill="midnightblue" stroke="midnightblue" points="319.937,-14.5001 329.937,-11 319.937,-7.5001 319.937,-14.5001"/>
</g>
<!-- Node3 -->
<g id="node5" class="node"><title>Node3</title>
<a xlink:href="$classcsc440_1_1nuf_1_1server_1_1_data_store.xhtml#a3749afd0edd374001b7a29ef14495ffc" xlink:title="csc440.nuf.server.DataStore.getUserEmail">
<polygon fill="none" stroke="black" points="554.42,0.0664062 554.42,-22.0664 773.58,-22.0664 773.58,0.0664062 554.42,0.0664062"/>
<text text-anchor="middle" x="664" y="-8.06641" font-family="sans-serif" font-size="10.00">csc440.nuf.server.DataStore.getUserEmail</text>
</a>
</g>
<!-- Node2&#45;&gt;Node3 -->
<g id="edge4" class="edge"><title>Node2&#45;&gt;Node3</title>
<path fill="none" stroke="midnightblue" d="M518.04,-11C526.567,-11 535.281,-11 543.996,-11"/>
<polygon fill="midnightblue" stroke="midnightblue" points="544.214,-14.5001 554.214,-11 544.214,-7.5001 544.214,-14.5001"/>
</g>
</g>
</svg>
