<?xml version="1.0" encoding="UTF-8" standalone="no"?>
<!DOCTYPE svg PUBLIC "-//W3C//DTD SVG 1.1//EN"
 "http://www.w3.org/Graphics/SVG/1.1/DTD/svg11.dtd">
<!-- Generated by graphviz version 2.28.0 (20111028.1807)
 -->
<!-- Title: G Pages: 1 -->
<svg width="1258pt" height="112pt"
 viewBox="0.00 0.00 1258.00 112.00" xmlns="http://www.w3.org/2000/svg" xmlns:xlink="http://www.w3.org/1999/xlink">
<g id="graph1" class="graph" transform="scale(1 1) rotate(0) translate(4 108)">
<title>G</title>
<!-- Node1 -->
<g id="node1" class="node"><title>Node1</title>
<polygon fill="#bfbfbf" stroke="black" points="-0.065918,-40.9336 -0.065918,-63.0664 256.066,-63.0664 256.066,-40.9336 -0.065918,-40.9336"/>
<text text-anchor="middle" x="128" y="-49.0664" font-family="sans-serif" font-size="10.00">com.google.appengine.codelab.ItemServlet.doPut</text>
</g>
<!-- Node2 -->
<g id="node3" class="node"><title>Node2</title>
<a xlink:href="$classcom_1_1google_1_1appengine_1_1codelab_1_1_item.xhtml#a1f0cd1ed3e9e496f6cd40cde580dc045" xlink:title="com.google.appengine.codelab.Item.createOrUpdateItem">
<polygon fill="none" stroke="black" points="292.423,-40.9336 292.423,-63.0664 585.577,-63.0664 585.577,-40.9336 292.423,-40.9336"/>
<text text-anchor="middle" x="439" y="-49.0664" font-family="sans-serif" font-size="10.00">com.google.appengine.codelab.Item.createOrUpdateItem</text>
</a>
</g>
<!-- Node1&#45;&gt;Node2 -->
<g id="edge2" class="edge"><title>Node1&#45;&gt;Node2</title>
<path fill="none" stroke="midnightblue" d="M256.466,-52C264.95,-52 273.546,-52 282.147,-52"/>
<polygon fill="midnightblue" stroke="midnightblue" points="282.241,-55.5001 292.241,-52 282.241,-48.5001 282.241,-55.5001"/>
</g>
<!-- Node3 -->
<g id="node5" class="node"><title>Node3</title>
<a xlink:href="$classcom_1_1google_1_1appengine_1_1codelab_1_1_product.xhtml#a8281f8c29702347f39fcb651db5e073f" xlink:title="com.google.appengine.codelab.Product.getProduct">
<polygon fill="none" stroke="black" points="621.969,-81.9336 621.969,-104.066 886.031,-104.066 886.031,-81.9336 621.969,-81.9336"/>
<text text-anchor="middle" x="754" y="-90.0664" font-family="sans-serif" font-size="10.00">com.google.appengine.codelab.Product.getProduct</text>
</a>
</g>
<!-- Node2&#45;&gt;Node3 -->
<g id="edge4" class="edge"><title>Node2&#45;&gt;Node3</title>
<path fill="none" stroke="midnightblue" d="M524.702,-63.0952C566.018,-68.5072 615.858,-75.0357 658.415,-80.6102"/>
<polygon fill="midnightblue" stroke="midnightblue" points="658.132,-84.103 668.502,-81.9315 659.041,-77.1623 658.132,-84.103"/>
</g>
<!-- Node5 -->
<g id="node9" class="node"><title>Node5</title>
<a xlink:href="$classcom_1_1google_1_1appengine_1_1codelab_1_1_item.xhtml#addfefc24274a9ae1e62dc123e4bc2a68" xlink:title="com.google.appengine.codelab.Item.getSingleItem">
<polygon fill="none" stroke="black" points="622.975,-40.9336 622.975,-63.0664 885.025,-63.0664 885.025,-40.9336 622.975,-40.9336"/>
<text text-anchor="middle" x="754" y="-49.0664" font-family="sans-serif" font-size="10.00">com.google.appengine.codelab.Item.getSingleItem</text>
</a>
</g>
<!-- Node2&#45;&gt;Node5 -->
<g id="edge8" class="edge"><title>Node2&#45;&gt;Node5</title>
<path fill="none" stroke="midnightblue" d="M585.962,-52C594.878,-52 603.84,-52 612.732,-52"/>
<polygon fill="midnightblue" stroke="midnightblue" points="612.734,-55.5001 622.734,-52 612.734,-48.5001 612.734,-55.5001"/>
</g>
<!-- Node7 -->
<g id="node13" class="node"><title>Node7</title>
<a xlink:href="$classcom_1_1google_1_1appengine_1_1codelab_1_1_util.xhtml#a95f645b216766041423363dd06815dc7" xlink:title="com.google.appengine.codelab.Util.persistEntity">
<polygon fill="none" stroke="black" points="628.639,0.0664062 628.639,-22.0664 879.361,-22.0664 879.361,0.0664062 628.639,0.0664062"/>
<text text-anchor="middle" x="754" y="-8.06641" font-family="sans-serif" font-size="10.00">com.google.appengine.codelab.Util.persistEntity</text>
</a>
</g>
<!-- Node2&#45;&gt;Node7 -->
<g id="edge12" class="edge"><title>Node2&#45;&gt;Node7</title>
<path fill="none" stroke="midnightblue" d="M524.702,-40.9048C566.018,-35.4928 615.858,-28.9643 658.415,-23.3898"/>
<polygon fill="midnightblue" stroke="midnightblue" points="659.041,-26.8377 668.502,-22.0685 658.132,-19.897 659.041,-26.8377"/>
</g>
<!-- Node4 -->
<g id="node7" class="node"><title>Node4</title>
<a xlink:href="$classcom_1_1google_1_1appengine_1_1codelab_1_1_util.xhtml#a14548b6d0d079225ae5f6596542a1c0f" xlink:title="com.google.appengine.codelab.Util.findEntity">
<polygon fill="none" stroke="black" points="967.558,-81.9336 967.558,-104.066 1204.44,-104.066 1204.44,-81.9336 967.558,-81.9336"/>
<text text-anchor="middle" x="1086" y="-90.0664" font-family="sans-serif" font-size="10.00">com.google.appengine.codelab.Util.findEntity</text>
</a>
</g>
<!-- Node3&#45;&gt;Node4 -->
<g id="edge6" class="edge"><title>Node3&#45;&gt;Node4</title>
<path fill="none" stroke="midnightblue" d="M886.373,-93C909.702,-93 933.967,-93 957.195,-93"/>
<polygon fill="midnightblue" stroke="midnightblue" points="957.433,-96.5001 967.433,-93 957.433,-89.5001 957.433,-96.5001"/>
</g>
<!-- Node6 -->
<g id="node11" class="node"><title>Node6</title>
<a xlink:href="$classcom_1_1google_1_1appengine_1_1codelab_1_1_util.xhtml#a097d93268afc438617bd7e13f0f0f5e7" xlink:title="com.google.appengine.codelab.Util.getDatastoreServiceInstance">
<polygon fill="none" stroke="black" points="922.331,-40.9336 922.331,-63.0664 1249.67,-63.0664 1249.67,-40.9336 922.331,-40.9336"/>
<text text-anchor="middle" x="1086" y="-49.0664" font-family="sans-serif" font-size="10.00">com.google.appengine.codelab.Util.getDatastoreServiceInstance</text>
</a>
</g>
<!-- Node5&#45;&gt;Node6 -->
<g id="edge10" class="edge"><title>Node5&#45;&gt;Node6</title>
<path fill="none" stroke="midnightblue" d="M885.425,-52C894.195,-52 903.101,-52 912.039,-52"/>
<polygon fill="midnightblue" stroke="midnightblue" points="912.138,-55.5001 922.137,-52 912.137,-48.5001 912.138,-55.5001"/>
</g>
</g>
</svg>
