<?xml version="1.0" encoding="UTF-8" standalone="no"?>
<!DOCTYPE svg PUBLIC "-//W3C//DTD SVG 1.1//EN"
 "http://www.w3.org/Graphics/SVG/1.1/DTD/svg11.dtd">
<!-- Generated by graphviz version 2.28.0 (20111028.1807)
 -->
<!-- Title: G Pages: 1 -->
<svg width="1264pt" height="91pt"
 viewBox="0.00 0.00 1264.00 91.00" xmlns="http://www.w3.org/2000/svg" xmlns:xlink="http://www.w3.org/1999/xlink">
<g id="graph1" class="graph" transform="scale(1 1) rotate(0) translate(4 87)">
<title>G</title>
<!-- Node1 -->
<g id="node1" class="node"><title>Node1</title>
<polygon fill="#bfbfbf" stroke="black" points="0.455566,-19.9336 0.455566,-42.0664 287.544,-42.0664 287.544,-19.9336 0.455566,-19.9336"/>
<text text-anchor="middle" x="144" y="-28.0664" font-family="sans-serif" font-size="10.00">com.google.appengine.codelab.ProductServlet.doDelete</text>
</g>
<!-- Node2 -->
<g id="node3" class="node"><title>Node2</title>
<a xlink:href="$classcom_1_1google_1_1appengine_1_1codelab_1_1_product.xhtml#addc5d2e4ec78d1eef631ffc4cdf268a1" xlink:title="com.google.appengine.codelab.Product.deleteProduct">
<polygon fill="none" stroke="black" points="323.923,-40.9336 323.923,-63.0664 602.077,-63.0664 602.077,-40.9336 323.923,-40.9336"/>
<text text-anchor="middle" x="463" y="-49.0664" font-family="sans-serif" font-size="10.00">com.google.appengine.codelab.Product.deleteProduct</text>
</a>
</g>
<!-- Node1&#45;&gt;Node2 -->
<g id="edge2" class="edge"><title>Node1&#45;&gt;Node2</title>
<path fill="none" stroke="midnightblue" d="M287.735,-40.4556C296.358,-41.0268 305.043,-41.6022 313.688,-42.1749"/>
<polygon fill="midnightblue" stroke="midnightblue" points="313.602,-45.6768 323.811,-42.8455 314.064,-38.6921 313.602,-45.6768"/>
</g>
<!-- Node6 -->
<g id="node11" class="node"><title>Node6</title>
<a xlink:href="$classcom_1_1google_1_1appengine_1_1codelab_1_1_util.xhtml#a0d7e9492450f9aaaaf6b8b4e8a9d7890" xlink:title="com.google.appengine.codelab.Util.getErrorMessage">
<polygon fill="none" stroke="black" points="327.095,0.0664062 327.095,-22.0664 598.905,-22.0664 598.905,0.0664062 327.095,0.0664062"/>
<text text-anchor="middle" x="463" y="-8.06641" font-family="sans-serif" font-size="10.00">com.google.appengine.codelab.Util.getErrorMessage</text>
</a>
</g>
<!-- Node1&#45;&gt;Node6 -->
<g id="edge10" class="edge"><title>Node1&#45;&gt;Node6</title>
<path fill="none" stroke="midnightblue" d="M287.735,-21.9946C297.371,-21.3867 307.085,-20.7738 316.733,-20.1651"/>
<polygon fill="midnightblue" stroke="midnightblue" points="316.997,-23.6555 326.757,-19.5327 316.557,-16.6694 316.997,-23.6555"/>
</g>
<!-- Node3 -->
<g id="node5" class="node"><title>Node3</title>
<a xlink:href="$classcom_1_1google_1_1appengine_1_1codelab_1_1_product.xhtml#a7a8a391c4b6446d33e163ceb21521e69" xlink:title="com.google.appengine.codelab.Product.getItems">
<polygon fill="none" stroke="black" points="638.218,-60.9336 638.218,-83.0664 891.782,-83.0664 891.782,-60.9336 638.218,-60.9336"/>
<text text-anchor="middle" x="765" y="-69.0664" font-family="sans-serif" font-size="10.00">com.google.appengine.codelab.Product.getItems</text>
</a>
</g>
<!-- Node2&#45;&gt;Node3 -->
<g id="edge4" class="edge"><title>Node2&#45;&gt;Node3</title>
<path fill="none" stroke="midnightblue" d="M602.146,-61.2097C610.767,-61.7845 619.441,-62.3627 628.052,-62.9368"/>
<polygon fill="midnightblue" stroke="midnightblue" points="627.915,-66.4354 638.126,-63.6084 628.381,-59.4509 627.915,-66.4354"/>
</g>
<!-- Node5 -->
<g id="node9" class="node"><title>Node5</title>
<a xlink:href="$classcom_1_1google_1_1appengine_1_1codelab_1_1_util.xhtml#a04a02f078a3bd61f4bb36b48b4580c58" xlink:title="com.google.appengine.codelab.Util.deleteEntity">
<polygon fill="none" stroke="black" points="641.211,-19.9336 641.211,-42.0664 888.789,-42.0664 888.789,-19.9336 641.211,-19.9336"/>
<text text-anchor="middle" x="765" y="-28.0664" font-family="sans-serif" font-size="10.00">com.google.appengine.codelab.Util.deleteEntity</text>
</a>
</g>
<!-- Node2&#45;&gt;Node5 -->
<g id="edge8" class="edge"><title>Node2&#45;&gt;Node5</title>
<path fill="none" stroke="midnightblue" d="M602.146,-42.3298C611.632,-41.6658 621.182,-40.9973 630.643,-40.335"/>
<polygon fill="midnightblue" stroke="midnightblue" points="631.135,-43.8092 640.866,-39.6194 630.646,-36.8263 631.135,-43.8092"/>
</g>
<!-- Node4 -->
<g id="node7" class="node"><title>Node4</title>
<a xlink:href="$classcom_1_1google_1_1appengine_1_1codelab_1_1_util.xhtml#a097d93268afc438617bd7e13f0f0f5e7" xlink:title="com.google.appengine.codelab.Util.getDatastoreServiceInstance">
<polygon fill="none" stroke="black" points="928.331,-60.9336 928.331,-83.0664 1255.67,-83.0664 1255.67,-60.9336 928.331,-60.9336"/>
<text text-anchor="middle" x="1092" y="-69.0664" font-family="sans-serif" font-size="10.00">com.google.appengine.codelab.Util.getDatastoreServiceInstance</text>
</a>
</g>
<!-- Node3&#45;&gt;Node4 -->
<g id="edge6" class="edge"><title>Node3&#45;&gt;Node4</title>
<path fill="none" stroke="midnightblue" d="M892.119,-72C900.647,-72 909.316,-72 918.026,-72"/>
<polygon fill="midnightblue" stroke="midnightblue" points="918.262,-75.5001 928.262,-72 918.262,-68.5001 918.262,-75.5001"/>
</g>
</g>
</svg>
