<?xml version="1.0" encoding="UTF-8" standalone="no"?>
<!DOCTYPE svg PUBLIC "-//W3C//DTD SVG 1.1//EN"
 "http://www.w3.org/Graphics/SVG/1.1/DTD/svg11.dtd">
<!-- Generated by graphviz version 2.28.0 (20111028.1807)
 -->
<!-- Title: G Pages: 1 -->
<svg width="530pt" height="71pt"
 viewBox="0.00 0.00 530.00 71.00" xmlns="http://www.w3.org/2000/svg" xmlns:xlink="http://www.w3.org/1999/xlink">
<g id="graph1" class="graph" transform="scale(1 1) rotate(0) translate(4 67)">
<title>G</title>
<!-- Node1 -->
<g id="node1" class="node"><title>Node1</title>
<polygon fill="#bfbfbf" stroke="black" points="0.254395,-19.9336 0.254395,-42.0664 189.746,-42.0664 189.746,-19.9336 0.254395,-19.9336"/>
<text text-anchor="middle" x="95" y="-28.0664" font-family="sans-serif" font-size="10.00">csc440.nuf.server.DataStore.update</text>
</g>
<!-- Node2 -->
<g id="node3" class="node"><title>Node2</title>
<a xlink:href="$classcsc440_1_1nuf_1_1server_1_1_s_m_i_l_engine_service.xhtml#a3b83cad8892f2616c9107132e9335272" xlink:title="csc440.nuf.server.SMILEngineService.createSMILMessage">
<polygon fill="none" stroke="black" points="228.627,-40.9336 228.627,-63.0664 519.373,-63.0664 519.373,-40.9336 228.627,-40.9336"/>
<text text-anchor="middle" x="374" y="-49.0664" font-family="sans-serif" font-size="10.00">csc440.nuf.server.SMILEngineService.createSMILMessage</text>
</a>
</g>
<!-- Node1&#45;&gt;Node2 -->
<g id="edge2" class="edge"><title>Node1&#45;&gt;Node2</title>
<path fill="none" stroke="midnightblue" d="M199.893,-38.8763C209.303,-39.5898 218.941,-40.3205 228.618,-41.0541"/>
<polygon fill="midnightblue" stroke="midnightblue" points="200.016,-35.3757 189.78,-38.1096 199.486,-42.3557 200.016,-35.3757"/>
</g>
<!-- Node3 -->
<g id="node5" class="node"><title>Node3</title>
<a xlink:href="$classcsc440_1_1nuf_1_1server_1_1_s_m_i_l_engine_service.xhtml#a2c28cf08855cb6e77d5b774321f245d0" xlink:title="csc440.nuf.server.SMILEngineService.updateSMILMessage">
<polygon fill="none" stroke="black" points="226.623,0.0664062 226.623,-22.0664 521.377,-22.0664 521.377,0.0664062 226.623,0.0664062"/>
<text text-anchor="middle" x="374" y="-8.06641" font-family="sans-serif" font-size="10.00">csc440.nuf.server.SMILEngineService.updateSMILMessage</text>
</a>
</g>
<!-- Node1&#45;&gt;Node3 -->
<g id="edge4" class="edge"><title>Node1&#45;&gt;Node3</title>
<path fill="none" stroke="midnightblue" d="M199.818,-23.5041C208.451,-22.8808 217.277,-22.2436 226.148,-21.603"/>
<polygon fill="midnightblue" stroke="midnightblue" points="199.502,-20.0178 189.78,-24.2289 200.006,-26.9996 199.502,-20.0178"/>
</g>
</g>
</svg>
