<?xml version="1.0" encoding="UTF-8" standalone="no"?>
<!DOCTYPE svg PUBLIC "-//W3C//DTD SVG 1.1//EN"
 "http://www.w3.org/Graphics/SVG/1.1/DTD/svg11.dtd">
<!-- Generated by graphviz version 2.28.0 (20111028.1807)
 -->
<!-- Title: G Pages: 1 -->
<svg width="470pt" height="71pt"
 viewBox="0.00 0.00 470.00 71.00" xmlns="http://www.w3.org/2000/svg" xmlns:xlink="http://www.w3.org/1999/xlink">
<g id="graph1" class="graph" transform="scale(1 1) rotate(0) translate(4 67)">
<title>G</title>
<!-- Node1 -->
<g id="node1" class="node"><title>Node1</title>
<polygon fill="#bfbfbf" stroke="black" points="0.327148,-19.9336 0.327148,-42.0664 205.673,-42.0664 205.673,-19.9336 0.327148,-19.9336"/>
<text text-anchor="middle" x="103" y="-28.0664" font-family="sans-serif" font-size="10.00">csc440.nuf.ScrollItemManager.addItem</text>
</g>
<!-- Node2 -->
<g id="node3" class="node"><title>Node2</title>
<a xlink:href="$classcsc440_1_1nuf_1_1_s_m_i_l_activity.xhtml#a2940cb9bd30e02c726a99b9949f94472" xlink:title="csc440.nuf.SMILActivity.onResume">
<polygon fill="none" stroke="black" points="259.879,-40.9336 259.879,-63.0664 444.121,-63.0664 444.121,-40.9336 259.879,-40.9336"/>
<text text-anchor="middle" x="352" y="-49.0664" font-family="sans-serif" font-size="10.00">csc440.nuf.SMILActivity.onResume</text>
</a>
</g>
<!-- Node1&#45;&gt;Node2 -->
<g id="edge2" class="edge"><title>Node1&#45;&gt;Node2</title>
<path fill="none" stroke="midnightblue" d="M215.962,-40.519C230.575,-41.7614 245.405,-43.0223 259.624,-44.2312"/>
<polygon fill="midnightblue" stroke="midnightblue" points="216.151,-37.0226 205.89,-39.6627 215.558,-43.9974 216.151,-37.0226"/>
</g>
<!-- Node3 -->
<g id="node5" class="node"><title>Node3</title>
<a xlink:href="$classcsc440_1_1nuf_1_1_view_message_activity.xhtml#a067f20ee5e75405a29b71d914d62a2fc" xlink:title="csc440.nuf.ViewMessageActivity.onCreate">
<polygon fill="none" stroke="black" points="242.123,0.0664062 242.123,-22.0664 461.877,-22.0664 461.877,0.0664062 242.123,0.0664062"/>
<text text-anchor="middle" x="352" y="-8.06641" font-family="sans-serif" font-size="10.00">csc440.nuf.ViewMessageActivity.onCreate</text>
</a>
</g>
<!-- Node1&#45;&gt;Node3 -->
<g id="edge4" class="edge"><title>Node1&#45;&gt;Node3</title>
<path fill="none" stroke="midnightblue" d="M215.924,-21.9373C224.51,-21.2421 233.17,-20.5409 241.738,-19.8471"/>
<polygon fill="midnightblue" stroke="midnightblue" points="215.575,-18.454 205.89,-22.7498 216.14,-25.4312 215.575,-18.454"/>
</g>
</g>
</svg>
