<?xml version="1.0" encoding="UTF-8" standalone="no"?>
<!DOCTYPE svg PUBLIC "-//W3C//DTD SVG 1.1//EN"
 "http://www.w3.org/Graphics/SVG/1.1/DTD/svg11.dtd">
<!-- Generated by graphviz version 2.28.0 (20111028.1807)
 -->
<!-- Title: G Pages: 1 -->
<svg width="538pt" height="71pt"
 viewBox="0.00 0.00 538.00 71.00" xmlns="http://www.w3.org/2000/svg" xmlns:xlink="http://www.w3.org/1999/xlink">
<g id="graph1" class="graph" transform="scale(1 1) rotate(0) translate(4 67)">
<title>G</title>
<!-- Node1 -->
<g id="node1" class="node"><title>Node1</title>
<polygon fill="#bfbfbf" stroke="black" points="0.350586,-19.9336 0.350586,-42.0664 197.649,-42.0664 197.649,-19.9336 0.350586,-19.9336"/>
<text text-anchor="middle" x="99" y="-28.0664" font-family="sans-serif" font-size="10.00">csc440.nuf.server.SMILMessage.getId</text>
</g>
<!-- Node2 -->
<g id="node3" class="node"><title>Node2</title>
<a xlink:href="$classcsc440_1_1nuf_1_1server_1_1_s_m_i_l_engine_service.xhtml#a2c28cf08855cb6e77d5b774321f245d0" xlink:title="csc440.nuf.server.SMILEngineService.updateSMILMessage">
<polygon fill="none" stroke="black" points="234.623,-40.9336 234.623,-63.0664 529.377,-63.0664 529.377,-40.9336 234.623,-40.9336"/>
<text text-anchor="middle" x="382" y="-49.0664" font-family="sans-serif" font-size="10.00">csc440.nuf.server.SMILEngineService.updateSMILMessage</text>
</a>
</g>
<!-- Node1&#45;&gt;Node2 -->
<g id="edge2" class="edge"><title>Node1&#45;&gt;Node2</title>
<path fill="none" stroke="midnightblue" d="M208.007,-39.0717C216.705,-39.7217 225.578,-40.3848 234.484,-41.0504"/>
<polygon fill="midnightblue" stroke="midnightblue" points="208.119,-35.5704 197.886,-38.3153 207.597,-42.5509 208.119,-35.5704"/>
</g>
<!-- Node3 -->
<g id="node5" class="node"><title>Node3</title>
<a xlink:href="$classcsc440_1_1nuf_1_1server_1_1_s_m_i_l_engine_service.xhtml#ab19512b37c29e2b7a222a9a34b7e5077" xlink:title="csc440.nuf.server.SMILEngineService.deleteSMILMessage">
<polygon fill="none" stroke="black" points="236.617,0.0664062 236.617,-22.0664 527.383,-22.0664 527.383,0.0664062 236.617,0.0664062"/>
<text text-anchor="middle" x="382" y="-8.06641" font-family="sans-serif" font-size="10.00">csc440.nuf.server.SMILEngineService.deleteSMILMessage</text>
</a>
</g>
<!-- Node1&#45;&gt;Node3 -->
<g id="edge4" class="edge"><title>Node1&#45;&gt;Node3</title>
<path fill="none" stroke="midnightblue" d="M207.954,-23.3164C217.314,-22.6503 226.878,-21.9695 236.467,-21.287"/>
<polygon fill="midnightblue" stroke="midnightblue" points="207.612,-19.8318 197.886,-24.033 208.109,-26.8142 207.612,-19.8318"/>
</g>
</g>
</svg>
