<?xml version="1.0" encoding="UTF-8" standalone="no"?>
<!DOCTYPE svg PUBLIC "-//W3C//DTD SVG 1.1//EN"
 "http://www.w3.org/Graphics/SVG/1.1/DTD/svg11.dtd">
<!-- Generated by graphviz version 2.28.0 (20111028.1807)
 -->
<!-- Title: G Pages: 1 -->
<svg width="464pt" height="71pt"
 viewBox="0.00 0.00 464.00 71.00" xmlns="http://www.w3.org/2000/svg" xmlns:xlink="http://www.w3.org/1999/xlink">
<g id="graph1" class="graph" transform="scale(1 1) rotate(0) translate(4 67)">
<title>G</title>
<!-- Node1 -->
<g id="node1" class="node"><title>Node1</title>
<polygon fill="#bfbfbf" stroke="black" points="-0.233887,-19.9336 -0.233887,-42.0664 200.234,-42.0664 200.234,-19.9336 -0.233887,-19.9336"/>
<text text-anchor="middle" x="100" y="-28.0664" font-family="sans-serif" font-size="10.00">csc440.nuf.ScrollItemManager.setIcon</text>
</g>
<!-- Node2 -->
<g id="node3" class="node"><title>Node2</title>
<a xlink:href="$classcsc440_1_1nuf_1_1_s_m_i_l_activity.xhtml#a2940cb9bd30e02c726a99b9949f94472" xlink:title="csc440.nuf.SMILActivity.onResume">
<polygon fill="none" stroke="black" points="253.879,-40.9336 253.879,-63.0664 438.121,-63.0664 438.121,-40.9336 253.879,-40.9336"/>
<text text-anchor="middle" x="346" y="-49.0664" font-family="sans-serif" font-size="10.00">csc440.nuf.SMILActivity.onResume</text>
</a>
</g>
<!-- Node1&#45;&gt;Node2 -->
<g id="edge2" class="edge"><title>Node1&#45;&gt;Node2</title>
<path fill="none" stroke="midnightblue" d="M210.248,-40.4025C224.77,-41.6524 239.536,-42.9232 253.71,-44.143"/>
<polygon fill="midnightblue" stroke="midnightblue" points="210.507,-36.912 200.244,-39.5415 209.907,-43.8862 210.507,-36.912"/>
</g>
<!-- Node3 -->
<g id="node5" class="node"><title>Node3</title>
<a xlink:href="$classcsc440_1_1nuf_1_1_view_message_activity.xhtml#a067f20ee5e75405a29b71d914d62a2fc" xlink:title="csc440.nuf.ViewMessageActivity.onCreate">
<polygon fill="none" stroke="black" points="236.123,0.0664062 236.123,-22.0664 455.877,-22.0664 455.877,0.0664062 236.123,0.0664062"/>
<text text-anchor="middle" x="346" y="-8.06641" font-family="sans-serif" font-size="10.00">csc440.nuf.ViewMessageActivity.onCreate</text>
</a>
</g>
<!-- Node1&#45;&gt;Node3 -->
<g id="edge4" class="edge"><title>Node1&#45;&gt;Node3</title>
<path fill="none" stroke="midnightblue" d="M210.211,-22.0483C218.743,-21.3489 227.359,-20.6427 235.89,-19.9434"/>
<polygon fill="midnightblue" stroke="midnightblue" points="209.925,-18.5599 200.244,-22.8652 210.497,-25.5365 209.925,-18.5599"/>
</g>
</g>
</svg>
