<?xml version="1.0" encoding="UTF-8" standalone="no"?>
<!DOCTYPE svg PUBLIC "-//W3C//DTD SVG 1.1//EN"
 "http://www.w3.org/Graphics/SVG/1.1/DTD/svg11.dtd">
<!-- Generated by graphviz version 2.28.0 (20111028.1807)
 -->
<!-- Title: G Pages: 1 -->
<svg width="232pt" height="326pt"
 viewBox="0.00 0.00 232.00 326.00" xmlns="http://www.w3.org/2000/svg" xmlns:xlink="http://www.w3.org/1999/xlink">
<g id="graph1" class="graph" transform="scale(1 1) rotate(0) translate(4 322)">
<title>G</title>
<!-- Node1 -->
<g id="node1" class="node"><title>Node1</title>
<polygon fill="#bfbfbf" stroke="black" points="-0.528809,-0.601562 -0.528809,-109.398 224.529,-109.398 224.529,-0.601562 -0.528809,-0.601562"/>
<text text-anchor="middle" x="112" y="-95.3984" font-family="sans-serif" font-size="10.00">com.google.appengine.codelab.ItemServlet</text>
<polyline fill="none" stroke="black" points="-0.528809,-87.2656 224.529,-87.2656 "/>
<text text-anchor="middle" x="112" y="-73.2656" font-family="sans-serif" font-size="10.00"> </text>
<polyline fill="none" stroke="black" points="-0.528809,-65.1328 224.529,-65.1328 "/>
<text text-anchor="start" x="7.47119" y="-51.1328" font-family="sans-serif" font-size="10.00"># doGet()</text>
<text text-anchor="start" x="7.47119" y="-37" font-family="sans-serif" font-size="10.00"># doPut()</text>
<text text-anchor="start" x="7.47119" y="-22.8672" font-family="sans-serif" font-size="10.00"># doDelete()</text>
<text text-anchor="start" x="7.47119" y="-8.73438" font-family="sans-serif" font-size="10.00"># doPost()</text>
</g>
<!-- Node2 -->
<g id="node2" class="node"><title>Node2</title>
<a xlink:href="$classcom_1_1google_1_1appengine_1_1codelab_1_1_base_servlet.xhtml" xlink:title="{com.google.appengine.codelab.BaseServlet\n||# doGet()\l}">
<polygon fill="none" stroke="black" points="-0.736328,-146.801 -0.736328,-213.199 224.736,-213.199 224.736,-146.801 -0.736328,-146.801"/>
<text text-anchor="middle" x="112" y="-199.199" font-family="sans-serif" font-size="10.00">com.google.appengine.codelab.BaseServlet</text>
<polyline fill="none" stroke="black" points="-0.736328,-191.066 224.736,-191.066 "/>
<text text-anchor="middle" x="112" y="-177.066" font-family="sans-serif" font-size="10.00"> </text>
<polyline fill="none" stroke="black" points="-0.736328,-168.934 224.736,-168.934 "/>
<text text-anchor="start" x="7.26367" y="-154.934" font-family="sans-serif" font-size="10.00"># doGet()</text>
</a>
</g>
<!-- Node2&#45;&gt;Node1 -->
<g id="edge2" class="edge"><title>Node2&#45;&gt;Node1</title>
<path fill="none" stroke="midnightblue" d="M112,-136.425C112,-127.745 112,-118.507 112,-109.502"/>
<polygon fill="none" stroke="midnightblue" points="108.5,-136.683 112,-146.683 115.5,-136.683 108.5,-136.683"/>
</g>
<!-- Node3 -->
<g id="node4" class="node"><title>Node3</title>
<polygon fill="none" stroke="#bfbfbf" points="77.2251,-250.801 77.2251,-317.199 146.775,-317.199 146.775,-250.801 77.2251,-250.801"/>
<text text-anchor="middle" x="112" y="-303.199" font-family="sans-serif" font-size="10.00">HttpServlet</text>
<polyline fill="none" stroke="#bfbfbf" points="77.2251,-295.066 146.775,-295.066 "/>
<text text-anchor="middle" x="112" y="-281.066" font-family="sans-serif" font-size="10.00"> </text>
<polyline fill="none" stroke="#bfbfbf" points="77.2251,-272.934 146.775,-272.934 "/>
<text text-anchor="middle" x="112" y="-258.934" font-family="sans-serif" font-size="10.00"> </text>
</g>
<!-- Node3&#45;&gt;Node2 -->
<g id="edge4" class="edge"><title>Node3&#45;&gt;Node2</title>
<path fill="none" stroke="midnightblue" d="M112,-240.669C112,-231.561 112,-222.073 112,-213.414"/>
<polygon fill="none" stroke="midnightblue" points="108.5,-240.727 112,-250.727 115.5,-240.727 108.5,-240.727"/>
</g>
</g>
</svg>
