<?xml version="1.0" encoding="UTF-8" standalone="no"?>
<!DOCTYPE svg PUBLIC "-//W3C//DTD SVG 1.1//EN"
 "http://www.w3.org/Graphics/SVG/1.1/DTD/svg11.dtd">
<!-- Generated by graphviz version 2.28.0 (20111028.1807)
 -->
<!-- Title: G Pages: 1 -->
<svg width="491pt" height="326pt"
 viewBox="0.00 0.00 491.00 326.00" xmlns="http://www.w3.org/2000/svg" xmlns:xlink="http://www.w3.org/1999/xlink">
<g id="graph1" class="graph" transform="scale(1 1) rotate(0) translate(4 322)">
<title>G</title>
<!-- Node1 -->
<g id="node1" class="node"><title>Node1</title>
<polygon fill="#bfbfbf" stroke="black" points="124.264,-146.801 124.264,-213.199 349.736,-213.199 349.736,-146.801 124.264,-146.801"/>
<text text-anchor="middle" x="237" y="-199.199" font-family="sans-serif" font-size="10.00">com.google.appengine.codelab.BaseServlet</text>
<polyline fill="none" stroke="black" points="124.264,-191.066 349.736,-191.066 "/>
<text text-anchor="middle" x="237" y="-177.066" font-family="sans-serif" font-size="10.00"> </text>
<polyline fill="none" stroke="black" points="124.264,-168.934 349.736,-168.934 "/>
<text text-anchor="start" x="132.264" y="-154.934" font-family="sans-serif" font-size="10.00"># doGet()</text>
</g>
<!-- Node3 -->
<g id="node5" class="node"><title>Node3</title>
<a xlink:href="$classcom_1_1google_1_1appengine_1_1codelab_1_1_item_servlet.xhtml" xlink:title="{com.google.appengine.codelab.ItemServlet\n||# doGet()\l# doPut()\l# doDelete()\l# doPost()\l}">
<polygon fill="none" stroke="black" points="-0.528809,-0.601562 -0.528809,-109.398 224.529,-109.398 224.529,-0.601562 -0.528809,-0.601562"/>
<text text-anchor="middle" x="112" y="-95.3984" font-family="sans-serif" font-size="10.00">com.google.appengine.codelab.ItemServlet</text>
<polyline fill="none" stroke="black" points="-0.528809,-87.2656 224.529,-87.2656 "/>
<text text-anchor="middle" x="112" y="-73.2656" font-family="sans-serif" font-size="10.00"> </text>
<polyline fill="none" stroke="black" points="-0.528809,-65.1328 224.529,-65.1328 "/>
<text text-anchor="start" x="7.47119" y="-51.1328" font-family="sans-serif" font-size="10.00"># doGet()</text>
<text text-anchor="start" x="7.47119" y="-37" font-family="sans-serif" font-size="10.00"># doPut()</text>
<text text-anchor="start" x="7.47119" y="-22.8672" font-family="sans-serif" font-size="10.00"># doDelete()</text>
<text text-anchor="start" x="7.47119" y="-8.73438" font-family="sans-serif" font-size="10.00"># doPost()</text>
</a>
</g>
<!-- Node1&#45;&gt;Node3 -->
<g id="edge4" class="edge"><title>Node1&#45;&gt;Node3</title>
<path fill="none" stroke="midnightblue" d="M196.905,-139.547C187.184,-129.981 176.63,-119.596 166.372,-109.502"/>
<polygon fill="none" stroke="midnightblue" points="194.575,-142.164 204.158,-146.683 199.485,-137.175 194.575,-142.164"/>
</g>
<!-- Node4 -->
<g id="node7" class="node"><title>Node4</title>
<a xlink:href="$classcom_1_1google_1_1appengine_1_1codelab_1_1_product_servlet.xhtml" xlink:title="{com.google.appengine.codelab.ProductServlet\n||# doGet()\l# doPut()\l# doDelete()\l# doPost()\l}">
<polygon fill="none" stroke="black" points="242.673,-0.601562 242.673,-109.398 483.327,-109.398 483.327,-0.601562 242.673,-0.601562"/>
<text text-anchor="middle" x="363" y="-95.3984" font-family="sans-serif" font-size="10.00">com.google.appengine.codelab.ProductServlet</text>
<polyline fill="none" stroke="black" points="242.673,-87.2656 483.327,-87.2656 "/>
<text text-anchor="middle" x="363" y="-73.2656" font-family="sans-serif" font-size="10.00"> </text>
<polyline fill="none" stroke="black" points="242.673,-65.1328 483.327,-65.1328 "/>
<text text-anchor="start" x="250.673" y="-51.1328" font-family="sans-serif" font-size="10.00"># doGet()</text>
<text text-anchor="start" x="250.673" y="-37" font-family="sans-serif" font-size="10.00"># doPut()</text>
<text text-anchor="start" x="250.673" y="-22.8672" font-family="sans-serif" font-size="10.00"># doDelete()</text>
<text text-anchor="start" x="250.673" y="-8.73438" font-family="sans-serif" font-size="10.00"># doPost()</text>
</a>
</g>
<!-- Node1&#45;&gt;Node4 -->
<g id="edge6" class="edge"><title>Node1&#45;&gt;Node4</title>
<path fill="none" stroke="midnightblue" d="M277.416,-139.547C287.214,-129.981 297.853,-119.596 308.193,-109.502"/>
<polygon fill="none" stroke="midnightblue" points="274.816,-137.193 270.105,-146.683 279.706,-142.202 274.816,-137.193"/>
</g>
<!-- Node2 -->
<g id="node2" class="node"><title>Node2</title>
<polygon fill="none" stroke="#bfbfbf" points="202.225,-250.801 202.225,-317.199 271.775,-317.199 271.775,-250.801 202.225,-250.801"/>
<text text-anchor="middle" x="237" y="-303.199" font-family="sans-serif" font-size="10.00">HttpServlet</text>
<polyline fill="none" stroke="#bfbfbf" points="202.225,-295.066 271.775,-295.066 "/>
<text text-anchor="middle" x="237" y="-281.066" font-family="sans-serif" font-size="10.00"> </text>
<polyline fill="none" stroke="#bfbfbf" points="202.225,-272.934 271.775,-272.934 "/>
<text text-anchor="middle" x="237" y="-258.934" font-family="sans-serif" font-size="10.00"> </text>
</g>
<!-- Node2&#45;&gt;Node1 -->
<g id="edge2" class="edge"><title>Node2&#45;&gt;Node1</title>
<path fill="none" stroke="midnightblue" d="M237,-240.669C237,-231.561 237,-222.073 237,-213.414"/>
<polygon fill="none" stroke="midnightblue" points="233.5,-240.727 237,-250.727 240.5,-240.727 233.5,-240.727"/>
</g>
</g>
</svg>
