<?xml version="1.0" encoding="UTF-8" standalone="no"?>
<!DOCTYPE svg PUBLIC "-//W3C//DTD SVG 1.1//EN"
 "http://www.w3.org/Graphics/SVG/1.1/DTD/svg11.dtd">
<!-- Generated by graphviz version 2.28.0 (20111028.1807)
 -->
<!-- Title: G Pages: 1 -->
<svg width="568pt" height="194pt"
 viewBox="0.00 0.00 568.00 194.00" xmlns="http://www.w3.org/2000/svg" xmlns:xlink="http://www.w3.org/1999/xlink">
<g id="graph1" class="graph" transform="scale(1 1) rotate(0) translate(4 190)">
<title>G</title>
<!-- Node1 -->
<g id="node1" class="node"><title>Node1</title>
<polygon fill="#bfbfbf" stroke="black" points="0.0214844,-81.9336 0.0214844,-104.066 231.979,-104.066 231.979,-81.9336 0.0214844,-81.9336"/>
<text text-anchor="middle" x="116" y="-90.0664" font-family="sans-serif" font-size="10.00">csc440.nuf.complay.PlayerActivity.playPause</text>
</g>
<!-- Node2 -->
<g id="node3" class="node"><title>Node2</title>
<a xlink:href="$classcsc440_1_1nuf_1_1complay_1_1_player_activity.xhtml#a9390d2b6a505e0a44fc421a8d146789e" xlink:title="csc440.nuf.complay.PlayerActivity.onResume">
<polygon fill="none" stroke="black" points="296.723,-163.934 296.723,-186.066 531.277,-186.066 531.277,-163.934 296.723,-163.934"/>
<text text-anchor="middle" x="414" y="-172.066" font-family="sans-serif" font-size="10.00">csc440.nuf.complay.PlayerActivity.onResume</text>
</a>
</g>
<!-- Node1&#45;&gt;Node2 -->
<g id="edge2" class="edge"><title>Node1&#45;&gt;Node2</title>
<path fill="none" stroke="midnightblue" d="M148.83,-108.479C178.87,-122.45 225.514,-142.521 268,-154 282.733,-157.981 298.526,-161.249 314.071,-163.92"/>
<polygon fill="midnightblue" stroke="midnightblue" points="150.225,-105.267 139.687,-104.175 147.244,-111.601 150.225,-105.267"/>
</g>
<!-- Node3 -->
<g id="node5" class="node"><title>Node3</title>
<a xlink:href="$classcsc440_1_1nuf_1_1complay_1_1_player_activity.xhtml#a3066e6fc9a59784f6ec3ddb23cc92707" xlink:title="csc440.nuf.complay.PlayerActivity.onPause">
<polygon fill="none" stroke="black" points="301.813,-122.934 301.813,-145.066 526.187,-145.066 526.187,-122.934 301.813,-122.934"/>
<text text-anchor="middle" x="414" y="-131.066" font-family="sans-serif" font-size="10.00">csc440.nuf.complay.PlayerActivity.onPause</text>
</a>
</g>
<!-- Node1&#45;&gt;Node3 -->
<g id="edge4" class="edge"><title>Node1&#45;&gt;Node3</title>
<path fill="none" stroke="midnightblue" d="M207.157,-105.488C247.313,-111.05 294.21,-117.546 333.091,-122.932"/>
<polygon fill="midnightblue" stroke="midnightblue" points="207.488,-102 197.102,-104.095 206.527,-108.934 207.488,-102"/>
</g>
<!-- Node4 -->
<g id="node7" class="node"><title>Node4</title>
<a xlink:href="$classcsc440_1_1nuf_1_1complay_1_1_player_activity.xhtml#a0bf16e9f9a7c640c685def8eb7d38205" xlink:title="csc440.nuf.complay.PlayerActivity.onProgressChanged">
<polygon fill="none" stroke="black" points="273.371,-81.9336 273.371,-104.066 554.629,-104.066 554.629,-81.9336 273.371,-81.9336"/>
<text text-anchor="middle" x="414" y="-90.0664" font-family="sans-serif" font-size="10.00">csc440.nuf.complay.PlayerActivity.onProgressChanged</text>
</a>
</g>
<!-- Node1&#45;&gt;Node4 -->
<g id="edge6" class="edge"><title>Node1&#45;&gt;Node4</title>
<path fill="none" stroke="midnightblue" d="M242.335,-93C252.435,-93 262.681,-93 272.876,-93"/>
<polygon fill="midnightblue" stroke="midnightblue" points="242.289,-89.5001 232.289,-93 242.289,-96.5001 242.289,-89.5001"/>
</g>
<!-- Node5 -->
<g id="node9" class="node"><title>Node5</title>
<a xlink:href="$classcsc440_1_1nuf_1_1complay_1_1_player_activity.xhtml#a58c0167e7af40eb7747ed8ca90e1c939" xlink:title="csc440.nuf.complay.PlayerActivity.onStartTrackingTouch">
<polygon fill="none" stroke="black" points="268.417,-40.9336 268.417,-63.0664 559.583,-63.0664 559.583,-40.9336 268.417,-40.9336"/>
<text text-anchor="middle" x="414" y="-49.0664" font-family="sans-serif" font-size="10.00">csc440.nuf.complay.PlayerActivity.onStartTrackingTouch</text>
</a>
</g>
<!-- Node1&#45;&gt;Node5 -->
<g id="edge8" class="edge"><title>Node1&#45;&gt;Node5</title>
<path fill="none" stroke="midnightblue" d="M206.657,-80.5142C226.836,-77.7089 248.151,-74.7491 268,-72 288.892,-69.1064 311.48,-65.9867 332.466,-63.0918"/>
<polygon fill="midnightblue" stroke="midnightblue" points="205.962,-77.0771 196.54,-81.9212 206.927,-84.0104 205.962,-77.0771"/>
</g>
<!-- Node6 -->
<g id="node11" class="node"><title>Node6</title>
<a xlink:href="$classcsc440_1_1nuf_1_1complay_1_1_player_activity.xhtml#a042e95babe17fab59ba7d71a6dfc9dbb" xlink:title="csc440.nuf.complay.PlayerActivity.onStopTrackingTouch">
<polygon fill="none" stroke="black" points="268.876,0.0664062 268.876,-22.0664 559.124,-22.0664 559.124,0.0664062 268.876,0.0664062"/>
<text text-anchor="middle" x="414" y="-8.06641" font-family="sans-serif" font-size="10.00">csc440.nuf.complay.PlayerActivity.onStopTrackingTouch</text>
</a>
</g>
<!-- Node1&#45;&gt;Node6 -->
<g id="edge10" class="edge"><title>Node1&#45;&gt;Node6</title>
<path fill="none" stroke="midnightblue" d="M148.521,-77.3064C178.517,-63.0411 225.286,-42.5155 268,-31 281.127,-27.4611 295.1,-24.5278 308.992,-22.1016"/>
<polygon fill="midnightblue" stroke="midnightblue" points="146.89,-74.2072 139.398,-81.6986 149.927,-80.5143 146.89,-74.2072"/>
</g>
</g>
</svg>
