<?xml version="1.0" encoding="UTF-8" standalone="no"?>
<!DOCTYPE svg PUBLIC "-//W3C//DTD SVG 1.1//EN"
 "http://www.w3.org/Graphics/SVG/1.1/DTD/svg11.dtd">
<!-- Generated by graphviz version 2.28.0 (20111028.1807)
 -->
<!-- Title: G Pages: 1 -->
<svg width="248pt" height="326pt"
 viewBox="0.00 0.00 248.00 326.00" xmlns="http://www.w3.org/2000/svg" xmlns:xlink="http://www.w3.org/1999/xlink">
<g id="graph1" class="graph" transform="scale(1 1) rotate(0) translate(4 322)">
<title>G</title>
<!-- Node1 -->
<g id="node1" class="node"><title>Node1</title>
<polygon fill="#bfbfbf" stroke="black" points="-0.32666,-0.601562 -0.32666,-109.398 240.327,-109.398 240.327,-0.601562 -0.32666,-0.601562"/>
<text text-anchor="middle" x="120" y="-95.3984" font-family="sans-serif" font-size="10.00">com.google.appengine.codelab.ProductServlet</text>
<polyline fill="none" stroke="black" points="-0.32666,-87.2656 240.327,-87.2656 "/>
<text text-anchor="middle" x="120" y="-73.2656" font-family="sans-serif" font-size="10.00"> </text>
<polyline fill="none" stroke="black" points="-0.32666,-65.1328 240.327,-65.1328 "/>
<text text-anchor="start" x="7.67334" y="-51.1328" font-family="sans-serif" font-size="10.00"># doGet()</text>
<text text-anchor="start" x="7.67334" y="-37" font-family="sans-serif" font-size="10.00"># doPut()</text>
<text text-anchor="start" x="7.67334" y="-22.8672" font-family="sans-serif" font-size="10.00"># doDelete()</text>
<text text-anchor="start" x="7.67334" y="-8.73438" font-family="sans-serif" font-size="10.00"># doPost()</text>
</g>
<!-- Node2 -->
<g id="node2" class="node"><title>Node2</title>
<a xlink:href="$classcom_1_1google_1_1appengine_1_1codelab_1_1_base_servlet.xhtml" xlink:title="{com.google.appengine.codelab.BaseServlet\n||# doGet()\l}">
<polygon fill="none" stroke="black" points="7.26367,-146.801 7.26367,-213.199 232.736,-213.199 232.736,-146.801 7.26367,-146.801"/>
<text text-anchor="middle" x="120" y="-199.199" font-family="sans-serif" font-size="10.00">com.google.appengine.codelab.BaseServlet</text>
<polyline fill="none" stroke="black" points="7.26367,-191.066 232.736,-191.066 "/>
<text text-anchor="middle" x="120" y="-177.066" font-family="sans-serif" font-size="10.00"> </text>
<polyline fill="none" stroke="black" points="7.26367,-168.934 232.736,-168.934 "/>
<text text-anchor="start" x="15.2637" y="-154.934" font-family="sans-serif" font-size="10.00"># doGet()</text>
</a>
</g>
<!-- Node2&#45;&gt;Node1 -->
<g id="edge2" class="edge"><title>Node2&#45;&gt;Node1</title>
<path fill="none" stroke="midnightblue" d="M120,-136.425C120,-127.745 120,-118.507 120,-109.502"/>
<polygon fill="none" stroke="midnightblue" points="116.5,-136.683 120,-146.683 123.5,-136.683 116.5,-136.683"/>
</g>
<!-- Node3 -->
<g id="node4" class="node"><title>Node3</title>
<polygon fill="none" stroke="#bfbfbf" points="85.2251,-250.801 85.2251,-317.199 154.775,-317.199 154.775,-250.801 85.2251,-250.801"/>
<text text-anchor="middle" x="120" y="-303.199" font-family="sans-serif" font-size="10.00">HttpServlet</text>
<polyline fill="none" stroke="#bfbfbf" points="85.2251,-295.066 154.775,-295.066 "/>
<text text-anchor="middle" x="120" y="-281.066" font-family="sans-serif" font-size="10.00"> </text>
<polyline fill="none" stroke="#bfbfbf" points="85.2251,-272.934 154.775,-272.934 "/>
<text text-anchor="middle" x="120" y="-258.934" font-family="sans-serif" font-size="10.00"> </text>
</g>
<!-- Node3&#45;&gt;Node2 -->
<g id="edge4" class="edge"><title>Node3&#45;&gt;Node2</title>
<path fill="none" stroke="midnightblue" d="M120,-240.669C120,-231.561 120,-222.073 120,-213.414"/>
<polygon fill="none" stroke="midnightblue" points="116.5,-240.727 120,-250.727 123.5,-240.727 116.5,-240.727"/>
</g>
</g>
</svg>
