<?xml version="1.0" encoding="UTF-8" standalone="no"?>
<!DOCTYPE svg PUBLIC "-//W3C//DTD SVG 1.1//EN"
 "http://www.w3.org/Graphics/SVG/1.1/DTD/svg11.dtd">
<!-- Generated by graphviz version 2.28.0 (20111028.1807)
 -->
<!-- Title: G Pages: 1 -->
<svg width="928pt" height="71pt"
 viewBox="0.00 0.00 928.00 71.00" xmlns="http://www.w3.org/2000/svg" xmlns:xlink="http://www.w3.org/1999/xlink">
<g id="graph1" class="graph" transform="scale(1 1) rotate(0) translate(4 67)">
<title>G</title>
<!-- Node1 -->
<g id="node1" class="node"><title>Node1</title>
<polygon fill="#bfbfbf" stroke="black" points="0.63916,-19.9336 0.63916,-42.0664 251.361,-42.0664 251.361,-19.9336 0.63916,-19.9336"/>
<text text-anchor="middle" x="126" y="-28.0664" font-family="sans-serif" font-size="10.00">com.google.appengine.codelab.Util.persistEntity</text>
</g>
<!-- Node2 -->
<g id="node3" class="node"><title>Node2</title>
<a xlink:href="$classcom_1_1google_1_1appengine_1_1codelab_1_1_item.xhtml#a1f0cd1ed3e9e496f6cd40cde580dc045" xlink:title="com.google.appengine.codelab.Item.createOrUpdateItem">
<polygon fill="none" stroke="black" points="303.423,-40.9336 303.423,-63.0664 596.577,-63.0664 596.577,-40.9336 303.423,-40.9336"/>
<text text-anchor="middle" x="450" y="-49.0664" font-family="sans-serif" font-size="10.00">com.google.appengine.codelab.Item.createOrUpdateItem</text>
</a>
</g>
<!-- Node1&#45;&gt;Node2 -->
<g id="edge2" class="edge"><title>Node1&#45;&gt;Node2</title>
<path fill="none" stroke="midnightblue" d="M261.508,-39.7723C275.334,-40.674 289.428,-41.5932 303.368,-42.5022"/>
<polygon fill="midnightblue" stroke="midnightblue" points="261.7,-36.2775 251.494,-39.1191 261.245,-43.2626 261.7,-36.2775"/>
</g>
<!-- Node4 -->
<g id="node7" class="node"><title>Node4</title>
<a xlink:href="$classcom_1_1google_1_1appengine_1_1codelab_1_1_product.xhtml#a0ad4aec15554c898684fcd6ea8d9ef10" xlink:title="com.google.appengine.codelab.Product.createOrUpdateProduct">
<polygon fill="none" stroke="black" points="287.828,0.0664062 287.828,-22.0664 612.172,-22.0664 612.172,0.0664062 287.828,0.0664062"/>
<text text-anchor="middle" x="450" y="-8.06641" font-family="sans-serif" font-size="10.00">com.google.appengine.codelab.Product.createOrUpdateProduct</text>
</a>
</g>
<!-- Node1&#45;&gt;Node4 -->
<g id="edge6" class="edge"><title>Node1&#45;&gt;Node4</title>
<path fill="none" stroke="midnightblue" d="M261.558,-22.6423C270.178,-22.107 278.901,-21.5651 287.626,-21.0232"/>
<polygon fill="midnightblue" stroke="midnightblue" points="261.257,-19.1542 251.494,-23.2675 261.691,-26.1407 261.257,-19.1542"/>
</g>
<!-- Node3 -->
<g id="node5" class="node"><title>Node3</title>
<a xlink:href="$classcom_1_1google_1_1appengine_1_1codelab_1_1_item_servlet.xhtml#a5d5c9f0b60f447633023ec79cfa95ea1" xlink:title="com.google.appengine.codelab.ItemServlet.doPut">
<polygon fill="none" stroke="black" points="655.934,-40.9336 655.934,-63.0664 912.066,-63.0664 912.066,-40.9336 655.934,-40.9336"/>
<text text-anchor="middle" x="784" y="-49.0664" font-family="sans-serif" font-size="10.00">com.google.appengine.codelab.ItemServlet.doPut</text>
</a>
</g>
<!-- Node2&#45;&gt;Node3 -->
<g id="edge4" class="edge"><title>Node2&#45;&gt;Node3</title>
<path fill="none" stroke="midnightblue" d="M606.8,-52C623.187,-52 639.707,-52 655.717,-52"/>
<polygon fill="midnightblue" stroke="midnightblue" points="606.62,-48.5001 596.62,-52 606.62,-55.5001 606.62,-48.5001"/>
</g>
<!-- Node5 -->
<g id="node9" class="node"><title>Node5</title>
<a xlink:href="$classcom_1_1google_1_1appengine_1_1codelab_1_1_product_servlet.xhtml#a3cbc6cfe522686a474dade9a58b3d1a3" xlink:title="com.google.appengine.codelab.ProductServlet.doPut">
<polygon fill="none" stroke="black" points="648.136,0.0664062 648.136,-22.0664 919.864,-22.0664 919.864,0.0664062 648.136,0.0664062"/>
<text text-anchor="middle" x="784" y="-8.06641" font-family="sans-serif" font-size="10.00">com.google.appengine.codelab.ProductServlet.doPut</text>
</a>
</g>
<!-- Node4&#45;&gt;Node5 -->
<g id="edge8" class="edge"><title>Node4&#45;&gt;Node5</title>
<path fill="none" stroke="midnightblue" d="M622.643,-11C631.176,-11 639.688,-11 648.09,-11"/>
<polygon fill="midnightblue" stroke="midnightblue" points="622.624,-7.5001 612.623,-11 622.623,-14.5001 622.624,-7.5001"/>
</g>
</g>
</svg>
