<?xml version="1.0" encoding="UTF-8" standalone="no"?>
<!DOCTYPE svg PUBLIC "-//W3C//DTD SVG 1.1//EN"
 "http://www.w3.org/Graphics/SVG/1.1/DTD/svg11.dtd">
<!-- Generated by graphviz version 2.28.0 (20111028.1807)
 -->
<!-- Title: G Pages: 1 -->
<svg width="860pt" height="71pt"
 viewBox="0.00 0.00 860.00 71.00" xmlns="http://www.w3.org/2000/svg" xmlns:xlink="http://www.w3.org/1999/xlink">
<g id="graph1" class="graph" transform="scale(1 1) rotate(0) translate(4 67)">
<title>G</title>
<!-- Node1 -->
<g id="node1" class="node"><title>Node1</title>
<polygon fill="#bfbfbf" stroke="black" points="0.649902,-19.9336 0.649902,-42.0664 239.35,-42.0664 239.35,-19.9336 0.649902,-19.9336"/>
<text text-anchor="middle" x="120" y="-28.0664" font-family="sans-serif" font-size="10.00">csc440.nuf.server.SendMessage.sendMessage</text>
</g>
<!-- Node2 -->
<g id="node3" class="node"><title>Node2</title>
<a xlink:href="$classcsc440_1_1nuf_1_1server_1_1_data_store.xhtml#ad7c4ecf86f1850c8ba359f20feec8797" xlink:title="csc440.nuf.server.DataStore.sendC2DMUpdate">
<polygon fill="none" stroke="black" points="276.636,-40.9336 276.636,-63.0664 519.364,-63.0664 519.364,-40.9336 276.636,-40.9336"/>
<text text-anchor="middle" x="398" y="-49.0664" font-family="sans-serif" font-size="10.00">csc440.nuf.server.DataStore.sendC2DMUpdate</text>
</a>
</g>
<!-- Node1&#45;&gt;Node2 -->
<g id="edge2" class="edge"><title>Node1&#45;&gt;Node2</title>
<path fill="none" stroke="midnightblue" d="M249.636,-40.7875C258.507,-41.4625 267.429,-42.1414 276.256,-42.813"/>
<polygon fill="midnightblue" stroke="midnightblue" points="249.887,-37.2966 239.651,-40.0278 249.356,-44.2764 249.887,-37.2966"/>
</g>
<!-- Node4 -->
<g id="node7" class="node"><title>Node4</title>
<a xlink:href="$classcsc440_1_1nuf_1_1server_1_1_message.xhtml#a8fe8e1a3d08cf036c59a0fe09458754e" xlink:title="csc440.nuf.server.Message.send">
<polygon fill="none" stroke="black" points="311.233,0.0664062 311.233,-22.0664 484.767,-22.0664 484.767,0.0664062 311.233,0.0664062"/>
<text text-anchor="middle" x="398" y="-8.06641" font-family="sans-serif" font-size="10.00">csc440.nuf.server.Message.send</text>
</a>
</g>
<!-- Node1&#45;&gt;Node4 -->
<g id="edge6" class="edge"><title>Node1&#45;&gt;Node4</title>
<path fill="none" stroke="midnightblue" d="M249.798,-21.6668C270.531,-20.1644 291.542,-18.6419 310.949,-17.2356"/>
<polygon fill="midnightblue" stroke="midnightblue" points="249.371,-18.1884 239.651,-22.4021 249.877,-25.1701 249.371,-18.1884"/>
</g>
<!-- Node3 -->
<g id="node5" class="node"><title>Node3</title>
<a xlink:href="$classcsc440_1_1nuf_1_1server_1_1_s_m_i_l_engine_service.xhtml#a2c28cf08855cb6e77d5b774321f245d0" xlink:title="csc440.nuf.server.SMILEngineService.updateSMILMessage">
<polygon fill="none" stroke="black" points="556.623,-40.9336 556.623,-63.0664 851.377,-63.0664 851.377,-40.9336 556.623,-40.9336"/>
<text text-anchor="middle" x="704" y="-49.0664" font-family="sans-serif" font-size="10.00">csc440.nuf.server.SMILEngineService.updateSMILMessage</text>
</a>
</g>
<!-- Node2&#45;&gt;Node3 -->
<g id="edge4" class="edge"><title>Node2&#45;&gt;Node3</title>
<path fill="none" stroke="midnightblue" d="M529.855,-52C538.646,-52 547.534,-52 556.398,-52"/>
<polygon fill="midnightblue" stroke="midnightblue" points="529.586,-48.5001 519.585,-52 529.585,-55.5001 529.586,-48.5001"/>
</g>
</g>
</svg>
