<?xml version="1.0" encoding="UTF-8" standalone="no"?>
<!DOCTYPE svg PUBLIC "-//W3C//DTD SVG 1.1//EN"
 "http://www.w3.org/Graphics/SVG/1.1/DTD/svg11.dtd">
<!-- Generated by graphviz version 2.28.0 (20111028.1807)
 -->
<!-- Title: G Pages: 1 -->
<svg width="680pt" height="71pt"
 viewBox="0.00 0.00 680.00 71.00" xmlns="http://www.w3.org/2000/svg" xmlns:xlink="http://www.w3.org/1999/xlink">
<g id="graph1" class="graph" transform="scale(1 1) rotate(0) translate(4 67)">
<title>G</title>
<!-- Node1 -->
<g id="node1" class="node"><title>Node1</title>
<polygon fill="#bfbfbf" stroke="black" points="0.12793,-19.9336 0.12793,-42.0664 143.872,-42.0664 143.872,-19.9336 0.12793,-19.9336"/>
<text text-anchor="middle" x="72" y="-28.0664" font-family="sans-serif" font-size="10.00">csc440.nuf.Util.getBaseUrl</text>
</g>
<!-- Node2 -->
<g id="node3" class="node"><title>Node2</title>
<a xlink:href="$classcsc440_1_1nuf_1_1_util.xhtml#a5fbb65d6db8c6c778abe34f22b529513" xlink:title="csc440.nuf.Util.getRequestFactory">
<polygon fill="none" stroke="black" points="180.051,-40.9336 180.051,-63.0664 361.949,-63.0664 361.949,-40.9336 180.051,-40.9336"/>
<text text-anchor="middle" x="271" y="-49.0664" font-family="sans-serif" font-size="10.00">csc440.nuf.Util.getRequestFactory</text>
</a>
</g>
<!-- Node1&#45;&gt;Node2 -->
<g id="edge2" class="edge"><title>Node1&#45;&gt;Node2</title>
<path fill="none" stroke="midnightblue" d="M154.277,-39.664C162.687,-40.5605 171.27,-41.4754 179.77,-42.3816"/>
<polygon fill="midnightblue" stroke="midnightblue" points="154.436,-36.1613 144.122,-38.5815 153.694,-43.1218 154.436,-36.1613"/>
</g>
<!-- Node4 -->
<g id="node7" class="node"><title>Node4</title>
<a xlink:href="$classcsc440_1_1nuf_1_1_util.xhtml#ab50759c63c640488621224b197658775" xlink:title="csc440.nuf.Util.isDebug">
<polygon fill="none" stroke="black" points="204.936,0.0664062 204.936,-22.0664 337.064,-22.0664 337.064,0.0664062 204.936,0.0664062"/>
<text text-anchor="middle" x="271" y="-8.06641" font-family="sans-serif" font-size="10.00">csc440.nuf.Util.isDebug</text>
</a>
</g>
<!-- Node1&#45;&gt;Node4 -->
<g id="edge6" class="edge"><title>Node1&#45;&gt;Node4</title>
<path fill="none" stroke="midnightblue" d="M154.475,-22.7284C171.274,-21.023 188.754,-19.2483 204.881,-17.6111"/>
<polygon fill="midnightblue" stroke="midnightblue" points="153.717,-19.2873 144.122,-23.7795 154.424,-26.2515 153.717,-19.2873"/>
</g>
<!-- Node3 -->
<g id="node5" class="node"><title>Node3</title>
<a xlink:href="$classcsc440_1_1nuf_1_1_async_fetch_s_m_i_l_message.xhtml#a19a50624286e3650df8cbe84e6cf4ada" xlink:title="csc440.nuf.AsyncFetchSMILMessage.doInBackground">
<polygon fill="none" stroke="black" points="398.348,-40.9336 398.348,-63.0664 671.652,-63.0664 671.652,-40.9336 398.348,-40.9336"/>
<text text-anchor="middle" x="535" y="-49.0664" font-family="sans-serif" font-size="10.00">csc440.nuf.AsyncFetchSMILMessage.doInBackground</text>
</a>
</g>
<!-- Node2&#45;&gt;Node3 -->
<g id="edge4" class="edge"><title>Node2&#45;&gt;Node3</title>
<path fill="none" stroke="midnightblue" d="M372.417,-52C380.903,-52 389.571,-52 398.267,-52"/>
<polygon fill="midnightblue" stroke="midnightblue" points="372.166,-48.5001 362.166,-52 372.166,-55.5001 372.166,-48.5001"/>
</g>
</g>
</svg>
