<?xml version="1.0" encoding="UTF-8" standalone="no"?>
<!DOCTYPE svg PUBLIC "-//W3C//DTD SVG 1.1//EN"
 "http://www.w3.org/Graphics/SVG/1.1/DTD/svg11.dtd">
<!-- Generated by graphviz version 2.28.0 (20111028.1807)
 -->
<!-- Title: G Pages: 1 -->
<svg width="582pt" height="71pt"
 viewBox="0.00 0.00 582.00 71.00" xmlns="http://www.w3.org/2000/svg" xmlns:xlink="http://www.w3.org/1999/xlink">
<g id="graph1" class="graph" transform="scale(1 1) rotate(0) translate(4 67)">
<title>G</title>
<!-- Node1 -->
<g id="node1" class="node"><title>Node1</title>
<polygon fill="#bfbfbf" stroke="black" points="0.495117,-19.9336 0.495117,-42.0664 301.505,-42.0664 301.505,-19.9336 0.495117,-19.9336"/>
<text text-anchor="middle" x="151" y="-28.0664" font-family="sans-serif" font-size="10.00">csc440.nuf.server.RegistrationInfo.getDeviceRegistrationId</text>
</g>
<!-- Node2 -->
<g id="node3" class="node"><title>Node2</title>
<a xlink:href="$classcsc440_1_1nuf_1_1server_1_1_registration_info.xhtml#ab176d58e768a58c208d03f222a2fafa1" xlink:title="csc440.nuf.server.RegistrationInfo.register">
<polygon fill="none" stroke="black" points="344.348,-40.9336 344.348,-63.0664 567.652,-63.0664 567.652,-40.9336 344.348,-40.9336"/>
<text text-anchor="middle" x="456" y="-49.0664" font-family="sans-serif" font-size="10.00">csc440.nuf.server.RegistrationInfo.register</text>
</a>
</g>
<!-- Node1&#45;&gt;Node2 -->
<g id="edge2" class="edge"><title>Node1&#45;&gt;Node2</title>
<path fill="none" stroke="midnightblue" d="M311.786,-42.0742C322.73,-42.8328 333.617,-43.5873 344.217,-44.3219"/>
<polygon fill="midnightblue" stroke="midnightblue" points="311.943,-38.5768 301.725,-41.377 311.459,-45.5601 311.943,-38.5768"/>
</g>
<!-- Node3 -->
<g id="node5" class="node"><title>Node3</title>
<a xlink:href="$classcsc440_1_1nuf_1_1server_1_1_registration_info.xhtml#a9a81326b26268cc5da3c47f0b06b6bd2" xlink:title="csc440.nuf.server.RegistrationInfo.unregister">
<polygon fill="none" stroke="black" points="338.142,0.0664062 338.142,-22.0664 573.858,-22.0664 573.858,0.0664062 338.142,0.0664062"/>
<text text-anchor="middle" x="456" y="-8.06641" font-family="sans-serif" font-size="10.00">csc440.nuf.server.RegistrationInfo.unregister</text>
</a>
</g>
<!-- Node1&#45;&gt;Node3 -->
<g id="edge4" class="edge"><title>Node1&#45;&gt;Node3</title>
<path fill="none" stroke="midnightblue" d="M311.751,-20.4554C320.622,-19.8698 329.456,-19.2867 338.13,-18.7142"/>
<polygon fill="midnightblue" stroke="midnightblue" points="311.472,-16.9661 301.725,-21.1172 311.933,-23.9509 311.472,-16.9661"/>
</g>
</g>
</svg>
