<?xml version="1.0" encoding="UTF-8" standalone="no"?>
<!DOCTYPE svg PUBLIC "-//W3C//DTD SVG 1.1//EN"
 "http://www.w3.org/Graphics/SVG/1.1/DTD/svg11.dtd">
<!-- Generated by graphviz version 2.28.0 (20111028.1807)
 -->
<!-- Title: G Pages: 1 -->
<svg width="778pt" height="153pt"
 viewBox="0.00 0.00 778.00 153.00" xmlns="http://www.w3.org/2000/svg" xmlns:xlink="http://www.w3.org/1999/xlink">
<g id="graph1" class="graph" transform="scale(1 1) rotate(0) translate(4 149)">
<title>G</title>
<!-- Node1 -->
<g id="node1" class="node"><title>Node1</title>
<polygon fill="#bfbfbf" stroke="black" points="-0.166016,-44.9336 -0.166016,-67.0664 186.166,-67.0664 186.166,-44.9336 -0.166016,-44.9336"/>
<text text-anchor="middle" x="93" y="-53.0664" font-family="sans-serif" font-size="10.00">csc440.nuf.complay.Timer.setTime</text>
</g>
<!-- Node2 -->
<g id="node3" class="node"><title>Node2</title>
<a xlink:href="$classcsc440_1_1nuf_1_1complay_1_1_player_canvas.xhtml#a64eae2e9ed26456ab5b104436c97d78f" xlink:title="csc440.nuf.complay.PlayerCanvas.setTime">
<polygon fill="none" stroke="black" points="222.305,-70.9336 222.305,-93.0664 443.695,-93.0664 443.695,-70.9336 222.305,-70.9336"/>
<text text-anchor="middle" x="333" y="-79.0664" font-family="sans-serif" font-size="10.00">csc440.nuf.complay.PlayerCanvas.setTime</text>
</a>
</g>
<!-- Node1&#45;&gt;Node2 -->
<g id="edge2" class="edge"><title>Node1&#45;&gt;Node2</title>
<path fill="none" stroke="midnightblue" d="M196.635,-67.2123C207.901,-68.4429 219.366,-69.6954 230.616,-70.9244"/>
<polygon fill="midnightblue" stroke="midnightblue" points="196.679,-63.6963 186.358,-66.0895 195.918,-70.6549 196.679,-63.6963"/>
</g>
<!-- Node6 -->
<g id="node11" class="node"><title>Node6</title>
<a xlink:href="$classcsc440_1_1nuf_1_1complay_1_1_timer.xhtml#aff1846d75c64aee648b2321f9ea62314" xlink:title="csc440.nuf.complay.Timer.timePlusPlus">
<polygon fill="none" stroke="black" points="228.608,-19.9336 228.608,-42.0664 437.392,-42.0664 437.392,-19.9336 228.608,-19.9336"/>
<text text-anchor="middle" x="333" y="-28.0664" font-family="sans-serif" font-size="10.00">csc440.nuf.complay.Timer.timePlusPlus</text>
</a>
</g>
<!-- Node1&#45;&gt;Node6 -->
<g id="edge10" class="edge"><title>Node1&#45;&gt;Node6</title>
<path fill="none" stroke="midnightblue" d="M196.402,-45.2434C206.948,-44.1358 217.67,-43.0095 228.23,-41.9002"/>
<polygon fill="midnightblue" stroke="midnightblue" points="195.937,-41.773 186.358,-46.2986 196.669,-48.7347 195.937,-41.773"/>
</g>
<!-- Node3 -->
<g id="node5" class="node"><title>Node3</title>
<a xlink:href="$classcsc440_1_1nuf_1_1complay_1_1_player_activity.xhtml#a592b9fe89b9076e65456181c0e389e3c" xlink:title="csc440.nuf.complay.PlayerActivity.onCreate">
<polygon fill="none" stroke="black" points="511.067,-122.934 511.067,-145.066 738.933,-145.066 738.933,-122.934 511.067,-122.934"/>
<text text-anchor="middle" x="625" y="-131.066" font-family="sans-serif" font-size="10.00">csc440.nuf.complay.PlayerActivity.onCreate</text>
</a>
</g>
<!-- Node2&#45;&gt;Node3 -->
<g id="edge4" class="edge"><title>Node2&#45;&gt;Node3</title>
<path fill="none" stroke="midnightblue" d="M392.44,-95.3084C419.071,-101.141 451.049,-107.821 480,-113 499.896,-116.559 521.419,-119.945 541.61,-122.917"/>
<polygon fill="midnightblue" stroke="midnightblue" points="393.032,-91.8549 382.513,-93.1195 391.525,-98.6907 393.032,-91.8549"/>
</g>
<!-- Node4 -->
<g id="node7" class="node"><title>Node4</title>
<a xlink:href="$classcsc440_1_1nuf_1_1complay_1_1_player_activity.xhtml#a042e95babe17fab59ba7d71a6dfc9dbb" xlink:title="csc440.nuf.complay.PlayerActivity.onStopTrackingTouch">
<polygon fill="none" stroke="black" points="479.876,-81.9336 479.876,-104.066 770.124,-104.066 770.124,-81.9336 479.876,-81.9336"/>
<text text-anchor="middle" x="625" y="-90.0664" font-family="sans-serif" font-size="10.00">csc440.nuf.complay.PlayerActivity.onStopTrackingTouch</text>
</a>
</g>
<!-- Node2&#45;&gt;Node4 -->
<g id="edge6" class="edge"><title>Node2&#45;&gt;Node4</title>
<path fill="none" stroke="midnightblue" d="M454.266,-86.5618C462.695,-86.8815 471.239,-87.2056 479.779,-87.5296"/>
<polygon fill="midnightblue" stroke="midnightblue" points="454.176,-83.056 444.05,-86.1743 453.91,-90.0509 454.176,-83.056"/>
</g>
<!-- Node5 -->
<g id="node9" class="node"><title>Node5</title>
<a xlink:href="$classcsc440_1_1nuf_1_1complay_1_1_player_activity.xhtml#a7f5eb45ffac9b23a602a8ba76dbb6d47" xlink:title="csc440.nuf.complay.PlayerActivity.playPause">
<polygon fill="none" stroke="black" points="509.021,-40.9336 509.021,-63.0664 740.979,-63.0664 740.979,-40.9336 509.021,-40.9336"/>
<text text-anchor="middle" x="625" y="-49.0664" font-family="sans-serif" font-size="10.00">csc440.nuf.complay.PlayerActivity.playPause</text>
</a>
</g>
<!-- Node2&#45;&gt;Node5 -->
<g id="edge8" class="edge"><title>Node2&#45;&gt;Node5</title>
<path fill="none" stroke="midnightblue" d="M451.367,-69.8586C472.999,-67.6208 495.482,-65.2949 516.795,-63.0901"/>
<polygon fill="midnightblue" stroke="midnightblue" points="450.748,-66.4038 441.161,-70.9143 451.468,-73.3667 450.748,-66.4038"/>
</g>
<!-- Node7 -->
<g id="node13" class="node"><title>Node7</title>
<a xlink:href="$classcsc440_1_1nuf_1_1complay_1_1_player_canvas.xhtml#aa0797d703af20d0ada15e590da003617" xlink:title="csc440.nuf.complay.PlayerCanvas.run">
<polygon fill="none" stroke="black" points="525.318,0.0664062 525.318,-22.0664 724.682,-22.0664 724.682,0.0664062 525.318,0.0664062"/>
<text text-anchor="middle" x="625" y="-8.06641" font-family="sans-serif" font-size="10.00">csc440.nuf.complay.PlayerCanvas.run</text>
</a>
</g>
<!-- Node6&#45;&gt;Node7 -->
<g id="edge12" class="edge"><title>Node6&#45;&gt;Node7</title>
<path fill="none" stroke="midnightblue" d="M447.564,-23.168C473.117,-21.4057 500.039,-19.549 524.944,-17.8315"/>
<polygon fill="midnightblue" stroke="midnightblue" points="447.204,-19.6844 437.468,-23.8642 447.686,-26.6678 447.204,-19.6844"/>
</g>
</g>
</svg>
