<?xml version="1.0" encoding="UTF-8" standalone="no"?>
<!DOCTYPE svg PUBLIC "-//W3C//DTD SVG 1.1//EN"
 "http://www.w3.org/Graphics/SVG/1.1/DTD/svg11.dtd">
<!-- Generated by graphviz version 2.28.0 (20111028.1807)
 -->
<!-- Title: G Pages: 1 -->
<svg width="662pt" height="71pt"
 viewBox="0.00 0.00 662.00 71.00" xmlns="http://www.w3.org/2000/svg" xmlns:xlink="http://www.w3.org/1999/xlink">
<g id="graph1" class="graph" transform="scale(1 1) rotate(0) translate(4 67)">
<title>G</title>
<!-- Node1 -->
<g id="node1" class="node"><title>Node1</title>
<polygon fill="#bfbfbf" stroke="black" points="0.284668,-19.9336 0.284668,-42.0664 327.715,-42.0664 327.715,-19.9336 0.284668,-19.9336"/>
<text text-anchor="middle" x="164" y="-28.0664" font-family="sans-serif" font-size="10.00">csc440.nuf.components.AbstractSMILObject.AbstractSMILObject</text>
</g>
<!-- Node2 -->
<g id="node3" class="node"><title>Node2</title>
<a xlink:href="$classcsc440_1_1nuf_1_1components_1_1_abstract_s_m_i_l_object.xhtml#ab56e7a3d66c7dba0e005482e200792a2" xlink:title="csc440.nuf.components.AbstractSMILObject.setDuration">
<polygon fill="none" stroke="black" points="364.064,-40.9336 364.064,-63.0664 653.936,-63.0664 653.936,-40.9336 364.064,-40.9336"/>
<text text-anchor="middle" x="509" y="-49.0664" font-family="sans-serif" font-size="10.00">csc440.nuf.components.AbstractSMILObject.setDuration</text>
</a>
</g>
<!-- Node1&#45;&gt;Node2 -->
<g id="edge2" class="edge"><title>Node1&#45;&gt;Node2</title>
<path fill="none" stroke="midnightblue" d="M327.962,-40.9772C336.596,-41.5059 345.259,-42.0363 353.864,-42.5631"/>
<polygon fill="midnightblue" stroke="midnightblue" points="353.737,-46.0618 363.932,-43.1795 354.165,-39.0749 353.737,-46.0618"/>
</g>
<!-- Node3 -->
<g id="node5" class="node"><title>Node3</title>
<a xlink:href="$classcsc440_1_1nuf_1_1components_1_1_abstract_s_m_i_l_object.xhtml#ae06070ab4e7007117abd32b189afde97" xlink:title="csc440.nuf.components.AbstractSMILObject.getIntValue">
<polygon fill="none" stroke="black" points="364.862,0.0664062 364.862,-22.0664 653.138,-22.0664 653.138,0.0664062 364.862,0.0664062"/>
<text text-anchor="middle" x="509" y="-8.06641" font-family="sans-serif" font-size="10.00">csc440.nuf.components.AbstractSMILObject.getIntValue</text>
</a>
</g>
<!-- Node1&#45;&gt;Node3 -->
<g id="edge4" class="edge"><title>Node1&#45;&gt;Node3</title>
<path fill="none" stroke="midnightblue" d="M327.962,-21.4979C336.878,-20.9779 345.826,-20.4562 354.707,-19.9383"/>
<polygon fill="midnightblue" stroke="midnightblue" points="354.923,-23.4318 364.702,-19.3556 354.515,-16.4437 354.923,-23.4318"/>
</g>
</g>
</svg>
