<?xml version="1.0" encoding="UTF-8" standalone="no"?>
<!DOCTYPE svg PUBLIC "-//W3C//DTD SVG 1.1//EN"
 "http://www.w3.org/Graphics/SVG/1.1/DTD/svg11.dtd">
<!-- Generated by graphviz version 2.28.0 (20111028.1807)
 -->
<!-- Title: G Pages: 1 -->
<svg width="502pt" height="71pt"
 viewBox="0.00 0.00 502.00 71.00" xmlns="http://www.w3.org/2000/svg" xmlns:xlink="http://www.w3.org/1999/xlink">
<g id="graph1" class="graph" transform="scale(1 1) rotate(0) translate(4 67)">
<title>G</title>
<!-- Node1 -->
<g id="node1" class="node"><title>Node1</title>
<polygon fill="#bfbfbf" stroke="black" points="-0.14502,-19.9336 -0.14502,-42.0664 238.145,-42.0664 238.145,-19.9336 -0.14502,-19.9336"/>
<text text-anchor="middle" x="119" y="-28.0664" font-family="sans-serif" font-size="10.00">csc440.nuf.server.SMILMessageLocator.create</text>
</g>
<!-- Node2 -->
<g id="node3" class="node"><title>Node2</title>
<a xlink:href="$classcsc440_1_1nuf_1_1server_1_1_data_store.xhtml#aec9033c4e9624646beb5276de28bfe59" xlink:title="csc440.nuf.server.DataStore.getUserId">
<polygon fill="none" stroke="black" points="282.863,-40.9336 282.863,-63.0664 485.137,-63.0664 485.137,-40.9336 282.863,-40.9336"/>
<text text-anchor="middle" x="384" y="-49.0664" font-family="sans-serif" font-size="10.00">csc440.nuf.server.DataStore.getUserId</text>
</a>
</g>
<!-- Node1&#45;&gt;Node2 -->
<g id="edge2" class="edge"><title>Node1&#45;&gt;Node2</title>
<path fill="none" stroke="midnightblue" d="M238.421,-40.4556C249.694,-41.3558 261.098,-42.2664 272.295,-43.1604"/>
<polygon fill="midnightblue" stroke="midnightblue" points="272.263,-46.6689 282.51,-43.9761 272.82,-39.6911 272.263,-46.6689"/>
</g>
<!-- Node3 -->
<g id="node5" class="node"><title>Node3</title>
<a xlink:href="$classcsc440_1_1nuf_1_1server_1_1_data_store.xhtml#a3749afd0edd374001b7a29ef14495ffc" xlink:title="csc440.nuf.server.DataStore.getUserEmail">
<polygon fill="none" stroke="black" points="274.42,0.0664062 274.42,-22.0664 493.58,-22.0664 493.58,0.0664062 274.42,0.0664062"/>
<text text-anchor="middle" x="384" y="-8.06641" font-family="sans-serif" font-size="10.00">csc440.nuf.server.DataStore.getUserEmail</text>
</a>
</g>
<!-- Node1&#45;&gt;Node3 -->
<g id="edge4" class="edge"><title>Node1&#45;&gt;Node3</title>
<path fill="none" stroke="midnightblue" d="M238.421,-21.9946C246.854,-21.3533 255.359,-20.7065 263.796,-20.0649"/>
<polygon fill="midnightblue" stroke="midnightblue" points="264.339,-23.5339 274.045,-19.2856 263.808,-16.554 264.339,-23.5339"/>
</g>
</g>
</svg>
