<?xml version="1.0" encoding="UTF-8" standalone="no"?>
<!DOCTYPE svg PUBLIC "-//W3C//DTD SVG 1.1//EN"
 "http://www.w3.org/Graphics/SVG/1.1/DTD/svg11.dtd">
<!-- Generated by graphviz version 2.28.0 (20111028.1807)
 -->
<!-- Title: G Pages: 1 -->
<svg width="220pt" height="222pt"
 viewBox="0.00 0.00 220.00 222.00" xmlns="http://www.w3.org/2000/svg" xmlns:xlink="http://www.w3.org/1999/xlink">
<g id="graph1" class="graph" transform="scale(1 1) rotate(0) translate(4 218)">
<title>G</title>
<!-- Node1 -->
<g id="node1" class="node"><title>Node1</title>
<polygon fill="#bfbfbf" stroke="black" points="-0.57666,-0.601562 -0.57666,-109.398 212.577,-109.398 212.577,-0.601562 -0.57666,-0.601562"/>
<text text-anchor="middle" x="106" y="-95.3984" font-family="sans-serif" font-size="10.00">csc440.nuf.shared.RegistrationInfoProxy</text>
<polyline fill="none" stroke="black" points="-0.57666,-87.2656 212.577,-87.2656 "/>
<text text-anchor="middle" x="106" y="-73.2656" font-family="sans-serif" font-size="10.00"> </text>
<polyline fill="none" stroke="black" points="-0.57666,-65.1328 212.577,-65.1328 "/>
<text text-anchor="start" x="7.42334" y="-51.1328" font-family="sans-serif" font-size="10.00">+ getDeviceId()</text>
<text text-anchor="start" x="7.42334" y="-37" font-family="sans-serif" font-size="10.00">+ getDeviceRegistrationId()</text>
<text text-anchor="start" x="7.42334" y="-22.8672" font-family="sans-serif" font-size="10.00">+ setDeviceId()</text>
<text text-anchor="start" x="7.42334" y="-8.73438" font-family="sans-serif" font-size="10.00">+ setDeviceRegistrationId()</text>
</g>
<!-- Node2 -->
<g id="node2" class="node"><title>Node2</title>
<polygon fill="none" stroke="#bfbfbf" points="71.0762,-146.801 71.0762,-213.199 140.924,-213.199 140.924,-146.801 71.0762,-146.801"/>
<text text-anchor="middle" x="106" y="-199.199" font-family="sans-serif" font-size="10.00">ValueProxy</text>
<polyline fill="none" stroke="#bfbfbf" points="71.0762,-191.066 140.924,-191.066 "/>
<text text-anchor="middle" x="106" y="-177.066" font-family="sans-serif" font-size="10.00"> </text>
<polyline fill="none" stroke="#bfbfbf" points="71.0762,-168.934 140.924,-168.934 "/>
<text text-anchor="middle" x="106" y="-154.934" font-family="sans-serif" font-size="10.00"> </text>
</g>
<!-- Node2&#45;&gt;Node1 -->
<g id="edge2" class="edge"><title>Node2&#45;&gt;Node1</title>
<path fill="none" stroke="midnightblue" d="M106,-136.425C106,-127.745 106,-118.507 106,-109.502"/>
<polygon fill="none" stroke="midnightblue" points="102.5,-136.683 106,-146.683 109.5,-136.683 102.5,-136.683"/>
</g>
</g>
</svg>
