<?xml version="1.0" encoding="UTF-8" standalone="no"?>
<!DOCTYPE svg PUBLIC "-//W3C//DTD SVG 1.1//EN"
 "http://www.w3.org/Graphics/SVG/1.1/DTD/svg11.dtd">
<!-- Generated by graphviz version 2.28.0 (20111028.1807)
 -->
<!-- Title: G Pages: 1 -->
<svg width="316pt" height="194pt"
 viewBox="0.00 0.00 316.00 194.00" xmlns="http://www.w3.org/2000/svg" xmlns:xlink="http://www.w3.org/1999/xlink">
<g id="graph1" class="graph" transform="scale(1 1) rotate(0) translate(4 190)">
<title>G</title>
<!-- Node1 -->
<g id="node1" class="node"><title>Node1</title>
<polygon fill="#bfbfbf" stroke="black" points="-0.743164,-0.734375 -0.743164,-81.2656 308.743,-81.2656 308.743,-0.734375 -0.743164,-0.734375"/>
<text text-anchor="middle" x="154" y="-67.2656" font-family="sans-serif" font-size="10.00">csc440.nuf.client.MyRequestFactory.RegistrationInfoRequest</text>
<polyline fill="none" stroke="black" points="-0.743164,-59.1328 308.743,-59.1328 "/>
<text text-anchor="middle" x="154" y="-45.1328" font-family="sans-serif" font-size="10.00"> </text>
<polyline fill="none" stroke="black" points="-0.743164,-37 308.743,-37 "/>
<text text-anchor="start" x="7.25684" y="-23" font-family="sans-serif" font-size="10.00">+ register()</text>
<text text-anchor="start" x="7.25684" y="-8.86719" font-family="sans-serif" font-size="10.00">+ unregister()</text>
</g>
<!-- Node2 -->
<g id="node2" class="node"><title>Node2</title>
<polygon fill="none" stroke="#bfbfbf" points="107.372,-118.801 107.372,-185.199 200.628,-185.199 200.628,-118.801 107.372,-118.801"/>
<text text-anchor="middle" x="154" y="-171.199" font-family="sans-serif" font-size="10.00">RequestContext</text>
<polyline fill="none" stroke="#bfbfbf" points="107.372,-163.066 200.628,-163.066 "/>
<text text-anchor="middle" x="154" y="-149.066" font-family="sans-serif" font-size="10.00"> </text>
<polyline fill="none" stroke="#bfbfbf" points="107.372,-140.934 200.628,-140.934 "/>
<text text-anchor="middle" x="154" y="-126.934" font-family="sans-serif" font-size="10.00"> </text>
</g>
<!-- Node2&#45;&gt;Node1 -->
<g id="edge2" class="edge"><title>Node2&#45;&gt;Node1</title>
<path fill="none" stroke="midnightblue" d="M154,-108.417C154,-99.5248 154,-90.1871 154,-81.4153"/>
<polygon fill="none" stroke="midnightblue" points="150.5,-108.591 154,-118.592 157.5,-108.592 150.5,-108.591"/>
</g>
</g>
</svg>
