<?xml version="1.0" encoding="UTF-8" standalone="no"?>
<!DOCTYPE svg PUBLIC "-//W3C//DTD SVG 1.1//EN"
 "http://www.w3.org/Graphics/SVG/1.1/DTD/svg11.dtd">
<!-- Generated by graphviz version 2.28.0 (20111028.1807)
 -->
<!-- Title: G Pages: 1 -->
<svg width="914pt" height="112pt"
 viewBox="0.00 0.00 914.00 112.00" xmlns="http://www.w3.org/2000/svg" xmlns:xlink="http://www.w3.org/1999/xlink">
<g id="graph1" class="graph" transform="scale(1 1) rotate(0) translate(4 108)">
<title>G</title>
<!-- Node1 -->
<g id="node1" class="node"><title>Node1</title>
<polygon fill="#bfbfbf" stroke="black" points="-0.17627,-40.9336 -0.17627,-63.0664 362.176,-63.0664 362.176,-40.9336 -0.17627,-40.9336"/>
<text text-anchor="middle" x="181" y="-49.0664" font-family="sans-serif" font-size="10.00">csc440.nuf.client.MyRequestFactory.RegistrationInfoRequest.unregister</text>
</g>
<!-- Node2 -->
<g id="node3" class="node"><title>Node2</title>
<a xlink:href="$classcsc440_1_1nuf_1_1_device_registrar.xhtml#a588aba958edca877d7f3f995d8854dbd" xlink:title="csc440.nuf.DeviceRegistrar.registerOrUnregister">
<polygon fill="none" stroke="black" points="398.573,-40.9336 398.573,-63.0664 649.427,-63.0664 649.427,-40.9336 398.573,-40.9336"/>
<text text-anchor="middle" x="524" y="-49.0664" font-family="sans-serif" font-size="10.00">csc440.nuf.DeviceRegistrar.registerOrUnregister</text>
</a>
</g>
<!-- Node1&#45;&gt;Node2 -->
<g id="edge2" class="edge"><title>Node1&#45;&gt;Node2</title>
<path fill="none" stroke="midnightblue" d="M372.708,-52C381.393,-52 390.007,-52 398.459,-52"/>
<polygon fill="midnightblue" stroke="midnightblue" points="372.485,-48.5001 362.485,-52 372.485,-55.5001 372.485,-48.5001"/>
</g>
<!-- Node3 -->
<g id="node5" class="node"><title>Node3</title>
<a xlink:href="$classcsc440_1_1nuf_1_1_accounts_activity.xhtml#a172796bda215011c1ef3b983e9555cfb" xlink:title="csc440.nuf.AccountsActivity.onResume">
<polygon fill="none" stroke="black" points="692.717,-81.9336 692.717,-104.066 899.283,-104.066 899.283,-81.9336 692.717,-81.9336"/>
<text text-anchor="middle" x="796" y="-90.0664" font-family="sans-serif" font-size="10.00">csc440.nuf.AccountsActivity.onResume</text>
</a>
</g>
<!-- Node2&#45;&gt;Node3 -->
<g id="edge4" class="edge"><title>Node2&#45;&gt;Node3</title>
<path fill="none" stroke="midnightblue" d="M608.149,-64.6264C644.494,-70.1453 686.75,-76.5621 721.876,-81.8959"/>
<polygon fill="midnightblue" stroke="midnightblue" points="608.478,-61.1362 598.066,-63.0952 607.427,-68.0569 608.478,-61.1362"/>
</g>
<!-- Node4 -->
<g id="node7" class="node"><title>Node4</title>
<a xlink:href="$classcsc440_1_1nuf_1_1_c2_d_m_receiver.xhtml#a55ec75d92b2ea18fc3bfb7354fc63571" xlink:title="csc440.nuf.C2DMReceiver.onRegistered">
<polygon fill="none" stroke="black" points="691.354,-40.9336 691.354,-63.0664 900.646,-63.0664 900.646,-40.9336 691.354,-40.9336"/>
<text text-anchor="middle" x="796" y="-49.0664" font-family="sans-serif" font-size="10.00">csc440.nuf.C2DMReceiver.onRegistered</text>
</a>
</g>
<!-- Node2&#45;&gt;Node4 -->
<g id="edge6" class="edge"><title>Node2&#45;&gt;Node4</title>
<path fill="none" stroke="midnightblue" d="M659.782,-52C670.28,-52 680.78,-52 691.027,-52"/>
<polygon fill="midnightblue" stroke="midnightblue" points="659.726,-48.5001 649.726,-52 659.726,-55.5001 659.726,-48.5001"/>
</g>
<!-- Node5 -->
<g id="node9" class="node"><title>Node5</title>
<a xlink:href="$classcsc440_1_1nuf_1_1_c2_d_m_receiver.xhtml#a5703ea903b3efa7a0fc8b0dd94c93939" xlink:title="csc440.nuf.C2DMReceiver.onUnregistered">
<polygon fill="none" stroke="black" points="685.903,0.0664062 685.903,-22.0664 906.097,-22.0664 906.097,0.0664062 685.903,0.0664062"/>
<text text-anchor="middle" x="796" y="-8.06641" font-family="sans-serif" font-size="10.00">csc440.nuf.C2DMReceiver.onUnregistered</text>
</a>
</g>
<!-- Node2&#45;&gt;Node5 -->
<g id="edge8" class="edge"><title>Node2&#45;&gt;Node5</title>
<path fill="none" stroke="midnightblue" d="M608.149,-39.3736C644.494,-33.8547 686.75,-27.4379 721.876,-22.1041"/>
<polygon fill="midnightblue" stroke="midnightblue" points="607.427,-35.9431 598.066,-40.9048 608.478,-42.8638 607.427,-35.9431"/>
</g>
</g>
</svg>
