<?xml version="1.0" encoding="UTF-8" standalone="no"?>
<!DOCTYPE svg PUBLIC "-//W3C//DTD SVG 1.1//EN"
 "http://www.w3.org/Graphics/SVG/1.1/DTD/svg11.dtd">
<!-- Generated by graphviz version 2.28.0 (20111028.1807)
 -->
<!-- Title: G Pages: 1 -->
<svg width="902pt" height="112pt"
 viewBox="0.00 0.00 902.00 112.00" xmlns="http://www.w3.org/2000/svg" xmlns:xlink="http://www.w3.org/1999/xlink">
<g id="graph1" class="graph" transform="scale(1 1) rotate(0) translate(4 108)">
<title>G</title>
<!-- Node1 -->
<g id="node1" class="node"><title>Node1</title>
<polygon fill="#bfbfbf" stroke="black" points="0.0297852,-40.9336 0.0297852,-63.0664 349.97,-63.0664 349.97,-40.9336 0.0297852,-40.9336"/>
<text text-anchor="middle" x="175" y="-49.0664" font-family="sans-serif" font-size="10.00">csc440.nuf.client.MyRequestFactory.RegistrationInfoRequest.register</text>
</g>
<!-- Node2 -->
<g id="node3" class="node"><title>Node2</title>
<a xlink:href="$classcsc440_1_1nuf_1_1_device_registrar.xhtml#a588aba958edca877d7f3f995d8854dbd" xlink:title="csc440.nuf.DeviceRegistrar.registerOrUnregister">
<polygon fill="none" stroke="black" points="386.573,-40.9336 386.573,-63.0664 637.427,-63.0664 637.427,-40.9336 386.573,-40.9336"/>
<text text-anchor="middle" x="512" y="-49.0664" font-family="sans-serif" font-size="10.00">csc440.nuf.DeviceRegistrar.registerOrUnregister</text>
</a>
</g>
<!-- Node1&#45;&gt;Node2 -->
<g id="edge2" class="edge"><title>Node1&#45;&gt;Node2</title>
<path fill="none" stroke="midnightblue" d="M360.546,-52C369.197,-52 377.787,-52 386.221,-52"/>
<polygon fill="midnightblue" stroke="midnightblue" points="360.368,-48.5001 350.368,-52 360.368,-55.5001 360.368,-48.5001"/>
</g>
<!-- Node3 -->
<g id="node5" class="node"><title>Node3</title>
<a xlink:href="$classcsc440_1_1nuf_1_1_accounts_activity.xhtml#a172796bda215011c1ef3b983e9555cfb" xlink:title="csc440.nuf.AccountsActivity.onResume">
<polygon fill="none" stroke="black" points="680.717,-81.9336 680.717,-104.066 887.283,-104.066 887.283,-81.9336 680.717,-81.9336"/>
<text text-anchor="middle" x="784" y="-90.0664" font-family="sans-serif" font-size="10.00">csc440.nuf.AccountsActivity.onResume</text>
</a>
</g>
<!-- Node2&#45;&gt;Node3 -->
<g id="edge4" class="edge"><title>Node2&#45;&gt;Node3</title>
<path fill="none" stroke="midnightblue" d="M596.149,-64.6264C632.494,-70.1453 674.75,-76.5621 709.876,-81.8959"/>
<polygon fill="midnightblue" stroke="midnightblue" points="596.478,-61.1362 586.066,-63.0952 595.427,-68.0569 596.478,-61.1362"/>
</g>
<!-- Node4 -->
<g id="node7" class="node"><title>Node4</title>
<a xlink:href="$classcsc440_1_1nuf_1_1_c2_d_m_receiver.xhtml#a55ec75d92b2ea18fc3bfb7354fc63571" xlink:title="csc440.nuf.C2DMReceiver.onRegistered">
<polygon fill="none" stroke="black" points="679.354,-40.9336 679.354,-63.0664 888.646,-63.0664 888.646,-40.9336 679.354,-40.9336"/>
<text text-anchor="middle" x="784" y="-49.0664" font-family="sans-serif" font-size="10.00">csc440.nuf.C2DMReceiver.onRegistered</text>
</a>
</g>
<!-- Node2&#45;&gt;Node4 -->
<g id="edge6" class="edge"><title>Node2&#45;&gt;Node4</title>
<path fill="none" stroke="midnightblue" d="M647.782,-52C658.28,-52 668.78,-52 679.027,-52"/>
<polygon fill="midnightblue" stroke="midnightblue" points="647.726,-48.5001 637.726,-52 647.726,-55.5001 647.726,-48.5001"/>
</g>
<!-- Node5 -->
<g id="node9" class="node"><title>Node5</title>
<a xlink:href="$classcsc440_1_1nuf_1_1_c2_d_m_receiver.xhtml#a5703ea903b3efa7a0fc8b0dd94c93939" xlink:title="csc440.nuf.C2DMReceiver.onUnregistered">
<polygon fill="none" stroke="black" points="673.903,0.0664062 673.903,-22.0664 894.097,-22.0664 894.097,0.0664062 673.903,0.0664062"/>
<text text-anchor="middle" x="784" y="-8.06641" font-family="sans-serif" font-size="10.00">csc440.nuf.C2DMReceiver.onUnregistered</text>
</a>
</g>
<!-- Node2&#45;&gt;Node5 -->
<g id="edge8" class="edge"><title>Node2&#45;&gt;Node5</title>
<path fill="none" stroke="midnightblue" d="M596.149,-39.3736C632.494,-33.8547 674.75,-27.4379 709.876,-22.1041"/>
<polygon fill="midnightblue" stroke="midnightblue" points="595.427,-35.9431 586.066,-40.9048 596.478,-42.8638 595.427,-35.9431"/>
</g>
</g>
</svg>
