<?xml version="1.0" encoding="UTF-8" standalone="no"?>
<!DOCTYPE svg PUBLIC "-//W3C//DTD SVG 1.1//EN"
 "http://www.w3.org/Graphics/SVG/1.1/DTD/svg11.dtd">
<!-- Generated by graphviz version 2.28.0 (20111028.1807)
 -->
<!-- Title: G Pages: 1 -->
<svg width="206pt" height="180pt"
 viewBox="0.00 0.00 206.00 180.00" xmlns="http://www.w3.org/2000/svg" xmlns:xlink="http://www.w3.org/1999/xlink">
<g id="graph1" class="graph" transform="scale(1 1) rotate(0) translate(4 176)">
<title>G</title>
<!-- Node1 -->
<g id="node1" class="node"><title>Node1</title>
<polygon fill="#bfbfbf" stroke="black" points="-0.85791,-0.800781 -0.85791,-67.1992 198.858,-67.1992 198.858,-0.800781 -0.85791,-0.800781"/>
<text text-anchor="middle" x="99" y="-53.1992" font-family="sans-serif" font-size="10.00">csc440.nuf.shared.SMILMessageProxy</text>
<polyline fill="none" stroke="black" points="-0.85791,-45.0664 198.858,-45.0664 "/>
<text text-anchor="middle" x="99" y="-31.0664" font-family="sans-serif" font-size="10.00"> </text>
<polyline fill="none" stroke="black" points="-0.85791,-22.9336 198.858,-22.9336 "/>
<text text-anchor="middle" x="99" y="-8.93359" font-family="sans-serif" font-size="10.00"> </text>
</g>
<!-- Node2 -->
<g id="node2" class="node"><title>Node2</title>
<polygon fill="none" stroke="#bfbfbf" points="64.0762,-104.801 64.0762,-171.199 133.924,-171.199 133.924,-104.801 64.0762,-104.801"/>
<text text-anchor="middle" x="99" y="-157.199" font-family="sans-serif" font-size="10.00">ValueProxy</text>
<polyline fill="none" stroke="#bfbfbf" points="64.0762,-149.066 133.924,-149.066 "/>
<text text-anchor="middle" x="99" y="-135.066" font-family="sans-serif" font-size="10.00"> </text>
<polyline fill="none" stroke="#bfbfbf" points="64.0762,-126.934 133.924,-126.934 "/>
<text text-anchor="middle" x="99" y="-112.934" font-family="sans-serif" font-size="10.00"> </text>
</g>
<!-- Node2&#45;&gt;Node1 -->
<g id="edge2" class="edge"><title>Node2&#45;&gt;Node1</title>
<path fill="none" stroke="midnightblue" d="M99,-94.6693C99,-85.5613 99,-76.0733 99,-67.4136"/>
<polygon fill="none" stroke="midnightblue" points="95.5001,-94.7265 99,-104.727 102.5,-94.7266 95.5001,-94.7265"/>
</g>
</g>
</svg>
