<?xml version="1.0" encoding="UTF-8" standalone="no"?>
<!DOCTYPE svg PUBLIC "-//W3C//DTD SVG 1.1//EN"
 "http://www.w3.org/Graphics/SVG/1.1/DTD/svg11.dtd">
<!-- Generated by graphviz version 2.28.0 (20111028.1807)
 -->
<!-- Title: G Pages: 1 -->
<svg width="280pt" height="180pt"
 viewBox="0.00 0.00 280.00 180.00" xmlns="http://www.w3.org/2000/svg" xmlns:xlink="http://www.w3.org/1999/xlink">
<g id="graph1" class="graph" transform="scale(1 1) rotate(0) translate(4 176)">
<title>G</title>
<!-- Node1 -->
<g id="node1" class="node"><title>Node1</title>
<polygon fill="#bfbfbf" stroke="black" points="-0.918457,-0.800781 -0.918457,-67.1992 272.918,-67.1992 272.918,-0.800781 -0.918457,-0.800781"/>
<text text-anchor="middle" x="136" y="-53.1992" font-family="sans-serif" font-size="10.00">csc440.nuf.client.MyRequestFactory.MessageRequest</text>
<polyline fill="none" stroke="black" points="-0.918457,-45.0664 272.918,-45.0664 "/>
<text text-anchor="middle" x="136" y="-31.0664" font-family="sans-serif" font-size="10.00"> </text>
<polyline fill="none" stroke="black" points="-0.918457,-22.9336 272.918,-22.9336 "/>
<text text-anchor="start" x="7.08154" y="-8.93359" font-family="sans-serif" font-size="10.00">+ send()</text>
</g>
<!-- Node2 -->
<g id="node2" class="node"><title>Node2</title>
<polygon fill="none" stroke="#bfbfbf" points="89.3721,-104.801 89.3721,-171.199 182.628,-171.199 182.628,-104.801 89.3721,-104.801"/>
<text text-anchor="middle" x="136" y="-157.199" font-family="sans-serif" font-size="10.00">RequestContext</text>
<polyline fill="none" stroke="#bfbfbf" points="89.3721,-149.066 182.628,-149.066 "/>
<text text-anchor="middle" x="136" y="-135.066" font-family="sans-serif" font-size="10.00"> </text>
<polyline fill="none" stroke="#bfbfbf" points="89.3721,-126.934 182.628,-126.934 "/>
<text text-anchor="middle" x="136" y="-112.934" font-family="sans-serif" font-size="10.00"> </text>
</g>
<!-- Node2&#45;&gt;Node1 -->
<g id="edge2" class="edge"><title>Node2&#45;&gt;Node1</title>
<path fill="none" stroke="midnightblue" d="M136,-94.6693C136,-85.5613 136,-76.0733 136,-67.4136"/>
<polygon fill="none" stroke="midnightblue" points="132.5,-94.7265 136,-104.727 139.5,-94.7266 132.5,-94.7265"/>
</g>
</g>
</svg>
