<?xml version="1.0" encoding="UTF-8" standalone="no"?>
<!DOCTYPE svg PUBLIC "-//W3C//DTD SVG 1.1//EN"
 "http://www.w3.org/Graphics/SVG/1.1/DTD/svg11.dtd">
<!-- Generated by graphviz version 2.28.0 (20111028.1807)
 -->
<!-- Title: G Pages: 1 -->
<svg width="210pt" height="236pt"
 viewBox="0.00 0.00 210.00 236.00" xmlns="http://www.w3.org/2000/svg" xmlns:xlink="http://www.w3.org/1999/xlink">
<g id="graph1" class="graph" transform="scale(1 1) rotate(0) translate(4 232)">
<title>G</title>
<!-- Node1 -->
<g id="node1" class="node"><title>Node1</title>
<polygon fill="#bfbfbf" stroke="black" points="-0.110352,-0.535156 -0.110352,-123.465 202.11,-123.465 202.11,-0.535156 -0.110352,-0.535156"/>
<text text-anchor="middle" x="101" y="-109.465" font-family="sans-serif" font-size="10.00">csc440.nuf.shared.SMILEngineRequest</text>
<polyline fill="none" stroke="black" points="-0.110352,-101.332 202.11,-101.332 "/>
<text text-anchor="middle" x="101" y="-87.332" font-family="sans-serif" font-size="10.00"> </text>
<polyline fill="none" stroke="black" points="-0.110352,-79.1992 202.11,-79.1992 "/>
<text text-anchor="start" x="7.88965" y="-65.1992" font-family="sans-serif" font-size="10.00">+ createSMILMessage()</text>
<text text-anchor="start" x="7.88965" y="-51.0664" font-family="sans-serif" font-size="10.00">+ readSMILMessage()</text>
<text text-anchor="start" x="7.88965" y="-36.9336" font-family="sans-serif" font-size="10.00">+ updateSMILMessage()</text>
<text text-anchor="start" x="7.88965" y="-22.8008" font-family="sans-serif" font-size="10.00">+ deleteSMILMessage()</text>
<text text-anchor="start" x="7.88965" y="-8.66797" font-family="sans-serif" font-size="10.00">+ querySMILMessages()</text>
</g>
<!-- Node2 -->
<g id="node2" class="node"><title>Node2</title>
<polygon fill="none" stroke="#bfbfbf" points="54.3721,-160.801 54.3721,-227.199 147.628,-227.199 147.628,-160.801 54.3721,-160.801"/>
<text text-anchor="middle" x="101" y="-213.199" font-family="sans-serif" font-size="10.00">RequestContext</text>
<polyline fill="none" stroke="#bfbfbf" points="54.3721,-205.066 147.628,-205.066 "/>
<text text-anchor="middle" x="101" y="-191.066" font-family="sans-serif" font-size="10.00"> </text>
<polyline fill="none" stroke="#bfbfbf" points="54.3721,-182.934 147.628,-182.934 "/>
<text text-anchor="middle" x="101" y="-168.934" font-family="sans-serif" font-size="10.00"> </text>
</g>
<!-- Node2&#45;&gt;Node1 -->
<g id="edge2" class="edge"><title>Node2&#45;&gt;Node1</title>
<path fill="none" stroke="midnightblue" d="M101,-150.425C101,-141.861 101,-132.705 101,-123.661"/>
<polygon fill="none" stroke="midnightblue" points="97.5001,-150.531 101,-160.531 104.5,-150.531 97.5001,-150.531"/>
</g>
</g>
</svg>
